<?xml version="1.0" standalone="no"?>
<!DOCTYPE svg PUBLIC "-//W3C//DTD SVG 20010904//EN"
 "http://www.w3.org/TR/2001/REC-SVG-20010904/DTD/svg10.dtd">
<svg version="1.0" xmlns="http://www.w3.org/2000/svg"
 width="300.000000pt" height="300.000000pt" viewBox="0 0 300.000000 300.000000"
 preserveAspectRatio="xMidYMid meet">
<metadata>
Created by potrace 1.10, written by Peter Selinger 2001-2011
</metadata>
<g transform="translate(0.000000,300.000000) scale(0.100000,-0.100000)"
fill="#000000" stroke="none">
<path d="M10 2810 l0 -190 1498 0 c920 0 1491 4 1482 10 -8 5 -602 9 -1483 9
-808 0 -1471 2 -1474 5 -3 2 -4 84 -3 180 0 116 -3 176 -10 176 -6 0 -10 -65
-10 -190z"/>
<path d="M992 2920 c-12 -16 -22 -37 -22 -47 0 -10 -7 -29 -16 -41 -14 -20
-14 -22 0 -22 9 0 15 3 15 8 -4 25 3 34 11 15 9 -22 26 -28 59 -23 25 3 41 28
41 63 0 20 6 38 13 41 6 3 0 4 -15 2 -20 -2 -28 1 -29 13 0 10 -2 12 -6 4 -2
-7 -12 -13 -20 -13 -13 0 -13 3 -3 15 7 8 8 15 3 15 -5 0 -19 -13 -31 -30z
m78 -47 c0 -56 -73 -71 -86 -17 -9 34 12 55 52 52 31 -2 34 -5 34 -35z"/>
<path d="M1003 2884 c-7 -18 8 -49 23 -49 5 0 10 15 12 33 2 24 -1 32 -13 32
-8 0 -18 -7 -22 -16z m27 -14 c0 -11 -4 -20 -9 -20 -5 0 -7 9 -4 20 3 11 7 20
9 20 2 0 4 -9 4 -20z"/>
<path d="M1766 2918 c-9 -5 -16 -17 -16 -26 1 -16 1 -16 11 1 13 22 59 23 59
1 0 -14 -3 -14 -15 -4 -9 7 -19 10 -22 6 -9 -9 18 -27 32 -23 6 2 11 13 13 24
3 23 -35 36 -62 21z"/>
<path d="M2040 2913 c-17 -12 -25 -28 -26 -50 -1 -18 2 -31 6 -28 4 3 10 -2
14 -10 6 -17 101 -22 111 -6 3 6 17 4 32 -4 38 -20 63 3 63 58 0 38 -1 40 -15
21 -8 -11 -15 -14 -15 -6 0 14 -20 17 -20 3 0 -5 9 -13 20 -16 23 -7 26 -28 5
-45 -17 -14 -58 -4 -48 13 4 6 6 24 5 39 -2 24 1 28 25 28 22 0 25 3 13 10
-10 6 -22 4 -37 -5 -13 -9 -23 -11 -25 -4 -7 20 -81 21 -108 2z m84 -3 c20 -7
26 -17 26 -39 0 -16 -6 -33 -12 -38 -20 -12 -92 -11 -100 1 -15 21 -8 55 14
70 26 19 37 20 72 6z"/>
<path d="M2057 2894 c-4 -4 -7 -17 -7 -30 0 -20 2 -21 25 -11 26 13 35 33 10
23 -8 -3 -15 -1 -15 5 0 6 10 9 23 7 16 -2 22 -9 21 -25 0 -13 3 -23 8 -23 5
0 8 12 6 28 -2 22 -9 28 -33 30 -17 2 -34 0 -38 -4z"/>
<path d="M741 2913 c22 -3 25 -8 21 -29 -2 -14 0 -24 7 -24 6 0 11 11 11 24 0
22 5 25 43 29 23 2 8 3 -33 3 -41 0 -63 -2 -49 -3z"/>
<path d="M877 2913 c-4 -3 -7 -11 -7 -17 0 -7 3 -7 8 1 4 6 28 13 52 16 l45 4
-46 1 c-25 1 -49 -1 -52 -5z"/>
<path d="M1110 2911 c0 -5 7 -22 15 -37 l15 -29 0 28 c0 16 -4 26 -10 22 -5
-3 -10 -1 -10 4 0 6 8 11 18 11 14 0 17 -7 14 -45 -2 -25 -7 -45 -11 -45 -3 0
-16 17 -28 38 -19 32 -22 33 -20 13 3 -36 36 -67 56 -54 20 13 33 85 17 95
-16 11 -56 10 -56 -1z"/>
<path d="M1230 2912 c43 -5 60 -18 60 -47 0 -23 -20 -38 -52 -39 -10 -1 -17
-5 -16 -11 2 -13 36 -7 65 12 25 17 33 72 11 74 -7 1 5 5 27 9 29 5 17 6 -45
6 -47 0 -69 -2 -50 -4z"/>
<path d="M1414 2875 c-12 -25 -17 -45 -12 -45 5 0 15 15 23 33 12 27 20 30 16
5 0 -5 4 -8 9 -8 13 0 13 17 -1 25 -6 4 -8 13 -5 21 3 8 2 14 -2 14 -4 -1 -16
-21 -28 -45z"/>
<path d="M1460 2916 c0 -2 7 -21 16 -42 15 -35 15 -39 -2 -51 -11 -8 -13 -13
-5 -13 21 0 45 31 47 61 1 16 -2 29 -7 29 -5 0 -9 -12 -10 -27 -1 -30 -3 -25
-13 20 -4 15 -11 27 -16 27 -6 0 -10 -2 -10 -4z"/>
<path d="M1508 2913 c12 -2 32 -2 45 0 12 2 2 4 -23 4 -25 0 -35 -2 -22 -4z"/>
<path d="M1577 2883 c-4 -20 -4 -39 -2 -42 10 -9 18 9 17 38 -1 27 3 30 36 34
l37 4 -41 1 c-40 2 -42 1 -47 -35z"/>
<path d="M1688 2913 c12 -2 30 -2 40 0 9 3 -1 5 -23 4 -22 0 -30 -2 -17 -4z"/>
<path d="M1833 2869 c-19 -42 -26 -50 -45 -47 -22 3 -40 38 -19 38 6 0 11 -7
11 -15 0 -8 5 -15 10 -15 16 0 11 27 -6 34 -26 10 -32 7 -36 -16 -2 -17 -10
-23 -30 -23 -15 -1 -30 -4 -34 -8 -4 -4 9 -7 29 -7 19 0 38 6 40 13 4 10 6 10
6 0 1 -7 14 -13 29 -13 28 0 49 24 71 83 18 48 -3 28 -26 -24z"/>
<path d="M1890 2905 c0 -11 5 -27 10 -35 8 -12 10 -12 10 5 0 11 -5 27 -10 35
-8 12 -10 12 -10 -5z"/>
<path d="M1928 2913 c7 -3 16 -2 19 1 4 3 -2 6 -13 5 -11 0 -14 -3 -6 -6z"/>
<path d="M1968 2914 c-3 -3 1 -19 9 -35 17 -34 25 -34 16 -1 -3 12 -10 22 -17
23 -6 1 0 5 14 9 22 7 22 8 4 9 -11 1 -23 -2 -26 -5z"/>
<path d="M1366 2894 c-4 -9 -4 -19 -1 -22 2 -3 7 3 11 12 4 9 4 19 1 22 -2 3
-7 -3 -11 -12z"/>
<path d="M731 2883 c-2 -40 20 -73 48 -73 38 1 61 23 61 59 0 17 -4 31 -8 31
-5 0 -7 -12 -5 -27 3 -20 -2 -32 -17 -41 -32 -19 -57 -6 -68 36 -7 24 -10 29
-11 15z"/>
<path d="M790 2876 c0 -13 -6 -27 -12 -29 -8 -3 -6 -6 5 -6 12 -1 17 7 17 29
0 17 -2 30 -5 30 -3 0 -5 -11 -5 -24z"/>
<path d="M892 2880 c0 -14 2 -19 5 -12 2 6 2 18 0 25 -3 6 -5 1 -5 -13z"/>
<path d="M928 2865 c-2 -19 0 -35 4 -35 4 0 8 16 8 35 0 19 -2 35 -4 35 -2 0
-6 -16 -8 -35z"/>
<path d="M1198 2865 c-2 -22 0 -34 6 -32 14 4 21 67 8 67 -6 0 -12 -16 -14
-35z"/>
<path d="M1230 2885 c0 -11 5 -15 15 -11 21 8 19 -11 -2 -24 -16 -10 -16 -10
2 -8 26 4 28 51 3 56 -12 2 -18 -3 -18 -13z"/>
<path d="M1330 2884 c0 -8 5 -12 10 -9 6 3 10 10 10 16 0 5 -4 9 -10 9 -5 0
-10 -7 -10 -16z"/>
<path d="M1544 2891 c4 -5 0 -12 -6 -14 -8 -3 -6 -6 5 -6 9 -1 17 6 17 14 0 8
-5 15 -11 15 -5 0 -8 -4 -5 -9z"/>
<path d="M1608 2865 c-2 -19 0 -35 4 -35 4 0 8 16 8 35 0 19 -2 35 -4 35 -2 0
-6 -16 -8 -35z"/>
<path d="M1640 2864 c0 -21 4 -33 10 -29 12 7 10 65 -2 65 -4 0 -8 -16 -8 -36z"/>
<path d="M1674 2866 c0 -19 4 -32 8 -30 4 3 8 18 8 35 0 16 -4 29 -8 29 -4 0
-8 -15 -8 -34z"/>
<path d="M1710 2884 c0 -8 5 -12 10 -9 6 3 10 10 10 16 0 5 -4 9 -10 9 -5 0
-10 -7 -10 -16z"/>
<path d="M1917 2873 c-6 -31 0 -46 14 -38 12 8 12 65 0 65 -5 0 -11 -12 -14
-27z"/>
<path d="M1866 2875 c-3 -8 -1 -15 4 -15 6 0 10 7 10 15 0 8 -2 15 -4 15 -2 0
-6 -7 -10 -15z"/>
<path d="M860 2862 c0 -12 5 -22 10 -22 6 0 10 -7 10 -15 0 -8 8 -15 18 -14
10 0 12 3 5 6 -7 2 -13 10 -13 16 0 7 -7 21 -15 31 -15 19 -15 19 -15 -2z"/>
<path d="M1950 2865 c0 -24 10 -39 28 -43 13 -2 9 9 -18 48 -8 13 -10 12 -10
-5z"/>
<path d="M1330 2850 c-13 -8 -13 -10 2 -10 9 0 20 5 23 10 8 13 -5 13 -25 0z"/>
<path d="M1530 2850 c0 -5 5 -10 10 -10 20 0 10 -19 -12 -23 -13 -2 0 -4 27
-4 28 0 40 2 28 4 -12 2 -25 13 -28 24 -7 20 -25 27 -25 9z"/>
<path d="M1710 2850 c-13 -8 -13 -10 2 -10 9 0 20 5 23 10 8 13 -5 13 -25 0z"/>
<path d="M2182 2849 c2 -6 8 -10 13 -10 5 0 11 4 13 10 2 6 -4 11 -13 11 -9 0
-15 -5 -13 -11z"/>
<path d="M1367 2836 c-5 -13 -14 -17 -31 -12 -14 3 -27 2 -30 -3 -9 -14 42
-19 60 -6 9 6 15 18 12 25 -3 10 -6 9 -11 -4z"/>
<path d="M1440 2840 c19 -13 30 -13 30 0 0 6 -10 10 -22 10 -19 0 -20 -2 -8
-10z"/>
<path d="M1850 2842 c0 -4 9 -8 20 -9 11 -1 20 2 20 5 0 4 -9 8 -20 9 -11 1
-20 -2 -20 -5z"/>
<path d="M1894 2818 c-9 -13 -3 -15 31 -8 l30 6 -28 6 c-15 3 -30 1 -33 -4z"/>
<path d="M848 2813 c7 -3 16 -2 19 1 4 3 -2 6 -13 5 -11 0 -14 -3 -6 -6z"/>
<path d="M1078 2813 c7 -3 16 -2 19 1 4 3 -2 6 -13 5 -11 0 -14 -3 -6 -6z"/>
<path d="M1628 2813 c6 -2 18 -2 25 0 6 3 1 5 -13 5 -14 0 -19 -2 -12 -5z"/>
<path d="M1989 2799 c-11 -11 -27 -36 -35 -55 -17 -40 -39 -48 -24 -8 13 33
13 34 -5 28 -20 -8 -19 -53 1 -61 9 -3 20 0 25 8 7 11 9 11 9 -3 0 -13 -8 -18
-30 -18 -24 0 -31 5 -36 27 -8 32 5 55 37 64 23 7 23 7 2 8 -44 2 -64 -40 -43
-93 9 -24 12 -25 76 -22 81 4 110 28 98 79 -6 30 -6 30 31 24 48 -8 52 -13 31
-36 -15 -17 -15 -19 0 -31 21 -18 37 4 30 43 -5 24 -3 27 22 27 25 -1 25 -2
10 -14 -19 -14 -24 -36 -9 -36 5 0 12 6 14 13 3 7 6 5 6 -5 1 -9 -7 -22 -16
-27 -10 -6 -13 -11 -7 -11 19 0 36 28 29 50 -4 13 -2 20 7 20 9 1 8 3 -3 10
-9 5 -52 8 -97 7 -44 -2 -79 0 -76 4 2 4 -6 5 -18 1 -21 -5 -22 -4 -9 11 19
24 5 21 -20 -4z m61 -59 c0 -32 -17 -50 -47 -50 -38 0 -49 53 -19 86 7 8 18 8
38 0 21 -8 28 -17 28 -36z m87 -22 c-3 -8 -6 -5 -6 6 -1 11 2 17 5 13 3 -3 4
-12 1 -19z"/>
<path d="M1992 2755 c-12 -22 -4 -55 13 -55 21 0 29 40 12 57 -13 13 -16 13
-25 -2z m21 -8 c3 -8 1 -20 -4 -28 -6 -10 -9 -7 -9 14 0 29 5 35 13 14z"/>
<path d="M506 2740 c0 -57 15 -80 38 -61 10 8 16 9 21 1 4 -6 12 -7 24 0 12 6
22 5 30 -3 9 -9 14 -9 21 2 6 11 12 12 23 3 9 -8 24 -9 46 -2 22 6 39 5 51 -2
14 -9 25 -9 42 -1 15 7 30 7 40 2 11 -6 19 -5 23 1 3 5 -2 10 -12 10 -15 0
-18 8 -18 45 0 40 3 45 22 45 20 0 21 -3 13 -25 -6 -16 -6 -25 0 -25 6 0 10 9
10 20 0 12 7 20 16 20 14 0 16 -7 11 -40 -3 -25 -1 -38 5 -34 5 4 8 24 6 45
-2 24 0 38 7 36 5 -3 19 -1 30 3 12 5 -11 8 -57 8 -77 0 -78 0 -72 -24 3 -13
3 -35 0 -49 -5 -20 -13 -25 -39 -25 -31 0 -32 1 -32 42 0 40 2 43 30 49 29 6
29 6 -7 8 -21 0 -38 -4 -38 -10 0 -5 -5 -7 -12 -3 -7 4 -8 3 -4 -5 4 -6 12 -9
17 -6 5 4 9 -7 9 -24 0 -33 -22 -51 -62 -51 -20 0 -23 5 -23 42 0 37 3 44 25
49 23 6 23 7 -6 8 -36 1 -44 -11 -44 -65 0 -43 -12 -43 -39 -1 l-21 32 0 -28
c0 -16 4 -26 10 -22 6 3 10 1 10 -4 0 -6 -8 -11 -17 -11 -15 0 -18 9 -18 45 0
41 2 45 20 41 11 -2 29 0 40 4 14 6 7 8 -25 8 -49 0 -60 -10 -59 -48 1 -23 2
-23 9 5 l8 30 1 -32 c0 -18 -4 -33 -10 -33 -5 0 -7 -4 -4 -10 3 -5 -2 -10 -12
-10 -15 0 -18 8 -18 42 0 29 5 45 15 50 11 5 10 7 -5 7 -18 1 -20 -5 -19 -49z
m151 -17 c-3 -10 -5 -2 -5 17 0 19 2 27 5 18 2 -10 2 -26 0 -35z"/>
<path d="M986 2764 c3 -13 3 -35 0 -49 -5 -20 -13 -25 -36 -25 -17 0 -30 -4
-30 -9 0 -12 50 -3 68 12 9 7 12 25 10 49 -3 37 12 53 27 28 4 -6 10 -8 15 -5
5 3 11 -5 13 -17 3 -15 4 -14 2 5 -3 42 29 31 33 -12 3 -24 0 -31 -9 -25 -9 5
-10 2 -6 -9 4 -11 1 -17 -8 -17 -8 0 -15 3 -15 8 0 4 -8 17 -18 29 l-17 23 0
-25 c0 -14 4 -25 9 -25 5 0 14 -8 21 -17 11 -14 16 -15 28 -5 11 9 17 10 22 2
8 -13 41 -9 73 9 20 11 23 19 20 52 -3 35 -1 39 17 37 15 -2 21 -12 23 -35 2
-20 -1 -33 -8 -33 -6 0 -8 -4 -5 -10 3 -5 -2 -10 -12 -11 -10 -1 1 -5 25 -11
35 -8 48 -6 69 7 21 14 24 23 21 56 -3 28 0 39 12 42 8 2 -67 4 -167 4 l-183
1 6 -24z m172 10 c16 -5 22 -14 22 -33 0 -35 -17 -51 -54 -51 -30 0 -31 2 -31
45 0 48 8 53 63 39z m150 -17 c2 -10 1 -29 -2 -43 -5 -19 -13 -24 -39 -24 -31
0 -32 1 -32 44 0 44 0 44 35 42 25 -1 36 -6 38 -19z"/>
<path d="M1122 2730 c3 -33 10 -37 28 -15 15 18 6 45 -15 45 -11 0 -15 -9 -13
-30z m15 -2 c-3 -8 -6 -5 -6 6 -1 11 2 17 5 13 3 -3 4 -12 1 -19z"/>
<path d="M1260 2749 c0 -5 10 -9 22 -9 12 0 18 3 14 7 -10 11 -36 12 -36 2z"/>
<path d="M1260 2718 c0 -22 26 -24 34 -3 3 8 1 15 -4 15 -6 0 -10 -6 -10 -12
0 -9 -4 -8 -10 2 -8 13 -10 12 -10 -2z"/>
<path d="M1357 2783 c-10 -10 -8 -25 2 -18 5 3 12 -5 14 -17 3 -16 4 -15 2 5
-1 17 3 27 12 27 10 0 13 -12 11 -45 -2 -28 -8 -45 -15 -45 -7 0 -13 3 -13 8
0 4 -9 18 -20 32 l-20 25 10 -32 c7 -28 6 -33 -8 -33 -14 0 -15 -2 -2 -10 9
-6 17 -5 22 3 6 9 10 9 16 0 7 -10 12 -10 26 0 13 10 19 27 19 55 l0 42 38 0
c35 0 39 -3 40 -27 2 -25 3 -38 8 -68 0 -6 30 -11 65 -12 53 -1 68 3 82 19 15
15 16 23 6 38 -9 14 -8 20 1 23 9 4 9 7 0 18 -11 11 -13 10 -13 -4 0 -20 -16
-23 -23 -4 -2 6 -8 8 -13 4 -5 -5 2 -16 15 -26 42 -32 22 -51 -51 -51 l-63 0
0 42 c0 40 2 43 30 49 17 4 -15 7 -71 8 -55 0 -104 -2 -107 -6z"/>
<path d="M1583 2782 c-6 -4 -11 -24 -11 -44 0 -30 3 -35 13 -25 9 8 10 16 3
24 -15 18 -3 41 24 46 19 4 20 4 3 5 -11 1 -25 -2 -32 -6z"/>
<path d="M1678 2741 c-2 -37 0 -47 10 -43 9 3 13 18 10 43 -3 34 -1 39 17 39
48 0 79 -60 41 -79 -11 -5 -32 -12 -46 -14 -14 -2 13 -3 60 -3 77 1 85 3 87
21 1 16 1 16 -3 3 -4 -12 -16 -18 -37 -18 -31 0 -32 1 -32 42 0 40 2 43 30 49
29 6 29 6 -7 8 -21 0 -38 -4 -38 -9 0 -7 -6 -7 -19 0 -11 5 -31 10 -44 10 -23
0 -25 -5 -29 -49z"/>
<path d="M2236 2771 c-18 -20 -20 -31 -6 -31 6 0 10 6 10 14 0 18 26 27 56 20
18 -5 24 -13 24 -33 0 -33 -17 -51 -48 -51 -16 0 -26 7 -29 20 l-6 21 -14 -21
c-10 -14 -25 -20 -51 -20 -30 -1 -34 -3 -19 -11 9 -5 22 -7 28 -3 6 3 37 6 69
5 68 -1 84 12 78 64 -4 32 -2 35 22 35 39 0 57 -15 41 -34 -8 -9 -21 -16 -30
-16 -13 0 -13 -2 -2 -9 11 -7 11 -9 0 -14 -10 -4 -9 -6 4 -6 9 -1 17 4 17 10
0 6 7 17 15 25 37 37 9 52 -97 52 -32 0 -51 -5 -62 -17z"/>
<path d="M2417 2743 c-19 -41 -27 -48 -55 -51 -17 -2 -32 -7 -32 -13 0 -11 17
-11 45 0 11 5 25 4 33 -1 8 -7 17 -6 27 2 12 10 18 10 31 0 12 -11 17 -11 29
1 23 24 -14 108 -48 109 -4 0 -17 -21 -30 -47z m60 -8 c20 -44 20 -45 1 -45
-10 0 -16 5 -13 10 3 6 2 10 -4 10 -5 0 -13 -4 -16 -10 -3 -5 -14 -10 -24 -10
-17 0 -17 3 3 45 12 24 24 44 27 45 3 0 14 -20 26 -45z"/>
<path d="M2440 2736 c0 -9 5 -16 10 -16 6 0 10 4 10 9 0 6 -4 13 -10 16 -5 3
-10 -1 -10 -9z"/>
<path d="M1850 2765 c0 -9 -11 -27 -25 -40 -13 -14 -19 -25 -12 -25 17 0 41
31 45 58 2 12 1 22 -2 22 -3 0 -6 -7 -6 -15z"/>
<path d="M606 2761 c-3 -4 1 -17 9 -27 14 -18 14 -18 15 9 0 26 -13 36 -24 18z"/>
<path d="M696 2762 c-10 -16 -3 -63 9 -59 5 2 12 14 13 26 4 26 -12 49 -22 33z
m11 -34 c-3 -7 -5 -2 -5 12 0 14 2 19 5 13 2 -7 2 -19 0 -25z"/>
<path d="M785 2760 c-8 -13 -1 -24 14 -19 6 3 7 10 2 18 -6 10 -10 10 -16 1z"/>
<path d="M1427 2733 c-5 -44 15 -75 35 -55 9 9 8 12 -8 12 -17 0 -19 6 -16 40
5 51 -4 53 -11 3z"/>
<path d="M1468 2764 c-5 -4 -8 -21 -8 -38 0 -21 3 -27 11 -19 6 6 9 23 7 38
-2 15 -6 23 -10 19z"/>
<path d="M1532 2755 c-11 -12 -10 -15 3 -15 8 0 15 7 15 15 0 18 -2 18 -18 0z"/>
<path d="M1812 2755 c-11 -12 -10 -15 3 -15 8 0 15 7 15 15 0 18 -2 18 -18 0z"/>
<path d="M940 2749 c0 -5 7 -9 16 -9 8 0 12 -5 9 -10 -4 -6 -11 -8 -16 -5 -5
4 -9 -1 -9 -9 0 -19 11 -21 28 -4 18 18 15 35 -8 41 -11 3 -20 1 -20 -4z"/>
<path d="M1212 2740 c0 -14 2 -19 5 -12 2 6 2 18 0 25 -3 6 -5 1 -5 -13z"/>
<path d="M1710 2745 c0 -18 16 -20 23 -2 3 7 6 5 6 -5 1 -9 -7 -22 -16 -28
-16 -10 -16 -10 2 -8 13 2 21 12 23 31 3 22 -1 27 -17 27 -12 0 -21 -7 -21
-15z"/>
<path d="M2090 2750 c-8 -5 -11 -12 -7 -16 4 -4 13 -2 19 4 15 15 7 24 -12 12z"/>
<path d="M2257 2752 c-11 -17 1 -52 18 -52 18 0 30 39 16 53 -8 8 -11 3 -12
-18 l-1 -30 -7 30 c-4 20 -9 26 -14 17z"/>
<path d="M2355 2750 c-3 -5 -2 -10 4 -10 5 0 13 5 16 10 3 6 2 10 -4 10 -5 0
-13 -4 -16 -10z"/>
<path d="M780 2713 c0 -8 5 -13 12 -11 18 6 21 25 3 25 -8 0 -15 -7 -15 -14z"/>
<path d="M878 2723 c-23 -6 -23 -19 -1 -27 10 -4 14 -4 10 0 -4 4 -2 13 4 21
6 7 10 12 8 12 -2 -1 -12 -3 -21 -6z"/>
<path d="M1536 2715 c-16 -12 -17 -15 -4 -15 9 0 18 7 22 15 7 18 6 18 -18 0z"/>
<path d="M1600 2710 c-13 -8 -12 -10 3 -10 9 0 17 5 17 10 0 12 -1 12 -20 0z"/>
<path d="M2086 2712 c-3 -6 0 -13 6 -15 7 -3 3 -6 -10 -6 -13 -1 -21 -5 -18
-9 5 -8 53 -9 60 -1 2 2 -5 12 -14 22 -11 11 -21 14 -24 9z"/>
<path d="M1000 2680 c0 -5 7 -7 15 -4 8 4 15 8 15 10 0 2 -7 4 -15 4 -8 0 -15
-4 -15 -10z"/>
<path d="M0 2600 c0 -5 11 -10 25 -10 l25 0 1 -127 c0 -71 0 -200 0 -288 -1
-88 -1 -541 -1 -1007 l0 -848 -25 0 c-14 0 -25 -4 -25 -10 0 -5 17 -10 38 -10
l37 0 -2 1020 c-2 669 1 1020 7 1020 6 0 10 -10 10 -22 l0 -22 16 22 c15 22
52 32 38 10 -5 -7 -3 -8 7 -2 8 5 92 9 187 10 95 1 176 4 179 8 4 4 -76 6
-177 6 -102 0 -204 -1 -228 0 l-43 0 2 127 1 128 -36 3 c-20 1 -36 -2 -36 -8z"/>
<path d="M2910 1455 l0 -1155 45 0 c25 0 45 5 45 10 0 6 -13 10 -30 10 -17 0
-30 5 -30 13 -5 141 -3 2227 2 2227 4 0 5 7 1 15 -3 9 -2 15 3 14 24 -4 54 2
54 11 0 6 -20 10 -45 10 l-45 0 0 -1155z"/>
<path d="M2579 2572 c-123 -64 -148 -237 -47 -328 47 -44 87 -56 163 -52 90 4
143 36 177 107 91 188 -105 371 -293 273z m209 -12 c60 -34 92 -91 92 -165 0
-139 -121 -224 -262 -185 -140 39 -183 229 -75 328 59 55 169 65 245 22z"/>
<path d="M2595 2556 c-65 -28 -114 -120 -101 -189 8 -42 41 -93 79 -121 20
-15 47 -21 97 -24 61 -4 75 -1 114 22 115 67 112 247 -4 306 -46 23 -139 26
-185 6z m173 -23 c56 -35 82 -80 82 -142 0 -50 -7 -54 -41 -29 l-28 21 24 23
c35 33 13 91 -32 82 -11 -2 -25 7 -36 25 -15 24 -23 28 -45 23 -15 -4 -40 -8
-57 -10 -16 -2 -31 -8 -33 -15 -2 -6 -17 -18 -34 -27 -27 -14 -30 -20 -25 -49
5 -30 -6 -55 -25 -55 -13 0 -9 40 9 77 9 19 34 48 56 64 33 24 50 29 99 29 38
0 68 -6 86 -17z m-55 -19 c13 -4 11 -14 -7 -62 -26 -65 -37 -68 -114 -35 -42
18 -42 18 -26 41 l16 24 44 -43 44 -43 0 62 c0 63 6 71 43 56z m-67 -15 c10
-17 -13 -36 -27 -22 -12 12 -4 33 11 33 5 0 12 -5 16 -11z m159 -69 c-3 -5
-25 -16 -50 -26 -42 -16 -60 -34 -33 -34 7 0 31 -7 55 -16 39 -15 41 -18 31
-38 -6 -11 -12 -23 -15 -25 -2 -3 -21 13 -43 34 -51 49 -63 39 -16 -13 20 -22
36 -42 36 -45 0 -7 -62 -28 -68 -23 -2 3 -6 35 -8 72 -3 66 -3 67 39 115 42
48 42 48 59 27 10 -11 16 -24 13 -28z m-132 -61 c9 -13 -7 -129 -16 -129 -34
1 -38 16 -17 65 11 26 19 49 17 51 -2 2 -26 -5 -54 -16 -45 -17 -52 -17 -57
-4 -16 42 -9 47 60 41 36 -2 66 -6 67 -8z m-69 -86 c-9 -36 -7 -36 -32 -13
-29 28 -28 35 8 38 29 2 30 1 24 -25z"/>
<path d="M533 2343 c4 -4 43 -6 87 -5 48 0 78 -3 75 -9 -4 -5 -1 -9 4 -9 6 0
11 4 11 9 0 5 15 8 33 7 28 -2 33 -7 38 -37 l6 -34 2 37 1 37 56 0 c31 0 58 2
62 5 3 3 -82 6 -188 6 -106 0 -190 -3 -187 -7z"/>
<path d="M943 2343 c15 -2 39 -2 55 0 15 2 2 4 -28 4 -30 0 -43 -2 -27 -4z"/>
<path d="M1070 2333 c0 -10 -3 -36 -7 -58 -7 -48 3 -44 12 4 3 19 10 42 16 52
7 15 6 19 -6 19 -8 0 -15 -8 -15 -17z"/>
<path d="M1110 2346 c0 -2 7 -6 15 -10 8 -3 15 -1 15 4 0 6 -7 10 -15 10 -8 0
-15 -2 -15 -4z"/>
<path d="M1180 2343 c0 -5 14 -8 30 -8 17 0 30 3 30 8 0 4 -13 7 -30 7 -16 0
-30 -3 -30 -7z"/>
<path d="M1283 2343 c9 -2 25 -2 35 0 9 3 1 5 -18 5 -19 0 -27 -2 -17 -5z"/>
<path d="M1420 2339 c0 -5 5 -7 10 -4 6 3 10 8 10 11 0 2 -4 4 -10 4 -5 0 -10
-5 -10 -11z"/>
<path d="M1458 2343 c7 -3 16 -2 19 1 4 3 -2 6 -13 5 -11 0 -14 -3 -6 -6z"/>
<path d="M1518 2325 c-3 -13 -2 -22 2 -20 11 7 20 45 10 45 -4 0 -10 -11 -12
-25z"/>
<path d="M1710 2267 c-7 -46 -11 -90 -8 -98 2 -7 10 28 17 79 7 52 11 96 8 98
-3 3 -10 -33 -17 -79z"/>
<path d="M1802 2298 c2 -29 -1 -73 -6 -98 -4 -25 -5 -42 -1 -38 14 13 32 153
21 160 -8 5 -7 8 2 8 6 0 12 5 12 10 0 6 -7 10 -15 10 -12 0 -15 -11 -13 -52z"/>
<path d="M1866 2319 c-3 -17 -6 -57 -5 -88 1 -54 1 -55 11 -22 5 19 7 43 5 52
-3 10 -1 34 3 54 4 19 4 35 0 35 -4 0 -10 -14 -14 -31z"/>
<path d="M1945 2303 c-4 -27 -10 -59 -15 -73 -16 -49 -20 -80 -10 -80 5 0 10
14 10 31 0 17 4 38 9 47 14 26 30 122 20 122 -4 0 -11 -21 -14 -47z"/>
<path d="M2060 2336 c0 -8 -2 -23 -5 -33 -3 -11 -1 -9 6 5 7 12 16 22 21 22 4
0 8 5 8 10 0 6 -7 10 -15 10 -8 0 -15 -6 -15 -14z"/>
<path d="M2123 2310 c0 -25 2 -35 4 -22 2 12 2 32 0 45 -2 12 -4 2 -4 -23z"/>
<path d="M2146 2253 c8 -123 23 -156 24 -53 0 88 -9 150 -22 150 -5 0 -6 -40
-2 -97z"/>
<path d="M2250 2338 c-1 -7 -3 -37 -6 -65 -4 -35 -2 -53 5 -53 6 0 11 17 12
38 0 20 2 49 4 65 2 15 -1 27 -6 27 -5 0 -9 -6 -9 -12z"/>
<path d="M2319 2333 c0 -10 -3 -47 -6 -83 -3 -36 -3 -63 0 -60 7 7 19 160 13
160 -3 0 -6 -8 -7 -17z"/>
<path d="M198 2311 c-38 -31 -95 -85 -77 -75 20 11 114 94 107 94 -3 0 -16 -9
-30 -19z"/>
<path d="M640 2311 c0 -6 4 -13 10 -16 6 -3 7 1 4 9 -7 18 -14 21 -14 7z"/>
<path d="M751 2304 c0 -11 3 -14 6 -6 3 7 2 16 -1 19 -3 4 -6 -2 -5 -13z"/>
<path d="M1221 2304 c0 -11 3 -14 6 -6 3 7 2 16 -1 19 -3 4 -6 -2 -5 -13z"/>
<path d="M1300 2310 c0 -5 5 -10 11 -10 5 0 7 5 4 10 -3 6 -8 10 -11 10 -2 0
-4 -4 -4 -10z"/>
<path d="M1493 2285 c0 -22 2 -30 4 -17 2 12 2 30 0 40 -3 9 -5 -1 -4 -23z"/>
<path d="M1650 2304 c0 -8 5 -12 10 -9 6 3 10 10 10 16 0 5 -4 9 -10 9 -5 0
-10 -7 -10 -16z"/>
<path d="M1753 2285 c0 -22 2 -30 4 -17 2 12 2 30 0 40 -3 9 -5 -1 -4 -23z"/>
<path d="M911 2300 c0 -8 4 -22 9 -30 12 -18 12 -2 0 25 -6 13 -9 15 -9 5z"/>
<path d="M505 2290 c-3 -5 -2 -10 4 -10 5 0 13 5 16 10 3 6 2 10 -4 10 -5 0
-13 -4 -16 -10z"/>
<path d="M812 2280 c0 -14 2 -19 5 -12 2 6 2 18 0 25 -3 6 -5 1 -5 -13z"/>
<path d="M690 2280 c0 -5 5 -10 11 -10 5 0 7 5 4 10 -3 6 -8 10 -11 10 -2 0
-4 -4 -4 -10z"/>
<path d="M862 2270 c0 -14 2 -19 5 -12 2 6 2 18 0 25 -3 6 -5 1 -5 -13z"/>
<path d="M1462 2270 c0 -14 2 -19 5 -12 2 6 2 18 0 25 -3 6 -5 1 -5 -13z"/>
<path d="M365 2270 c-44 -10 -75 -29 -75 -46 0 -8 -28 -42 -61 -75 l-62 -60 7
-79 c10 -121 23 -151 76 -177 63 -31 100 -39 100 -21 0 7 -8 14 -17 15 -28 2
-88 30 -102 47 -6 8 -15 31 -18 52 -6 34 -4 37 13 30 10 -4 30 -10 44 -12 14
-2 36 -7 48 -10 50 -11 58 1 59 76 0 39 -1 70 -3 70 -2 0 -8 -19 -14 -42 -9
-30 -9 -48 -1 -66 11 -24 11 -24 -26 -18 -68 13 -113 27 -113 35 0 15 71 73
109 89 20 8 30 17 23 19 -16 6 -93 -32 -126 -62 -14 -13 -27 -21 -27 -17 -9
55 -6 62 39 110 26 26 58 56 72 66 14 9 19 14 13 11 -7 -3 -13 -2 -13 3 0 22
85 46 103 28 8 -7 57 -12 136 -14 68 -1 127 -5 133 -8 5 -3 50 -7 101 -9 51
-2 130 -9 177 -15 47 -7 92 -14 100 -15 38 -5 153 -15 235 -20 50 -4 97 -8
105 -10 20 -6 84 -15 140 -20 54 -5 125 -13 125 -15 0 -1 99 -6 270 -15 127
-7 175 -11 265 -21 36 -4 68 -7 72 -6 17 4 229 -30 328 -51 58 -13 124 -34
148 -46 36 -18 42 -25 36 -44 -6 -22 -6 -22 9 -2 9 11 19 17 23 13 4 -4 2 -14
-4 -21 -7 -8 -8 -18 -4 -22 4 -5 -2 -5 -12 -1 -11 4 -22 2 -27 -5 -5 -9 -13
-8 -32 4 -54 35 -209 63 -397 71 -114 5 -175 12 -192 22 -4 3 -58 7 -120 9
-161 7 -505 36 -588 51 -39 7 -84 11 -215 19 -49 3 -135 10 -190 16 -55 6
-118 13 -140 14 -41 3 -132 14 -170 21 -11 2 -40 6 -65 8 -42 5 -88 10 -170
21 -26 3 -40 -1 -57 -17 l-23 -21 21 -36 c20 -33 20 -36 3 -48 -17 -12 -16
-13 4 -13 23 0 32 -19 10 -21 -7 0 2 -5 20 -10 18 -5 30 -14 27 -19 -4 -6 -1
-10 4 -10 6 0 11 5 11 11 0 7 7 8 18 4 9 -4 64 -13 122 -21 58 -7 123 -16 145
-19 55 -8 85 -12 122 -13 31 -2 32 -4 28 -34 l-5 -33 10 33 c10 31 44 55 74
51 6 -1 20 -1 31 0 16 1 17 3 5 11 -25 16 13 23 88 16 166 -14 168 -14 132
-26 -24 -8 -23 -8 8 -9 20 -1 31 3 27 9 -3 6 1 10 10 10 10 0 13 -5 9 -12 -6
-10 -4 -10 8 0 12 9 18 10 23 2 4 -6 13 -9 21 -6 8 3 14 2 14 -3 0 -9 37 -14
117 -15 29 -1 46 -4 40 -9 -7 -4 9 -7 35 -5 25 2 45 1 43 -3 -5 -7 176 -33
237 -33 25 -1 44 -4 41 -8 -2 -5 4 -8 15 -8 10 0 29 -9 42 -20 16 -14 37 -20
72 -20 27 0 48 -5 48 -11 0 -5 5 -7 11 -3 6 3 40 8 75 9 51 3 66 0 74 -13 9
-16 9 -16 10 0 0 15 9 18 55 17 43 -1 55 -5 55 -18 1 -14 2 -14 14 2 19 25 43
21 51 -10 5 -21 8 -24 16 -12 13 21 11 59 -3 59 -7 1 -111 1 -230 1 -214 -1
-218 0 -243 23 -33 31 -32 36 13 37 29 1 25 3 -23 10 -32 5 -63 5 -67 1 -5 -5
-37 -3 -71 4 -123 25 -535 76 -664 81 -119 5 -133 4 -133 -11 0 -9 -5 -16 -11
-16 -6 0 -8 7 -5 16 4 10 1 14 -6 12 -7 -3 -14 -14 -16 -25 -3 -18 -9 -20 -55
-16 -86 7 -364 43 -417 54 -45 10 -49 12 -48 40 1 18 -8 39 -21 53 l-23 24 21
7 c12 4 50 3 85 0 l64 -7 -29 -46 c-31 -49 -35 -62 -18 -62 5 0 21 24 33 53
l24 53 42 -4 c32 -3 40 -8 35 -20 -4 -12 -3 -13 9 -3 12 10 52 8 190 -8 97
-12 242 -26 323 -31 82 -6 227 -19 323 -30 96 -10 252 -24 345 -30 94 -6 222
-17 285 -25 63 -8 161 -17 217 -20 138 -8 275 -31 334 -56 27 -12 49 -24 49
-26 0 -3 -9 -18 -21 -34 -20 -28 -23 -29 -107 -30 -48 0 -105 -3 -126 -7 l-40
-7 3 -57 c2 -38 -3 -64 -13 -81 -9 -13 -13 -27 -9 -30 3 -4 1 -7 -5 -7 -7 0
-12 5 -12 10 0 6 -4 10 -10 10 -18 0 -10 -22 10 -27 30 -8 29 -96 -2 -117 -12
-8 -25 -13 -29 -10 -4 2 -32 -6 -61 -20 -29 -13 -65 -26 -79 -29 -68 -17 -146
-103 -155 -173 -2 -21 -9 -52 -14 -69 -4 -16 -18 -70 -30 -119 -12 -50 -31
-108 -42 -130 -20 -42 -95 -126 -111 -126 -5 0 -15 -6 -22 -12 -69 -62 -102
-71 -278 -73 -153 -2 -159 -2 -167 19 -7 17 -9 18 -9 4 -1 -16 -12 -18 -78
-18 -106 0 -255 26 -317 54 -77 36 -154 117 -199 209 -21 42 -40 85 -43 95 -2
9 -10 40 -18 67 -7 28 -10 52 -5 53 5 2 9 8 9 13 0 6 -4 8 -9 4 -6 -3 -10 3
-10 12 -1 10 -3 34 -6 53 -3 19 -6 48 -6 63 -1 15 -6 30 -11 33 -4 3 -6 9 -3
14 3 4 -4 28 -14 53 -17 38 -29 50 -93 85 -40 22 -100 49 -133 60 -73 24 -116
43 -132 59 -14 12 -16 116 -3 108 5 -3 6 4 3 16 -10 36 -27 3 -34 -68 -5 -48
-4 -71 4 -79 7 -6 64 -28 127 -49 154 -51 182 -64 175 -76 -5 -6 -12 -5 -23 3
-13 11 -14 10 -8 -15 4 -17 2 -34 -3 -41 -13 -16 -81 -145 -81 -154 0 -4 11
10 25 30 14 20 25 40 25 44 0 6 67 121 78 134 2 3 14 -7 27 -22 23 -27 55
-144 55 -203 0 -19 9 -75 21 -127 26 -113 84 -228 155 -307 107 -118 210 -146
569 -156 146 -4 256 -3 282 3 57 13 187 97 235 152 65 73 97 150 128 300 29
144 43 181 82 217 25 23 124 56 140 47 5 -3 12 3 14 13 7 25 100 57 108 36 3
-7 2 -12 -2 -12 -28 5 -35 -1 -20 -18 10 -12 13 -25 8 -38 -4 -11 -5 -24 -2
-30 3 -5 -1 -4 -10 3 -18 14 -48 6 -48 -13 0 -7 -5 -15 -11 -17 -7 -2 -6 -8 4
-17 13 -10 19 -9 36 8 12 12 22 21 24 21 6 0 0 -66 -6 -77 -4 -6 -15 -10 -25
-8 -9 2 -25 4 -34 4 -10 1 -18 6 -18 12 0 5 4 8 9 4 5 -3 13 0 17 6 4 7 3 9
-3 6 -13 -8 -25 35 -17 57 3 9 1 16 -5 16 -7 0 -11 -26 -11 -71 l0 -71 26 6
c15 4 39 9 54 13 28 5 28 6 36 107 5 55 9 120 8 143 0 23 2 40 5 38 8 -4 5 64
-3 72 -3 3 -6 13 -6 22 0 12 30 25 108 48 59 18 120 34 136 35 30 3 44 24 97
143 12 28 28 63 35 78 19 39 17 50 -7 44 -11 -3 -35 3 -53 14 -118 69 -452
121 -956 149 -102 6 -216 14 -255 19 -104 13 -256 29 -380 41 -60 5 -144 14
-185 20 -129 16 -431 40 -512 40 -43 0 -78 4 -78 9 0 14 -22 18 -55 11z m1555
-390 c0 -5 -5 -10 -11 -10 -5 0 -7 5 -4 10 3 6 8 10 11 10 2 0 4 -4 4 -10z
m872 -32 c-9 -9 -12 -7 -12 12 0 19 3 21 12 12 9 -9 9 -15 0 -24z m-31 -51
c-1 -12 -15 -9 -19 4 -3 6 1 10 8 8 6 -3 11 -8 11 -12z m-21 -30 c0 -22 -33
-44 -65 -45 -16 0 -65 -14 -107 -30 -42 -16 -79 -27 -82 -24 -10 9 -7 80 3 86
5 3 57 8 117 11 59 3 110 7 112 10 10 10 22 5 22 -8z m-353 -523 c-3 -3 -12
-4 -19 -1 -8 3 -5 6 6 6 11 1 17 -2 13 -5z"/>
<path d="M1136 2265 c-3 -9 -6 -22 -5 -28 0 -7 5 -1 10 12 5 13 8 26 5 28 -2
2 -6 -3 -10 -12z"/>
<path d="M1212 2260 c0 -14 2 -19 5 -12 2 6 2 18 0 25 -3 6 -5 1 -5 -13z"/>
<path d="M1641 2264 c0 -11 3 -14 6 -6 3 7 2 16 -1 19 -3 4 -6 -2 -5 -13z"/>
<path d="M2211 2264 c0 -11 3 -14 6 -6 3 7 2 16 -1 19 -3 4 -6 -2 -5 -13z"/>
<path d="M1170 2251 c0 -11 4 -22 9 -25 4 -3 6 6 3 19 -5 30 -12 33 -12 6z"/>
<path d="M2479 2244 c0 -16 -2 -58 -4 -94 -3 -48 -2 -59 5 -42 11 26 16 150 6
159 -3 3 -6 -7 -7 -23z"/>
<path d="M234 2246 c-10 -8 -15 -18 -11 -22 4 -4 15 0 24 9 22 21 12 31 -13
13z"/>
<path d="M2001 2244 c0 -11 3 -14 6 -6 3 7 2 16 -1 19 -3 4 -6 -2 -5 -13z"/>
<path d="M2398 2233 c-2 -16 -1 -41 3 -58 5 -23 7 -16 8 28 1 60 -4 75 -11 30z"/>
<path d="M1292 2230 c0 -14 2 -19 5 -12 2 6 2 18 0 25 -3 6 -5 1 -5 -13z"/>
<path d="M1521 2234 c0 -11 3 -14 6 -6 3 7 2 16 -1 19 -3 4 -6 -2 -5 -13z"/>
<path d="M1636 2223 c-6 -14 -5 -15 5 -6 7 7 10 15 7 18 -3 3 -9 -2 -12 -12z"/>
<path d="M2041 2214 c0 -11 3 -14 6 -6 3 7 2 16 -1 19 -3 4 -6 -2 -5 -13z"/>
<path d="M2101 2214 c0 -11 3 -14 6 -6 3 7 2 16 -1 19 -3 4 -6 -2 -5 -13z"/>
<path d="M2241 2188 c0 -13 4 -32 9 -43 7 -15 9 -10 9 23 1 23 -3 42 -9 42 -5
0 -10 -10 -9 -22z"/>
<path d="M185 2189 c-5 -6 -28 -26 -50 -44 -22 -18 -38 -36 -35 -39 3 -2 30
17 60 44 30 27 51 49 45 49 -5 0 -14 -5 -20 -10z"/>
<path d="M2525 2152 c-4 -29 -5 -56 -2 -59 7 -7 20 82 15 99 -3 7 -8 -11 -13
-40z"/>
<path d="M2051 2154 c0 -11 3 -14 6 -6 3 7 2 16 -1 19 -3 4 -6 -2 -5 -13z"/>
<path d="M2572 2148 c4 -31 33 -29 35 2 1 14 0 18 -3 8 -3 -10 -10 -18 -16
-18 -5 0 -8 7 -4 15 3 8 1 15 -5 15 -6 0 -9 -10 -7 -22z"/>
<path d="M2620 2150 c0 -13 7 -20 20 -20 13 0 20 7 20 20 0 13 -7 20 -20 20
-13 0 -20 -7 -20 -20z m30 0 c0 -5 -4 -10 -10 -10 -5 0 -10 5 -10 10 0 6 5 10
10 10 6 0 10 -4 10 -10z"/>
<path d="M2677 2163 c-14 -13 -7 -31 14 -36 15 -4 19 -2 15 10 -3 8 -6 19 -6
24 0 11 -14 12 -23 2z"/>
<path d="M2722 2145 c0 -16 2 -22 5 -12 2 9 2 23 0 30 -3 6 -5 -1 -5 -18z"/>
<path d="M2740 2151 c0 -25 18 -37 33 -22 8 8 6 11 -6 11 -9 0 -17 5 -17 11 0
6 7 9 15 5 8 -3 15 -1 15 4 0 6 -9 10 -20 10 -13 0 -20 -7 -20 -19z"/>
<path d="M2391 2124 c0 -11 3 -14 6 -6 3 7 2 16 -1 19 -3 4 -6 -2 -5 -13z"/>
<path d="M2810 2080 c0 -6 19 -30 42 -53 41 -42 40 -37 -8 38 -17 26 -34 33
-34 15z"/>
<path d="M115 2050 c-16 -17 -24 -30 -19 -30 13 0 59 48 52 55 -2 3 -17 -9
-33 -25z"/>
<path d="M739 2047 c-21 -29 -33 -67 -21 -67 9 0 46 79 40 85 -2 2 -10 -7 -19
-18z"/>
<path d="M664 2035 c-9 -14 -14 -28 -11 -31 3 -3 12 9 20 25 19 38 14 40 -9 6z"/>
<path d="M287 2025 c-10 -7 -17 -21 -15 -30 2 -12 8 -8 21 14 20 35 20 36 -6
16z"/>
<path d="M690 2025 c-7 -9 -10 -18 -7 -21 3 -3 10 4 17 15 13 25 8 27 -10 6z"/>
<path d="M841 2000 c-6 -18 -6 -30 0 -30 5 0 9 7 9 16 0 8 4 13 9 10 5 -4 7 3
4 14 -7 26 -9 25 -22 -10z"/>
<path d="M901 2002 c-16 -37 -13 -45 10 -29 10 8 13 20 9 37 -6 24 -6 24 -19
-8z"/>
<path d="M940 1990 c0 -5 5 -10 11 -10 5 0 7 5 4 10 -3 6 -8 10 -11 10 -2 0
-4 -4 -4 -10z"/>
<path d="M121 1967 c-1 -13 50 -109 55 -104 3 2 -4 20 -14 38 -10 19 -17 40
-14 48 3 8 0 11 -6 7 -6 -3 -13 0 -15 6 -3 7 -6 9 -6 5z"/>
<path d="M1118 1933 c18 -2 45 -2 60 0 15 2 0 4 -33 4 -33 0 -45 -2 -27 -4z"/>
<path d="M2236 1895 c6 -42 11 -52 19 -43 3 2 -2 22 -10 44 l-15 39 6 -40z"/>
<path d="M2332 1910 c0 -14 4 -36 8 -50 6 -20 8 -21 8 -5 0 11 -4 34 -8 50 -7
27 -8 27 -8 5z"/>
<path d="M2025 1910 c3 -5 8 -10 11 -10 2 0 4 5 4 10 0 6 -5 10 -11 10 -5 0
-7 -4 -4 -10z"/>
<path d="M2064 1906 c-3 -8 -1 -23 5 -33 9 -15 10 -13 9 15 -2 35 -6 39 -14
18z"/>
<path d="M2280 1899 c0 -14 7 -34 15 -45 18 -24 18 -19 0 31 -12 33 -14 36
-15 14z"/>
<path d="M1228 1903 c7 -3 16 -2 19 1 4 3 -2 6 -13 5 -11 0 -14 -3 -6 -6z"/>
<path d="M2461 1880 c15 -45 24 -54 15 -15 -4 17 -12 34 -17 40 -5 5 -4 -6 2
-25z"/>
<path d="M2401 1894 c-1 -5 6 -19 14 -30 14 -18 14 -18 15 4 0 13 -4 21 -9 18
-5 -4 -12 0 -14 6 -3 7 -6 8 -6 2z"/>
<path d="M2525 1852 c-6 -4 -11 -14 -13 -22 -3 -12 0 -12 14 2 18 18 17 33 -1
20z"/>
<path d="M2680 1835 c-9 -10 -9 -15 -1 -15 6 0 11 5 11 11 0 5 4 8 9 4 5 -3
12 -1 16 5 10 16 -21 12 -35 -5z"/>
<path d="M968 1823 c6 -2 18 -2 25 0 6 3 1 5 -13 5 -14 0 -19 -2 -12 -5z"/>
<path d="M1028 1823 c7 -3 16 -2 19 1 4 3 -2 6 -13 5 -11 0 -14 -3 -6 -6z"/>
<path d="M2826 1821 c-4 -6 2 -41 14 -76 21 -65 36 -89 24 -39 -4 17 -2 30 7
36 11 7 9 8 -5 4 -16 -5 -17 -4 -6 9 10 12 9 20 -8 46 -12 20 -22 27 -26 20z"/>
<path d="M874 1789 c-1 -16 3 -29 7 -29 11 0 12 47 2 53 -5 3 -8 -8 -9 -24z"/>
<path d="M1128 1813 c12 -2 30 -2 40 0 9 3 -1 5 -23 4 -22 0 -30 -2 -17 -4z"/>
<path d="M200 1783 c-25 -32 -95 -175 -104 -213 -4 -14 18 25 47 85 29 61 61
118 71 128 10 10 16 20 13 23 -2 3 -15 -8 -27 -23z"/>
<path d="M293 1771 c0 -11 5 -17 9 -15 11 7 10 34 -1 34 -6 0 -9 -9 -8 -19z"/>
<path d="M1480 1786 c0 -2 7 -7 16 -10 8 -3 12 -2 9 4 -6 10 -25 14 -25 6z"/>
<path d="M1527 1779 c7 -7 15 -10 18 -7 3 3 -2 9 -12 12 -14 6 -15 5 -6 -5z"/>
<path d="M297 1686 c-4 -10 -5 -21 -2 -24 9 -9 17 6 13 25 -3 17 -4 17 -11 -1z"/>
<path d="M2743 1673 c-7 -3 -13 -9 -13 -14 0 -6 5 -7 11 -3 7 4 9 0 5 -14 -7
-20 8 -40 18 -24 9 15 -8 59 -21 55z"/>
<path d="M2661 1658 c-1 -20 57 -146 71 -154 5 -4 3 7 -5 22 -8 16 -21 45 -29
64 -9 19 -20 46 -26 60 -7 17 -11 20 -11 8z"/>
<path d="M910 1635 c0 -8 4 -15 10 -15 5 0 7 7 4 15 -4 8 -8 15 -10 15 -2 0
-4 -7 -4 -15z"/>
<path d="M1224 1629 c-18 -20 -13 -48 15 -73 39 -35 102 25 66 64 -24 26 -61
31 -81 9z m50 -9 c28 -10 36 -47 12 -56 -33 -13 -73 36 -49 59 8 9 7 9 37 -3z"/>
<path d="M256 1621 c-4 -7 -5 -15 -2 -18 9 -9 19 4 14 18 -4 11 -6 11 -12 0z"/>
<path d="M2521 1604 c0 -11 3 -14 6 -6 3 7 2 16 -1 19 -3 4 -6 -2 -5 -13z"/>
<path d="M930 1606 c0 -2 8 -10 18 -17 15 -13 16 -12 3 4 -13 16 -21 21 -21
13z"/>
<path d="M2001 1587 c-1 -16 -6 -37 -11 -48 -7 -12 -7 -19 -1 -19 12 0 25 63
18 82 -3 7 -6 0 -6 -15z"/>
<path d="M2726 1597 c3 -10 9 -15 12 -12 3 3 0 11 -7 18 -10 9 -11 8 -5 -6z"/>
<path d="M2780 1585 c0 -8 4 -15 10 -15 5 0 7 7 4 15 -4 8 -8 15 -10 15 -2 0
-4 -7 -4 -15z"/>
<path d="M1687 1572 c-22 -24 -21 -38 3 -62 25 -25 41 -25 70 -2 20 16 21 21
10 43 -23 43 -56 51 -83 21z m62 -16 c15 -18 4 -46 -19 -46 -23 0 -44 26 -36
45 7 19 40 20 55 1z"/>
<path d="M2371 1564 c0 -11 3 -14 6 -6 3 7 2 16 -1 19 -3 4 -6 -2 -5 -13z"/>
<path d="M139 1548 c-7 -13 -19 -34 -27 -48 -15 -25 -15 -25 4 -5 20 19 48 75
39 75 -2 0 -10 -10 -16 -22z"/>
<path d="M970 1562 c0 -14 72 -59 105 -65 30 -6 30 -6 5 6 -14 7 -39 21 -55
33 -45 31 -55 36 -55 26z"/>
<path d="M2782 1553 c2 -5 14 -29 26 -55 12 -27 24 -48 27 -48 7 0 -6 54 -15
60 -4 3 -10 15 -14 28 -4 12 -12 22 -18 22 -5 0 -8 -3 -6 -7z"/>
<path d="M516 1468 c-9 -35 -20 -76 -25 -93 -4 -16 -29 -61 -55 -100 -26 -38
-50 -83 -53 -98 -4 -20 -10 -26 -22 -22 -8 3 -12 3 -9 -1 8 -7 -19 -65 -35
-76 -6 -3 -11 -14 -12 -25 -1 -10 -7 -29 -12 -43 -6 -14 -19 -52 -29 -85 -10
-33 -30 -88 -46 -122 -48 -107 -59 -137 -74 -186 -10 -32 -23 -51 -37 -57 -14
-5 80 -9 246 -9 172 -1 267 3 267 9 0 6 -14 10 -31 10 -17 0 -28 4 -24 10 3 6
2 10 -3 10 -6 0 -12 -7 -16 -15 -3 -8 -12 -15 -21 -15 -15 0 -19 11 -16 39 2
7 -2 10 -8 6 -6 -3 -11 -13 -11 -21 0 -8 -7 -14 -15 -14 -8 0 -15 6 -15 13 0
8 -3 7 -10 -3 -11 -17 -120 -16 -131 2 -4 7 -8 6 -11 -3 -3 -9 -23 -12 -68
-10 -36 1 -68 5 -72 7 -4 3 6 41 22 85 17 44 30 89 30 98 0 10 7 24 16 32 8 7
26 33 39 58 13 25 35 63 49 84 30 43 59 107 48 106 -4 0 -21 -28 -38 -61 -16
-34 -40 -68 -53 -76 l-22 -15 19 34 c11 19 30 63 43 99 13 36 26 67 30 70 3 3
27 47 53 99 26 51 57 107 69 125 22 29 48 98 61 158 3 14 9 33 12 42 3 9 2 16
-4 16 -5 0 -17 -28 -26 -62z"/>
<path d="M927 1503 c-4 -3 -7 -11 -7 -17 0 -6 5 -5 12 2 6 6 9 14 7 17 -3 3
-9 2 -12 -2z"/>
<path d="M1114 1483 c3 -4 12 -8 19 -9 7 -2 23 -6 37 -9 17 -4 14 -1 -9 9 -35
17 -59 21 -47 9z"/>
<path d="M1934 1474 c-18 -14 -18 -15 4 -4 12 6 22 13 22 15 0 8 -5 6 -26 -11z"/>
<path d="M1330 1470 c8 -5 22 -9 30 -9 10 0 8 3 -5 9 -27 12 -43 12 -25 0z"/>
<path d="M1977 1473 c-4 -3 -7 -15 -7 -26 0 -25 13 -14 15 13 2 22 1 23 -8 13z"/>
<path d="M1220 1450 c14 -4 36 -8 50 -8 l25 0 -25 8 c-14 4 -36 8 -50 8 l-25
0 25 -8z"/>
<path d="M632 1417 c1 -17 6 -34 10 -37 4 -3 3 -22 -1 -43 -5 -21 -5 -55 1
-79 10 -44 3 -120 -13 -150 -6 -10 -5 -19 1 -23 10 -6 13 5 29 105 8 45 8 66
0 71 -14 8 -8 68 9 97 13 20 10 27 -11 23 -5 -1 -6 11 -2 27 4 22 2 31 -10 36
-14 5 -16 0 -13 -27z"/>
<path d="M1558 1443 c12 -2 32 -2 45 0 12 2 2 4 -23 4 -25 0 -35 -2 -22 -4z"/>
<path d="M2630 1443 c0 -6 8 -17 18 -24 16 -13 16 -13 2 6 -8 11 -16 22 -17
24 -2 2 -3 0 -3 -6z"/>
<path d="M1338 1428 c5 -5 16 -8 23 -6 8 3 3 7 -10 11 -17 4 -21 3 -13 -5z"/>
<path d="M2865 1406 c3 -22 8 -42 10 -45 9 -8 4 43 -6 64 -6 15 -7 9 -4 -19z"/>
<path d="M1390 1420 c8 -5 22 -10 30 -10 13 0 13 1 0 10 -8 5 -22 10 -30 10
-13 0 -13 -1 0 -10z"/>
<path d="M1463 1413 c9 -2 25 -2 35 0 9 3 1 5 -18 5 -19 0 -27 -2 -17 -5z"/>
<path d="M1633 1413 c9 -2 25 -2 35 0 9 3 1 5 -18 5 -19 0 -27 -2 -17 -5z"/>
<path d="M1690 1416 c0 -2 9 -6 20 -9 11 -3 18 -1 14 4 -5 9 -34 13 -34 5z"/>
<path d="M1768 1403 c6 -2 18 -2 25 0 6 3 1 5 -13 5 -14 0 -19 -2 -12 -5z"/>
<path d="M2420 1401 c0 -17 18 -21 24 -6 3 9 0 15 -9 15 -8 0 -15 -4 -15 -9z"/>
<path d="M2761 1393 c0 -4 4 -17 9 -28 8 -19 9 -19 9 2 1 12 -3 25 -9 28 -5 3
-10 3 -9 -2z"/>
<path d="M674 1324 c-6 -19 -8 -37 -4 -39 8 -5 25 64 18 70 -2 2 -8 -12 -14
-31z"/>
<path d="M2260 1357 c0 -12 29 -77 34 -77 7 0 -13 63 -24 74 -5 5 -10 7 -10 3z"/>
<path d="M2680 1327 c0 -10 8 -17 18 -17 9 0 13 4 7 8 -5 4 -13 11 -17 16 -5
5 -8 2 -8 -7z"/>
<path d="M2780 1337 c0 -3 9 -29 20 -57 11 -28 20 -68 20 -89 0 -33 18 -66 31
-58 2 1 3 0 2 -2 -4 -7 18 -41 27 -41 4 0 1 18 -7 40 -9 22 -20 40 -25 40 -5
0 -6 -5 -2 -12 4 -7 3 -8 -5 -4 -9 6 -9 11 0 22 9 11 6 28 -16 82 -26 62 -45
96 -45 79z"/>
<path d="M2871 1335 c1 -19 18 -51 18 -35 0 8 -4 22 -9 30 -5 8 -9 11 -9 5z"/>
<path d="M1971 1314 c0 -11 3 -14 6 -6 3 7 2 16 -1 19 -3 4 -6 -2 -5 -13z"/>
<path d="M257 1301 c-4 -17 -3 -21 5 -13 5 5 8 16 6 23 -3 8 -7 3 -11 -10z"/>
<path d="M2632 1289 c6 -16 12 -28 14 -26 5 5 -13 57 -20 57 -3 0 0 -14 6 -31z"/>
<path d="M291 1274 c-23 -29 -29 -54 -8 -32 15 17 39 58 33 58 -3 0 -14 -12
-25 -26z"/>
<path d="M2405 1280 c-3 -5 -1 -10 4 -10 6 0 11 5 11 10 0 6 -2 10 -4 10 -3 0
-8 -4 -11 -10z"/>
<path d="M2535 1280 c3 -5 8 -10 11 -10 2 0 4 5 4 10 0 6 -5 10 -11 10 -5 0
-7 -4 -4 -10z"/>
<path d="M2840 1280 c0 -6 7 -10 15 -10 8 0 15 2 15 4 0 2 -7 6 -15 10 -8 3
-15 1 -15 -4z"/>
<path d="M2701 1263 c0 -12 2 -14 6 -4 5 11 7 11 15 0 8 -12 9 -12 6 0 -6 22
-28 25 -27 4z"/>
<path d="M2850 1251 c0 -5 9 -19 20 -32 l21 -24 -16 33 c-15 31 -25 41 -25 23z"/>
<path d="M2651 1234 c0 -11 3 -14 6 -6 3 7 2 16 -1 19 -3 4 -6 -2 -5 -13z"/>
<path d="M2212 1215 c0 -16 2 -22 5 -12 2 9 2 23 0 30 -3 6 -5 -1 -5 -18z"/>
<path d="M2727 1221 c-4 -17 -3 -21 5 -13 5 5 8 16 6 23 -3 8 -7 3 -11 -10z"/>
<path d="M238 1196 c4 -27 6 -28 13 -11 11 29 11 32 -4 38 -10 4 -12 -3 -9
-27z"/>
<path d="M509 1213 c-13 -16 -12 -17 4 -4 9 7 17 15 17 17 0 8 -8 3 -21 -13z"/>
<path d="M685 1220 c-3 -5 -1 -10 4 -10 6 0 11 5 11 10 0 6 -2 10 -4 10 -3 0
-8 -4 -11 -10z"/>
<path d="M1980 1199 c0 -11 4 -18 10 -14 5 3 7 12 3 20 -7 21 -13 19 -13 -6z"/>
<path d="M676 1168 c11 -54 20 -62 20 -17 -1 24 -6 44 -13 46 -9 3 -11 -5 -7
-29z"/>
<path d="M2191 1184 c0 -11 3 -14 6 -6 3 7 2 16 -1 19 -3 4 -6 -2 -5 -13z"/>
<path d="M2690 1186 c0 -9 5 -16 10 -16 6 0 10 4 10 9 0 6 -4 13 -10 16 -5 3
-10 -1 -10 -9z"/>
<path d="M256 1159 c-14 -17 -26 -42 -26 -55 0 -14 -7 -40 -14 -59 -8 -19 -12
-35 -8 -35 10 0 29 48 36 91 4 21 16 49 27 63 29 36 16 33 -15 -5z"/>
<path d="M960 1183 c0 -4 5 -15 10 -23 8 -13 10 -13 10 2 0 9 -4 20 -10 23 -5
3 -10 3 -10 -2z"/>
<path d="M296 1164 c-8 -21 2 -33 13 -15 6 8 14 10 22 5 12 -6 12 -5 0 9 -17
21 -27 22 -35 1z"/>
<path d="M477 1173 c-4 -3 -7 -11 -7 -17 0 -6 5 -5 12 2 6 6 9 14 7 17 -3 3
-9 2 -12 -2z"/>
<path d="M1390 1170 c-14 -5 -50 -16 -80 -24 -110 -31 -191 -59 -196 -67 -3
-5 -14 -9 -25 -9 -12 0 -19 -5 -16 -12 2 -7 15 -12 28 -11 37 2 211 68 203 76
-4 4 8 5 27 2 27 -4 29 -3 9 3 -24 8 -23 8 10 14 19 3 78 3 130 1 64 -2 90 0
80 7 -8 5 -44 7 -80 5 -45 -3 -57 -2 -40 4 32 12 119 12 145 1 14 -6 16 -9 5
-11 -8 -1 15 -5 53 -9 72 -9 237 -80 237 -103 0 -7 -9 -18 -20 -25 -12 -7 -18
-17 -15 -22 3 -6 -1 -10 -9 -10 -9 0 -16 -6 -16 -14 0 -7 -9 -25 -21 -39 -25
-33 -61 -31 -69 4 -5 20 -7 21 -13 7 -4 -11 -12 -15 -22 -12 -8 3 -12 11 -8
18 4 6 -1 4 -11 -4 -16 -13 -20 -12 -32 5 -8 10 -14 13 -14 7 0 -19 -28 -14
-33 6 -4 16 -5 16 -6 0 0 -10 -7 -18 -15 -18 -8 0 -17 8 -19 18 -4 16 -5 16
-6 0 -1 -11 -9 -18 -20 -18 -11 0 -21 8 -23 18 -3 14 -5 13 -10 -5 -6 -22 -4
-23 74 -23 80 0 81 0 63 -20 -10 -11 -13 -20 -8 -20 6 0 13 7 17 15 6 17 43
20 66 5 8 -5 10 -10 4 -10 -7 0 -15 -8 -18 -17 -6 -15 -5 -15 13 1 16 15 23
16 42 6 20 -11 26 -8 61 31 67 76 90 108 83 119 -3 5 -1 10 6 10 8 0 6 6 -4
18 -10 10 -15 21 -12 23 2 3 -4 5 -14 6 -11 1 -52 15 -93 31 -40 17 -91 33
-113 37 -61 11 -247 14 -275 5z m-165 -70 c-11 -5 -27 -9 -35 -9 -9 0 -8 4 5
9 11 5 27 9 35 9 9 0 8 -4 -5 -9z m654 -33 c12 -15 12 -17 -3 -11 -9 3 -16 13
-16 22 0 8 1 13 3 11 1 -2 9 -12 16 -22z"/>
<path d="M1980 1158 c0 -4 4 -8 9 -8 6 0 12 4 15 8 3 5 -1 9 -9 9 -8 0 -15 -4
-15 -9z"/>
<path d="M2357 1157 c-3 -8 1 -14 9 -14 8 0 14 6 14 14 0 7 -4 13 -9 13 -5 0
-11 -6 -14 -13z"/>
<path d="M2697 1141 c-4 -17 -3 -21 5 -13 5 5 8 16 6 23 -3 8 -7 3 -11 -10z"/>
<path d="M2775 1140 c3 -5 8 -10 11 -10 2 0 4 5 4 10 0 6 -5 10 -11 10 -5 0
-7 -4 -4 -10z"/>
<path d="M981 1135 c0 -5 6 -21 14 -35 8 -14 14 -20 14 -15 0 6 -6 21 -14 35
-8 14 -14 21 -14 15z"/>
<path d="M1378 1133 c7 -3 16 -2 19 1 4 3 -2 6 -13 5 -11 0 -14 -3 -6 -6z"/>
<path d="M2211 1124 c0 -11 3 -14 6 -6 3 7 2 16 -1 19 -3 4 -6 -2 -5 -13z"/>
<path d="M301 1114 c0 -11 3 -14 6 -6 3 7 2 16 -1 19 -3 4 -6 -2 -5 -13z"/>
<path d="M1490 1115 c7 -8 10 -22 6 -30 -9 -23 -35 -18 -46 10 -5 14 -15 25
-21 25 -8 0 -8 -4 1 -15 6 -8 9 -19 5 -25 -9 -15 -35 -12 -41 4 -9 24 -33 28
-26 4 5 -22 -13 -39 -35 -31 -8 3 -11 13 -8 27 4 14 3 17 -3 8 -5 -7 -17 -10
-28 -7 -17 6 -18 6 -1 -5 23 -15 22 -37 -4 -45 -15 -5 -25 -1 -35 14 -16 23
-40 27 -64 11 -11 -7 -6 -8 18 -4 28 6 32 4 32 -14 0 -30 -18 -37 -42 -15 -20
18 -21 18 -14 -4 4 -12 2 -24 -4 -28 -19 -12 -99 16 -105 36 -6 19 -25 27 -25
10 0 -5 27 -36 60 -69 59 -60 75 -87 45 -76 -8 4 -15 2 -15 -4 0 -5 11 -12 24
-14 19 -4 23 -1 18 10 -4 12 3 10 30 -6 19 -12 43 -22 52 -22 9 0 16 -4 16
-10 0 -5 3 -9 8 -8 4 0 14 -1 22 -4 93 -34 123 -42 171 -44 31 -1 73 1 92 6
40 9 52 3 36 -16 -9 -11 -6 -12 20 -3 35 12 56 35 22 24 -11 -3 -21 -3 -21 2
0 4 27 16 59 26 33 11 62 25 65 33 8 21 -17 17 -44 -6 -13 -12 -30 -18 -38
-15 -7 3 -16 5 -18 5 -3 0 -3 3 -1 8 3 4 -25 5 -61 2 l-67 -5 63 -3 c34 -2 62
-7 62 -11 0 -12 -161 -40 -193 -34 -15 3 -25 8 -22 12 2 4 -9 5 -26 3 -18 -3
-29 0 -29 7 0 15 55 38 110 47 23 4 44 13 47 20 3 8 9 14 15 14 5 0 6 -4 3
-10 -4 -6 6 -10 23 -10 17 0 32 6 36 15 3 9 0 15 -9 15 -8 0 -15 -4 -15 -10 0
-5 -5 -10 -11 -10 -5 0 -7 5 -4 10 4 6 -9 10 -32 10 -37 0 -66 -11 -64 -24 1
-3 -2 -6 -6 -5 -5 1 -7 5 -5 10 1 5 -4 9 -12 9 -8 0 -13 -6 -12 -12 0 -7 -3
-13 -9 -13 -5 0 -9 3 -7 7 1 5 -3 8 -8 8 -6 0 -10 -7 -8 -16 2 -10 -3 -19 -9
-21 -7 -3 -13 2 -13 10 0 18 -33 12 -51 -9 -6 -8 -16 -14 -22 -14 -5 0 -2 9 7
19 17 18 17 21 2 43 -16 23 -16 23 -10 -9 6 -29 4 -33 -15 -33 -12 0 -21 6
-21 14 0 8 -5 18 -11 22 -8 4 -9 0 -4 -15 3 -11 2 -21 -3 -21 -13 0 -24 29
-16 42 4 6 -3 5 -15 -1 -18 -10 -26 -6 -64 30 -23 22 -35 39 -25 36 9 -3 49 8
90 24 118 49 174 60 298 60 89 0 130 -4 180 -20 77 -25 75 -24 62 -8 -6 7 -9
24 -6 38 4 24 4 24 -5 2 -12 -26 -39 -30 -47 -8 -4 8 -1 22 6 30 9 11 8 14 -9
12 -12 -1 -19 -7 -17 -13 7 -17 -18 -36 -38 -28 -19 7 -19 9 -6 34 8 16 8 18
-5 14 -8 -4 -15 -1 -15 5 0 6 -5 11 -10 11 -6 0 -5 -8 2 -20 15 -24 -2 -46
-27 -36 -13 4 -15 13 -11 32 6 22 5 24 -8 12 -7 -7 -12 -16 -10 -19 7 -12 -21
-28 -35 -20 -8 6 -11 17 -6 32 5 19 4 21 -5 9 -9 -11 -13 -12 -17 -2 -2 6 -9
12 -15 12 -6 0 -6 -6 2 -15z m30 -215 c0 -5 -4 -10 -10 -10 -5 0 -10 5 -10 10
0 6 5 10 10 10 6 0 10 -4 10 -10z m-140 -45 c0 -8 -7 -15 -15 -15 -8 0 -15 7
-15 15 0 8 7 15 15 15 8 0 15 -7 15 -15z"/>
<path d="M2386 1083 c21 -50 34 -83 34 -88 0 -2 -8 -6 -17 -8 -14 -4 -13 -5 4
-6 34 -2 34 11 3 77 -32 67 -50 86 -24 25z"/>
<path d="M2793 1093 c0 -22 4 -30 13 -26 16 6 19 23 5 23 -5 0 -11 8 -14 18
-2 9 -4 3 -4 -15z"/>
<path d="M2841 1094 c0 -11 3 -14 6 -6 3 7 2 16 -1 19 -3 4 -6 -2 -5 -13z"/>
<path d="M700 1083 c0 -12 7 -28 15 -37 8 -8 15 -26 15 -40 0 -27 15 -43 25
-26 3 5 1 10 -6 10 -7 0 -10 11 -7 29 2 17 1 28 -4 25 -5 -3 -15 10 -23 28
-11 26 -14 29 -15 11z"/>
<path d="M2570 1090 c0 -5 5 -10 10 -10 6 0 10 5 10 10 0 6 -4 10 -10 10 -5 0
-10 -4 -10 -10z"/>
<path d="M429 1052 c-26 -37 -119 -227 -119 -243 0 -5 5 -9 10 -9 6 0 10 11
10 24 0 13 4 26 9 28 4 2 27 43 51 93 23 49 51 102 62 117 11 16 16 28 11 28
-4 0 -20 -17 -34 -38z"/>
<path d="M1797 1069 c7 -7 15 -10 18 -7 3 3 -2 9 -12 12 -14 6 -15 5 -6 -5z"/>
<path d="M2510 1071 c0 -5 5 -13 10 -16 6 -3 10 -2 10 4 0 5 -4 13 -10 16 -5
3 -10 2 -10 -4z"/>
<path d="M2750 1070 c0 -5 5 -10 11 -10 5 0 7 5 4 10 -3 6 -8 10 -11 10 -2 0
-4 -4 -4 -10z"/>
<path d="M2590 1056 c0 -13 -33 -29 -64 -31 -5 0 -11 -5 -13 -12 -3 -8 12 -6
46 6 62 22 66 25 46 41 -12 10 -15 10 -15 -4z"/>
<path d="M1810 1038 c-15 -16 -17 -24 -8 -30 20 -12 28 -9 22 7 -4 8 -1 22 6
30 19 23 3 18 -20 -7z"/>
<path d="M1140 1034 l-25 -15 25 7 c28 7 35 12 29 18 -2 2 -15 -2 -29 -10z"/>
<path d="M1440 1035 c7 -8 18 -15 25 -15 7 0 15 7 19 15 4 11 -2 15 -26 15
-26 0 -29 -2 -18 -15z"/>
<path d="M1530 1029 c9 -16 14 -18 26 -8 21 17 17 29 -11 29 -23 0 -24 -2 -15
-21z"/>
<path d="M1615 1030 c5 -17 2 -20 -27 -21 -31 -2 -31 -2 -5 -6 35 -6 87 25 66
38 -25 16 -41 10 -34 -11z"/>
<path d="M586 1024 c-15 -14 -22 -34 -12 -34 2 0 11 11 20 25 19 28 15 33 -8
9z"/>
<path d="M650 1019 c-6 -11 -10 -25 -8 -30 2 -5 8 4 15 21 13 34 9 40 -7 9z"/>
<path d="M1358 1033 c-23 -6 -23 -15 1 -30 16 -10 22 -8 35 12 15 23 15 25 -1
24 -10 -1 -26 -3 -35 -6z"/>
<path d="M1960 1029 c0 -5 5 -7 10 -4 6 3 10 8 10 11 0 2 -4 4 -10 4 -5 0 -10
-5 -10 -11z"/>
<path d="M542 1017 c-6 -7 -19 -32 -30 -54 -10 -22 -32 -53 -50 -68 -18 -15
-30 -30 -27 -33 3 -4 10 0 16 8 7 13 10 13 18 1 6 -9 11 -10 15 -2 4 6 2 11
-3 11 -6 0 -11 5 -11 11 0 6 7 8 16 5 8 -3 12 -2 9 4 -3 6 -2 10 2 10 5 0 17
19 27 43 9 23 21 50 27 60 11 20 6 22 -9 4z"/>
<path d="M1038 1015 c6 -11 27 -38 47 -60 l37 -40 -38 50 c-48 63 -59 75 -46
50z"/>
<path d="M1696 1015 c4 -9 11 -14 16 -13 15 5 11 23 -6 26 -11 2 -14 -2 -10
-13z"/>
<path d="M1281 1006 l-24 -13 23 -13 c24 -13 39 -2 40 28 0 15 -9 15 -39 -2z"/>
<path d="M155 999 c-4 -6 -5 -12 -2 -15 2 -3 7 2 10 11 7 17 1 20 -8 4z"/>
<path d="M1420 1000 c-21 -7 -21 -8 -5 -9 11 0 27 4 35 9 18 11 5 11 -30 0z"/>
<path d="M1493 1003 c9 -2 23 -2 30 0 6 3 -1 5 -18 5 -16 0 -22 -2 -12 -5z"/>
<path d="M1760 996 c0 -21 16 -28 29 -12 9 11 8 15 -5 20 -22 8 -24 8 -24 -8z"/>
<path d="M2221 994 c0 -11 3 -14 6 -6 3 7 2 16 -1 19 -3 4 -6 -2 -5 -13z"/>
<path d="M2251 994 c0 -11 3 -14 6 -6 3 7 2 16 -1 19 -3 4 -6 -2 -5 -13z"/>
<path d="M621 987 c0 -10 -19 -45 -41 -78 -38 -58 -66 -132 -72 -194 -3 -25
-7 -29 -27 -27 -38 6 -54 -36 -27 -73 12 -16 16 -17 30 -6 9 7 16 26 16 42 0
15 5 31 10 34 6 4 10 -10 10 -34 0 -49 17 -55 22 -8 4 40 23 37 23 -3 0 -17 3
-30 8 -30 5 0 7 17 5 38 -2 29 -7 37 -23 38 -11 1 -23 2 -27 3 -13 2 32 144
66 207 21 38 35 76 33 88 -3 16 -5 17 -6 3z m-133 -331 c2 -10 -1 -23 -7 -29
-16 -16 -34 6 -26 33 8 24 28 22 33 -4z"/>
<path d="M1343 985 c0 -8 4 -12 9 -9 5 3 6 10 3 15 -9 13 -12 11 -12 -6z"/>
<path d="M1658 993 c6 -2 18 -2 25 0 6 3 1 5 -13 5 -14 0 -19 -2 -12 -5z"/>
<path d="M1722 991 c-11 -6 -10 -10 4 -15 9 -3 19 -4 22 -1 3 3 0 5 -7 5 -7 0
-9 5 -6 10 7 12 4 12 -13 1z"/>
<path d="M2680 990 c-20 -6 -21 -8 -5 -8 11 0 29 3 40 8 25 11 -1 11 -35 0z"/>
<path d="M164 958 l-17 -33 27 28 c28 30 31 37 16 37 -5 0 -17 -15 -26 -32z"/>
<path d="M1472 970 c14 -22 24 -19 15 5 -4 8 -11 15 -17 15 -6 0 -6 -7 2 -20z"/>
<path d="M1508 983 c6 -2 12 -11 12 -19 0 -8 5 -14 10 -14 6 0 10 7 10 15 0
21 28 19 32 -2 3 -15 5 -14 10 5 6 21 3 22 -40 21 -26 0 -41 -3 -34 -6z"/>
<path d="M1613 975 c-3 -9 -3 -19 1 -22 3 -4 6 1 6 10 0 8 6 18 13 20 9 4 9 6
-1 6 -7 1 -15 -6 -19 -14z"/>
<path d="M1196 969 c-15 -9 -16 -13 -5 -20 23 -15 39 -10 39 11 0 23 -7 24
-34 9z"/>
<path d="M1260 964 c24 -14 24 -15 3 -11 -15 3 -23 0 -23 -8 0 -8 8 -11 23 -8
13 3 18 1 11 -4 -7 -5 -4 -14 9 -26 18 -19 19 -18 12 2 -9 28 23 41 40 17 12
-15 13 -14 11 9 0 14 -5 24 -11 21 -40 -15 -57 -17 -51 -8 4 6 -2 16 -13 21
-30 17 -39 12 -11 -5z"/>
<path d="M1382 972 c-7 -5 -10 -16 -6 -25 9 -24 23 -21 17 3 -4 15 0 20 15 20
11 0 23 -8 25 -17 4 -14 5 -12 6 5 1 17 -4 22 -21 22 -13 0 -29 -4 -36 -8z"/>
<path d="M1650 965 c0 -8 4 -15 9 -15 5 0 11 7 15 15 3 9 0 15 -9 15 -8 0 -15
-7 -15 -15z"/>
<path d="M2735 963 c2 -10 11 -63 20 -118 10 -55 20 -104 24 -108 4 -4 6 -38
4 -74 -2 -49 0 -64 8 -56 13 13 7 128 -9 188 -7 25 -7 41 -2 43 6 2 3 10 -5
19 -8 8 -15 25 -15 37 0 37 -12 86 -20 86 -5 0 -7 -8 -5 -17z"/>
<path d="M1020 966 c0 -2 8 -10 18 -17 15 -13 16 -12 3 4 -13 16 -21 21 -21
13z"/>
<path d="M1450 952 c0 -26 -30 -30 -31 -4 -1 11 -4 8 -8 -8 -8 -30 -38 -39
-43 -13 -3 13 -5 11 -9 -8 -6 -25 -4 -26 23 -18 15 5 41 13 57 18 16 5 33 6
37 3 6 -7 -14 38 -22 47 -2 2 -4 -5 -4 -17z"/>
<path d="M1696 955 c4 -8 7 -15 9 -15 2 0 5 7 9 15 3 9 0 15 -9 15 -9 0 -12
-6 -9 -15z"/>
<path d="M1915 959 c-4 -6 -5 -12 -2 -15 2 -3 7 2 10 11 7 17 1 20 -8 4z"/>
<path d="M2696 933 c9 -51 14 -54 14 -10 0 20 -5 39 -11 42 -7 5 -8 -5 -3 -32z"/>
<path d="M767 950 c-19 -57 -37 -124 -34 -127 7 -6 49 117 44 130 -3 8 -6 7
-10 -3z"/>
<path d="M1740 938 c0 -16 3 -19 8 -10 5 8 16 10 28 6 24 -9 16 -1 -13 15 -21
11 -23 9 -23 -11z"/>
<path d="M2198 953 c7 -3 16 -2 19 1 4 3 -2 6 -13 5 -11 0 -14 -3 -6 -6z"/>
<path d="M711 924 c0 -11 3 -14 6 -6 3 7 2 16 -1 19 -3 4 -6 -2 -5 -13z"/>
<path d="M1056 916 c3 -9 11 -16 16 -16 13 0 5 23 -10 28 -7 2 -10 -2 -6 -12z"/>
<path d="M829 868 c32 -34 39 -48 34 -68 -11 -47 -46 -145 -56 -158 -14 -18
-5 -23 16 -7 10 7 25 39 33 72 29 112 29 109 -11 158 -20 25 -41 45 -46 45 -6
0 8 -19 30 -42z"/>
<path d="M1660 895 c0 -8 5 -15 11 -15 5 0 8 4 5 9 -4 5 0 12 6 14 8 3 6 6 -4
6 -10 1 -18 -6 -18 -14z"/>
<path d="M2218 903 c7 -3 16 -2 19 1 4 3 -2 6 -13 5 -11 0 -14 -3 -6 -6z"/>
<path d="M2371 894 c0 -11 3 -14 6 -6 3 7 2 16 -1 19 -3 4 -6 -2 -5 -13z"/>
<path d="M2640 904 c0 -6 7 -19 16 -30 14 -18 14 -18 3 6 -14 31 -19 36 -19
24z"/>
<path d="M2115 890 c-3 -6 1 -7 9 -4 18 7 21 14 7 14 -6 0 -13 -4 -16 -10z"/>
<path d="M2240 881 c0 -6 5 -13 10 -16 6 -3 10 1 10 9 0 9 -4 16 -10 16 -5 0
-10 -4 -10 -9z"/>
<path d="M2127 874 c-4 -4 -7 -19 -6 -33 l0 -26 10 24 c10 26 8 47 -4 35z"/>
<path d="M2451 864 c0 -11 3 -14 6 -6 3 7 2 16 -1 19 -3 4 -6 -2 -5 -13z"/>
<path d="M392 799 c-13 -28 -21 -54 -18 -57 8 -7 9 -5 34 56 27 67 14 68 -16
1z"/>
<path d="M1465 840 c-13 -5 -14 -9 -5 -9 8 0 24 4 35 9 13 5 14 9 5 9 -8 0
-24 -4 -35 -9z"/>
<path d="M2077 843 c-4 -3 -7 -22 -6 -42 l1 -36 9 39 c9 39 8 52 -4 39z"/>
<path d="M2200 833 c0 -13 5 -23 10 -23 13 0 13 11 0 30 -8 12 -10 11 -10 -7z"/>
<path d="M2327 844 c-4 -4 -7 -14 -7 -23 0 -11 3 -12 11 -4 6 6 10 16 7 23 -2
6 -7 8 -11 4z"/>
<path d="M2501 834 c0 -11 3 -14 6 -6 3 7 2 16 -1 19 -3 4 -6 -2 -5 -13z"/>
<path d="M2592 820 c0 -19 2 -27 5 -17 2 9 2 25 0 35 -3 9 -5 1 -5 -18z"/>
<path d="M2710 841 c0 -6 4 -13 10 -16 6 -3 7 1 4 9 -7 18 -14 21 -14 7z"/>
<path d="M1505 830 c-12 -5 1 -6 35 -3 30 3 57 7 59 9 9 8 -75 2 -94 -6z"/>
<path d="M2403 811 c6 -17 14 -28 18 -26 11 8 -3 55 -16 55 -10 0 -11 -6 -2
-29z"/>
<path d="M765 818 c-10 -33 -10 -77 -1 -75 18 3 25 20 15 38 -5 10 -6 25 -3
33 3 9 3 16 0 16 -4 0 -8 -6 -11 -12z"/>
<path d="M2146 776 c1 -21 7 -43 13 -49 7 -7 9 -3 8 12 -1 11 -5 21 -8 21 -4
0 -10 12 -12 28 -2 15 -3 10 -1 -12z"/>
<path d="M2270 810 c0 -5 5 -10 11 -10 5 0 7 5 4 10 -3 6 -8 10 -11 10 -2 0
-4 -4 -4 -10z"/>
<path d="M2506 795 c-3 -8 -1 -15 4 -15 6 0 10 7 10 15 0 8 -2 15 -4 15 -2 0
-6 -7 -10 -15z"/>
<path d="M613 768 c-27 -47 -33 -67 -23 -73 6 -4 10 -1 10 5 0 6 9 30 20 52
24 51 20 61 -7 16z"/>
<path d="M1830 790 c-20 -6 -21 -8 -5 -8 11 0 29 3 40 8 25 11 -1 11 -35 0z"/>
<path d="M2720 788 c0 -9 -2 -22 -3 -30 -2 -7 -1 -9 1 -3 3 5 11 -6 18 -25 7
-19 13 -28 13 -20 0 8 -6 33 -14 55 -8 22 -14 32 -15 23z"/>
<path d="M2279 785 c-8 -8 1 -54 12 -61 5 -3 9 -14 9 -25 0 -11 13 -44 29 -74
16 -30 31 -60 34 -67 2 -7 7 -11 10 -7 8 7 -14 79 -25 79 -4 0 -8 5 -8 12 0 6
-6 19 -13 27 -11 13 -34 78 -41 114 -1 5 -4 6 -7 2z"/>
<path d="M230 696 c0 -51 4 -86 10 -86 6 0 10 11 10 24 0 38 18 40 34 4 8 -18
15 -27 15 -20 1 7 -4 22 -10 33 -8 16 -7 29 7 57 21 44 10 66 -35 70 l-31 3 0
-85z m58 44 c2 -17 -6 -34 -23 -50 l-25 -23 0 52 c0 49 2 52 23 49 15 -2 23
-11 25 -28z"/>
<path d="M1508 773 c18 -2 45 -2 60 0 15 2 0 4 -33 4 -33 0 -45 -2 -27 -4z"/>
<path d="M2523 740 c6 -16 13 -28 15 -26 6 6 -10 56 -18 56 -5 0 -3 -13 3 -30z"/>
<path d="M964 739 c-4 -6 -9 -51 -11 -100 -4 -85 -3 -89 17 -89 18 0 19 3 9
21 -11 22 -8 112 6 157 8 23 -8 31 -21 11z"/>
<path d="M1922 702 c-1 -35 1 -42 8 -27 11 26 12 62 2 69 -5 3 -9 -16 -10 -42z"/>
<path d="M667 733 c-4 -3 -7 -13 -7 -22 1 -13 3 -13 11 2 11 19 8 33 -4 20z"/>
<path d="M1498 733 c7 -3 16 -2 19 1 4 3 -2 6 -13 5 -11 0 -14 -3 -6 -6z"/>
<path d="M1963 708 c2 -21 7 -41 10 -45 11 -10 8 50 -3 67 -8 11 -9 5 -7 -22z"/>
<path d="M325 720 c-3 -5 1 -10 10 -10 9 0 13 5 10 10 -3 6 -8 10 -10 10 -2 0
-7 -4 -10 -10z"/>
<path d="M393 723 c-13 -2 -23 -8 -23 -12 0 -12 43 -6 48 7 2 7 2 11 0 11 -1
-1 -13 -4 -25 -6z"/>
<path d="M2075 709 c-4 -6 -5 -12 -2 -15 2 -3 7 2 10 11 7 17 1 20 -8 4z"/>
<path d="M2631 683 c2 -35 2 -35 6 -8 3 16 10 33 16 37 8 5 6 8 -5 8 -14 0
-18 -8 -17 -37z"/>
<path d="M1063 695 c-3 -9 -3 -18 -1 -21 3 -3 8 4 11 16 6 23 -1 27 -10 5z"/>
<path d="M2146 679 c-10 -52 -7 -117 4 -99 6 8 10 33 9 55 -1 22 2 48 6 58 4
9 3 17 -3 17 -5 0 -12 -14 -16 -31z"/>
<path d="M333 650 c0 -25 2 -35 4 -22 2 12 2 32 0 45 -2 12 -4 2 -4 -23z"/>
<path d="M371 646 l2 -41 6 34 c9 49 29 51 34 4 l4 -38 -1 40 c-1 34 -4 40
-23 41 -21 1 -23 -3 -22 -40z"/>
<path d="M607 683 c-13 -12 -7 -61 9 -73 12 -11 18 -10 32 4 16 16 15 17 -10
11 -18 -5 -28 -3 -28 4 0 6 9 11 19 11 24 0 33 13 25 34 -6 16 -35 22 -47 9z
m33 -18 c0 -8 -7 -15 -15 -15 -16 0 -20 12 -8 23 11 12 23 8 23 -8z"/>
<path d="M682 645 c1 -33 2 -40 5 -20 3 17 12 38 20 48 10 10 12 17 5 17 -7 0
-12 -6 -12 -12 0 -9 -4 -8 -10 2 -7 11 -9 1 -8 -35z"/>
<path d="M735 679 c-4 -6 -4 -13 0 -17 4 -4 10 -1 12 6 5 14 23 16 23 3 0 -5
-9 -13 -20 -16 -20 -6 -28 -39 -11 -49 22 -14 41 7 41 45 0 32 -4 39 -19 39
-11 0 -23 -5 -26 -11z m35 -44 c0 -8 -7 -15 -15 -15 -26 0 -18 20 13 29 1 1 2
-6 2 -14z"/>
<path d="M2733 665 c-3 -9 -3 -19 1 -22 3 -3 1 -12 -5 -20 -9 -10 -8 -13 0
-13 7 0 9 -4 6 -10 -3 -5 -1 -10 4 -10 6 0 11 13 11 29 0 16 3 36 6 45 3 9 1
16 -5 16 -7 0 -14 -7 -18 -15z"/>
<path d="M1112 658 c-9 -12 -32 -83 -32 -100 0 -5 9 -8 20 -8 16 0 19 5 14 30
-4 16 -2 43 4 60 12 32 10 37 -6 18z"/>
<path d="M1243 663 c-7 -2 -13 -14 -13 -25 0 -21 1 -20 20 2 27 31 25 36 -7
23z"/>
<path d="M1778 653 c-16 -18 -41 -93 -34 -101 3 -2 9 5 14 15 10 18 12 25 12
44 0 5 5 7 11 3 8 -4 9 1 4 16 -5 15 -4 20 4 16 6 -4 11 0 11 8 0 20 -3 20
-22 -1z"/>
<path d="M1836 663 c-3 -3 -6 -20 -6 -36 0 -33 6 -34 12 -2 1 11 7 23 12 26 4
4 4 9 -2 12 -5 4 -12 4 -16 0z"/>
<path d="M1165 650 c-3 -5 -1 -10 4 -10 6 0 11 5 11 10 0 6 -2 10 -4 10 -3 0
-8 -4 -11 -10z"/>
<path d="M1386 645 c-3 -8 -1 -15 4 -15 6 0 10 7 10 15 0 8 -2 15 -4 15 -2 0
-6 -7 -10 -15z"/>
<path d="M1518 654 c-3 -3 -2 -21 2 -41 5 -19 6 -42 3 -49 -3 -8 1 -14 9 -14
11 0 13 10 8 50 -6 50 -12 64 -22 54z"/>
<path d="M2490 646 c0 -2 7 -7 16 -10 8 -3 12 -2 9 4 -6 10 -25 14 -25 6z"/>
<path d="M1468 633 c7 -3 16 -2 19 1 4 3 -2 6 -13 5 -11 0 -14 -3 -6 -6z"/>
<path d="M1651 624 c0 -11 3 -14 6 -6 3 7 2 16 -1 19 -3 4 -6 -2 -5 -13z"/>
<path d="M2625 609 c-9 -28 1 -36 14 -10 7 12 7 22 2 26 -5 3 -13 -4 -16 -16z"/>
<path d="M1240 605 c-10 -13 -15 -13 -21 -3 -5 8 -11 4 -18 -15 -14 -35 -14
-34 4 -34 8 0 15 5 15 11 0 5 10 20 22 33 12 13 19 23 16 23 -3 0 -11 -7 -18
-15z"/>
<path d="M1941 588 c-1 -28 13 -45 24 -28 3 5 2 10 -4 10 -5 0 -12 10 -14 23
-4 19 -4 19 -6 -5z"/>
<path d="M2682 589 c-7 -10 -21 -19 -32 -19 -11 0 -20 -4 -20 -8 0 -5 23 -10
50 -11 40 -1 50 2 50 15 0 10 -5 14 -14 11 -10 -4 -13 -1 -10 7 9 22 -11 26
-24 5z"/>
<path d="M1701 584 c0 -11 3 -14 6 -6 3 7 2 16 -1 19 -3 4 -6 -2 -5 -13z"/>
<path d="M652 575 c-20 -11 -21 -13 -7 -19 28 -10 125 -7 125 5 0 6 -13 8 -30
5 -18 -2 -30 0 -30 7 0 5 -3 7 -7 4 -3 -4 -11 -3 -17 1 -6 5 -21 3 -34 -3z"/>
<path d="M792 578 c-23 -23 -12 -28 64 -28 41 0 73 4 70 9 -3 4 -29 7 -58 6
-36 -1 -55 3 -58 12 -4 11 -8 11 -18 1z"/>
<path d="M1162 578 c-16 -16 -15 -28 3 -28 8 0 15 9 15 20 0 23 -2 24 -18 8z"/>
<path d="M1335 580 c-3 -5 -17 -10 -31 -10 -13 0 -24 -4 -24 -9 0 -17 59 -6
64 12 5 19 1 22 -9 7z"/>
<path d="M1385 571 c-3 -5 -1 -12 5 -16 5 -3 10 1 10 9 0 18 -6 21 -15 7z"/>
<path d="M2168 563 c-8 -10 -3 -13 20 -13 35 0 62 9 62 20 0 13 -70 6 -82 -7z"/>
<path d="M2330 571 c0 -5 5 -13 10 -16 6 -3 10 -2 10 4 0 5 -4 13 -10 16 -5 3
-10 2 -10 -4z"/>
<path d="M2764 566 c-9 -9 6 -12 60 -14 59 -1 67 1 46 10 -36 15 -93 18 -106
4z"/>
<path d="M1035 560 c-3 -5 1 -10 9 -10 9 0 16 5 16 10 0 6 -4 10 -9 10 -6 0
-13 -4 -16 -10z"/>
<path d="M1245 560 c-3 -5 -1 -10 4 -10 6 0 11 5 11 10 0 6 -2 10 -4 10 -3 0
-8 -4 -11 -10z"/>
<path d="M2005 560 c-3 -5 1 -10 10 -10 9 0 13 5 10 10 -3 6 -8 10 -10 10 -2
0 -7 -4 -10 -10z"/>
<path d="M2440 560 c0 -5 9 -10 21 -10 11 0 17 5 14 10 -3 6 -13 10 -21 10 -8
0 -14 -4 -14 -10z"/>
<path d="M30 279 c35 -9 344 -10 2053 -9 604 0 917 3 917 10 0 7 -507 10
-1502 9 -881 -1 -1489 -5 -1468 -10z"/>
<path d="M488 154 c4 -37 2 -45 -8 -39 -9 5 -11 4 -6 -3 16 -26 28 -10 24 33
-2 25 1 47 7 49 5 3 3 5 -6 5 -14 1 -16 -7 -11 -45z"/>
<path d="M779 195 c-1 -3 -2 -9 -3 -13 0 -5 -9 -16 -18 -26 -21 -20 -22 -30
-8 -57 9 -15 22 -19 68 -19 32 0 63 5 70 12 21 21 14 57 -14 70 -23 11 -29 10
-45 -11 -11 -14 -17 -32 -14 -42 5 -14 1 -17 -21 -16 -35 3 -53 29 -35 51 8 9
20 16 27 16 8 0 11 6 8 15 -7 18 7 20 24 3 8 -8 12 -8 12 -1 0 15 -48 32 -51
18z m98 -47 c18 -25 10 -53 -17 -53 -19 0 -26 6 -28 24 -5 33 26 53 45 29z"/>
<path d="M845 140 c-3 -5 1 -10 10 -10 9 0 13 5 10 10 -3 6 -8 10 -10 10 -2 0
-7 -4 -10 -10z"/>
<path d="M850 110 c0 -5 4 -10 9 -10 6 0 13 5 16 10 3 6 -1 10 -9 10 -9 0 -16
-4 -16 -10z"/>
<path d="M1079 193 c-1 -5 0 -17 1 -28 2 -16 0 -17 -14 -6 -9 7 -25 11 -35 8
-12 -3 -22 1 -25 9 -8 20 -60 17 -79 -4 -22 -24 -21 -44 3 -74 14 -19 26 -24
45 -21 14 3 25 10 25 16 0 5 8 3 18 -5 11 -9 26 -13 42 -8 21 5 22 7 8 13 -11
4 -18 17 -19 34 0 15 -3 22 -6 16 -2 -7 -11 -13 -18 -13 -8 0 -19 -9 -25 -20
-16 -29 -58 -26 -70 5 -10 27 -4 55 12 55 6 0 7 -7 4 -16 -3 -8 -1 -24 4 -35
11 -20 30 -26 30 -8 0 5 -4 7 -10 4 -5 -3 -10 -1 -10 4 0 6 9 11 20 11 18 0
19 3 8 20 -7 11 -19 21 -28 24 -8 2 -3 4 12 5 19 1 29 -5 33 -20 5 -16 10 -18
21 -8 19 15 44 4 44 -20 0 -11 5 -23 10 -26 9 -6 15 37 11 73 -1 6 3 12 9 12
5 0 10 -8 10 -17 0 -12 3 -14 11 -6 6 6 8 16 5 22 -8 12 -45 15 -47 4z m-105
-42 c3 -5 -1 -11 -9 -14 -9 -4 -12 -1 -8 9 6 16 10 17 17 5z m62 -40 c-4 -5 0
-12 6 -14 8 -3 6 -6 -4 -6 -10 -1 -18 6 -18 14 0 8 5 15 11 15 5 0 8 -4 5 -9z"/>
<path d="M1253 181 c-3 -12 -11 -17 -19 -14 -8 3 -14 0 -14 -6 0 -6 6 -10 13
-8 7 1 12 -9 12 -25 -1 -16 3 -28 7 -28 4 0 8 12 8 26 0 14 8 33 18 42 9 10
13 14 8 10 -18 -14 -29 -8 -16 7 10 12 10 15 0 15 -6 0 -14 -9 -17 -19z"/>
<path d="M1963 180 c-3 -11 -9 -17 -14 -14 -5 3 -9 0 -9 -5 0 -6 5 -11 10 -11
6 0 10 -11 10 -25 0 -17 -7 -29 -22 -35 -23 -9 -23 -9 2 -9 87 -3 123 -2 128
3 3 3 -19 6 -49 6 l-55 0 4 35 c5 41 27 42 27 2 -1 -39 12 -33 17 8 2 21 0 34
-7 34 -30 -4 -38 1 -25 16 10 12 10 15 0 15 -6 0 -14 -9 -17 -20z"/>
<path d="M2234 160 c-19 -39 -44 -54 -44 -26 0 8 6 16 13 19 6 2 9 8 4 12 -12
14 -29 -11 -25 -36 2 -19 8 -23 28 -22 25 3 25 3 3 -8 -36 -19 -55 -5 -51 38
3 33 7 39 33 44 l30 7 -27 1 c-35 1 -59 -33 -51 -72 5 -27 34 -52 47 -40 3 3
101 5 218 5 141 -1 216 2 225 9 17 15 17 54 -1 69 -18 14 -58 10 -64 -8 -3
-11 -1 -11 17 -1 24 16 38 6 43 -31 2 -21 -2 -26 -24 -28 -20 -2 -28 1 -28 12
0 9 5 16 11 16 5 0 7 -4 4 -10 -3 -5 -1 -10 4 -10 6 0 11 12 10 28 0 15 -3 21
-6 15 -2 -7 -11 -13 -18 -13 -8 0 -19 -9 -25 -20 -6 -11 -21 -20 -33 -20 -20
0 -22 5 -22 47 0 27 5 52 10 56 6 5 1 7 -10 5 -16 -3 -20 -11 -20 -53 0 -38
-4 -50 -17 -53 -19 -4 -43 32 -32 49 3 6 16 15 28 20 19 9 18 9 -6 6 -19 -3
-28 1 -32 12 -2 9 -3 -7 -1 -36 l2 -51 -31 1 c-39 2 -48 37 -15 60 11 9 18 20
15 25 -3 6 0 13 6 15 8 3 5 6 -6 6 -11 1 -16 -4 -13 -12 3 -7 -3 -19 -13 -25
-10 -6 -20 -24 -22 -39 -2 -23 -8 -29 -33 -31 -21 -2 -26 0 -16 7 8 5 12 19 9
35 -4 22 -2 26 12 21 10 -3 21 -2 24 3 3 5 -6 10 -20 10 -15 0 -30 6 -35 13
-6 10 -9 11 -9 2 0 -7 -7 -13 -16 -13 -14 0 -14 3 -4 15 7 8 8 15 3 15 -5 0
-18 -18 -29 -40z m51 0 c-3 -5 -1 -10 4 -10 15 0 14 -33 -1 -48 -18 -18 -46
-14 -53 8 -8 24 0 39 29 50 28 12 28 12 21 0z"/>
<path d="M2259 148 c-5 -17 -4 -48 3 -48 4 0 8 11 8 25 0 20 -7 34 -11 23z"/>
<path d="M223 183 c9 -2 23 -2 30 0 6 3 -1 5 -18 5 -16 0 -22 -2 -12 -5z"/>
<path d="M522 140 c2 -37 -1 -50 -12 -53 -8 -2 -6 -4 5 -3 17 1 20 8 21 54 0
28 -4 52 -9 52 -5 0 -7 -22 -5 -50z"/>
<path d="M567 183 c-4 -3 -7 -13 -7 -22 1 -14 2 -13 11 2 12 21 48 22 56 1 3
-8 -4 -25 -17 -40 -13 -13 -19 -24 -12 -24 12 0 52 52 52 69 0 6 10 12 23 12
17 1 18 2 4 6 -10 3 -24 0 -32 -7 -9 -7 -15 -8 -20 0 -7 11 -48 14 -58 3z"/>
<path d="M1403 178 c-4 -7 -8 -29 -9 -48 -1 -19 0 -29 3 -22 2 6 11 12 19 12
9 0 12 -4 9 -10 -3 -5 -2 -10 4 -10 20 0 22 22 3 27 -22 5 -36 29 -26 45 4 5
19 8 35 6 15 -3 26 -1 23 4 -8 13 -52 9 -61 -4z"/>
<path d="M1655 145 c0 -25 4 -45 9 -45 4 0 6 18 4 40 -2 29 0 40 12 44 10 2 8
4 -5 5 -18 1 -20 -5 -20 -44z"/>
<path d="M1721 159 c-13 -39 -14 -42 -1 -34 6 3 10 3 10 -2 -1 -18 -17 -31
-45 -36 -30 -4 -30 -4 4 -6 22 0 38 5 47 16 16 21 19 57 4 48 -5 -3 -10 -3
-10 2 0 13 14 30 30 36 10 4 8 6 -7 6 -15 1 -24 -8 -32 -30z"/>
<path d="M706 169 c3 -6 -3 -24 -15 -40 -21 -29 -16 -40 7 -17 9 9 12 8 12 -5
0 -13 -9 -17 -36 -17 -38 0 -38 6 -2 46 13 14 16 24 9 29 -6 3 -11 0 -11 -7
-1 -23 -47 -66 -76 -71 -16 -2 5 -3 46 -3 l75 1 2 48 c1 26 -2 47 -8 47 -6 0
-7 -5 -3 -11z"/>
<path d="M1701 164 c0 -11 3 -14 6 -6 3 7 2 16 -1 19 -3 4 -6 -2 -5 -13z"/>
<path d="M1917 173 c-4 -3 -7 -11 -7 -17 0 -6 5 -5 12 2 6 6 9 14 7 17 -3 3
-9 2 -12 -2z"/>
<path d="M218 135 c-2 -19 0 -35 4 -35 4 0 8 16 8 35 0 19 -2 35 -4 35 -2 0
-6 -16 -8 -35z"/>
<path d="M250 135 c0 -37 8 -43 28 -23 9 9 12 8 12 -5 0 -13 -9 -17 -37 -17
-20 0 -34 -3 -30 -6 3 -4 32 -6 64 -5 32 1 90 1 128 1 51 0 66 3 53 10 -11 7
-15 19 -12 35 2 14 0 25 -6 25 -5 0 -10 -4 -10 -9 0 -15 -33 -22 -41 -9 -4 7
-11 9 -15 6 -10 -11 4 -40 16 -33 5 3 10 1 10 -4 0 -6 -9 -11 -19 -11 -24 0
-37 36 -21 55 15 18 37 19 43 3 3 -10 7 -10 20 1 9 7 24 11 32 7 9 -3 14 -2
10 3 -7 12 -97 11 -112 -1 -7 -5 -14 -5 -18 2 -11 17 -33 11 -60 -17 l-26 -28
5 28 c3 15 0 27 -5 27 -5 0 -9 -16 -9 -35z m98 -8 c4 -34 -25 -49 -44 -22 -10
13 -10 23 -3 37 15 27 43 18 47 -15z m99 -22 c0 -18 -19 -15 -25 3 -2 7 3 12
11 12 7 0 14 -7 14 -15z"/>
<path d="M317 137 c-3 -7 -1 -20 3 -28 7 -11 10 -10 16 4 4 10 2 23 -3 28 -7
7 -12 6 -16 -4z"/>
<path d="M594 161 c3 -4 -3 -16 -14 -26 -11 -10 -20 -23 -20 -28 0 -6 11 0 25
13 26 24 33 50 14 50 -5 0 -8 -4 -5 -9z"/>
<path d="M1125 150 c-10 -11 -15 -28 -12 -39 3 -13 -1 -21 -12 -24 -9 -3 4 -5
29 -5 36 -1 41 1 23 8 -16 6 -23 18 -23 35 0 14 5 25 10 25 6 0 10 -4 10 -10
0 -5 5 -10 11 -10 8 0 8 4 0 14 -9 11 -9 15 1 19 9 4 8 6 -3 6 -9 1 -24 -8
-34 -19z"/>
<path d="M1189 163 c-1 -5 0 -18 1 -30 1 -18 -3 -20 -22 -16 -13 3 -20 2 -15
-2 4 -5 16 -10 26 -12 15 -2 20 5 23 32 2 19 0 35 -4 35 -4 0 -8 -3 -9 -7z"/>
<path d="M1289 149 c-6 -12 -9 -30 -6 -40 3 -12 0 -19 -9 -19 -8 0 -14 -3 -14
-8 0 -4 24 -5 53 -2 44 4 52 8 55 27 2 12 -2 30 -8 40 -9 15 -10 11 -6 -20 6
-46 -15 -47 -25 -1 -4 16 -7 23 -8 17 0 -7 -8 -13 -17 -13 -20 0 -8 19 20 30
l21 9 -22 0 c-13 1 -27 -8 -34 -20z m27 -38 c-4 -5 0 -12 6 -14 8 -3 6 -6 -4
-6 -10 -1 -18 6 -18 14 0 8 5 15 11 15 5 0 8 -4 5 -9z"/>
<path d="M1420 161 c0 -11 31 -24 38 -16 3 3 0 5 -7 5 -7 0 -9 5 -6 10 3 6 -1
10 -9 10 -9 0 -16 -4 -16 -9z"/>
<path d="M1475 159 c-11 -16 -2 -17 25 -2 24 12 24 13 3 13 -12 0 -25 -5 -28
-11z"/>
<path d="M1537 163 c-2 -5 -1 -21 3 -38 l6 -30 5 38 c4 33 -3 50 -14 30z"/>
<path d="M1575 159 c-4 -6 0 -9 11 -7 13 2 20 -6 25 -29 6 -31 5 -32 -30 -36
-35 -4 -35 -4 4 -3 37 1 40 3 41 31 2 45 -33 75 -51 44z"/>
<path d="M1763 138 c1 -37 10 -48 22 -28 9 14 22 12 22 -4 0 -8 -12 -13 -30
-14 -16 0 -32 -3 -35 -6 -3 -3 30 -5 74 -5 43 1 70 4 58 6 -19 4 -20 8 -14 44
5 28 4 39 -4 36 -6 -3 -10 -10 -8 -18 5 -20 -7 -59 -18 -59 -6 0 -10 15 -10
33 0 17 -4 27 -8 21 -4 -6 -15 -13 -24 -17 -13 -4 -18 1 -21 21 -3 18 -4 15
-4 -10z"/>
<path d="M1785 159 c-11 -16 -2 -17 25 -2 24 12 24 13 3 13 -12 0 -25 -5 -28
-11z"/>
<path d="M2035 160 c-3 -5 -2 -10 4 -10 5 0 13 5 16 10 3 6 2 10 -4 10 -5 0
-13 -4 -16 -10z"/>
<path d="M2525 160 c-3 -5 -2 -10 4 -10 5 0 13 5 16 10 3 6 2 10 -4 10 -5 0
-13 -4 -16 -10z"/>
<path d="M2072 135 c-1 -24 15 -73 19 -55 0 3 2 13 4 23 2 9 -1 17 -5 17 -5 0
-11 10 -13 23 -3 17 -5 15 -5 -8z"/>
<path d="M777 143 c-12 -12 -7 -33 7 -33 8 0 13 7 12 15 -3 19 -11 27 -19 18z"/>
<path d="M1501 143 c0 -7 -8 -13 -16 -13 -8 0 -19 -9 -25 -20 -6 -12 -21 -20
-38 -21 -24 0 -25 -1 -7 -8 11 -5 24 -6 29 -3 6 3 30 5 55 3 40 -2 44 0 29 11
-9 7 -19 24 -21 38 -2 14 -5 19 -6 13z m-4 -38 c0 -8 -4 -15 -9 -15 -4 0 -8 7
-8 15 0 8 4 15 8 15 5 0 9 -7 9 -15z"/>
<path d="M1683 127 c1 -15 5 -27 10 -27 10 0 9 22 -2 39 -7 10 -9 7 -8 -12z"/>
<path d="M2387 130 c-3 -11 -1 -20 4 -20 5 0 9 9 9 20 0 11 -2 20 -4 20 -2 0
-6 -9 -9 -20z"/>
<path d="M2456 141 c-4 -6 -3 -19 3 -28 9 -17 10 -17 17 0 8 21 -10 45 -20 28z"/>
<path d="M1220 121 c0 -25 6 -27 13 -6 4 8 2 17 -3 20 -6 4 -10 -3 -10 -14z"/>
<path d="M1573 120 c1 -11 5 -20 9 -20 4 0 8 9 8 20 0 11 -4 20 -9 20 -6 0 -9
-9 -8 -20z"/>
<path d="M1880 120 c0 -11 5 -20 10 -20 6 0 10 9 10 20 0 11 -4 20 -10 20 -5
0 -10 -9 -10 -20z"/>
<path d="M1912 120 c0 -14 2 -19 5 -12 2 6 2 18 0 25 -3 6 -5 1 -5 -13z"/>
<path d="M1941 124 c0 -11 3 -14 6 -6 3 7 2 16 -1 19 -3 4 -6 -2 -5 -13z"/>
<path d="M2033 120 c1 -11 5 -20 9 -20 4 0 8 9 8 20 0 11 -4 20 -9 20 -6 0 -9
-9 -8 -20z"/>
<path d="M2332 120 c0 -14 2 -19 5 -12 2 6 2 18 0 25 -3 6 -5 1 -5 -13z"/>
<path d="M2527 119 c-3 -13 -1 -19 6 -16 15 5 22 37 9 37 -5 0 -12 -9 -15 -21z"/>
<path d="M2103 84 c-12 -26 -12 -26 7 -9 20 18 26 35 13 35 -5 0 -13 -12 -20
-26z"/>
<path d="M1195 80 c3 -5 12 -7 20 -3 21 7 19 13 -6 13 -11 0 -18 -4 -14 -10z"/>
</g>
</svg>
