<?xml version="1.0" standalone="no"?>
<!DOCTYPE svg PUBLIC "-//W3C//DTD SVG 20010904//EN"
 "http://www.w3.org/TR/2001/REC-SVG-20010904/DTD/svg10.dtd">
<svg version="1.0" xmlns="http://www.w3.org/2000/svg"
 width="300.000000pt" height="170.000000pt" viewBox="0 0 300.000000 170.000000"
 preserveAspectRatio="xMidYMid meet">
<metadata>
Created by potrace 1.10, written by Peter Selinger 2001-2011
</metadata>
<g transform="translate(0.000000,170.000000) scale(0.100000,-0.100000)"
fill="#000000" stroke="none">
<path d="M42 1668 c6 -18 15 -40 19 -48 20 -33 21 -42 9 -50 -9 -6 -7 -11 8
-19 38 -20 44 -44 17 -74 -23 -24 -19 -47 5 -32 6 3 10 1 10 -4 0 -6 -7 -11
-16 -11 -13 0 -13 -2 -1 -21 8 -11 12 -30 9 -41 -3 -14 -1 -19 6 -14 7 4 12 1
12 -7 0 -8 9 -34 20 -58 12 -27 20 -36 20 -24 0 21 -24 95 -40 126 -7 11 -4
27 7 49 24 49 29 116 10 135 -10 9 -18 11 -22 5 -3 -5 -2 -10 3 -10 5 0 12 -9
15 -20 3 -12 1 -18 -5 -14 -10 6 -38 67 -53 114 -7 22 -6 23 9 11 9 -7 16 -19
16 -26 0 -15 30 -29 40 -18 14 15 22 83 10 83 -6 0 -9 -4 -6 -9 3 -5 -5 -16
-18 -25 -22 -14 -25 -14 -38 3 -7 11 -23 22 -35 26 -20 6 -21 4 -11 -27z m93
-28 c3 -5 -1 -10 -9 -10 -9 0 -16 5 -16 10 0 6 4 10 9 10 6 0 13 -4 16 -10z"/>
<path d="M268 1693 c6 -2 18 -2 25 0 6 3 1 5 -13 5 -14 0 -19 -2 -12 -5z"/>
<path d="M370 1685 c0 -8 2 -15 4 -15 2 0 6 7 10 15 3 8 1 15 -4 15 -6 0 -10
-7 -10 -15z"/>
<path d="M960 1685 c-7 -8 -17 -12 -24 -8 -6 4 -5 -1 3 -10 7 -9 18 -17 23
-17 24 0 259 -132 438 -247 41 -26 94 -53 117 -59 23 -6 60 -23 82 -37 22 -15
43 -27 45 -27 3 0 57 -25 121 -55 102 -49 122 -55 178 -55 72 0 159 -20 219
-51 24 -12 93 -72 155 -134 101 -99 115 -117 129 -166 33 -116 36 -139 25
-169 -12 -36 -3 -43 32 -25 25 13 37 11 37 -7 0 -5 -4 -6 -10 -3 -5 3 -10 1
-10 -4 0 -14 13 -14 26 -1 15 15 56 -18 52 -42 -4 -31 -33 -46 -58 -30 -12 7
-20 8 -20 2 0 -6 -15 -8 -37 -4 -27 4 -51 0 -83 -15 -25 -12 -35 -19 -23 -16
12 3 57 7 102 10 44 2 88 6 98 9 16 5 18 -1 19 -42 0 -26 3 -66 7 -89 3 -24 2
-43 -2 -43 -4 0 -7 -10 -7 -22 1 -29 -35 -37 -179 -42 -122 -4 -149 -10 -141
-35 3 -9 -7 -1 -22 17 -21 24 -37 32 -61 32 -19 0 -30 -4 -26 -10 3 -5 15 -10
26 -10 23 0 25 -22 4 -40 -8 -7 -15 -19 -15 -27 0 -10 -7 -14 -20 -10 -12 3
-23 -1 -29 -10 -7 -13 -9 -13 -14 1 -4 9 -16 16 -27 16 -12 0 -18 5 -15 10 3
6 2 10 -4 10 -17 0 -24 -22 -10 -31 9 -6 -1 -9 -31 -7 -42 3 -45 5 -43 31 1
15 -2 25 -6 23 -4 -3 -7 21 -7 53 1 55 0 58 -20 51 -21 -9 -75 22 -62 36 10
10 -11 46 -23 38 -6 -4 -6 -11 2 -20 9 -11 8 -14 -2 -14 -18 0 -95 -38 -108
-53 -13 -17 -21 -86 -10 -93 5 -3 9 3 10 13 1 27 10 77 14 81 2 3 25 7 50 10
36 4 50 1 68 -15 12 -11 30 -23 40 -26 9 -4 17 -13 17 -22 0 -8 5 -15 11 -15
8 0 7 -6 -2 -16 -8 -9 -12 -28 -11 -41 3 -22 1 -24 -35 -21 -25 2 -38 8 -39
18 -2 38 -4 39 -34 24 -16 -9 -30 -20 -30 -26 0 -6 -23 -8 -57 -6 l-57 3 -13
45 c-8 25 -21 78 -29 119 -15 69 -15 76 2 115 10 22 21 43 24 46 3 3 6 21 7
40 1 19 2 48 3 63 1 23 5 27 21 22 28 -9 23 4 -5 15 -14 5 -24 17 -24 27 0 10
-3 31 -7 47 -8 28 -7 29 19 22 36 -9 26 7 -14 24 -37 15 -38 26 -5 34 14 4 25
12 25 18 0 9 -3 9 -12 0 -18 -18 -28 -15 -28 9 0 11 -4 17 -10 14 -5 -3 -10 3
-10 14 0 11 5 23 10 26 6 3 10 13 10 21 0 17 -20 19 -21 2 0 -15 -59 -64 -59
-50 0 5 -14 8 -30 7 -17 -1 -33 1 -36 6 -5 8 10 13 29 10 4 -1 11 10 16 23 12
30 37 40 37 15 0 -11 -4 -19 -9 -19 -4 0 -5 -5 -2 -10 11 -18 26 1 20 23 -6
21 -6 22 9 3 9 -11 16 -15 16 -10 0 6 -10 20 -21 33 -18 19 -20 27 -11 54 5
18 10 24 11 15 1 -10 4 -18 9 -18 11 0 8 93 -4 113 -9 16 -11 16 -31 -5 -29
-33 -34 -54 -12 -54 14 0 16 3 6 15 -9 11 -9 13 0 8 7 -4 14 1 18 13 4 11 11
18 16 14 6 -4 4 -13 -5 -23 -9 -10 -13 -21 -10 -24 4 -4 -1 -9 -10 -13 -9 -3
-16 -10 -16 -16 0 -5 4 -6 10 -3 7 4 7 -3 0 -19 -5 -14 -6 -26 -2 -26 4 0 -1
-5 -11 -11 -9 -6 -14 -15 -11 -21 4 -7 2 -8 -5 -4 -9 6 -9 13 3 31 14 22 12
65 -4 65 -4 0 -10 -9 -13 -20 -3 -11 -1 -18 4 -14 17 10 9 -15 -16 -52 -13
-20 -30 -51 -37 -70 -12 -33 -31 -44 -43 -25 -3 5 -1 13 5 16 8 5 8 11 0 20
-13 16 -5 33 22 53 16 11 18 23 14 73 -3 32 -7 63 -11 69 -3 5 -1 10 5 10 6 0
9 4 6 9 -4 5 -1 11 6 13 6 2 8 9 4 16 -10 16 -35 -8 -28 -27 4 -10 1 -12 -9
-6 -8 4 -11 5 -7 1 3 -4 -2 -16 -13 -27 -10 -10 -19 -26 -19 -35 0 -9 -5 -12
-12 -8 -7 4 -10 4 -6 -1 11 -11 -68 -122 -92 -128 -22 -6 -40 17 -40 50 0 12
-3 14 -8 6 -5 -7 -13 -9 -22 -3 -9 6 -18 3 -25 -7 -14 -19 -37 -9 -28 12 4 11
1 13 -11 9 -24 -9 -19 -29 11 -43 22 -10 24 -14 12 -23 -11 -7 -9 -9 8 -5 14
3 34 -3 50 -15 16 -11 10 -4 -12 16 -47 42 -41 46 14 12 21 -14 42 -22 45 -18
4 3 4 0 1 -8 -8 -20 -55 -54 -55 -40 0 5 5 10 12 10 23 0 -7 18 -42 25 l-35 8
25 -21 c14 -12 22 -21 17 -22 -11 0 -51 23 -59 35 -11 15 -10 27 2 20 6 -3 10
-2 10 4 0 5 -5 13 -10 16 -18 11 -23 -25 -6 -50 15 -23 15 -25 1 -25 -9 0 -13
-4 -10 -10 3 -5 15 -10 26 -10 13 0 18 4 13 12 -5 7 -3 8 7 3 18 -12 70 -17
89 -9 23 10 50 12 50 2 0 -4 5 -8 11 -8 6 0 9 7 5 15 -3 8 2 19 12 24 9 6 13
11 9 11 -4 0 -19 -7 -32 -16 -46 -30 -30 14 25 68 28 27 50 56 50 64 0 8 5 12
10 9 6 -4 13 7 16 24 4 17 11 31 17 31 6 0 8 -2 5 -6 -3 -3 -2 -20 2 -39 5
-20 4 -33 -1 -29 -5 3 -9 -3 -9 -13 0 -15 -2 -16 -10 -3 -8 12 -10 11 -10 -7
0 -13 -5 -23 -11 -23 -5 0 -8 -4 -4 -9 3 -5 0 -13 -6 -17 -6 -3 -15 0 -20 7
-7 11 -11 10 -23 -6 -18 -25 -17 -27 22 -16 23 7 34 6 43 -5 10 -13 8 -14 -12
-11 -14 3 -34 -3 -46 -13 -25 -20 -20 -30 15 -30 19 0 23 4 18 18 -5 14 -3 14
11 -3 16 -17 26 -19 83 -14 41 3 51 6 28 7 -21 1 -38 6 -38 10 0 5 26 5 58 0
75 -11 83 -14 76 -32 -3 -8 4 -48 16 -90 25 -90 21 -174 -12 -249 -24 -53 -21
-85 22 -243 l21 -79 147 -3 c81 -1 205 -5 276 -8 l128 -7 -17 26 c-9 15 -14
34 -10 45 7 23 45 37 45 17 0 -23 14 -25 71 -10 73 20 115 19 131 -3 7 -9 25
-25 41 -35 28 -18 37 -46 15 -48 -7 -1 -20 -2 -28 -3 -8 0 -18 3 -22 9 -7 9
-97 10 -106 0 -10 -9 3 -13 72 -19 38 -3 79 -9 92 -12 23 -6 24 -4 24 38 0 55
16 90 52 114 26 17 28 24 28 82 0 34 3 62 8 62 4 0 6 37 4 83 -3 80 -2 88 37
172 23 48 41 93 41 100 0 7 7 18 15 25 9 7 14 19 11 27 -3 7 -1 13 4 13 5 0
11 9 15 19 4 14 14 19 30 17 14 -2 28 -5 31 -8 3 -3 23 -3 46 -1 26 4 43 2 48
-7 10 -16 50 26 50 52 0 10 5 18 10 18 7 0 7 7 0 21 -7 11 -9 27 -6 35 7 18
-28 54 -53 54 -11 0 -22 4 -25 8 -2 4 -17 7 -33 6 -15 -1 -43 -3 -61 -3 -48
-1 -73 -33 -77 -98 -2 -29 0 -55 6 -58 11 -8 11 -26 0 -44 -8 -12 -12 -13 -25
-1 -15 11 -15 10 -8 -11 9 -23 8 -30 -23 -104 -7 -16 -16 -41 -20 -54 -10 -32
-45 -90 -45 -73 0 6 -3 11 -7 10 -16 -3 -43 15 -36 25 3 6 1 7 -5 3 -19 -11
-52 13 -51 37 3 57 -52 204 -92 247 -56 60 -57 62 -13 55 33 -5 36 -4 19 6
-11 7 -23 17 -27 23 -5 8 -8 7 -8 -1 0 -29 -51 -12 -97 32 -90 87 -234 151
-345 154 -23 1 -28 6 -29 29 l0 27 -12 -25 c-6 -14 -12 -26 -13 -28 -1 -2 -16
4 -34 13 -23 12 -29 20 -21 28 5 7 13 51 17 97 3 47 8 88 11 93 2 4 -7 21 -21
38 l-26 30 2 -25 c1 -14 6 -26 10 -26 11 0 8 -96 -5 -160 -13 -60 -19 -63 -82
-35 -16 7 -40 16 -52 20 -13 3 -23 11 -23 16 0 5 -7 9 -15 9 -8 0 -15 5 -15
10 0 6 -7 10 -16 10 -8 0 -28 13 -43 28 -16 15 -33 26 -40 24 -7 -2 -11 12
-11 40 0 33 6 50 23 65 20 19 35 24 109 39 15 3 52 -2 83 -11 31 -9 60 -14 63
-10 4 4 2 10 -4 12 -6 2 -26 15 -44 28 -23 17 -37 22 -44 15 -5 -5 -27 -10
-48 -10 -21 0 -38 -4 -38 -10 0 -5 -6 -7 -14 -4 -15 6 -71 -19 -93 -42 -7 -7
-13 -24 -13 -37 0 -32 -9 -57 -21 -57 -5 0 -28 12 -52 27 -23 15 -64 40 -92
54 -35 19 -49 33 -48 46 1 10 0 12 -3 6 -8 -17 -29 -16 -43 1 -10 12 -6 18 18
32 17 10 31 24 31 30 0 7 12 22 28 34 25 20 25 20 2 9 -14 -7 -38 -25 -53 -41
-20 -19 -39 -28 -62 -28 -35 0 -61 20 -45 36 6 6 6 15 0 24 -8 12 -10 10 -10
-7 0 -26 -7 -28 -46 -10 -46 19 -84 48 -84 63 0 7 -5 16 -12 20 -8 5 -9 2 -4
-11 5 -15 4 -16 -9 -5 -8 7 -12 16 -9 21 9 15 -13 10 -26 -6z m1971 -677 c5
-7 8 -35 6 -63 l-3 -50 -97 0 c-66 0 -98 4 -101 12 -8 20 22 36 54 29 17 -3
30 -1 30 4 0 6 -15 10 -34 10 -30 0 -34 4 -40 32 -4 21 -2 34 6 40 21 12 170
2 179 -14z m-371 -736 c0 -5 -9 -18 -19 -29 -11 -12 -17 -24 -13 -28 4 -4 -10
1 -30 11 -54 25 -58 45 -8 42 22 -1 43 1 46 5 10 10 24 9 24 -1z"/>
<path d="M2770 980 c0 -5 5 -10 10 -11 38 -4 54 -2 58 9 2 8 -8 12 -32 12 -20
0 -36 -4 -36 -10z"/>
<path d="M2860 981 c0 -6 9 -9 20 -8 11 1 20 5 20 9 0 4 -9 8 -20 8 -11 0 -20
-4 -20 -9z"/>
<path d="M2850 945 c0 -16 16 -20 24 -6 3 5 -1 11 -9 15 -9 3 -15 0 -15 -9z"/>
<path d="M1166 1673 c1 -30 27 -44 47 -24 8 8 8 11 -1 11 -10 0 -10 3 -1 13 7
7 40 13 76 14 94 2 91 13 -4 13 -66 0 -82 -3 -87 -17 -6 -15 -8 -15 -19 1 -11
15 -13 14 -11 -11z"/>
<path d="M1423 1688 c-4 -7 -9 -24 -11 -37 -3 -21 -1 -23 12 -12 8 7 18 21 21
32 9 28 68 26 95 -3 20 -22 24 -32 21 -55 -1 -7 5 -13 14 -13 17 0 16 13 -7
73 -10 25 -14 27 -74 27 -39 0 -66 -5 -71 -12z"/>
<path d="M1896 1625 c12 -151 11 -145 22 -145 11 0 -7 203 -18 214 -7 7 -8
-18 -4 -69z"/>
<path d="M2100 1681 c-1 -9 -7 -33 -15 -54 -12 -35 -12 -40 6 -58 19 -19 19
-19 30 8 6 15 15 30 20 34 6 4 4 9 -6 12 -9 4 -13 3 -10 -3 3 -6 1 -10 -5 -10
-6 0 -9 8 -6 18 17 56 17 69 2 69 -9 0 -16 -7 -16 -16z"/>
<path d="M2297 1680 c-3 -11 -3 -20 -1 -20 2 0 8 9 14 20 6 11 7 20 2 20 -6 0
-12 -9 -15 -20z"/>
<path d="M2724 1689 c-4 -7 -3 -9 4 -5 5 3 13 0 15 -6 4 -9 6 -10 6 -1 1 17
-16 25 -25 12z"/>
<path d="M2940 1680 c11 -20 30 -28 30 -12 0 11 -22 32 -32 32 -5 0 -4 -9 2
-20z"/>
<path d="M285 1670 c3 -5 11 -10 16 -10 6 0 7 5 4 10 -3 6 -11 10 -16 10 -6 0
-7 -4 -4 -10z"/>
<path d="M317 1655 c-17 -12 -16 -13 7 -11 25 1 34 10 18 20 -4 2 -15 -2 -25
-9z"/>
<path d="M831 1654 c0 -11 3 -14 6 -6 3 7 2 16 -1 19 -3 4 -6 -2 -5 -13z"/>
<path d="M1750 1640 c0 -5 5 -10 11 -10 5 0 7 5 4 10 -3 6 -8 10 -11 10 -2 0
-4 -4 -4 -10z"/>
<path d="M13 1608 c0 -17 6 -23 23 -24 20 -2 21 0 9 13 -8 8 -15 19 -15 24 0
5 -4 9 -9 9 -5 0 -8 -10 -8 -22z"/>
<path d="M840 1619 c0 -5 5 -7 10 -4 6 3 10 8 10 11 0 2 -4 4 -10 4 -5 0 -10
-5 -10 -11z"/>
<path d="M2270 1606 c0 -13 -6 -27 -12 -29 -7 -3 -3 -6 9 -6 16 -1 21 -6 17
-16 -4 -8 -1 -15 5 -15 6 0 11 7 11 15 0 8 8 15 18 16 11 0 12 2 4 6 -7 3 -17
16 -22 29 -12 31 -30 31 -30 0z"/>
<path d="M350 1604 c0 -8 5 -12 10 -9 6 3 10 10 10 16 0 5 -4 9 -10 9 -5 0
-10 -7 -10 -16z"/>
<path d="M525 1590 c-4 -6 -2 -17 4 -24 6 -7 8 -16 4 -19 -3 -4 -1 -7 6 -7 7
0 9 -4 6 -10 -3 -5 -1 -10 4 -10 15 0 14 22 -4 46 -8 12 -11 24 -8 28 3 3 4 6
0 6 -3 0 -9 -5 -12 -10z"/>
<path d="M737 1594 c-6 -10 9 -42 16 -34 3 3 1 14 -3 24 -3 11 -9 15 -13 10z"/>
<path d="M935 1560 c3 -25 10 -49 15 -54 12 -12 4 60 -10 81 -9 14 -10 9 -5
-27z"/>
<path d="M2722 1580 c0 -14 2 -19 5 -12 2 6 2 18 0 25 -3 6 -5 1 -5 -13z"/>
<path d="M1437 1574 c3 -8 9 -12 13 -9 5 3 11 1 15 -5 3 -5 11 -10 17 -10 16
0 -9 27 -32 33 -13 3 -17 1 -13 -9z"/>
<path d="M1560 1575 c-7 -8 -23 -15 -36 -15 -13 0 -24 -4 -24 -9 0 -18 47 -5
64 17 19 24 16 31 -4 7z"/>
<path d="M442 1565 c0 -11 -2 -29 -5 -40 -2 -11 -2 -15 0 -9 2 7 13 14 24 17
22 6 26 27 5 27 -8 0 -16 6 -19 13 -3 6 -5 3 -5 -8z"/>
<path d="M2418 1573 c7 -3 16 -2 19 1 4 3 -2 6 -13 5 -11 0 -14 -3 -6 -6z"/>
<path d="M1323 1556 c-9 -11 -9 -15 0 -19 7 -3 14 3 14 14 2 22 2 22 -14 5z"/>
<path d="M2472 1560 c-12 -5 -28 -7 -35 -4 -8 3 -14 -2 -14 -10 0 -8 4 -13 8
-10 4 2 9 -1 11 -7 6 -19 57 1 55 22 -1 10 -1 19 -2 18 0 0 -10 -4 -23 -9z"/>
<path d="M2 1540 c0 -14 2 -19 5 -12 2 6 2 18 0 25 -3 6 -5 1 -5 -13z"/>
<path d="M846 1545 c-9 -26 -7 -32 5 -12 6 10 9 21 6 23 -2 3 -7 -2 -11 -11z"/>
<path d="M2670 1549 c0 -5 5 -7 10 -4 6 3 10 8 10 11 0 2 -4 4 -10 4 -5 0 -10
-5 -10 -11z"/>
<path d="M661 1534 c0 -11 3 -14 6 -6 3 7 2 16 -1 19 -3 4 -6 -2 -5 -13z"/>
<path d="M2719 1543 c-1 -5 -1 -12 0 -16 1 -5 -7 -11 -18 -14 -27 -7 -34 -31
-12 -42 13 -7 24 -6 37 5 12 9 15 17 8 20 -6 3 -9 16 -6 29 2 14 2 25 -2 25
-3 0 -7 -3 -7 -7z"/>
<path d="M301 1531 c-8 -6 -9 -11 -3 -15 6 -3 14 -1 17 5 9 14 2 20 -14 10z"/>
<path d="M600 1527 c0 -9 3 -17 8 -17 4 0 8 -16 10 -36 3 -46 18 -75 37 -68
18 7 8 34 -14 35 -9 0 -11 3 -5 5 8 4 8 14 -1 40 -14 42 -35 66 -35 41z"/>
<path d="M724 1528 c-4 -6 0 -16 8 -22 13 -10 12 -13 -4 -30 -10 -11 -14 -22
-10 -25 5 -3 9 -26 10 -51 0 -25 3 -58 6 -75 3 -16 10 -75 16 -130 6 -55 19
-131 30 -170 38 -135 63 -246 56 -252 -3 -4 -12 -1 -18 5 -7 7 -22 12 -34 12
-13 0 -26 5 -29 11 -11 17 3 23 22 8 17 -13 17 -13 1 7 -10 11 -18 26 -18 33
0 7 -4 9 -10 6 -5 -3 -10 -1 -10 4 0 6 -7 11 -15 11 -19 0 -19 -19 0 -26 24
-10 7 -24 -29 -24 -23 0 -41 9 -61 30 -15 16 -32 27 -37 24 -4 -3 -6 -9 -4
-13 3 -4 -6 -8 -19 -9 -13 -1 -27 3 -30 9 -5 6 -11 5 -18 -5 -7 -8 -25 -16
-41 -18 -27 -3 -32 1 -46 40 -18 49 -49 87 -47 57 4 -35 -21 -25 -31 12 -8 29
-10 32 -11 13 -2 -51 9 -68 41 -66 17 0 33 -5 35 -11 3 -8 -4 -13 -16 -13 -11
0 -22 -4 -25 -9 -3 -4 6 -6 19 -3 32 6 33 -15 3 -29 -22 -9 -22 -9 2 -5 32 7
60 -28 38 -47 -7 -7 -11 -11 -9 -9 2 1 15 -5 27 -13 13 -8 25 -11 28 -6 3 5
-1 11 -9 15 -8 3 -15 14 -15 25 0 11 -6 21 -12 24 -7 2 20 10 60 17 65 12 77
12 108 -3 19 -9 40 -17 46 -17 7 0 30 -9 52 -19 23 -11 79 -29 125 -40 80 -20
146 -56 157 -86 3 -7 1 -30 -5 -50 -8 -31 -8 -35 5 -24 12 10 13 9 9 -4 -4 -8
-1 -18 4 -22 6 -3 9 -11 5 -16 -3 -5 -10 -7 -15 -4 -5 4 -9 1 -9 -5 0 -7 7
-10 15 -6 11 4 15 -1 15 -19 0 -13 -5 -27 -10 -30 -6 -4 -8 -10 -6 -14 3 -4
-6 -18 -19 -29 -14 -12 -25 -19 -26 -14 -3 28 -10 45 -36 76 -15 20 -33 36
-40 36 -16 0 -9 33 8 38 8 3 11 1 7 -3 -8 -9 9 -35 22 -35 4 0 10 6 13 14 4
10 -1 13 -16 10 -12 -2 -16 -2 -9 2 27 13 10 22 -33 17 -29 -3 -45 0 -45 7 0
6 4 9 8 6 4 -2 14 0 22 5 11 7 7 8 -13 5 -30 -5 -77 11 -77 26 0 5 5 6 12 2 6
-4 23 -8 38 -8 21 -1 26 3 22 16 -4 18 -22 20 -34 3 -5 -6 -8 -5 -8 3 0 6 -9
12 -20 12 -11 0 -20 -5 -20 -11 0 -7 -8 -6 -22 4 -13 8 -23 19 -23 25 0 6 -3
14 -7 18 -5 4 -8 11 -8 16 0 4 3 7 8 7 29 -5 34 2 16 20 -19 18 -19 17 -29
-12 -10 -26 -13 -28 -25 -16 -13 13 -22 15 -47 10 -15 -2 17 -24 36 -25 12 0
21 -4 21 -8 1 -16 58 -66 129 -114 88 -58 131 -107 131 -148 0 -21 -3 -26 -12
-18 -10 8 -13 2 -15 -24 -1 -19 3 -32 8 -29 5 3 6 -2 3 -12 -5 -15 -4 -16 5
-3 6 8 11 23 11 32 0 9 9 19 20 23 10 3 31 20 46 38 15 18 31 31 36 30 11 -4
10 10 -1 22 -13 15 -21 96 -9 89 5 -4 5 3 -2 16 -6 12 -9 28 -6 35 2 7 2 16
-2 19 -13 13 -9 35 6 40 26 8 128 6 115 -2 -6 -4 21 -7 59 -8 49 0 72 -5 79
-15 7 -12 9 -11 9 2 0 30 98 41 120 14 9 -11 31 -15 79 -14 36 1 56 4 44 6
-38 7 -26 23 17 23 22 0 40 -4 40 -10 0 -5 12 -10 28 -9 15 0 21 3 14 6 -6 2
-10 9 -7 14 4 5 -68 7 -167 5 -95 -2 -202 -3 -238 -2 -36 0 -101 1 -145 1 -77
-1 -114 12 -101 33 3 5 6 27 7 50 2 23 7 42 11 42 4 0 8 -5 8 -10 0 -6 16 -9
37 -6 l37 4 -22 -19 c-21 -17 -21 -18 -3 -16 11 0 17 5 14 11 -4 5 3 7 15 4
12 -4 22 -1 22 4 0 11 145 5 197 -8 17 -5 23 -2 21 7 -2 10 24 12 121 11 68
-1 126 -4 130 -8 3 -4 1 -4 -6 0 -6 3 -15 1 -18 -5 -5 -7 1 -9 16 -7 14 2 25
11 28 23 2 11 8 24 15 28 6 5 -11 6 -39 4 -27 -3 -51 -9 -52 -14 -2 -6 -23 -7
-51 -2 -26 4 -146 8 -267 9 -200 1 -218 2 -200 16 12 10 32 14 51 11 30 -5 32
-3 56 56 14 34 23 68 20 76 -4 10 -7 11 -10 3 -2 -7 -8 -12 -13 -12 -6 0 -7 5
-3 12 4 7 3 8 -5 4 -9 -6 -9 -12 1 -24 7 -10 8 -14 4 -10 -11 10 -38 -11 -30
-23 3 -5 -6 -9 -20 -9 -14 0 -26 -5 -26 -10 0 -6 10 -8 24 -4 13 3 27 1 30 -5
5 -7 -3 -11 -21 -11 -21 0 -24 -3 -13 -10 12 -7 10 -9 -7 -8 -11 1 -19 7 -16
14 2 6 -3 14 -11 17 -10 4 -13 1 -10 -7 3 -7 -2 -16 -10 -19 -9 -4 -13 -13
-10 -21 3 -8 1 -17 -4 -20 -5 -3 -7 -26 -5 -51 5 -36 2 -46 -12 -51 -9 -4 -20
-1 -25 5 -4 7 -11 13 -16 12 -33 -1 -53 14 -60 42 -3 18 -11 38 -17 45 -5 7
-9 49 -8 94 1 69 -1 79 -13 69 -12 -10 -17 -6 -25 26 -6 21 -14 55 -18 77 -5
34 -4 38 13 34 10 -2 18 -10 16 -17 -3 -15 19 -91 27 -91 3 0 4 27 3 60 -2 33
-7 60 -12 60 -4 0 -6 9 -3 20 7 26 -4 53 -17 45 -8 -5 -8 -11 0 -20 8 -10 7
-14 -2 -18 -11 -4 -10 -6 0 -6 22 -2 2 -21 -21 -21 -13 0 -17 3 -11 8 6 4 9
16 7 27 -9 40 -9 115 0 115 4 0 5 -5 1 -12 -4 -7 -3 -8 4 -4 19 12 14 33 -12
54 -25 19 -26 50 -3 80 6 8 5 12 -4 12 -10 0 -14 14 -15 45 -1 29 3 42 10 38
6 -3 7 -2 3 2 -12 13 -36 15 -43 3z m46 -198 c0 -5 -2 -10 -4 -10 -3 0 -8 5
-11 10 -3 6 -1 10 4 10 6 0 11 -4 11 -10z m60 -344 c0 -3 -4 -8 -10 -11 -5 -3
-10 -1 -10 4 0 6 5 11 10 11 6 0 10 -2 10 -4z m680 -305 c0 -5 -19 -9 -42 -9
-35 1 -39 2 -18 8 35 11 60 12 60 1z"/>
<path d="M882 1528 c-6 -48 -16 -625 -11 -622 17 10 33 210 18 230 -5 5 -7 44
-4 85 10 189 12 319 5 319 -3 0 -7 -6 -8 -12z"/>
<path d="M983 1528 c20 -47 34 -68 44 -68 15 0 1 44 -21 66 -18 17 -30 18 -23
2z"/>
<path d="M460 1504 c0 -8 5 -12 10 -9 6 4 8 11 5 16 -9 14 -15 11 -15 -7z"/>
<path d="M325 1488 c1 -12 8 -24 15 -26 9 -3 11 1 7 12 -4 10 -7 22 -7 27 0 5
-4 9 -8 9 -5 0 -8 -10 -7 -22z"/>
<path d="M543 1494 c3 -4 2 -15 -4 -25 -6 -11 -6 -19 0 -19 5 0 12 -11 15 -25
9 -37 27 -31 23 8 -6 42 -16 67 -30 67 -6 0 -7 -3 -4 -6z"/>
<path d="M1 1474 c0 -11 3 -14 6 -6 3 7 2 16 -1 19 -3 4 -6 -2 -5 -13z"/>
<path d="M940 1470 c0 -11 4 -20 9 -20 5 0 7 9 4 20 -3 11 -7 20 -9 20 -2 0
-4 -9 -4 -20z"/>
<path d="M2910 1483 c0 -5 5 -15 11 -23 9 -13 10 -13 6 2 -3 9 -1 19 6 22 7 2
4 5 -5 5 -10 1 -18 -2 -18 -6z"/>
<path d="M435 1470 c-3 -5 -2 -10 4 -10 5 0 13 5 16 10 3 6 2 10 -4 10 -5 0
-13 -4 -16 -10z"/>
<path d="M489 1478 c-11 -37 3 -118 21 -118 17 0 21 20 6 26 -9 3 -14 10 -11
14 3 5 0 12 -5 15 -7 4 -8 19 -5 36 4 16 4 29 1 29 -3 0 -6 -1 -7 -2z"/>
<path d="M1930 1452 c7 -14 10 -53 7 -98 -2 -41 -2 -74 0 -74 12 0 32 29 24
35 -6 3 -8 29 -6 58 3 41 -1 58 -16 77 -19 24 -20 24 -9 2z"/>
<path d="M840 1430 c0 -16 4 -30 9 -30 4 0 8 13 7 30 -1 39 -16 39 -16 0z"/>
<path d="M2184 1447 c-2 -7 -3 -31 0 -53 3 -39 -14 -81 -27 -67 -4 3 -7 1 -7
-5 0 -7 5 -12 12 -12 6 0 4 -7 -5 -18 -21 -23 -22 -48 -2 -55 19 -8 52 21 60
53 4 17 3 21 -3 12 -8 -11 -10 -11 -15 1 -3 8 0 23 8 33 9 13 10 23 3 31 -7 9
-7 13 1 13 17 0 30 42 19 63 -10 20 -36 23 -44 4z"/>
<path d="M2601 1452 c-1 -7 -5 -11 -10 -8 -5 3 -14 -1 -21 -9 -7 -8 -8 -15 -3
-15 13 0 5 -114 -8 -118 -5 -2 -7 -8 -3 -13 3 -5 -2 -12 -10 -15 -9 -3 -16
-17 -16 -31 0 -17 4 -23 14 -20 7 3 19 0 25 -6 8 -8 11 -7 11 6 0 9 3 16 8 15
4 -2 7 2 7 7 0 6 -3 9 -7 8 -12 -4 -10 16 4 40 7 12 13 29 15 37 12 57 13 88
4 110 -5 14 -10 19 -10 12z"/>
<path d="M2900 1453 c0 -7 5 -15 10 -18 6 -4 8 -11 5 -16 -4 -5 -1 -9 4 -9 15
0 13 11 -4 34 -8 11 -15 15 -15 9z"/>
<path d="M34 1435 c-5 -11 -10 -13 -19 -5 -8 7 -12 5 -12 -5 0 -8 4 -15 9 -15
5 0 6 -6 1 -12 -9 -15 -13 -38 -7 -38 3 0 10 13 15 30 6 16 19 32 30 35 11 4
17 11 14 16 -9 14 -25 11 -31 -6z"/>
<path d="M315 1440 c-3 -5 -1 -10 4 -10 6 0 11 5 11 10 0 6 -2 10 -4 10 -3 0
-8 -4 -11 -10z"/>
<path d="M2349 1442 c-4 -27 -3 -39 6 -51 7 -11 7 -13 -2 -8 -8 5 -10 -4 -6
-32 4 -29 1 -44 -11 -57 -22 -21 -17 -58 8 -62 25 -5 35 13 31 62 -2 23 1 47
7 53 6 7 8 29 6 48 -3 29 -1 35 11 30 13 -5 13 -4 4 6 -15 15 -52 22 -54 11z"/>
<path d="M941 1424 c0 -11 3 -14 6 -6 3 7 2 16 -1 19 -3 4 -6 -2 -5 -13z"/>
<path d="M1020 1429 c0 -6 8 -23 18 -37 25 -38 43 -97 36 -116 -8 -22 -39 -37
-58 -30 -11 4 -13 0 -9 -15 5 -19 9 -17 58 20 l53 40 -25 44 c-13 25 -22 49
-18 54 6 11 -29 51 -45 51 -5 0 -10 -5 -10 -11z"/>
<path d="M1262 1410 c9 -14 14 -16 20 -7 13 20 9 27 -12 27 -18 0 -19 -3 -8
-20z"/>
<path d="M1318 1414 c12 -8 28 -13 35 -11 7 3 5 6 -5 6 -10 1 -18 6 -18 11 0
6 -8 10 -17 10 -14 0 -13 -3 5 -16z"/>
<path d="M140 1407 c0 -4 9 -34 20 -67 11 -33 24 -83 28 -112 5 -33 13 -52 20
-51 11 3 16 -10 13 -29 0 -5 3 -8 7 -8 23 0 99 -210 85 -233 -3 -6 -1 -7 5 -3
7 4 12 3 12 -3 0 -5 -4 -12 -10 -16 -5 -3 -6 -13 -3 -21 5 -13 7 -13 14 -2 13
20 12 -19 -1 -43 -8 -13 -21 -19 -48 -19 l-37 0 -67 203 c-37 111 -72 223 -79
250 -6 26 -15 47 -18 47 -11 0 -51 -40 -51 -51 0 -6 -4 -7 -10 -4 -5 3 -7 0
-4 -8 3 -8 1 -18 -5 -22 -6 -3 -11 -13 -11 -21 0 -20 45 32 54 64 4 12 11 22
16 22 15 0 29 -89 18 -126 -10 -37 -3 -78 12 -69 5 3 12 -7 15 -22 4 -15 17
-49 31 -75 13 -27 24 -55 24 -63 0 -8 5 -24 12 -35 7 -10 10 -22 7 -25 -3 -3
-33 -8 -68 -11 -71 -8 -73 -19 -3 -16 44 2 46 1 28 -13 -11 -8 -27 -15 -35
-15 -13 0 -14 -2 -2 -9 8 -5 21 -7 30 -4 12 4 13 3 5 -6 -13 -14 -65 -29 -81
-24 -7 3 -13 12 -13 22 0 9 -5 22 -12 29 -9 9 -9 12 2 12 13 0 13 2 0 10 -8 5
-21 10 -27 10 -17 0 -17 -27 -1 -32 8 -3 11 -20 9 -46 -1 -23 0 -42 3 -42 3 0
36 10 72 22 62 20 67 20 79 5 14 -20 26 -22 23 -4 -2 6 -11 15 -20 19 -36 15
-9 88 27 74 14 -5 16 -9 7 -18 -7 -7 -12 -21 -12 -31 0 -18 6 -19 82 -13 45 3
86 10 91 15 4 4 -5 41 -21 82 -16 41 -33 90 -37 109 -4 19 -25 73 -45 120 -21
47 -54 128 -74 180 -35 91 -56 134 -56 117z"/>
<path d="M302 1398 c6 -18 25 -21 25 -3 0 8 -7 15 -14 15 -8 0 -13 -5 -11 -12z"/>
<path d="M1202 1393 c-26 -22 -63 -93 -56 -105 9 -15 -6 -59 -17 -52 -8 4 -7
10 0 17 16 16 13 27 -4 21 -8 -4 -15 -12 -15 -20 0 -17 -40 -93 -41 -79 -1 6
-1 13 -1 16 1 8 -55 2 -70 -7 -5 -3 -8 -15 -5 -25 3 -10 1 -22 -5 -25 -5 -4
-6 -18 -2 -33 4 -14 6 -34 6 -43 0 -10 4 -18 9 -18 6 0 7 5 4 10 -3 6 -2 10 4
10 5 0 12 -3 14 -7 7 -11 -19 -33 -28 -25 -4 4 -2 -3 4 -15 14 -27 24 -29 41
-8 11 13 10 21 0 43 -17 36 -21 72 -8 72 6 0 8 3 5 6 -4 4 -14 1 -22 -6 -14
-12 -16 -10 -11 16 2 16 5 33 5 37 1 5 6 5 11 2 6 -4 7 -12 3 -18 -3 -7 2 -4
13 5 18 16 20 15 41 -6 24 -25 21 -36 -9 -36 -26 0 -22 -27 5 -36 32 -9 57
-34 50 -50 -3 -7 2 -20 10 -28 16 -17 10 -22 72 63 14 19 25 43 25 53 0 10 4
18 10 18 5 0 7 7 4 15 -4 8 1 26 10 40 9 13 16 28 16 32 0 4 -5 1 -10 -7 -8
-12 -10 -9 -10 13 0 15 5 27 11 27 5 0 7 6 3 13 -5 8 -2 8 9 -2 27 -21 20 4
-9 36 -14 15 -34 29 -45 29 -22 1 -24 -7 -7 -24 9 -9 9 -12 1 -12 -9 0 -9 -8
-1 -31 9 -25 7 -32 -8 -44 -20 -15 -32 -2 -17 18 7 9 9 59 4 86 -1 2 -8 -2
-16 -9 -22 -18 -19 -9 10 31 14 19 31 34 37 34 6 0 13 6 16 13 5 17 -12 15
-36 -5z m47 -109 c-5 -6 -11 -33 -14 -60 -2 -27 -5 -56 -5 -64 -1 -8 -6 0 -12
19 -6 23 -6 37 1 44 6 6 11 33 11 61 0 45 1 48 14 30 9 -12 11 -23 5 -30z
m-111 -88 c-3 -14 -1 -31 3 -38 7 -10 9 -10 9 0 0 6 5 12 12 12 6 0 4 -8 -6
-19 -10 -11 -13 -20 -7 -22 12 -5 3 -49 -10 -49 -8 0 -13 23 -10 43 1 5 -3 6
-9 2 -6 -3 -10 4 -10 17 0 13 -5 29 -11 35 -7 7 -5 15 6 27 24 23 38 20 33 -8z
m28 -2 c-4 -9 -9 -15 -11 -12 -3 3 -3 13 1 22 4 9 9 15 11 12 3 -3 3 -13 -1
-22z m31 -56 c-7 -5 -8 -8 -1 -8 6 0 11 -7 11 -15 0 -23 -22 -12 -25 13 -2 13
2 22 10 22 10 0 10 2 -1 9 -9 6 -11 16 -6 27 6 16 9 15 16 -11 6 -20 5 -32 -4
-37z m-84 -37 c4 -16 1 -17 -25 -7 -24 9 -26 12 -11 18 27 10 30 9 36 -11z
m67 -26 c0 -8 -5 -15 -11 -15 -5 0 -8 -4 -4 -9 3 -6 -4 -15 -15 -21 -20 -11
-21 -10 -10 10 8 15 8 20 1 16 -6 -4 -11 -2 -11 3 0 6 7 11 15 11 8 0 15 5 15
10 0 6 5 10 10 10 6 0 10 -7 10 -15z"/>
<path d="M775 1387 c-8 -19 -2 -31 13 -26 5 2 6 13 2 24 -7 19 -8 19 -15 2z"/>
<path d="M2910 1392 c0 -7 -4 -11 -9 -8 -11 7 -19 -31 -20 -104 -1 -35 2 -50
7 -42 7 10 11 8 15 -9 4 -14 0 -30 -8 -39 -13 -15 -13 -17 0 -17 8 0 12 4 9 8
-2 4 0 10 4 13 5 3 10 42 10 87 1 44 4 84 6 88 3 4 1 13 -5 21 -6 11 -9 12 -9
2z"/>
<path d="M563 1365 c0 -14 4 -28 10 -32 6 -4 8 0 4 10 -3 9 -2 19 4 22 5 4 7
11 4 16 -11 17 -22 9 -22 -16z"/>
<path d="M624 1352 c-1 -20 1 -29 3 -19 5 18 33 24 33 6 0 -5 -3 -8 -7 -6 -5
3 -16 -6 -26 -18 -9 -13 -13 -26 -8 -30 5 -3 12 -1 16 4 6 11 36 3 48 -13 5
-7 6 -4 3 7 -3 10 -6 27 -6 37 0 16 -40 70 -51 70 -2 0 -5 -17 -5 -38z"/>
<path d="M935 1379 c-4 -6 -5 -12 -2 -15 2 -3 7 2 10 11 7 17 1 20 -8 4z"/>
<path d="M1307 1379 c7 -7 15 -10 18 -7 3 3 -2 9 -12 12 -14 6 -15 5 -6 -5z"/>
<path d="M1395 1372 c8 -29 0 -41 -25 -35 -11 3 -17 9 -14 14 3 5 0 9 -5 9
-14 0 -14 -13 1 -28 8 -8 8 -15 -2 -26 -10 -13 -9 -17 4 -22 9 -3 13 -10 10
-16 -3 -5 1 -17 9 -26 9 -9 16 -21 17 -27 1 -5 6 -9 12 -7 5 1 7 -2 3 -7 -3
-6 -13 -7 -23 -4 -15 6 -15 4 2 -15 22 -25 28 -27 24 -9 -1 6 3 22 10 34 10
18 8 25 -16 51 -30 32 -39 69 -16 69 8 0 14 -7 14 -16 0 -9 4 -22 9 -30 7 -10
12 -10 30 5 24 21 78 27 88 10 8 -12 9 -17 11 -54 1 -15 6 -21 14 -16 8 5 9 2
5 -9 -7 -20 1 -47 15 -47 5 0 6 6 1 13 -4 6 -8 25 -9 41 -1 16 -7 32 -14 36
-7 4 -9 13 -5 20 5 8 13 6 26 -9 11 -12 26 -21 34 -21 7 0 15 -5 17 -12 3 -7
7 -6 11 5 4 12 1 17 -10 17 -9 0 -24 6 -32 14 -9 8 -23 16 -31 18 -8 2 -18 7
-21 12 -10 13 -89 19 -89 7 0 -6 -5 -11 -11 -11 -6 0 -9 9 -6 20 3 11 0 18 -7
17 -6 -1 -11 5 -10 13 1 9 -6 22 -14 29 -12 12 -13 11 -7 -7z m15 -144 c0 -4
-9 1 -20 12 -11 11 -20 23 -20 27 0 3 9 -2 20 -12 11 -10 20 -22 20 -27z"/>
<path d="M1220 1370 c-13 -9 -7 -14 13 -11 4 0 7 -3 7 -9 0 -5 7 -7 15 -4 11
5 14 1 9 -12 -5 -18 -5 -18 10 0 14 17 14 20 -2 32 -20 16 -32 17 -52 4z"/>
<path d="M1305 1350 c-3 -5 -1 -10 4 -10 6 0 11 5 11 10 0 6 -2 10 -4 10 -3 0
-8 -4 -11 -10z"/>
<path d="M33 1335 c-10 -11 -10 -16 -1 -21 7 -4 14 -2 16 4 2 6 10 8 18 5 8
-3 14 -1 14 5 0 5 -7 13 -16 16 -19 7 -16 8 -31 -9z"/>
<path d="M296 1342 c-9 -15 5 -48 24 -60 15 -9 18 -9 15 1 -2 6 -6 24 -9 40
-6 26 -20 35 -30 19z"/>
<path d="M935 1340 c-3 -6 1 -7 9 -4 18 7 21 14 7 14 -6 0 -13 -4 -16 -10z"/>
<path d="M91 1324 c0 -11 3 -14 6 -6 3 7 2 16 -1 19 -3 4 -6 -2 -5 -13z"/>
<path d="M425 1320 c-3 -5 1 -10 9 -10 8 0 18 5 21 10 3 6 -1 10 -9 10 -8 0
-18 -4 -21 -10z"/>
<path d="M7 1303 c-12 -12 -7 -22 8 -17 8 4 15 10 15 15 0 11 -14 12 -23 2z"/>
<path d="M500 1299 c0 -5 5 -7 10 -4 6 3 10 8 10 11 0 2 -4 4 -10 4 -5 0 -10
-5 -10 -11z"/>
<path d="M915 1299 c-13 -20 -12 -74 1 -84 16 -12 32 -81 28 -118 -1 -15 2
-27 8 -27 7 0 7 -4 -1 -14 -14 -17 -11 -70 4 -55 5 5 11 54 12 108 2 91 1 101
-20 123 -18 19 -21 31 -16 51 7 27 -4 37 -16 16z"/>
<path d="M300 1266 c0 -9 -3 -16 -7 -16 -7 0 -9 -79 -4 -129 2 -22 14 -4 17
26 2 16 5 40 8 55 2 16 0 31 -5 34 -6 4 -6 11 1 19 8 9 8 15 0 20 -5 3 -10 -1
-10 -9z"/>
<path d="M627 1274 c-3 -4 -2 -15 4 -26 6 -11 8 -26 5 -34 -3 -8 -1 -14 4 -14
6 0 9 -6 8 -12 -2 -7 4 -12 12 -10 11 2 10 -2 -4 -12 -17 -14 -17 -16 10 -43
16 -15 30 -38 31 -50 2 -27 -12 -31 -21 -7 -4 9 -9 14 -13 11 -3 -4 1 -17 10
-30 12 -19 13 -27 4 -38 -7 -7 -3 -6 8 2 32 25 45 31 45 20 0 -6 -7 -11 -16
-11 -12 0 -15 -6 -9 -22 4 -13 8 -43 9 -67 2 -29 8 -46 20 -53 10 -5 20 -7 23
-4 3 3 12 -2 20 -12 13 -15 13 -15 7 8 -9 33 -11 35 -28 21 -11 -9 -15 -8 -19
3 -4 9 1 20 11 25 16 10 16 10 0 11 -10 0 -18 6 -18 14 0 9 7 12 20 9 11 -3
20 -1 20 3 0 12 -67 231 -81 267 -6 15 -16 27 -21 27 -6 0 -8 7 -4 15 5 15
-24 22 -37 9z"/>
<path d="M1440 1265 c-8 -10 -9 -15 -1 -15 6 0 13 -11 17 -25 3 -14 11 -22 17
-18 7 4 8 0 3 -13 -4 -10 -4 -15 0 -12 8 9 34 -16 34 -33 0 -21 15 1 16 24 1
12 2 27 4 32 5 21 0 46 -10 40 -5 -3 -7 -13 -4 -23 3 -9 -1 -7 -8 6 -8 12 -17
20 -21 16 -4 -4 -1 -14 6 -22 10 -13 9 -14 -10 -3 -28 14 -28 20 -5 38 16 13
15 13 -7 7 -16 -4 -21 -3 -17 5 10 16 0 13 -14 -4z"/>
<path d="M449 1263 c-4 -44 -2 -73 5 -73 4 0 6 -9 3 -20 -3 -12 -1 -18 5 -14
6 4 8 -1 3 -15 -4 -14 1 -34 16 -58 19 -30 20 -36 6 -30 -9 3 -17 2 -17 -3 0
-6 6 -10 13 -10 8 0 7 -4 -3 -10 -8 -5 -10 -10 -4 -10 36 0 41 61 9 94 -8 8
-11 17 -7 20 11 6 3 64 -9 72 -14 8 -11 26 4 18 9 -5 9 -4 0 6 -6 7 -9 19 -6
26 3 8 0 14 -6 14 -6 0 -11 -3 -12 -7z"/>
<path d="M1309 1243 c-13 -16 -12 -17 3 -5 9 8 23 10 29 6 8 -4 9 -3 5 4 -10
17 -21 15 -37 -5z"/>
<path d="M536 1222 c-3 -5 1 -9 9 -9 8 0 15 4 15 9 0 4 -4 8 -9 8 -6 0 -12 -4
-15 -8z"/>
<path d="M380 1206 c0 -2 8 -10 18 -17 15 -13 16 -12 3 4 -13 16 -21 21 -21
13z"/>
<path d="M1434 1203 c4 -7 2 -13 -4 -13 -7 0 -6 -5 2 -14 8 -9 17 -11 23 -5 6
6 2 16 -9 27 -11 9 -16 11 -12 5z"/>
<path d="M1590 1200 c0 -5 4 -10 8 -10 4 0 16 -14 26 -30 9 -17 21 -28 26 -25
5 3 11 1 14 -3 3 -5 23 -8 44 -8 28 1 38 -2 35 -11 -3 -7 0 -13 6 -13 6 0 11
5 11 10 0 6 5 10 11 10 5 0 7 -5 3 -11 -4 -7 1 -10 11 -7 10 1 20 9 23 17 3 8
0 11 -6 7 -6 -3 -20 3 -30 15 -12 12 -22 16 -26 10 -4 -6 -16 -5 -33 4 -15 8
-30 12 -35 9 -4 -3 -8 0 -8 6 0 6 -4 8 -10 5 -5 -3 -20 3 -32 14 -24 23 -38
27 -38 11z m70 -44 c0 -3 -4 -8 -10 -11 -5 -3 -10 -1 -10 4 0 6 5 11 10 11 6
0 10 -2 10 -4z"/>
<path d="M146 1191 c-4 -7 -5 -15 -2 -18 9 -9 19 4 14 18 -4 11 -6 11 -12 0z"/>
<path d="M540 1190 c-9 -6 -10 -10 -3 -10 6 0 15 5 18 10 8 12 4 12 -15 0z"/>
<path d="M1298 1175 c-7 -35 -4 -40 14 -29 18 11 40 11 56 0 15 -11 27 -2 17
14 -4 6 -17 10 -28 9 -38 -2 -45 0 -49 19 -3 11 -6 7 -10 -13z"/>
<path d="M1735 1190 c3 -5 8 -10 11 -10 2 0 4 5 4 10 0 6 -5 10 -11 10 -5 0
-7 -4 -4 -10z"/>
<path d="M2945 1170 c-7 -12 -8 -11 28 -14 30 -2 36 8 11 18 -22 8 -32 8 -39
-4z"/>
<path d="M2840 1150 c0 -5 5 -10 11 -10 5 0 7 5 4 10 -3 6 -8 10 -11 10 -2 0
-4 -4 -4 -10z"/>
<path d="M400 1141 c0 -6 4 -13 10 -16 6 -3 7 1 4 9 -7 18 -14 21 -14 7z"/>
<path d="M540 1139 c0 -5 5 -7 10 -4 6 3 10 8 10 11 0 2 -4 4 -10 4 -5 0 -10
-5 -10 -11z"/>
<path d="M587 1143 c-11 -11 -8 -43 4 -43 6 0 9 -7 6 -15 -4 -8 -2 -17 3 -20
6 -4 10 5 10 19 0 14 -5 26 -11 26 -6 0 -8 9 -4 20 6 20 4 25 -8 13z"/>
<path d="M1395 1133 c-4 -13 -12 -23 -18 -23 -6 0 -8 -3 -4 -6 7 -7 -29 -44
-43 -44 -5 0 -10 -4 -10 -9 0 -5 -3 -18 -7 -28 -6 -16 -5 -16 10 -4 9 7 14 17
11 22 -3 5 0 9 5 9 15 0 14 -12 -4 -36 -8 -12 -11 -25 -7 -30 4 -5 0 -3 -9 4
-9 6 -19 10 -22 7 -4 -3 -5 -3 -3 0 2 3 -2 22 -10 43 -8 24 -18 36 -28 34 -19
-3 -22 14 -4 20 7 3 8 7 3 10 -6 3 -19 -6 -29 -20 -11 -14 -15 -22 -9 -19 6 4
13 0 17 -8 5 -13 -4 -19 -25 -17 -3 0 -10 -8 -17 -18 -10 -17 -10 -18 15 -5
25 13 29 12 54 -11 64 -60 70 -65 68 -52 -2 13 10 49 20 58 16 14 63 120 58
132 -4 9 -8 6 -12 -9z m-15 -57 c0 -2 -8 -10 -17 -17 -16 -13 -17 -12 -4 4 13
16 21 21 21 13z m-113 -38 c-3 -7 -5 -2 -5 12 0 14 2 19 5 13 2 -7 2 -19 0
-25z"/>
<path d="M1530 1130 c0 -3 5 -12 10 -20 8 -13 10 -13 10 2 0 9 6 18 13 21 6 3
2 4 -10 4 -13 -1 -23 -4 -23 -7z"/>
<path d="M1950 1130 c20 -13 40 -13 40 0 0 6 -12 10 -27 10 -22 0 -25 -2 -13
-10z"/>
<path d="M2796 1128 c3 -5 10 -6 15 -3 13 9 11 12 -6 12 -8 0 -12 -4 -9 -9z"/>
<path d="M1283 1114 c-8 -8 -9 -15 -3 -19 6 -3 10 -1 10 4 0 15 33 14 48 -1 6
-6 15 -9 19 -5 10 11 -12 29 -39 32 -13 2 -29 -3 -35 -11z"/>
<path d="M544 1106 c1 -8 5 -18 8 -22 4 -3 5 1 4 10 -1 8 -5 18 -8 22 -4 3 -5
-1 -4 -10z"/>
<path d="M2661 1111 c-9 -6 -7 -10 8 -14 12 -3 21 -1 21 3 0 14 -15 19 -29 11z"/>
<path d="M235 1095 c4 -11 14 -59 23 -107 9 -49 20 -88 23 -88 17 0 -19 168
-42 200 -9 12 -10 11 -4 -5z"/>
<path d="M394 1089 c1 -14 5 -30 9 -36 4 -7 5 -24 3 -38 -3 -14 -1 -23 4 -20
11 7 4 95 -9 108 -7 7 -9 2 -7 -14z"/>
<path d="M1815 1100 c-6 -10 53 -45 62 -36 3 3 3 12 -1 21 -4 11 -13 14 -33 9
-22 -4 -25 -3 -13 5 9 7 10 11 3 11 -6 0 -14 -4 -18 -10z"/>
<path d="M660 1096 c0 -2 7 -7 16 -10 8 -3 12 -2 9 4 -6 10 -25 14 -25 6z"/>
<path d="M1296 1085 c-3 -9 0 -15 9 -15 16 0 20 16 6 24 -5 3 -11 -1 -15 -9z"/>
<path d="M2812 1080 c0 -14 2 -19 5 -12 2 6 2 18 0 25 -3 6 -5 1 -5 -13z"/>
<path d="M1040 1073 c0 -5 7 -17 15 -27 8 -10 12 -23 9 -27 -3 -5 0 -17 5 -26
9 -16 10 -14 11 9 0 14 3 35 6 45 5 15 4 16 -5 3 -9 -13 -12 -12 -17 8 -6 20
-24 32 -24 15z"/>
<path d="M1644 1065 c-4 -8 -1 -28 4 -43 6 -15 13 -38 14 -52 l3 -25 14 24
c10 18 10 25 1 31 -7 4 -10 12 -6 18 3 6 0 13 -6 15 -8 3 -6 6 5 6 23 1 22 13
-3 29 -17 10 -21 10 -26 -3z"/>
<path d="M2120 1070 c20 -13 43 -13 35 0 -3 6 -16 10 -28 10 -18 0 -19 -2 -7
-10z"/>
<path d="M0 1062 c0 -5 7 -13 16 -16 10 -4 14 -1 12 6 -5 15 -28 23 -28 10z"/>
<path d="M340 1054 c0 -8 5 -12 10 -9 6 3 10 10 10 16 0 5 -4 9 -10 9 -5 0
-10 -7 -10 -16z"/>
<path d="M2184 1056 c11 -9 24 -16 30 -16 12 0 7 5 -24 19 -24 11 -24 11 -6
-3z"/>
<path d="M1910 1045 c7 -8 16 -12 21 -9 5 3 9 0 9 -6 0 -7 7 -9 17 -6 9 4 20
1 25 -6 6 -9 8 -7 5 7 -2 11 -9 19 -17 17 -7 -2 -26 2 -43 7 -25 9 -28 9 -17
-4z"/>
<path d="M2040 1035 c-8 -9 -8 -15 -2 -15 12 0 26 19 19 26 -2 2 -10 -2 -17
-11z"/>
<path d="M1690 1021 c0 -17 6 -21 35 -21 33 0 136 -23 155 -35 6 -3 10 3 10
14 0 12 -7 21 -15 21 -8 0 -15 6 -15 13 0 9 -3 8 -9 -2 -5 -8 -14 -10 -21 -6
-13 8 -63 22 -112 31 -23 4 -28 2 -28 -15z"/>
<path d="M2000 1026 c0 -9 5 -16 10 -16 6 0 10 4 10 9 0 6 -4 13 -10 16 -5 3
-10 -1 -10 -9z"/>
<path d="M2368 1033 c7 -3 16 -2 19 1 4 3 -2 6 -13 5 -11 0 -14 -3 -6 -6z"/>
<path d="M2543 1019 c-2 -23 3 -25 10 -4 4 8 3 16 -1 19 -4 3 -9 -4 -9 -15z"/>
<path d="M2090 1015 c0 -8 5 -15 10 -15 6 0 10 7 10 15 0 8 -4 15 -10 15 -5 0
-10 -7 -10 -15z"/>
<path d="M2127 1023 c-13 -12 -7 -35 7 -30 8 3 17 3 21 -1 10 -10 105 -8 102
2 -2 5 -21 11 -43 12 -66 6 -69 7 -75 16 -3 4 -8 5 -12 1z"/>
<path d="M2463 1018 c-13 -6 -23 -15 -23 -20 0 -5 5 -6 10 -3 6 3 10 0 10 -7
0 -8 3 -9 8 -3 13 18 34 16 39 -5 8 -31 24 -24 17 8 -12 47 -19 50 -61 30z"/>
<path d="M345 1011 c-3 -5 -2 -12 3 -15 5 -3 9 1 9 9 0 17 -3 19 -12 6z"/>
<path d="M560 1010 c0 -5 4 -10 9 -10 6 0 13 5 16 10 3 6 -1 10 -9 10 -9 0
-16 -4 -16 -10z"/>
<path d="M1205 991 c-8 -21 -2 -22 25 -1 25 19 25 19 3 17 -12 0 -25 -8 -28
-16z"/>
<path d="M485 983 c-12 -9 -14 -13 -5 -11 8 3 20 -2 27 -11 11 -14 12 -14 13
-1 0 30 -14 39 -35 23z"/>
<path d="M962 975 c-25 -17 -29 -24 -18 -28 9 -4 15 -2 13 2 -1 5 3 8 8 8 11
-2 12 -31 1 -67 -7 -23 -6 -23 13 5 24 34 26 55 9 75 -11 12 -10 12 4 2 19
-15 34 1 15 16 -8 7 -22 3 -45 -13z"/>
<path d="M1902 978 c2 -13 9 -22 15 -21 7 2 29 -9 49 -22 29 -20 39 -23 46
-13 6 10 8 9 8 -4 0 -23 40 -34 160 -43 41 -3 89 -8 107 -11 18 -2 42 1 53 8
18 11 23 10 36 -6 16 -22 19 -14 5 12 -8 15 -24 18 -106 17 -67 -1 -99 3 -102
11 -3 9 -13 10 -36 3 -25 -7 -33 -6 -40 7 -7 13 -11 14 -17 3 -7 -10 -12 -10
-23 -1 -7 7 -17 9 -20 5 -4 -3 -10 2 -13 11 -5 14 -9 15 -15 4 -6 -9 -11 -10
-16 -2 -5 6 -16 13 -25 17 -10 3 -16 12 -14 19 1 7 1 10 -1 6 -8 -14 -33 -8
-33 7 0 8 -5 15 -11 15 -6 0 -9 -10 -7 -22z"/>
<path d="M560 981 c0 -5 6 -14 14 -20 12 -10 13 -8 9 8 -5 21 -23 30 -23 12z"/>
<path d="M1990 980 c0 -5 4 -10 9 -10 6 0 13 5 16 10 3 6 -1 10 -9 10 -9 0
-16 -4 -16 -10z"/>
<path d="M1035 966 c-11 -6 -21 -17 -23 -24 -1 -9 6 -7 22 5 14 10 26 21 26
26 0 8 1 8 -25 -7z"/>
<path d="M1620 971 c0 -6 5 -13 10 -16 6 -3 10 1 10 9 0 9 -4 16 -10 16 -5 0
-10 -4 -10 -9z"/>
<path d="M2050 970 c0 -5 7 -10 16 -10 8 0 12 5 9 10 -3 6 -10 10 -16 10 -5 0
-9 -4 -9 -10z"/>
<path d="M1698 963 c7 -3 16 -2 19 1 4 3 -2 6 -13 5 -11 0 -14 -3 -6 -6z"/>
<path d="M1787 941 c-2 -11 0 -24 5 -29 7 -7 -1 -12 -21 -17 -17 -3 -33 -11
-36 -16 -4 -5 1 -6 10 -2 10 3 20 0 24 -6 11 -18 41 32 36 59 -6 31 -12 34
-18 11z"/>
<path d="M2270 951 c0 -6 4 -13 10 -16 6 -3 7 1 4 9 -7 18 -14 21 -14 7z"/>
<path d="M100 936 c0 -2 7 -6 15 -10 8 -3 15 -1 15 4 0 6 -7 10 -15 10 -8 0
-15 -2 -15 -4z"/>
<path d="M500 930 c0 -5 10 -14 22 -21 18 -10 20 -9 15 6 -4 9 -7 19 -7 21 0
2 -7 4 -15 4 -8 0 -15 -4 -15 -10z"/>
<path d="M1750 925 c-7 -9 -8 -15 -2 -15 5 0 12 7 16 15 3 8 4 15 2 15 -2 0
-9 -7 -16 -15z"/>
<path d="M70 919 c0 -5 5 -7 10 -4 6 3 10 8 10 11 0 2 -4 4 -10 4 -5 0 -10 -5
-10 -11z"/>
<path d="M440 920 c0 -5 4 -10 9 -10 6 0 13 5 16 10 3 6 -1 10 -9 10 -9 0 -16
-4 -16 -10z"/>
<path d="M1125 921 c-3 -5 -1 -12 5 -16 5 -3 10 1 10 9 0 18 -6 21 -15 7z"/>
<path d="M1715 919 c-4 -6 -5 -12 -2 -15 2 -3 7 2 10 11 7 17 1 20 -8 4z"/>
<path d="M2210 920 c-9 -6 -10 -10 -3 -10 6 0 15 5 18 10 8 12 4 12 -15 0z"/>
<path d="M1850 904 c0 -11 -5 -25 -11 -31 -7 -7 -3 -12 15 -15 30 -6 35 15 11
46 -15 20 -15 20 -15 0z"/>
<path d="M610 895 c7 -8 16 -15 21 -15 5 0 9 7 9 15 0 9 -9 15 -21 15 -18 0
-19 -2 -9 -15z"/>
<path d="M1666 901 c-3 -5 3 -11 15 -14 16 -4 18 -3 8 9 -13 16 -16 17 -23 5z"/>
<path d="M1926 894 c-4 -9 -4 -19 -1 -22 2 -3 7 3 11 12 4 9 4 19 1 22 -2 3
-7 -3 -11 -12z"/>
<path d="M100 880 l-25 -8 28 -1 c15 -1 27 4 27 9 0 6 -1 10 -2 9 -2 -1 -14
-5 -28 -9z"/>
<path d="M1931 869 c-21 -17 -20 -24 2 -20 12 2 8 -17 -5 -22 -7 -2 -9 -8 -5
-13 7 -7 22 7 30 29 1 5 17 9 35 9 34 1 40 23 6 23 -10 0 -24 3 -29 7 -6 3
-21 -2 -34 -13z"/>
<path d="M1130 871 c0 -7 -5 -9 -12 -5 -7 5 -8 3 -3 -5 5 -9 10 -10 18 -2 6 6
8 14 4 18 -4 3 -7 1 -7 -6z"/>
<path d="M1800 864 c0 -8 5 -12 10 -9 6 4 8 11 5 16 -9 14 -15 11 -15 -7z"/>
<path d="M2040 847 c0 -8 10 -22 21 -33 15 -13 20 -14 15 -4 -3 8 -9 23 -12
33 -7 20 -24 23 -24 4z"/>
<path d="M257 832 c1 -8 3 -16 3 -18 0 -3 5 -2 10 1 6 3 10 11 10 16 0 6 -4 8
-9 5 -5 -4 -11 -3 -14 1 -2 5 -2 2 0 -5z"/>
<path d="M1967 820 c-16 -19 -16 -20 6 -21 12 0 32 -2 44 -3 13 -2 19 2 16 10
-6 17 -33 26 -34 11 0 -7 -4 -4 -7 6 -7 16 -9 16 -25 -3z"/>
<path d="M2160 826 c0 -9 -4 -16 -10 -16 -5 0 -10 5 -10 12 0 9 -3 9 -11 1 -6
-6 -19 -9 -28 -6 -12 3 -12 2 2 -7 17 -11 17 -13 2 -37 -13 -20 -14 -28 -4
-37 9 -8 11 -7 6 6 -6 18 15 42 27 31 4 -4 4 1 0 11 -6 16 -4 17 14 7 27 -14
39 -14 24 1 -8 8 -8 15 -1 24 7 8 7 14 -1 19 -5 3 -10 -1 -10 -9z"/>
<path d="M2360 829 c0 -5 -4 -7 -10 -4 -6 3 -7 -1 -4 -9 9 -22 19 -20 21 4 1
11 0 20 -3 20 -2 0 -4 -5 -4 -11z"/>
<path d="M2945 818 c4 -22 2 -26 -10 -22 -10 4 -15 0 -15 -11 0 -12 6 -16 19
-12 15 4 22 -4 35 -37 8 -22 17 -54 19 -71 3 -22 4 -18 5 15 2 32 -7 62 -28
105 -17 34 -28 48 -25 33z"/>
<path d="M1817 816 c-4 -11 -1 -13 10 -9 12 5 14 3 8 -8 -6 -11 -5 -11 5 -2 7
6 9 16 6 22 -10 15 -23 14 -29 -3z"/>
<path d="M514 803 c5 -9 1 -13 -10 -13 -15 0 -16 -2 -5 -12 15 -15 63 -17 73
-3 13 17 9 22 -14 21 -13 -1 -29 3 -37 8 -11 8 -13 8 -7 -1z m16 -23 c0 -5 -5
-10 -11 -10 -5 0 -7 5 -4 10 3 6 8 10 11 10 2 0 4 -4 4 -10z"/>
<path d="M2190 801 c0 -21 20 -61 30 -61 6 0 9 4 6 9 -3 5 1 14 9 21 8 7 15
17 15 23 0 6 -7 2 -15 -9 -8 -10 -15 -14 -14 -9 3 24 -2 35 -16 35 -8 0 -15
-4 -15 -9z"/>
<path d="M398 793 c7 -3 16 -2 19 1 4 3 -2 6 -13 5 -11 0 -14 -3 -6 -6z"/>
<path d="M596 789 c2 -4 -2 -9 -8 -12 -10 -3 -10 -8 1 -18 12 -12 13 -12 6 0
-6 11 -2 13 18 9 22 -4 24 -2 15 12 -6 9 -17 17 -24 17 -7 0 -11 -4 -8 -8z"/>
<path d="M1360 790 c-23 -7 -23 -8 -3 -9 12 -1 25 4 28 9 3 6 5 10 3 9 -2 -1
-14 -5 -28 -9z"/>
<path d="M1887 789 c7 -7 15 -10 18 -7 3 3 -2 9 -12 12 -14 6 -15 5 -6 -5z"/>
<path d="M2380 786 c0 -8 7 -16 15 -20 8 -3 15 -15 15 -28 0 -14 3 -19 10 -12
13 13 -10 74 -27 74 -7 0 -13 -6 -13 -14z"/>
<path d="M675 780 c3 -5 11 -10 16 -10 6 0 7 5 4 10 -3 6 -11 10 -16 10 -6 0
-7 -4 -4 -10z"/>
<path d="M1131 786 c2 -2 20 -6 39 -10 25 -4 31 -3 20 4 -14 9 -69 15 -59 6z"/>
<path d="M1758 773 c7 -3 16 -2 19 1 4 3 -2 6 -13 5 -11 0 -14 -3 -6 -6z"/>
<path d="M1926 773 c-11 -11 -7 -20 9 -20 8 0 15 4 15 8 0 11 -16 20 -24 12z"/>
<path d="M2267 773 c-12 -11 -8 -19 17 -31 20 -9 25 -8 29 8 3 13 1 17 -10 13
-8 -3 -18 -1 -22 6 -4 6 -10 8 -14 4z"/>
<path d="M234 759 c-4 -7 -3 -9 4 -5 6 3 13 2 17 -4 3 -5 0 -10 -7 -11 -7 0
-22 -3 -33 -5 -11 -3 -28 -6 -37 -8 -41 -6 -27 -15 20 -13 27 1 48 6 44 11 -3
5 2 6 12 3 11 -5 15 -3 10 5 -5 8 -2 9 10 5 13 -5 17 -2 14 11 -4 20 -43 28
-54 11z"/>
<path d="M650 759 c0 -7 -9 -9 -21 -6 -15 4 -19 3 -11 -5 11 -11 52 -2 52 13
0 5 -4 9 -10 9 -5 0 -10 -5 -10 -11z"/>
<path d="M1620 761 c0 -6 -21 -12 -47 -14 -48 -3 -48 -3 9 -5 47 -2 56 1 52
13 -7 17 -14 20 -14 6z"/>
<path d="M767 740 c-3 -11 -1 -20 4 -20 5 0 9 9 9 20 0 11 -2 20 -4 20 -2 0
-6 -9 -9 -20z"/>
<path d="M1843 753 c-13 -2 -23 -8 -23 -13 0 -10 38 -1 46 11 3 5 4 8 2 8 -2
-1 -13 -4 -25 -6z"/>
<path d="M1965 750 c-9 -15 -6 -17 30 -26 17 -4 28 -5 25 -3 -3 2 -15 12 -27
22 -15 13 -23 15 -28 7z"/>
<path d="M2752 753 c-7 -3 -16 -13 -22 -22 -8 -15 -6 -17 16 -13 13 2 26 7 28
11 8 12 -8 28 -22 24z"/>
<path d="M373 743 c9 -2 17 -9 17 -15 0 -6 -9 -8 -22 -3 -55 16 -72 15 -33 -3
45 -22 65 -19 65 9 0 13 -7 19 -22 18 -17 -1 -19 -2 -5 -6z"/>
<path d="M413 731 c-1 -14 5 -16 28 -13 33 5 40 27 9 29 -13 1 -18 -2 -13 -10
5 -9 3 -9 -8 0 -12 10 -15 9 -16 -6z"/>
<path d="M1158 743 c6 -2 18 -2 25 0 6 3 1 5 -13 5 -14 0 -19 -2 -12 -5z"/>
<path d="M1744 731 c20 -22 36 -27 36 -13 0 5 -12 14 -27 21 -28 13 -28 13 -9
-8z"/>
<path d="M1290 733 c14 -3 32 -10 40 -16 13 -11 13 -10 1 6 -7 9 -25 16 -40
16 l-26 -2 25 -4z"/>
<path d="M1373 733 c15 -2 37 -2 50 0 12 2 0 4 -28 4 -27 0 -38 -2 -22 -4z"/>
<path d="M1891 726 c-7 -8 -1 -16 19 -28 37 -21 44 -10 14 19 -17 16 -25 18
-33 9z"/>
<path d="M2816 724 c-10 -26 -7 -41 9 -41 8 0 15 7 15 14 0 8 -4 11 -10 8 -14
-9 -13 8 2 23 8 8 8 12 1 12 -6 0 -14 -7 -17 -16z"/>
<path d="M102 714 c10 -10 20 -16 22 -13 3 3 -5 11 -17 18 -21 13 -21 12 -5
-5z"/>
<path d="M1050 720 c8 -5 22 -9 30 -9 10 0 8 3 -5 9 -27 12 -43 12 -25 0z"/>
<path d="M1113 723 c9 -2 25 -2 35 0 9 3 1 5 -18 5 -19 0 -27 -2 -17 -5z"/>
<path d="M57 702 c3 -12 9 -25 14 -28 14 -8 11 10 -6 32 -13 18 -14 18 -8 -4z"/>
<path d="M580 715 c0 -7 30 -13 34 -7 3 4 -4 9 -15 9 -10 1 -19 0 -19 -2z"/>
<path d="M1408 713 c7 -3 16 -2 19 1 4 3 -2 6 -13 5 -11 0 -14 -3 -6 -6z"/>
<path d="M2053 713 c4 -3 2 -12 -4 -20 -9 -10 -8 -13 3 -13 7 0 14 9 15 20 1
11 -3 20 -9 20 -6 0 -8 -3 -5 -7z"/>
<path d="M2312 695 c-26 -30 -27 -34 -5 -31 9 2 20 15 24 29 9 33 8 33 -19 2z"/>
<path d="M280 700 c0 -5 -7 -10 -17 -10 -9 0 -14 -3 -10 -6 3 -4 14 -3 24 1
10 5 22 7 26 6 5 -1 6 3 2 9 -8 13 -25 13 -25 0z"/>
<path d="M748 698 c-7 -4 -8 -8 -3 -9 6 0 20 -2 33 -3 12 -2 27 3 32 9 11 13
-42 16 -62 3z"/>
<path d="M920 700 c0 -5 5 -10 10 -10 6 0 10 5 10 10 0 6 -4 10 -10 10 -5 0
-10 -4 -10 -10z"/>
<path d="M1198 703 c7 -3 16 -2 19 1 4 3 -2 6 -13 5 -11 0 -14 -3 -6 -6z"/>
<path d="M2359 701 c0 -3 -2 -17 -5 -29 -4 -23 -4 -23 26 5 16 15 30 29 30 29
0 5 -50 0 -51 -5z"/>
<path d="M36 688 c3 -10 1 -18 -4 -18 -6 0 -10 -8 -9 -18 0 -10 7 -19 14 -19
17 0 17 17 1 18 -7 0 -5 4 5 7 16 7 16 9 2 27 -12 16 -14 17 -9 3z"/>
<path d="M90 688 c0 -9 5 -20 10 -23 6 -4 7 -12 4 -18 -5 -8 -3 -8 7 1 16 15
33 16 23 0 -4 -7 -3 -8 5 -4 9 6 9 11 -1 23 -9 11 -13 12 -16 3 -3 -8 -10 -4
-18 11 -10 18 -13 20 -14 7z"/>
<path d="M173 676 c-1 -12 1 -15 4 -8 3 6 8 10 12 8 4 -3 8 1 8 8 0 22 -23 14
-24 -8z"/>
<path d="M435 690 c-4 -6 -10 -8 -14 -5 -5 2 -31 -4 -58 -14 -28 -10 -68 -22
-89 -26 -21 -5 -46 -10 -54 -11 -8 -2 -31 -5 -52 -6 -20 -2 -34 -7 -31 -12 3
-5 -6 -7 -21 -4 -14 3 -29 1 -33 -5 -3 -6 -1 -7 5 -3 8 5 12 -1 13 -16 0 -16
2 -19 7 -8 5 10 25 16 65 17 31 2 67 7 78 14 19 10 20 9 9 -10 -6 -12 -16 -21
-22 -21 -6 0 -5 -6 3 -16 12 -15 14 -13 22 15 4 18 12 29 17 26 6 -4 7 1 3 11
-4 12 -3 15 5 10 6 -4 23 1 37 10 30 20 47 10 19 -11 -14 -11 -14 -13 -3 -9
16 5 49 -19 49 -37 0 -20 -2 -24 -12 -21 -5 1 -7 -2 -3 -8 10 -16 -11 -12 -26
6 -8 10 -21 13 -37 9 -17 -4 -22 -2 -16 6 4 8 3 9 -5 5 -6 -4 -9 -12 -6 -17 4
-5 1 -9 -6 -9 -6 0 -9 -8 -6 -20 3 -12 -1 -23 -10 -29 -9 -4 -17 -20 -18 -35
-2 -15 -7 -31 -11 -34 -4 -4 -4 1 -1 11 5 12 1 17 -11 17 -10 0 -23 5 -29 11
-5 5 -30 12 -54 15 -58 5 -72 8 -86 17 -7 5 -17 6 -22 2 -5 -3 -11 3 -13 12
-3 16 -4 16 -9 -2 -3 -11 -2 -29 2 -40 7 -18 8 -18 8 -2 1 15 4 16 23 6 12 -7
34 -12 48 -13 19 -1 26 -7 29 -26 1 -14 8 -28 14 -32 6 -3 12 -17 14 -29 2
-13 4 -23 6 -24 67 -44 96 -68 92 -75 -3 -5 3 -14 14 -20 14 -7 22 -7 27 2 5
7 3 8 -6 3 -9 -5 -11 -4 -6 4 4 6 12 9 17 5 5 -3 7 -9 4 -14 -3 -5 -1 -11 5
-15 5 -3 10 -1 10 5 0 8 6 8 20 0 18 -10 19 -13 5 -26 -8 -8 -20 -12 -26 -8
-7 4 -9 3 -6 -3 11 -17 50 -24 43 -8 -3 9 0 12 10 8 10 -4 12 0 7 13 -6 17 -5
17 9 6 14 -11 18 -10 29 10 11 20 10 22 -3 10 -22 -17 -67 3 -61 27 2 10 -3
23 -11 30 -18 15 -20 8 -6 -20 8 -13 7 -19 -1 -19 -6 0 -13 9 -16 21 -4 16 -8
17 -14 7 -6 -9 -9 -7 -9 9 0 12 -5 25 -11 29 -8 4 -9 -4 -5 -27 3 -19 3 -27 0
-19 -11 27 -57 69 -67 63 -6 -4 -8 0 -4 11 4 10 7 21 7 24 0 4 5 0 11 -8 9
-13 10 -13 6 0 -2 8 -10 14 -17 12 -7 -2 -9 5 -5 20 5 18 4 20 -4 8 -6 -8 -8
-22 -5 -32 2 -9 1 -19 -4 -22 -10 -6 -57 102 -48 111 3 3 8 -2 12 -11 3 -9 10
-13 15 -10 5 3 9 -5 9 -17 0 -21 1 -21 18 -6 25 23 35 21 27 -5 -5 -18 -4 -20
4 -8 9 13 11 13 11 1 0 -11 4 -10 14 4 16 23 53 29 69 13 7 -7 19 -26 27 -41
8 -16 16 -24 18 -18 5 15 32 -6 32 -25 0 -7 9 -16 21 -19 11 -4 18 -9 15 -12
-3 -4 -1 -12 6 -20 8 -10 8 -17 0 -25 -17 -17 -15 -28 4 -28 9 0 12 -5 8 -12
-5 -9 -2 -8 10 1 13 11 20 11 28 3 7 -7 10 -12 8 -13 -3 0 -14 -3 -25 -5 -11
-3 -28 -6 -37 -8 -10 -1 -21 -6 -25 -11 -5 -4 -3 -5 3 -2 7 4 17 1 23 -7 9
-11 9 -15 -1 -20 -7 -3 -4 -4 8 -1 13 4 21 0 21 -9 0 -7 -10 -13 -21 -13 -12
1 -32 -2 -46 -6 -25 -8 -25 -8 -2 6 20 12 21 15 8 32 -15 19 -15 19 -9 -3 3
-13 1 -22 -6 -22 -6 0 -11 5 -11 10 0 6 -3 9 -7 9 -39 -6 -62 3 -71 29 -6 15
-11 21 -11 14 -2 -26 20 -52 44 -52 28 0 41 -15 20 -24 -8 -3 -17 -1 -20 5 -4
5 -10 7 -15 4 -5 -3 -16 2 -24 11 -9 9 -23 13 -31 10 -15 -5 -19 5 -15 33 1 8
-4 12 -13 8 -8 -3 -24 1 -36 9 -18 13 -20 13 -15 0 3 -8 14 -16 25 -19 10 -3
19 -13 19 -23 0 -14 -3 -15 -12 -6 -14 14 -32 16 -24 3 7 -11 -74 6 -90 20
-13 11 -94 9 -94 -3 0 -4 10 -8 23 -9 12 0 29 -2 37 -5 67 -18 149 -32 166
-28 11 3 36 -1 55 -10 l34 -14 -37 -1 c-20 -1 -48 -5 -63 -11 -15 -6 -24 -6
-20 -1 3 5 0 13 -6 17 -7 4 -9 3 -5 -4 3 -6 2 -13 -4 -17 -6 -3 -13 1 -16 9
-8 21 -26 20 -22 0 2 -10 -3 -19 -9 -21 -7 -3 -13 0 -13 6 0 6 -9 11 -21 11
-12 0 -17 4 -14 11 4 6 13 8 21 5 7 -3 16 -1 19 4 9 14 -29 12 -42 -1 -6 -6
-9 -17 -7 -24 4 -8 -7 -14 -30 -17 -19 -2 -32 0 -30 4 3 4 0 8 -5 8 -6 0 -11
-8 -11 -18 0 -17 5 -17 93 -4 61 9 97 10 108 4 9 -6 22 -7 29 -2 10 6 9 9 -1
12 -20 8 91 21 137 16 35 -3 53 -13 54 -28 0 -3 -35 -5 -77 -4 -43 1 -60 0
-38 -2 22 -3 50 -10 63 -16 17 -9 28 -9 42 -1 14 10 24 7 51 -13 30 -22 41
-24 84 -18 48 6 115 37 115 54 0 4 13 13 29 20 17 6 49 29 72 51 23 21 44 37
47 34 2 -2 17 2 33 11 28 14 79 97 79 128 0 18 -37 31 -53 18 -7 -6 -23 -12
-37 -15 -15 -2 -5 -5 23 -6 34 -1 47 -5 47 -16 0 -9 -6 -12 -17 -9 -14 5 -15
4 -4 -4 12 -9 12 -13 -2 -27 -10 -9 -22 -26 -28 -37 -11 -20 -12 -20 -25 12
-16 36 -5 60 19 44 7 -5 4 -1 -6 9 -11 9 -29 17 -41 17 -12 0 -35 13 -50 29
l-28 30 43 12 c24 6 38 14 32 16 -7 3 -29 -1 -48 -7 -38 -12 -56 -5 -75 29 -6
13 -2 16 23 16 20 0 31 5 30 13 -2 6 4 12 12 12 8 0 15 -4 15 -9 0 -5 11 -11
25 -13 22 -5 25 -2 19 16 -7 26 -52 68 -65 61 -5 -4 -9 -2 -9 4 0 5 6 12 13
14 6 3 -3 3 -21 0 -27 -5 -31 -3 -26 11 3 9 10 13 15 10 5 -3 9 0 9 5 0 6 -4
11 -10 11 -5 0 -10 9 -10 20 0 11 -4 20 -8 20 -5 0 -7 -13 -4 -30 4 -27 2 -30
-24 -30 l-29 -1 24 -13 c31 -17 11 -30 -32 -20 -17 4 -35 7 -39 6 -4 -1 -10 9
-14 22 -4 17 -12 23 -30 22 -24 -1 -28 -20 -6 -22 7 -1 17 -2 22 -3 6 0 10 -5
10 -10 0 -6 -12 -6 -30 -1 -44 13 -55 21 -39 31 18 11 0 10 -26 -1 -18 -8 -18
-9 -2 -9 10 -1 20 -8 23 -16 4 -9 19 -15 35 -15 16 0 29 -4 29 -10 0 -5 -8 -7
-17 -4 -10 3 -4 -3 14 -13 33 -19 112 -87 116 -99 3 -10 65 -72 104 -105 44
-37 50 -65 22 -95 -27 -29 -50 -33 -24 -4 10 11 15 23 12 27 -4 3 -7 0 -7 -7
0 -10 -4 -10 -17 2 -32 27 -43 30 -43 13 0 -9 6 -15 12 -13 7 3 18 0 24 -6 9
-8 8 -16 -4 -30 -13 -15 -14 -18 -2 -11 10 5 12 5 5 -3 -5 -6 -21 -12 -35 -14
-16 -2 -24 -9 -22 -18 1 -8 -33 23 -77 69 -44 47 -78 88 -75 92 2 4 -1 11 -9
16 -22 14 -46 60 -50 95 -2 19 -7 40 -12 48 -8 13 -6 13 8 1 9 -7 17 -20 17
-27 0 -8 5 -14 10 -14 6 0 10 -8 10 -17 0 -15 -2 -16 -10 -3 -5 8 -10 10 -10
4 0 -6 10 -19 22 -30 12 -10 18 -14 15 -8 -4 7 -1 14 6 17 25 9 41 -11 41 -50
-1 -21 1 -30 3 -21 3 11 10 15 20 11 12 -5 15 -2 10 10 -3 9 -2 17 2 17 12 0
22 -30 14 -42 -3 -7 -1 -8 5 -4 7 4 12 1 12 -8 0 -9 6 -16 14 -16 10 0 13 -7
11 -20 -2 -12 0 -18 6 -15 5 4 6 11 3 17 -5 7 2 9 20 6 14 -3 29 -2 31 2 3 4
-9 10 -25 13 -16 4 -34 16 -41 29 -6 13 -27 40 -45 61 -19 20 -34 41 -34 47 0
5 -7 7 -15 3 -10 -3 -15 -1 -13 7 2 7 -5 14 -15 15 -10 2 -27 11 -38 21 -11
10 -34 17 -56 17 -59 -1 -65 -2 -57 -15 5 -8 2 -9 -9 -5 -20 7 -23 -13 -5 -31
14 -14 32 -16 24 -3 -9 14 3 38 18 38 7 0 19 -15 25 -34 7 -19 17 -31 23 -27
6 4 8 3 5 -3 -12 -19 98 -214 128 -224 6 -2 9 -8 7 -12 -1 -5 1 -6 6 -3 15 9
55 -41 48 -60 -6 -16 -8 -15 -26 4 -11 12 -19 23 -18 24 4 4 -97 101 -118 114
-17 10 -17 13 -4 29 12 15 12 17 1 10 -11 -6 -13 -4 -8 7 3 9 -1 25 -9 37 -8
11 -12 21 -8 21 4 0 0 8 -9 18 -8 9 -22 33 -31 52 l-15 35 2 -30 c3 -27 31
-84 55 -110 14 -15 -6 -65 -24 -58 -8 3 -11 9 -8 14 3 5 10 7 15 4 13 -9 12
-3 -12 51 -16 39 -22 45 -31 34 -8 -12 -9 -12 -4 2 6 21 -34 54 -45 37 -4 -7
-9 -5 -12 6 -4 9 -3 13 3 10 6 -3 10 1 10 10 0 20 -47 68 -59 61 -5 -3 -11 0
-14 8 -4 9 4 17 21 22 47 13 56 13 68 3 8 -7 11 -4 10 8 -1 14 5 17 26 15 22
-2 25 1 21 18 -3 12 -8 18 -11 15 -7 -6 -32 15 -32 27 0 6 8 4 17 -3 11 -10
14 -10 9 -1 -5 8 1 12 18 12 14 0 26 -6 26 -12 0 -9 16 -12 56 -10 30 2 54 8
52 14 -2 5 -7 9 -11 9 -4 -1 -16 8 -27 19 -25 25 -66 35 -84 21 -11 -9 -15 -9
-19 1 -2 7 -7 10 -11 7 -4 -4 0 -14 9 -23 9 -9 12 -16 6 -16 -5 0 -13 5 -16
11 -5 6 -11 5 -18 -5 -9 -11 -16 -13 -27 -6 -9 6 -11 10 -3 10 7 0 10 6 7 14
-5 12 31 28 70 30 13 1 20 26 7 26 -5 0 -13 -5 -16 -10z m45 -54 c0 -2 3 -13
6 -23 5 -17 5 -17 -6 0 -6 9 -15 15 -21 12 -5 -4 -9 -1 -9 4 0 6 7 11 15 11 8
0 15 -2 15 -4z m-141 -85 c11 -7 6 -12 -20 -19 -41 -11 -49 -7 -23 13 23 17
25 17 43 6z m257 -42 c1 -5 2 -12 3 -15 0 -4 9 0 19 7 14 11 15 11 5 -1 -10
-10 -10 -17 -1 -29 7 -9 0 -5 -15 8 -15 14 -27 31 -27 39 0 16 14 8 16 -9z
m124 -4 c24 -25 16 -36 -9 -12 -11 10 -12 9 -6 -2 6 -11 4 -13 -8 -8 -10 3
-17 3 -17 -2 0 -5 10 -11 22 -14 35 -10 14 -19 -25 -12 l-36 7 31 29 c28 25
29 27 8 22 -16 -4 -21 -3 -16 5 11 19 31 14 56 -13z m51 -17 c6 -11 7 -23 3
-26 -7 -7 -18 13 -12 22 2 3 -6 12 -17 21 -17 12 -17 14 -2 9 10 -4 22 -15 28
-26z m-111 2 c0 -5 -2 -10 -4 -10 -3 0 -8 5 -11 10 -3 6 -1 10 4 10 6 0 11 -4
11 -10z m-111 -57 c-3 -20 2 -34 11 -28 6 3 10 1 10 -4 0 -14 -17 -14 -25 0
-5 6 -12 4 -22 -8 -13 -17 -13 -16 -3 5 6 12 7 22 3 22 -4 0 -1 5 7 10 18 12
20 12 19 3z m-5 -261 c16 -32 16 -36 0 -53 -14 -15 -20 -17 -27 -7 -6 10 -8 9
-4 -2 2 -8 12 -17 22 -18 9 -2 15 0 12 5 -2 4 4 16 14 27 17 18 18 17 44 -8
23 -23 24 -28 11 -41 -16 -16 -56 -20 -56 -6 0 5 -9 7 -20 4 -11 -3 -17 -9
-14 -14 20 -33 -71 20 -99 57 -17 23 -17 24 2 24 10 0 21 -4 23 -9 2 -4 12 -5
23 0 16 6 16 8 3 8 -9 1 -15 8 -14 16 4 25 13 27 41 9 20 -13 23 -19 13 -25
-9 -6 -9 -9 -1 -9 22 0 25 21 7 41 -10 11 -27 19 -38 18 -35 -2 -46 1 -46 12
0 5 5 7 10 4 6 -3 10 -1 10 6 0 10 3 10 12 1 17 -17 28 -15 21 4 -12 32 34 -8
51 -44z"/>
<path d="M479 114 c6 -3 7 -12 4 -20 -3 -8 -1 -14 5 -14 14 0 8 33 -7 36 -6 1
-7 0 -2 -2z"/>
<path d="M1815 677 c16 -12 38 -30 47 -39 10 -10 20 -13 23 -9 6 10 -62 64
-85 68 -8 1 -2 -8 15 -20z"/>
<path d="M2090 690 c0 -5 5 -10 11 -10 5 0 7 5 4 10 -3 6 -8 10 -11 10 -2 0
-4 -4 -4 -10z"/>
<path d="M2705 689 c-4 -6 -5 -12 -2 -15 2 -3 7 2 10 11 7 17 1 20 -8 4z"/>
<path d="M215 681 c-6 -11 9 -23 19 -14 9 9 7 23 -3 23 -6 0 -12 -4 -16 -9z"/>
<path d="M640 684 c0 -3 9 -17 20 -31 15 -19 20 -21 20 -9 0 9 -4 16 -10 16
-5 0 -10 7 -10 15 0 8 -4 15 -10 15 -5 0 -10 -3 -10 -6z"/>
<path d="M820 682 c-8 -3 10 -11 40 -19 103 -25 98 -25 71 -4 -14 11 -34 17
-44 15 -11 -2 -27 0 -36 5 -9 5 -23 6 -31 3z"/>
<path d="M2160 686 c0 -2 7 -7 16 -10 8 -3 12 -2 9 4 -6 10 -25 14 -25 6z"/>
<path d="M2230 686 c0 -2 9 -6 20 -9 11 -3 18 -1 14 4 -5 9 -34 13 -34 5z"/>
<path d="M2422 681 c-10 -6 -10 -10 3 -21 13 -11 15 -9 15 9 0 24 0 24 -18 12z"/>
<path d="M550 670 c-8 -5 -10 -10 -5 -10 6 0 17 5 25 10 8 5 11 10 5 10 -5 0
-17 -5 -25 -10z"/>
<path d="M960 671 c0 -6 4 -13 10 -16 6 -3 7 1 4 9 -7 18 -14 21 -14 7z"/>
<path d="M1360 671 c-25 -7 -25 -7 -4 -19 11 -6 45 -14 75 -18 30 -4 59 -11
65 -15 12 -10 71 -6 82 6 4 4 -2 6 -13 5 -11 -1 -31 -1 -45 1 -14 1 11 6 55 9
l80 7 -105 1 c-168 1 -182 1 -175 12 3 5 13 6 22 3 11 -4 14 -3 9 5 -8 13 -10
13 -46 3z"/>
<path d="M1975 670 c-3 -5 -2 -10 4 -10 5 0 13 5 16 10 3 6 2 10 -4 10 -5 0
-13 -4 -16 -10z"/>
<path d="M2750 667 c0 -9 4 -18 9 -21 5 -4 8 1 7 9 -3 21 -16 31 -16 12z"/>
<path d="M1050 660 c24 -13 107 -23 113 -13 3 5 -8 7 -25 5 -17 -3 -28 -1 -25
5 3 5 -13 10 -36 10 -28 1 -37 -1 -27 -7z"/>
<path d="M1195 661 c-3 -5 2 -11 10 -15 8 -3 17 -1 20 3 3 5 -2 11 -10 15 -8
3 -17 1 -20 -3z"/>
<path d="M72 640 c-18 -29 -15 -38 4 -12 9 13 14 25 12 27 -2 2 -9 -5 -16 -15z"/>
<path d="M609 651 c18 -12 -2 -23 -26 -14 -15 6 -16 4 -6 -9 7 -8 9 -19 5 -24
-4 -4 0 -3 9 4 9 6 19 9 22 6 8 -8 -18 -34 -34 -34 -10 0 -10 -3 -1 -12 9 -9
15 -8 28 8 11 13 17 15 20 7 3 -7 13 -13 21 -13 14 0 13 3 -2 20 -25 28 -29
53 -7 46 13 -5 12 -2 -2 9 -11 8 -25 15 -30 15 -6 0 -5 -4 3 -9z"/>
<path d="M1248 653 c6 -2 18 -2 25 0 6 3 1 5 -13 5 -14 0 -19 -2 -12 -5z"/>
<path d="M2954 628 c4 -21 3 -38 -1 -38 -14 0 -7 -71 8 -81 12 -7 11 -13 -3
-39 -14 -25 -15 -30 -3 -30 23 0 20 -102 -3 -123 -16 -15 -20 -37 -13 -94 0
-7 7 -10 15 -7 12 4 13 12 5 31 -6 17 -6 30 0 36 5 5 7 16 4 23 -3 8 1 14 11
14 14 0 15 12 11 91 -3 51 -10 99 -15 108 -5 10 -5 23 0 32 11 16 2 89 -12
104 -7 7 -8 -3 -4 -27z"/>
<path d="M884 624 c17 -16 39 -30 50 -31 27 -4 13 9 -39 37 l-40 22 29 -28z"/>
<path d="M985 641 c-3 -6 -11 -9 -16 -6 -5 3 -6 -2 -2 -12 5 -15 3 -16 -8 -5
-7 6 -17 12 -22 12 -5 0 1 -8 14 -19 23 -18 23 -18 36 7 13 24 11 44 -2 23z"/>
<path d="M1310 639 c0 -5 9 -9 20 -9 11 0 20 2 20 4 0 2 -9 6 -20 9 -11 3 -20
1 -20 -4z"/>
<path d="M1060 636 c0 -2 7 -7 16 -10 8 -3 12 -2 9 4 -6 10 -25 14 -25 6z"/>
<path d="M1160 630 c-9 -6 -10 -10 -3 -10 6 0 15 5 18 10 8 12 4 12 -15 0z"/>
<path d="M1225 631 c-3 -5 0 -13 6 -17 8 -4 9 -3 5 4 -5 8 1 12 14 12 12 0 18
-4 15 -10 -9 -15 4 -12 21 5 14 13 12 15 -20 15 -19 0 -37 -4 -41 -9z"/>
<path d="M1910 636 c0 -9 30 -14 35 -6 4 6 -3 10 -14 10 -12 0 -21 -2 -21 -4z"/>
<path d="M2416 630 c-19 -6 -19 -7 -1 -13 20 -8 29 -4 24 11 -2 5 -13 6 -23 2z"/>
<path d="M2785 630 c-3 -5 -1 -10 4 -10 6 0 11 5 11 10 0 6 -2 10 -4 10 -3 0
-8 -4 -11 -10z"/>
<path d="M1365 613 c-2 -7 -9 -13 -15 -13 -6 0 -8 5 -5 10 3 6 -4 10 -16 10
-22 0 -22 0 -3 -15 21 -16 59 -20 49 -6 -3 6 19 11 52 13 l58 3 -57 5 c-41 4
-59 1 -63 -7z"/>
<path d="M1606 604 c18 -14 16 -15 -28 -11 -33 3 -48 1 -48 -7 0 -17 96 -4
113 14 10 10 9 12 -5 7 -10 -3 -20 -2 -23 3 -4 6 -11 10 -18 10 -6 0 -2 -7 9
-16z"/>
<path d="M1954 608 c-4 -6 -3 -8 4 -4 6 3 14 1 17 -5 5 -7 -1 -10 -16 -8 -38
3 -78 -11 -73 -26 3 -7 12 -16 21 -19 11 -5 14 -1 10 13 -4 16 -1 17 27 11 17
-4 53 -17 79 -29 49 -21 85 -29 58 -12 -22 14 2 19 27 6 17 -9 20 -14 10 -18
-7 -3 30 -3 82 0 52 3 110 12 129 19 18 8 37 12 41 9 9 -6 60 33 60 46 0 15
-50 10 -56 -6 -7 -16 -69 -39 -83 -31 -5 4 -12 3 -14 -1 -3 -5 -45 -7 -94 -6
-123 2 -124 2 -141 19 -8 8 -21 13 -29 10 -8 -3 -11 -1 -8 4 3 6 14 10 23 10
9 1 2 7 -17 15 -40 18 -48 18 -57 3z"/>
<path d="M2730 615 c-1 -5 -2 -18 -1 -27 2 -18 -6 -22 -47 -18 -20 1 -22 -2
-16 -27 4 -15 11 -39 16 -52 5 -14 5 -28 -1 -35 -6 -7 -4 -18 5 -30 14 -19 14
-19 14 2 0 12 5 22 10 22 6 0 10 7 10 16 0 8 -4 13 -9 10 -11 -7 -30 43 -24
62 7 18 79 16 87 -3 3 -9 0 -15 -10 -15 -8 0 -12 -5 -9 -10 5 -8 11 -7 21 1
11 9 14 8 14 -5 0 -10 5 -14 11 -11 7 5 5 12 -5 23 -10 12 -12 22 -5 35 8 13
6 19 -8 24 -10 3 -22 8 -27 11 -5 3 -6 0 -2 -6 4 -7 3 -12 -3 -12 -5 0 -12 12
-14 28 -2 15 -5 23 -7 17z"/>
<path d="M1290 600 c0 -6 7 -10 15 -10 8 0 15 2 15 4 0 2 -7 6 -15 10 -8 3
-15 1 -15 -4z"/>
<path d="M1 577 c-1 -21 5 -30 24 -37 14 -5 32 -7 40 -4 9 4 15 0 16 -7 0 -8
4 -5 9 6 8 19 9 19 9 -3 1 -13 5 -20 11 -17 5 3 10 3 10 -2 0 -4 13 -8 29 -9
20 -1 28 3 27 14 -3 18 -54 40 -84 35 -20 -3 -21 0 -12 16 7 15 7 19 -5 17 -8
-1 -17 -5 -21 -8 -3 -4 -12 -4 -20 -1 -8 3 -14 -1 -15 -8 -1 -8 -5 -3 -9 11
l-8 25 -1 -28z"/>
<path d="M330 596 c0 -2 8 -10 18 -17 15 -13 16 -12 3 4 -13 16 -21 21 -21 13z"/>
<path d="M1445 590 c-3 -5 -1 -10 4 -10 6 0 11 5 11 10 0 6 -2 10 -4 10 -3 0
-8 -4 -11 -10z"/>
<path d="M2058 593 c6 -2 18 -2 25 0 6 3 1 5 -13 5 -14 0 -19 -2 -12 -5z"/>
<path d="M2108 588 c6 -6 18 -8 28 -6 14 3 12 5 -9 10 -19 3 -25 2 -19 -4z"/>
<path d="M726 582 c-3 -2 9 -16 25 -29 16 -14 31 -24 33 -22 6 6 -53 57 -58
51z"/>
<path d="M960 565 c0 -8 2 -15 4 -15 2 0 6 7 10 15 3 8 1 15 -4 15 -6 0 -10
-7 -10 -15z"/>
<path d="M1210 576 c0 -9 40 -13 46 -5 3 5 -6 9 -20 9 -14 0 -26 -2 -26 -4z"/>
<path d="M1271 576 c12 -10 59 -15 59 -6 0 5 -14 10 -32 10 -17 0 -29 -2 -27
-4z"/>
<path d="M1348 573 c6 -2 18 -2 25 0 6 3 1 5 -13 5 -14 0 -19 -2 -12 -5z"/>
<path d="M1480 559 c-41 -5 -121 -8 -177 -7 -56 2 -105 -1 -109 -5 -10 -10
346 1 406 12 l45 8 -45 0 c-25 0 -79 -4 -120 -8z"/>
<path d="M2824 555 c11 -8 25 -15 30 -15 6 0 2 7 -8 15 -11 8 -25 15 -30 15
-6 0 -2 -7 8 -15z"/>
<path d="M2869 565 c-1 -3 -2 -11 -3 -17 -1 -7 -9 -12 -19 -12 -9 1 -17 -4
-17 -12 0 -12 5 -12 32 -1 36 15 46 32 23 40 -8 4 -16 4 -16 2z"/>
<path d="M2991 554 c0 -11 3 -14 6 -6 3 7 2 16 -1 19 -3 4 -6 -2 -5 -13z"/>
<path d="M194 525 c-5 -12 -1 -22 11 -31 26 -19 30 -18 44 14 10 24 10 25 -3
9 -13 -17 -15 -17 -30 4 -14 21 -16 21 -22 4z"/>
<path d="M800 524 c0 -8 5 -12 10 -9 6 4 8 11 5 16 -9 14 -15 11 -15 -7z"/>
<path d="M1593 533 c51 -13 -5 -18 -203 -17 -121 1 -220 -2 -220 -7 0 -5 53
-9 118 -10 120 -1 169 -4 187 -9 6 -2 18 0 29 5 11 5 26 3 37 -3 22 -14 29
-15 28 -4 -3 18 2 22 20 13 14 -8 22 -7 31 4 7 8 9 15 4 15 -5 0 -2 5 6 10 11
7 6 9 -20 9 -19 -1 -27 -3 -17 -6z"/>
<path d="M847 503 c-11 -11 3 -22 20 -16 10 4 14 2 9 -5 -3 -6 -2 -13 3 -16 5
-4 8 1 7 10 -3 18 -30 37 -39 27z"/>
<path d="M1886 489 c-23 -27 -20 -30 14 -13 34 17 35 20 16 27 -7 3 -20 -3
-30 -14z"/>
<path d="M2035 503 c-11 -2 -25 -14 -30 -26 -6 -12 -18 -21 -28 -21 -9 1 -17
-2 -17 -7 0 -5 -7 -6 -15 -3 -8 4 -15 1 -15 -5 0 -6 3 -10 8 -10 24 4 34 -2
28 -18 -6 -14 -3 -14 16 3 13 10 36 33 53 49 16 17 34 29 38 27 5 -1 6 2 2 8
-3 5 -9 9 -13 9 -4 -1 -16 -4 -27 -6z"/>
<path d="M2326 498 c-11 -6 -33 -11 -50 -11 l-31 0 32 -10 c26 -8 35 -6 54 12
25 23 24 26 -5 9z"/>
<path d="M334 493 c10 -11 36 -12 36 -2 0 5 -10 9 -22 9 -12 0 -18 -3 -14 -7z"/>
<path d="M2205 490 c-16 -7 -17 -9 -3 -9 9 -1 20 4 23 9 7 11 7 11 -20 0z"/>
<path d="M2510 485 c0 -8 4 -15 10 -15 5 0 7 7 4 15 -4 8 -8 15 -10 15 -2 0
-4 -7 -4 -15z"/>
<path d="M2118 483 c6 -2 18 -2 25 0 6 3 1 5 -13 5 -14 0 -19 -2 -12 -5z"/>
<path d="M566 471 c-5 -7 -3 -18 3 -24 14 -14 20 -6 11 17 -5 15 -9 16 -14 7z"/>
<path d="M814 461 c7 -11 46 -35 46 -28 0 3 -12 12 -26 22 -15 9 -23 12 -20 6z"/>
<path d="M1375 460 c-82 -3 -132 -7 -110 -8 79 -4 210 -25 224 -36 11 -8 13
-8 7 2 -5 8 0 12 14 12 12 0 19 4 16 9 -3 5 3 11 15 14 16 4 18 3 9 -8 -8 -10
-8 -15 1 -21 8 -4 9 -3 5 4 -4 7 -2 13 3 13 6 1 16 3 21 4 6 1 15 3 20 4 6 0
10 6 10 11 0 6 -19 9 -42 8 -24 -1 -110 -5 -193 -8z"/>
<path d="M2850 455 c0 -10 9 -15 27 -15 29 0 29 2 -4 19 -19 10 -23 9 -23 -4z"/>
<path d="M2786 453 c-10 -10 -7 -25 4 -18 6 4 10 -5 10 -19 0 -16 -6 -26 -15
-26 -8 0 -15 -7 -15 -15 0 -32 36 -10 45 27 7 27 -15 65 -29 51z"/>
<path d="M31 437 c0 -10 -5 -16 -10 -12 -5 3 -13 1 -16 -5 -4 -6 -1 -9 7 -8 7
2 12 -3 10 -10 -1 -8 2 -11 8 -7 6 3 10 -4 10 -17 1 -21 2 -21 11 -5 7 12 7
22 1 30 -5 7 -12 21 -15 32 -4 17 -5 17 -6 2z"/>
<path d="M55 440 c-3 -5 -1 -18 5 -29 5 -11 7 -27 4 -35 -4 -9 -1 -23 6 -31 9
-10 9 -15 1 -15 -6 0 -11 -5 -11 -11 0 -8 5 -7 15 1 11 9 13 16 5 24 -5 5 -10
17 -10 25 0 21 18 1 23 -24 6 -33 41 -85 57 -84 10 0 11 2 3 6 -7 2 -13 11
-13 19 0 8 -5 14 -11 14 -5 0 -7 5 -3 11 4 8 9 8 17 0 16 -16 27 -13 20 6 -5
12 -3 14 7 8 9 -5 11 -4 6 4 -4 6 -11 9 -15 6 -9 -5 -36 45 -32 60 2 5 -1 6
-5 2 -5 -5 -14 7 -21 25 l-12 33 2 -33 c2 -18 8 -36 13 -40 19 -12 35 -50 24
-57 -11 -7 -63 92 -55 105 3 5 1 11 -4 14 -5 4 -12 2 -16 -4z"/>
<path d="M1040 416 c0 -60 -30 -199 -57 -266 -15 -37 -43 -83 -67 -107 -29
-31 -36 -43 -23 -43 24 0 94 71 99 100 2 16 12 27 28 31 16 4 19 7 8 8 -22 1
-22 -3 -2 76 9 36 22 65 28 65 7 0 7 3 -1 8 -10 6 -9 14 3 37 12 23 12 30 2
37 -7 4 -8 8 -3 8 17 0 17 67 0 74 -11 4 -15 -3 -15 -28z"/>
<path d="M2034 437 c-3 -9 -16 -17 -28 -18 -11 0 -15 -3 -9 -6 9 -3 10 -10 3
-24 -16 -28 -2 -23 31 13 20 21 27 34 20 41 -7 7 -12 5 -17 -6z"/>
<path d="M280 436 c0 -2 7 -9 15 -16 13 -11 14 -10 9 4 -5 14 -24 23 -24 12z"/>
<path d="M730 431 c-27 -4 -39 -9 -29 -12 18 -8 67 0 75 12 3 5 4 8 2 7 -2 0
-23 -4 -48 -7z"/>
<path d="M800 425 c0 -7 30 -13 34 -7 3 4 -4 9 -15 9 -10 1 -19 0 -19 -2z"/>
<path d="M2745 420 c-8 -13 4 -32 16 -25 12 8 12 35 0 35 -6 0 -13 -4 -16 -10z"/>
<path d="M255 410 c-3 -5 -1 -10 4 -10 6 0 11 5 11 10 0 6 -2 10 -4 10 -3 0
-8 -4 -11 -10z"/>
<path d="M863 408 c4 -10 2 -18 -4 -18 -6 0 -9 -7 -5 -15 3 -8 1 -15 -4 -15
-6 0 -10 6 -10 13 0 9 -2 9 -8 0 -4 -6 -23 -16 -42 -22 l-35 -11 35 6 c19 3
43 6 53 6 10 -1 21 6 24 14 3 8 13 14 23 14 11 0 22 5 26 12 5 7 3 8 -5 4 -7
-5 -21 0 -33 11 -20 16 -21 17 -15 1z"/>
<path d="M611 403 c-1 -17 16 -25 25 -12 4 7 3 9 -4 5 -5 -3 -13 0 -15 6 -4 9
-6 10 -6 1z"/>
<path d="M1448 403 c7 -3 16 -2 19 1 4 3 -2 6 -13 5 -11 0 -14 -3 -6 -6z"/>
<path d="M1520 405 c0 -7 30 -13 34 -7 3 4 -4 9 -15 9 -10 1 -19 0 -19 -2z"/>
<path d="M2145 400 c-19 -7 -19 -8 5 -18 14 -5 33 -8 43 -6 11 2 15 -1 11 -8
-5 -7 0 -9 14 -6 12 4 22 3 22 -1 0 -4 17 -5 38 -4 53 4 53 4 90 -2 19 -2 43
0 54 6 16 8 19 8 13 -1 -5 -8 -1 -11 11 -8 9 1 16 7 15 12 -2 5 3 13 11 17 7
5 9 9 3 9 -5 1 -62 3 -125 5 -63 2 -131 6 -150 8 -19 3 -44 1 -55 -3z"/>
<path d="M303 388 c3 -10 2 -20 -3 -23 -6 -4 -10 -2 -10 4 0 5 -9 9 -19 8 -22
-1 -18 -17 4 -17 7 0 15 -5 17 -10 2 -7 9 -6 20 2 16 12 16 15 1 33 -12 16
-14 16 -10 3z"/>
<path d="M1564 388 c-3 -4 2 -8 10 -8 8 0 17 4 20 8 3 5 -2 9 -10 9 -8 0 -17
-4 -20 -9z"/>
<path d="M2837 382 c2 -10 13 -24 24 -31 18 -11 20 -10 17 6 -2 10 -10 17 -17
15 -9 -2 -11 3 -8 13 4 9 1 15 -7 15 -9 0 -12 -7 -9 -18z"/>
<path d="M12 350 c0 -19 2 -27 5 -17 2 9 2 25 0 35 -3 9 -5 1 -5 -18z"/>
<path d="M760 370 l-25 -8 27 -1 c15 -1 30 4 33 9 7 11 0 11 -35 0z"/>
<path d="M2540 370 c0 -5 12 -10 26 -10 14 0 23 4 19 10 -3 6 -15 10 -26 10
-10 0 -19 -4 -19 -10z"/>
<path d="M2890 363 c0 -11 -7 -28 -15 -39 -20 -27 -19 -34 9 -34 20 0 22 4 18
26 -3 16 -1 25 5 21 5 -3 9 4 8 15 -2 27 -25 37 -25 11z"/>
<path d="M671 353 c7 -12 15 -20 18 -17 3 2 -3 12 -13 22 -17 16 -18 16 -5 -5z"/>
<path d="M1348 363 c7 -3 16 -2 19 1 4 3 -2 6 -13 5 -11 0 -14 -3 -6 -6z"/>
<path d="M1448 356 c-48 -6 -89 -13 -91 -16 -3 -3 25 -4 61 -3 37 1 67 2 67 4
0 1 11 2 25 3 14 1 31 5 38 9 6 5 16 6 20 3 4 -2 14 -1 22 5 19 11 -27 10
-142 -5z"/>
<path d="M2700 336 c0 -16 4 -25 10 -21 6 3 10 1 10 -4 0 -6 -3 -11 -7 -11 -5
0 -13 -11 -19 -25 -15 -32 3 -51 32 -32 12 8 34 10 59 6 22 -3 34 -7 27 -8 -7
0 -10 -6 -6 -12 13 -21 22 12 10 37 -8 18 -18 24 -36 22 -14 -2 -24 -8 -23
-13 1 -6 -7 -11 -18 -11 -10 0 -19 6 -19 13 0 7 5 13 10 13 17 0 11 36 -10 55
-20 18 -20 17 -20 -9z"/>
<path d="M1150 346 c0 -2 11 -6 25 -8 14 -3 25 -1 25 3 0 5 -11 9 -25 9 -14 0
-25 -2 -25 -4z"/>
<path d="M1270 340 l-65 -6 68 -4 c49 -4 67 -2 67 8 0 6 -1 11 -2 10 -2 -1
-32 -4 -68 -8z"/>
<path d="M1589 348 c-10 -33 1 -52 16 -28 3 6 1 10 -5 10 -6 0 -8 5 -5 10 3 6
4 10 1 10 -3 0 -6 -1 -7 -2z"/>
<path d="M331 333 c-1 -16 30 -32 49 -25 8 2 12 1 8 -3 -9 -9 9 -35 23 -35 15
0 10 19 -9 38 -21 21 -57 37 -47 22 3 -6 2 -10 -4 -10 -5 0 -12 6 -14 13 -4 9
-6 9 -6 0z"/>
<path d="M1987 323 c3 -7 9 -10 14 -7 14 8 11 21 -5 21 -8 0 -12 -6 -9 -14z"/>
<path d="M2106 328 c3 -5 10 -6 15 -3 13 9 11 12 -6 12 -8 0 -12 -4 -9 -9z"/>
<path d="M31 314 c0 -11 3 -14 6 -6 3 7 2 16 -1 19 -3 4 -6 -2 -5 -13z"/>
<path d="M1524 318 c-4 -6 -2 -14 5 -16 9 -3 9 -7 1 -17 -8 -9 -8 -15 0 -20 6
-3 7 -11 4 -17 -4 -7 -2 -8 5 -4 6 4 24 10 38 12 32 6 48 18 18 13 -11 -2 -26
0 -34 5 -10 6 -12 5 -7 -2 4 -7 2 -12 -3 -12 -14 0 -14 11 -1 44 7 20 6 26 -5
26 -7 0 -17 -5 -21 -12z"/>
<path d="M190 311 c0 -6 4 -13 10 -16 6 -3 7 1 4 9 -7 18 -14 21 -14 7z"/>
<path d="M690 316 c0 -2 8 -10 18 -17 15 -13 16 -12 3 4 -13 16 -21 21 -21 13z"/>
<path d="M2040 309 c0 -5 5 -7 10 -4 6 3 10 8 10 11 0 2 -4 4 -10 4 -5 0 -10
-5 -10 -11z"/>
<path d="M2086 313 c-16 -16 -4 -30 24 -28 30 3 48 11 39 19 -10 8 -57 15 -63
9z"/>
<path d="M80 304 c0 -5 7 -18 15 -28 8 -11 15 -16 15 -10 0 5 -7 18 -15 28 -8
11 -15 16 -15 10z"/>
<path d="M1197 303 c-10 -9 -9 -23 1 -23 5 0 9 7 9 15 0 17 -1 18 -10 8z"/>
<path d="M1415 301 c3 -5 -3 -12 -12 -14 -14 -4 -13 -5 5 -6 12 0 22 -5 22
-11 0 -5 5 -10 11 -10 8 0 8 5 -1 15 -10 13 -9 15 11 16 22 0 23 1 4 9 -27 12
-47 12 -40 1z"/>
<path d="M2661 294 c0 -11 3 -14 6 -6 3 7 2 16 -1 19 -3 4 -6 -2 -5 -13z"/>
<path d="M582 292 c-8 -6 -2 -9 18 -9 20 0 26 3 18 9 -7 4 -15 8 -18 8 -3 0
-11 -4 -18 -8z"/>
<path d="M1228 283 c6 -2 18 -2 25 0 6 3 1 5 -13 5 -14 0 -19 -2 -12 -5z"/>
<path d="M1348 283 c6 -2 18 -2 25 0 6 3 1 5 -13 5 -14 0 -19 -2 -12 -5z"/>
<path d="M38 253 c5 -21 7 -23 10 -9 2 10 0 22 -6 28 -6 6 -7 0 -4 -19z"/>
<path d="M173 267 c-3 -4 -2 -11 1 -14 3 -4 6 -1 6 5 0 6 7 9 15 6 8 -4 13
-10 10 -14 -3 -4 4 -10 14 -13 17 -4 18 -2 10 17 -10 21 -45 30 -56 13z"/>
<path d="M761 267 c-1 -11 -6 -15 -13 -11 -7 5 -8 3 -3 -5 10 -16 29 2 22 21
-4 8 -6 7 -6 -5z"/>
<path d="M2882 255 c-1 -13 3 -27 8 -30 6 -4 10 7 10 24 0 37 -15 42 -18 6z"/>
<path d="M980 253 c0 -10 5 -25 10 -33 7 -11 10 -7 10 18 0 17 -4 32 -10 32
-5 0 -10 -8 -10 -17z"/>
<path d="M2040 260 c0 -5 5 -10 11 -10 5 0 7 5 4 10 -3 6 -8 10 -11 10 -2 0
-4 -4 -4 -10z"/>
<path d="M2986 245 c4 -8 8 -15 10 -15 2 0 4 7 4 15 0 8 -4 15 -10 15 -5 0 -7
-7 -4 -15z"/>
<path d="M625 240 c3 -5 8 -10 11 -10 2 0 4 5 4 10 0 6 -5 10 -11 10 -5 0 -7
-4 -4 -10z"/>
<path d="M896 222 c-26 -49 -15 -66 36 -58 58 9 69 20 28 26 -29 4 -36 10 -40
35 l-6 30 -18 -33z"/>
<path d="M1427 243 c-9 -2 -15 -9 -12 -14 4 -5 -15 -8 -42 -8 l-48 2 40 7 c26
4 -4 7 -84 8 -68 0 -122 -1 -120 -3 12 -12 251 -25 304 -17 l60 10 -45 2 c-38
2 -41 3 -20 10 20 6 21 8 5 8 -11 0 -28 -2 -38 -5z"/>
<path d="M1595 243 c-11 -2 -30 -6 -43 -9 -13 -2 -20 -9 -17 -14 4 -7 13 -6
25 0 10 5 28 10 39 10 11 0 23 5 26 10 6 10 4 11 -30 3z"/>
<path d="M2600 240 c0 -5 5 -10 10 -10 6 0 10 5 10 10 0 6 -4 10 -10 10 -5 0
-10 -4 -10 -10z"/>
<path d="M2836 231 c-4 -5 -2 -20 3 -33 9 -21 10 -21 10 10 1 32 -3 39 -13 23z"/>
<path d="M685 214 c14 -11 16 -18 7 -21 -6 -3 -10 -9 -7 -13 3 -5 12 -7 20 -4
18 7 4 39 -22 48 -15 5 -15 3 2 -10z"/>
<path d="M2030 220 c0 -5 -7 -7 -15 -4 -8 4 -15 2 -15 -3 0 -5 9 -9 20 -10 11
-1 20 4 20 13 0 8 -2 14 -5 14 -3 0 -5 -4 -5 -10z"/>
<path d="M2732 205 c0 -16 2 -22 5 -12 2 9 2 23 0 30 -3 6 -5 -1 -5 -18z"/>
<path d="M1615 210 c3 -5 14 -10 23 -10 15 0 15 2 2 10 -20 13 -33 13 -25 0z"/>
<path d="M2375 211 c-3 -5 4 -13 16 -16 23 -8 34 -1 24 14 -8 13 -32 14 -40 2z"/>
<path d="M2696 188 c-3 -17 -4 -33 -2 -36 11 -10 75 -12 81 -3 5 10 -22 16
-47 12 -5 0 -8 10 -8 23 0 37 -17 40 -24 4z"/>
<path d="M1541 201 c-20 -13 3 -23 34 -15 14 3 23 9 20 12 -10 10 -40 11 -54
3z"/>
<path d="M2586 202 c-3 -5 -1 -22 4 -38 6 -21 9 -23 9 -9 1 17 3 17 11 5 7
-11 10 -7 10 18 0 30 -21 45 -34 24z"/>
<path d="M1088 193 c6 -2 18 -2 25 0 6 3 1 5 -13 5 -14 0 -19 -2 -12 -5z"/>
<path d="M1295 191 c-92 -5 -101 -7 -55 -11 30 -3 91 -2 135 3 52 5 81 5 83
-2 2 -5 11 -7 19 -4 14 6 14 8 -3 14 -10 4 -30 7 -44 6 -14 0 -74 -3 -135 -6z"/>
<path d="M2790 190 c0 -5 5 -10 10 -10 6 0 10 5 10 10 0 6 -4 10 -10 10 -5 0
-10 -4 -10 -10z"/>
<path d="M1053 174 c0 -6 10 -9 21 -7 15 3 17 2 8 -5 -9 -6 3 -9 36 -8 61 1
57 7 -12 21 -39 8 -53 8 -53 -1z"/>
<path d="M2947 183 c-3 -5 8 -9 24 -10 16 -1 29 2 29 7 0 12 -47 13 -53 3z"/>
<path d="M805 170 c-15 -7 -10 -9 23 -9 23 -1 42 4 42 9 0 12 -37 12 -65 0z"/>
<path d="M1628 175 c-11 -12 -268 -23 -343 -16 -85 8 -124 4 -89 -10 10 -5 76
-8 146 -7 69 0 132 -3 139 -7 7 -5 10 -4 6 2 -5 7 17 12 61 13 111 3 119 5
119 18 0 12 -29 17 -39 7z"/>
<path d="M2893 153 c2 -13 -2 -24 -10 -28 -18 -6 -33 2 -33 19 0 8 -10 11 -32
8 -29 -4 -30 -6 -13 -18 10 -7 22 -11 26 -8 5 3 9 1 9 -5 0 -6 15 -10 33 -10
17 1 54 -6 80 -14 44 -14 48 -14 45 1 -2 10 -16 17 -38 20 -44 5 -55 15 -41
40 10 18 8 21 -10 19 -16 -1 -19 -7 -16 -24z"/>
<path d="M2250 140 c-7 -4 -58 -8 -113 -9 -56 -1 -104 -4 -106 -7 -3 -3 68 -4
158 -3 89 1 157 6 149 10 -21 12 -74 17 -88 9z"/>
<path d="M40 125 c-10 -12 -10 -15 4 -15 9 0 16 7 16 15 0 8 -2 15 -4 15 -2 0
-9 -7 -16 -15z"/>
<path d="M1115 130 c6 -10 0 -11 -31 -6 -30 6 -36 5 -27 -4 13 -14 341 -22
349 -9 6 10 -154 16 -172 6 -8 -5 -14 -4 -14 2 0 6 -20 10 -44 9 -24 0 -50 3
-56 7 -9 6 -11 4 -5 -5z"/>
<path d="M1645 130 c-4 -6 3 -10 14 -10 25 0 27 6 6 13 -8 4 -17 2 -20 -3z"/>
<path d="M906 123 c-3 -3 -45 -5 -93 -5 -69 1 -84 -2 -68 -10 11 -6 23 -16 27
-22 5 -8 8 -7 8 2 0 6 10 12 22 12 20 0 21 -1 3 -20 -18 -19 -17 -20 3 -20 12
0 21 5 20 12 -2 7 16 15 46 19 57 9 76 16 76 27 0 9 -35 13 -44 5z"/>
<path d="M1710 125 c1 -5 7 -18 15 -29 12 -16 30 -19 114 -21 56 -1 98 1 96 5
-3 5 3 7 12 5 10 -2 58 -6 107 -9 67 -4 86 -2 78 6 -7 7 -86 15 -209 21 -127
6 -201 13 -205 21 -4 6 -8 7 -8 1z m144 -33 c2 -4 -13 -6 -35 -4 -21 2 -39 6
-39 8 0 7 69 4 74 -4z"/>
<path d="M1598 113 c7 -3 16 -2 19 1 4 3 -2 6 -13 5 -11 0 -14 -3 -6 -6z"/>
<path d="M1650 95 c-20 -8 -27 -14 -17 -14 10 -1 27 4 38 9 13 7 19 7 19 0 0
-5 5 -10 11 -10 13 0 7 23 -7 26 -5 1 -25 -4 -44 -11z"/>
<path d="M2460 100 c0 -5 17 -10 38 -9 30 0 33 2 17 9 -28 12 -55 12 -55 0z"/>
<path d="M2650 98 c87 -8 290 -46 333 -63 25 -10 22 17 -4 34 -12 7 -46 13
-75 12 -29 0 -66 6 -81 14 -21 11 -60 14 -148 13 l-120 -1 95 -9z"/>
<path d="M1438 93 c6 -2 18 -2 25 0 6 3 1 5 -13 5 -14 0 -19 -2 -12 -5z"/>
<path d="M2253 93 c15 -2 37 -2 50 0 12 2 0 4 -28 4 -27 0 -38 -2 -22 -4z"/>
<path d="M2165 80 c-16 -7 -11 -9 20 -9 29 -1 36 2 25 9 -17 11 -19 11 -45 0z"/>
<path d="M1040 73 c0 -7 -6 -10 -14 -7 -8 3 -16 2 -19 -3 -3 -5 2 -9 11 -10 9
0 42 -3 72 -7 145 -18 247 -15 233 7 -4 7 0 8 11 4 10 -4 23 -7 29 -8 7 0 3
-4 -8 -9 -16 -7 -17 -9 -3 -9 9 -1 20 3 23 9 3 5 19 7 34 4 16 -4 32 -1 35 5
5 7 28 9 64 6 l57 -4 -45 10 c-25 5 -83 7 -130 5 -153 -9 -246 -7 -267 7 -7 5
-13 4 -13 -1 0 -13 -54 -12 -62 2 -6 8 -8 8 -8 -1z"/>
<path d="M1538 73 c7 -3 16 -2 19 1 4 3 -2 6 -13 5 -11 0 -14 -3 -6 -6z"/>
<path d="M1587 66 c-4 -10 0 -12 15 -8 14 3 19 1 14 -6 -3 -6 -1 -14 5 -18 8
-4 9 -3 5 4 -4 7 -2 12 5 12 7 0 4 7 -7 15 -24 18 -31 18 -37 1z"/>
<path d="M2318 73 c6 -2 18 -2 25 0 6 3 1 5 -13 5 -14 0 -19 -2 -12 -5z"/>
<path d="M2568 68 c6 -6 18 -8 28 -6 14 3 12 5 -9 10 -19 3 -25 2 -19 -4z"/>
<path d="M2643 73 c15 -2 37 -2 50 0 12 2 0 4 -28 4 -27 0 -38 -2 -22 -4z"/>
<path d="M120 60 c-13 -8 -12 -10 3 -10 9 0 17 5 17 10 0 12 -1 12 -20 0z"/>
<path d="M708 63 c6 -2 18 -2 25 0 6 3 1 5 -13 5 -14 0 -19 -2 -12 -5z"/>
<path d="M1747 59 c4 -4 15 -9 23 -11 8 -2 21 -11 28 -20 7 -10 23 -18 35 -18
22 1 22 1 -2 14 -24 13 -24 13 12 18 22 2 37 0 37 -7 0 -5 5 -3 10 5 7 11 10
11 10 2 0 -7 5 -10 11 -6 6 3 7 10 2 14 -10 10 -176 19 -166 9z"/>
<path d="M2038 54 c35 -9 66 -13 69 -10 11 10 0 14 -67 20 l-65 6 63 -16z"/>
<path d="M2405 63 c54 -3 122 -21 143 -36 23 -18 152 -33 152 -18 0 6 -3 10
-7 9 -14 -4 -97 13 -108 21 -20 16 -105 31 -167 29 -58 -1 -59 -2 -13 -5z"/>
<path d="M228 53 c7 -3 16 -2 19 1 4 3 -2 6 -13 5 -11 0 -14 -3 -6 -6z"/>
<path d="M250 43 c-47 -7 -119 -18 -160 -23 -110 -15 -107 -18 13 -19 59 -1
107 3 107 7 0 11 61 32 96 32 16 0 36 5 44 10 19 12 13 12 -100 -7z"/>
<path d="M2291 47 c9 -9 18 -12 25 -6 7 6 23 5 40 -1 16 -6 30 -11 32 -11 14
4 33 -2 46 -15 9 -8 16 -10 16 -4 0 7 6 8 19 0 11 -5 26 -10 33 -10 34 1 -106
49 -162 56 -57 6 -62 5 -49 -9z"/>
<path d="M0 39 c0 -5 19 -9 42 -9 23 0 39 2 37 5 -10 9 -79 13 -79 4z"/>
<path d="M625 40 c-18 -8 -17 -9 7 -9 15 -1 30 4 33 9 7 12 -12 12 -40 0z"/>
<path d="M810 40 c-20 -6 -22 -9 -9 -14 8 -4 29 0 45 9 22 11 24 15 9 14 -11
-1 -31 -4 -45 -9z"/>
<path d="M968 33 c7 -3 16 -2 19 1 4 3 -2 6 -13 5 -11 0 -14 -3 -6 -6z"/>
<path d="M2146 25 c10 -8 24 -14 29 -14 6 0 1 6 -9 14 -11 8 -24 15 -30 15 -5
0 -1 -7 10 -15z"/>
<path d="M2730 30 c8 -5 20 -10 25 -10 6 0 3 5 -5 10 -8 5 -19 10 -25 10 -5 0
-3 -5 5 -10z"/>
<path d="M2778 33 c7 -3 16 -2 19 1 4 3 -2 6 -13 5 -11 0 -14 -3 -6 -6z"/>
<path d="M845 20 c4 -6 -8 -10 -27 -11 -18 -1 -25 -3 -15 -6 24 -6 67 5 67 17
0 6 -7 10 -16 10 -8 0 -12 -4 -9 -10z"/>
<path d="M1008 23 c7 -3 16 -2 19 1 4 3 -2 6 -13 5 -11 0 -14 -3 -6 -6z"/>
<path d="M1530 20 l-45 -7 45 -1 c25 0 54 3 65 8 20 9 20 9 0 8 -11 -1 -40 -4
-65 -8z"/>
<path d="M1935 21 c31 -13 93 -24 75 -12 -8 5 -33 12 -55 15 -27 4 -34 4 -20
-3z"/>
<path d="M2330 20 c-14 -4 -20 -8 -13 -9 6 -1 18 -3 26 -6 8 -4 14 0 14 10 0
8 -1 15 -1 14 -1 -1 -12 -5 -26 -9z"/>
<path d="M395 10 l-60 -7 60 -1 c33 -1 67 3 75 8 17 11 25 11 -75 0z"/>
<path d="M743 13 c9 -2 23 -2 30 0 6 3 -1 5 -18 5 -16 0 -22 -2 -12 -5z"/>
<path d="M1760 10 c20 -13 33 -13 25 0 -3 5 -14 10 -23 10 -15 0 -15 -2 -2
-10z"/>
<path d="M1870 10 c8 -5 24 -10 34 -10 26 0 18 6 -19 14 -22 5 -26 4 -15 -4z"/>
<path d="M2045 10 c11 -5 29 -8 40 -8 16 0 15 2 -5 8 -34 11 -60 11 -35 0z"/>
<path d="M248 3 c7 -3 16 -2 19 1 4 3 -2 6 -13 5 -11 0 -14 -3 -6 -6z"/>
<path d="M553 3 c9 -2 23 -2 30 0 6 3 -1 5 -18 5 -16 0 -22 -2 -12 -5z"/>
<path d="M638 3 c7 -3 16 -2 19 1 4 3 -2 6 -13 5 -11 0 -14 -3 -6 -6z"/>
<path d="M688 3 c6 -2 18 -2 25 0 6 3 1 5 -13 5 -14 0 -19 -2 -12 -5z"/>
<path d="M1193 3 c9 -2 23 -2 30 0 6 3 -1 5 -18 5 -16 0 -22 -2 -12 -5z"/>
<path d="M1398 3 c7 -3 16 -2 19 1 4 3 -2 6 -13 5 -11 0 -14 -3 -6 -6z"/>
<path d="M1708 3 c6 -2 18 -2 25 0 6 3 1 5 -13 5 -14 0 -19 -2 -12 -5z"/>
<path d="M2398 3 c7 -3 16 -2 19 1 4 3 -2 6 -13 5 -11 0 -14 -3 -6 -6z"/>
</g>
</svg>
