<?xml version="1.0" standalone="no"?>
<!DOCTYPE svg PUBLIC "-//W3C//DTD SVG 20010904//EN"
 "http://www.w3.org/TR/2001/REC-SVG-20010904/DTD/svg10.dtd">
<svg version="1.0" xmlns="http://www.w3.org/2000/svg"
 width="50.000000pt" height="50.000000pt" viewBox="0 0 50.000000 50.000000"
 preserveAspectRatio="xMidYMid meet">
<metadata>
Created by potrace 1.10, written by Peter Selinger 2001-2011
</metadata>
<g transform="translate(0.000000,50.000000) scale(0.100000,-0.100000)"
fill="#000000" stroke="none">
<path d="M170 454 c0 -3 9 -17 20 -31 36 -46 27 -68 -65 -162 -76 -78 -85 -91
-85 -125 0 -28 7 -45 30 -67 l29 -30 147 3 147 3 31 55 c44 78 44 148 -1 210
-38 51 -41 77 -13 113 11 14 20 28 20 31 0 3 -58 6 -130 6 -72 0 -130 -3 -130
-6z m215 -31 c-19 -45 -15 -69 19 -123 44 -67 45 -98 5 -178 -28 -58 -33 -62
-65 -62 -38 0 -47 17 -11 22 14 2 23 11 25 26 2 12 8 22 13 22 18 0 9 42 -10
47 -11 3 -21 13 -24 24 -5 17 -15 19 -82 19 l-77 0 26 31 c29 34 31 40 16 55
-6 6 -6 21 2 42 11 28 10 38 -4 63 l-17 29 96 0 c87 0 94 -2 88 -17z m-205
-173 c-16 -21 -30 -41 -30 -44 0 -3 38 -6 85 -6 50 0 85 -4 85 -10 0 -6 -27
-10 -60 -10 -33 0 -60 -4 -60 -10 0 -6 33 -10 80 -10 47 0 80 -4 80 -10 0 -6
-32 -10 -75 -10 -43 0 -75 -4 -75 -10 0 -6 28 -10 65 -10 37 0 65 -4 65 -10 0
-6 -30 -10 -70 -10 -40 0 -70 -4 -70 -10 0 -5 20 -10 45 -10 25 0 45 -4 45
-10 0 -6 -36 -10 -89 -10 -107 0 -141 18 -141 76 0 28 10 43 67 98 73 69 102
78 53 16z"/>
</g>
</svg>
