<?xml version="1.0" standalone="no"?>
<!DOCTYPE svg PUBLIC "-//W3C//DTD SVG 20010904//EN"
 "http://www.w3.org/TR/2001/REC-SVG-20010904/DTD/svg10.dtd">
<svg version="1.0" xmlns="http://www.w3.org/2000/svg"
 width="300.000000pt" height="300.000000pt" viewBox="0 0 300.000000 300.000000"
 preserveAspectRatio="xMidYMid meet">
<metadata>
Created by potrace 1.10, written by Peter Selinger 2001-2011
</metadata>
<g transform="translate(0.000000,300.000000) scale(0.100000,-0.100000)"
fill="#000000" stroke="none">
<path d="M126 2878 c-23 -18 -22 145 -16 -2208 0 -74 0 -144 0 -155 -1 -11 -1
-86 -1 -166 1 -114 4 -149 15 -158 22 -18 2729 -19 2751 -1 14 11 15 151 14
1345 -1 733 -5 1338 -10 1346 -7 12 -220 14 -1371 14 -1255 0 -1364 -1 -1382
-17z m2744 -179 l0 -170 -31 21 c-16 12 -32 20 -35 18 -2 -3 11 -16 31 -29 37
-25 45 -53 19 -63 -8 -3 -13 -2 -9 3 8 14 -74 76 -86 64 -9 -9 88 -90 103 -85
11 3 10 -30 -1 -47 -8 -12 -20 -6 -65 29 -31 23 -59 41 -61 38 -3 -3 13 -17
35 -32 44 -29 48 -37 25 -56 -12 -10 -20 -9 -42 5 l-28 18 24 -27 c19 -20 22
-29 13 -38 -8 -8 -15 -8 -27 2 -8 7 -15 8 -15 2 0 -5 7 -13 16 -16 9 -4 14 -9
11 -12 -3 -3 -16 0 -29 7 -23 12 -23 12 -4 -10 23 -25 15 -27 -22 -4 l-27 17
24 -27 c14 -15 19 -27 13 -27 -6 0 -9 -7 -5 -17 5 -13 2 -15 -14 -11 -16 4
-19 2 -16 -13 3 -11 11 -19 19 -19 19 0 28 -20 14 -33 -9 -9 -14 -8 -23 4 -7
9 -23 22 -37 29 -22 12 -24 11 -13 -2 7 -8 9 -19 5 -23 -4 -5 0 -5 8 0 12 6
13 5 3 -6 -18 -18 -16 -28 5 -23 9 2 28 -5 42 -15 20 -16 23 -22 12 -33 -10
-10 -14 -9 -18 10 -4 12 -10 19 -16 16 -5 -3 -20 1 -33 10 -28 18 -39 20 -30
6 3 -5 2 -17 -2 -25 -8 -13 -13 -12 -33 10 -13 14 -28 25 -34 25 -5 0 3 -13
19 -30 l28 -29 -34 -44 c-21 -28 -40 -43 -49 -40 -12 4 -12 3 -2 -5 11 -7 5
-20 -24 -60 -21 -28 -40 -50 -41 -48 -2 2 4 25 13 52 32 93 34 98 46 86 7 -7
17 -12 22 -12 6 0 3 7 -8 15 -10 7 -15 18 -12 23 3 5 6 43 7 86 2 67 -1 80
-20 100 -16 17 -26 47 -35 102 -11 76 -13 80 -46 96 -58 28 -218 38 -537 32
l-298 -5 -70 -36 c-38 -19 -92 -50 -120 -68 -34 -22 -66 -34 -102 -37 -32 -3
-62 -13 -80 -27 -15 -12 -44 -32 -63 -44 -91 -58 -121 -270 -76 -534 16 -87
32 -112 22 -33 -4 30 -11 84 -16 120 -4 36 -7 115 -6 175 1 99 5 116 30 168
16 31 32 57 36 57 4 0 13 12 20 28 l13 27 9 -34 c6 -23 6 -36 -1 -40 -7 -5 -9
-73 -7 -206 5 -210 12 -285 28 -285 6 0 8 10 5 23 -13 50 -20 150 -10 144 5
-3 15 -2 23 4 12 7 10 9 -7 9 -19 0 -22 5 -21 39 0 31 5 41 22 46 l21 6 -22
11 c-25 12 -30 46 -10 67 7 8 7 11 1 8 -14 -8 -24 25 -17 53 3 11 10 20 15 20
6 0 6 6 -1 14 -15 18 12 106 40 132 10 9 19 14 19 10 0 -4 16 2 35 14 41 25
61 19 43 -13 -10 -19 -9 -20 4 -10 8 7 18 9 23 5 4 -4 2 3 -4 16 -12 22 -11
23 23 20 20 -1 42 4 48 11 11 10 7 11 -16 7 -29 -5 -25 9 4 16 8 2 21 11 28
21 7 9 18 17 24 17 5 0 23 10 40 21 29 21 32 21 77 7 26 -8 45 -20 43 -27 -1
-7 2 -10 7 -7 5 4 11 3 14 -1 2 -5 2 -3 1 4 -5 18 15 27 22 9 6 -16 45 -27
114 -32 79 -6 90 -9 90 -21 0 -7 5 -13 11 -13 5 0 7 5 4 10 -4 6 7 10 25 10
17 0 29 4 26 9 -6 9 -92 20 -178 24 -27 1 -48 5 -48 10 0 4 -9 7 -20 7 -11 0
-20 5 -20 11 0 6 -8 8 -19 4 -11 -3 -22 -1 -26 5 -3 5 -17 10 -30 10 -31 0
-43 20 -13 21 13 1 27 0 33 -1 5 -1 22 -3 37 -5 15 -2 32 -6 38 -10 5 -3 10
-2 10 4 0 5 11 8 25 5 14 -2 25 -1 25 4 0 4 14 9 31 10 22 2 30 -1 26 -10 -3
-9 6 -13 29 -14 25 0 31 3 24 12 -8 9 -1 12 29 12 30 1 38 -3 37 -16 0 -9 7
-18 17 -20 9 -2 17 1 17 7 0 6 -4 11 -10 11 -5 0 -10 5 -10 10 0 6 21 9 53 6
28 -2 60 0 69 5 16 9 17 7 7 -15 -7 -14 -19 -27 -28 -29 -11 -3 -9 -5 6 -6 12
0 25 -5 28 -11 3 -5 16 -10 28 -9 l22 0 -22 11 c-13 6 -23 20 -23 32 0 20 0
20 16 -2 11 -15 25 -22 50 -22 35 0 44 16 22 38 -9 9 -9 12 -1 12 7 0 15 -5
18 -10 5 -8 11 -8 20 0 10 8 16 7 24 -7 6 -10 11 -13 11 -7 0 25 190 -12 190
-38 0 -3 -17 -12 -37 -19 -47 -16 -47 -16 -83 -18 -16 0 -30 -5 -30 -10 0 -6
16 -7 35 -4 24 4 35 2 35 -6 0 -8 6 -7 16 3 8 9 20 13 26 10 7 -5 8 -2 3 7 -7
12 -6 12 7 1 13 -10 17 -10 21 0 4 11 9 -55 6 -78 0 -4 4 -10 10 -14 16 -9 4
-35 -22 -48 -21 -10 -21 -11 -2 -11 11 -1 26 8 33 19 28 46 44 -12 17 -64 -12
-23 -13 -27 -1 -23 22 9 24 0 11 -56 -9 -41 -18 -57 -44 -74 -41 -28 -134 -63
-183 -70 -21 -3 -38 -10 -38 -15 0 -14 154 28 212 58 38 20 40 18 23 -18 -7
-18 -16 -45 -20 -60 -3 -16 -12 -28 -19 -28 -8 0 -16 -9 -18 -20 -2 -12 -7
-19 -11 -18 -5 2 -15 -12 -22 -29 -8 -20 -21 -33 -32 -34 -29 0 -264 -1 -320
0 -36 1 -53 5 -53 13 0 10 -3 9 -9 -1 -7 -11 -18 -11 -60 -2 -29 6 -65 11 -81
11 -17 0 -30 5 -30 11 0 8 -6 7 -17 -2 -15 -12 -16 -12 -11 3 10 26 -13 46
-42 38 l-25 -8 28 -1 c17 -1 27 -7 27 -16 0 -18 -41 -20 -57 -4 -16 16 -5 39
18 39 10 0 19 4 19 10 0 10 -27 3 -47 -13 -10 -7 -13 -4 -13 11 0 33 -11 52
-29 52 -9 0 -21 4 -26 8 -6 5 -54 28 -107 52 -54 23 -98 46 -98 50 0 4 -16 11
-35 14 -19 4 -35 11 -35 15 0 5 -7 11 -15 15 -26 10 -16 -10 12 -25 16 -8 62
-32 103 -55 41 -23 108 -54 148 -69 l72 -29 0 -48 c0 -27 4 -47 9 -44 5 3 14
0 20 -8 9 -11 8 -15 -6 -20 -10 -4 -19 -2 -21 3 -2 6 -8 11 -13 11 -4 0 -6 -6
-3 -13 5 -13 -121 -77 -151 -77 -20 0 -93 -30 -135 -55 -19 -11 -42 -19 -52
-17 -9 1 -19 -2 -23 -7 -3 -6 -17 -11 -31 -11 -13 0 -24 -4 -24 -10 0 -9 9 -8
48 6 9 4 27 6 39 5 12 -1 44 12 70 30 35 24 60 34 93 35 31 1 76 17 145 50
113 55 127 57 375 39 219 -16 390 -9 390 17 0 6 22 37 48 67 26 31 61 73 76
93 20 27 35 37 51 36 27 -3 27 -2 -33 -81 -24 -32 -42 -60 -40 -63 3 -2 24 23
47 56 23 33 46 60 50 60 21 0 16 -17 -20 -65 -21 -28 -39 -58 -39 -65 0 -7 19
15 41 48 23 34 45 62 50 62 22 0 14 -23 -28 -79 -25 -34 -44 -64 -41 -66 2 -3
24 23 48 58 24 34 49 66 57 70 7 4 13 13 13 20 0 7 10 23 23 37 12 14 30 38
40 53 19 29 19 29 37 9 11 -11 24 -22 31 -24 9 -3 4 -16 -14 -40 l-27 -36 22
-5 c12 -4 25 -2 28 3 3 4 14 2 24 -6 11 -7 16 -17 12 -21 -4 -4 -11 -1 -16 7
-5 8 -12 11 -16 7 -4 -4 1 -13 11 -21 17 -12 17 -15 -10 -49 -23 -29 -32 -34
-43 -24 -10 8 -11 12 -3 15 9 3 9 8 0 18 -9 11 -8 19 7 37 17 19 16 19 -9 -2
-23 -21 -27 -22 -27 -7 0 10 -5 14 -11 10 -8 -4 -8 -9 0 -17 24 -24 9 -29 -15
-6 -20 18 -28 20 -32 11 -2 -8 -18 -29 -34 -48 -17 -19 -28 -37 -26 -40 3 -3
20 13 38 36 18 23 35 38 38 36 3 -3 -2 -14 -10 -23 -8 -10 -18 -25 -22 -33 -4
-8 5 0 21 18 35 41 52 31 20 -12 -29 -39 -40 -56 -33 -56 2 0 18 18 34 40 29
40 29 40 52 22 l23 -19 -28 -37 c-25 -33 -33 -37 -59 -32 -46 9 -236 29 -276
30 -25 1 -35 -3 -35 -14 0 -16 7 -16 39 -4 12 4 17 4 13 -2 -3 -6 9 -9 27 -9
31 1 33 0 27 -24 -15 -56 -120 -51 -146 7 -5 12 -13 22 -16 22 -12 0 -20 -33
-10 -43 5 -5 7 -17 4 -26 -4 -12 -3 -13 5 -3 7 11 17 11 51 1 58 -17 112 0
128 41 10 27 14 29 45 24 18 -3 45 -9 59 -14 15 -4 41 -7 58 -6 17 1 31 -1 31
-5 0 -4 10 -9 23 -11 20 -4 19 -6 -13 -21 l-35 -17 33 6 c36 6 36 6 22 -30 -8
-21 -5 -28 15 -45 41 -32 34 -70 -23 -122 -66 -60 -90 -78 -95 -73 -2 2 -10
-2 -17 -11 -7 -8 -9 -15 -6 -15 13 0 71 32 116 64 72 51 73 52 55 16 -11 -22
-13 -35 -6 -39 7 -5 4 -18 -9 -39 -11 -18 -20 -38 -20 -45 0 -13 -81 -70 -140
-99 -49 -24 -70 -23 -71 5 -1 12 -3 32 -4 45 -2 16 5 27 19 33 18 7 17 8 -9 6
-30 -2 -30 -3 -32 -67 -3 -69 -8 -90 -20 -90 -5 0 -7 20 -5 44 5 62 -10 85
-52 83 -19 -1 -34 -5 -33 -10 1 -4 -22 -21 -50 -38 -29 -17 -53 -26 -53 -19 0
6 -5 8 -11 4 -8 -5 -6 -10 5 -16 9 -5 16 -16 16 -25 0 -9 6 -13 15 -9 8 3 15
1 15 -4 0 -5 -9 -12 -20 -15 -11 -3 -20 -11 -20 -16 0 -6 5 -7 12 -3 8 5 9 2
5 -9 -8 -21 -8 -21 36 -2 41 17 93 28 127 27 13 0 37 11 53 24 16 13 37 24 47
24 10 0 56 22 101 50 45 27 85 50 89 50 4 0 5 -11 2 -25 -2 -14 -7 -25 -11
-25 -3 0 -7 -19 -7 -42 -1 -23 -6 -44 -12 -46 -6 -2 -8 -10 -5 -18 3 -8 0 -14
-6 -14 -6 0 -10 -3 -10 -7 3 -18 -2 -32 -13 -45 -7 -7 -20 -26 -28 -42 -8 -16
-29 -35 -45 -42 -60 -25 -240 -44 -414 -44 l-171 0 2 -25 c3 -28 15 -32 32
-11 9 11 55 16 211 20 118 3 226 11 264 20 51 11 67 12 77 2 8 -8 9 -18 2 -29
-5 -9 -6 -17 -2 -17 4 0 -2 -10 -13 -23 -11 -12 -19 -31 -17 -41 7 -45 -73
-109 -154 -122 -15 -2 -38 -7 -52 -9 -14 -3 -47 -8 -75 -10 -27 -3 -84 -9
-125 -14 -41 -5 -141 -9 -221 -10 -80 -1 -186 -3 -235 -6 -49 -2 -150 -6 -224
-10 -74 -3 -151 -8 -171 -11 -19 -3 -120 -5 -225 -6 -176 0 -196 2 -294 28
-58 15 -107 30 -110 33 -3 3 -12 7 -20 9 -8 2 -16 8 -18 13 -2 5 -12 9 -23 9
-10 0 -19 5 -19 10 0 6 -6 10 -13 10 -8 0 -28 15 -45 32 -16 18 -48 47 -70 65
-29 24 -40 39 -38 58 0 14 5 25 9 25 5 0 5 5 2 10 -4 6 -11 7 -17 4 -6 -4 -8
-3 -5 3 4 6 -3 27 -13 49 -22 42 -26 108 -9 167 l10 39 17 -31 c9 -17 39 -54
66 -83 49 -52 173 -158 186 -158 6 0 41 -73 41 -87 1 -11 20 -33 30 -33 4 0
-3 24 -16 53 -14 28 -25 57 -25 62 0 6 -39 39 -86 74 -52 39 -83 69 -80 77 3
8 0 11 -8 8 -8 -3 -31 16 -55 43 -43 50 -62 106 -42 126 8 8 11 7 11 -6 0 -9
5 -17 11 -17 5 0 7 -6 3 -12 -4 -7 -4 -10 1 -6 4 4 14 1 22 -7 17 -17 43 -20
43 -4 0 5 -5 7 -10 4 -5 -3 -10 -2 -10 3 0 5 -9 12 -19 15 -10 2 -24 13 -29
24 -13 24 30 79 71 89 38 9 34 -11 -5 -24 l-33 -10 35 0 c19 0 60 3 91 7 l56
7 6 -146 c5 -132 20 -230 34 -216 3 3 -2 58 -12 123 -17 120 -16 193 4 364 1
3 22 9 49 12 106 14 126 18 132 24 16 17 -175 -17 -233 -42 -46 -20 -230 46
-247 89 -4 11 -20 32 -34 45 -14 14 -26 29 -26 34 0 6 9 2 20 -8 26 -23 25
-15 -1 30 -17 28 -21 47 -17 93 4 59 37 139 56 135 6 -1 15 11 20 27 15 41
167 130 196 113 6 -3 8 -3 4 2 -4 4 -3 14 4 22 14 17 -14 7 -104 -38 -91 -45
-143 -91 -171 -152 -37 -78 -41 -115 -21 -203 15 -69 22 -83 63 -124 61 -61
162 -96 246 -85 l56 7 -7 -29 c-4 -15 -7 -29 -8 -29 -1 -1 -41 -4 -91 -7 -83
-6 -91 -2 -31 17 10 4 16 9 13 13 -14 13 -89 -32 -117 -71 -84 -118 -108 -194
-90 -279 29 -137 59 -198 127 -257 70 -62 181 -116 303 -147 68 -17 354 -24
535 -13 222 14 342 20 570 25 121 3 238 8 260 10 22 3 66 7 99 10 143 14 248
48 293 97 23 25 64 132 77 202 4 21 20 55 36 75 38 48 69 144 76 238 3 43 10
82 15 88 5 5 9 50 9 100 0 79 -3 94 -20 110 -31 28 -28 108 6 152 28 37 31 38
58 18 19 -15 19 -15 -4 -40 -13 -14 -21 -27 -18 -30 3 -3 21 12 41 35 l35 41
0 -40 c0 -23 -3 -43 -9 -46 -5 -4 -9 -11 -9 -16 0 -6 5 -7 10 -4 7 4 10 -243
10 -734 l0 -741 -1311 0 -1310 0 -37 27 c-20 15 -41 30 -45 34 -11 8 10 49 24
49 6 0 25 -11 42 -24 41 -30 70 -44 35 -16 -64 50 -73 59 -66 65 4 4 29 -9 56
-29 27 -20 53 -36 57 -36 6 0 -23 23 -93 76 -2 1 4 14 14 29 l17 26 28 -27
c16 -15 29 -23 29 -17 0 6 -12 20 -27 31 -23 17 -25 22 -14 36 17 20 30 20 53
-1 10 -9 18 -11 18 -6 0 6 -10 18 -22 26 -20 14 -21 18 -8 26 8 6 11 11 7 11
-4 0 1 10 13 22 l20 22 37 -35 c35 -32 30 -19 -9 27 -18 21 -16 54 4 54 5 0
21 -13 35 -30 13 -16 30 -30 36 -30 6 0 -6 18 -27 39 -38 39 -38 39 -21 67
l17 29 -21 -24 c-21 -23 -22 -23 -44 -5 -12 10 -23 20 -25 20 -2 1 13 25 34
53 20 29 34 54 32 57 -3 3 -20 -18 -38 -46 -18 -27 -35 -50 -39 -50 -16 0 -42
38 -32 45 6 3 11 11 11 18 0 6 -6 2 -14 -9 -8 -10 -18 -16 -21 -12 -4 4 9 30
30 58 21 28 36 53 33 55 -2 2 -24 -23 -48 -56 -66 -88 -68 -91 -91 -79 -10 6
-19 16 -19 22 0 8 7 6 17 -4 15 -16 17 -15 33 5 33 45 100 157 100 169 0 7
-18 -19 -41 -57 -49 -84 -47 -81 -61 -67 -8 8 -5 21 16 52 14 22 22 40 17 40
-5 0 -19 -16 -31 -35 -22 -36 -40 -46 -40 -22 0 7 4 17 8 23 21 23 55 88 41
77 -9 -7 -18 -11 -21 -8 -3 3 -11 -3 -19 -12 -13 -16 -12 -17 3 -4 24 18 23 6
-3 -35 -22 -36 -35 -45 -25 -16 6 15 5 15 -11 -2 -13 -13 -15 -20 -5 -23 13
-5 7 -23 -8 -23 -21 0 -6 76 23 119 17 24 24 40 17 36 -10 -6 -12 -4 -6 11 5
14 4 16 -4 8 -6 -6 -12 -20 -15 -32 -2 -12 -8 -30 -14 -39 -8 -15 -10 -11 -11
20 0 21 5 48 11 59 8 15 8 19 0 14 -7 -5 -11 8 -11 39 0 31 5 47 15 51 8 4 15
11 15 16 0 6 -6 5 -15 -2 -13 -11 -15 90 -15 904 l0 916 1370 0 1370 0 0 -171z
m-30 -215 c0 -3 -13 4 -30 16 -16 12 -30 24 -30 26 0 3 14 -4 30 -16 17 -12
30 -24 30 -26z m-705 -24 c3 -5 1 -10 -4 -10 -6 0 -11 5 -11 10 0 6 2 10 4 10
3 0 8 -4 11 -10z m709 -69 c3 -4 -1 -17 -9 -27 -16 -23 -40 -7 -29 19 7 18 29
23 38 8z m23 -111 c0 -56 -5 -104 -10 -107 -6 -4 -7 -1 -3 6 5 8 3 11 -7 9 -9
-2 -16 0 -16 5 -3 30 1 39 13 34 9 -4 13 0 12 11 -3 20 -31 23 -31 4 0 -8 -7
-19 -16 -25 -9 -7 -16 -15 -17 -20 -2 -21 -9 -30 -20 -23 -8 5 5 28 39 72 49
61 51 66 33 79 -18 13 -18 14 0 34 11 12 20 21 22 21 1 0 2 -45 1 -100z m-61
59 c9 -16 -12 -33 -31 -25 -14 5 -15 9 -5 21 15 18 26 19 36 4z m30 -31 c4 -7
-2 -18 -14 -26 -12 -8 -22 -21 -22 -29 0 -8 -5 -13 -12 -11 -21 7 -20 26 2 33
11 3 18 11 15 16 -7 11 2 29 15 29 5 0 12 -5 16 -12z m-63 -4 c3 -4 2 -15 -4
-26 -9 -16 -13 -17 -27 -6 -16 12 -16 11 -2 -6 14 -18 13 -19 -5 -12 -19 7
-19 6 -2 -11 14 -15 19 -15 26 -4 5 7 11 9 14 5 7 -13 -10 -54 -23 -54 -5 0
-10 -6 -10 -14 0 -18 -16 -29 -30 -21 -13 8 -1 35 16 35 8 0 14 7 14 15 0 8
-6 15 -14 15 -27 0 -28 21 -1 55 26 35 36 41 48 29z m55 -135 c5 -11 11 -20
15 -20 22 3 27 -2 25 -25 l-2 -26 -19 23 c-10 13 -25 24 -34 25 -21 3 -24 9
-17 28 8 22 23 20 32 -5z m-31 -49 c-3 -20 -32 -19 -31 1 1 11 -5 15 -17 12
-21 -6 -25 7 -8 24 15 15 60 -15 56 -37z m-150 4 c3 -8 1 -20 -5 -26 -15 -15
-43 8 -35 28 7 19 32 18 40 -2z m91 -16 c-6 -18 -28 -21 -28 -4 0 9 7 16 16
16 9 0 14 -5 12 -12z m100 -16 c-2 -8 -9 -17 -17 -20 -9 -3 -11 2 -7 19 3 13
3 18 0 12 -3 -7 -10 -13 -16 -13 -7 0 -6 5 2 14 14 18 42 9 38 -12z m-158 3
c0 -8 -9 -19 -20 -25 -11 -6 -20 -15 -20 -21 0 -18 -43 -68 -53 -62 -6 3 -7 1
-3 -5 4 -7 2 -12 -3 -12 -19 0 -12 17 35 79 46 61 64 74 64 46z m-68 -20 c-7
-39 -59 -85 -76 -68 -13 14 50 96 68 90 6 -2 9 -12 8 -22z m177 -2 c20 -15 38
-31 39 -35 6 -14 29 -9 29 7 0 8 -4 12 -8 9 -14 -9 -19 14 -5 25 8 7 16 8 19
4 9 -14 6 -103 -3 -103 -4 0 -10 -9 -13 -20 -3 -11 -10 -20 -16 -20 -17 0 -13
28 6 38 15 9 15 11 1 26 -9 9 -22 16 -28 16 -6 0 -9 4 -6 9 3 5 -3 11 -14 14
-11 3 -20 13 -20 22 0 9 -4 13 -10 10 -13 -8 -32 4 -25 16 9 13 15 12 54 -18z
m-128 -68 c-37 -50 -52 -63 -57 -52 -4 10 12 38 42 77 66 84 79 62 15 -25z
m139 -3 c0 -5 -6 -17 -14 -28 -19 -25 -31 -12 -14 15 13 21 28 28 28 13z m19
-28 c-17 -21 -31 -17 -19 6 6 11 15 18 21 14 6 -4 6 -11 -2 -20z m49 -99 c-1
-63 -5 -88 -16 -98 -12 -9 -16 -9 -19 1 -3 6 -11 12 -19 12 -18 0 -18 24 1 40
8 7 15 18 15 24 0 6 -7 2 -15 -8 -13 -17 -15 -18 -21 -2 -10 26 14 48 38 35
26 -14 37 -2 13 15 -18 13 -18 15 -2 40 10 14 19 26 21 26 2 0 4 -38 4 -85z
m-105 -94 c-20 -25 -38 -48 -39 -50 -2 -1 -7 0 -13 4 -13 7 38 75 56 75 7 0
10 7 7 15 -5 11 -2 13 10 9 14 -5 11 -14 -21 -53z m-459 -57 c3 -8 2 -12 -4
-9 -6 3 -10 10 -10 16 0 14 7 11 14 -7z m-1624 -354 c0 -5 -9 -10 -21 -10 -11
0 -17 5 -14 10 3 6 13 10 21 10 8 0 14 -4 14 -10z m-54 -7 c-10 -11 -56 -11
-56 -1 0 4 14 8 32 8 17 0 28 -3 24 -7z m1798 -95 c3 -13 6 -35 6 -50 0 -24
-5 -27 -52 -38 -49 -10 -53 -9 -70 12 -16 22 -16 24 0 35 9 7 22 16 28 21 13
12 67 41 75 42 4 0 9 -10 13 -22z m-2240 -516 c2 -4 1 -14 -4 -22 -7 -11 -12
-12 -21 -3 -6 6 -8 16 -5 22 8 13 23 14 30 3z m-33 -60 c-15 -28 -14 -37 2
-23 11 8 18 6 31 -8 28 -31 10 -45 -25 -20 -25 18 -29 26 -27 59 3 33 5 37 16
26 11 -10 11 -19 3 -34z m65 27 c10 -17 -13 -36 -27 -22 -12 12 -4 33 11 33 5
0 12 -5 16 -11z m64 -51 c33 -24 34 -26 20 -48 -8 -12 -14 -10 -39 14 -16 15
-27 35 -24 42 7 18 9 18 43 -8z m-40 -29 c0 -5 -6 -7 -12 -3 -7 4 -4 -2 6 -14
23 -26 45 -30 25 -4 -13 15 -12 16 3 3 14 -10 15 -18 7 -32 -12 -24 -13 -24
-49 3 -28 20 -29 23 -13 40 18 20 33 24 33 7z m-79 -16 c12 -15 12 -16 -4 -10
-15 6 -16 4 -7 -14 9 -16 14 -18 25 -9 11 9 20 7 39 -7 26 -19 33 -33 16 -33
-5 0 -10 4 -10 10 0 5 -10 15 -22 21 -20 10 -19 8 5 -19 40 -42 16 -52 -26
-10 -17 18 -35 31 -39 30 -5 -1 -8 12 -8 28 0 34 11 38 31 13z m199 -63 l-12
-23 -22 28 c-13 17 -25 24 -29 18 -4 -6 2 -18 13 -28 19 -17 27 -45 13 -45 -9
0 -53 42 -53 51 0 4 12 21 27 38 l27 31 24 -24 c21 -20 22 -27 12 -46z m-160
-45 c0 -2 -3 -10 -6 -19 -14 -37 -62 -1 -62 46 l1 27 33 -26 c19 -14 34 -27
34 -28z m110 -14 c0 -3 -4 -13 -10 -21 -8 -12 -12 -12 -36 0 -27 15 -41 36
-30 47 3 3 16 -2 28 -13 23 -19 23 -19 6 2 -27 31 -21 37 12 12 17 -12 30 -24
30 -27z m-146 -43 c-8 -12 -34 11 -34 30 0 13 3 12 20 -3 11 -10 17 -22 14
-27z m90 18 c18 -15 24 -26 17 -30 -6 -4 -14 -1 -17 7 -3 8 -14 17 -25 20 -10
3 -19 10 -19 16 0 16 12 13 44 -13z m-24 -18 c36 -26 39 -42 8 -34 -13 3 -17
3 -10 0 13 -6 17 -34 5 -34 -5 0 -21 -21 -37 -46 -16 -25 -34 -43 -40 -41 -6
3 -12 -5 -12 -17 -1 -16 11 -30 45 -52 41 -26 43 -29 23 -32 -13 -2 -33 5 -45
15 -19 16 -20 16 -8 1 12 -16 11 -18 -7 -18 -20 0 -21 5 -20 130 1 75 5 127
10 124 5 -3 7 -13 4 -21 -3 -8 -1 -11 5 -8 5 4 22 -1 37 -11 l27 -17 -22 25
c-26 28 -30 43 -9 35 10 -4 13 -1 9 9 -7 20 3 18 37 -8z"/>
<path d="M440 2725 c-25 -8 -65 -31 -89 -52 -141 -120 -114 -345 51 -427 42
-21 66 -26 122 -26 125 1 195 42 245 141 107 214 -95 436 -329 364z m205 -26
c156 -73 188 -276 63 -396 -48 -46 -96 -63 -181 -63 -131 0 -221 68 -249 189
-24 106 37 227 137 272 58 27 171 26 230 -2z"/>
<path d="M465 2700 c-104 -22 -175 -112 -175 -220 0 -87 46 -162 123 -202 47
-23 162 -28 212 -9 83 34 145 123 145 211 0 52 -35 134 -71 167 -51 47 -153
70 -234 53z m146 -31 c93 -31 156 -146 130 -238 -8 -28 -31 -40 -31 -16 0 9
-13 21 -30 26 -36 13 -39 36 -6 49 35 13 43 47 18 79 -16 21 -27 26 -56 24
-32 -2 -36 0 -36 23 0 35 -39 52 -85 35 -19 -7 -39 -9 -45 -6 -6 3 -27 -7 -47
-24 -21 -17 -43 -31 -50 -31 -17 0 -26 -35 -18 -71 6 -24 2 -34 -17 -50 l-23
-21 -3 34 c-5 60 39 133 108 175 40 25 135 30 191 12z m-25 -53 c-2 -6 -16
-40 -31 -76 -15 -36 -29 -67 -31 -69 -2 -2 -27 6 -56 17 -29 12 -66 26 -81 32
l-28 10 22 31 22 31 51 -51 c28 -28 55 -51 60 -51 4 0 7 30 6 68 -1 37 -2 69
-1 72 1 4 17 4 37 2 21 -3 33 -9 30 -16z m-98 -13 c5 -17 -26 -29 -40 -15 -6
6 -7 15 -3 22 9 14 37 9 43 -7z m188 -48 c9 -14 15 -28 13 -30 -3 -2 -34 -17
-69 -33 -42 -19 -60 -32 -50 -36 8 -3 41 -15 72 -26 l58 -21 -15 -30 c-9 -16
-19 -29 -23 -29 -4 1 -33 25 -66 55 l-59 54 53 61 c28 33 56 60 61 60 5 0 16
-11 25 -25z m-269 -71 c-3 -3 -12 -4 -19 -1 -8 3 -5 6 6 6 11 1 17 -2 13 -5z
m113 -117 l0 -87 -27 6 c-44 10 -46 18 -19 79 15 32 26 61 26 66 0 4 -30 -3
-67 -17 -71 -27 -83 -24 -83 24 0 23 2 23 85 20 l85 -3 0 -88z m73 11 l48 -57
-30 -16 c-50 -26 -58 -21 -66 43 -3 31 -9 68 -12 82 -6 28 -7 29 60 -52z
m-148 -7 c3 -5 1 -12 -5 -16 -5 -3 -10 -17 -10 -31 0 -32 -11 -30 -51 8 l-34
32 30 7 c45 10 63 10 70 0z"/>
<path d="M2782 2475 c20 -14 41 -32 46 -41 5 -9 15 -15 22 -12 11 3 10 6 -1
16 -55 45 -79 62 -90 62 -8 0 3 -11 23 -25z"/>
<path d="M1870 2445 c0 -8 2 -15 4 -15 2 0 6 7 10 15 3 8 1 15 -4 15 -6 0 -10
-7 -10 -15z"/>
<path d="M1795 2440 l-30 -6 33 -8 c36 -9 45 -6 34 10 -4 5 -20 7 -37 4z"/>
<path d="M2171 2429 c-16 -13 -18 -19 -8 -19 15 0 43 27 36 34 -2 3 -15 -4
-28 -15z"/>
<path d="M2275 2440 c-3 -5 -1 -10 4 -10 6 0 11 5 11 10 0 6 -2 10 -4 10 -3 0
-8 -4 -11 -10z"/>
<path d="M1510 2427 c-8 -7 -22 -21 -30 -32 -13 -17 -11 -16 17 3 34 24 50 42
36 42 -4 0 -15 -6 -23 -13z"/>
<path d="M1553 2403 c9 -2 25 -2 35 0 9 3 1 5 -18 5 -19 0 -27 -2 -17 -5z"/>
<path d="M1943 2402 c-10 -7 -10 -12 1 -27 13 -18 14 -17 14 8 0 15 -1 27 -2
27 0 0 -7 -4 -13 -8z"/>
<path d="M1999 2385 c-1 -5 -1 -13 0 -17 0 -4 -6 -5 -14 -2 -9 4 -15 0 -15 -9
0 -12 9 -15 42 -12 24 2 44 9 46 15 2 5 18 10 35 10 18 0 39 5 47 11 11 8 2 9
-34 5 -28 -3 -53 -12 -58 -19 -6 -9 -8 -8 -8 3 0 12 -2 13 -9 1 -7 -11 -11
-10 -20 5 -6 11 -11 15 -12 9z"/>
<path d="M2164 2379 c-6 -11 57 -20 74 -10 11 6 4 10 -27 13 -23 2 -44 1 -47
-3z"/>
<path d="M1540 2371 c0 -5 -8 -12 -17 -14 -14 -4 -12 -5 5 -6 13 -1 22 5 22
14 0 8 -2 15 -5 15 -3 0 -5 -4 -5 -9z"/>
<path d="M1593 2359 c2 -22 13 -25 20 -5 3 8 0 17 -8 20 -9 3 -13 -2 -12 -15z"/>
<path d="M1552 2350 c-8 -14 -9 -20 -1 -20 6 0 9 -9 6 -20 -3 -11 -1 -20 4
-20 5 0 9 18 9 40 0 22 -1 40 -3 40 -1 0 -8 -9 -15 -20z"/>
<path d="M1630 2360 c0 -5 5 -10 10 -10 6 0 10 5 10 10 0 6 -4 10 -10 10 -5 0
-10 -4 -10 -10z"/>
<path d="M1630 2329 c0 -5 5 -7 10 -4 6 3 10 8 10 11 0 2 -4 4 -10 4 -5 0 -10
-5 -10 -11z"/>
<path d="M1595 2320 c3 -5 11 -10 16 -10 6 0 7 5 4 10 -3 6 -11 10 -16 10 -6
0 -7 -4 -4 -10z"/>
<path d="M1885 2320 c-4 -6 7 -10 25 -10 18 0 29 4 25 10 -3 6 -15 10 -25 10
-10 0 -22 -4 -25 -10z"/>
<path d="M2029 2304 c-5 -15 -12 -30 -14 -34 -2 -4 2 -7 10 -7 8 0 15 6 15 14
0 7 5 13 11 13 5 0 7 -4 4 -10 -3 -6 1 -7 9 -4 14 5 13 9 -1 30 -19 30 -21 30
-34 -2z"/>
<path d="M1292 2300 c0 -14 2 -19 5 -12 2 6 2 18 0 25 -3 6 -5 1 -5 -13z"/>
<path d="M1390 2308 c0 -27 13 -58 21 -52 5 3 9 1 9 -5 0 -5 -8 -12 -17 -14
-13 -3 -11 -5 6 -6 19 -1 22 3 18 21 -4 12 -1 29 5 37 10 13 10 14 -2 4 -20
-19 -29 -16 -25 7 2 11 0 20 -6 20 -5 0 -9 -6 -9 -12z"/>
<path d="M1967 2306 c-3 -8 -1 -17 6 -19 9 -3 9 -7 0 -18 -8 -10 -9 -20 -3
-29 8 -12 10 -10 10 8 0 12 5 22 10 22 6 0 10 11 10 25 0 27 -24 35 -33 11z"/>
<path d="M222 2275 c0 -16 2 -22 5 -12 2 9 2 23 0 30 -3 6 -5 -1 -5 -18z"/>
<path d="M1478 2293 c-10 -3 -18 -11 -18 -18 0 -7 -5 -15 -12 -17 -8 -3 -6 -7
5 -11 9 -3 16 -3 16 1 -3 21 3 31 15 26 8 -3 17 -1 20 5 8 12 -4 19 -26 14z"/>
<path d="M1760 2286 c0 -9 7 -16 16 -16 9 0 14 5 12 12 -6 18 -28 21 -28 4z"/>
<path d="M2103 2283 c0 -7 6 -13 14 -13 7 0 13 6 13 13 0 8 -6 14 -13 14 -8 0
-14 -6 -14 -14z"/>
<path d="M2167 2293 c19 -3 34 -11 36 -21 3 -12 5 -10 6 6 1 19 -3 22 -36 20
-37 -1 -37 -1 -6 -5z"/>
<path d="M1251 2272 c7 -10 23 -24 38 -30 37 -17 68 -36 89 -55 10 -10 21 -14
24 -11 4 3 9 -4 13 -15 3 -12 14 -21 24 -21 9 0 26 -7 37 -15 10 -8 27 -15 37
-15 11 0 15 -4 11 -12 -5 -7 -3 -8 6 -3 15 10 -6 29 -57 51 -17 7 -34 18 -38
24 -4 6 -21 17 -38 25 -18 8 -57 33 -87 55 -61 44 -76 49 -59 22z"/>
<path d="M1361 2274 c0 -11 3 -14 6 -6 3 7 2 16 -1 19 -3 4 -6 -2 -5 -13z"/>
<path d="M1650 2286 c0 -3 14 -12 30 -21 17 -9 30 -13 30 -11 0 3 -13 12 -30
21 -16 9 -30 13 -30 11z"/>
<path d="M1853 2283 c9 -2 23 -2 30 0 6 3 -1 5 -18 5 -16 0 -22 -2 -12 -5z"/>
<path d="M2165 2270 c3 -5 10 -10 16 -10 5 0 9 5 9 10 0 6 -7 10 -16 10 -8 0
-12 -4 -9 -10z"/>
<path d="M1530 2260 c0 -5 5 -10 10 -10 6 0 10 5 10 10 0 6 -4 10 -10 10 -5 0
-10 -4 -10 -10z"/>
<path d="M1920 2256 c0 -21 -38 -27 -43 -7 -3 11 -5 8 -6 -7 -1 -19 3 -21 23
-16 16 4 25 1 29 -10 4 -9 12 -16 19 -16 11 0 11 2 0 8 -9 7 -10 15 -3 35 9
22 8 27 -4 27 -8 0 -15 -6 -15 -14z"/>
<path d="M2255 2259 c-11 -16 -2 -19 40 -12 32 5 35 8 20 14 -29 11 -53 10
-60 -2z"/>
<path d="M1360 2241 c0 -6 5 -13 10 -16 6 -3 10 1 10 9 0 9 -4 16 -10 16 -5 0
-10 -4 -10 -9z"/>
<path d="M1635 2240 c3 -5 8 -10 11 -10 2 0 4 5 4 10 0 6 -5 10 -11 10 -5 0
-7 -4 -4 -10z"/>
<path d="M2030 2220 c0 -23 -4 -30 -20 -30 -11 0 -20 -4 -20 -9 0 -6 12 -6 29
-1 21 6 31 5 34 -3 2 -7 4 5 5 25 1 23 -4 38 -13 42 -11 4 -15 -2 -15 -24z
m17 -12 c-3 -8 -6 -5 -6 6 -1 11 2 17 5 13 3 -3 4 -12 1 -19z"/>
<path d="M223 2200 c0 -25 2 -35 4 -22 2 12 2 32 0 45 -2 12 -4 2 -4 -23z"/>
<path d="M2153 2225 c0 -8 4 -12 9 -9 5 3 6 10 3 15 -9 13 -12 11 -12 -6z"/>
<path d="M2231 2224 c0 -11 3 -14 6 -6 3 7 2 16 -1 19 -3 4 -6 -2 -5 -13z"/>
<path d="M1516 2210 c12 -5 25 -13 29 -19 3 -6 12 -11 18 -11 7 0 1 9 -13 20
-14 11 -32 19 -40 19 -9 0 -6 -4 6 -9z"/>
<path d="M1660 2205 c0 -8 4 -15 10 -15 5 0 7 7 4 15 -4 8 -8 15 -10 15 -2 0
-4 -7 -4 -15z"/>
<path d="M1996 2212 c-3 -5 1 -9 9 -9 8 0 15 4 15 9 0 4 -4 8 -9 8 -6 0 -12
-4 -15 -8z"/>
<path d="M2091 2204 c0 -11 3 -14 6 -6 3 7 2 16 -1 19 -3 4 -6 -2 -5 -13z"/>
<path d="M2111 2204 c0 -11 3 -14 6 -6 3 7 2 16 -1 19 -3 4 -6 -2 -5 -13z"/>
<path d="M2318 2199 c-21 -11 -38 -22 -38 -24 0 -5 79 32 89 41 12 11 -18 1
-51 -17z"/>
<path d="M2178 2180 c-18 -16 -27 -30 -20 -30 7 0 15 7 18 15 4 9 13 13 23 10
12 -3 17 1 18 15 2 26 -1 25 -39 -10z"/>
<path d="M392 2175 c2 -22 8 -30 23 -30 15 0 21 8 23 30 2 17 0 26 -4 22 -5
-5 -9 -14 -9 -20 0 -7 -4 -12 -10 -12 -5 0 -10 5 -10 12 0 6 -4 15 -9 20 -4 4
-6 -5 -4 -22z"/>
<path d="M457 2194 c-4 -4 -7 -18 -7 -31 0 -20 5 -24 23 -21 16 2 22 10 22 28
0 24 -23 39 -38 24z m33 -23 c0 -6 -4 -13 -10 -16 -5 -3 -10 1 -10 9 0 9 5 16
10 16 6 0 10 -4 10 -9z"/>
<path d="M521 2177 c-6 -16 -11 -29 -11 -30 0 -1 11 -2 25 -2 28 0 32 12 11
41 -14 18 -15 18 -25 -9z"/>
<path d="M570 2170 c0 -16 5 -30 10 -30 6 0 10 14 10 30 0 17 -4 30 -10 30 -5
0 -10 -13 -10 -30z"/>
<path d="M604 2185 c-4 -8 -4 -22 0 -30 6 -17 46 -21 46 -4 0 6 -7 9 -15 5 -9
-3 -15 0 -15 9 0 8 7 15 16 15 8 0 12 5 9 10 -9 15 -35 12 -41 -5z"/>
<path d="M1791 2174 c0 -11 3 -14 6 -6 3 7 2 16 -1 19 -3 4 -6 -2 -5 -13z"/>
<path d="M1746 2165 c4 -8 8 -15 10 -15 2 0 4 7 4 15 0 8 -4 15 -10 15 -5 0
-7 -7 -4 -15z"/>
<path d="M2085 2170 c-3 -5 -1 -10 4 -10 6 0 11 5 11 10 0 6 -2 10 -4 10 -3 0
-8 -4 -11 -10z"/>
<path d="M1895 2161 c-3 -5 -1 -12 5 -16 5 -3 10 1 10 9 0 18 -6 21 -15 7z"/>
<path d="M2033 2130 c0 -25 2 -35 4 -22 2 12 2 32 0 45 -2 12 -4 2 -4 -23z"/>
<path d="M2230 2154 c-14 -8 -31 -12 -38 -9 -7 3 -10 0 -7 -6 7 -11 40 -3 70
17 25 18 8 16 -25 -2z"/>
<path d="M780 2131 c-47 -14 -93 -29 -102 -33 -19 -8 -38 -66 -38 -115 0 -25
-5 -33 -17 -34 -98 -3 -187 -24 -177 -41 4 -6 10 -6 17 1 6 6 24 11 41 11 34
0 32 -7 -4 -13 -36 -6 -63 -18 -81 -36 -21 -22 -9 -74 25 -106 14 -13 26 -29
26 -35 0 -5 5 -10 11 -10 5 0 8 4 4 10 -3 5 14 -2 37 -15 24 -14 49 -25 56
-25 7 0 31 -9 52 -19 22 -11 42 -15 46 -10 4 7 -96 59 -115 59 -3 0 -24 9 -46
21 -51 27 -95 68 -95 88 1 27 28 53 57 54 15 1 30 5 33 8 3 4 32 10 66 14 l60
6 2 -41 c6 -87 39 -211 49 -182 3 7 -2 27 -10 45 -8 18 -18 66 -22 107 -9 94
-9 94 3 158 10 60 29 79 85 88 21 4 54 17 73 30 39 27 39 26 19 -41 -20 -63
-12 -163 22 -300 13 -55 25 -106 26 -114 1 -17 54 -40 87 -36 14 1 42 3 63 4
20 0 37 6 37 11 0 7 -25 9 -72 5 -40 -3 -79 -2 -87 3 -17 12 -58 192 -67 294
-8 94 9 178 38 185 14 4 16 8 7 19 -14 17 -4 18 -109 -15z"/>
<path d="M952 2148 c-23 -5 -40 -13 -37 -18 3 -4 -2 -11 -11 -14 -9 -4 -14 -9
-11 -12 3 -3 15 -1 26 6 15 8 21 8 21 0 0 -6 13 -2 29 9 33 24 46 27 35 9 -4
-7 2 -4 14 6 12 11 22 21 22 23 0 5 -43 1 -88 -9z m25 -14 c-3 -3 -12 -4 -19
-1 -8 3 -5 6 6 6 11 1 17 -2 13 -5z"/>
<path d="M1666 2151 c-4 -7 -5 -15 -2 -18 9 -9 19 4 14 18 -4 11 -6 11 -12 0z"/>
<path d="M2400 2151 c0 -5 -16 -15 -35 -21 -40 -13 -52 -26 -24 -26 10 0 19 3
19 7 0 4 14 12 30 19 29 12 41 30 20 30 -5 0 -10 -4 -10 -9z"/>
<path d="M221 2134 c0 -11 3 -14 6 -6 3 7 2 16 -1 19 -3 4 -6 -2 -5 -13z"/>
<path d="M1225 2126 c30 -26 51 -34 40 -16 -3 6 -21 17 -38 26 l-32 15 30 -25z"/>
<path d="M1988 2113 c5 -21 7 -23 10 -9 2 10 0 22 -6 28 -6 6 -7 0 -4 -19z"/>
<path d="M2142 2113 c-19 -13 -28 -14 -43 -5 -10 7 -24 12 -31 11 -7 0 -2 -5
12 -10 20 -8 22 -12 10 -20 -11 -8 -9 -9 10 -3 30 8 80 33 80 39 0 9 -15 4
-38 -12z"/>
<path d="M1801 2104 c0 -11 3 -14 6 -6 3 7 2 16 -1 19 -3 4 -6 -2 -5 -13z"/>
<path d="M1931 2093 c-1 -26 6 -28 32 -9 21 16 22 23 2 23 -8 0 -15 -7 -16
-16 0 -12 -3 -11 -9 4 -8 19 -9 19 -9 -2z"/>
<path d="M1551 2088 c-1 -10 5 -18 12 -18 7 0 25 -11 40 -25 19 -18 27 -22 27
-11 0 24 14 27 74 15 49 -10 56 -15 56 -35 0 -25 9 -30 25 -15 6 5 24 11 40
14 24 3 21 4 -12 6 -36 1 -43 4 -43 21 0 16 -7 20 -34 20 -19 0 -47 5 -62 10
-20 8 -29 8 -35 -1 -5 -9 -14 -8 -33 5 -15 9 -31 14 -35 11 -5 -3 -12 1 -14 7
-3 8 -6 6 -6 -4z"/>
<path d="M1905 2090 c-3 -5 -1 -10 4 -10 6 0 11 5 11 10 0 6 -2 10 -4 10 -3 0
-8 -4 -11 -10z"/>
<path d="M980 2080 c0 -5 5 -10 10 -10 6 0 10 5 10 10 0 6 -4 10 -10 10 -5 0
-10 -4 -10 -10z"/>
<path d="M1225 2080 c-4 -6 -4 -10 -1 -10 2 0 11 -3 20 -6 9 -3 16 -2 16 4 0
14 -28 23 -35 12z"/>
<path d="M2225 2080 c-3 -5 1 -10 10 -10 9 0 13 5 10 10 -3 6 -8 10 -10 10 -2
0 -7 -4 -10 -10z"/>
<path d="M2146 2069 c2 -4 -6 -7 -19 -7 -62 -1 -101 -8 -105 -20 -2 -6 -8 -12
-13 -12 -6 0 -7 5 -3 12 5 7 3 8 -7 2 -8 -4 -27 -7 -43 -5 -20 2 -26 -1 -21
-9 5 -9 1 -10 -16 -6 -23 7 -23 7 -5 -9 13 -10 23 -12 30 -5 5 5 20 10 32 10
37 0 217 39 227 49 6 6 -3 9 -26 8 -19 -1 -33 -5 -31 -8z"/>
<path d="M930 2046 c0 -7 7 -13 15 -13 8 0 15 4 15 8 0 4 -7 9 -15 13 -9 3
-15 0 -15 -8z"/>
<path d="M985 2050 c-3 -5 -1 -10 4 -10 6 0 11 5 11 10 0 6 -2 10 -4 10 -3 0
-8 -4 -11 -10z"/>
<path d="M1263 2047 c-3 -7 -3 -9 2 -5 4 4 16 3 26 -3 11 -5 19 -6 19 -1 0 15
-39 22 -47 9z"/>
<path d="M895 2030 c-19 -8 -19 -9 3 -9 12 -1 22 4 22 9 0 6 -1 10 -2 9 -2 0
-12 -4 -23 -9z"/>
<path d="M2695 1993 c-20 -26 -43 -52 -51 -56 -8 -4 -14 -13 -14 -19 0 -7 -10
-23 -22 -37 -13 -15 -7 -12 13 7 20 18 40 32 45 30 10 -3 69 55 84 82 20 38 9
30 -30 -19 -43 -54 -76 -72 -38 -21 12 17 25 30 30 30 9 0 31 40 25 47 -3 2
-22 -17 -42 -44z"/>
<path d="M1868 2023 c7 -3 16 -2 19 1 4 3 -2 6 -13 5 -11 0 -14 -3 -6 -6z"/>
<path d="M1280 2004 c0 -19 32 -26 48 -11 12 13 9 15 -17 19 -20 3 -31 0 -31
-8z"/>
<path d="M611 2001 c-8 -5 -20 -7 -27 -4 -6 2 -15 0 -19 -6 -10 -17 41 -13 55
4 14 17 11 19 -9 6z"/>
<path d="M975 2000 c-3 -5 -2 -10 4 -10 5 0 13 5 16 10 3 6 2 10 -4 10 -5 0
-13 -4 -16 -10z"/>
<path d="M887 1985 c-4 -8 -2 -17 3 -20 6 -4 10 3 10 14 0 25 -6 27 -13 6z"/>
<path d="M920 1970 c-8 -5 -12 -11 -9 -14 2 -3 11 -1 19 4 8 5 12 11 9 14 -2
3 -11 1 -19 -4z"/>
<path d="M1338 1973 c7 -3 16 -2 19 1 4 3 -2 6 -13 5 -11 0 -14 -3 -6 -6z"/>
<path d="M2388 1945 c-3 -14 -1 -25 3 -25 5 0 9 11 9 25 0 14 -2 25 -4 25 -2
0 -6 -11 -8 -25z"/>
<path d="M1245 1950 c-3 -5 -1 -10 4 -10 6 0 11 5 11 10 0 6 -2 10 -4 10 -3 0
-8 -4 -11 -10z"/>
<path d="M1465 1940 c3 -5 8 -10 11 -10 2 0 4 5 4 10 0 6 -5 10 -11 10 -5 0
-7 -4 -4 -10z"/>
<path d="M2123 1943 c-18 -2 -33 -8 -33 -13 0 -10 49 -3 85 11 20 8 20 8 0 7
-11 -1 -35 -3 -52 -5z"/>
<path d="M2330 1930 c-11 -11 -20 -17 -20 -12 0 4 -5 0 -10 -10 -14 -24 -2
-47 21 -41 11 3 18 11 15 19 -3 7 4 24 15 38 24 31 8 35 -21 6z m-15 -40 c3
-5 1 -10 -4 -10 -6 0 -11 5 -11 10 0 6 2 10 4 10 3 0 8 -4 11 -10z"/>
<path d="M1400 1930 c0 -5 5 -10 11 -10 5 0 7 5 4 10 -3 6 -8 10 -11 10 -2 0
-4 -4 -4 -10z"/>
<path d="M960 1919 c0 -5 5 -7 10 -4 6 3 10 8 10 11 0 2 -4 4 -10 4 -5 0 -10
-5 -10 -11z"/>
<path d="M1998 1925 c-2 -3 -38 -8 -79 -11 -41 -4 -77 -9 -81 -13 -10 -9 156
5 207 17 l40 10 -41 1 c-22 1 -43 -1 -46 -4z"/>
<path d="M1198 1913 c6 -2 18 -2 25 0 6 3 1 5 -13 5 -14 0 -19 -2 -12 -5z"/>
<path d="M1755 1911 c-2 -5 8 -11 23 -14 35 -7 38 -3 7 11 -13 6 -27 7 -30 3z"/>
<path d="M2361 1904 c0 -11 3 -14 6 -6 3 7 2 16 -1 19 -3 4 -6 -2 -5 -13z"/>
<path d="M915 1900 c-3 -5 1 -10 9 -10 9 0 16 5 16 10 0 6 -4 10 -9 10 -6 0
-13 -4 -16 -10z"/>
<path d="M1400 1900 c-8 -5 -11 -12 -7 -16 4 -4 13 -2 19 4 15 15 7 24 -12 12z"/>
<path d="M1480 1895 c0 -8 4 -15 10 -15 5 0 7 7 4 15 -4 8 -8 15 -10 15 -2 0
-4 -7 -4 -15z"/>
<path d="M2100 1890 c0 -5 5 -10 10 -10 6 0 10 5 10 10 0 6 -4 10 -10 10 -5 0
-10 -4 -10 -10z"/>
<path d="M2210 1870 c0 -11 5 -20 11 -20 5 0 7 5 3 11 -3 6 0 15 7 20 11 7 10
9 -3 9 -11 0 -18 -8 -18 -20z"/>
<path d="M945 1870 c-19 -8 -19 -9 3 -9 12 -1 22 4 22 9 0 6 -1 10 -2 9 -2 0
-12 -4 -23 -9z"/>
<path d="M2265 1849 c-11 -17 1 -21 15 -4 8 9 8 15 2 15 -6 0 -14 -5 -17 -11z"/>
<path d="M2561 1827 c-13 -21 -12 -21 5 -5 10 10 16 20 13 22 -3 3 -11 -5 -18
-17z"/>
<path d="M958 1816 c-20 -15 -23 -26 -8 -26 5 0 14 9 20 20 12 23 11 24 -12 6z"/>
<path d="M2116 1821 c-11 -4 -15 -10 -10 -13 5 -4 18 0 29 8 20 15 12 17 -19
5z"/>
<path d="M2160 1815 c-11 -13 -10 -14 4 -9 9 3 16 10 16 15 0 13 -6 11 -20 -6z"/>
<path d="M1520 1803 c-30 -7 -93 -25 -140 -40 -47 -14 -87 -25 -89 -24 -2 2
-7 -2 -11 -9 -4 -6 -17 -12 -28 -13 -12 -1 -22 -5 -22 -9 0 -4 -7 -8 -15 -8
-8 0 -15 -4 -15 -10 0 -13 6 -13 28 0 44 25 187 72 262 86 32 6 93 26 103 34
12 10 -13 8 -73 -7z"/>
<path d="M498 1798 c9 -9 15 -9 24 0 9 9 7 12 -12 12 -19 0 -21 -3 -12 -12z"/>
<path d="M560 1801 c0 -5 5 -13 10 -16 6 -3 10 -2 10 4 0 5 -4 13 -10 16 -5 3
-10 2 -10 -4z"/>
<path d="M973 1784 c-3 -8 -2 -19 3 -24 5 -5 9 1 9 16 0 28 -3 30 -12 8z"/>
<path d="M898 1773 c6 -2 18 -2 25 0 6 3 1 5 -13 5 -14 0 -19 -2 -12 -5z"/>
<path d="M1785 1770 c-3 -5 3 -10 15 -10 12 0 18 5 15 10 -3 6 -10 10 -15 10
-5 0 -12 -4 -15 -10z"/>
<path d="M1890 1769 c0 -5 9 -9 20 -9 11 0 20 2 20 4 0 2 -9 6 -20 9 -11 3
-20 1 -20 -4z"/>
<path d="M555 1760 c3 -5 8 -10 11 -10 2 0 4 5 4 10 0 6 -5 10 -11 10 -5 0 -7
-4 -4 -10z"/>
<path d="M1700 1760 c0 -5 5 -10 11 -10 5 0 7 5 4 10 -3 6 -8 10 -11 10 -2 0
-4 -4 -4 -10z"/>
<path d="M1840 1760 c0 -12 28 -21 35 -11 2 5 -4 11 -15 14 -11 3 -20 2 -20
-3z"/>
<path d="M1970 1761 c0 -5 13 -11 29 -14 17 -4 31 -14 33 -24 3 -15 5 -14 10
5 4 13 4 22 2 19 -3 -3 -21 1 -40 9 -19 8 -34 10 -34 5z"/>
<path d="M2086 1745 c-3 -9 -2 -24 4 -33 9 -16 9 -16 10 1 0 17 25 24 34 8 3
-4 17 -6 32 -3 16 3 21 7 14 12 -7 4 -21 5 -33 2 -16 -4 -19 -2 -14 11 7 19
-8 23 -19 6 -5 -8 -9 -8 -14 1 -5 8 -9 7 -14 -5z"/>
<path d="M2330 1740 c13 -25 55 -43 81 -35 21 7 25 20 9 30 -5 3 -10 2 -10 -4
0 -5 -12 -5 -30 2 -16 6 -30 15 -30 19 0 4 -7 8 -15 8 -13 0 -14 -4 -5 -20z"/>
<path d="M1757 1741 c-18 -6 -18 -8 -2 -21 14 -11 16 -11 13 1 -2 9 4 13 15
11 20 -3 23 4 5 11 -7 2 -21 1 -31 -2z"/>
<path d="M2230 1739 c0 -5 -4 -7 -10 -4 -5 3 -10 1 -10 -4 0 -6 9 -11 20 -11
13 0 18 5 14 15 -7 17 -14 20 -14 4z"/>
<path d="M954 1728 c-5 -7 -3 -8 7 -3 12 8 12 6 0 -8 -11 -14 -11 -17 0 -18 8
-1 19 0 24 1 6 2 18 2 29 2 18 -1 18 -1 0 13 -14 10 -21 10 -26 2 -5 -8 -8 -6
-8 6 0 19 -15 23 -26 5z"/>
<path d="M1658 1733 c6 -2 18 -2 25 0 6 3 1 5 -13 5 -14 0 -19 -2 -12 -5z"/>
<path d="M906 1715 c4 -8 13 -15 21 -15 12 0 12 2 -1 15 -8 8 -17 15 -20 15
-3 0 -3 -7 0 -15z"/>
<path d="M1998 1723 c7 -3 16 -2 19 1 4 3 -2 6 -13 5 -11 0 -14 -3 -6 -6z"/>
<path d="M2505 1710 c18 -20 35 -26 35 -12 0 4 -12 12 -26 19 -26 12 -26 12
-9 -7z"/>
<path d="M1784 1709 c-4 -8 87 -21 94 -14 3 3 -2 5 -12 5 -9 0 -15 4 -12 8 3
5 -11 8 -30 8 -20 -1 -38 -4 -40 -7z"/>
<path d="M1720 1698 c0 -5 6 -16 14 -23 12 -12 14 -11 12 9 -1 21 -26 34 -26
14z"/>
<path d="M1936 1695 c4 -8 13 -15 21 -15 13 0 13 3 3 15 -7 8 -16 15 -21 15
-5 0 -6 -7 -3 -15z"/>
<path d="M1692 1660 c2 -22 8 -38 13 -36 6 1 9 11 7 21 -2 11 1 14 8 10 7 -4
4 4 -5 19 -10 14 -19 26 -21 26 -3 0 -3 -18 -2 -40z"/>
<path d="M1903 1693 c9 -2 14 -9 11 -15 -4 -7 -2 -8 5 -4 15 10 4 26 -17 25
-15 -1 -15 -2 1 -6z"/>
<path d="M2560 1692 c0 -5 14 -7 30 -4 17 2 30 6 30 8 0 2 -13 4 -30 4 -16 0
-30 -4 -30 -8z"/>
<path d="M1411 1669 c-48 -29 -60 -44 -67 -78 -6 -27 -2 -33 40 -62 25 -18 46
-37 46 -42 0 -4 5 -5 10 -2 6 3 10 -1 10 -10 0 -9 5 -13 11 -10 6 4 20 -2 32
-13 21 -18 83 -52 96 -52 3 0 -16 15 -44 32 -27 18 -52 35 -55 38 -3 3 -22 16
-42 30 -43 28 -50 59 -15 61 18 1 19 2 4 6 -14 4 -18 11 -14 29 2 14 0 27 -4
30 -5 3 -9 -1 -10 -8 -1 -32 -8 -71 -13 -76 -8 -8 -36 19 -36 35 0 25 32 63
74 88 22 14 34 25 26 25 -8 0 -30 -9 -49 -21z"/>
<path d="M1491 1663 c0 -12 -4 -30 -7 -40 -5 -14 -4 -15 5 -7 7 6 11 24 8 40
-3 21 -4 23 -6 7z"/>
<path d="M2073 1660 c-1 -11 2 -20 6 -20 5 0 11 9 14 20 3 12 0 20 -7 20 -6 0
-12 -9 -13 -20z"/>
<path d="M2130 1669 c0 -4 -8 -10 -17 -12 -13 -3 -12 -5 5 -6 14 -1 20 -5 17
-12 -4 -6 1 -5 13 2 14 9 30 9 60 2 28 -7 44 -7 51 0 8 8 11 8 11 -1 0 -7 7
-12 15 -12 21 0 19 20 -2 22 -10 0 -22 2 -28 3 -5 2 -30 4 -55 5 l-45 3 35 7
c33 8 33 8 -12 7 -27 0 -48 -4 -48 -8z"/>
<path d="M2603 1670 c-13 -5 -23 -12 -23 -15 0 -4 4 -4 9 -1 12 8 43 -29 34
-39 -5 -4 -2 -5 4 -1 10 5 10 11 0 27 -10 16 -9 21 3 29 19 12 3 12 -27 0z"/>
<path d="M2316 1655 c-3 -9 0 -15 9 -15 9 0 12 6 9 15 -4 8 -7 15 -9 15 -2 0
-5 -7 -9 -15z"/>
<path d="M2393 1663 c-25 -9 -13 -20 22 -21 19 -1 37 3 41 9 10 17 -4 23 -22
9 -10 -9 -18 -10 -22 -3 -4 5 -13 8 -19 6z"/>
<path d="M450 1651 c0 -6 4 -13 10 -16 6 -3 7 1 4 9 -7 18 -14 21 -14 7z"/>
<path d="M1965 1650 l-30 -8 27 -1 c15 0 30 4 33 9 3 6 5 9 3 9 -2 -1 -16 -5
-33 -9z"/>
<path d="M2023 1653 c9 -2 23 -2 30 0 6 3 -1 5 -18 5 -16 0 -22 -2 -12 -5z"/>
<path d="M2350 1650 c0 -5 5 -10 10 -10 6 0 10 5 10 10 0 6 -4 10 -10 10 -5 0
-10 -4 -10 -10z"/>
<path d="M2500 1656 c0 -9 30 -14 35 -6 4 6 -3 10 -14 10 -12 0 -21 -2 -21 -4z"/>
<path d="M2645 1650 c-3 -5 -1 -10 4 -10 6 0 11 5 11 10 0 6 -2 10 -4 10 -3 0
-8 -4 -11 -10z"/>
<path d="M1554 1636 c-29 -16 -58 -46 -44 -46 6 0 13 6 16 14 3 8 16 17 30 20
13 4 24 11 24 16 0 6 -1 10 -2 9 -2 -1 -12 -6 -24 -13z"/>
<path d="M1871 1634 c0 -11 3 -14 6 -6 3 7 2 16 -1 19 -3 4 -6 -2 -5 -13z"/>
<path d="M2554 1641 c8 -13 -68 -20 -76 -7 -14 20 -8 -8 7 -34 14 -24 14 -24
15 -4 0 18 8 23 38 27 24 3 41 0 48 -9 6 -8 15 -14 19 -14 5 0 -2 11 -15 25
-22 24 -47 35 -36 16z"/>
<path d="M2670 1635 c0 -8 2 -15 4 -15 2 0 6 7 10 15 3 8 1 15 -4 15 -6 0 -10
-7 -10 -15z"/>
<path d="M1673 1616 c1 -11 9 -21 17 -23 10 -3 11 -2 4 4 -6 4 -14 15 -17 23
-5 11 -6 9 -4 -4z"/>
<path d="M416 1605 c10 -8 26 -14 34 -15 8 0 2 7 -14 15 -36 19 -45 19 -20 0z"/>
<path d="M1750 1609 c0 -5 5 -7 10 -4 6 3 10 8 10 11 0 2 -4 4 -10 4 -5 0 -10
-5 -10 -11z"/>
<path d="M1922 1600 c0 -14 2 -19 5 -12 2 6 2 18 0 25 -3 6 -5 1 -5 -13z"/>
<path d="M1160 1576 c-36 -19 -94 -40 -130 -46 -79 -15 -108 -28 -123 -55 -26
-45 -10 -327 29 -515 26 -124 48 -146 150 -153 28 -2 56 -7 62 -11 7 -4 12 -1
12 8 0 15 -10 18 -110 32 -56 8 -72 15 -66 29 3 8 1 15 -4 17 -22 7 -57 204
-66 368 -7 139 -6 167 9 201 14 35 16 35 118 56 l104 21 26 -25 c23 -21 26
-29 18 -61 -13 -58 -18 -131 -25 -382 -6 -200 -5 -233 7 -223 14 11 15 68 10
337 0 38 4 63 12 69 9 7 9 10 -1 14 -6 2 -9 9 -6 14 3 6 7 49 10 96 2 47 6 88
8 91 3 3 13 -1 22 -9 9 -7 4 4 -10 26 -15 22 -38 46 -52 53 -28 15 -32 32 -6
32 15 0 86 49 72 50 -3 0 -34 -15 -70 -34z"/>
<path d="M1966 1602 c-2 -4 -1 -14 5 -22 7 -12 9 -10 9 8 0 23 -5 28 -14 14z"/>
<path d="M2041 1594 c0 -11 3 -14 6 -6 3 7 2 16 -1 19 -3 4 -6 -2 -5 -13z"/>
<path d="M2091 1594 c0 -11 3 -14 6 -6 3 7 2 16 -1 19 -3 4 -6 -2 -5 -13z"/>
<path d="M2115 1600 c-3 -5 -1 -10 4 -10 6 0 11 5 11 10 0 6 -2 10 -4 10 -3 0
-8 -4 -11 -10z"/>
<path d="M2291 1600 c0 -8 10 -28 23 -44 17 -20 26 -25 31 -16 5 9 4 11 -3 6
-7 -4 -13 -2 -13 3 -1 6 -2 16 -3 21 0 6 -5 10 -11 9 -5 0 -12 8 -16 18 -5 13
-8 14 -8 3z"/>
<path d="M2377 1602 c-17 -7 -18 -9 -3 -21 9 -8 19 -11 23 -7 3 3 1 6 -6 6 -7
0 -9 5 -6 10 3 6 13 10 21 10 8 0 13 -4 10 -8 -2 -4 9 -9 26 -10 20 -2 29 2
26 10 -5 15 -64 21 -91 10z"/>
<path d="M1315 1590 c3 -5 8 -10 11 -10 2 0 4 5 4 10 0 6 -5 10 -11 10 -5 0
-7 -4 -4 -10z"/>
<path d="M1560 1586 c0 -7 -10 -16 -22 -20 -19 -5 -20 -8 -8 -16 10 -6 17 -5
22 5 6 10 16 11 41 4 17 -5 36 -9 42 -9 15 1 -28 24 -45 25 -8 0 -14 6 -12 13
1 6 -2 12 -8 12 -5 0 -10 -6 -10 -14z"/>
<path d="M2218 1593 c7 -3 16 -2 19 1 4 3 -2 6 -13 5 -11 0 -14 -3 -6 -6z"/>
<path d="M2530 1590 c0 -5 5 -10 11 -10 5 0 7 5 4 10 -3 6 -8 10 -11 10 -2 0
-4 -4 -4 -10z"/>
<path d="M494 1576 c11 -9 24 -16 30 -16 12 0 7 5 -24 19 -24 11 -24 11 -6 -3z"/>
<path d="M2660 1579 c0 -5 5 -7 10 -4 6 3 10 8 10 11 0 2 -4 4 -10 4 -5 0 -10
-5 -10 -11z"/>
<path d="M2148 1563 c7 -3 16 -2 19 1 4 3 -2 6 -13 5 -11 0 -14 -3 -6 -6z"/>
<path d="M2197 1550 c-3 -11 -1 -20 4 -20 5 0 9 9 9 20 0 11 -2 20 -4 20 -2 0
-6 -9 -9 -20z"/>
<path d="M2557 1563 c-14 -14 -6 -23 12 -14 10 6 22 7 26 3 5 -4 5 -1 1 6 -8
13 -29 16 -39 5z"/>
<path d="M618 1553 c6 -2 18 -2 25 0 6 3 1 5 -13 5 -14 0 -19 -2 -12 -5z"/>
<path d="M878 1553 c12 -2 30 -2 40 0 9 3 -1 5 -23 4 -22 0 -30 -2 -17 -4z"/>
<path d="M1215 1550 c-3 -5 -2 -10 4 -10 5 0 13 5 16 10 3 6 2 10 -4 10 -5 0
-13 -4 -16 -10z"/>
<path d="M1950 1550 c0 -5 7 -7 15 -4 8 4 15 8 15 10 0 2 -7 4 -15 4 -8 0 -15
-4 -15 -10z"/>
<path d="M2016 1544 c-8 -20 -8 -24 2 -24 4 0 8 9 9 20 2 24 -3 26 -11 4z"/>
<path d="M748 1543 c7 -3 16 -2 19 1 4 3 -2 6 -13 5 -11 0 -14 -3 -6 -6z"/>
<path d="M1870 1535 c0 -8 4 -15 8 -15 5 0 9 7 9 15 0 8 -4 15 -9 15 -4 0 -8
-7 -8 -15z"/>
<path d="M2456 1534 c-22 -21 -14 -28 21 -19 41 12 47 12 61 2 9 -7 11 -6 6 7
-3 9 -14 16 -24 16 -10 0 -25 3 -33 6 -8 3 -22 -2 -31 -12z"/>
<path d="M1561 1524 c0 -11 3 -14 6 -6 3 7 2 16 -1 19 -3 4 -6 -2 -5 -13z"/>
<path d="M1612 1520 c0 -14 2 -19 5 -12 2 6 2 18 0 25 -3 6 -5 1 -5 -13z"/>
<path d="M2058 1533 c7 -3 16 -2 19 1 4 3 -2 6 -13 5 -11 0 -14 -3 -6 -6z"/>
<path d="M2160 1529 c0 -5 5 -7 10 -4 6 3 10 8 10 11 0 2 -4 4 -10 4 -5 0 -10
-5 -10 -11z"/>
<path d="M538 1513 c6 -2 18 -2 25 0 6 3 1 5 -13 5 -14 0 -19 -2 -12 -5z"/>
<path d="M1630 1500 c0 -19 3 -21 12 -12 9 9 9 15 0 24 -9 9 -12 7 -12 -12z"/>
<path d="M1928 1513 c7 -3 16 -2 19 1 4 3 -2 6 -13 5 -11 0 -14 -3 -6 -6z"/>
<path d="M2032 1505 c-11 -12 -10 -15 3 -15 8 0 15 7 15 15 0 18 -2 18 -18 0z"/>
<path d="M2112 1481 l-2 -24 20 23 c24 28 24 26 2 26 -12 0 -19 -9 -20 -25z"/>
<path d="M2418 1493 c7 -3 16 -2 19 1 4 3 -2 6 -13 5 -11 0 -14 -3 -6 -6z"/>
<path d="M2508 1493 c7 -3 16 -2 19 1 4 3 -2 6 -13 5 -11 0 -14 -3 -6 -6z"/>
<path d="M1680 1479 c0 -5 5 -7 10 -4 6 3 10 8 10 11 0 2 -4 4 -10 4 -5 0 -10
-5 -10 -11z"/>
<path d="M1751 1464 c0 -11 3 -14 6 -6 3 7 2 16 -1 19 -3 4 -6 -2 -5 -13z"/>
<path d="M2016 1472 c-4 -7 -4 -12 1 -13 4 0 -1 -4 -12 -9 -16 -6 -14 -8 13
-7 18 0 29 3 24 6 -5 3 -11 13 -14 21 -3 10 -6 11 -12 2z"/>
<path d="M1566 1455 c4 -8 8 -15 10 -15 2 0 4 7 4 15 0 8 -4 15 -10 15 -5 0
-7 -7 -4 -15z"/>
<path d="M1808 1463 c7 -3 16 -2 19 1 4 3 -2 6 -13 5 -11 0 -14 -3 -6 -6z"/>
<path d="M1120 1450 c-10 -6 -11 -10 -2 -10 6 0 12 -7 12 -16 0 -8 -3 -13 -7
-11 -5 3 -14 -2 -22 -10 -12 -13 -11 -14 7 -8 17 5 21 3 16 -9 -3 -9 -1 -16 5
-16 8 0 11 16 10 45 -2 25 -3 45 -3 45 -1 0 -8 -5 -16 -10z"/>
<path d="M1152 1430 c0 -19 2 -27 5 -17 2 9 2 25 0 35 -3 9 -5 1 -5 -18z"/>
<path d="M1621 1444 c0 -11 3 -14 6 -6 3 7 2 16 -1 19 -3 4 -6 -2 -5 -13z"/>
<path d="M1074 1437 c-19 -10 -20 -14 -8 -25 11 -10 14 -10 14 2 0 8 6 16 13
19 6 2 10 7 7 10 -3 3 -15 0 -26 -6z"/>
<path d="M1878 1443 c6 -2 18 -2 25 0 6 3 1 5 -13 5 -14 0 -19 -2 -12 -5z"/>
<path d="M2423 1435 c0 -8 4 -15 9 -15 4 0 8 7 8 15 0 8 -4 15 -8 15 -5 0 -9
-7 -9 -15z"/>
<path d="M1011 1424 c0 -11 3 -14 6 -6 3 7 2 16 -1 19 -3 4 -6 -2 -5 -13z"/>
<path d="M2323 1433 c9 -2 23 -2 30 0 6 3 -1 5 -18 5 -16 0 -22 -2 -12 -5z"/>
<path d="M2370 1430 c0 -6 7 -10 15 -10 8 0 15 2 15 4 0 2 -7 6 -15 10 -8 3
-15 1 -15 -4z"/>
<path d="M1920 1420 c0 -5 4 -10 9 -10 6 0 13 5 16 10 3 6 -1 10 -9 10 -9 0
-16 -4 -16 -10z"/>
<path d="M1992 1410 c-8 -13 -8 -20 -2 -20 6 0 13 7 17 15 9 24 -1 27 -15 5z"/>
<path d="M2130 1420 c-8 -5 -10 -10 -5 -10 6 0 17 5 25 10 8 5 11 10 5 10 -5
0 -17 -5 -25 -10z"/>
<path d="M1730 1410 c0 -5 11 -9 24 -8 14 1 22 6 20 10 -7 12 -44 10 -44 -2z"/>
<path d="M2067 1409 c-9 -5 -22 -7 -27 -4 -6 3 -10 1 -10 -4 0 -6 5 -11 11
-11 5 0 7 -4 4 -10 -3 -5 -1 -10 4 -10 6 0 11 7 11 15 0 8 5 15 10 15 6 0 10
-5 10 -11 0 -5 5 -7 10 -4 12 7 14 35 3 35 -5 0 -16 -5 -26 -11z"/>
<path d="M2315 1400 c-3 -5 1 -10 10 -10 9 0 13 5 10 10 -3 6 -8 10 -10 10 -2
0 -7 -4 -10 -10z"/>
<path d="M960 1385 c0 -8 2 -15 4 -15 2 0 6 7 10 15 3 8 1 15 -4 15 -6 0 -10
-7 -10 -15z"/>
<path d="M1313 1312 c-2 -48 -7 -161 -13 -252 -10 -162 -9 -176 5 -232 l7 -28
-58 0 c-33 0 -66 -5 -74 -10 -8 -5 -10 -10 -5 -11 6 -1 -10 -6 -35 -10 -79
-13 80 0 245 21 l150 19 -105 -6 c-126 -6 -125 5 5 36 50 12 115 28 145 36 57
16 78 20 145 30 22 4 55 10 73 15 19 5 40 6 49 3 20 -8 33 14 33 55 l0 32 21
-21 c23 -23 60 -20 90 7 14 12 18 13 22 2 3 -7 6 12 6 42 0 36 -2 50 -8 41 -5
-8 -7 -20 -4 -28 7 -18 -12 -17 -27 2 -7 8 -23 15 -35 15 -12 0 -28 -7 -35
-15 -20 -24 -32 -18 -26 13 8 37 -1 47 -61 71 -29 11 -101 46 -160 77 -60 31
-146 77 -193 102 -47 24 -91 49 -97 54 -9 7 -13 7 -13 0 0 -9 54 -44 145 -95
75 -41 338 -167 350 -167 12 0 15 -16 15 -79 l0 -78 -77 -12 c-65 -11 -405
-89 -465 -107 -16 -5 -18 4 -18 84 0 109 11 243 19 238 3 -2 6 47 5 110 0 137
-18 173 -21 46z m665 -284 c5 -27 -46 -44 -67 -23 -15 15 -14 18 4 31 25 19
59 14 63 -8z"/>
<path d="M2132 1380 c0 -14 2 -19 5 -12 2 6 2 18 0 25 -3 6 -5 1 -5 -13z"/>
<path d="M1624 1371 c20 -22 26 -25 26 -13 0 4 -10 13 -22 21 -23 14 -23 14
-4 -8z"/>
<path d="M1854 1375 c11 -8 25 -15 30 -15 6 0 2 7 -8 15 -11 8 -25 15 -30 15
-6 0 -2 -7 8 -15z"/>
<path d="M2548 1383 c24 -9 12 -21 -20 -19 -18 2 -46 -1 -63 -5 -95 -25 -105
-26 -105 -18 0 9 -49 -18 -60 -33 -8 -10 -92 -28 -104 -21 -5 3 -6 1 -3 -4 11
-17 -14 -30 -87 -43 -52 -10 -71 -10 -74 -2 -6 18 -144 4 -159 -15 -19 -25
-53 -9 -131 62 -40 36 -76 65 -80 65 -12 0 113 -121 140 -136 15 -8 36 -14 48
-14 14 0 20 -7 21 -22 1 -18 3 -17 8 7 7 33 29 42 102 44 34 1 49 -3 53 -14 5
-14 9 -14 33 2 18 12 28 14 30 6 3 -8 13 -7 36 4 60 30 67 33 83 33 14 0 14
-3 4 -15 -7 -9 -12 -36 -12 -61 2 -28 -2 -46 -10 -48 -7 -2 -49 -11 -93 -19
-54 -10 -69 -15 -44 -16 19 -1 62 4 94 10 43 8 60 8 63 0 2 -6 10 -11 18 -11
8 0 14 -5 14 -11 0 -6 9 -8 21 -4 13 4 27 0 40 -11 10 -9 19 -12 19 -7 0 6 -7
13 -15 17 -25 9 -17 20 28 40 23 10 37 20 30 23 -6 2 -30 -5 -52 -16 -69 -35
-88 -28 -81 33 1 10 -4 23 -12 27 -10 7 -10 9 0 9 7 0 10 5 7 10 -13 21 7 48
55 70 27 13 51 29 54 36 4 10 24 12 46 4 16 -6 57 4 72 17 12 11 30 14 58 10
32 -4 42 -1 50 13 7 13 6 20 -6 24 -9 3 -19 6 -22 5 -4 0 -1 -3 6 -6z"/>
<path d="M1060 1364 c0 -8 5 -12 10 -9 6 3 10 10 10 16 0 5 -4 9 -10 9 -5 0
-10 -7 -10 -16z"/>
<path d="M982 1340 c0 -19 2 -27 5 -17 2 9 2 25 0 35 -3 9 -5 1 -5 -18z"/>
<path d="M940 1340 c-7 -14 -7 -20 0 -20 5 0 10 6 10 13 0 8 4 7 10 -3 8 -12
10 -11 10 8 0 27 -16 29 -30 2z"/>
<path d="M1022 1340 c0 -14 2 -19 5 -12 2 6 2 18 0 25 -3 6 -5 1 -5 -13z"/>
<path d="M1100 1349 c0 -5 5 -7 10 -4 6 3 10 8 10 11 0 2 -4 4 -10 4 -5 0 -10
-5 -10 -11z"/>
<path d="M1905 1350 l-30 -8 28 -1 c20 -1 26 -5 21 -13 -5 -9 -2 -9 9 1 17 14
23 32 10 30 -5 -1 -21 -5 -38 -9z"/>
<path d="M2205 1340 c-3 -5 -1 -10 4 -10 6 0 11 5 11 10 0 6 -2 10 -4 10 -3 0
-8 -4 -11 -10z"/>
<path d="M1136 1325 c4 -8 8 -15 10 -15 2 0 4 7 4 15 0 8 -4 15 -10 15 -5 0
-7 -7 -4 -15z"/>
<path d="M1058 1304 c-5 -4 -8 -21 -7 -38 0 -30 0 -30 10 -7 11 27 8 57 -3 45z"/>
<path d="M2005 1300 c-3 -6 1 -7 9 -4 18 7 21 14 7 14 -6 0 -13 -4 -16 -10z"/>
<path d="M2040 1300 c0 -6 7 -10 15 -10 8 0 15 2 15 4 0 2 -7 6 -15 10 -8 3
-15 1 -15 -4z"/>
<path d="M640 1274 c0 -14 4 -23 9 -20 5 3 7 15 4 26 -7 28 -13 25 -13 -6z"/>
<path d="M931 1273 c1 -18 3 -21 6 -10 2 9 9 15 14 12 5 -4 9 1 9 9 0 9 -7 16
-15 16 -10 0 -15 -9 -14 -27z"/>
<path d="M1836 1293 c5 -5 12 -12 15 -16 3 -5 9 -2 12 7 5 12 0 16 -15 16 -12
0 -17 -3 -12 -7z"/>
<path d="M560 1280 c0 -5 5 -10 11 -10 5 0 7 5 4 10 -3 6 -8 10 -11 10 -2 0
-4 -4 -4 -10z"/>
<path d="M1930 1280 c0 -5 5 -10 11 -10 5 0 7 5 4 10 -3 6 -8 10 -11 10 -2 0
-4 -4 -4 -10z"/>
<path d="M970 1259 c0 -5 -4 -7 -10 -4 -6 4 -6 -3 0 -21 9 -22 8 -25 -5 -20
-8 3 -15 0 -15 -7 0 -7 9 -13 20 -13 16 0 20 7 20 38 0 21 -2 38 -5 38 -3 0
-5 -5 -5 -11z"/>
<path d="M1020 1260 c-9 -6 -10 -10 -3 -10 6 0 15 5 18 10 8 12 4 12 -15 0z"/>
<path d="M1403 1254 c-5 -13 -7 -13 -14 -2 -6 9 -9 4 -9 -15 0 -25 2 -27 15
-13 8 8 15 19 15 24 0 6 6 13 13 15 9 4 9 6 -1 6 -7 1 -15 -6 -19 -15z"/>
<path d="M2660 1259 c0 -5 5 -7 10 -4 6 3 10 8 10 11 0 2 -4 4 -10 4 -5 0 -10
-5 -10 -11z"/>
<path d="M1110 1256 c0 -2 7 -6 15 -10 8 -3 15 -1 15 4 0 6 -7 10 -15 10 -8 0
-15 -2 -15 -4z"/>
<path d="M2048 1253 c6 -2 18 -2 25 0 6 3 1 5 -13 5 -14 0 -19 -2 -12 -5z"/>
<path d="M1445 1240 c3 -5 8 -10 11 -10 2 0 4 5 4 10 0 6 -5 10 -11 10 -5 0
-7 -4 -4 -10z"/>
<path d="M1470 1233 c0 -13 5 -23 10 -23 13 0 13 11 0 30 -8 12 -10 11 -10 -7z"/>
<path d="M1065 1230 c-3 -5 -1 -10 4 -10 6 0 11 5 11 10 0 6 -2 10 -4 10 -3 0
-8 -4 -11 -10z"/>
<path d="M456 1222 c-3 -6 -1 -14 5 -17 14 -9 20 -2 10 14 -6 8 -11 9 -15 3z"/>
<path d="M1011 1214 c0 -11 3 -14 6 -6 3 7 2 16 -1 19 -3 4 -6 -2 -5 -13z"/>
<path d="M624 1214 c-15 -6 -6 -41 11 -48 7 -2 16 2 19 11 5 11 2 14 -10 9
-13 -5 -15 -2 -11 14 3 11 4 20 4 19 -1 0 -7 -3 -13 -5z"/>
<path d="M515 1200 c-3 -5 -1 -10 4 -10 6 0 11 5 11 10 0 6 -2 10 -4 10 -3 0
-8 -4 -11 -10z"/>
<path d="M1105 1200 c-3 -5 3 -10 14 -10 11 0 23 5 26 10 3 6 -3 10 -14 10
-11 0 -23 -4 -26 -10z"/>
<path d="M540 1185 c-8 -9 -8 -15 -2 -15 12 0 26 19 19 26 -2 2 -10 -2 -17
-11z"/>
<path d="M576 1191 c-4 -5 -2 -12 3 -15 5 -4 12 -2 15 3 4 5 2 12 -3 15 -5 4
-12 2 -15 -3z"/>
<path d="M1432 1183 c-10 -18 -8 -50 2 -61 3 -3 6 9 6 26 0 18 5 32 10 32 6 0
10 5 10 10 0 16 -19 11 -28 -7z"/>
<path d="M941 1164 c0 -11 3 -14 6 -6 3 7 2 16 -1 19 -3 4 -6 -2 -5 -13z"/>
<path d="M996 1165 c4 -8 7 -15 9 -15 1 0 8 7 15 15 10 13 9 15 -8 15 -15 0
-20 -5 -16 -15z"/>
<path d="M1541 1164 c0 -11 3 -14 6 -6 3 7 2 16 -1 19 -3 4 -6 -2 -5 -13z"/>
<path d="M1564 1165 c3 -8 -2 -19 -12 -24 -9 -6 -12 -11 -6 -11 14 0 34 21 34
37 0 7 -5 13 -11 13 -6 0 -9 -7 -5 -15z"/>
<path d="M1911 1164 c13 -16 29 -19 29 -5 0 5 -9 11 -21 14 -16 4 -18 3 -8 -9z"/>
<path d="M1040 1148 c0 -19 2 -20 10 -8 13 19 13 30 0 30 -5 0 -10 -10 -10
-22z"/>
<path d="M1079 1153 c-13 -16 -12 -17 4 -4 9 7 17 15 17 17 0 8 -8 3 -21 -13z"/>
<path d="M1470 1163 c0 -5 5 -15 10 -23 8 -12 10 -11 10 8 0 12 -4 22 -10 22
-5 0 -10 -3 -10 -7z"/>
<path d="M956 1141 c-4 -7 -5 -15 -2 -18 9 -9 19 4 14 18 -4 11 -6 11 -12 0z"/>
<path d="M2575 1140 c3 -5 8 -10 11 -10 2 0 4 5 4 10 0 6 -5 10 -11 10 -5 0
-7 -4 -4 -10z"/>
<path d="M597 1134 c-8 -9 1 -24 14 -24 6 0 8 4 5 9 -4 5 0 12 6 14 9 4 8 6
-3 6 -9 1 -19 -2 -22 -5z"/>
<path d="M988 1133 c6 -2 18 -2 25 0 6 3 1 5 -13 5 -14 0 -19 -2 -12 -5z"/>
<path d="M977 1103 c-2 -10 -8 -26 -12 -35 -4 -10 -3 -18 3 -18 5 0 19 8 30
18 20 16 20 18 3 35 -18 17 -19 17 -24 0z"/>
<path d="M1010 1116 c0 -2 8 -10 18 -17 15 -13 16 -12 3 4 -13 16 -21 21 -21
13z"/>
<path d="M1070 1101 c0 -12 28 -22 35 -12 3 5 -2 12 -11 15 -21 8 -24 8 -24
-3z"/>
<path d="M2448 1103 c7 -3 16 -2 19 1 4 3 -2 6 -13 5 -11 0 -14 -3 -6 -6z"/>
<path d="M2510 1102 c0 -12 19 -26 26 -19 2 2 -2 10 -11 17 -9 8 -15 8 -15 2z"/>
<path d="M2763 1060 c0 -30 2 -43 4 -27 2 15 2 39 0 55 -2 15 -4 2 -4 -28z"/>
<path d="M2360 1090 c-12 -8 -11 -10 8 -10 12 0 22 5 22 10 0 13 -11 13 -30 0z"/>
<path d="M2583 1084 c-7 -7 -13 -17 -13 -23 0 -14 53 3 58 18 3 9 0 11 -8 6
-7 -4 -15 -3 -19 3 -4 6 -11 5 -18 -4z"/>
<path d="M1540 1080 c0 -6 7 -10 15 -10 8 0 15 2 15 4 0 2 -7 6 -15 10 -8 3
-15 1 -15 -4z"/>
<path d="M1600 1080 c-9 -6 -10 -10 -3 -10 6 0 15 5 18 10 8 12 4 12 -15 0z"/>
<path d="M1795 1080 c3 -5 8 -10 11 -10 2 0 4 5 4 10 0 6 -5 10 -11 10 -5 0
-7 -4 -4 -10z"/>
<path d="M2204 1079 c-3 -6 -1 -16 6 -22 10 -9 11 -9 5 2 -4 8 -2 17 6 22 9 6
10 9 2 9 -6 0 -15 -5 -19 -11z"/>
<path d="M1460 1066 c0 -8 4 -17 9 -20 5 -4 7 3 4 14 -6 23 -13 26 -13 6z"/>
<path d="M2148 1073 c7 -3 16 -2 19 1 4 3 -2 6 -13 5 -11 0 -14 -3 -6 -6z"/>
<path d="M2405 1060 c4 -6 11 -8 16 -5 14 9 11 15 -7 15 -8 0 -12 -5 -9 -10z"/>
<path d="M1430 1040 c0 -5 5 -10 11 -10 5 0 7 5 4 10 -3 6 -8 10 -11 10 -2 0
-4 -4 -4 -10z"/>
<path d="M1600 1035 c0 -8 2 -15 4 -15 2 0 6 7 10 15 3 8 1 15 -4 15 -6 0 -10
-7 -10 -15z"/>
<path d="M1735 1030 c-4 -6 -10 -8 -15 -5 -4 3 -10 -2 -13 -10 -5 -12 -2 -12
18 -3 14 6 25 15 25 20 0 11 -7 10 -15 -2z"/>
<path d="M975 1020 c-3 -6 1 -7 9 -4 18 7 21 14 7 14 -6 0 -13 -4 -16 -10z"/>
<path d="M1045 1020 c-3 -5 -1 -10 4 -10 6 0 11 5 11 10 0 6 -2 10 -4 10 -3 0
-8 -4 -11 -10z"/>
<path d="M1665 1017 c-4 -10 -5 -21 -1 -24 10 -10 18 4 13 24 -4 17 -4 17 -12
0z"/>
<path d="M2267 1016 c-4 -10 0 -12 14 -9 22 6 26 23 5 23 -8 0 -16 -6 -19 -14z"/>
<path d="M2330 1020 c0 -5 5 -10 10 -10 6 0 10 5 10 10 0 6 -4 10 -10 10 -5 0
-10 -4 -10 -10z"/>
<path d="M206 991 c-23 -43 -20 -52 5 -12 11 18 18 35 15 38 -2 3 -12 -9 -20
-26z"/>
<path d="M2138 1013 c6 -2 18 -2 25 0 6 3 1 5 -13 5 -14 0 -19 -2 -12 -5z"/>
<path d="M2400 1010 c-9 -6 -10 -10 -3 -10 6 0 15 5 18 10 8 12 4 12 -15 0z"/>
<path d="M1600 989 c0 -5 5 -7 10 -4 6 3 10 8 10 11 0 2 -4 4 -10 4 -5 0 -10
-5 -10 -11z"/>
<path d="M1800 990 c0 -6 7 -10 15 -10 8 0 15 2 15 4 0 2 -7 6 -15 10 -8 3
-15 1 -15 -4z"/>
<path d="M998 983 c6 -2 18 -2 25 0 6 3 1 5 -13 5 -14 0 -19 -2 -12 -5z"/>
<path d="M1480 980 c0 -5 7 -7 15 -4 8 4 15 8 15 10 0 2 -7 4 -15 4 -8 0 -15
-4 -15 -10z"/>
<path d="M1062 968 c2 -6 10 -14 16 -16 7 -2 10 2 6 12 -7 18 -28 22 -22 4z"/>
<path d="M2761 964 c0 -11 3 -14 6 -6 3 7 2 16 -1 19 -3 4 -6 -2 -5 -13z"/>
<path d="M236 930 c-14 -22 -23 -40 -19 -40 11 1 65 80 54 80 -4 0 -20 -18
-35 -40z"/>
<path d="M314 946 c-9 -15 -14 -29 -12 -32 3 -2 13 7 22 22 10 14 15 28 13 31
-3 2 -13 -7 -23 -21z"/>
<path d="M1505 960 c-8 -13 5 -13 25 0 13 8 13 10 -2 10 -9 0 -20 -4 -23 -10z"/>
<path d="M1610 960 c-9 -6 -10 -10 -3 -10 6 0 15 5 18 10 8 12 4 12 -15 0z"/>
<path d="M1798 963 c7 -3 16 -2 19 1 4 3 -2 6 -13 5 -11 0 -14 -3 -6 -6z"/>
<path d="M2564 949 c-19 -22 -19 -22 4 -10 12 6 22 16 22 21 0 15 -5 12 -26
-11z"/>
<path d="M1470 949 c0 -5 5 -7 10 -4 6 3 10 8 10 11 0 2 -4 4 -10 4 -5 0 -10
-5 -10 -11z"/>
<path d="M465 930 c10 -11 34 -29 54 -40 l36 -20 -25 21 c-14 11 -35 29 -48
40 -29 25 -40 24 -17 -1z"/>
<path d="M1401 936 c-7 -8 -8 -17 -3 -20 6 -3 12 3 15 14 6 24 4 25 -12 6z"/>
<path d="M1441 934 c0 -11 3 -14 6 -6 3 7 2 16 -1 19 -3 4 -6 -2 -5 -13z"/>
<path d="M1656 941 c-4 -5 3 -7 14 -4 23 6 26 13 6 13 -8 0 -17 -4 -20 -9z"/>
<path d="M1530 930 c0 -5 5 -10 10 -10 6 0 10 5 10 10 0 6 -4 10 -10 10 -5 0
-10 -4 -10 -10z"/>
<path d="M2755 930 c3 -5 8 -10 11 -10 2 0 4 5 4 10 0 6 -5 10 -11 10 -5 0 -7
-4 -4 -10z"/>
<path d="M2509 920 c-13 -8 -58 -16 -179 -35 -38 -5 -139 -16 -198 -20 -58 -4
-85 -15 -36 -15 107 1 382 43 422 65 15 8 23 14 17 14 -5 0 -17 -4 -26 -9z"/>
<path d="M1030 900 c0 -5 5 -10 10 -10 6 0 10 5 10 10 0 6 -4 10 -10 10 -5 0
-10 -4 -10 -10z"/>
<path d="M280 885 c-7 -9 -10 -18 -7 -21 3 -3 10 4 17 15 13 25 8 27 -10 6z"/>
<path d="M585 851 c17 -10 41 -22 55 -25 14 -4 3 5 -24 19 -58 29 -73 32 -31
6z"/>
<path d="M2040 849 c0 -5 5 -7 10 -4 6 3 10 8 10 11 0 2 -4 4 -10 4 -5 0 -10
-5 -10 -11z"/>
<path d="M2456 851 c-4 -5 3 -7 14 -4 23 6 26 13 6 13 -8 0 -17 -4 -20 -9z"/>
<path d="M1850 839 c-19 -5 -11 -7 29 -8 55 -1 65 5 21 12 -14 2 -36 1 -50 -4z"/>
<path d="M1963 843 c15 -2 37 -2 50 0 12 2 0 4 -28 4 -27 0 -38 -2 -22 -4z"/>
<path d="M2395 843 c-11 -3 -24 -9 -29 -13 -5 -5 8 -5 29 0 20 4 39 11 42 14
7 7 -12 6 -42 -1z"/>
<path d="M767 833 c-13 -13 -7 -21 13 -16 11 3 17 9 14 14 -6 11 -18 12 -27 2z"/>
<path d="M903 833 c9 -2 23 -2 30 0 6 3 -1 5 -18 5 -16 0 -22 -2 -12 -5z"/>
<path d="M554 811 c9 -10 22 -18 29 -18 6 0 21 -4 32 -8 34 -13 13 1 -34 24
-38 18 -42 18 -27 2z"/>
<path d="M1600 823 c-25 -3 -49 -9 -55 -14 -6 -6 1 -7 20 -4 17 3 64 10 105
14 57 6 63 8 25 8 -27 0 -70 -2 -95 -4z"/>
<path d="M2255 820 c-3 -5 3 -10 14 -10 12 0 21 5 21 10 0 6 -6 10 -14 10 -8
0 -18 -4 -21 -10z"/>
<path d="M2308 823 c7 -3 16 -2 19 1 4 3 -2 6 -13 5 -11 0 -14 -3 -6 -6z"/>
<path d="M345 794 c-9 -15 -12 -23 -6 -20 11 7 35 46 28 46 -3 0 -12 -12 -22
-26z"/>
<path d="M780 785 c30 -8 71 -14 90 -14 29 1 24 3 -25 15 -82 18 -140 17 -65
-1z"/>
<path d="M948 763 c12 -2 30 -2 40 0 9 3 -1 5 -23 4 -22 0 -30 -2 -17 -4z"/>
<path d="M1568 763 c7 -3 16 -2 19 1 4 3 -2 6 -13 5 -11 0 -14 -3 -6 -6z"/>
<path d="M698 753 c7 -3 16 -2 19 1 4 3 -2 6 -13 5 -11 0 -14 -3 -6 -6z"/>
<path d="M1463 753 c9 -2 23 -2 30 0 6 3 -1 5 -18 5 -16 0 -22 -2 -12 -5z"/>
<path d="M1368 743 c6 -2 18 -2 25 0 6 3 1 5 -13 5 -14 0 -19 -2 -12 -5z"/>
<path d="M1250 730 c0 -5 7 -7 15 -4 8 4 15 8 15 10 0 2 -7 4 -15 4 -8 0 -15
-4 -15 -10z"/>
<path d="M848 723 c6 -2 18 -2 25 0 6 3 1 5 -13 5 -14 0 -19 -2 -12 -5z"/>
<path d="M1473 563 c9 -2 23 -2 30 0 6 3 -1 5 -18 5 -16 0 -22 -2 -12 -5z"/>
<path d="M1718 563 c6 -2 18 -2 25 0 6 3 1 5 -13 5 -14 0 -19 -2 -12 -5z"/>
<path d="M1848 563 c7 -3 16 -2 19 1 4 3 -2 6 -13 5 -11 0 -14 -3 -6 -6z"/>
<path d="M1903 563 c9 -2 25 -2 35 0 9 3 1 5 -18 5 -19 0 -27 -2 -17 -5z"/>
<path d="M2138 563 c7 -3 16 -2 19 1 4 3 -2 6 -13 5 -11 0 -14 -3 -6 -6z"/>
<path d="M2183 563 c9 -2 23 -2 30 0 6 3 -1 5 -18 5 -16 0 -22 -2 -12 -5z"/>
<path d="M2398 563 c7 -3 16 -2 19 1 4 3 -2 6 -13 5 -11 0 -14 -3 -6 -6z"/>
<path d="M796 529 c4 -7 7 -30 7 -51 0 -32 3 -38 21 -38 15 0 17 3 8 9 -9 5
-13 22 -10 47 2 31 -1 39 -16 42 -13 3 -16 0 -10 -9z"/>
<path d="M1105 529 c4 -6 -3 -17 -14 -26 -33 -22 -24 -58 14 -60 30 -1 30 -1
27 48 -3 35 -8 49 -19 49 -8 0 -11 -5 -8 -11z m5 -60 c0 -11 -4 -17 -10 -14
-5 3 -10 13 -10 21 0 8 5 14 10 14 6 0 10 -9 10 -21z"/>
<path d="M1419 526 c7 -9 11 -30 9 -50 l-4 -34 48 0 c26 -1 48 3 48 8 0 5 -6
7 -14 4 -8 -3 -17 -1 -21 5 -3 7 2 11 14 11 24 0 29 28 6 36 -20 8 -45 -13
-45 -37 0 -11 -5 -19 -10 -19 -6 0 -9 18 -8 42 3 35 0 43 -17 46 -17 4 -18 2
-6 -12z"/>
<path d="M1605 529 c-11 -17 1 -21 15 -4 8 9 8 15 2 15 -6 0 -14 -5 -17 -11z"/>
<path d="M2347 533 c-12 -12 -7 -22 8 -17 8 4 15 10 15 15 0 11 -14 12 -23 2z"/>
<path d="M515 485 l0 -45 38 0 c20 0 37 5 37 11 0 6 7 4 15 -5 22 -22 45 -9
45 25 0 44 -27 49 -60 11 -15 -18 -33 -32 -39 -32 -15 0 -14 67 2 73 6 3 1 6
-13 6 -23 1 -25 -2 -25 -44z m120 -15 c0 -7 -6 -15 -12 -17 -8 -3 -13 4 -13
17 0 13 5 20 13 18 6 -3 12 -11 12 -18z"/>
<path d="M887 523 c-4 -3 -7 -13 -7 -22 1 -14 2 -14 14 2 7 9 16 17 20 17 13
0 5 -28 -14 -45 -11 -10 -20 -22 -20 -27 0 -15 63 -4 68 12 4 12 2 13 -9 3
-22 -22 -30 -14 -13 12 9 14 14 32 10 40 -5 15 -37 21 -49 8z"/>
<path d="M967 523 c-4 -3 -7 -13 -7 -22 1 -14 2 -14 14 2 7 9 16 17 20 17 13
0 5 -28 -14 -45 -28 -25 -25 -35 9 -35 30 0 49 15 36 28 -4 4 -10 1 -12 -5 -3
-7 -12 -13 -21 -13 -12 0 -11 5 8 24 13 15 20 32 17 40 -6 16 -38 22 -50 9z"/>
<path d="M1262 518 c-13 -13 -15 -37 -6 -62 9 -24 61 -21 74 4 10 18 8 20 -17
20 -21 0 -24 -3 -13 -10 18 -11 7 -25 -15 -17 -20 8 -19 56 1 64 9 3 20 0 24
-8 5 -7 12 -10 15 -7 12 12 -5 28 -29 28 -12 0 -27 -5 -34 -12z"/>
<path d="M1753 513 c-4 -11 1 -22 15 -31 12 -8 22 -18 22 -23 0 -14 -28 -11
-33 4 -3 7 -6 5 -6 -5 -1 -13 7 -18 24 -18 36 0 44 28 14 51 -13 10 -20 21
-15 26 5 4 11 2 13 -4 6 -18 23 -16 23 2 0 21 -49 20 -57 -2z"/>
<path d="M2025 485 c0 -25 5 -45 11 -45 6 0 9 14 8 33 l-3 32 11 -32 c6 -18
15 -33 19 -33 5 0 16 15 24 33 l15 32 -3 -31 -3 -32 51 -1 51 0 -4 30 c-2 16
-8 31 -12 34 -12 7 -40 -5 -40 -17 0 -6 6 -5 15 2 12 10 15 10 15 -3 0 -8 -8
-17 -17 -21 -10 -3 -24 -9 -30 -12 -17 -8 -17 48 -1 64 9 9 7 12 -9 12 -16 0
-25 -10 -34 -37 l-13 -38 -9 38 c-6 24 -15 37 -25 37 -13 0 -17 -10 -17 -45z"/>
<path d="M2290 510 c0 -5 -15 -8 -33 -6 -32 4 -33 3 -33 -30 1 -24 6 -34 17
-34 12 0 15 7 12 23 -4 18 0 23 16 23 15 0 21 -7 21 -23 0 -13 6 -23 14 -23 9
0 12 8 8 25 -3 19 0 25 13 25 13 0 16 -6 13 -25 -4 -19 -1 -25 12 -25 13 0 16
7 12 30 -3 24 -9 30 -28 30 -13 0 -24 5 -24 10 0 6 -4 10 -10 10 -5 0 -10 -4
-10 -10z"/>
<path d="M671 496 c-7 -8 -10 -24 -6 -35 5 -16 15 -19 64 -20 l58 0 -6 32 c-5
22 -13 32 -26 32 -10 0 -20 -6 -23 -13 -2 -7 2 -10 12 -6 9 3 16 2 16 -2 0
-13 -58 -37 -70 -29 -15 9 -12 36 4 33 8 -2 15 2 16 7 2 16 -26 17 -39 1z"/>
<path d="M1160 495 c-19 -23 -8 -50 23 -53 15 -2 27 1 27 6 0 6 -9 8 -20 5
-11 -3 -20 0 -20 6 0 6 9 11 20 11 23 0 26 10 8 28 -16 16 -23 15 -38 -3z"/>
<path d="M1357 504 c-14 -14 -7 -26 8 -14 12 10 15 10 15 -3 0 -8 -9 -17 -21
-20 -29 -8 -14 -27 20 -27 27 0 28 2 22 32 -6 31 -29 47 -44 32z"/>
<path d="M1534 474 c1 -24 6 -34 17 -34 12 0 15 7 13 28 -2 15 -1 21 2 14 5
-10 9 -10 22 0 13 11 15 10 10 -14 -4 -22 -1 -28 12 -28 23 0 15 60 -9 61 -9
0 -28 2 -42 4 -23 3 -25 0 -25 -31z"/>
<path d="M1647 504 c-14 -14 -7 -26 8 -14 12 10 15 10 15 -4 0 -9 -7 -16 -15
-16 -8 0 -15 -7 -15 -15 0 -10 10 -15 29 -15 27 0 28 2 22 32 -6 31 -29 47
-44 32z"/>
<path d="M1837 504 c-12 -13 -7 -24 8 -18 8 4 15 2 15 -4 0 -5 -9 -12 -21 -15
-29 -8 -14 -27 20 -27 27 0 28 2 22 32 -6 31 -29 47 -44 32z"/>
<path d="M1895 499 c-4 -5 -2 -9 3 -9 5 0 7 -11 4 -25 -3 -18 0 -25 10 -25 11
0 14 7 10 25 -3 19 0 25 13 25 13 0 16 -6 13 -25 -4 -20 -1 -25 16 -24 11 0
16 3 10 5 -7 3 -10 13 -7 23 3 10 -1 22 -8 27 -20 12 -58 14 -64 3z"/>
<path d="M2384 474 c1 -19 6 -34 12 -34 7 0 9 10 6 25 -3 19 0 25 13 25 13 0
16 -6 13 -25 -4 -19 -1 -25 12 -25 13 0 16 7 12 30 -2 17 -7 30 -11 31 -3 0
-18 2 -32 4 -23 3 -26 0 -25 -31z"/>
<path d="M1324 315 c-20 -42 -13 -68 18 -63 29 4 38 47 13 60 -13 8 -14 13 -4
24 8 9 8 14 1 14 -6 0 -19 -16 -28 -35z m26 -35 c0 -11 -4 -20 -10 -20 -5 0
-10 9 -10 20 0 11 5 20 10 20 6 0 10 -9 10 -20z"/>
<path d="M1486 335 c4 -9 0 -15 -10 -15 -19 0 -38 -33 -30 -53 3 -9 18 -15 37
-15 l32 0 -3 49 c-3 33 -8 49 -18 49 -8 0 -11 -6 -8 -15z m0 -61 c-5 -13 -10
-14 -18 -6 -6 6 -8 18 -4 28 5 13 10 14 18 6 6 -6 8 -18 4 -28z"/>
<path d="M1588 338 c7 -7 12 -29 12 -50 0 -34 3 -38 24 -38 27 0 41 26 30 54
-4 10 -13 15 -24 11 -15 -5 -17 -2 -13 15 4 16 1 20 -18 20 -18 0 -20 -3 -11
-12z m52 -58 c0 -11 -6 -20 -14 -20 -9 0 -14 9 -13 20 1 11 7 20 14 20 7 0 13
-9 13 -20z"/>
<path d="M1242 328 c-15 -15 -15 -51 0 -66 15 -15 58 -16 58 -1 0 5 -5 7 -10
4 -15 -9 -40 14 -40 36 0 24 18 33 35 19 12 -10 15 -9 15 4 0 19 -40 22 -58 4z"/>
<path d="M1384 284 c1 -30 4 -34 26 -33 14 0 19 3 13 6 -7 2 -13 13 -13 24 0
12 5 16 15 13 9 -4 15 0 15 8 0 10 -11 15 -28 16 -26 0 -28 -2 -28 -34z"/>
<path d="M1531 306 c-20 -24 -9 -51 22 -54 27 -3 28 -1 25 30 -3 36 -27 48
-47 24z m34 -36 c-3 -6 -10 -10 -16 -10 -10 0 -12 33 -2 44 9 9 26 -22 18 -34z"/>
<path d="M1675 309 c-4 -6 -4 -13 0 -17 4 -4 10 -1 12 6 3 6 9 10 14 6 16 -10
10 -24 -11 -24 -11 0 -20 -7 -20 -15 0 -8 7 -15 16 -15 9 0 12 5 8 13 -5 8 -2
7 9 -2 22 -18 26 -13 20 27 -4 23 -11 32 -24 32 -10 0 -21 -5 -24 -11z"/>
<path d="M2840 1909 c0 -5 5 -7 10 -4 6 3 10 8 10 11 0 2 -4 4 -10 4 -5 0 -10
-5 -10 -11z"/>
<path d="M2840 1815 c-8 -9 -8 -15 -2 -15 12 0 26 19 19 26 -2 2 -10 -2 -17
-11z"/>
<path d="M162 514 c10 -10 20 -15 24 -12 3 4 -5 12 -18 18 -22 12 -22 12 -6
-6z"/>
<path d="M163 383 c19 -22 8 -41 -15 -27 -9 5 -9 2 1 -9 16 -21 31 -22 31 -3
0 8 5 16 11 18 7 2 -1 12 -17 23 l-29 18 18 -20z"/>
</g>
</svg>
