<?xml version="1.0" standalone="no"?>
<!DOCTYPE svg PUBLIC "-//W3C//DTD SVG 20010904//EN"
 "http://www.w3.org/TR/2001/REC-SVG-20010904/DTD/svg10.dtd">
<svg version="1.0" xmlns="http://www.w3.org/2000/svg"
 width="215.000000pt" height="234.000000pt" viewBox="0 0 215.000000 234.000000"
 preserveAspectRatio="xMidYMid meet">

<g transform="translate(0.000000,234.000000) scale(0.100000,-0.100000)"
fill="#000000" stroke="none">
<path d="M1012 2151 c-32 -8 -28 -24 11 -38 l32 -11 -35 -2 c-33 -1 -33 -2
-13 -12 24 -12 83 -1 86 16 1 5 -14 15 -33 22 l-35 12 34 1 c19 1 32 3 30 5
-10 8 -56 13 -77 7z"/>
<path d="M892 2141 c-37 -7 -36 -6 -26 -45 6 -26 9 -28 43 -22 20 3 42 6 49 6
6 0 12 4 12 8 0 5 -14 6 -31 4 -22 -3 -30 -1 -25 7 4 6 17 12 29 12 14 1 9 4
-13 9 l-35 7 33 2 c17 0 32 6 32 11 0 11 -16 11 -68 1z"/>
<path d="M1137 2122 c-15 -15 -27 -31 -27 -35 0 -3 23 -3 50 0 34 4 50 2 50
-6 0 -6 9 -11 20 -11 24 0 24 3 5 39 -25 49 -59 53 -98 13z"/>
<path d="M758 2113 c-32 -8 -58 -20 -58 -25 0 -6 11 -7 27 -3 21 5 31 1 44
-16 11 -15 22 -20 34 -15 14 5 16 9 7 18 -17 17 -15 38 3 38 8 0 15 5 15 10 0
12 0 12 -72 -7z"/>
<path d="M1280 2094 c-13 -34 -13 -34 9 -34 10 0 22 8 25 17 6 14 9 13 23 -8
17 -26 43 -49 54 -49 4 0 17 14 29 30 20 28 20 31 4 37 -11 4 -22 0 -30 -12
-8 -10 -15 -17 -17 -14 -2 2 -11 16 -20 32 -23 36 -64 37 -77 1z"/>
<path d="M616 2057 l-49 -23 32 -26 c35 -30 65 -28 55 4 -5 17 -2 19 29 13 21
-4 37 -3 41 4 4 6 1 11 -7 11 -8 0 -17 9 -20 20 -7 26 -21 25 -81 -3z m29 -17
c-3 -5 -10 -10 -16 -10 -5 0 -9 5 -9 10 0 6 7 10 16 10 8 0 12 -4 9 -10z"/>
<path d="M1455 2045 c-14 -13 -25 -29 -25 -35 0 -19 36 -10 60 15 13 14 31 25
39 25 14 0 14 1 1 10 -25 16 -50 11 -75 -15z"/>
<path d="M1521 1999 c-48 -9 -61 -17 -40 -22 61 -17 75 -25 87 -50 17 -34 30
-34 38 1 3 15 7 33 9 39 4 11 -32 45 -45 42 -3 -1 -25 -5 -49 -10z m59 -29 c0
-5 -4 -10 -9 -10 -6 0 -13 5 -16 10 -3 6 1 10 9 10 9 0 16 -4 16 -10z"/>
<path d="M478 1973 c-14 -16 -15 -22 -1 -55 15 -38 43 -43 43 -9 0 17 24 34
68 46 35 10 26 22 -24 29 -65 9 -69 8 -86 -11z m47 -23 c-3 -5 -10 -10 -16
-10 -5 0 -9 5 -9 10 0 6 7 10 16 10 8 0 12 -4 9 -10z"/>
<path d="M718 1846 c-17 -40 3 -76 42 -76 30 0 51 23 35 38 -4 4 -10 1 -12 -5
-6 -18 -40 -16 -47 2 -11 29 5 47 36 41 21 -4 28 -2 26 7 -3 6 -19 13 -36 15
-26 3 -34 -1 -44 -22z"/>
<path d="M820 1825 c0 -38 4 -47 24 -56 40 -19 66 3 66 56 0 33 -4 45 -15 45
-11 0 -15 -11 -15 -39 0 -22 -5 -43 -11 -46 -18 -12 -22 -2 -28 78 -1 4 -5 7
-11 7 -5 0 -10 -20 -10 -45z"/>
<path d="M930 1815 l0 -54 35 1 c23 1 35 6 35 16 0 10 -8 13 -25 10 -24 -5
-25 -3 -25 38 0 24 -4 44 -10 44 -5 0 -10 -25 -10 -55z"/>
<path d="M1010 1860 c0 -5 7 -10 15 -10 11 0 15 -12 15 -47 0 -36 3 -44 12
-35 6 6 11 27 11 47 0 22 5 35 14 35 7 0 13 5 13 10 0 6 -18 10 -40 10 -22 0
-40 -4 -40 -10z"/>
<path d="M1110 1827 c0 -46 13 -67 41 -67 27 0 46 34 41 74 -6 49 -20 45 -24
-6 -2 -30 -8 -43 -18 -43 -10 0 -16 13 -18 43 -4 55 -22 55 -22 -1z"/>
<path d="M1212 1818 c2 -29 7 -52 13 -50 6 2 9 9 7 17 -5 25 16 26 35 2 19
-25 64 -30 71 -9 6 18 40 14 51 -5 5 -10 13 -14 17 -10 10 10 -27 99 -43 105
-8 2 -21 -16 -33 -43 -23 -53 -42 -51 -38 3 3 37 3 37 -40 40 l-43 3 3 -53z
m63 22 c-3 -5 -13 -10 -21 -10 -8 0 -14 5 -14 10 0 6 9 10 21 10 11 0 17 -4
14 -10z m95 -20 c0 -5 -5 -10 -11 -10 -5 0 -7 5 -4 10 3 6 8 10 11 10 2 0 4
-4 4 -10z"/>
<path d="M1708 1808 c-31 -11 -33 -18 -16 -65 15 -41 32 -44 23 -3 -8 37 12
42 21 5 9 -36 27 -31 19 5 -4 17 -4 30 0 30 3 0 11 -13 16 -30 13 -35 34 -42
23 -7 -12 41 -34 77 -47 76 -6 0 -24 -5 -39 -11z"/>
<path d="M366 1771 c-33 -11 -52 -25 -58 -40 -9 -24 -5 -29 48 -66 15 -11 19
-23 16 -45 -3 -24 -10 -31 -39 -36 -24 -5 -33 -11 -31 -23 3 -13 13 -15 48
-12 25 1 46 4 47 5 2 2 -2 38 -7 81 -11 84 -7 115 15 115 7 0 16 7 19 16 11
29 11 29 -58 5z m-6 -57 c0 -8 -4 -12 -10 -9 -5 3 -10 10 -10 16 0 5 5 9 10 9
6 0 10 -7 10 -16z"/>
<path d="M1774 1692 c-6 -4 -14 -19 -18 -34 -9 -39 -30 -36 -22 3 4 22 2 29
-7 26 -16 -5 -14 -84 2 -100 10 -9 17 -7 32 12 10 13 19 33 19 45 0 15 3 17 9
8 4 -7 6 -25 3 -40 -6 -35 13 -18 22 19 7 30 -22 74 -40 61z"/>
<path d="M985 1620 c-19 -5 7 -8 75 -8 66 0 96 3 80 8 -31 10 -115 10 -155 0z"/>
<path d="M920 1600 c-8 -5 -10 -10 -5 -10 6 0 17 5 25 10 8 5 11 10 5 10 -5 0
-17 -5 -25 -10z"/>
<path d="M1206 1591 c55 -25 119 -84 152 -139 21 -37 27 -61 30 -132 4 -79 2
-93 -23 -149 -54 -119 -159 -181 -305 -181 -146 0 -244 57 -300 175 -42 88
-43 184 -1 270 27 57 82 119 126 143 11 6 15 12 9 12 -16 0 -83 -55 -112 -93
-127 -168 -65 -416 128 -506 48 -23 68 -26 155 -25 84 0 107 4 145 23 78 40
123 85 160 157 31 62 35 77 35 149 0 68 -5 89 -29 139 -16 32 -47 77 -70 98
-40 40 -104 78 -128 78 -7 0 6 -9 28 -19z"/>
<path d="M949 1576 c-93 -33 -157 -100 -184 -190 -33 -110 -9 -203 76 -288 70
-71 135 -93 245 -85 90 7 146 31 202 88 144 147 87 403 -105 472 -57 20 -181
22 -234 3z m170 -85 c12 -8 9 -24 -19 -98 -18 -48 -37 -92 -41 -97 -9 -10
-209 62 -209 74 0 5 12 22 26 39 l26 31 66 -61 c66 -62 66 -62 73 -36 4 14 5
55 3 91 l-4 66 33 0 c17 0 38 -4 46 -9z m-109 -26 c0 -32 -45 -49 -56 -20 -10
24 14 47 37 34 10 -5 19 -11 19 -14z m242 -71 l18 -31 -80 -39 c-44 -20 -80
-41 -80 -45 0 -7 18 -14 110 -46 62 -21 66 -26 40 -67 l-22 -36 -36 30 c-21
16 -59 49 -85 72 l-48 43 68 77 c37 43 75 77 82 75 8 -1 23 -16 33 -33z m-266
-124 l64 0 0 -111 0 -111 -37 7 c-21 3 -42 10 -46 15 -5 4 7 44 26 89 20 46
31 81 24 81 -6 0 -46 -12 -88 -27 -43 -15 -81 -25 -84 -21 -4 3 -9 25 -12 49
l-6 42 48 -6 c26 -4 76 -7 111 -7z m152 -91 c60 -76 63 -81 45 -95 -20 -15
-74 -33 -84 -28 -4 2 -12 41 -19 86 -6 46 -14 91 -17 101 -9 33 13 15 75 -64z"/>
<path d="M1165 924 c-9 -9 -14 -23 -11 -31 3 -8 6 -17 6 -19 0 -9 49 -3 55 6
4 6 -3 9 -17 7 -14 -1 -23 4 -26 16 -3 13 3 17 25 17 22 0 25 2 13 10 -21 13
-26 13 -45 -6z"/>
<path d="M882 903 c6 -50 67 -41 68 10 0 9 -4 17 -10 17 -5 0 -10 -11 -10 -25
0 -16 -6 -25 -15 -25 -9 0 -15 9 -15 25 0 14 -5 25 -11 25 -6 0 -9 -12 -7 -27z"/>
<path d="M970 900 c0 -25 4 -30 24 -30 13 0 26 7 30 15 9 25 -4 45 -30 45 -20
0 -24 -5 -24 -30z m35 0 c0 -7 -6 -15 -12 -17 -8 -3 -13 4 -13 17 0 13 5 20
13 18 6 -3 12 -11 12 -18z"/>
<path d="M1050 904 c-6 -14 -10 -26 -10 -27 0 -1 14 -2 30 -2 32 0 36 6 20 36
-15 26 -29 24 -40 -7z m30 -4 c0 -5 -4 -10 -10 -10 -5 0 -10 5 -10 10 0 6 5
10 10 10 6 0 10 -4 10 -10z"/>
<path d="M1120 900 c0 -16 5 -30 10 -30 6 0 10 14 10 30 0 17 -4 30 -10 30 -5
0 -10 -13 -10 -30z"/>
<path d="M520 750 c0 -5 -9 -19 -20 -30 -13 -13 -15 -20 -7 -20 7 0 19 6 25
12 10 10 15 10 22 -2 8 -13 10 -13 10 2 0 23 -11 48 -21 48 -5 0 -9 -4 -9 -10z"/>
<path d="M590 736 c0 -14 5 -28 10 -31 7 -4 9 2 5 18 -6 21 -3 26 17 30 21 4
20 4 -4 6 -23 1 -28 -3 -28 -23z"/>
<path d="M651 738 c-1 -15 4 -30 9 -33 16 -10 40 14 39 39 -1 20 -1 20 -7 -2
-4 -13 -11 -23 -17 -23 -5 0 -13 10 -17 23 -6 22 -6 22 -7 -4z"/>
<path d="M712 730 c0 -19 2 -27 5 -17 2 9 2 25 0 35 -3 9 -5 1 -5 -18z"/>
<path d="M767 749 c6 -6 9 -18 6 -25 -3 -8 -1 -14 5 -14 5 0 12 11 14 25 4 20
1 25 -15 25 -16 0 -18 -3 -10 -11z"/>
<path d="M811 739 c-1 -16 5 -29 15 -33 23 -9 34 2 33 32 -1 26 -1 26 -7 4 -4
-13 -11 -23 -17 -23 -5 0 -13 10 -17 23 -6 22 -6 22 -7 -3z"/>
<path d="M870 728 c1 -28 2 -30 11 -15 10 18 11 18 24 1 11 -16 15 -16 29 -5
13 11 19 11 32 0 15 -12 16 -11 9 11 -12 40 -23 45 -36 17 -14 -30 -30 -27
-22 3 4 16 0 20 -21 20 -23 0 -26 -4 -26 -32z m37 16 c-3 -3 -12 -4 -19 -1 -8
3 -5 6 6 6 11 1 17 -2 13 -5z"/>
<path d="M1015 739 c-4 -12 -2 -26 4 -32 8 -8 11 -6 11 6 0 9 8 17 18 18 14 0
14 2 -3 8 l-20 8 20 5 c19 5 19 6 -2 7 -14 1 -24 -7 -28 -20z"/>
<path d="M1070 750 c0 -6 7 -13 15 -16 21 -9 19 -25 -2 -17 -14 4 -15 3 -7 -6
18 -19 42 -3 36 25 -4 24 -42 36 -42 14z"/>
<path d="M1153 735 c2 -23 7 -30 22 -30 15 0 20 7 22 30 2 25 1 26 -5 7 -4
-13 -11 -23 -17 -23 -5 0 -13 10 -17 23 -6 19 -7 18 -5 -7z"/>
<path d="M1211 728 c1 -19 3 -25 6 -15 5 18 6 18 24 1 18 -17 19 -16 19 16 0
28 -2 31 -15 20 -10 -9 -15 -9 -15 -1 0 6 -4 11 -10 11 -5 0 -9 -15 -9 -32z"/>
<path d="M1294 745 c-9 -23 4 -47 23 -43 11 2 19 14 21 31 3 22 -1 27 -18 27
-11 0 -23 -7 -26 -15z m34 -12 c-2 -10 -7 -18 -12 -18 -5 0 -10 8 -12 18 -1 9
4 17 13 17 8 0 13 -7 11 -17z"/>
<path d="M1356 752 c-12 -20 2 -47 25 -49 15 -1 17 0 7 3 -10 3 -18 10 -18 15
0 5 8 9 18 10 14 0 14 2 -3 8 l-20 8 20 5 c19 5 18 6 -2 7 -12 0 -24 -3 -27
-7z"/>
<path d="M1411 728 c1 -18 3 -25 6 -15 6 21 12 22 28 1 10 -14 12 -12 12 15 0
26 -4 31 -24 31 -20 0 -23 -5 -22 -32z"/>
<path d="M1470 730 c0 -25 4 -30 23 -29 16 1 18 2 5 6 -10 2 -18 8 -18 13 0 5
8 11 18 13 14 4 14 5 -3 7 l-20 1 20 9 c19 8 19 9 -2 9 -19 1 -23 -4 -23 -29z"/>
<path d="M1523 744 c-3 -8 0 -21 7 -27 10 -10 12 -8 7 6 -5 13 0 20 16 27 l22
9 -23 0 c-12 1 -25 -6 -29 -15z"/>
<path d="M1586 751 c-4 -6 -2 -19 3 -28 6 -10 11 -12 11 -5 0 18 20 15 20 -4
0 -8 5 -12 10 -9 6 4 7 12 4 18 -5 8 -3 8 7 0 19 -19 28 -16 22 7 -4 14 0 20
12 20 14 0 16 -6 10 -27 -5 -21 -4 -25 5 -17 18 18 7 49 -18 52 -12 2 -22 -2
-22 -9 0 -9 -3 -9 -14 0 -11 9 -15 9 -19 -1 -4 -10 -7 -10 -15 1 -7 9 -12 10
-16 2z"/>
<path d="M450 738 c0 -7 5 -20 10 -28 8 -12 10 -9 10 13 0 15 -4 27 -10 27 -5
0 -10 -6 -10 -12z"/>
<path d="M278 723 c28 -2 76 -2 105 0 28 2 5 3 -53 3 -58 0 -81 -1 -52 -3z"/>
<path d="M1557 723 c-4 -3 -7 -11 -7 -17 0 -6 5 -5 12 2 6 6 9 14 7 17 -3 3
-9 2 -12 -2z"/>
<path d="M1768 723 c23 -2 61 -2 85 0 23 2 4 4 -43 4 -47 0 -66 -2 -42 -4z"/>
<path d="M672 548 c-2 -34 1 -38 22 -38 13 0 27 7 30 16 9 24 7 54 -4 54 -5 0
-10 -13 -10 -30 0 -42 -27 -40 -33 3 -4 31 -4 31 -5 -5z"/>
<path d="M826 564 c-4 -9 -13 -14 -21 -10 -11 4 -15 -2 -15 -19 0 -14 5 -25
11 -25 5 0 7 6 3 13 -6 10 -4 10 7 0 23 -22 49 -16 49 12 0 14 -5 25 -11 25
-5 0 -7 5 -4 10 3 6 2 10 -3 10 -6 0 -13 -7 -16 -16z m24 -29 c0 -8 -4 -15 -9
-15 -13 0 -22 16 -14 24 11 11 23 6 23 -9z"/>
<path d="M990 571 c0 -5 -9 -11 -21 -14 -28 -7 -21 -41 9 -45 19 -3 22 1 22
32 0 20 -2 36 -5 36 -3 0 -5 -4 -5 -9z m0 -36 c0 -8 -4 -15 -9 -15 -13 0 -22
16 -14 24 11 11 23 6 23 -9z"/>
<path d="M1107 563 c-2 -10 -8 -26 -12 -36 -7 -17 -6 -18 15 -5 18 10 24 10
27 1 7 -21 33 -15 33 7 0 11 7 20 15 20 8 0 15 -8 15 -18 0 -15 8 -19 36 -20
31 -1 35 1 32 21 -4 31 -36 34 -48 5 -9 -20 -10 -20 -9 -3 2 41 1 44 -26 32
-14 -7 -25 -21 -26 -32 0 -15 -4 -12 -15 13 -16 36 -29 41 -37 15z m150 -39
c-3 -3 -12 -4 -19 -1 -8 3 -5 6 6 6 11 1 17 -2 13 -5z"/>
<path d="M741 533 c2 -24 2 -25 6 -5 2 12 8 22 13 22 5 0 11 -10 13 -22 4 -20
4 -19 6 5 1 21 -4 27 -19 27 -15 0 -20 -6 -19 -27z"/>
<path d="M871 533 c2 -23 2 -24 6 -5 5 27 23 29 23 2 0 -11 5 -20 11 -20 21 0
4 45 -18 48 -20 3 -23 -1 -22 -25z"/>
<path d="M1010 536 c0 -20 5 -26 23 -25 21 0 21 1 2 9 -19 8 -19 9 3 9 29 1
24 25 -6 29 -18 3 -22 -2 -22 -22z"/>
<path d="M1280 536 c0 -22 4 -24 49 -24 41 -1 49 2 46 16 -2 9 -4 20 -4 25 -2
13 -41 7 -41 -7 0 -10 -7 -12 -22 -8 -21 5 -21 6 -2 13 18 7 17 8 -3 8 -18 1
-23 -5 -23 -23z"/>
<path d="M1391 533 c2 -24 2 -25 6 -5 2 12 8 22 13 22 5 0 11 -10 13 -22 4
-20 4 -19 6 5 1 21 -4 27 -19 27 -15 0 -20 -6 -19 -27z"/>
<path d="M1440 534 c0 -17 6 -24 20 -24 11 0 23 6 26 14 3 8 13 12 27 8 20 -5
20 -6 1 -14 -18 -8 -18 -8 0 -5 12 1 20 11 21 23 1 19 -4 22 -47 22 -44 0 -48
-2 -48 -24z m32 1 c0 -5 -5 -11 -11 -13 -6 -2 -11 4 -11 13 0 9 5 15 11 13 6
-2 11 -8 11 -13z"/>
<path d="M450 435 c0 -19 4 -35 8 -35 5 0 9 16 10 35 1 19 -3 35 -8 35 -6 0
-10 -16 -10 -35z"/>
<path d="M552 455 c-15 -6 -22 -17 -20 -30 4 -23 37 -33 49 -13 6 10 9 10 9 1
0 -7 9 -13 20 -13 15 0 20 7 20 25 0 18 -5 25 -20 25 -11 0 -20 -6 -21 -12 -1
-7 -4 -4 -7 7 -6 17 -11 18 -30 10z m10 -30 c0 -5 -5 -11 -11 -13 -6 -2 -11 4
-11 13 0 9 5 15 11 13 6 -2 11 -8 11 -13z"/>
<path d="M840 460 c0 -5 -7 -10 -15 -10 -8 0 -15 -5 -15 -12 0 -9 -3 -9 -12 0
-22 22 -48 14 -48 -13 0 -14 4 -25 9 -25 5 0 8 6 7 13 0 6 4 13 9 14 6 1 9 -5
7 -13 -4 -17 14 -19 21 -1 4 10 6 10 6 0 1 -7 10 -13 21 -13 16 0 20 7 20 35
0 19 -2 35 -5 35 -3 0 -5 -4 -5 -10z m0 -35 c0 -8 -4 -15 -10 -15 -5 0 -10 7
-10 15 0 8 5 15 10 15 6 0 10 -7 10 -15z"/>
<path d="M992 438 c3 -33 3 -33 61 -34 57 -1 84 10 52 22 -11 5 -13 9 -5 14 6
4 -9 7 -34 7 -38 1 -45 -2 -49 -20 -3 -15 -5 -11 -6 11 0 17 -6 32 -12 32 -6
0 -9 -14 -7 -32z m65 -24 c-3 -3 -12 -4 -19 -1 -8 3 -5 6 6 6 11 1 17 -2 13
-5z"/>
<path d="M1172 455 c-15 -6 -22 -17 -20 -30 4 -23 37 -33 49 -13 6 10 9 10 9
1 0 -7 9 -13 20 -13 15 0 20 7 20 25 0 18 -5 25 -20 25 -11 0 -20 -6 -21 -12
-1 -7 -4 -4 -7 7 -6 17 -11 18 -30 10z m10 -30 c0 -5 -5 -11 -11 -13 -6 -2
-11 4 -11 13 0 9 5 15 11 13 6 -2 11 -8 11 -13z"/>
<path d="M1294 456 c-3 -8 -4 -23 -2 -33 4 -22 49 -25 55 -3 4 12 3 13 -5 1
-13 -19 -44 -6 -40 16 2 11 12 18 25 17 12 0 20 3 17 8 -9 13 -44 9 -50 -6z"/>
<path d="M1372 453 c-17 -18 -11 -47 11 -51 23 -5 32 22 15 46 -11 17 -15 17
-26 5z m20 -28 c0 -5 -5 -11 -11 -13 -6 -2 -11 4 -11 13 0 9 5 15 11 13 6 -2
11 -8 11 -13z"/>
<path d="M1480 460 c0 -5 -13 -10 -30 -10 -26 0 -30 -3 -29 -27 2 -24 2 -25 6
-5 5 27 23 29 23 2 0 -13 7 -20 20 -20 16 0 20 7 20 35 0 19 -2 35 -5 35 -3 0
-5 -4 -5 -10z m0 -35 c0 -8 -4 -15 -10 -15 -5 0 -10 7 -10 15 0 8 5 15 10 15
6 0 10 -7 10 -15z"/>
<path d="M1561 438 l-1 -36 50 0 c46 -1 50 1 50 24 0 18 -5 24 -22 24 -17 0
-19 -3 -10 -9 11 -7 11 -9 -1 -14 -9 -3 -18 1 -21 9 -3 8 -12 14 -20 14 -8 0
-17 6 -19 13 -3 6 -6 -4 -6 -25z m29 -13 c0 -8 -4 -15 -10 -15 -5 0 -10 7 -10
15 0 8 5 15 10 15 6 0 10 -7 10 -15z"/>
<path d="M481 423 c2 -24 2 -25 6 -5 2 12 8 22 13 22 5 0 11 -10 13 -22 4 -20
4 -19 6 5 1 21 -4 27 -19 27 -15 0 -20 -6 -19 -27z"/>
<path d="M640 411 c0 -20 4 -31 8 -26 12 17 52 36 52 25 0 -5 9 -10 20 -10 14
0 20 7 20 24 0 22 -4 24 -50 24 l-50 0 0 -37z m40 21 c0 -13 -12 -22 -22 -16
-10 6 -1 24 13 24 5 0 9 -4 9 -8z"/>
<path d="M860 425 c0 -21 3 -26 9 -16 6 9 11 10 15 2 4 -6 16 -11 27 -11 14 0
19 7 19 25 0 18 -5 25 -19 25 -11 0 -23 -5 -27 -11 -4 -8 -9 -7 -15 2 -6 10
-9 5 -9 -16z m57 -11 c-3 -3 -12 -4 -19 -1 -8 3 -5 6 6 6 11 1 17 -2 13 -5z"/>
<path d="M941 423 c2 -24 2 -25 6 -5 2 12 8 22 13 22 5 0 11 -10 13 -22 4 -20
4 -19 6 5 1 21 -4 27 -19 27 -15 0 -20 -6 -19 -27z"/>
<path d="M1503 434 c-3 -8 -1 -20 5 -26 16 -16 42 -2 42 22 0 24 -38 28 -47 4z
m37 -9 c0 -8 -4 -15 -9 -15 -13 0 -22 16 -14 24 11 11 23 6 23 -9z"/>
<path d="M57 173 c-4 -3 -7 -16 -7 -29 0 -26 18 -31 85 -23 28 3 44 7 38 7 -7
1 -14 14 -14 30 -1 15 -3 20 -6 11 -3 -11 -11 -15 -24 -12 -12 3 -19 0 -20 -8
0 -8 -4 -4 -9 9 -9 21 -30 29 -43 15z m24 -20 c-11 -5 -11 -7 0 -14 11 -7 10
-9 -3 -9 -10 0 -18 7 -18 15 0 8 8 15 18 14 12 0 13 -2 3 -6z"/>
<path d="M219 178 c-1 -2 -3 -14 -4 -28 -3 -27 12 -43 30 -32 5 3 22 5 37 3
18 -2 28 3 31 16 4 16 5 16 6 1 1 -24 21 -23 21 1 0 16 -7 20 -40 19 -22 0
-40 -4 -40 -9 0 -5 -8 -5 -17 -2 -11 4 -13 8 -5 11 13 4 6 22 -9 22 -5 0 -10
-1 -10 -2z"/>
<path d="M360 149 c0 -28 3 -31 25 -27 14 3 25 2 25 -2 0 -4 10 -6 23 -4 12 1
27 3 34 3 6 1 14 9 16 19 4 16 5 16 6 0 1 -20 41 -25 41 -5 0 8 4 7 10 -3 8
-12 10 -12 11 5 l0 20 9 -20 c8 -19 9 -18 9 4 1 19 -3 22 -19 18 -13 -3 -20 0
-20 9 0 11 -5 11 -27 2 -16 -6 -38 -10 -50 -10 -13 1 -23 -5 -26 -16 -3 -10
-5 -6 -6 11 -1 29 -21 38 -21 10 -1 -17 -1 -17 -14 0 -19 25 -26 21 -26 -14z"/>
<path d="M649 158 c-7 -34 0 -46 26 -41 11 2 37 4 58 4 37 0 43 5 29 25 -11
17 -72 16 -72 -2 0 -26 -29 -15 -32 14 l-3 27 -6 -27z m106 -18 c3 -5 1 -10
-4 -10 -6 0 -11 5 -11 10 0 6 2 10 4 10 3 0 8 -4 11 -10z"/>
<path d="M795 172 c-10 -11 -5 -23 8 -16 6 4 3 -2 -7 -14 -19 -22 -19 -22 12
-23 18 -1 38 -2 45 -3 16 -2 41 23 32 32 -4 4 -10 1 -12 -5 -3 -7 -9 -13 -15
-13 -6 0 -5 6 2 15 7 9 10 19 6 23 -9 8 -63 12 -71 4z m45 -27 c-7 -8 -18 -15
-24 -15 -6 0 -2 7 8 15 25 19 32 19 16 0z"/>
<path d="M927 174 c-4 -4 -7 -17 -7 -30 0 -20 5 -22 54 -23 44 0 56 3 59 17 4
15 5 15 6 0 1 -12 13 -17 49 -20 82 -6 112 1 112 24 0 15 -5 19 -19 15 -11 -3
-29 2 -40 10 -12 8 -21 10 -21 4 0 -15 -37 -14 -44 2 -5 10 -7 10 -12 0 -7
-16 -64 -17 -64 -1 0 9 -3 9 -12 0 -10 -10 -10 -15 2 -22 8 -5 11 -12 7 -17
-5 -4 -11 -2 -15 4 -5 8 -13 9 -22 3 -22 -14 -30 -12 -30 6 0 12 6 15 21 11
13 -3 19 -1 16 6 -4 14 -30 21 -40 11z m183 -34 c0 -5 -4 -10 -10 -10 -5 0
-10 5 -10 10 0 6 5 10 10 10 6 0 10 -4 10 -10z"/>
<path d="M1231 162 c-13 -25 5 -55 26 -43 18 10 55 3 65 -12 4 -6 12 -4 22 6
12 11 24 13 44 8 34 -10 117 12 90 24 -10 4 -18 13 -18 21 0 11 -4 12 -19 2
-15 -9 -25 -9 -45 0 -16 7 -26 8 -26 2 0 -13 -87 -13 -95 0 -10 16 -33 12 -44
-8z m43 -11 c3 -5 -1 -12 -10 -15 -22 -9 -24 -8 -24 9 0 16 25 21 34 6z"/>
<path d="M1516 153 c7 -30 12 -39 18 -32 2 2 6 16 10 32 5 23 3 27 -14 27 -17
0 -19 -4 -14 -27z"/>
<path d="M1599 173 c-1 -5 -1 -11 -1 -14 1 -3 -10 -4 -23 -1 -20 3 -25 0 -25
-16 0 -22 16 -31 43 -24 11 3 17 14 17 33 0 26 -8 41 -11 22z"/>
<path d="M1637 173 c-4 -3 1 -15 10 -25 16 -18 16 -18 0 -12 -9 3 -17 2 -17
-4 0 -14 28 -23 36 -11 4 7 10 7 18 0 18 -15 34 5 28 35 -5 27 -32 33 -32 7
-1 -17 -1 -17 -11 0 -11 18 -21 21 -32 10z"/>
<path d="M1733 172 c-13 -8 -6 -52 8 -52 5 0 9 14 9 30 0 33 0 33 -17 22z"/>
<path d="M1818 160 c-16 -22 -16 -25 -2 -33 21 -12 26 -5 22 30 l-3 28 -17
-25z"/>
<path d="M1857 173 c-12 -11 -7 -24 6 -17 8 6 8 3 -1 -9 -18 -22 -7 -40 17
-27 10 5 29 7 43 5 19 -4 27 1 36 21 16 33 15 34 -8 34 -11 0 -20 -4 -20 -10
0 -5 4 -10 10 -10 5 0 7 -7 4 -15 -8 -21 -24 -9 -24 18 0 22 0 22 -23 -3 -12
-14 -19 -21 -15 -16 14 18 -9 46 -25 29z"/>
<path d="M1986 171 c-4 -5 -2 -20 3 -33 9 -21 10 -21 10 10 1 32 -3 39 -13 23z"/>
<path d="M2019 173 c0 -5 -2 -18 -3 -30 -3 -22 16 -38 29 -25 3 3 16 7 28 7
25 0 35 31 17 49 -9 8 -17 4 -36 -17 -13 -15 -24 -24 -24 -18 0 5 5 13 10 16
6 3 10 10 10 16 0 11 -30 13 -31 2z m58 -35 c-3 -8 -6 -5 -6 6 -1 11 2 17 5
13 3 -3 4 -12 1 -19z"/>
<path d="M600 140 c0 -5 5 -10 10 -10 6 0 10 5 10 10 0 6 -4 10 -10 10 -5 0
-10 -4 -10 -10z"/>
<path d="M1760 140 c0 -5 5 -10 10 -10 6 0 10 5 10 10 0 6 -4 10 -10 10 -5 0
-10 -4 -10 -10z"/>
</g>
</svg>
