<?xml version="1.0" standalone="no"?>
<!DOCTYPE svg PUBLIC "-//W3C//DTD SVG 20010904//EN"
 "http://www.w3.org/TR/2001/REC-SVG-20010904/DTD/svg10.dtd">
<svg version="1.0" xmlns="http://www.w3.org/2000/svg"
 width="300.000000pt" height="300.000000pt" viewBox="0 0 300.000000 300.000000"
 preserveAspectRatio="xMidYMid meet">
<metadata>
Created by potrace 1.10, written by Peter Selinger 2001-2011
</metadata>
<g transform="translate(0.000000,300.000000) scale(0.100000,-0.100000)"
fill="#000000" stroke="none">
<path d="M2861 2784 c0 -11 3 -14 6 -6 3 7 2 16 -1 19 -3 4 -6 -2 -5 -13z"/>
<path d="M2863 2625 c0 -33 2 -45 4 -27 2 18 2 45 0 60 -2 15 -4 0 -4 -33z"/>
<path d="M133 2595 c0 -22 2 -30 4 -17 2 12 2 30 0 40 -3 9 -5 -1 -4 -23z"/>
<path d="M2863 2525 c0 -22 2 -30 4 -17 2 12 2 30 0 40 -3 9 -5 -1 -4 -23z"/>
<path d="M55 1884 l0 -417 101 7 101 6 28 -41 c39 -60 102 -125 144 -151 20
-12 38 -25 41 -29 3 -3 16 -9 30 -13 l25 -7 -25 20 c-14 11 -32 26 -41 34 -8
7 -23 17 -33 20 -27 11 -7 30 23 22 17 -4 23 -3 16 3 -5 6 -26 12 -45 15 -53
7 -63 14 -93 62 -16 25 -40 54 -54 65 -13 10 -33 40 -42 66 -11 27 -21 42 -25
35 -4 -6 -4 -16 0 -23 4 -7 3 -8 -4 -4 -8 5 -12 -1 -12 -14 0 -12 -4 -18 -10
-15 -5 3 -10 3 -10 -2 0 -4 -10 -8 -22 -9 -13 0 -34 -2 -47 -5 -21 -3 -24 0
-25 28 -1 31 17 52 28 32 2 -5 3 -4 2 3 -2 7 -10 12 -18 10 -11 -1 -14 7 -14
35 1 20 7 38 14 41 17 5 15 53 -3 76 -19 26 -19 34 3 39 14 4 14 5 -3 6 -17 1
-18 3 -5 11 10 6 11 10 3 10 -7 0 -13 8 -13 18 0 13 2 14 9 4 7 -11 9 -11 14
1 3 9 -1 18 -9 21 -8 3 -14 13 -14 23 0 15 2 16 10 3 12 -19 12 -13 1 28 -7
21 -6 32 1 32 6 0 5 6 -3 16 -11 13 -9 14 17 8 l29 -7 -30 25 c-17 15 -26 30
-21 35 5 4 11 2 13 -4 8 -23 23 -14 23 13 0 19 -4 25 -15 21 -8 -4 -17 -2 -20
3 -4 6 -1 10 4 10 6 0 11 7 11 16 0 8 5 12 10 9 15 -10 12 0 -9 24 -25 29 -14
66 19 66 13 0 26 7 28 14 3 8 0 11 -6 7 -15 -9 -63 4 -56 16 9 15 52 28 70 21
12 -4 14 -14 10 -34 -3 -16 -1 -29 4 -29 5 0 6 -7 3 -17 -4 -10 -2 -14 4 -10
6 4 13 4 16 0 2 -5 2 -1 -1 7 -2 8 -5 24 -6 35 -5 34 -17 65 -26 65 -5 0 -7 8
-4 18 4 12 3 14 -4 4 -7 -10 -57 -42 -66 -42 -1 0 -2 9 -3 20 -1 11 2 18 8 15
5 -4 9 -2 9 4 0 5 -6 11 -12 14 -7 2 -9 8 -5 13 5 5 13 1 19 -9 9 -17 12 -17
33 -3 23 15 25 15 37 -7 7 -12 11 -25 10 -29 -1 -4 5 -5 13 -2 8 4 15 2 15 -4
0 -6 -6 -12 -12 -15 -7 -2 -9 -8 -5 -13 9 -10 29 16 23 31 -2 6 -7 17 -10 26
-6 13 1 16 30 17 21 1 43 -3 50 -8 8 -7 13 -6 18 5 4 11 13 14 33 8 16 -3 36
-6 46 -5 21 1 22 -7 1 -23 -16 -11 -16 -12 0 -18 10 -4 14 -3 11 3 -15 24 89
46 130 28 20 -9 20 -9 1 6 -15 12 -16 16 -5 16 19 0 63 -40 54 -48 -3 -4 -10
0 -15 7 -5 10 -8 6 -7 -12 1 -14 6 -23 11 -20 4 3 12 -1 17 -8 6 -10 9 -11 9
-1 0 6 7 12 15 12 8 0 15 4 15 10 0 5 -8 6 -17 3 -13 -5 -15 -2 -10 11 4 10 3
15 -3 11 -6 -3 -10 1 -10 9 0 21 17 20 29 -1 6 -10 11 -13 11 -6 0 6 3 18 6
27 6 14 -23 16 -277 16 l-284 0 0 -416z m163 -360 c-2 -8 -7 -15 -13 -15 -5
-1 -17 -6 -25 -12 -8 -7 -5 0 5 15 22 30 38 36 33 12z m-91 -30 c-3 -3 -12 -4
-19 -1 -8 3 -5 6 6 6 11 1 17 -2 13 -5z"/>
<path d="M636 2285 c4 -8 10 -13 14 -10 5 3 12 0 16 -6 4 -8 3 -9 -4 -5 -15 9
-15 3 0 -29 11 -26 32 -33 43 -15 3 6 -4 10 -15 10 -16 0 -20 4 -16 16 3 9 6
20 6 25 0 5 5 9 11 9 6 0 9 -9 6 -20 -6 -24 -1 -25 21 -4 14 15 17 15 30 -2
13 -18 14 -17 8 9 -5 19 -3 26 4 22 5 -3 10 -12 10 -20 0 -8 9 -13 19 -12 11
0 19 6 18 12 -1 5 7 10 18 10 11 0 25 3 32 8 8 5 9 0 5 -15 -3 -14 -2 -19 6
-14 7 4 12 3 12 -3 0 -5 -5 -12 -10 -14 -6 -3 -5 -4 2 -3 7 2 12 15 11 30 -2
23 2 26 28 26 22 0 29 -5 29 -20 0 -11 3 -20 8 -20 4 0 8 -11 8 -25 2 -33 -7
-31 -28 5 -9 17 -13 30 -7 30 6 0 7 5 4 10 -3 6 -13 10 -20 10 -16 0 -9 -30 9
-42 7 -5 7 -8 -1 -8 -7 0 -13 -5 -13 -11 0 -5 4 -8 9 -5 10 7 77 -53 74 -65
-2 -4 4 -23 12 -41 10 -24 14 -28 15 -12 0 11 -5 25 -12 32 -8 8 -8 15 1 26 8
10 9 25 3 48 -7 30 -9 31 -14 11 -3 -13 -2 -23 4 -23 5 0 6 -5 2 -11 -3 -6
-10 -7 -15 -2 -12 12 -16 88 -4 88 5 0 9 -4 7 -10 -1 -5 6 1 16 14 l19 24 5
-69 c3 -38 1 -70 -4 -72 -4 -2 -8 -8 -8 -13 0 -6 4 -8 9 -4 17 10 22 -15 10
-49 -9 -24 -17 -33 -28 -29 -11 3 -10 0 4 -11 18 -15 18 -17 2 -33 -16 -16
-18 -16 -32 2 -8 11 -15 15 -15 8 0 -6 5 -15 10 -18 6 -3 10 -15 10 -26 0 -11
5 -17 10 -14 6 3 10 -3 10 -15 0 -20 -1 -20 -25 -4 -17 11 -37 15 -60 11 -19
-3 -37 -1 -40 4 -4 5 -11 9 -17 9 -7 0 -6 -5 1 -14 20 -24 -8 -30 -33 -7 -12
12 -28 21 -36 21 -9 0 -7 -5 6 -15 18 -15 18 -15 -6 -13 -14 2 -23 7 -22 12 2
5 -4 14 -13 19 -22 12 -105 16 -105 4 0 -4 4 -6 9 -2 6 3 15 -4 21 -15 6 -11
7 -20 3 -21 -4 0 -16 -2 -25 -4 -10 -2 -18 1 -18 6 0 5 5 9 12 9 6 0 9 2 6 5
-6 6 -58 -18 -58 -27 0 -14 -45 -8 -68 7 -18 14 -21 14 -16 1 7 -17 -17 -16
-39 3 -13 10 -20 10 -39 0 -21 -11 -22 -11 -9 4 12 15 11 17 -3 17 -10 0 -16
-9 -16 -25 0 -24 -1 -24 -18 -7 -12 11 -14 20 -8 24 6 4 0 8 -13 8 -20 0 -22
-4 -17 -25 8 -32 2 -32 -37 5 -37 35 -43 36 -51 14 -5 -14 -4 -15 8 -5 19 16
29 -1 17 -31 -7 -17 -10 -18 -10 -5 -1 21 -24 22 -45 2 -8 -8 -19 -15 -24 -15
-6 0 -12 -5 -14 -12 -3 -8 -12 -4 -26 10 -12 12 -28 22 -35 21 -6 0 -2 -5 10
-11 23 -11 32 -38 13 -38 -5 0 -10 -7 -10 -15 0 -22 -15 -18 -33 8 -13 18 -16
19 -16 5 -1 -9 11 -26 25 -37 l27 -21 -27 0 c-27 0 -31 -6 -18 -28 5 -7 16
-10 25 -6 10 3 17 1 17 -5 0 -6 3 -11 8 -11 4 0 6 18 4 39 -4 35 -1 41 25 54
62 31 329 53 763 63 232 6 289 4 365 -10 148 -27 135 -20 134 -74 -1 -63 -16
-158 -18 -117 -1 26 -3 28 -12 12 -7 -12 -7 -27 0 -48 5 -16 7 -29 4 -29 -3 0
5 -9 18 -20 13 -10 19 -19 14 -20 -6 0 -16 5 -23 12 -9 9 -12 6 -12 -15 0 -15
3 -27 6 -27 14 0 63 49 55 54 -5 4 -11 0 -14 -6 -2 -7 -12 2 -21 21 -10 18
-13 30 -7 27 6 -4 11 -2 11 3 0 6 8 11 18 11 14 0 14 2 3 9 -12 8 -12 12 -2
25 8 9 9 16 4 16 -7 0 -7 16 -2 43 4 23 7 51 6 62 -3 26 -31 58 -54 60 -10 1
-31 7 -46 13 -15 7 -49 13 -75 15 l-47 3 -3 43 c-2 24 -10 50 -18 58 -17 17
-18 9 -3 -18 11 -21 -5 -54 -22 -44 -4 3 -6 -4 -4 -15 4 -18 0 -21 -28 -18
-18 2 -30 7 -27 11 3 5 -6 15 -20 23 l-25 15 30 -6 c24 -4 27 -3 12 5 -19 12
-61 4 -52 -10 3 -5 -3 -13 -12 -19 -14 -8 -15 -11 -3 -11 10 -1 8 -4 -5 -9
-22 -9 -35 -5 -35 10 0 6 5 7 12 3 7 -4 8 -3 4 4 -11 18 -39 15 -32 -3 3 -8 2
-15 -3 -15 -5 0 -11 10 -15 22 -3 15 4 37 24 68 16 25 26 46 21 48 -4 1 -6 13
-4 26 3 13 0 40 -6 61 -10 37 -8 55 5 42 3 -3 10 -30 14 -59 6 -45 8 -47 9
-16 0 20 4 44 8 54 4 12 3 15 -5 10 -15 -9 -16 6 -1 21 7 7 2 17 -18 33 l-28
23 27 -7 c17 -4 28 -2 31 7 3 6 6 2 6 -11 1 -13 5 -20 11 -17 6 3 10 2 10 -4
0 -5 -5 -13 -10 -16 -15 -9 -2 -25 15 -19 10 4 12 12 5 30 -5 13 -6 24 -2 24
4 0 0 5 -8 10 -13 8 -13 10 2 10 9 0 20 -5 24 -11 5 -8 10 -6 16 5 5 9 13 16
18 16 4 0 -3 -23 -16 -51 -14 -28 -23 -54 -20 -57 3 -3 6 -1 6 5 0 15 36 53
50 53 7 0 10 8 7 19 -4 16 1 19 34 17 22 -1 39 2 39 7 0 16 11 1 14 -20 2 -10
-2 -21 -8 -25 -6 -4 -7 -10 -3 -14 3 -4 15 4 26 17 10 13 15 27 10 30 -5 3 15
6 46 7 31 1 55 -3 55 -9 0 -6 8 -5 23 2 15 8 9 -2 -18 -31 -22 -24 -34 -40
-27 -36 7 4 12 1 12 -8 0 -9 5 -16 11 -16 7 0 9 9 6 21 -4 15 3 29 26 50 34
31 49 37 41 15 -3 -7 3 -17 13 -20 14 -6 15 -4 6 5 -6 6 -9 18 -6 25 4 10 16
3 40 -24 20 -20 30 -29 23 -19 -11 15 -10 17 8 14 24 -3 42 -17 24 -17 -7 0
-12 -5 -12 -11 0 -5 5 -7 12 -3 8 5 9 2 5 -9 -3 -10 -2 -17 4 -17 6 0 8 13 5
31 -3 20 0 32 10 36 8 3 11 9 8 14 -3 5 0 9 5 9 6 0 11 -6 11 -12 0 -8 3 -9 8
-3 4 6 28 11 55 12 47 1 47 1 42 -28 -5 -30 8 -41 19 -14 3 8 0 15 -6 15 -6 0
-6 6 3 16 11 14 14 14 24 1 9 -12 12 -12 23 -1 15 17 46 18 74 3 15 -8 19 -8
14 0 -5 7 2 11 16 11 16 0 19 -3 10 -9 -8 -4 -13 -11 -12 -15 1 -4 -15 -40
-36 -81 -38 -74 -54 -85 -92 -61 -7 4 -12 3 -12 -3 0 -12 69 -33 82 -25 4 3 6
10 3 15 -6 9 52 69 67 69 5 0 8 8 7 18 0 10 -3 12 -6 5 -6 -16 -33 -17 -33 -2
0 5 6 7 13 3 6 -4 9 -4 5 1 -10 11 20 65 36 65 8 0 16 5 18 12 9 26 29 -6 27
-43 -2 -21 0 -41 4 -45 4 -4 7 19 8 52 1 58 1 59 14 29 8 -16 14 -26 15 -21 0
5 7 3 15 -4 10 -9 15 -9 15 -1 0 6 -4 11 -10 11 -5 0 -10 7 -10 15 0 18 9 19
44 5 14 -5 26 -6 26 -2 0 9 76 9 85 0 7 -7 35 14 35 26 0 3 -360 6 -800 6
-696 -1 -798 -3 -794 -15z m156 -17 c-7 -7 -12 -8 -12 -2 0 14 12 26 19 19 2
-3 -1 -11 -7 -17z m788 -7 c0 -4 -8 -7 -18 -7 -10 0 -19 5 -19 12 0 6 9 9 19
6 10 -2 18 -7 18 -11z m22 -3 c-7 -7 -12 -8 -12 -2 0 6 3 14 7 17 3 4 9 5 12
2 2 -3 -1 -11 -7 -17z m-542 -29 c0 -4 -7 -6 -15 -3 -8 4 -15 10 -15 15 0 4 7
6 15 3 8 -4 15 -10 15 -15z m840 -63 c0 -3 -4 -8 -10 -11 -5 -3 -10 -1 -10 4
0 6 5 11 10 11 6 0 10 -2 10 -4z m-669 -223 c-10 -17 -10 -16 -11 3 0 23 13
41 18 25 2 -6 -1 -18 -7 -28z m-501 11 c0 -8 5 -12 10 -9 6 3 10 1 10 -4 0
-14 -17 -14 -25 -1 -4 6 -11 8 -16 5 -5 -3 -6 1 -3 9 8 21 24 21 24 0z m395 6
c-3 -5 -1 -10 4 -10 6 0 11 -4 11 -10 0 -17 -19 -11 -30 10 -9 16 -8 20 5 20
9 0 13 -4 10 -10z m-200 -20 c3 -5 2 -10 -4 -10 -5 0 -13 5 -16 10 -3 6 -2 10
4 10 5 0 13 -4 16 -10z m-605 -31 c0 -6 -4 -7 -10 -4 -5 3 -10 11 -10 16 0 6
5 7 10 4 6 -3 10 -11 10 -16z m130 11 c0 -5 -5 -10 -11 -10 -5 0 -7 5 -4 10 3
6 8 10 11 10 2 0 4 -4 4 -10z m-186 -22 c-3 -4 -9 -8 -15 -8 -5 0 -9 4 -9 8 0
5 7 9 15 9 8 0 12 -4 9 -9z"/>
<path d="M2236 2283 c-3 -10 -9 -25 -12 -33 -4 -8 2 -4 14 10 16 19 23 22 32
13 9 -8 7 -13 -9 -18 -12 -3 -21 -11 -21 -17 0 -6 6 -6 15 2 8 7 15 8 15 2 0
-5 -6 -14 -13 -20 -7 -6 -13 -23 -15 -39 -1 -24 0 -26 9 -10 6 10 8 21 5 24
-3 3 2 13 12 22 10 9 21 24 25 34 7 20 52 23 60 4 2 -7 -4 -23 -14 -36 -14
-17 -19 -19 -19 -8 0 9 5 19 10 22 14 9 2 25 -18 25 -15 0 -15 -2 -2 -10 8 -5
11 -10 5 -10 -5 0 -10 -17 -10 -37 -1 -26 -5 -37 -14 -35 -7 1 -11 -3 -9 -10
3 -7 -6 -24 -19 -38 -26 -28 -34 -71 -8 -50 8 7 12 16 9 21 -3 5 -2 8 3 7 4
-1 18 3 29 10 12 6 24 9 28 7 3 -3 4 -2 1 2 -7 9 33 35 44 28 5 -3 13 0 17 6
4 8 3 9 -4 5 -7 -4 -12 -2 -12 4 0 6 -20 -3 -45 -20 -25 -17 -45 -28 -45 -25
0 16 77 104 95 109 16 5 17 8 6 15 -8 5 -16 17 -17 26 -3 18 17 17 75 -1 15
-4 22 -3 18 3 -3 5 0 10 8 10 8 0 15 -4 15 -9 0 -5 9 -4 21 3 15 8 24 8 32 0
6 -6 20 -11 32 -10 20 0 20 0 0 9 -19 8 -19 9 -1 9 10 1 25 -7 32 -16 13 -17
14 -17 8 0 -3 9 -1 17 5 17 6 0 11 -6 11 -14 0 -8 5 -18 11 -22 7 -4 9 0 5 13
-5 15 -1 18 22 17 22 -1 26 -5 24 -24 -2 -14 0 -20 7 -16 6 4 11 16 11 27 0
11 7 19 16 19 9 0 12 -5 8 -12 -6 -10 -4 -10 7 0 7 6 20 12 28 12 13 0 13 -2
3 -9 -10 -6 -9 -10 7 -14 15 -4 21 0 21 11 0 15 2 15 10 2 5 -8 10 -10 10 -4
0 7 9 14 19 17 14 3 18 1 14 -9 -3 -8 -9 -14 -14 -14 -5 0 -9 -5 -9 -12 0 -6
7 -4 18 5 10 10 23 17 29 17 6 0 14 6 16 13 4 9 6 9 6 -1 1 -7 -6 -15 -14 -18
-8 -4 -13 -10 -10 -15 7 -11 -26 -27 -45 -22 -13 4 -13 3 0 -6 8 -6 22 -8 30
-6 11 3 15 -3 15 -20 0 -20 -5 -25 -25 -24 -22 0 -23 1 -5 8 17 7 17 8 -8 13
-15 3 -25 3 -22 0 2 -3 -1 -12 -8 -20 -10 -13 -9 -14 1 -8 7 4 19 2 27 -4 8
-7 24 -9 36 -5 16 6 20 4 13 -6 -7 -12 -5 -12 9 -1 14 12 15 16 2 29 -8 8 -15
19 -15 24 0 6 15 -4 33 -22 l32 -33 5 45 c6 50 -1 65 -26 55 -16 -6 -16 -8 1
-26 10 -11 16 -22 13 -25 -3 -3 -11 1 -18 10 -7 8 -20 15 -29 15 -12 0 -9 7
12 26 15 14 31 23 36 20 5 -3 11 3 14 14 5 20 0 20 -348 20 -327 0 -353 -1
-359 -17z"/>
<path d="M625 2250 c2 -19 4 -37 4 -39 1 -3 6 0 12 6 8 8 6 19 -5 39 l-15 29
4 -35z"/>
<path d="M230 2259 c0 -5 5 -7 10 -4 6 3 10 8 10 11 0 2 -4 4 -10 4 -5 0 -10
-5 -10 -11z"/>
<path d="M1211 2254 c0 -11 3 -14 6 -6 3 7 2 16 -1 19 -3 4 -6 -2 -5 -13z"/>
<path d="M1386 2256 c3 -9 -3 -17 -15 -21 -12 -3 -21 -11 -21 -16 0 -15 16
-10 33 9 19 21 22 42 7 42 -5 0 -7 -6 -4 -14z"/>
<path d="M1663 2256 c4 -9 -1 -17 -12 -21 -11 -3 -21 -15 -24 -25 -7 -26 10
-26 18 0 3 11 16 22 28 25 12 2 31 6 42 8 14 3 12 5 -7 6 -16 0 -28 6 -28 11
0 6 -5 10 -11 10 -6 0 -9 -7 -6 -14z"/>
<path d="M442 2243 c9 -11 13 -11 19 -1 7 10 9 10 9 1 0 -7 7 -13 15 -13 9 0
15 -9 15 -22 0 -21 0 -21 14 -2 13 17 12 20 -5 26 -10 4 -19 12 -19 17 0 5
-13 9 -30 9 -24 -1 -28 -4 -18 -15z"/>
<path d="M827 2253 c-4 -3 -7 -19 -7 -33 0 -23 -6 -29 -30 -33 -17 -4 -30 -13
-30 -21 0 -10 6 -13 15 -10 8 4 12 10 9 15 -3 5 -1 9 5 9 5 0 12 -6 15 -12 3
-9 9 -8 20 6 8 10 13 22 11 27 -3 4 1 10 7 12 10 4 10 6 1 6 -7 1 -13 7 -13
15 0 8 6 17 13 19 6 3 7 6 1 6 -6 1 -14 -2 -17 -6z"/>
<path d="M1223 2223 c-8 -27 -8 -42 -1 -50 13 -16 -9 -46 -28 -39 -18 7 -50
-19 -35 -28 8 -5 7 -11 -4 -22 -8 -9 -12 -20 -9 -26 9 -14 23 3 27 32 2 14 8
23 13 22 5 -2 8 -9 6 -14 -3 -13 17 -38 31 -38 6 0 2 6 -9 14 -19 14 -19 15 4
38 12 14 20 27 17 30 -3 3 4 8 16 11 17 5 20 2 16 -13 -4 -14 0 -18 15 -15 12
3 23 7 27 11 3 4 -2 4 -11 1 -10 -4 -18 -2 -18 2 0 5 -3 16 -6 25 -4 11 -1 16
10 16 9 0 16 -7 16 -15 0 -8 9 -16 20 -16 29 -2 33 -3 50 -14 13 -8 13 -7 1 8
-7 9 -21 17 -31 17 -29 0 -45 27 -29 48 12 15 11 15 -8 -1 -16 -14 -22 -15
-26 -5 -2 7 -8 1 -12 -14 -8 -32 -17 -35 -36 -12 -10 13 -10 17 1 24 8 5 19 6
25 3 5 -3 4 0 -2 8 -7 7 -13 20 -13 29 0 13 1 13 10 0 8 -13 10 -12 10 3 0 31
-25 18 -37 -20z"/>
<path d="M2500 2246 c0 -8 4 -17 9 -20 5 -4 7 3 4 14 -6 23 -13 26 -13 6z"/>
<path d="M258 2233 c5 -10 12 -31 16 -48 6 -24 5 -27 -5 -18 -9 9 -17 9 -32 1
-17 -9 -19 -8 -14 6 22 54 22 52 6 36 -24 -24 -27 -44 -10 -60 9 -8 15 -13 14
-11 -2 2 2 10 8 18 10 11 14 10 24 -4 8 -11 10 -24 5 -33 -5 -9 -5 -23 1 -31
7 -12 9 -12 10 1 1 8 1 18 0 23 -1 10 7 9 30 -3 13 -8 19 -7 19 0 0 6 5 8 10
5 6 -3 10 -13 10 -21 0 -8 -4 -13 -9 -10 -5 4 -7 -3 -4 -14 3 -11 9 -17 14
-14 5 3 9 2 8 -3 -1 -4 -1 -15 0 -23 1 -13 3 -13 10 -1 6 10 3 32 -10 65 -14
39 -16 52 -6 59 8 6 6 7 -6 3 -10 -3 -23 -6 -29 -6 -6 0 -8 -7 -4 -15 7 -18
-1 -19 -17 -2 -19 19 -16 97 3 97 13 0 13 2 0 10 -9 6 -17 5 -22 -3 -6 -9 -8
-9 -8 1 0 6 -5 12 -10 12 -7 0 -7 -6 -2 -17z"/>
<path d="M1827 2243 c-9 -2 -15 -9 -12 -14 9 -14 22 -11 29 6 3 8 4 14 3 14
-1 -1 -10 -3 -20 -6z"/>
<path d="M2406 2217 l-18 -32 24 20 c12 11 24 20 25 20 1 0 -1 6 -5 12 -5 8
-14 0 -26 -20z"/>
<path d="M2474 2242 c4 -6 0 -22 -9 -35 -14 -22 -14 -25 1 -38 16 -13 17 -11
10 14 -4 19 -3 26 4 22 5 -3 10 3 10 14 0 11 -5 23 -12 27 -7 4 -8 3 -4 -4z"/>
<path d="M2534 2191 c4 -38 3 -62 -4 -66 -5 -3 -10 -14 -10 -23 1 -15 2 -15
15 2 17 22 18 146 2 146 -6 0 -7 -24 -3 -59z"/>
<path d="M2567 2234 c3 -8 14 -14 24 -14 12 0 16 -5 13 -15 -4 -8 -4 -15 -1
-15 3 0 7 7 10 15 4 9 -4 19 -23 28 -24 12 -28 12 -23 1z"/>
<path d="M2655 2240 c-3 -5 -1 -10 4 -10 6 0 11 5 11 10 0 6 -2 10 -4 10 -3 0
-8 -4 -11 -10z"/>
<path d="M2717 2243 c-21 -20 1 -33 42 -24 6 2 -21 31 -29 31 -3 0 -10 -3 -13
-7z"/>
<path d="M2766 2233 c5 -19 -23 -42 -45 -36 -10 3 -22 0 -25 -6 -4 -6 2 -8 14
-6 11 2 20 0 20 -4 0 -14 54 -5 58 9 3 13 2 12 -7 0 -15 -21 -15 4 0 32 7 12
7 18 1 14 -6 -3 -12 -3 -15 1 -2 5 -2 3 -1 -4z"/>
<path d="M786 2232 c-3 -5 1 -9 9 -9 8 0 12 4 9 9 -3 4 -7 8 -9 8 -2 0 -6 -4
-9 -8z"/>
<path d="M1520 2227 c0 -8 -6 -18 -12 -20 -9 -4 -7 -6 3 -6 9 -1 24 -10 35
-22 16 -17 16 -22 4 -29 -12 -8 -10 -10 7 -10 12 0 28 -2 35 -5 9 -4 19 4 26
17 9 20 11 20 11 4 1 -12 6 -16 16 -12 9 3 15 0 15 -8 0 -8 12 -17 26 -20 19
-5 30 -1 44 16 14 17 19 19 20 7 0 -8 -5 -20 -10 -25 -7 -7 -7 -11 3 -11 16 0
21 43 5 53 -6 4 -18 -3 -28 -16 -15 -19 -18 -20 -23 -6 -4 9 -3 16 2 16 7 0 8
18 2 53 0 5 -6 5 -12 1 -7 -4 -7 -9 -2 -13 6 -4 5 -18 -3 -36 -12 -27 -19 -21
-15 13 1 6 -3 12 -9 12 -6 0 -9 -4 -5 -9 3 -5 1 -12 -4 -15 -5 -3 -12 1 -15
10 -6 15 -8 15 -24 0 -10 -9 -25 -16 -33 -16 -12 0 -11 2 1 10 13 9 13 11 0
19 -8 5 -18 7 -24 4 -5 -4 -7 1 -3 9 3 9 -3 24 -14 34 -16 15 -19 15 -19 1z"/>
<path d="M1934 2224 c-18 -14 -18 -15 4 -4 12 6 22 13 22 15 0 8 -5 6 -26 -11z"/>
<path d="M2203 2221 c4 -27 13 -35 20 -19 2 7 -2 19 -9 26 -12 11 -13 9 -11
-7z"/>
<path d="M310 2211 c-13 -26 -13 -51 1 -51 6 0 9 7 5 15 -3 8 -1 15 5 15 6 0
7 5 3 11 -3 6 0 15 7 20 10 6 10 9 2 9 -7 0 -17 -9 -23 -19z"/>
<path d="M1181 2221 c-8 -5 -10 -14 -6 -21 5 -8 4 -11 -3 -6 -6 3 -13 2 -17
-4 -10 -16 22 -12 39 6 27 27 18 44 -13 25z"/>
<path d="M1708 2223 c7 -3 16 -2 19 1 4 3 -2 6 -13 5 -11 0 -14 -3 -6 -6z"/>
<path d="M2024 2217 c-4 -10 -2 -23 3 -28 14 -14 24 13 13 32 -7 11 -10 10
-16 -4z"/>
<path d="M2075 2220 c-3 -5 -1 -10 4 -10 6 0 11 5 11 10 0 6 -2 10 -4 10 -3 0
-8 -4 -11 -10z"/>
<path d="M2118 2222 c11 -7 10 -12 -3 -26 -12 -12 -13 -16 -3 -16 17 0 47 20
31 20 -7 0 -12 5 -10 11 1 6 -5 14 -13 16 -12 4 -12 3 -2 -5z"/>
<path d="M410 2210 c20 -13 43 -13 35 0 -3 6 -16 10 -28 10 -18 0 -19 -2 -7
-10z"/>
<path d="M720 2212 c0 -4 9 -8 20 -9 11 -1 18 2 15 8 -7 11 -35 12 -35 1z"/>
<path d="M856 2204 c-4 -9 -4 -19 -1 -22 2 -3 7 3 11 12 4 9 4 19 1 22 -2 3
-7 -3 -11 -12z"/>
<path d="M1786 2203 c-6 -14 -5 -15 5 -6 7 7 10 15 7 18 -3 3 -9 -2 -12 -12z"/>
<path d="M2641 2203 c-1 -16 5 -23 18 -23 19 0 35 23 24 34 -12 12 -22 6 -17
-9 4 -8 1 -15 -4 -15 -6 0 -13 8 -15 18 -4 13 -5 11 -6 -5z"/>
<path d="M590 2202 c0 -6 -3 -19 -6 -29 -5 -14 -4 -15 4 -4 6 8 19 12 31 8 12
-3 26 1 33 11 11 13 10 15 -11 9 -14 -3 -31 -1 -38 5 -9 7 -13 7 -13 0z"/>
<path d="M896 2180 c14 -23 20 -27 22 -15 3 13 6 14 20 3 12 -10 14 -10 8 0
-4 6 -21 19 -38 28 l-30 16 18 -32z"/>
<path d="M1088 2189 c5 -13 7 -31 4 -39 -3 -8 -2 -12 2 -8 4 3 8 12 10 20 1 7
6 20 10 28 5 8 6 12 1 8 -4 -4 -14 -3 -22 4 -11 9 -12 7 -5 -13z"/>
<path d="M2509 2203 c-5 -30 -3 -73 4 -73 4 0 7 18 7 40 0 22 -2 40 -5 40 -3
0 -6 -3 -6 -7z"/>
<path d="M2570 2203 c0 -6 -3 -20 -7 -30 -7 -17 -6 -17 11 0 14 14 16 21 7 30
-8 8 -11 8 -11 0z"/>
<path d="M395 2190 c3 -5 8 -10 11 -10 2 0 4 5 4 10 0 6 -5 10 -11 10 -5 0 -7
-4 -4 -10z"/>
<path d="M532 2180 c-15 -24 -16 -44 -2 -35 6 4 8 11 4 16 -3 6 3 13 15 16 11
3 18 9 15 14 -8 14 -18 11 -32 -11z"/>
<path d="M690 2190 c0 -6 -5 -8 -12 -4 -7 4 -8 3 -4 -4 4 -7 0 -12 -10 -12
-10 0 -14 -3 -11 -7 4 -3 18 -1 31 6 18 10 29 10 45 2 17 -10 20 -9 15 4 -4 8
-10 15 -14 15 -5 0 -15 3 -24 6 -9 3 -16 1 -16 -6z"/>
<path d="M1732 2186 c7 -7 19 -11 27 -8 11 4 10 7 -5 13 -29 12 -36 10 -22 -5z"/>
<path d="M1836 2184 c-17 -12 -17 -14 -4 -14 9 0 20 5 23 11 11 17 2 18 -19 3z"/>
<path d="M2406 2185 c-11 -8 -15 -15 -9 -15 6 0 16 7 23 15 16 19 11 19 -14 0z"/>
<path d="M424 2179 c-3 -5 -3 -9 0 -9 2 0 12 -3 22 -7 13 -5 15 -3 9 7 -5 9
-4 11 4 6 6 -4 8 -12 5 -18 -4 -6 -2 -13 4 -17 6 -3 14 -20 18 -36 l7 -30 -27
25 c-15 14 -33 25 -39 26 -7 0 -22 2 -34 2 -16 2 -20 7 -17 25 4 20 4 20 -5 2
-11 -25 -5 -35 20 -35 11 0 19 -7 19 -16 0 -11 6 -15 20 -11 10 3 24 -1 31 -9
6 -8 8 -14 3 -14 -5 0 -4 -4 2 -8 6 -4 16 -16 23 -27 11 -19 12 -18 8 7 -3 17
0 25 8 22 9 -4 47 26 38 30 -1 1 0 12 4 24 4 16 8 20 13 12 5 -9 9 -9 14 -1 4
6 2 11 -3 11 -6 0 -11 8 -11 18 -1 15 -2 14 -12 -3 -6 -11 -19 -26 -27 -33
-14 -10 -13 -11 4 -5 16 6 18 4 8 -8 -6 -8 -11 -18 -11 -24 0 -5 -5 -11 -11
-13 -6 -2 -11 6 -11 18 0 12 -5 31 -12 43 -7 12 -12 29 -13 37 0 16 -42 23
-51 9z"/>
<path d="M1367 2173 c3 -7 6 -13 8 -13 2 0 5 6 8 13 3 8 -1 14 -8 14 -7 0 -11
-6 -8 -14z"/>
<path d="M1490 2175 c0 -8 4 -15 8 -15 5 0 9 7 9 15 0 8 -4 15 -9 15 -4 0 -8
-7 -8 -15z"/>
<path d="M495 2170 c-3 -5 -1 -10 4 -10 6 0 11 5 11 10 0 6 -2 10 -4 10 -3 0
-8 -4 -11 -10z"/>
<path d="M1430 2169 c0 -5 5 -7 10 -4 6 3 10 8 10 11 0 2 -4 4 -10 4 -5 0 -10
-5 -10 -11z"/>
<path d="M1957 2165 c-8 -8 -17 -12 -19 -9 -3 2 -11 -4 -19 -13 -13 -16 -12
-17 3 -5 11 9 18 10 23 2 9 -14 -4 -32 -18 -24 -9 5 -9 4 0 -6 13 -14 48 -6
39 9 -4 5 0 12 6 14 7 3 5 6 -6 6 -18 1 -18 2 -1 21 21 23 14 27 -8 5z"/>
<path d="M2146 2165 c-3 -8 -1 -15 4 -15 6 0 10 7 10 15 0 8 -2 15 -4 15 -2 0
-6 -7 -10 -15z"/>
<path d="M2197 2162 c5 -11 3 -13 -7 -7 -9 5 -11 4 -6 -4 6 -9 12 -9 24 1 10
7 18 13 20 14 1 1 -6 4 -17 7 -15 3 -18 1 -14 -11z"/>
<path d="M2425 2166 c-28 -33 -37 -47 -33 -52 3 -3 16 9 28 26 21 30 25 50 5
26z"/>
<path d="M2597 2173 c-12 -11 -8 -25 6 -20 6 2 23 0 37 -5 l25 -8 -25 20 c-27
21 -33 23 -43 13z"/>
<path d="M390 2158 c0 -6 3 -8 6 -5 4 3 16 2 28 -4 20 -10 20 -10 2 5 -24 19
-36 20 -36 4z"/>
<path d="M1110 2133 c-14 -20 -24 -41 -22 -45 1 -4 -2 -8 -6 -8 -5 0 -14 -11
-20 -25 -10 -21 -9 -27 2 -31 8 -3 12 -15 10 -27 -3 -13 -1 -16 2 -7 4 8 17
25 30 39 29 31 23 39 -10 17 -39 -25 -43 -19 -11 14 16 17 35 28 42 26 7 -3
13 -1 13 4 0 6 -8 10 -17 10 -15 1 -14 4 5 20 16 13 21 24 15 34 -7 12 -13 7
-33 -21z"/>
<path d="M1170 2160 c-12 -8 -9 -10 13 -10 16 0 26 4 22 10 -8 12 -16 12 -35
0z"/>
<path d="M1985 2160 c-3 -5 -1 -10 4 -10 6 0 11 5 11 10 0 6 -2 10 -4 10 -3 0
-8 -4 -11 -10z"/>
<path d="M2023 2155 c2 -15 9 -19 27 -17 14 2 31 9 38 14 15 13 15 3 0 -25
-10 -20 -10 -21 5 -8 24 19 22 50 -3 48 -11 -1 -20 -5 -20 -9 0 -13 -38 -9
-44 5 -3 6 -4 3 -3 -8z"/>
<path d="M2672 2151 c11 -19 48 -36 46 -22 -2 18 3 24 11 13 7 -11 9 -10 14 3
4 9 3 13 -2 10 -5 -3 -12 -1 -16 5 -3 5 -11 10 -16 10 -6 0 -7 -4 -4 -10 3 -5
1 -10 -4 -10 -6 0 -11 5 -11 10 0 6 -7 10 -15 10 -12 0 -13 -3 -3 -19z"/>
<path d="M840 2150 c0 -5 5 -10 10 -10 6 0 10 5 10 10 0 6 -4 10 -10 10 -5 0
-10 -4 -10 -10z"/>
<path d="M1520 2151 c0 -8 -6 -11 -16 -7 -16 6 -48 -17 -37 -28 10 -10 25 -7
18 4 -3 6 3 10 14 10 21 0 37 17 27 27 -3 4 -6 1 -6 -6z"/>
<path d="M93 2132 c-3 -7 -2 -16 2 -20 4 -4 10 -1 12 6 3 6 9 9 14 6 6 -3 5
-11 -2 -20 -7 -9 -8 -14 -1 -14 6 0 14 -10 18 -22 4 -13 16 -31 26 -40 11 -9
19 -19 18 -22 -1 -4 1 -12 3 -19 3 -6 6 3 6 21 1 19 -3 31 -9 27 -11 -7 -45
52 -45 80 0 11 4 23 9 27 5 3 -3 5 -19 5 -15 -1 -30 -8 -32 -15z"/>
<path d="M780 2142 c0 -5 7 -13 16 -16 10 -4 14 -1 12 6 -5 15 -28 23 -28 10z"/>
<path d="M916 2141 c-17 -7 -18 -8 -3 -14 9 -3 19 -1 23 5 4 7 10 6 16 -3 8
-12 9 -11 6 0 -5 18 -17 22 -42 12z"/>
<path d="M2756 2141 c-4 -5 3 -7 14 -4 23 6 26 13 6 13 -8 0 -17 -4 -20 -9z"/>
<path d="M2892 2130 c-10 -16 -17 -18 -37 -10 -15 6 -25 6 -25 0 0 -5 -9 -11
-19 -15 -14 -4 -18 -12 -14 -23 6 -16 5 -16 -13 0 -19 17 -20 16 -19 -10 0
-15 -8 -35 -19 -44 -10 -10 -15 -18 -10 -18 5 0 -2 -7 -14 -16 -21 -14 -24
-14 -49 5 -14 12 -29 19 -32 16 -3 -4 1 -10 9 -15 9 -6 10 -10 3 -10 -6 0 -18
7 -27 15 -17 17 -30 20 -21 5 4 -6 -5 -10 -19 -10 -14 0 -26 5 -26 10 0 6 4
10 10 10 6 0 6 9 0 24 -5 13 -6 27 -2 32 4 4 1 4 -6 0 -7 -4 -12 -15 -11 -24
1 -10 1 -28 0 -42 l-1 -25 -20 25 c-13 18 -15 27 -7 32 8 5 4 8 -10 8 -12 0
-25 5 -29 12 -5 7 -17 -1 -35 -23 -15 -19 -31 -30 -35 -26 -4 4 -2 13 4 19 16
16 15 25 -3 25 -14 0 -20 -11 -15 -32 1 -6 -4 -5 -10 1 -9 9 -19 8 -41 -3 -44
-22 -44 -12 2 33 28 27 38 33 34 19 -6 -16 -5 -17 4 -5 33 47 -14 39 -60 -10
-35 -37 -58 -53 -44 -31 3 5 0 13 -6 17 -8 4 -9 3 -5 -5 12 -19 -24 -25 -38
-6 -10 14 -15 15 -21 5 -5 -9 -4 -11 3 -6 7 4 12 2 12 -3 0 -6 -22 -11 -51
-11 -37 0 -48 3 -43 13 5 9 4 9 -6 0 -7 -6 -19 -9 -26 -6 -12 4 -9 14 10 48
14 23 22 45 19 49 -4 4 -20 -19 -35 -51 -25 -51 -33 -44 -14 12 5 13 2 12 -8
-5 -8 -14 -15 -32 -16 -40 0 -23 -53 -23 -68 1 -10 16 -9 24 3 43 13 20 14 24
2 29 -9 3 -14 -1 -13 -11 0 -9 -4 -16 -10 -15 -16 3 -13 -30 4 -43 11 -8 12
-13 3 -18 -6 -4 -18 0 -27 8 -20 20 -28 20 -20 1 8 -21 -10 -19 -34 5 -17 17
-18 21 -5 26 20 8 19 26 -4 46 -17 15 -18 14 -18 -8 0 -20 2 -22 13 -13 11 9
14 9 14 0 0 -6 -6 -14 -14 -17 -8 -3 -22 -21 -31 -39 -15 -33 -17 -34 -34 -17
-20 19 -18 34 3 26 13 -5 33 13 24 22 -3 2 -20 6 -39 10 -24 4 -30 3 -20 -4 8
-6 11 -17 8 -25 -3 -8 0 -20 6 -26 6 -6 8 -11 5 -11 -4 0 -14 7 -22 16 -15 14
-16 13 -17 -8 0 -13 -3 -17 -6 -11 -3 9 -10 10 -24 3 -10 -6 -19 -7 -19 -3 0
4 -4 2 -9 -6 -13 -20 -41 -6 -42 21 0 15 -6 7 -18 -25 -9 -27 -20 -45 -23 -41
-4 3 -6 -7 -4 -22 1 -16 -6 -44 -16 -63 -11 -18 -17 -38 -14 -45 2 -6 5 -3 5
7 1 9 8 17 16 17 18 0 19 -12 3 -28 -6 -6 -8 -15 -4 -19 4 -4 11 -1 15 6 6 9
11 10 15 2 4 -6 3 -11 -2 -11 -5 0 -12 -14 -16 -30 -3 -19 -14 -34 -28 -40
-13 -5 -17 -9 -10 -9 7 -1 24 6 37 15 14 9 25 12 25 7 0 -5 -11 -16 -25 -23
-18 -10 -22 -16 -13 -21 7 -4 17 -4 24 1 6 6 14 7 17 3 4 -3 7 5 8 18 0 13 1
39 2 57 1 19 -1 36 -5 39 -5 2 -8 9 -8 14 0 6 5 7 10 4 6 -3 10 -1 10 4 0 6
-6 11 -13 11 -8 0 -12 11 -11 28 1 15 2 37 3 48 2 34 63 52 218 65 324 27
1058 -31 1064 -85 8 -75 -9 -166 -56 -296 -32 -88 -33 -89 -71 -96 -37 -7 -49
-17 -65 -57 -6 -18 -23 -47 -36 -64 -13 -18 -20 -33 -15 -33 4 0 26 27 47 60
21 32 44 61 52 64 19 8 16 -7 -7 -32 -12 -12 -16 -23 -10 -27 6 -3 24 16 41
44 20 32 36 48 45 44 12 -4 12 -8 3 -20 -11 -12 -5 -14 37 -11 41 3 49 6 52
24 3 20 0 21 -42 17 l-45 -6 12 27 c7 14 16 26 20 26 4 0 3 8 -2 19 -8 14 -6
23 9 36 11 10 17 22 13 28 -4 6 0 8 9 4 13 -5 17 7 21 66 8 120 -3 411 -16
419 -17 11 -21 10 -35 -12z m20 -2 c-9 -9 -9 -15 0 -25 6 -8 12 -40 12 -73 1
-54 -1 -60 -27 -75 l-28 -17 6 29 c3 15 2 22 -1 15 -5 -10 -9 -10 -20 -1 -17
14 -19 -2 -2 -19 7 -7 9 -12 6 -12 -4 0 -14 7 -23 17 -13 13 -19 13 -25 4 -6
-10 -12 -10 -30 -1 -12 6 -28 9 -36 6 -25 -9 -15 10 26 54 22 23 40 50 40 59
0 14 2 14 10 1 9 -13 10 -13 10 0 0 9 8 16 19 17 16 1 17 -2 7 -22 -6 -13 -13
-22 -15 -19 -2 2 -10 -1 -18 -7 -14 -13 -18 -69 -4 -69 5 0 8 8 7 18 -1 12 8
18 29 20 29 3 29 3 10 -12 -16 -13 -17 -15 -2 -10 9 3 25 0 34 -7 15 -13 15
-12 2 9 -12 19 -12 24 -1 31 10 6 9 10 -7 14 -12 3 -21 13 -21 22 0 14 3 15
15 5 9 -8 15 -9 15 -2 0 6 -5 14 -11 17 -10 7 16 45 30 45 3 0 0 -5 -7 -12z
m-1017 -96 c-12 -12 -33 -10 -28 3 2 8 11 11 19 8 8 -3 12 -8 9 -11z m609 -1
c16 -17 16 -19 0 -25 -12 -4 -15 -2 -10 9 3 9 0 15 -10 15 -8 0 -17 -7 -20
-15 -4 -8 -10 -13 -15 -10 -8 6 20 45 32 45 3 0 14 -8 23 -19z m369 12 c-7 -2
-19 -2 -25 0 -7 3 -2 5 12 5 14 0 19 -2 13 -5z m-1206 -65 c-3 -8 -6 -5 -6 6
-1 11 2 17 5 13 3 -3 4 -12 1 -19z"/>
<path d="M2782 2009 c-15 -24 -13 -32 7 -20 7 5 11 16 9 25 -2 14 -5 13 -16
-5z"/>
<path d="M201 2129 c-1 -21 21 -30 40 -18 11 7 9 9 -8 9 -12 0 -24 6 -26 13
-4 7 -6 6 -6 -4z"/>
<path d="M2793 2133 c-21 -8 -15 -22 7 -16 11 3 20 9 20 14 0 10 -8 10 -27 2z"/>
<path d="M605 2120 c-11 -5 -14 -9 -7 -9 7 -1 11 -4 8 -9 -2 -4 13 -7 34 -7
27 0 37 4 35 15 -2 17 -41 23 -70 10z"/>
<path d="M721 2111 c10 -14 15 -17 21 -8 6 9 8 8 9 -3 1 -8 0 -19 -1 -25 -1
-5 2 -7 6 -2 8 8 44 -21 44 -36 0 -6 -8 -3 -18 6 -17 15 -18 15 -16 -11 2 -40
3 -42 15 -42 8 0 8 4 0 14 -8 9 -9 16 -2 20 6 4 16 -2 23 -14 7 -11 17 -20 22
-20 5 0 2 8 -7 18 -10 10 -14 22 -11 25 4 4 2 13 -4 20 -15 17 -3 31 13 17 9
-7 16 -6 24 4 15 18 11 48 -8 54 -10 3 -12 -3 -6 -29 3 -19 3 -29 -2 -22 -8
12 -59 36 -78 38 -5 0 -16 4 -23 9 -11 7 -11 4 -1 -13z"/>
<path d="M1538 2123 c6 -2 18 -2 25 0 6 3 1 5 -13 5 -14 0 -19 -2 -12 -5z"/>
<path d="M2036 2111 c-10 -11 -15 -25 -11 -30 8 -14 25 -14 25 0 0 5 -4 7 -10
4 -17 -11 -11 7 7 21 10 7 15 15 12 18 -3 3 -14 -3 -23 -13z"/>
<path d="M2441 2121 c-8 -5 -9 -11 -3 -15 5 -3 12 1 16 9 6 17 6 18 -13 6z"/>
<path d="M164 2099 c0 -10 4 -19 8 -19 10 0 10 27 0 34 -4 2 -8 -4 -8 -15z"/>
<path d="M900 2106 c0 -18 15 -19 45 -5 20 9 20 9 0 7 -11 -2 -26 1 -32 5 -9
5 -13 3 -13 -7z"/>
<path d="M1231 2107 c-9 -11 -7 -17 6 -28 16 -13 17 -12 5 3 -10 13 -10 17 0
21 7 2 10 7 7 11 -3 4 -11 0 -18 -7z"/>
<path d="M1320 2111 c0 -6 4 -13 10 -16 6 -3 7 1 4 9 -7 18 -14 21 -14 7z"/>
<path d="M1580 2100 c0 -11 -5 -20 -11 -20 -6 0 -9 -7 -6 -15 4 -8 2 -17 -2
-20 -7 -4 -32 -82 -35 -108 -1 -4 -7 -11 -14 -16 -8 -5 -13 -10 -12 -12 1 -2
-3 -17 -9 -32 -13 -34 -13 -37 -2 -37 5 0 11 13 14 30 4 16 15 38 25 48 11 11
22 30 25 43 3 13 8 35 11 49 13 56 29 82 48 77 10 -3 21 0 25 5 3 7 1 8 -5 4
-7 -4 -12 -2 -12 4 0 6 -4 8 -10 5 -5 -3 -10 -1 -10 4 0 6 -4 11 -10 11 -5 0
-10 -9 -10 -20z"/>
<path d="M2570 2111 c0 -5 6 -14 14 -20 12 -10 13 -8 9 8 -5 21 -23 30 -23 12z"/>
<path d="M2650 2110 c-12 -8 -10 -10 8 -10 13 0 20 4 17 10 -7 12 -6 12 -25 0z"/>
<path d="M1400 2100 c0 -5 7 -7 15 -4 8 4 15 8 15 10 0 2 -7 4 -15 4 -8 0 -15
-4 -15 -10z"/>
<path d="M1502 2074 c-18 -27 -19 -32 -5 -27 12 5 14 3 8 -7 -5 -8 -4 -11 3
-6 6 3 9 16 7 27 -3 17 0 20 15 16 23 -6 25 -1 7 17 -11 11 -17 7 -35 -20z"/>
<path d="M1650 2099 c0 -8 18 -13 47 -12 7 1 10 -3 7 -8 -3 -5 -12 -9 -20 -9
-17 0 -18 -12 -2 -28 18 -18 27 -15 23 8 -2 11 3 24 13 29 14 8 15 10 2 15
-33 10 -70 13 -70 5z"/>
<path d="M2208 2090 c10 -12 18 -16 21 -9 2 6 -3 15 -10 20 -24 15 -29 10 -11
-11z"/>
<path d="M2706 2095 c-10 -8 -15 -19 -11 -26 6 -8 11 -6 18 7 10 17 11 17 17
-1 6 -18 7 -18 12 2 7 27 -11 35 -36 18z"/>
<path d="M380 2090 c0 -5 5 -10 10 -10 6 0 10 5 10 10 0 6 -4 10 -10 10 -5 0
-10 -4 -10 -10z"/>
<path d="M550 2086 c0 -9 5 -16 10 -16 6 0 10 4 10 9 0 6 -4 13 -10 16 -5 3
-10 -1 -10 -9z"/>
<path d="M956 2090 c-16 -5 -17 -8 -4 -12 16 -7 45 7 32 14 -5 3 -18 2 -28 -2z"/>
<path d="M1370 2090 c0 -5 5 -10 11 -10 5 0 7 5 4 10 -3 6 -8 10 -11 10 -2 0
-4 -4 -4 -10z"/>
<path d="M2301 2086 c-10 -11 -9 -14 1 -12 14 2 23 15 15 22 -2 2 -10 -2 -16
-10z"/>
<path d="M2475 2090 c-3 -5 1 -10 9 -10 9 0 16 5 16 10 0 6 -4 10 -9 10 -6 0
-13 -4 -16 -10z"/>
<path d="M242 2075 c-11 -12 -10 -15 3 -15 8 0 15 7 15 15 0 18 -2 18 -18 0z"/>
<path d="M870 2081 c0 -5 7 -12 16 -15 24 -9 27 -7 10 9 -17 17 -26 19 -26 6z"/>
<path d="M1420 2080 c-13 -8 -13 -10 2 -10 9 0 20 5 23 10 8 13 -5 13 -25 0z"/>
<path d="M2172 2078 c-7 -7 -12 -19 -12 -27 0 -19 23 1 26 24 3 18 1 18 -14 3z"/>
<path d="M202 2050 c0 -19 2 -27 5 -17 2 9 2 25 0 35 -3 9 -5 1 -5 -18z"/>
<path d="M625 2069 c-11 -16 -1 -19 13 -3 7 8 8 14 3 14 -5 0 -13 -5 -16 -11z"/>
<path d="M687 2063 c-13 -14 -17 -14 -17 -3 0 11 -3 11 -12 2 -9 -9 -9 -15 0
-24 10 -10 16 -7 28 10 19 28 34 28 34 0 0 -12 -3 -18 -6 -15 -4 3 -15 2 -26
-4 -14 -7 -23 -7 -33 1 -9 8 -15 8 -20 0 -7 -11 2 -15 55 -24 25 -4 31 -3 20
4 -13 9 -13 10 0 11 8 1 17 1 20 1 12 -1 9 43 -3 50 -17 11 -21 10 -40 -9z"/>
<path d="M1342 2068 c4 -10 1 -19 -8 -22 -15 -6 -10 -26 6 -26 20 0 28 35 12
50 -14 13 -15 12 -10 -2z"/>
<path d="M1736 2071 c-4 -5 3 -7 14 -4 23 6 26 13 6 13 -8 0 -17 -4 -20 -9z"/>
<path d="M2615 2070 c-3 -5 0 -10 7 -10 8 0 21 -9 31 -20 15 -17 37 -27 37
-16 0 12 -70 55 -75 46z"/>
<path d="M2660 2070 c0 -5 5 -10 10 -10 6 0 10 5 10 10 0 6 -4 10 -10 10 -5 0
-10 -4 -10 -10z"/>
<path d="M1290 2049 c0 -18 2 -19 15 -9 8 7 15 16 15 21 0 5 -7 9 -15 9 -9 0
-15 -9 -15 -21z"/>
<path d="M1380 2055 c0 -8 5 -15 11 -15 6 0 8 -7 5 -16 -3 -8 -2 -12 4 -9 6 3
10 -1 10 -9 0 -10 -6 -13 -15 -10 -19 8 -20 -24 -1 -49 13 -16 14 -16 20 -1 4
9 4 19 1 22 -3 3 -5 -1 -5 -8 0 -11 -3 -11 -12 -2 -10 10 -7 16 10 27 21 15
21 17 5 50 -17 36 -33 46 -33 20z"/>
<path d="M1459 2063 c-1 -5 -1 -11 0 -15 0 -4 -7 -4 -16 -1 -11 4 -14 3 -9 -5
4 -7 13 -23 20 -37 13 -24 14 -25 19 -5 3 11 1 18 -4 15 -5 -4 -6 8 -3 25 4
16 4 30 0 30 -3 0 -7 -3 -7 -7z"/>
<path d="M1602 2058 c-7 -7 -11 -23 -11 -37 l2 -26 4 25 c3 14 10 31 15 38 13
15 6 16 -10 0z"/>
<path d="M2580 2058 c0 -9 5 -20 10 -23 13 -8 13 5 0 25 -8 13 -10 13 -10 -2z"/>
<path d="M395 2050 c-3 -5 1 -10 10 -10 9 0 13 5 10 10 -3 6 -8 10 -10 10 -2
0 -7 -4 -10 -10z"/>
<path d="M523 2044 c-17 -18 -17 -29 0 -15 8 6 17 8 20 4 4 -3 7 -1 7 5 0 18
-14 21 -27 6z"/>
<path d="M570 2058 c0 -3 7 -19 16 -36 8 -18 13 -36 10 -40 -3 -5 1 -9 9 -9 8
0 15 6 15 14 0 7 -4 13 -10 13 -5 0 -10 8 -10 19 0 10 -7 24 -15 31 -8 7 -15
10 -15 8z"/>
<path d="M920 2049 c0 -8 24 -13 33 -7 1 1 13 -5 27 -12 25 -13 25 -13 7 7
-18 20 -67 29 -67 12z"/>
<path d="M1185 2050 c-5 -9 -4 -11 3 -6 8 4 12 0 12 -11 0 -10 5 -25 10 -33 8
-12 10 -11 10 6 0 30 -25 61 -35 44z"/>
<path d="M1262 2040 c0 -14 2 -19 5 -12 2 6 2 18 0 25 -3 6 -5 1 -5 -13z"/>
<path d="M256 2043 c-4 -5 -13 -8 -18 -8 -6 0 -13 -6 -15 -12 -6 -18 23 -16
41 3 9 8 16 17 16 20 0 7 -16 5 -24 -3z"/>
<path d="M290 2020 c0 -19 6 -33 16 -37 18 -7 34 13 33 42 0 16 -4 13 -14 -10
-14 -31 -19 -27 -15 13 1 12 -3 22 -9 22 -6 0 -11 -14 -11 -30z"/>
<path d="M865 2041 c-19 -8 -19 -8 3 -15 13 -4 26 -5 29 -2 4 3 1 6 -6 6 -7 0
-9 5 -6 10 7 11 7 11 -20 1z"/>
<path d="M1629 2040 c-3 -20 -4 -25 -12 -37 -5 -8 -4 -13 2 -13 10 0 15 14 12
33 0 4 4 7 9 7 6 0 10 5 10 10 0 6 -4 10 -10 10 -5 0 -11 -4 -11 -10z"/>
<path d="M2615 2040 c3 -5 8 -10 11 -10 2 0 4 5 4 10 0 6 -5 10 -11 10 -5 0
-7 -4 -4 -10z"/>
<path d="M404 2015 c-4 -8 -10 -12 -15 -9 -5 3 -9 0 -9 -5 0 -18 19 -12 30 9
6 11 8 20 5 20 -3 0 -8 -7 -11 -15z"/>
<path d="M831 2027 c-2 -24 22 -47 47 -46 24 2 24 2 4 6 -12 2 -20 9 -17 14 4
5 0 9 -9 9 -8 0 -17 6 -19 13 -3 6 -6 8 -6 4z"/>
<path d="M925 2022 c-13 -9 -18 -35 -6 -28 5 4 14 -1 19 -10 5 -9 15 -15 22
-12 9 3 8 8 -4 21 -9 9 -16 19 -16 22 3 11 -5 14 -15 7z"/>
<path d="M1116 2022 c-2 -4 4 -9 15 -9 10 -1 19 2 19 8 0 11 -27 12 -34 1z"/>
<path d="M1166 2014 c-3 -9 -1 -12 4 -9 6 3 10 -1 10 -9 0 -8 -4 -18 -10 -21
-12 -7 -13 -25 -2 -25 4 0 12 13 18 28 8 21 8 31 -2 39 -9 9 -14 9 -18 -3z"/>
<path d="M122 2000 c-14 -24 -15 -30 -3 -30 5 0 12 8 14 18 4 13 5 12 6 -5 0
-12 6 -25 13 -29 7 -5 8 -3 3 6 -6 9 -4 11 4 6 7 -5 10 -14 7 -22 -3 -8 1 -14
9 -14 22 0 18 27 -5 43 -11 8 -17 17 -13 20 3 4 1 7 -6 7 -7 0 -9 5 -6 10 3 6
2 10 -2 10 -5 0 -14 -9 -21 -20z"/>
<path d="M519 2003 c-13 -15 -12 -15 6 -6 11 6 27 8 35 6 13 -4 13 -3 0 6 -20
14 -25 14 -41 -6z"/>
<path d="M1032 2008 c-18 -18 -14 -28 8 -28 11 0 20 6 20 14 0 21 -15 27 -28
14z"/>
<path d="M1292 1995 c-10 -21 -9 -25 3 -25 9 0 15 10 16 23 0 21 1 21 10 2 8
-19 9 -19 6 -1 -3 29 -22 30 -35 1z"/>
<path d="M1516 2005 c4 -8 8 -15 10 -15 2 0 4 7 4 15 0 8 -4 15 -10 15 -5 0
-7 -7 -4 -15z"/>
<path d="M257 1991 c-4 -17 -3 -21 5 -13 5 5 8 16 6 23 -3 8 -7 3 -11 -10z"/>
<path d="M441 2001 c-14 -4 -26 -12 -28 -18 -3 -8 6 -7 26 3 17 9 31 17 31 20
0 2 -1 4 -2 3 -2 -1 -14 -4 -27 -8z"/>
<path d="M486 1995 c-3 -8 -1 -15 4 -15 6 0 10 7 10 15 0 8 -2 15 -4 15 -2 0
-6 -7 -10 -15z"/>
<path d="M1262 1985 c0 -16 2 -22 5 -12 2 9 2 23 0 30 -3 6 -5 -1 -5 -18z"/>
<path d="M1485 1999 c-4 -6 -5 -12 -2 -15 2 -3 7 2 10 11 7 17 1 20 -8 4z"/>
<path d="M204 1969 c1 -31 4 -33 25 -20 11 7 10 12 -6 28 -20 20 -20 20 -19
-8z"/>
<path d="M226 1988 c3 -5 10 -6 15 -3 13 9 11 12 -6 12 -8 0 -12 -4 -9 -9z"/>
<path d="M340 1978 l-25 -21 25 8 c31 9 33 11 29 24 -2 5 -15 0 -29 -11z"/>
<path d="M2172 1978 c-7 -7 -12 -20 -12 -30 0 -10 -6 -18 -14 -18 -8 0 -22
-14 -30 -32 -20 -39 -20 -38 7 -38 18 0 26 11 46 61 23 61 24 78 3 57z"/>
<path d="M515 1970 c-3 -5 -1 -10 4 -10 6 0 11 5 11 10 0 6 -2 10 -4 10 -3 0
-8 -4 -11 -10z"/>
<path d="M551 1966 c-9 -10 -7 -17 6 -27 16 -13 17 -12 4 4 -8 10 -9 17 -3 17
6 0 14 -5 17 -10 4 -6 11 -8 16 -5 5 4 3 13 -5 21 -18 17 -21 17 -35 0z"/>
<path d="M1337 1965 c-4 -8 -1 -17 6 -21 7 -4 9 -4 5 1 -4 4 -3 14 3 22 7 8 8
13 1 13 -5 0 -12 -7 -15 -15z"/>
<path d="M2056 1972 c-3 -5 8 -6 25 -4 16 2 29 6 29 8 0 8 -49 4 -54 -4z"/>
<path d="M2137 1960 c-3 -11 -2 -20 3 -20 4 0 10 9 13 20 3 11 2 20 -3 20 -4
0 -10 -9 -13 -20z"/>
<path d="M1478 1963 c7 -3 16 -2 19 1 4 3 -2 6 -13 5 -11 0 -14 -3 -6 -6z"/>
<path d="M1747 1952 c-18 -20 -22 -42 -9 -42 10 0 35 50 29 56 -2 2 -11 -4
-20 -14z"/>
<path d="M2388 1963 c6 -2 18 -2 25 0 6 3 1 5 -13 5 -14 0 -19 -2 -12 -5z"/>
<path d="M1300 1949 c0 -5 5 -7 10 -4 6 3 10 8 10 11 0 2 -4 4 -10 4 -5 0 -10
-5 -10 -11z"/>
<path d="M1950 1945 c-14 -16 -3 -20 19 -6 8 5 9 11 3 15 -5 3 -15 -1 -22 -9z"/>
<path d="M2305 1949 c-4 -6 -5 -13 -2 -16 7 -7 27 6 27 18 0 12 -17 12 -25 -2z"/>
<path d="M2518 1953 c7 -3 16 -2 19 1 4 3 -2 6 -13 5 -11 0 -14 -3 -6 -6z"/>
<path d="M1434 1935 c-10 -8 -14 -14 -9 -15 15 0 40 18 34 24 -3 3 -14 -1 -25
-9z"/>
<path d="M2601 1946 c2 -2 21 -6 42 -10 27 -5 37 -4 32 3 -3 6 -22 11 -42 11
-20 0 -34 -2 -32 -4z"/>
<path d="M100 1924 c0 -14 3 -14 15 -4 8 7 15 14 15 16 0 2 -7 4 -15 4 -8 0
-15 -7 -15 -16z"/>
<path d="M1580 1920 c0 -11 4 -20 8 -20 4 0 8 9 8 20 0 11 -4 20 -8 20 -4 0
-8 -9 -8 -20z"/>
<path d="M1460 1911 c0 -6 5 -13 10 -16 6 -3 10 1 10 9 0 9 -4 16 -10 16 -5 0
-10 -4 -10 -9z"/>
<path d="M1984 1909 c-3 -6 -14 -9 -24 -6 -19 5 -48 -8 -39 -17 3 -3 39 -9 80
-12 71 -7 73 -7 59 11 -8 10 -10 16 -4 12 7 -4 17 -1 23 7 9 11 5 13 -21 12
-18 -1 -36 -5 -40 -11 -5 -6 -8 -5 -8 3 0 15 -16 16 -26 1z"/>
<path d="M1680 1899 c0 -6 25 -18 53 -25 4 -1 8 -3 10 -4 2 -3 41 -6 147 -14
41 -3 68 -1 60 3 -8 5 -49 11 -92 15 -42 4 -99 13 -127 20 -28 7 -51 10 -51 5z"/>
<path d="M2280 1904 c-9 -3 -21 -13 -28 -24 -11 -18 -10 -20 15 -20 23 0 28 5
29 25 1 14 1 24 0 24 0 -1 -8 -3 -16 -5z"/>
<path d="M2729 1901 c14 -9 -44 -18 -134 -20 -100 -2 -280 -13 -284 -17 -8 -7
301 -3 436 6 135 9 187 21 150 35 -9 4 -30 4 -45 1 -62 -15 -102 -18 -102 -7
0 6 -8 11 -17 11 -15 0 -15 -2 -4 -9z"/>
<path d="M102 1895 c3 -3 18 -8 34 -11 22 -3 25 -2 14 6 -15 10 -58 14 -48 5z"/>
<path d="M848 1868 l4 -33 -31 29 c-17 17 -31 24 -31 17 0 -16 60 -71 77 -71
13 0 12 15 -4 73 -8 30 -20 18 -15 -15z"/>
<path d="M1000 1891 c0 -6 5 -11 10 -11 6 0 10 -7 10 -16 0 -8 -4 -12 -10 -9
-12 7 -12 3 -4 -19 3 -9 15 -16 25 -16 15 0 19 7 19 35 0 19 -4 35 -9 35 -5 0
-16 3 -25 6 -9 3 -16 1 -16 -5z"/>
<path d="M1158 1865 c-3 -27 0 -35 12 -35 9 0 16 10 16 25 1 14 -3 25 -10 25
-6 0 -4 5 4 10 13 8 13 10 -1 10 -12 0 -18 -11 -21 -35z"/>
<path d="M1200 1865 c0 -29 4 -35 21 -35 17 0 20 4 15 23 -3 12 -6 28 -6 35 0
6 -7 12 -15 12 -10 0 -15 -11 -15 -35z"/>
<path d="M670 1873 c0 -10 -3 -28 -6 -40 -6 -20 -2 -23 22 -23 22 0 25 3 16
12 -7 7 -12 22 -12 34 0 13 -4 26 -10 29 -5 3 -10 -2 -10 -12z"/>
<path d="M1522 1860 c0 -19 2 -27 5 -17 2 9 2 25 0 35 -3 9 -5 1 -5 -18z"/>
<path d="M455 1869 c-20 -9 -20 -9 0 -8 45 3 61 -1 46 -10 -7 -5 -29 -7 -47
-6 -21 2 -34 -1 -34 -8 0 -7 -5 -4 -11 6 -5 9 -14 17 -19 17 -18 0 -10 -29 9
-40 24 -12 112 -14 93 -1 -10 6 -7 10 12 15 31 8 33 21 7 36 -23 12 -29 12
-56 -1z"/>
<path d="M1323 1865 c-35 -6 -66 -15 -70 -18 -11 -11 59 -7 111 7 66 17 36 26
-41 11z"/>
<path d="M2188 1863 c7 -3 16 -2 19 1 4 3 -2 6 -13 5 -11 0 -14 -3 -6 -6z"/>
<path d="M2040 1846 c0 -8 61 -12 66 -4 3 4 -11 8 -30 8 -20 0 -36 -2 -36 -4z"/>
<path d="M2746 1840 c11 -4 36 -5 55 0 31 7 29 8 -21 8 -39 1 -49 -2 -34 -8z"/>
<path d="M220 1829 c0 -5 9 -9 20 -9 11 0 20 2 20 4 0 2 -9 6 -20 9 -11 3 -20
1 -20 -4z"/>
<path d="M1065 1830 c-7 -12 19 -12 55 0 22 7 21 8 -12 9 -20 1 -40 -3 -43 -9z"/>
<path d="M1385 1830 c3 -5 8 -10 11 -10 2 0 4 5 4 10 0 6 -5 10 -11 10 -5 0
-7 -4 -4 -10z"/>
<path d="M1561 1824 c0 -11 3 -14 6 -6 3 7 2 16 -1 19 -3 4 -6 -2 -5 -13z"/>
<path d="M2130 1832 c0 -9 47 -8 57 1 3 4 -8 7 -25 7 -18 0 -32 -4 -32 -8z"/>
<path d="M2198 1788 c-9 -29 -13 -57 -10 -63 3 -5 7 -4 10 3 2 7 7 10 12 7 8
-5 40 65 40 90 0 8 -8 15 -19 15 -14 0 -22 -13 -33 -52z m19 -20 c-3 -8 -6 -5
-6 6 -1 11 2 17 5 13 3 -3 4 -12 1 -19z"/>
<path d="M2274 1803 c-4 -21 -7 -55 -7 -75 1 -21 -2 -38 -6 -38 -4 0 -7 -18
-7 -40 1 -47 12 -52 21 -10 4 18 11 27 17 24 7 -5 8 -2 3 5 -11 18 -16 133 -6
127 5 -3 11 2 13 12 4 14 16 17 66 16 34 0 59 3 56 8 -3 4 -36 8 -74 8 l-69 0
-7 -37z"/>
<path d="M2510 1831 c8 -4 53 -5 100 -1 l85 7 -100 1 c-57 1 -93 -2 -85 -7z"/>
<path d="M933 1823 c15 -2 37 -2 50 0 12 2 0 4 -28 4 -27 0 -38 -2 -22 -4z"/>
<path d="M748 1813 c12 -2 30 -2 40 0 9 3 -1 5 -23 4 -22 0 -30 -2 -17 -4z"/>
<path d="M1300 1804 c0 -8 5 -12 10 -9 6 4 8 11 5 16 -9 14 -15 11 -15 -7z"/>
<path d="M1760 1807 c14 -6 28 -16 32 -22 5 -6 8 -3 8 6 0 18 -20 29 -48 28
-12 0 -9 -4 8 -12z"/>
<path d="M1050 1799 c-99 -10 -483 -12 -707 -4 -117 4 -173 3 -164 -3 8 -6 20
-8 28 -5 7 3 24 3 36 -1 20 -5 24 -12 25 -48 2 -51 12 -119 20 -132 3 -6 6
-32 7 -58 1 -27 8 -54 15 -61 10 -10 11 -7 6 13 -13 47 -13 55 -3 68 6 8 6 16
-1 25 -10 12 -17 49 -28 143 l-6 50 58 -7 c33 -3 181 -6 330 -6 273 -1 461 11
479 28 5 6 4 8 -5 8 -8 -1 -49 -5 -90 -10z"/>
<path d="M1186 1801 c-4 -5 3 -7 14 -4 23 6 26 13 6 13 -8 0 -17 -4 -20 -9z"/>
<path d="M1258 1793 c6 -2 18 -2 25 0 6 3 1 5 -13 5 -14 0 -19 -2 -12 -5z"/>
<path d="M1593 1790 c2 -8 0 -23 -5 -32 -5 -10 -6 -18 -4 -18 13 0 24 37 15
51 -9 12 -10 12 -6 -1z"/>
<path d="M1480 1770 c0 -5 5 -10 11 -10 5 0 7 5 4 10 -3 6 -8 10 -11 10 -2 0
-4 -4 -4 -10z"/>
<path d="M1561 1764 c0 -11 3 -14 6 -6 3 7 2 16 -1 19 -3 4 -6 -2 -5 -13z"/>
<path d="M1730 1770 c-12 -7 -12 -12 -3 -21 15 -15 26 -7 21 15 -2 11 -7 13
-18 6z"/>
<path d="M201 1760 c-1 -18 16 -46 23 -40 2 3 -2 16 -9 30 -8 15 -14 19 -14
10z"/>
<path d="M1786 1761 c-28 -11 1 -21 38 -14 21 4 27 2 24 -7 -4 -14 -100 -38
-155 -39 -20 -1 -33 -6 -33 -13 0 -7 -10 -34 -22 -60 -22 -47 -48 -70 -48 -44
0 8 5 16 12 18 6 2 9 11 6 19 -3 9 -12 3 -26 -21 -17 -28 -22 -31 -23 -15 0
11 -3 14 -6 8 -2 -7 -9 -13 -15 -13 -16 0 22 40 53 56 15 7 29 11 32 8 8 -8
29 35 23 49 -2 7 -5 4 -5 -6 -1 -15 -7 -17 -33 -13 -18 3 -38 0 -45 -6 -10 -8
-17 -6 -28 8 -12 16 -14 17 -15 3 0 -24 -27 -31 -45 -13 -8 9 -15 11 -15 5 0
-18 5 -26 13 -23 4 1 14 -4 22 -11 12 -12 10 -18 -13 -36 -15 -12 -39 -25 -54
-28 -16 -3 -28 -10 -28 -16 0 -7 46 -8 139 -3 93 5 141 3 146 -4 3 -5 -2 -11
-12 -11 -44 -3 -60 -7 -79 -17 -11 -5 -51 -13 -90 -16 -88 -6 -126 -15 -118
-28 3 -5 22 -7 43 -4 20 3 82 10 138 17 90 11 101 14 90 27 -10 13 -9 15 11
10 12 -4 22 -2 22 5 0 6 3 7 6 4 4 -4 1 -13 -6 -22 -10 -12 -10 -15 4 -15 9 0
16 -4 16 -9 0 -4 11 -24 24 -44 28 -41 25 -50 -12 -36 -28 11 -54 -4 -36 -20
14 -13 67 -24 59 -11 -16 26 33 6 67 -27 21 -20 38 -32 38 -25 0 7 -5 12 -10
12 -6 0 -15 11 -21 24 -7 14 -21 27 -33 30 -15 4 -22 14 -24 33 -1 15 -7 30
-12 31 -16 6 -30 39 -24 56 3 9 11 13 17 9 6 -4 8 4 3 23 -4 19 -3 24 2 15 6
-8 18 -11 30 -7 14 5 24 1 31 -11 6 -10 11 -12 11 -5 0 8 9 10 28 6 18 -5 24
-3 17 4 -5 6 -21 12 -35 14 -14 2 -29 13 -35 26 -5 12 -18 22 -28 22 -10 0
-15 -5 -12 -10 4 -6 11 -8 16 -5 5 4 9 -1 9 -9 0 -20 -14 -20 -34 -1 -22 22
-26 19 -19 -15 4 -22 2 -30 -9 -30 -18 0 -55 41 -52 58 1 6 2 28 3 47 1 29 5
35 22 35 35 0 159 33 159 42 0 4 8 8 18 8 14 1 13 4 -7 20 -24 21 -43 24 -75
11z m-176 -103 c0 -4 -9 -8 -19 -8 -11 0 -33 -12 -50 -26 -27 -22 -29 -28 -19
-47 10 -20 10 -21 -5 -8 -14 11 -20 11 -34 0 -15 -12 -16 -12 -8 1 4 8 17 25
29 38 12 13 21 27 20 30 -1 7 52 28 74 28 6 0 12 -3 12 -8z m40 -58 c0 -5 -5
-10 -11 -10 -5 0 -7 5 -4 10 3 6 8 10 11 10 2 0 4 -4 4 -10z"/>
<path d="M130 1746 c0 -8 7 -16 15 -20 8 -3 15 -13 15 -21 0 -10 -5 -13 -12
-9 -7 4 -2 -4 11 -16 17 -17 20 -25 12 -28 -8 -3 -17 2 -22 9 -5 8 -9 10 -9 4
0 -5 -4 -5 -8 2 -6 9 -11 7 -20 -7 -7 -12 -8 -21 -2 -25 6 -4 10 -3 9 2 -4 20
2 23 17 8 9 -9 23 -14 30 -11 17 6 18 -6 3 -21 -7 -7 -4 -12 11 -16 19 -5 21
-2 17 21 -9 54 -32 127 -42 134 -16 12 -25 9 -25 -6z"/>
<path d="M1500 1750 c-9 -6 -10 -10 -3 -10 6 0 15 5 18 10 8 12 4 12 -15 0z"/>
<path d="M1523 1740 c-11 -16 -10 -18 2 -14 8 4 15 12 15 20 0 19 -3 18 -17
-6z"/>
<path d="M1326 1718 c-3 -13 -6 -79 -7 -148 -1 -145 -6 -171 -37 -185 -12 -5
-22 -14 -22 -19 0 -19 -150 -156 -177 -162 -16 -3 -37 -10 -48 -15 -31 -14
-103 -27 -131 -24 -13 1 -24 -1 -24 -4 0 -12 -80 -11 -80 2 0 9 -3 8 -9 -1
-13 -21 -145 -2 -189 26 -25 16 -29 8 -7 -14 8 -9 15 -12 15 -8 0 3 6 2 13 -4
17 -14 131 -29 197 -26 106 5 164 15 237 39 41 14 78 23 82 21 4 -3 13 0 21 6
13 8 12 9 -2 5 -9 -3 -19 1 -22 9 -3 7 -2 13 3 11 4 -1 25 14 47 35 21 20 63
57 92 83 28 26 52 52 52 57 0 6 9 23 21 39 11 16 21 38 22 49 1 11 4 20 8 20
13 0 18 30 8 52 -8 20 -9 20 -6 3 2 -11 -2 -26 -10 -33 -11 -11 -13 -9 -14 10
-1 22 -1 22 -9 -2 -7 -22 -8 -21 -9 13 -1 24 4 37 12 37 9 0 11 16 7 65 -6 70
-23 103 -34 63z m24 -49 c0 -5 -4 -9 -10 -9 -5 0 -10 7 -10 16 0 8 5 12 10 9
6 -3 10 -10 10 -16z m0 -50 c0 -11 -4 -17 -10 -14 -5 3 -10 13 -10 21 0 8 5
14 10 14 6 0 10 -9 10 -21z"/>
<path d="M2115 1730 c-3 -5 -1 -10 4 -10 6 0 11 5 11 10 0 6 -2 10 -4 10 -3 0
-8 -4 -11 -10z"/>
<path d="M2157 1733 c-4 -3 -7 -13 -7 -22 1 -13 3 -13 11 2 11 19 8 33 -4 20z"/>
<path d="M350 1717 c0 -9 5 -19 10 -22 7 -4 7 -11 2 -18 -5 -7 -12 -60 -16
-119 -6 -100 -5 -108 11 -107 11 0 13 3 5 6 -6 2 -9 9 -6 14 3 6 6 42 6 82 1
91 11 121 39 112 20 -7 20 -6 4 25 -9 18 -19 29 -22 26 -4 -3 -12 -1 -20 5
-10 9 -13 8 -13 -4z"/>
<path d="M1556 1717 c3 -10 9 -15 12 -12 3 3 0 11 -7 18 -10 9 -11 8 -5 -6z"/>
<path d="M312 1695 c0 -16 2 -22 5 -12 2 9 2 23 0 30 -3 6 -5 -1 -5 -18z"/>
<path d="M422 1698 c6 -13 12 -34 13 -48 0 -14 4 -31 9 -39 5 -8 4 -16 -1 -20
-13 -8 -23 -51 -28 -126 -3 -32 -9 -63 -15 -69 -7 -7 -10 -5 -10 6 0 9 -6 18
-13 21 -10 4 -13 -2 -9 -19 3 -17 11 -24 28 -24 31 0 39 21 52 135 6 50 13
100 16 112 5 25 -23 87 -42 91 -10 2 -10 -2 0 -20z"/>
<path d="M2490 1691 c-41 -16 -112 -49 -156 -75 -45 -25 -87 -46 -92 -46 -20
0 -54 -59 -46 -82 6 -19 7 -19 16 -5 5 10 6 22 3 27 -8 13 14 35 43 44 16 5
22 3 22 -7 0 -8 -10 -18 -22 -22 l-23 -8 23 -4 c25 -5 26 -7 11 -35 -9 -16 -8
-19 3 -16 7 3 14 19 16 37 3 30 10 35 95 77 50 24 94 49 98 55 3 6 8 9 10 7 7
-5 149 66 149 75 0 11 -19 8 -53 -10 -30 -15 -31 -15 -18 0 18 22 10 21 -79
-12z m40 -15 c-14 -7 -61 -33 -105 -56 -44 -23 -91 -49 -103 -57 -24 -15 -39
-12 -28 5 3 5 29 21 58 36 29 15 64 33 78 41 47 27 85 43 105 44 17 1 16 -1
-5 -13z"/>
<path d="M2170 1706 c0 -2 6 -9 14 -15 10 -8 16 -8 24 2 8 10 5 13 -14 15 -13
1 -24 0 -24 -2z"/>
<path d="M817 1693 c-12 -11 -8 -76 7 -123 8 -25 20 -70 27 -100 6 -30 19 -70
29 -89 17 -33 18 -34 25 -12 4 12 2 28 -5 36 -6 8 -9 19 -5 25 3 5 -1 10 -10
10 -9 0 -14 4 -11 9 3 5 0 21 -8 37 -7 16 -16 45 -20 64 -5 33 -5 34 9 16 14
-18 19 -38 16 -58 0 -4 6 -5 14 -2 10 4 15 0 15 -15 0 -12 4 -21 8 -21 20 0
20 14 0 40 -11 15 -21 39 -21 53 -1 14 -5 23 -8 21 -7 -4 -39 62 -43 89 -3 21
-11 29 -19 20z m33 -94 c0 -6 -4 -7 -10 -4 -5 3 -10 11 -10 16 0 6 5 7 10 4 6
-3 10 -11 10 -16z m47 -221 c-3 -8 -6 -5 -6 6 -1 11 2 17 5 13 3 -3 4 -12 1
-19z"/>
<path d="M866 1685 c-3 -8 -1 -15 4 -15 6 0 10 -14 10 -31 0 -17 4 -28 10 -24
15 9 12 61 -4 74 -10 9 -15 8 -20 -4z"/>
<path d="M546 1677 c2 -7 -7 -19 -21 -27 -14 -7 -25 -18 -25 -23 0 -6 -7 -19
-17 -29 -15 -17 -15 -18 0 -18 10 0 17 4 17 8 0 4 16 25 35 45 38 40 44 57 20
57 -8 0 -12 -6 -9 -13z"/>
<path d="M220 1670 c0 -5 5 -10 10 -10 6 0 10 5 10 10 0 6 -4 10 -10 10 -5 0
-10 -4 -10 -10z"/>
<path d="M480 1670 c0 -5 7 -10 16 -10 8 0 12 5 9 10 -3 6 -10 10 -16 10 -5 0
-9 -4 -9 -10z"/>
<path d="M961 1643 c-5 -21 -13 -63 -16 -94 -6 -46 -4 -56 9 -56 8 0 13 4 10
9 -8 12 4 58 15 58 13 0 34 -76 28 -101 -3 -12 0 -28 9 -36 12 -13 14 -9 15
24 1 21 0 47 -1 58 -2 20 -38 77 -52 83 -4 2 -5 23 -1 48 7 54 -3 58 -16 7z"/>
<path d="M1166 1628 c-18 -29 -39 -65 -47 -80 -58 -112 -61 -120 -50 -131 8
-8 11 -7 11 6 0 9 4 17 10 17 5 0 7 -7 3 -16 -4 -12 -2 -15 8 -12 8 3 13 10
12 16 -3 12 34 100 78 184 32 63 33 68 19 68 -6 0 -25 -24 -44 -52z m-46 -138
c0 -5 -5 -10 -11 -10 -5 0 -7 5 -4 10 3 6 8 10 11 10 2 0 4 -4 4 -10z"/>
<path d="M1041 1650 c0 -14 -4 -36 -7 -50 -5 -22 -4 -23 6 -7 6 9 9 32 7 50
-3 25 -4 26 -6 7z"/>
<path d="M2090 1660 c-13 -8 -12 -10 3 -10 9 0 17 5 17 10 0 12 -1 12 -20 0z"/>
<path d="M2154 1653 c-3 -10 -10 -26 -15 -35 -5 -9 -11 -34 -15 -55 -9 -58
-10 -67 -18 -85 -4 -9 -3 -25 3 -35 10 -17 10 -17 11 2 0 17 2 18 11 5 8 -12
9 -11 5 5 -3 11 1 59 9 105 8 47 15 87 15 90 0 3 5 -2 10 -10 8 -12 10 -11 10
8 0 26 -18 30 -26 5z"/>
<path d="M2201 1644 c0 -11 3 -14 6 -6 3 7 2 16 -1 19 -3 4 -6 -2 -5 -13z"/>
<path d="M1089 1645 c-3 -5 -7 -30 -7 -55 -1 -39 1 -42 9 -20 10 25 8 92 -2
75z"/>
<path d="M1390 1621 c0 -17 2 -31 4 -31 8 0 13 51 5 56 -5 3 -9 -9 -9 -25z"/>
<path d="M2086 1625 c-3 -8 -1 -15 4 -15 6 0 10 7 10 15 0 8 -2 15 -4 15 -2 0
-6 -7 -10 -15z"/>
<path d="M2930 1632 c0 -7 -7 -12 -15 -12 -8 0 -15 -4 -15 -10 0 -13 37 -13
46 1 3 6 1 16 -5 22 -8 8 -11 8 -11 -1z"/>
<path d="M1725 1620 c3 -5 8 -10 11 -10 2 0 4 5 4 10 0 6 -5 10 -11 10 -5 0
-7 -4 -4 -10z"/>
<path d="M127 1589 c6 -23 9 -24 16 -5 3 8 0 17 -7 19 -10 4 -12 -1 -9 -14z"/>
<path d="M2054 1553 c-10 -26 -21 -52 -23 -57 -2 -5 3 -6 10 -4 8 3 14 9 14
14 1 5 7 26 14 47 19 56 7 56 -15 0z"/>
<path d="M675 1580 c3 -5 10 -10 16 -10 5 0 9 5 9 10 0 6 -7 10 -16 10 -8 0
-12 -4 -9 -10z"/>
<path d="M1685 1580 c3 -5 8 -10 11 -10 2 0 4 5 4 10 0 6 -5 10 -11 10 -5 0
-7 -4 -4 -10z"/>
<path d="M2926 1581 c-4 -5 -2 -12 3 -15 5 -4 12 -2 15 3 4 5 2 12 -3 15 -5 4
-12 2 -15 -3z"/>
<path d="M156 1565 c-3 -9 0 -15 9 -15 9 0 12 6 9 15 -4 8 -7 15 -9 15 -2 0
-5 -7 -9 -15z"/>
<path d="M400 1549 c0 -5 5 -7 10 -4 6 3 10 8 10 11 0 2 -4 4 -10 4 -5 0 -10
-5 -10 -11z"/>
<path d="M100 1546 c0 -9 30 -14 35 -6 4 6 -3 10 -14 10 -12 0 -21 -2 -21 -4z"/>
<path d="M1877 1531 c-2 -10 -1 -25 4 -32 7 -11 9 -9 9 6 0 17 2 18 11 5 8
-12 9 -10 4 8 -8 27 5 28 36 3 l24 -20 -25 5 -25 5 24 -11 c18 -8 26 -7 32 2
5 8 13 5 28 -13 19 -22 29 -17 13 7 -8 13 -98 54 -117 54 -7 0 -15 -9 -18 -19z"/>
<path d="M2503 1523 c-19 -3 -41 -14 -52 -29 -15 -19 -27 -24 -48 -21 -15 3
-43 -2 -62 -9 -19 -8 -52 -16 -74 -18 -43 -4 -82 -30 -71 -48 5 -8 11 -6 19 5
8 11 15 13 22 6 12 -12 117 16 145 39 19 16 64 12 61 -5 -2 -7 8 -10 27 -8 17
2 36 -2 44 -10 15 -15 26 -10 26 12 0 7 -8 12 -17 11 -36 -3 -73 2 -73 10 0 8
54 37 88 47 16 5 22 2 22 -9 0 -22 44 -14 48 8 3 13 -1 16 -22 10 -16 -4 -26
-2 -26 5 0 6 -6 10 -12 9 -7 0 -28 -3 -45 -5z m-233 -97 c0 -3 -4 -8 -10 -11
-5 -3 -10 -1 -10 4 0 6 5 11 10 11 6 0 10 -2 10 -4z"/>
<path d="M2625 1500 c-11 -12 -18 -31 -17 -42 2 -12 -1 -24 -6 -27 -14 -9 -64
-111 -54 -111 5 0 15 12 23 28 8 15 22 36 32 46 9 11 17 26 17 33 0 19 61 54
90 51 17 -2 26 2 28 15 3 13 -3 17 -25 17 -15 0 -37 3 -48 6 -14 3 -28 -2 -40
-16z"/>
<path d="M1806 1485 c4 -8 8 -15 10 -15 2 0 4 7 4 15 0 8 -4 15 -10 15 -5 0
-7 -7 -4 -15z"/>
<path d="M952 1460 c0 -14 2 -19 5 -12 2 6 2 18 0 25 -3 6 -5 1 -5 -13z"/>
<path d="M1205 1464 c-88 -21 -87 -21 -76 -43 8 -14 8 -20 0 -23 -6 -2 -9 -13
-7 -23 4 -16 7 -13 20 17 12 27 24 38 48 43 23 5 35 3 41 -6 6 -11 9 -10 15 4
9 25 27 21 18 -5 -6 -20 -5 -21 8 -10 9 7 18 24 21 37 5 29 -1 30 -88 9z"/>
<path d="M1625 1465 c11 -8 26 -19 33 -25 6 -6 12 -7 12 -2 0 10 -44 42 -57
42 -4 0 1 -7 12 -15z"/>
<path d="M2032 1450 c0 -19 2 -27 5 -17 2 9 2 25 0 35 -3 9 -5 1 -5 -18z"/>
<path d="M2791 1430 c-25 -26 -65 -58 -89 -71 -25 -13 -43 -27 -41 -31 5 -8
-73 -68 -82 -63 -7 5 -99 -83 -99 -95 0 -38 -266 -44 -405 -9 -110 27 -195 83
-195 128 0 7 -24 10 -67 9 l-68 -1 65 -6 65 -6 -54 -8 c-41 -6 -58 -5 -77 8
-26 17 -59 21 -49 5 3 -5 13 -6 22 -3 10 4 14 2 10 -5 -9 -13 -365 -16 -386
-3 -17 11 -43 3 -35 -10 8 -14 -20 -11 -34 3 -10 10 -15 10 -21 -1 -5 -7 -14
-10 -20 -7 -6 4 -19 2 -28 -4 -13 -8 61 -10 287 -6 168 3 324 9 347 12 38 6
42 5 45 -17 8 -59 233 -131 398 -129 149 2 227 28 265 87 11 18 33 37 49 44
38 16 117 71 149 103 18 18 36 24 73 26 93 3 124 7 124 16 0 13 -39 15 -92 3
-66 -15 -72 -9 -38 31 16 19 30 38 30 43 0 10 0 10 -49 -43z m-1456 -160 c3
-5 1 -10 -4 -10 -6 0 -11 5 -11 10 0 6 2 10 4 10 3 0 8 -4 11 -10z"/>
<path d="M1871 1454 c0 -11 3 -14 6 -6 3 7 2 16 -1 19 -3 4 -6 -2 -5 -13z"/>
<path d="M2950 1446 c0 -14 3 -27 8 -29 4 -3 7 8 7 24 0 16 -3 29 -7 29 -5 0
-8 -11 -8 -24z"/>
<path d="M1500 1451 c0 -5 5 -13 10 -16 6 -3 10 -2 10 4 0 5 -4 13 -10 16 -5
3 -10 2 -10 -4z"/>
<path d="M186 1440 c-17 -6 -18 -7 -3 -13 9 -3 19 -2 23 4 9 15 2 18 -20 9z"/>
<path d="M2150 1446 c0 -2 9 -6 20 -9 11 -3 20 -1 20 4 0 5 -9 9 -20 9 -11 0
-20 -2 -20 -4z"/>
<path d="M93 1424 c0 -6 13 -10 30 -7 42 4 44 10 4 15 -21 2 -34 -1 -34 -8z"/>
<path d="M220 1430 c0 -5 14 -10 32 -10 36 0 35 4 -4 14 -17 4 -28 2 -28 -4z"/>
<path d="M528 1433 c-60 -4 -69 -14 -52 -57 6 -16 25 -23 23 -8 -4 23 3 39 19
40 59 5 147 1 151 -6 3 -5 31 -8 61 -7 34 2 64 -2 77 -11 37 -23 54 -16 34 15
-8 12 -54 20 -211 34 -25 2 -71 2 -102 0z"/>
<path d="M1370 1425 c0 -2 10 -10 23 -16 20 -11 21 -11 8 4 -13 16 -31 23 -31
12z"/>
<path d="M1428 1423 c7 -3 16 -2 19 1 4 3 -2 6 -13 5 -11 0 -14 -3 -6 -6z"/>
<path d="M1470 1420 c20 -13 33 -13 25 0 -3 6 -14 10 -23 10 -15 0 -15 -2 -2
-10z"/>
<path d="M1958 1423 c6 -2 18 -2 25 0 6 3 1 5 -13 5 -14 0 -19 -2 -12 -5z"/>
<path d="M1546 1398 c16 -12 31 -25 34 -28 3 -3 21 -18 41 -35 19 -16 9 -4
-23 28 -32 31 -64 57 -70 57 -6 0 2 -10 18 -22z"/>
<path d="M2090 1408 c-14 -5 -37 -7 -52 -4 -16 3 -28 3 -28 1 0 -6 46 -25 73
-30 19 -4 23 11 5 18 -8 3 -6 6 4 6 10 1 40 -8 69 -19 28 -11 60 -18 70 -15
29 10 22 22 -10 17 -16 -2 -45 5 -67 16 -30 15 -45 17 -64 10z"/>
<path d="M2380 1346 c-17 -35 -49 -83 -71 -107 -21 -23 -39 -47 -39 -53 0 -15
78 73 90 102 8 18 15 21 37 16 25 -6 26 -5 10 7 -16 13 -17 17 -3 57 8 23 14
42 12 42 -2 0 -18 -29 -36 -64z"/>
<path d="M1458 1393 c7 -3 16 -2 19 1 4 3 -2 6 -13 5 -11 0 -14 -3 -6 -6z"/>
<path d="M1940 1389 c0 -5 5 -7 10 -4 6 3 10 8 10 11 0 2 -4 4 -10 4 -5 0 -10
-5 -10 -11z"/>
<path d="M217 1376 c-4 -10 1 -12 14 -9 23 6 24 9 5 16 -8 3 -17 0 -19 -7z"/>
<path d="M1387 1379 c7 -7 15 -10 18 -7 3 3 -2 9 -12 12 -14 6 -15 5 -6 -5z"/>
<path d="M61 1364 c0 -11 3 -14 6 -6 3 7 2 16 -1 19 -3 4 -6 -2 -5 -13z"/>
<path d="M1466 1366 c7 -18 26 -17 30 2 1 7 0 8 -3 2 -3 -8 -9 -7 -19 1 -12
10 -13 9 -8 -5z"/>
<path d="M2325 1369 c-4 -6 -5 -12 -2 -15 2 -3 7 2 10 11 7 17 1 20 -8 4z"/>
<path d="M1044 1346 c-9 -15 -14 -29 -11 -32 3 -3 13 6 23 20 9 15 14 29 11
32 -3 3 -13 -6 -23 -20z"/>
<path d="M1548 1363 c7 -3 16 -2 19 1 4 3 -2 6 -13 5 -11 0 -14 -3 -6 -6z"/>
<path d="M1620 1365 c0 -2 10 -10 23 -16 20 -11 21 -11 8 4 -13 16 -31 23 -31
12z"/>
<path d="M2512 1326 c-17 -23 -43 -54 -57 -67 -14 -13 -30 -31 -35 -41 -8 -13
-6 -15 12 -11 11 4 23 14 25 25 3 10 9 18 13 18 9 0 83 110 77 116 -2 2 -18
-16 -35 -40z"/>
<path d="M856 1335 c8 -37 13 -45 24 -45 5 0 4 12 -2 28 -18 41 -30 51 -22 17z"/>
<path d="M1347 1351 c-18 -7 -18 -7 0 -21 10 -8 15 -10 11 -6 -4 5 -3 15 3 23
13 14 12 15 -14 4z"/>
<path d="M1438 1353 c7 -3 16 -2 19 1 4 3 -2 6 -13 5 -11 0 -14 -3 -6 -6z"/>
<path d="M1686 1352 c-3 -4 4 -9 15 -9 23 -2 25 3 4 10 -8 4 -16 3 -19 -1z"/>
<path d="M2247 1347 c-4 -10 -7 -26 -7 -35 1 -15 2 -15 11 1 6 10 9 25 7 35
-3 16 -4 15 -11 -1z"/>
<path d="M2475 1350 c-3 -5 -1 -10 4 -10 6 0 11 5 11 10 0 6 -2 10 -4 10 -3 0
-8 -4 -11 -10z"/>
<path d="M2808 1350 c-52 -6 -67 -14 -43 -24 10 -3 14 -2 9 5 -4 8 6 9 32 5
22 -3 63 -5 92 -6 l52 0 0 -54 c0 -34 -5 -56 -12 -59 -10 -4 -10 -6 0 -6 8 -1
12 -18 12 -53 0 -100 15 -35 17 75 l2 112 -51 -4 c-28 -2 -53 1 -57 6 -3 4
-27 6 -53 3z"/>
<path d="M2888 1353 c12 -2 32 -2 45 0 12 2 2 4 -23 4 -25 0 -35 -2 -22 -4z"/>
<path d="M1076 1335 c-9 -26 -7 -32 5 -12 6 10 9 21 6 23 -2 3 -7 -2 -11 -11z"/>
<path d="M1300 1338 c0 -9 7 -19 16 -22 15 -6 15 -4 3 11 -7 10 -15 20 -16 22
-2 2 -3 -3 -3 -11z"/>
<path d="M1530 1334 c-9 -10 -10 -18 -3 -25 8 -8 13 -7 17 0 4 6 4 11 -1 11
-4 0 -2 4 6 9 8 5 9 11 3 15 -5 3 -15 -1 -22 -10z"/>
<path d="M1575 1340 c3 -5 11 -10 16 -10 6 0 7 5 4 10 -3 6 -11 10 -16 10 -6
0 -7 -4 -4 -10z"/>
<path d="M170 1332 c-19 -2 -39 -7 -44 -12 -6 -6 6 -7 29 -3 28 4 36 3 31 -5
-4 -7 -16 -12 -27 -12 -12 0 -19 -5 -17 -11 2 -6 7 -10 11 -10 4 1 13 1 20 1
12 0 44 50 35 54 -2 1 -19 0 -38 -2z"/>
<path d="M900 1334 c0 -5 7 -19 15 -30 8 -10 15 -14 15 -8 0 5 -7 19 -15 30
-8 10 -15 14 -15 8z"/>
<path d="M1113 1320 c3 -12 -1 -24 -11 -30 -10 -5 -12 -10 -5 -10 6 0 15 6 20
13 12 20 14 47 2 47 -6 0 -9 -9 -6 -20z"/>
<path d="M1425 1330 c-3 -5 -1 -10 4 -10 6 0 11 5 11 10 0 6 -2 10 -4 10 -3 0
-8 -4 -11 -10z"/>
<path d="M1460 1332 c0 -5 7 -15 15 -22 8 -7 15 -8 15 -2 0 5 -7 15 -15 22 -8
7 -15 8 -15 2z"/>
<path d="M83 1315 c0 -8 4 -15 9 -15 4 0 8 7 8 15 0 8 -4 15 -8 15 -5 0 -9 -7
-9 -15z"/>
<path d="M215 1310 c-3 -5 -1 -10 4 -10 6 0 11 5 11 10 0 6 -2 10 -4 10 -3 0
-8 -4 -11 -10z"/>
<path d="M321 1311 c-8 -5 -9 -11 -3 -15 5 -3 12 1 16 9 6 17 6 18 -13 6z"/>
<path d="M1280 1310 c0 -5 5 -10 11 -10 5 0 7 5 4 10 -3 6 -8 10 -11 10 -2 0
-4 -4 -4 -10z"/>
<path d="M280 1295 c-7 -9 -8 -15 -2 -15 5 0 12 7 16 15 3 8 4 15 2 15 -2 0
-9 -7 -16 -15z"/>
<path d="M115 1289 c-4 -6 -5 -12 -2 -15 2 -3 7 2 10 11 7 17 1 20 -8 4z"/>
<path d="M245 1290 c-3 -5 -1 -10 4 -10 6 0 11 5 11 10 0 6 -2 10 -4 10 -3 0
-8 -4 -11 -10z"/>
<path d="M1006 1280 c6 -6 21 -6 39 -1 30 9 30 9 -9 10 -26 1 -37 -2 -30 -9z"/>
<path d="M2710 1285 c0 -6 29 -18 70 -29 l25 -7 -25 14 c-31 18 -70 30 -70 22z"/>
<path d="M61 1264 c-1 -27 30 -31 179 -23 l105 5 -125 3 c-69 2 -130 3 -137 2
-6 -1 -14 6 -16 16 -4 15 -5 14 -6 -3z"/>
<path d="M900 1270 c-8 -5 -10 -10 -5 -10 6 0 17 5 25 10 8 5 11 10 5 10 -5 0
-17 -5 -25 -10z"/>
<path d="M350 1250 c0 -5 5 -10 11 -10 5 0 7 5 4 10 -3 6 -8 10 -11 10 -2 0
-4 -4 -4 -10z"/>
<path d="M403 1249 c11 -7 23 -7 35 0 14 9 11 10 -18 10 -29 0 -32 -1 -17 -10z"/>
<path d="M1718 1244 c-10 -9 -411 -19 -459 -11 -15 3 -42 1 -60 -3 l-34 -8 30
-2 c29 -2 30 -2 5 -9 -57 -18 375 2 530 24 79 11 86 13 44 14 -28 1 -53 -2
-56 -5z"/>
<path d="M2700 1240 c-9 -6 -10 -10 -3 -10 6 0 15 5 18 10 8 12 4 12 -15 0z"/>
<path d="M2837 1226 c-4 -10 -1 -13 8 -9 8 3 12 9 9 14 -7 12 -11 11 -17 -5z"/>
<path d="M62 1205 c0 -16 2 -22 5 -12 2 9 2 23 0 30 -3 6 -5 -1 -5 -18z"/>
<path d="M346 1215 c-3 -8 -1 -15 4 -15 6 0 10 7 10 15 0 8 -2 15 -4 15 -2 0
-6 -7 -10 -15z"/>
<path d="M2100 1219 c0 -5 5 -7 10 -4 6 3 10 8 10 11 0 2 -4 4 -10 4 -5 0 -10
-5 -10 -11z"/>
<path d="M2870 1220 c0 -5 5 -10 11 -10 5 0 7 5 4 10 -3 6 -8 10 -11 10 -2 0
-4 -4 -4 -10z"/>
<path d="M370 1210 c0 -5 5 -10 10 -10 6 0 10 5 10 10 0 6 -4 10 -10 10 -5 0
-10 -4 -10 -10z"/>
<path d="M417 1205 c-4 -8 -3 -16 1 -19 4 -3 9 4 9 15 2 23 -3 25 -10 4z"/>
<path d="M2060 1204 c0 -8 5 -12 10 -9 6 4 8 11 5 16 -9 14 -15 11 -15 -7z"/>
<path d="M2645 1210 c-3 -5 -2 -10 4 -10 5 0 13 5 16 10 3 6 2 10 -4 10 -5 0
-13 -4 -16 -10z"/>
<path d="M95 1200 c-3 -5 -1 -10 4 -10 6 0 11 5 11 10 0 6 -2 10 -4 10 -3 0
-8 -4 -11 -10z"/>
<path d="M160 1199 c0 -5 5 -7 10 -4 6 3 10 8 10 11 0 2 -4 4 -10 4 -5 0 -10
-5 -10 -11z"/>
<path d="M1785 1199 c-4 -6 -5 -12 -2 -15 2 -3 7 2 10 11 7 17 1 20 -8 4z"/>
<path d="M2387 1203 c-4 -3 -7 -11 -7 -17 0 -6 5 -5 12 2 6 6 9 14 7 17 -3 3
-9 2 -12 -2z"/>
<path d="M2680 1204 c0 -2 9 -8 20 -14 11 -6 20 -7 20 -2 0 6 -9 12 -20 15
-11 3 -20 3 -20 1z"/>
<path d="M192 1184 c-7 -8 -8 -14 -3 -14 10 0 25 19 20 25 -2 1 -10 -3 -17
-11z"/>
<path d="M307 1193 c-4 -3 -7 -11 -7 -17 0 -6 5 -5 12 2 6 6 9 14 7 17 -3 3
-9 2 -12 -2z"/>
<path d="M454 1175 c0 -14 4 -25 8 -25 4 0 8 11 8 25 0 14 -4 25 -8 25 -4 0
-8 -11 -8 -25z"/>
<path d="M1385 1169 c4 -13 8 -24 9 -24 0 0 12 -9 25 -20 l23 -20 -22 38 c-27
46 -45 59 -35 26z"/>
<path d="M1588 1183 c6 -2 18 -2 25 0 6 3 1 5 -13 5 -14 0 -19 -2 -12 -5z"/>
<path d="M2585 1180 c-3 -5 -1 -10 4 -10 6 0 11 5 11 10 0 6 -2 10 -4 10 -3 0
-8 -4 -11 -10z"/>
<path d="M275 1172 c-14 -9 -17 -55 -4 -46 6 3 8 12 5 19 -2 7 1 18 7 24 12
12 7 15 -8 3z"/>
<path d="M396 1165 c4 -8 11 -15 16 -15 6 0 5 6 -2 15 -7 8 -14 15 -16 15 -2
0 -1 -7 2 -15z"/>
<path d="M1440 1172 c0 -8 -5 -10 -12 -6 -6 4 -4 -3 5 -16 20 -28 52 -38 37
-12 -22 38 -30 47 -30 34z m18 -37 c-3 -3 -9 2 -12 12 -6 14 -5 15 5 6 7 -7
10 -15 7 -18z"/>
<path d="M1495 1169 c-4 -6 -5 -12 -2 -15 2 -3 7 2 10 11 7 17 1 20 -8 4z"/>
<path d="M1541 1164 c0 -11 3 -14 6 -6 3 7 2 16 -1 19 -3 4 -6 -2 -5 -13z"/>
<path d="M2250 1170 c0 -5 5 -10 11 -10 5 0 7 5 4 10 -3 6 -8 10 -11 10 -2 0
-4 -4 -4 -10z"/>
<path d="M2730 1170 c-12 -8 -11 -10 8 -10 12 0 22 5 22 10 0 13 -11 13 -30 0z"/>
<path d="M2829 1171 c12 -8 51 -4 51 5 0 2 -15 4 -32 4 -23 0 -29 -3 -19 -9z"/>
<path d="M62 1145 c0 -16 2 -22 5 -12 2 9 2 23 0 30 -3 6 -5 -1 -5 -18z"/>
<path d="M105 1160 c4 -6 11 -8 16 -5 14 9 11 15 -7 15 -8 0 -12 -5 -9 -10z"/>
<path d="M1660 1160 c0 -6 7 -10 15 -10 8 0 15 2 15 4 0 2 -7 6 -15 10 -8 3
-15 1 -15 -4z"/>
<path d="M2360 1160 c0 -5 5 -10 11 -10 5 0 7 5 4 10 -3 6 -8 10 -11 10 -2 0
-4 -4 -4 -10z"/>
<path d="M2610 1161 c0 -5 5 -13 10 -16 6 -3 10 -2 10 4 0 5 -4 13 -10 16 -5
3 -10 2 -10 -4z"/>
<path d="M502 1149 c2 -6 7 -10 11 -10 4 1 14 1 22 1 8 0 15 5 15 10 0 6 -12
10 -26 10 -14 0 -24 -5 -22 -11z"/>
<path d="M1290 1150 c0 -5 5 -10 11 -10 5 0 7 5 4 10 -3 6 -8 10 -11 10 -2 0
-4 -4 -4 -10z"/>
<path d="M1335 1144 c9 -9 19 -13 23 -10 3 4 0 11 -8 16 -24 15 -33 11 -15 -6z"/>
<path d="M1510 1156 c0 -2 7 -9 15 -16 13 -11 14 -10 9 4 -5 14 -24 23 -24 12z"/>
<path d="M2773 1145 c0 -7 6 -11 14 -8 7 3 13 6 13 8 0 2 -6 5 -13 8 -8 3 -14
-1 -14 -8z"/>
<path d="M215 1140 c-3 -5 -1 -10 4 -10 6 0 11 5 11 10 0 6 -2 10 -4 10 -3 0
-8 -4 -11 -10z"/>
<path d="M400 1130 c-13 -8 -12 -10 3 -10 9 0 17 5 17 10 0 12 -1 12 -20 0z"/>
<path d="M2566 1132 c-3 -5 1 -9 9 -9 8 0 12 4 9 9 -3 4 -7 8 -9 8 -2 0 -6 -4
-9 -8z"/>
<path d="M95 1120 c-3 -5 -1 -10 4 -10 6 0 11 5 11 10 0 6 -2 10 -4 10 -3 0
-8 -4 -11 -10z"/>
<path d="M205 1110 c3 -5 8 -10 11 -10 2 0 4 5 4 10 0 6 -5 10 -11 10 -5 0 -7
-4 -4 -10z"/>
<path d="M695 1110 c-3 -5 -1 -10 4 -10 6 0 11 5 11 10 0 6 -2 10 -4 10 -3 0
-8 -4 -11 -10z"/>
<path d="M1707 1109 c7 -7 15 -10 18 -7 3 3 -2 9 -12 12 -14 6 -15 5 -6 -5z"/>
<path d="M55 1100 c-3 -5 -1 -10 4 -10 6 0 11 5 11 10 0 6 -2 10 -4 10 -3 0
-8 -4 -11 -10z"/>
<path d="M275 1099 c-4 -6 -5 -12 -2 -15 2 -3 7 2 10 11 7 17 1 20 -8 4z"/>
<path d="M1880 1100 c-8 -5 -10 -10 -5 -10 6 0 17 5 25 10 8 5 11 10 5 10 -5
0 -17 -5 -25 -10z"/>
<path d="M2008 1103 c7 -3 16 -2 19 1 4 3 -2 6 -13 5 -11 0 -14 -3 -6 -6z"/>
<path d="M2350 1100 c0 -5 5 -10 10 -10 6 0 10 5 10 10 0 6 -4 10 -10 10 -5 0
-10 -4 -10 -10z"/>
<path d="M2560 1100 c0 -6 7 -10 15 -10 8 0 15 2 15 4 0 2 -7 6 -15 10 -8 3
-15 1 -15 -4z"/>
<path d="M2620 1100 c0 -5 5 -10 11 -10 5 0 7 5 4 10 -3 6 -8 10 -11 10 -2 0
-4 -4 -4 -10z"/>
<path d="M2873 1095 c-10 -17 -58 -20 -144 -10 -178 22 -316 -137 -265 -306
18 -61 44 -94 105 -134 60 -40 165 -47 239 -15 92 40 142 116 142 218 0 76
-37 152 -93 193 l-40 29 59 0 c38 0 54 3 45 9 -8 5 -21 7 -29 3 -11 -4 -14 -1
-9 11 8 21 1 22 -10 2z m-31 -60 c55 -38 98 -119 98 -185 0 -86 -59 -171 -143
-208 -39 -17 -150 -15 -195 4 -138 57 -176 233 -79 356 8 10 34 29 58 43 40
23 53 25 131 23 77 -3 91 -6 130 -33z"/>
<path d="M2622 1049 c-50 -15 -116 -86 -131 -141 -25 -88 15 -187 94 -234 36
-21 57 -26 112 -26 78 0 106 9 152 47 52 44 74 98 69 171 -7 113 -82 183 -202
190 -33 2 -76 -1 -94 -7z m177 -34 c73 -38 116 -133 95 -212 l-6 -23 -30 25
c-16 14 -37 25 -46 25 -11 0 -6 8 15 21 18 11 35 29 38 39 12 38 -36 88 -66
69 -17 -11 -30 -12 -27 -1 10 37 -46 71 -84 51 -9 -5 -28 -9 -42 -9 -14 0 -29
-6 -33 -12 -4 -7 -21 -21 -38 -30 -25 -14 -30 -23 -31 -57 -1 -41 -21 -78 -35
-64 -14 14 11 95 41 132 54 65 171 87 249 46z m-41 -33 c-35 -84 -62 -142 -67
-140 -4 2 -37 14 -74 28 -37 14 -67 27 -67 30 0 3 9 16 20 30 l19 25 51 -50
50 -49 0 67 0 67 36 0 c20 0 34 -4 32 -8z m-98 -22 c0 -21 -24 -28 -35 -10 -8
14 3 30 21 30 8 0 14 -9 14 -20z m190 -60 c0 -3 -28 -20 -62 -36 l-62 -31 67
-22 c37 -13 67 -26 67 -30 0 -3 -7 -17 -16 -29 l-15 -22 -55 46 c-30 26 -54
43 -54 38 0 -4 18 -29 41 -56 22 -26 38 -52 35 -57 -9 -14 -65 -31 -71 -21 -3
5 -7 41 -10 81 l-4 72 51 60 52 59 18 -24 c9 -12 18 -25 18 -28z m-154 -86
c-3 -9 -6 -45 -6 -80 l0 -64 -27 6 c-16 4 -30 8 -32 10 -2 2 8 30 22 61 14 32
24 59 22 61 -2 2 -29 -6 -60 -17 -63 -24 -75 -21 -75 15 0 23 2 24 81 24 70 0
80 -2 75 -16z m-79 -86 c-6 -18 -13 -35 -14 -37 -2 -3 -17 9 -34 25 l-31 29
34 6 c59 11 57 12 45 -23z"/>
<path d="M1278 1093 c7 -3 16 -2 19 1 4 3 -2 6 -13 5 -11 0 -14 -3 -6 -6z"/>
<path d="M1765 1090 c3 -5 8 -10 11 -10 2 0 4 5 4 10 0 6 -5 10 -11 10 -5 0
-7 -4 -4 -10z"/>
<path d="M2448 1093 c7 -3 16 -2 19 1 4 3 -2 6 -13 5 -11 0 -14 -3 -6 -6z"/>
<path d="M2518 1093 c7 -3 16 -2 19 1 4 3 -2 6 -13 5 -11 0 -14 -3 -6 -6z"/>
<path d="M2376 1081 c-3 -5 6 -8 20 -8 19 0 22 2 13 8 -18 11 -26 11 -33 0z"/>
<path d="M380 1076 c0 -2 7 -7 16 -10 8 -3 12 -2 9 4 -6 10 -25 14 -25 6z"/>
<path d="M1150 1070 c0 -5 5 -10 11 -10 5 0 7 5 4 10 -3 6 -8 10 -11 10 -2 0
-4 -4 -4 -10z"/>
<path d="M1438 1073 c7 -3 16 -2 19 1 4 3 -2 6 -13 5 -11 0 -14 -3 -6 -6z"/>
<path d="M1490 1070 c0 -5 5 -10 11 -10 5 0 7 5 4 10 -3 6 -8 10 -11 10 -2 0
-4 -4 -4 -10z"/>
<path d="M1590 1070 c0 -6 7 -10 15 -10 8 0 15 2 15 4 0 2 -7 6 -15 10 -8 3
-15 1 -15 -4z"/>
<path d="M1660 1069 c0 -5 5 -7 10 -4 6 3 10 8 10 11 0 2 -4 4 -10 4 -5 0 -10
-5 -10 -11z"/>
<path d="M2528 1073 c6 -2 18 -2 25 0 6 3 1 5 -13 5 -14 0 -19 -2 -12 -5z"/>
<path d="M593 1035 c0 -22 2 -30 4 -17 2 12 2 30 0 40 -3 9 -5 -1 -4 -23z"/>
<path d="M680 1059 c0 -5 5 -7 10 -4 6 3 10 8 10 11 0 2 -4 4 -10 4 -5 0 -10
-5 -10 -11z"/>
<path d="M900 1061 c0 -17 18 -21 24 -6 3 9 0 15 -9 15 -8 0 -15 -4 -15 -9z"/>
<path d="M1565 1061 c-3 -5 -1 -12 5 -16 5 -3 10 1 10 9 0 18 -6 21 -15 7z"/>
<path d="M2136 1055 c4 -8 10 -12 15 -9 11 6 2 24 -11 24 -5 0 -7 -7 -4 -15z"/>
<path d="M233 1045 c-7 -8 -9 -16 -4 -19 5 -3 12 1 15 10 8 22 4 25 -11 9z"/>
<path d="M1246 1051 c-4 -5 3 -7 14 -4 23 6 26 13 6 13 -8 0 -17 -4 -20 -9z"/>
<path d="M1460 1050 c0 -5 5 -10 10 -10 6 0 10 5 10 10 0 6 -4 10 -10 10 -5 0
-10 -4 -10 -10z"/>
<path d="M2023 1053 c9 -2 23 -2 30 0 6 3 -1 5 -18 5 -16 0 -22 -2 -12 -5z"/>
<path d="M2435 1050 c-3 -5 -1 -10 4 -10 6 0 11 5 11 10 0 6 -2 10 -4 10 -3 0
-8 -4 -11 -10z"/>
<path d="M946 1035 c4 -8 8 -15 10 -15 2 0 4 7 4 15 0 8 -4 15 -10 15 -5 0 -7
-7 -4 -15z"/>
<path d="M1058 1043 c7 -3 16 -2 19 1 4 3 -2 6 -13 5 -11 0 -14 -3 -6 -6z"/>
<path d="M1208 1043 c7 -3 16 -2 19 1 4 3 -2 6 -13 5 -11 0 -14 -3 -6 -6z"/>
<path d="M785 1030 c-3 -5 -15 -10 -26 -10 -11 0 -19 -7 -19 -16 0 -13 5 -12
30 6 17 12 30 23 30 26 0 7 -9 4 -15 -6z"/>
<path d="M1698 1033 c7 -3 16 -2 19 1 4 3 -2 6 -13 5 -11 0 -14 -3 -6 -6z"/>
<path d="M1748 1033 c6 -2 18 -2 25 0 6 3 1 5 -13 5 -14 0 -19 -2 -12 -5z"/>
<path d="M2088 1033 c7 -3 16 -2 19 1 4 3 -2 6 -13 5 -11 0 -14 -3 -6 -6z"/>
<path d="M2348 1033 c7 -3 16 -2 19 1 4 3 -2 6 -13 5 -11 0 -14 -3 -6 -6z"/>
<path d="M572 1010 c0 -14 2 -19 5 -12 2 6 2 18 0 25 -3 6 -5 1 -5 -13z"/>
<path d="M710 1008 c0 -13 4 -29 9 -37 6 -10 9 -2 8 22 -1 39 -17 53 -17 15z"/>
<path d="M1368 1023 c7 -3 16 -2 19 1 4 3 -2 6 -13 5 -11 0 -14 -3 -6 -6z"/>
<path d="M1467 1017 c-27 -12 -27 -12 -7 -25 12 -7 20 -8 20 -2 0 5 -6 11 -12
11 -7 1 1 4 17 8 17 3 26 9 20 13 -5 3 -23 1 -38 -5z"/>
<path d="M1543 1015 c0 -8 4 -12 9 -9 5 3 6 10 3 15 -9 13 -12 11 -12 -6z"/>
<path d="M1578 1023 c6 -2 18 -2 25 0 6 3 1 5 -13 5 -14 0 -19 -2 -12 -5z"/>
<path d="M1650 1015 c0 -16 16 -20 24 -6 3 5 -1 11 -9 15 -9 3 -15 0 -15 -9z"/>
<path d="M2060 1010 c6 -11 15 -20 20 -20 6 0 2 9 -7 20 -10 11 -19 20 -21 20
-1 0 2 -9 8 -20z"/>
<path d="M176 1005 c-9 -26 -7 -32 5 -12 6 10 9 21 6 23 -2 3 -7 -2 -11 -11z"/>
<path d="M635 1000 c-8 -24 1 -40 21 -40 8 0 14 10 15 23 0 21 1 21 9 2 7 -15
9 -16 9 -4 1 21 -28 48 -30 28 -1 -8 -1 -17 0 -21 0 -5 -4 -8 -10 -8 -6 0 -8
9 -4 20 3 11 4 20 1 20 -2 0 -7 -9 -11 -20z"/>
<path d="M1720 1010 c-9 -6 -10 -10 -3 -10 6 0 15 5 18 10 8 12 4 12 -15 0z"/>
<path d="M1828 1002 c11 -11 20 -14 24 -8 4 6 11 0 16 -13 7 -19 10 -21 15 -8
4 11 -4 20 -28 31 -43 21 -49 20 -27 -2z"/>
<path d="M2428 1007 c-1 -6 0 -41 3 -77 6 -65 8 -58 14 33 2 44 -8 73 -17 44z"/>
<path d="M325 1000 c3 -5 10 -10 16 -10 5 0 9 5 9 10 0 6 -7 10 -16 10 -8 0
-12 -4 -9 -10z"/>
<path d="M1038 1003 c7 -3 16 -2 19 1 4 3 -2 6 -13 5 -11 0 -14 -3 -6 -6z"/>
<path d="M1263 1003 c4 -3 19 -7 34 -9 16 -1 32 -2 36 -3 5 -1 6 -5 3 -10 -3
-4 1 -17 10 -27 14 -18 15 -18 4 4 -9 18 -8 22 7 22 13 0 9 5 -11 15 -28 15
-96 22 -83 8z"/>
<path d="M1608 1003 c6 -2 18 -2 25 0 6 3 1 5 -13 5 -14 0 -19 -2 -12 -5z"/>
<path d="M1775 1000 c-3 -5 -2 -10 4 -10 5 0 13 5 16 10 3 6 2 10 -4 10 -5 0
-13 -4 -16 -10z"/>
<path d="M1932 1005 c10 -10 49 -14 43 -4 -4 5 -16 9 -27 9 -12 0 -19 -2 -16
-5z"/>
<path d="M2000 1006 c0 -2 7 -9 15 -16 9 -7 15 -8 15 -2 0 5 -7 12 -15 16 -8
3 -15 4 -15 2z"/>
<path d="M448 973 c5 -21 7 -23 10 -9 2 10 0 22 -6 28 -6 6 -7 0 -4 -19z"/>
<path d="M1016 985 c4 -8 11 -15 16 -15 6 0 5 6 -2 15 -7 8 -14 15 -16 15 -2
0 -1 -7 2 -15z"/>
<path d="M1158 993 c7 -3 16 -2 19 1 4 3 -2 6 -13 5 -11 0 -14 -3 -6 -6z"/>
<path d="M1195 990 c-3 -5 -2 -10 4 -10 5 0 13 5 16 10 3 6 2 10 -4 10 -5 0
-13 -4 -16 -10z"/>
<path d="M2111 987 c7 -7 23 -11 36 -9 30 6 26 9 -15 17 -28 5 -31 3 -21 -8z"/>
<path d="M765 980 c3 -5 8 -10 11 -10 2 0 4 5 4 10 0 6 -5 10 -11 10 -5 0 -7
-4 -4 -10z"/>
<path d="M1080 986 c0 -2 6 -9 13 -15 10 -8 14 -7 14 4 0 8 -6 15 -14 15 -7 0
-13 -2 -13 -4z"/>
<path d="M1678 983 c7 -3 16 -2 19 1 4 3 -2 6 -13 5 -11 0 -14 -3 -6 -6z"/>
<path d="M1735 980 c-3 -5 -1 -10 4 -10 6 0 11 5 11 10 0 6 -2 10 -4 10 -3 0
-8 -4 -11 -10z"/>
<path d="M2041 974 c0 -11 3 -14 6 -6 3 7 2 16 -1 19 -3 4 -6 -2 -5 -13z"/>
<path d="M2280 980 c20 -13 33 -13 25 0 -3 6 -14 10 -23 10 -15 0 -15 -2 -2
-10z"/>
<path d="M236 965 c-3 -8 -1 -15 4 -15 6 0 10 7 10 15 0 8 -2 15 -4 15 -2 0
-6 -7 -10 -15z"/>
<path d="M275 970 c-3 -5 -1 -10 4 -10 6 0 11 5 11 10 0 6 -2 10 -4 10 -3 0
-8 -4 -11 -10z"/>
<path d="M375 970 c-3 -5 -1 -10 4 -10 6 0 11 5 11 10 0 6 -2 10 -4 10 -3 0
-8 -4 -11 -10z"/>
<path d="M486 972 c-3 -5 1 -9 9 -9 8 0 12 4 9 9 -3 4 -7 8 -9 8 -2 0 -6 -4
-9 -8z"/>
<path d="M565 969 c-4 -6 -5 -12 -2 -15 2 -3 7 2 10 11 7 17 1 20 -8 4z"/>
<path d="M791 964 c0 -11 3 -14 6 -6 3 7 2 16 -1 19 -3 4 -6 -2 -5 -13z"/>
<path d="M1525 970 c3 -5 8 -10 11 -10 2 0 4 5 4 10 0 6 -5 10 -11 10 -5 0 -7
-4 -4 -10z"/>
<path d="M1955 970 c-3 -5 -1 -10 4 -10 6 0 11 5 11 10 0 6 -2 10 -4 10 -3 0
-8 -4 -11 -10z"/>
<path d="M2075 970 c-3 -5 -1 -10 4 -10 6 0 11 5 11 10 0 6 -2 10 -4 10 -3 0
-8 -4 -11 -10z"/>
<path d="M2218 973 c7 -3 16 -2 19 1 4 3 -2 6 -13 5 -11 0 -14 -3 -6 -6z"/>
<path d="M834 961 c5 -8 56 -3 56 5 0 2 -14 4 -31 4 -16 0 -28 -4 -25 -9z"/>
<path d="M1180 960 c0 -5 5 -10 11 -10 5 0 7 5 4 10 -3 6 -8 10 -11 10 -2 0
-4 -4 -4 -10z"/>
<path d="M1637 959 c7 -7 15 -10 18 -7 3 3 -2 9 -12 12 -14 6 -15 5 -6 -5z"/>
<path d="M1817 957 c-3 -9 5 -13 27 -14 17 -1 23 1 14 4 -10 2 -18 9 -18 14 0
14 -17 11 -23 -4z"/>
<path d="M2395 959 c-4 -6 -4 -13 -1 -16 3 -4 6 -1 6 6 0 7 5 9 12 5 7 -4 8
-3 4 4 -9 15 -13 15 -21 1z"/>
<path d="M1780 950 c0 -5 5 -10 11 -10 5 0 7 5 4 10 -3 6 -8 10 -11 10 -2 0
-4 -4 -4 -10z"/>
<path d="M2146 943 c-6 -14 -5 -15 5 -6 7 7 10 15 7 18 -3 3 -9 -2 -12 -12z"/>
<path d="M2246 948 c3 -4 11 -8 19 -8 8 0 16 4 19 8 2 4 -6 8 -19 8 -13 0 -21
-4 -19 -8z"/>
<path d="M2329 941 c15 -13 18 -20 9 -23 -8 -3 -4 -10 12 -18 23 -12 24 -12
11 3 -7 10 -10 17 -6 17 5 0 0 9 -10 20 -10 11 -23 20 -28 20 -6 0 0 -9 12
-19z"/>
<path d="M975 940 c-19 -8 -19 -9 3 -9 12 -1 22 4 22 9 0 6 -1 10 -2 9 -2 0
-12 -4 -23 -9z"/>
<path d="M1560 941 c0 -9 30 -24 36 -18 2 1 -6 8 -16 15 -11 7 -20 8 -20 3z"/>
<path d="M1607 939 c7 -7 15 -10 18 -7 3 3 -2 9 -12 12 -14 6 -15 5 -6 -5z"/>
<path d="M1660 935 c-11 -13 -10 -14 4 -9 9 3 16 10 16 15 0 13 -6 11 -20 -6z"/>
<path d="M1712 942 c21 -8 11 -28 -17 -35 -15 -4 -14 -5 8 -6 15 0 27 3 27 8
0 5 3 16 6 25 5 12 0 16 -17 15 -19 0 -20 -2 -7 -7z"/>
<path d="M1750 940 c0 -5 5 -10 11 -10 5 0 7 5 4 10 -3 6 -8 10 -11 10 -2 0
-4 -4 -4 -10z"/>
<path d="M1410 936 c0 -2 7 -6 15 -10 8 -3 15 -1 15 4 0 6 -7 10 -15 10 -8 0
-15 -2 -15 -4z"/>
<path d="M1470 930 c0 -5 5 -10 11 -10 5 0 7 5 4 10 -3 6 -8 10 -11 10 -2 0
-4 -4 -4 -10z"/>
<path d="M293 915 c0 -8 4 -12 9 -9 5 3 6 10 3 15 -9 13 -12 11 -12 -6z"/>
<path d="M854 915 c-10 -8 -14 -15 -8 -15 5 0 19 7 30 15 10 8 14 15 8 15 -5
0 -19 -7 -30 -15z"/>
<path d="M2011 914 c0 -11 3 -14 6 -6 3 7 2 16 -1 19 -3 4 -6 -2 -5 -13z"/>
<path d="M2235 920 c-3 -5 -1 -10 4 -10 6 0 11 5 11 10 0 6 -2 10 -4 10 -3 0
-8 -4 -11 -10z"/>
<path d="M190 910 c0 -5 5 -10 11 -10 5 0 7 5 4 10 -3 6 -8 10 -11 10 -2 0 -4
-4 -4 -10z"/>
<path d="M803 907 c3 -8 0 -20 -6 -26 -8 -8 -8 -11 1 -11 7 0 12 5 12 11 0 6
7 9 15 5 20 -7 19 -4 -7 18 -16 14 -20 15 -15 3z"/>
<path d="M1228 913 c6 -2 18 -2 25 0 6 3 1 5 -13 5 -14 0 -19 -2 -12 -5z"/>
<path d="M1348 913 c7 -3 16 -2 19 1 4 3 -2 6 -13 5 -11 0 -14 -3 -6 -6z"/>
<path d="M1564 898 c-5 -7 -2 -9 9 -5 9 3 17 1 19 -5 5 -14 28 -1 28 15 0 8
-3 8 -9 -2 -6 -9 -11 -10 -15 -2 -9 14 -23 14 -32 -1z"/>
<path d="M2040 900 c20 -13 33 -13 25 0 -3 6 -14 10 -23 10 -15 0 -15 -2 -2
-10z"/>
<path d="M2095 900 c3 -5 11 -10 16 -10 6 0 7 5 4 10 -3 6 -11 10 -16 10 -6 0
-7 -4 -4 -10z"/>
<path d="M930 890 l-35 -7 37 -2 c20 0 40 4 43 9 7 11 7 11 -45 0z"/>
<path d="M1035 890 c-3 -5 1 -10 10 -10 9 0 13 5 10 10 -3 6 -8 10 -10 10 -2
0 -7 -4 -10 -10z"/>
<path d="M1121 884 c0 -11 3 -14 6 -6 3 7 2 16 -1 19 -3 4 -6 -2 -5 -13z"/>
<path d="M1190 893 c-8 -4 -20 -13 -26 -21 -6 -8 -24 -15 -40 -15 -16 0 -23
-2 -16 -4 6 -3 12 -11 12 -18 0 -9 11 -13 35 -12 44 2 46 17 3 18 -18 0 -26 3
-18 6 8 3 23 12 33 21 9 8 34 18 55 22 33 7 34 8 7 8 -16 0 -37 -2 -45 -5z"/>
<path d="M1490 890 c0 -5 4 -10 9 -10 6 0 13 5 16 10 3 6 -1 10 -9 10 -9 0
-16 -4 -16 -10z"/>
<path d="M1740 890 c-9 -6 -10 -10 -3 -10 6 0 15 5 18 10 8 12 4 12 -15 0z"/>
<path d="M1957 893 c-12 -12 -7 -22 8 -17 8 4 15 10 15 15 0 11 -14 12 -23 2z"/>
<path d="M1835 880 c-3 -5 -1 -10 4 -10 6 0 11 5 11 10 0 6 -2 10 -4 10 -3 0
-8 -4 -11 -10z"/>
<path d="M2260 886 c0 -2 7 -7 16 -10 8 -3 12 -2 9 4 -6 10 -25 14 -25 6z"/>
<path d="M1260 865 c7 -9 15 -13 17 -11 7 7 -7 26 -19 26 -6 0 -6 -6 2 -15z"/>
<path d="M1310 870 c-8 -5 -10 -10 -5 -10 6 0 17 5 25 10 8 5 11 10 5 10 -5 0
-17 -5 -25 -10z"/>
<path d="M1365 870 c3 -5 8 -10 11 -10 2 0 4 5 4 10 0 6 -5 10 -11 10 -5 0 -7
-4 -4 -10z"/>
<path d="M1627 868 c6 -11 53 -10 53 1 0 4 -13 8 -29 7 -16 -1 -27 -4 -24 -8z"/>
<path d="M1860 876 c0 -2 11 -6 25 -8 14 -3 25 -1 25 3 0 5 -11 9 -25 9 -14 0
-25 -2 -25 -4z"/>
<path d="M574 855 c-18 -15 -18 -15 0 -8 13 4 17 3 12 -5 -4 -7 -1 -12 10 -12
13 0 14 3 5 13 -6 8 -8 17 -4 20 12 13 -3 7 -23 -8z"/>
<path d="M860 858 c0 -4 7 -8 15 -8 8 0 15 4 15 8 0 5 -7 9 -15 9 -8 0 -15 -4
-15 -9z"/>
<path d="M978 863 c7 -3 16 -2 19 1 4 3 -2 6 -13 5 -11 0 -14 -3 -6 -6z"/>
<path d="M1996 855 c4 -8 11 -15 16 -15 6 0 5 6 -2 15 -7 8 -14 15 -16 15 -2
0 -1 -7 2 -15z"/>
<path d="M2048 863 c6 -2 18 -2 25 0 6 3 1 5 -13 5 -14 0 -19 -2 -12 -5z"/>
<path d="M2090 860 c0 -5 4 -10 9 -10 6 0 13 5 16 10 3 6 -1 10 -9 10 -9 0
-16 -4 -16 -10z"/>
<path d="M2147 858 c-3 -8 5 -14 20 -14 13 -1 23 -1 21 0 -2 1 -10 7 -19 14
-13 10 -18 10 -22 0z"/>
<path d="M2198 864 c6 -3 10 -9 7 -14 -3 -4 1 -10 9 -13 9 -4 13 0 12 11 -2 9
-11 18 -22 19 -10 2 -13 0 -6 -3z"/>
<path d="M742 849 c2 -6 7 -10 11 -10 4 1 14 1 22 1 8 0 15 5 15 10 0 6 -12
10 -26 10 -14 0 -24 -5 -22 -11z"/>
<path d="M1338 853 c7 -3 16 -2 19 1 4 3 -2 6 -13 5 -11 0 -14 -3 -6 -6z"/>
<path d="M2265 850 c-3 -5 1 -10 10 -10 9 0 13 -4 10 -10 -3 -5 -1 -10 4 -10
15 0 14 15 -3 29 -10 8 -16 9 -21 1z"/>
<path d="M2426 765 l2 -96 -202 0 c-241 0 -267 0 -277 7 -4 2 -10 0 -14 -6 -4
-6 -11 -7 -17 -4 -9 6 -878 6 -1368 0 -96 -1 -191 2 -209 6 -19 4 -39 4 -45 1
-5 -4 -48 -6 -94 -5 -52 2 -81 -1 -77 -7 9 -16 2291 -13 2304 3 11 13 16 64
13 144 -4 92 -17 55 -16 -43z"/>
<path d="M430 839 c0 -5 5 -7 10 -4 6 3 10 8 10 11 0 2 -4 4 -10 4 -5 0 -10
-5 -10 -11z"/>
<path d="M1500 840 c0 -5 7 -7 15 -4 8 4 15 8 15 10 0 2 -7 4 -15 4 -8 0 -15
-4 -15 -10z"/>
<path d="M1695 840 c-3 -5 -2 -10 4 -10 5 0 13 5 16 10 3 6 2 10 -4 10 -5 0
-13 -4 -16 -10z"/>
<path d="M1730 842 c0 -10 36 -9 46 1 4 4 -5 7 -19 7 -15 0 -27 -4 -27 -8z"/>
<path d="M2355 840 c-3 -5 -1 -10 4 -10 6 0 11 5 11 10 0 6 -2 10 -4 10 -3 0
-8 -4 -11 -10z"/>
<path d="M875 830 c-3 -5 2 -10 12 -10 15 -1 13 -4 -7 -16 -16 -10 -18 -13 -5
-8 11 4 36 10 55 14 l35 8 -32 1 c-18 0 -33 6 -33 11 0 6 -4 10 -9 10 -6 0
-13 -4 -16 -10z"/>
<path d="M790 826 c0 -2 7 -6 15 -10 8 -3 15 -1 15 4 0 6 -7 10 -15 10 -8 0
-15 -2 -15 -4z"/>
<path d="M1248 818 c5 -5 16 -8 23 -6 8 3 3 7 -10 11 -17 4 -21 3 -13 -5z"/>
<path d="M1367 816 c-5 -12 -14 -17 -27 -13 -11 3 -23 1 -26 -4 -7 -11 37 -12
55 0 7 5 11 15 9 22 -3 9 -6 7 -11 -5z"/>
<path d="M1465 820 c-3 -6 1 -7 9 -4 18 7 21 14 7 14 -6 0 -13 -4 -16 -10z"/>
<path d="M1780 820 c0 -4 11 -10 25 -12 13 -3 22 -2 20 2 -7 11 -45 20 -45 10z"/>
<path d="M1867 824 c-8 -8 1 -24 14 -24 5 0 9 7 9 15 0 15 -12 20 -23 9z"/>
<path d="M1910 820 c0 -5 5 -10 11 -10 5 0 7 5 4 10 -3 6 -8 10 -11 10 -2 0
-4 -4 -4 -10z"/>
<path d="M2065 820 c-3 -5 -1 -10 4 -10 6 0 11 5 11 10 0 6 -2 10 -4 10 -3 0
-8 -4 -11 -10z"/>
<path d="M42 800 c0 -14 2 -19 5 -12 2 6 2 18 0 25 -3 6 -5 1 -5 -13z"/>
<path d="M278 813 c7 -3 16 -2 19 1 4 3 -2 6 -13 5 -11 0 -14 -3 -6 -6z"/>
<path d="M1940 810 c0 -6 4 -9 9 -6 5 4 12 1 14 -4 3 -6 4 -5 3 2 -3 15 -26
23 -26 8z"/>
<path d="M135 799 c7 -11 35 -12 35 -1 0 4 -9 8 -20 9 -11 1 -18 -2 -15 -8z"/>
<path d="M1395 800 c-3 -5 -1 -10 4 -10 6 0 11 5 11 10 0 6 -2 10 -4 10 -3 0
-8 -4 -11 -10z"/>
<path d="M1504 801 c-27 -5 -30 -8 -18 -19 8 -7 14 -8 14 -2 0 5 6 10 14 10 8
0 18 5 21 10 3 6 5 9 3 9 -2 -1 -17 -4 -34 -8z"/>
<path d="M1568 803 c7 -3 16 -2 19 1 4 3 -2 6 -13 5 -11 0 -14 -3 -6 -6z"/>
<path d="M2008 803 c7 -3 16 -2 19 1 4 3 -2 6 -13 5 -11 0 -14 -3 -6 -6z"/>
<path d="M2130 800 c-8 -5 -12 -12 -9 -15 4 -3 12 1 19 10 14 17 11 19 -10 5z"/>
<path d="M2210 800 c20 -13 43 -13 35 0 -3 6 -16 10 -28 10 -18 0 -19 -2 -7
-10z"/>
<path d="M2288 803 c12 -2 32 -2 45 0 12 2 2 4 -23 4 -25 0 -35 -2 -22 -4z"/>
<path d="M330 790 c0 -5 5 -10 10 -10 6 0 10 5 10 10 0 6 -4 10 -10 10 -5 0
-10 -4 -10 -10z"/>
<path d="M460 790 c-13 -8 -12 -10 3 -10 9 0 17 5 17 10 0 12 -1 12 -20 0z"/>
<path d="M758 793 c7 -3 16 -2 19 1 4 3 -2 6 -13 5 -11 0 -14 -3 -6 -6z"/>
<path d="M1636 791 c-3 -5 5 -11 18 -13 17 -4 23 -1 19 9 -6 15 -29 18 -37 4z"/>
<path d="M640 786 c0 -2 7 -9 15 -16 13 -11 14 -10 9 4 -5 14 -24 23 -24 12z"/>
<path d="M1198 783 c7 -3 16 -2 19 1 4 3 -2 6 -13 5 -11 0 -14 -3 -6 -6z"/>
<path d="M1409 773 c-13 -16 -12 -17 4 -4 9 7 17 15 17 17 0 8 -8 3 -21 -13z"/>
<path d="M988 773 c7 -3 16 -2 19 1 4 3 -2 6 -13 5 -11 0 -14 -3 -6 -6z"/>
<path d="M1555 760 c10 -11 15 -20 11 -20 -4 0 0 -7 8 -16 9 -8 20 -13 25 -9
6 3 -4 19 -21 35 -35 34 -50 40 -23 10z"/>
<path d="M1905 770 c3 -5 8 -10 11 -10 2 0 4 5 4 10 0 6 -5 10 -11 10 -5 0 -7
-4 -4 -10z"/>
<path d="M2059 767 c5 -5 17 -5 28 2 16 9 15 10 -9 9 -16 -2 -24 -6 -19 -11z"/>
<path d="M2140 765 c-10 -12 -10 -15 3 -15 8 0 17 7 21 15 3 8 2 15 -3 15 -5
0 -14 -7 -21 -15z"/>
<path d="M2290 771 c0 -9 30 -24 36 -18 2 1 -6 8 -16 15 -11 7 -20 8 -20 3z"/>
<path d="M631 754 c0 -11 3 -14 6 -6 3 7 2 16 -1 19 -3 4 -6 -2 -5 -13z"/>
<path d="M795 759 c-9 -14 -2 -20 14 -10 8 6 9 11 3 15 -6 3 -14 1 -17 -5z"/>
<path d="M925 760 c-3 -5 -2 -10 4 -10 5 0 13 5 16 10 3 6 2 10 -4 10 -5 0
-13 -4 -16 -10z"/>
<path d="M1110 758 c0 -5 18 -8 40 -8 22 0 40 3 40 8 0 4 -18 7 -40 7 -22 0
-40 -3 -40 -7z"/>
<path d="M1360 760 c-12 -8 -10 -10 8 -10 13 0 20 4 17 10 -7 12 -6 12 -25 0z"/>
<path d="M2200 760 c0 -5 5 -10 10 -10 6 0 10 5 10 10 0 6 -4 10 -10 10 -5 0
-10 -4 -10 -10z"/>
<path d="M208 753 c6 -2 18 -2 25 0 6 3 1 5 -13 5 -14 0 -19 -2 -12 -5z"/>
<path d="M580 745 c0 -8 2 -15 4 -15 2 0 6 7 10 15 3 8 1 15 -4 15 -6 0 -10
-7 -10 -15z"/>
<path d="M843 746 c20 -20 50 -27 67 -15 12 9 10 10 -8 6 -13 -3 -25 0 -28 7
-2 6 -13 12 -24 13 -17 2 -18 -1 -7 -11z"/>
<path d="M888 753 c7 -3 16 -2 19 1 4 3 -2 6 -13 5 -11 0 -14 -3 -6 -6z"/>
<path d="M1040 749 c0 -5 5 -7 10 -4 6 3 10 8 10 11 0 2 -4 4 -10 4 -5 0 -10
-5 -10 -11z"/>
<path d="M1445 750 c-3 -5 -1 -10 4 -10 6 0 11 5 11 10 0 6 -2 10 -4 10 -3 0
-8 -4 -11 -10z"/>
<path d="M1477 753 c-4 -3 -7 -11 -7 -17 0 -6 5 -5 12 2 6 6 9 14 7 17 -3 3
-9 2 -12 -2z"/>
<path d="M1720 750 c0 -6 7 -10 15 -10 8 0 15 2 15 4 0 2 -7 6 -15 10 -8 3
-15 1 -15 -4z"/>
<path d="M1868 753 c7 -3 16 -2 19 1 4 3 -2 6 -13 5 -11 0 -14 -3 -6 -6z"/>
<path d="M2014 744 c-18 -14 -18 -15 4 -4 12 6 22 13 22 15 0 8 -5 6 -26 -11z"/>
<path d="M30 735 c0 -8 2 -15 4 -15 2 0 6 7 10 15 3 8 1 15 -4 15 -6 0 -10 -7
-10 -15z"/>
<path d="M1208 738 c7 -7 16 -7 28 0 14 8 13 10 -10 10 -18 0 -24 -4 -18 -10z"/>
<path d="M1900 740 c0 -5 5 -10 10 -10 6 0 10 5 10 10 0 6 -4 10 -10 10 -5 0
-10 -4 -10 -10z"/>
<path d="M2105 740 c-3 -5 -1 -10 4 -10 6 0 11 5 11 10 0 6 -2 10 -4 10 -3 0
-8 -4 -11 -10z"/>
<path d="M160 736 c0 -2 11 -6 25 -8 13 -3 22 -1 19 3 -5 9 -44 13 -44 5z"/>
<path d="M1510 730 c0 -5 7 -10 16 -10 8 0 12 5 9 10 -3 6 -10 10 -16 10 -5 0
-9 -4 -9 -10z"/>
<path d="M1958 733 c7 -3 16 -2 19 1 4 3 -2 6 -13 5 -11 0 -14 -3 -6 -6z"/>
<path d="M2294 729 c-8 -13 13 -36 23 -24 5 4 2 10 -5 12 -6 3 -10 9 -6 14 3
5 3 9 0 9 -3 0 -8 -5 -12 -11z"/>
<path d="M2325 730 c3 -5 8 -10 11 -10 2 0 4 5 4 10 0 6 -5 10 -11 10 -5 0 -7
-4 -4 -10z"/>
<path d="M505 720 c3 -5 8 -10 11 -10 2 0 4 5 4 10 0 6 -5 10 -11 10 -5 0 -7
-4 -4 -10z"/>
<path d="M605 720 c-3 -5 -1 -10 4 -10 6 0 11 5 11 10 0 6 -2 10 -4 10 -3 0
-8 -4 -11 -10z"/>
<path d="M647 713 c3 -7 6 -13 8 -13 2 0 5 6 8 13 3 8 -1 14 -8 14 -7 0 -11
-6 -8 -14z"/>
<path d="M700 725 c0 -7 30 -13 34 -7 3 4 -4 9 -15 9 -10 1 -19 0 -19 -2z"/>
<path d="M750 720 c0 -5 10 -10 23 -10 18 0 19 2 7 10 -19 13 -30 13 -30 0z"/>
<path d="M935 719 c-4 -6 -4 -13 -1 -16 3 -4 6 -1 6 6 0 8 7 11 15 7 8 -3 15
-1 15 4 0 13 -27 13 -35 -1z"/>
<path d="M1020 720 c-11 -8 -7 -9 15 -4 37 8 45 14 19 14 -10 0 -26 -5 -34
-10z"/>
<path d="M1760 720 c0 -5 5 -10 10 -10 6 0 10 5 10 10 0 6 -4 10 -10 10 -5 0
-10 -4 -10 -10z"/>
<path d="M1803 723 c9 -2 23 -2 30 0 6 3 -1 5 -18 5 -16 0 -22 -2 -12 -5z"/>
<path d="M2041 721 c-11 -7 -10 -11 7 -20 26 -14 32 -14 32 -1 0 6 -7 10 -16
10 -8 0 -12 5 -9 10 8 12 4 12 -14 1z"/>
<path d="M2360 720 c8 -5 22 -10 30 -10 13 0 13 1 0 10 -8 5 -22 10 -30 10
-13 0 -13 -1 0 -10z"/>
<path d="M1080 716 c0 -2 7 -7 16 -10 8 -3 12 -2 9 4 -6 10 -25 14 -25 6z"/>
<path d="M1295 710 c11 -5 27 -9 35 -9 9 0 8 4 -5 9 -11 5 -27 9 -35 9 -9 0
-8 -4 5 -9z"/>
<path d="M1428 713 c7 -3 16 -2 19 1 4 3 -2 6 -13 5 -11 0 -14 -3 -6 -6z"/>
<path d="M2185 710 c3 -5 8 -10 11 -10 2 0 4 5 4 10 0 6 -5 10 -11 10 -5 0 -7
-4 -4 -10z"/>
<path d="M2250 710 c19 -13 30 -13 30 0 0 6 -10 10 -22 10 -19 0 -20 -2 -8
-10z"/>
<path d="M1628 703 c7 -3 16 -2 19 1 4 3 -2 6 -13 5 -11 0 -14 -3 -6 -6z"/>
<path d="M1850 689 c0 -5 5 -7 10 -4 6 3 10 8 10 11 0 2 -4 4 -10 4 -5 0 -10
-5 -10 -11z"/>
<path d="M1975 690 c27 -12 35 -12 35 0 0 6 -12 10 -27 9 -25 0 -26 -1 -8 -9z"/>
<path d="M2108 693 c7 -3 16 -2 19 1 4 3 -2 6 -13 5 -11 0 -14 -3 -6 -6z"/>
<path d="M80 660 c0 -5 7 -10 15 -10 8 0 15 5 15 10 0 6 -7 10 -15 10 -8 0
-15 -4 -15 -10z"/>
<path d="M2572 568 c4 -32 42 -32 44 0 1 18 1 19 -3 2 -6 -26 -23 -26 -23 0 0
11 -5 20 -11 20 -6 0 -9 -10 -7 -22z"/>
<path d="M2632 568 c2 -15 10 -23 23 -23 30 0 27 39 -3 43 -20 3 -23 0 -20
-20z m33 3 c3 -5 1 -12 -5 -16 -5 -3 -10 1 -10 9 0 18 6 21 15 7z"/>
<path d="M2696 574 c-10 -25 -7 -30 14 -30 11 0 20 3 20 7 0 15 -12 39 -20 39
-4 0 -11 -7 -14 -16z"/>
<path d="M2740 565 c0 -14 5 -25 10 -25 6 0 10 11 10 25 0 14 -4 25 -10 25 -5
0 -10 -11 -10 -25z"/>
<path d="M2774 575 c-11 -28 26 -50 41 -24 4 6 0 9 -10 7 -24 -4 -31 19 -8 25
17 4 17 5 0 6 -10 0 -20 -6 -23 -14z"/>
<path d="M913 475 c0 -33 2 -45 4 -27 2 18 2 45 0 60 -2 15 -4 0 -4 -33z"/>
<path d="M1370 470 c0 -35 2 -61 4 -59 8 7 10 108 3 115 -4 4 -7 -21 -7 -56z"/>
<path d="M1556 521 c-4 -7 -5 -15 -2 -18 9 -9 19 4 14 18 -4 11 -6 11 -12 0z"/>
<path d="M2337 523 c-4 -3 -7 -11 -7 -17 0 -6 5 -5 12 2 6 6 9 14 7 17 -3 3
-9 2 -12 -2z"/>
<path d="M582 473 l-2 -53 33 1 c29 2 29 2 5 6 -24 4 -27 9 -31 51 l-3 47 -2
-52z"/>
<path d="M987 513 c-14 -13 -7 -25 8 -13 14 12 35 6 35 -10 0 -5 -11 -22 -25
-38 l-25 -30 30 -4 c17 -3 33 -1 36 4 3 4 -4 8 -15 8 -19 0 -19 1 -4 28 9 16
14 36 10 45 -6 17 -38 23 -50 10z"/>
<path d="M1067 513 c-14 -13 -6 -25 8 -13 12 10 19 10 27 2 8 -8 4 -21 -16
-47 l-27 -35 38 1 c21 1 29 4 16 6 -20 4 -21 5 -5 32 8 15 13 35 9 44 -6 17
-38 23 -50 10z"/>
<path d="M1192 508 c-21 -21 -14 -66 12 -83 30 -20 56 -10 56 21 0 18 -6 24
-21 24 -11 0 -17 -5 -14 -10 4 -6 11 -8 16 -5 5 4 9 -1 9 -9 0 -19 -31 -21
-48 -4 -29 29 4 76 42 62 9 -3 16 -1 16 5 0 15 -53 14 -68 -1z"/>
<path d="M1717 513 c-16 -15 -6 -43 18 -49 14 -3 25 -13 25 -21 0 -12 -7 -14
-32 -9 -31 5 -32 5 -14 -9 25 -19 31 -19 50 0 20 20 10 44 -21 51 -32 8 -23
30 11 26 18 -2 25 1 21 7 -7 12 -48 15 -58 4z"/>
<path d="M2011 465 l2 -60 7 50 c4 28 3 54 -1 60 -5 5 -8 -16 -8 -50z"/>
<path d="M2074 495 c-13 -20 -19 -23 -30 -14 -16 13 -18 1 -4 -21 9 -13 13
-12 30 8 l19 23 4 -43 c3 -38 4 -36 5 15 1 31 0 57 -3 57 -2 0 -12 -11 -21
-25z"/>
<path d="M2280 500 c0 -5 -16 -10 -35 -10 -33 0 -35 -2 -35 -35 0 -19 5 -35
10 -35 6 0 10 14 10 30 0 25 4 30 25 30 21 0 25 -5 25 -30 0 -22 5 -30 18 -29
10 0 12 3 5 6 -15 5 -18 50 -4 55 5 2 3 9 -5 16 -8 7 -14 8 -14 2z"/>
<path d="M1515 491 c-3 -6 -11 -9 -16 -6 -5 4 -8 -12 -8 -37 2 -33 3 -36 6
-13 2 17 12 36 20 42 9 7 14 15 11 19 -3 3 -9 0 -13 -5z"/>
<path d="M657 483 c-26 -26 12 -80 47 -67 21 8 30 42 16 59 -13 15 -51 20 -63
8z m51 -26 c4 -22 -27 -35 -38 -16 -10 15 7 42 24 36 6 -2 12 -11 14 -20z"/>
<path d="M747 483 c-26 -25 15 -85 46 -66 8 5 3 9 -13 13 -33 8 -35 45 -2 44
12 0 22 3 22 8 0 10 -44 11 -53 1z"/>
<path d="M816 474 c-9 -23 -8 -31 8 -47 9 -8 26 -12 40 -10 22 5 26 11 26 39
0 32 -2 34 -34 34 -22 0 -36 -6 -40 -16z m49 -20 c0 -10 -8 -20 -17 -22 -18
-3 -26 27 -11 42 12 11 28 0 28 -20z"/>
<path d="M1287 483 c-12 -11 -8 -50 6 -61 7 -6 23 -9 35 -5 17 4 22 13 22 39
0 31 -3 34 -28 34 -16 0 -32 -3 -35 -7z m46 -15 c6 -19 -3 -38 -18 -38 -18 0
-28 17 -21 35 7 18 33 20 39 3z"/>
<path d="M1406 475 c-10 -28 -7 -44 13 -55 11 -5 27 -7 35 -4 25 9 19 22 -8
17 -13 -3 -27 0 -30 6 -5 7 4 11 24 11 25 0 31 4 28 18 -4 23 -53 29 -62 7z
m44 -5 c0 -5 -7 -10 -15 -10 -8 0 -15 5 -15 10 0 6 7 10 15 10 8 0 15 -4 15
-10z"/>
<path d="M1548 455 c-2 -19 0 -35 4 -35 4 0 8 16 8 35 0 19 -2 35 -4 35 -2 0
-6 -16 -8 -35z"/>
<path d="M1580 471 c-14 -27 17 -63 48 -55 17 5 22 14 22 40 0 31 -3 34 -30
34 -19 0 -33 -7 -40 -19z m50 -16 c0 -25 -23 -35 -35 -15 -10 16 2 40 20 40 9
0 15 -9 15 -25z"/>
<path d="M1797 483 c-12 -11 -8 -50 6 -61 7 -6 23 -9 35 -5 17 4 22 13 22 39
0 31 -3 34 -28 34 -16 0 -32 -3 -35 -7z m51 -26 c4 -20 -25 -34 -40 -19 -15
15 -1 44 19 40 10 -2 19 -11 21 -21z"/>
<path d="M1880 453 c0 -18 4 -33 8 -33 4 0 8 12 7 27 0 18 6 29 18 31 13 3 17
-3 17 -27 0 -17 5 -31 10 -31 12 0 13 40 2 58 -5 6 -20 11 -35 10 -23 -2 -27
-7 -27 -35z"/>
<path d="M2127 483 c-13 -12 -7 -52 9 -61 31 -17 54 -3 54 34 0 31 -3 34 -28
34 -16 0 -32 -3 -35 -7z m51 -26 c4 -20 -25 -34 -40 -19 -15 15 -1 44 19 40
10 -2 19 -11 21 -21z"/>
<path d="M2327 483 c-11 -10 -8 -61 3 -68 6 -4 10 10 10 34 0 42 -2 46 -13 34z"/>
<path d="M2361 448 l2 -43 6 35 c8 48 38 53 44 8 l4 -33 1 38 c2 35 0 37 -28
37 -29 0 -30 -2 -29 -42z"/>
<path d="M132 420 c0 -14 2 -19 5 -12 2 6 2 18 0 25 -3 6 -5 1 -5 -13z"/>
<path d="M2862 410 c0 -14 2 -19 5 -12 2 6 2 18 0 25 -3 6 -5 1 -5 -13z"/>
<path d="M2862 360 c0 -14 2 -19 5 -12 2 6 2 18 0 25 -3 6 -5 1 -5 -13z"/>
<path d="M1100 315 c-8 -9 -8 -15 -2 -15 12 0 26 19 19 26 -2 2 -10 -2 -17
-11z"/>
<path d="M1267 324 c-3 -3 -3 -12 -1 -19 4 -9 -4 -15 -23 -17 -21 -2 -29 -9
-31 -27 -5 -29 20 -51 48 -44 17 4 20 14 20 59 0 54 -1 59 -13 48z m-4 -56 c6
-19 -3 -38 -18 -38 -18 0 -28 17 -21 35 7 18 33 20 39 3z"/>
<path d="M1391 274 c-1 -60 -1 -61 25 -58 35 3 46 16 42 45 -2 18 -9 24 -28
24 -18 0 -27 7 -31 25 -4 16 -7 3 -8 -36z m57 -17 c4 -20 -25 -34 -40 -19 -15
15 -1 44 19 40 10 -2 19 -11 21 -21z"/>
<path d="M2862 310 c0 -14 2 -19 5 -12 2 6 2 18 0 25 -3 6 -5 1 -5 -13z"/>
<path d="M988 309 c-27 -15 -23 -65 6 -84 13 -8 31 -13 40 -9 24 9 20 23 -5
17 -39 -11 -59 46 -25 69 6 4 19 5 29 2 9 -3 17 -1 17 5 0 14 -39 14 -62 0z"/>
<path d="M1848 299 c-7 -22 4 -79 16 -79 8 0 11 11 8 30 -3 19 0 30 8 30 7 0
6 5 -4 15 -17 18 -23 19 -28 4z"/>
<path d="M1066 275 c-11 -29 -7 -44 15 -56 18 -9 25 -7 43 10 16 17 18 25 10
39 -15 23 -60 28 -68 7z m52 -18 c4 -21 -27 -35 -38 -17 -12 19 0 42 19 38 9
-2 17 -11 19 -21z"/>
<path d="M1150 255 c0 -19 5 -35 10 -35 6 0 10 13 10 29 0 20 6 31 18 34 10 3
6 5 -10 6 -25 1 -28 -2 -28 -34z"/>
<path d="M1307 284 c-13 -13 -7 -51 9 -65 23 -19 49 1 49 37 0 24 -5 30 -25
32 -14 2 -29 0 -33 -4z m51 -27 c4 -20 -25 -34 -40 -19 -15 15 -1 44 19 40 10
-2 19 -11 21 -21z"/>
<path d="M1476 274 c-9 -23 -8 -31 8 -47 8 -8 26 -12 39 -10 20 4 24 10 23 39
-1 31 -4 34 -32 34 -20 0 -34 -6 -38 -16z m49 -19 c0 -11 -8 -21 -17 -23 -14
-3 -18 3 -18 23 0 20 4 26 18 23 9 -2 17 -12 17 -23z"/>
<path d="M1607 283 c-4 -3 -7 -17 -7 -29 0 -29 33 -49 58 -35 15 9 13 10 -9
11 -15 0 -29 6 -32 13 -8 20 9 41 27 34 9 -4 16 -2 16 3 0 11 -43 14 -53 3z"/>
<path d="M1682 278 c-7 -7 -12 -17 -12 -23 0 -20 36 -46 54 -39 22 9 20 23 -3
17 -10 -3 -22 0 -25 6 -5 7 2 11 17 11 30 0 40 10 26 27 -14 16 -41 17 -57 1z
m48 -8 c0 -5 -9 -10 -20 -10 -11 0 -20 5 -20 10 0 6 9 10 20 10 11 0 20 -4 20
-10z"/>
<path d="M1760 249 c0 -24 4 -38 10 -34 6 3 10 19 10 36 0 19 5 29 15 29 10 0
15 -10 15 -30 0 -16 5 -30 10 -30 6 0 10 9 10 19 0 37 -12 51 -41 51 -27 0
-29 -2 -29 -41z"/>
<path d="M1900 255 c0 -19 5 -35 11 -35 7 0 9 10 5 25 -5 20 -2 27 16 35 22 8
22 9 -4 9 -25 1 -28 -2 -28 -34z"/>
<path d="M1961 272 c-8 -16 -7 -25 7 -42 16 -20 21 -21 41 -11 33 18 26 65
-11 69 -18 2 -30 -3 -37 -16z m57 -15 c4 -20 -25 -34 -40 -19 -15 15 -1 44 19
40 10 -2 19 -11 21 -21z"/>
<path d="M227 133 c18 -2 50 -2 70 0 21 2 7 4 -32 4 -38 0 -55 -2 -38 -4z"/>
<path d="M773 133 c32 -2 81 -2 110 0 29 2 3 3 -58 3 -60 0 -84 -1 -52 -3z"/>
<path d="M1013 133 c9 -2 25 -2 35 0 9 3 1 5 -18 5 -19 0 -27 -2 -17 -5z"/>
<path d="M2093 133 c92 -2 242 -2 335 0 92 1 16 3 -168 3 -184 0 -260 -2 -167
-3z"/>
</g>
</svg>
