<?xml version="1.0" standalone="no"?>
<!DOCTYPE svg PUBLIC "-//W3C//DTD SVG 20010904//EN"
 "http://www.w3.org/TR/2001/REC-SVG-20010904/DTD/svg10.dtd">
<svg version="1.0" xmlns="http://www.w3.org/2000/svg"
 width="225.000000pt" height="225.000000pt" viewBox="0 0 225.000000 225.000000"
 preserveAspectRatio="xMidYMid meet">
<metadata>
Created by potrace 1.10, written by Peter Selinger 2001-2011
</metadata>
<g transform="translate(0.000000,225.000000) scale(0.100000,-0.100000)"
fill="#000000" stroke="none">
<path d="M303 2142 c-63 -22 -115 -61 -154 -115 -61 -84 -60 -68 -57 -923 l3
-779 24 -52 c27 -61 93 -126 159 -156 47 -22 48 -22 852 -22 l805 0 50 27 c65
34 127 101 151 164 18 47 19 86 19 839 0 755 -1 792 -19 840 -25 65 -94 137
-159 166 l-52 24 -785 2 c-733 2 -788 1 -837 -15z m1454 -334 l-2 -143 -107
-5 c-59 -3 -112 -10 -118 -16 -17 -17 -27 -71 -29 -152 l-2 -72 130 0 131 0
-5 -27 c-2 -16 -9 -81 -16 -145 l-11 -118 -114 0 -114 0 0 -410 0 -410 -167 2
-168 3 -3 408 -2 407 -80 0 -80 0 0 145 0 145 80 0 80 0 0 88 c1 170 30 284
88 345 72 76 145 95 354 96 l157 1 -2 -142z"/>
</g>
</svg>
