<?xml version="1.0" standalone="no"?>
<!DOCTYPE svg PUBLIC "-//W3C//DTD SVG 20010904//EN"
 "http://www.w3.org/TR/2001/REC-SVG-20010904/DTD/svg10.dtd">
<svg version="1.0" xmlns="http://www.w3.org/2000/svg"
 width="225.000000pt" height="225.000000pt" viewBox="0 0 225.000000 225.000000"
 preserveAspectRatio="xMidYMid meet">
<metadata>
Created by potrace 1.10, written by Peter Selinger 2001-2011
</metadata>
<g transform="translate(0.000000,225.000000) scale(0.100000,-0.100000)"
fill="#000000" stroke="none">
<path d="M639 2240 c-134 -10 -215 -30 -307 -76 -159 -80 -264 -228 -309 -434
-16 -76 -18 -137 -18 -605 1 -556 5 -605 54 -736 32 -85 110 -189 183 -244
122 -93 213 -121 438 -136 195 -14 939 -6 1029 10 215 39 369 147 452 316 75
153 89 273 89 770 0 506 -15 663 -74 790 -57 123 -179 240 -302 289 -134 54
-173 58 -669 61 -253 2 -508 0 -566 -5z m1024 -213 c143 -42 267 -137 320
-248 58 -120 60 -138 65 -605 3 -362 1 -446 -12 -525 -38 -225 -165 -368 -379
-427 -55 -15 -118 -17 -532 -17 -363 0 -482 3 -525 14 -189 47 -322 176 -377
366 -24 87 -32 888 -10 1019 43 249 201 402 449 436 34 4 261 7 503 6 380 -2
448 -4 498 -19z"/>
<path d="M668 1870 c-159 -25 -263 -133 -289 -302 -6 -41 -9 -229 -7 -490 4
-473 5 -479 77 -574 47 -62 137 -110 238 -125 46 -6 222 -9 485 -7 364 4 419
6 468 22 112 37 182 109 218 225 15 50 17 106 17 506 0 396 -2 457 -17 505
-37 117 -107 189 -223 227 -43 15 -110 17 -480 19 -236 1 -455 -2 -487 -6z
m1028 -174 c28 -28 34 -42 34 -76 0 -57 -50 -110 -104 -110 -73 0 -116 42
-116 116 0 54 53 104 110 104 34 0 48 -6 76 -34z m-451 -110 c314 -84 455
-450 277 -722 -45 -68 -77 -100 -147 -143 -111 -70 -262 -90 -387 -51 -345
106 -453 536 -199 791 61 60 113 92 201 120 66 22 185 24 255 5z"/>
<path d="M1034 1420 c-89 -28 -181 -123 -205 -213 -28 -104 11 -240 88 -308
68 -59 110 -74 208 -74 81 0 95 3 144 30 214 118 214 423 0 540 -43 23 -68 29
-129 31 -41 2 -89 -1 -106 -6z"/>
</g>
</svg>
