<?xml version="1.0" standalone="no"?>
<!DOCTYPE svg PUBLIC "-//W3C//DTD SVG 20010904//EN"
 "http://www.w3.org/TR/2001/REC-SVG-20010904/DTD/svg10.dtd">
<svg version="1.0" xmlns="http://www.w3.org/2000/svg"
 width="300.000000pt" height="300.000000pt" viewBox="0 0 300.000000 300.000000"
 preserveAspectRatio="xMidYMid meet">
<metadata>
Created by potrace 1.10, written by Peter Selinger 2001-2011
</metadata>
<g transform="translate(0.000000,300.000000) scale(0.100000,-0.100000)"
fill="#000000" stroke="none">
<path d="M216 2788 c3 -4 583 -8 1289 -8 1017 0 1284 -3 1288 -12 3 -8 6 -6 6
5 1 16 -66 17 -1266 18 -698 0 -1280 2 -1295 3 -14 1 -24 -2 -22 -6z"/>
<path d="M206 2739 c-11 -55 -7 -2507 4 -2514 7 -4 10 422 10 1269 0 702 -2
1276 -4 1276 -2 0 -6 -14 -10 -31z"/>
<path d="M2788 2668 c-4 -88 6 -2462 10 -2433 5 34 4 2497 -1 2502 -3 2 -7
-28 -9 -69z"/>
<path d="M485 2666 c-55 -25 -110 -81 -131 -132 -17 -41 -18 -153 -2 -191 21
-50 69 -103 116 -131 41 -24 57 -27 132 -27 75 0 91 3 132 27 58 34 101 86
118 141 18 56 21 61 29 48 4 -6 43 -18 87 -26 43 -8 139 -26 213 -40 135 -25
188 -31 141 -14 -18 6 -10 7 25 3 28 -3 57 -12 65 -19 12 -11 17 -11 28 1 18
19 16 21 -25 26 -21 3 -151 24 -289 48 l-252 43 -6 40 c-16 96 -92 191 -174
215 -65 20 -151 15 -207 -12z m202 -1 c143 -43 208 -221 127 -351 -40 -65
-104 -104 -183 -111 -116 -11 -209 36 -255 128 -51 103 -29 209 58 286 70 61
154 77 253 48z m536 -322 c-7 -2 -19 -2 -25 0 -7 3 -2 5 12 5 14 0 19 -2 13
-5z m60 -10 c-7 -2 -21 -2 -30 0 -10 3 -4 5 12 5 17 0 24 -2 18 -5z"/>
<path d="M500 2644 c-145 -63 -179 -257 -63 -366 41 -39 94 -58 163 -58 69 0
122 19 163 58 117 111 82 305 -65 366 -47 20 -152 20 -198 0z m222 -41 c54
-35 88 -99 88 -164 0 -26 -3 -54 -6 -63 -8 -20 -24 -21 -24 -1 0 8 -16 22 -36
31 l-37 18 24 18 c47 36 50 39 43 61 -10 35 -32 52 -67 52 -18 1 -31 6 -30 12
3 17 -31 43 -58 44 -35 1 -98 -17 -117 -34 -9 -8 -26 -17 -37 -21 -33 -10 -49
-44 -34 -73 11 -21 10 -27 -14 -51 l-27 -27 0 43 c0 43 17 86 48 123 60 72
200 88 284 32z m-70 -19 c6 -5 -46 -141 -57 -152 -3 -3 -141 45 -154 55 -6 4
28 53 37 53 4 0 27 -20 52 -45 25 -24 48 -44 53 -45 4 0 7 32 7 70 l0 70 28 0
c16 0 31 -3 34 -6z m-95 -20 c6 -16 -15 -37 -29 -28 -4 3 -8 14 -8 25 0 23 28
26 37 3z m188 -50 c9 -14 15 -27 13 -30 -2 -2 -33 -17 -69 -33 -40 -18 -58
-31 -49 -35 8 -3 41 -15 72 -26 l58 -21 -15 -30 c-9 -16 -19 -29 -23 -29 -4 0
-26 18 -47 41 -43 44 -84 72 -69 47 4 -7 28 -37 52 -66 l44 -52 -35 -15 c-20
-8 -40 -15 -46 -15 -5 0 -12 30 -16 67 -4 36 -9 72 -12 78 -4 12 103 145 117
145 4 0 15 -12 25 -26z m-155 -182 l0 -84 -32 6 c-17 3 -33 8 -35 10 -2 2 10
33 26 70 17 36 28 66 25 66 -2 0 -32 -11 -66 -25 -34 -14 -65 -22 -69 -18 -3
5 -9 21 -13 36 l-7 28 86 -2 85 -3 0 -84z m-75 -4 c-3 -13 -9 -33 -12 -45 -5
-23 -23 -32 -23 -13 0 6 -6 10 -13 10 -7 0 -20 13 -30 29 -16 28 -16 28 7 24
13 -3 32 0 43 6 28 16 36 13 28 -11z"/>
<path d="M380 2665 c-6 -8 -9 -19 -5 -25 4 -6 1 -19 -7 -28 -12 -15 -11 -16 5
-3 9 7 17 22 17 32 0 14 7 19 30 19 17 0 30 5 30 10 0 15 -56 12 -70 -5z"/>
<path d="M756 2670 c7 -7 160 -9 447 -8 240 2 436 1 435 -2 -8 -14 -152 -269
-166 -292 -9 -15 -13 -30 -9 -34 9 -9 46 36 47 57 0 8 29 66 64 127 35 62 67
119 70 127 5 13 77 15 531 15 l525 0 0 -960 0 -960 -306 0 c-195 0 -303 -4
-299 -10 3 -6 119 -9 297 -9 288 0 320 4 325 34 1 6 2 15 3 20 8 37 -2 1895
-9 1890 -5 -3 -12 -1 -16 5 -4 7 -330 10 -978 10 -660 0 -968 -3 -961 -10z"/>
<path d="M1120 2610 c-9 -16 -8 -20 5 -20 8 0 15 9 15 20 0 11 -2 20 -5 20 -2
0 -9 -9 -15 -20z"/>
<path d="M1230 2626 c0 -2 7 -6 15 -10 8 -3 15 -1 15 4 0 6 -7 10 -15 10 -8 0
-15 -2 -15 -4z"/>
<path d="M1227 2599 c7 -7 15 -10 18 -7 3 3 -2 9 -12 12 -14 6 -15 5 -6 -5z"/>
<path d="M1190 2580 c-12 -8 -9 -10 13 -10 16 0 26 4 22 10 -8 12 -16 12 -35
0z"/>
<path d="M1070 2565 c-8 -9 -9 -15 -2 -15 6 0 14 5 17 10 4 6 16 8 27 4 14 -4
18 -2 14 5 -10 16 -41 14 -56 -4z"/>
<path d="M1316 2567 c3 -10 9 -15 12 -12 3 3 0 11 -7 18 -10 9 -11 8 -5 -6z"/>
<path d="M1380 2551 c0 -6 4 -13 10 -16 6 -3 7 1 4 9 -7 18 -14 21 -14 7z"/>
<path d="M1050 2520 c0 -5 5 -10 10 -10 6 0 10 5 10 10 0 6 -4 10 -10 10 -5 0
-10 -4 -10 -10z"/>
<path d="M1415 2490 c3 -5 8 -10 11 -10 2 0 4 5 4 10 0 6 -5 10 -11 10 -5 0
-7 -4 -4 -10z"/>
<path d="M1358 2303 c7 -3 16 -2 19 1 4 3 -2 6 -13 5 -11 0 -14 -3 -6 -6z"/>
<path d="M1237 2279 c3 -10 9 -19 13 -19 14 0 6 -63 -9 -68 -10 -3 -12 1 -8
17 3 11 1 21 -3 21 -5 0 -8 12 -7 28 2 21 -3 28 -20 30 -19 3 -22 0 -16 -15 6
-16 5 -17 -11 -3 -16 13 -18 12 -15 -5 3 -24 -10 -55 -22 -55 -17 0 -9 28 9
33 9 3 1 5 -18 6 -19 0 -51 -3 -70 -8 -19 -5 -64 -12 -100 -15 -71 -5 -131
-24 -197 -61 -24 -13 -43 -19 -43 -14 0 6 -10 9 -22 7 -15 -2 -23 -10 -23 -23
0 -13 8 -21 23 -23 12 -2 22 1 22 6 0 12 150 82 193 89 20 3 37 1 41 -6 4 -7
0 -10 -11 -9 -18 2 -104 -22 -113 -32 -8 -8 -69 -41 -72 -39 -7 6 -58 -35 -73
-57 -14 -22 -10 -21 37 12 98 68 209 104 360 120 49 5 72 3 83 -6 11 -9 19
-10 26 -3 8 8 7 13 0 17 -16 10 -14 46 3 46 7 0 13 -8 13 -17 0 -49 2 -52 42
-51 24 0 42 6 45 14 4 10 24 14 67 14 71 0 72 11 2 18 -67 6 -67 12 -1 12 81
0 115 -9 121 -32 4 -15 2 -17 -7 -8 -10 7 -35 7 -87 0 -40 -6 -75 -13 -78 -15
-4 -5 33 -9 51 -6 4 0 46 1 93 2 47 1 87 5 90 9 5 8 147 -26 208 -49 18 -7 34
-7 45 -1 9 5 39 14 67 19 56 11 68 6 177 -65 91 -61 151 -86 185 -79 44 10 74
28 69 41 -3 7 2 15 11 18 22 9 27 1 15 -21 -6 -11 -7 -25 -2 -33 5 -8 7 -17 4
-21 -2 -4 4 -13 12 -20 15 -12 16 -7 12 55 -3 54 -2 64 8 52 16 -23 3 -169
-16 -181 -6 -4 -7 3 -1 18 7 18 6 30 -4 43 -12 15 -15 16 -16 4 0 -8 -5 -4
-10 10 -6 17 -6 11 -2 -20 8 -56 8 -70 -1 -95 -5 -13 -2 -11 8 5 18 30 21 21
5 -14 -7 -14 -16 -23 -20 -20 -5 3 -6 -2 -3 -10 3 -8 -2 -27 -11 -43 -16 -27
-16 -22 0 22 9 24 -59 -84 -68 -110 -6 -15 -10 -15 -24 -4 -9 8 -24 26 -33 42
l-17 27 -12 -27 c-7 -16 -10 -25 -6 -21 4 4 21 -2 37 -13 27 -20 45 -26 78
-28 13 -1 13 -2 0 -11 -12 -8 -11 -10 6 -10 11 0 28 8 36 18 15 16 48 114 53
157 2 12 11 43 20 70 23 67 30 163 13 194 -16 30 -38 39 -38 16 0 -9 -4 -14
-10 -10 -5 3 -7 13 -4 23 5 16 5 16 -6 0 -6 -10 -18 -18 -25 -18 -18 0 -18 -5
-4 -32 10 -19 9 -20 -10 -15 -11 3 -35 2 -53 -2 -18 -4 -38 -4 -43 1 -6 5 -50
34 -98 65 -62 39 -98 56 -120 55 -23 -1 -27 2 -17 8 8 6 32 10 52 10 20 0 67
7 104 16 37 8 78 13 91 9 12 -3 41 -28 62 -55 37 -47 41 -49 51 -31 7 13 7 22
0 26 -5 3 -10 3 -10 -1 0 -4 -9 1 -20 11 -22 20 -27 40 -7 29 7 -4 9 -3 4 2
-5 5 -12 9 -17 9 -5 0 -17 9 -27 21 -31 36 -56 37 -183 9 l-121 -27 -73 30
c-65 26 -86 30 -182 31 -60 1 -124 4 -142 8 -32 5 -33 4 -21 -15 7 -11 19 -18
26 -15 7 3 13 1 13 -3 0 -5 42 -8 93 -6 75 3 106 -1 153 -17 32 -12 69 -21 82
-21 13 0 21 -4 17 -10 -4 -6 -14 -9 -23 -6 -10 3 -33 2 -52 -2 -26 -6 -53 -2
-104 15 -106 36 -138 39 -160 14 -27 -30 -35 -27 -57 24 l-20 45 -62 2 c-34 0
-74 0 -89 -1 -16 -1 -28 3 -28 8 0 6 -5 11 -11 11 -5 0 -8 -4 -4 -9 3 -5 1
-12 -5 -16 -5 -3 -10 -2 -10 3 0 6 -6 12 -14 15 -10 4 -12 0 -9 -14z m49 -36
c-10 -10 -19 5 -10 18 6 11 8 11 12 0 2 -7 1 -15 -2 -18z m164 16 c16 -5 -4
-8 -57 -8 -51 -1 -83 3 -83 9 0 12 101 11 140 -1z m-150 -37 c0 -13 -12 -22
-22 -16 -10 6 -1 24 13 24 5 0 9 -4 9 -8z m337 -18 c-3 -3 -12 -4 -19 -1 -8 3
-5 6 6 6 11 1 17 -2 13 -5z m-925 -69 c0 -5 -5 -11 -11 -13 -6 -2 -11 4 -11
13 0 9 5 15 11 13 6 -2 11 -8 11 -13z m1628 -101 c0 -8 -5 -12 -10 -9 -6 4 -8
11 -5 16 9 14 15 11 15 -7z m-39 -281 c-12 -20 -14 -14 -5 12 4 9 9 14 11 11
3 -2 0 -13 -6 -23z m-31 -22 c-11 -21 -29 -36 -35 -29 -3 2 2 14 11 26 19 28
39 30 24 3z m17 -35 c-7 -13 -15 -22 -19 -20 -4 3 -2 16 4 29 6 13 14 22 19
20 4 -3 2 -16 -4 -29z"/>
<path d="M369 2133 c-4 -1107 -1 -1375 15 -1391 15 -15 64 -17 457 -18 242 0
442 3 445 8 3 4 -198 8 -445 8 l-451 0 0 754 c0 493 -3 757 -10 761 -6 4 -10
-39 -11 -122z"/>
<path d="M1520 2220 c0 -5 5 -10 10 -10 6 0 10 5 10 10 0 6 -4 10 -10 10 -5 0
-10 -4 -10 -10z"/>
<path d="M1303 2156 c-13 -6 -23 -14 -23 -18 0 -5 -8 -8 -17 -7 -11 0 -13 3
-5 6 16 6 15 23 -2 23 -8 0 -17 -7 -20 -16 -3 -8 -11 -12 -17 -8 -8 4 -7 9 2
15 9 6 -12 8 -54 7 -38 -1 -71 -6 -73 -10 -3 -5 -9 -6 -14 -3 -12 7 -90 -32
-90 -45 0 -6 -3 -9 -7 -8 -5 0 -16 -2 -25 -6 -13 -6 -16 -15 -11 -38 5 -23 3
-29 -6 -24 -7 5 -10 14 -7 22 3 8 1 14 -5 14 -16 0 -23 -31 -8 -40 7 -5 10
-12 6 -16 -4 -4 -14 1 -23 12 -13 16 -15 17 -10 2 3 -12 0 -18 -9 -18 -8 0
-15 -7 -15 -15 0 -8 -3 -15 -7 -15 -5 0 -13 -11 -19 -25 -9 -18 -9 -28 2 -43
17 -24 6 -38 -12 -14 -12 16 -13 16 -14 0 0 -9 5 -20 10 -23 6 -3 10 -11 10
-17 0 -6 -7 -5 -17 3 -17 13 -17 13 0 -13 21 -34 21 -39 1 -31 -14 5 -15 3 -5
-15 7 -12 8 -22 2 -22 -13 0 -21 24 -15 47 4 13 -7 25 -41 46 -25 15 -44 31
-41 36 3 5 -2 15 -12 22 -15 13 -16 12 -3 -3 11 -15 11 -18 0 -18 -8 0 -20 9
-27 21 -8 12 -9 18 -3 14 15 -9 14 2 -5 30 -16 25 -16 80 0 118 15 33 -12 17
-28 -17 -13 -29 -14 -43 -5 -85 6 -28 15 -53 20 -57 5 -3 9 -10 9 -15 0 -6 -6
-7 -12 -3 -7 5 1 -8 17 -28 17 -19 33 -33 38 -31 4 2 7 0 7 -6 0 -6 9 -15 20
-21 16 -9 18 -8 14 5 -3 8 -11 12 -17 8 -5 -3 -7 -2 -4 4 3 5 -8 17 -24 27
-17 10 -28 20 -25 23 12 12 98 -67 119 -110 18 -35 20 -44 8 -39 -14 5 -13 2
2 -21 16 -25 16 -26 0 -20 -17 7 -17 5 1 -21 10 -16 13 -25 7 -22 -17 11 -13
-5 7 -27 16 -19 16 -20 -1 -14 -16 6 -16 4 3 -23 19 -27 19 -29 3 -24 -13 4
-11 0 6 -14 18 -15 21 -21 10 -25 -11 -5 -10 -8 4 -17 13 -9 15 -15 7 -25 -8
-9 -6 -14 6 -19 26 -10 27 -3 4 65 -14 39 -24 101 -27 159 -5 90 -4 99 25 162
16 36 49 87 72 112 24 25 39 46 35 46 -15 0 70 55 115 75 59 26 206 26 242 0
22 -16 19 -16 -72 -10 -121 9 -183 -12 -265 -87 -75 -68 -157 -238 -115 -238
5 0 7 -13 3 -31 -4 -21 -1 -34 8 -40 10 -6 8 -9 -10 -9 -21 0 -23 4 -19 35 3
23 1 32 -6 25 -18 -18 28 -235 56 -265 5 -5 4 3 -1 18 -19 50 -11 44 19 -15
36 -69 128 -170 187 -204 23 -14 41 -30 37 -35 -3 -5 1 -6 9 -4 7 3 23 -3 36
-14 12 -11 29 -17 37 -14 8 3 14 0 14 -6 0 -6 12 -11 28 -12 15 0 54 -6 87
-13 115 -25 306 7 408 68 23 14 57 33 75 43 18 9 30 23 28 29 -3 7 3 18 12 26
15 12 16 11 3 -4 -16 -22 1 -24 19 -3 7 8 17 15 22 15 19 0 -14 -29 -86 -77
-69 -46 -201 -103 -301 -130 l-50 -13 59 5 c70 6 182 49 274 103 67 40 242
196 242 216 0 6 -28 -16 -62 -49 -85 -82 -42 -30 62 75 46 47 88 84 92 83 4
-2 19 13 34 32 17 22 35 35 49 35 13 0 31 7 39 16 22 21 20 31 -1 12 -10 -8
-33 -18 -52 -22 -30 -5 -40 -1 -83 34 l-48 41 -50 -40 c-27 -22 -68 -47 -90
-57 -22 -10 -40 -22 -40 -27 0 -5 -8 -3 -17 4 -9 8 -14 9 -10 3 4 -7 -3 -14
-18 -18 -14 -4 -23 -10 -21 -15 6 -10 -87 -51 -116 -51 -11 0 -16 -5 -13 -11
4 -6 -2 -5 -14 3 -29 18 -26 28 9 28 17 0 30 4 30 9 0 8 -66 -2 -76 -12 -3 -2
1 -17 7 -31 12 -25 16 -27 53 -21 23 4 46 14 53 22 7 9 19 13 28 9 17 -6 75
19 75 32 0 4 20 14 45 21 25 7 45 19 45 26 0 14 96 90 115 91 5 0 23 -8 38
-19 27 -18 28 -32 4 -32 -7 0 -30 -27 -52 -60 -67 -101 -143 -168 -330 -289
-59 -38 -165 -69 -246 -71 -36 -1 -71 -5 -76 -8 -6 -4 -37 -2 -70 4 -46 8 -67
18 -98 47 -21 20 -42 37 -45 37 -4 0 -14 8 -23 17 -9 9 -30 19 -45 23 -16 3
-44 21 -62 40 -25 26 -36 32 -43 22 -6 -8 -7 -7 -3 5 4 12 -7 28 -35 50 -49
40 -69 74 -70 125 -1 21 -4 49 -8 63 -7 25 10 73 31 86 6 4 8 3 5 -3 -3 -5 0
-10 8 -10 10 0 13 8 10 21 -3 12 -9 39 -13 61 l-9 40 -7 -32 c-6 -24 -11 -30
-24 -26 -14 5 -15 3 -4 -8 16 -17 15 -54 -2 -68 -11 -9 -15 -7 -19 9 -3 11 -2
18 2 16 4 -3 5 11 3 30 -3 21 0 34 7 34 6 0 11 8 11 18 0 15 -2 15 -11 2 -15
-22 -1 45 21 95 19 44 86 118 100 110 4 -2 14 2 21 11 19 23 89 55 89 41 0 -9
2 -9 8 -1 4 7 19 12 35 12 22 0 25 -3 16 -14 -13 -16 -33 -19 -24 -4 3 6 2 10
-4 10 -5 0 -15 -8 -20 -17 -8 -14 -11 -15 -11 -3 0 12 -4 10 -15 -4 -11 -14
-15 -16 -15 -5 -1 10 -5 9 -15 -5 -8 -11 -15 -16 -15 -10 0 5 -11 -4 -25 -20
-14 -16 -28 -26 -32 -23 -9 10 -33 -13 -33 -32 1 -12 3 -11 13 5 7 12 18 19
25 17 8 -3 5 -14 -13 -35 -14 -16 -25 -35 -25 -41 0 -8 -3 -7 -9 1 -7 11 -9
10 -14 -3 -4 -9 -3 -13 3 -10 6 3 10 -2 10 -12 1 -12 6 -7 14 12 27 62 110
110 148 86 11 -7 18 -7 18 -1 0 5 9 10 20 10 62 0 157 -78 191 -156 30 -71 24
-164 -13 -210 -49 -61 -69 -76 -98 -72 -17 3 -27 0 -23 -5 14 -23 -83 5 -109
31 -51 51 -79 74 -85 68 -7 -6 51 -65 88 -88 66 -42 151 -34 209 18 121 110
73 323 -92 410 -53 28 -111 27 -193 -1 -11 -3 -2 5 19 19 33 21 48 24 95 20
39 -2 51 -1 41 6 -13 8 -12 10 4 10 41 0 94 -23 105 -46 11 -26 36 -32 45 -11
3 6 4 -3 3 -21 -2 -20 1 -31 7 -29 17 6 68 -82 60 -105 -5 -17 -8 -18 -16 -7
-7 10 -8 9 -3 -6 31 -88 11 -176 -53 -241 -26 -26 -39 -42 -29 -35 9 8 17 10
17 6 0 -4 7 -2 15 5 8 7 15 9 15 4 0 -5 7 0 15 10 11 14 15 16 15 5 0 -12 2
-12 9 1 6 8 7 18 5 22 -3 4 1 8 8 8 7 0 14 12 15 26 0 15 6 30 13 34 6 4 11
10 11 14 -4 28 1 46 13 46 21 0 13 -48 -12 -77 -29 -33 -15 -29 42 12 59 41
68 43 86 11 7 -14 23 -27 36 -30 13 -4 24 -11 24 -16 0 -6 8 -10 18 -10 36 0
92 -21 92 -35 0 -8 -5 -15 -12 -15 -6 0 -8 -3 -5 -7 4 -3 15 1 24 9 10 9 27
18 38 20 16 4 14 6 -10 12 -86 21 -177 60 -205 89 -28 29 -30 30 -49 13 -11
-10 -21 -13 -25 -7 -3 5 8 19 24 31 37 26 32 40 -4 16 -32 -21 -35 -20 -29 5
4 13 11 18 22 15 12 -5 12 -3 -3 8 -21 17 -14 36 13 29 10 -2 25 3 34 11 8 9
19 16 24 16 11 0 11 45 1 56 -12 11 -9 21 6 27 10 4 13 1 9 -9 -6 -16 22 -20
32 -4 3 6 1 10 -6 10 -8 0 -8 4 1 15 16 19 9 19 -35 1 -31 -13 -37 -13 -50 1
-19 19 -75 25 -68 6 3 -6 2 -17 -2 -24 -5 -7 -15 4 -27 30 -10 22 -23 41 -27
41 -5 0 -4 -11 2 -25 7 -14 15 -25 19 -25 3 0 9 -19 13 -42 4 -24 10 -47 13
-53 4 -5 7 -22 7 -37 0 -15 4 -30 8 -34 25 -26 -17 -32 -48 -8 -20 16 -20 16
3 9 13 -4 22 -2 22 4 0 6 -9 11 -19 11 -24 0 -33 13 -24 36 6 16 7 16 20 -2 7
-10 13 -13 13 -8 0 6 -3 14 -7 17 -3 4 -8 18 -9 32 -2 14 -19 48 -38 75 -20
28 -36 57 -36 65 0 18 21 20 39 3 11 -11 12 -9 3 8 -11 20 -7 34 8 34 3 0 14
-14 24 -31 13 -21 21 -27 26 -19 4 7 16 9 29 5 27 -8 28 -29 1 -22 -11 3 -20
1 -20 -4 0 -5 12 -10 28 -11 46 -2 50 -3 58 -11 10 -10 36 -9 30 2 -7 11 55 4
67 -8 17 -17 2 -56 -25 -69 -29 -14 -38 -32 -15 -32 6 0 -7 -13 -31 -28 -23
-16 -39 -32 -35 -35 3 -4 12 -2 20 4 7 6 13 9 13 5 0 -3 20 10 45 28 24 19 54
37 65 41 11 4 18 10 15 15 -3 4 11 17 31 29 41 25 56 28 28 6 -18 -14 -17 -15
11 -8 17 5 58 8 92 8 34 -1 59 3 57 7 -3 4 -11 8 -19 8 -7 0 -21 8 -31 17 -15
16 -17 16 -29 -1 -14 -19 -60 -19 -47 0 16 25 67 26 102 1 19 -12 34 -27 32
-31 -4 -10 33 -30 72 -40 30 -7 56 -50 40 -66 -7 -7 -26 5 -56 33 -50 49 -119
73 -172 61 -51 -11 -138 -59 -198 -110 -63 -53 -63 -44 -1 -97 48 -42 196 -74
205 -45 2 6 22 12 44 13 56 4 56 4 49 15 -3 5 0 7 9 4 16 -6 61 14 52 24 -8 7
34 52 48 52 6 0 -2 -11 -18 -25 -16 -14 -25 -25 -19 -25 25 0 151 145 213 246
38 60 66 111 63 114 -2 3 -12 -4 -21 -16 -10 -11 -21 -21 -27 -21 -5 -1 -17
-12 -25 -24 -10 -15 -11 -20 -2 -15 6 4 12 4 12 0 0 -13 -62 -115 -67 -110 -3
2 8 26 23 52 16 26 23 44 16 40 -6 -3 -24 -29 -39 -56 -15 -27 -38 -55 -51
-61 -21 -12 -25 -9 -54 25 -36 44 -137 96 -185 96 -18 0 -56 -9 -84 -19 -50
-19 -51 -19 -82 0 -21 12 -50 19 -82 19 -45 0 -53 3 -67 28 -26 44 -138 161
-169 178 -26 13 -32 13 -59 -1 -25 -13 -29 -13 -24 -1 3 8 13 16 22 18 10 2
13 6 7 9 -5 3 -20 1 -32 -5z m-148 -16 c-3 -5 -12 -10 -18 -10 -7 0 -6 4 3 10
19 12 23 12 15 0z m45 6 c0 -11 -19 -15 -25 -6 -3 5 1 10 9 10 9 0 16 -2 16
-4z m-124 -33 c-10 -10 -19 5 -10 18 6 11 8 11 12 0 2 -7 1 -15 -2 -18z m44
23 c0 -3 -4 -8 -10 -11 -5 -3 -10 -1 -10 4 0 6 5 11 10 11 6 0 10 -2 10 -4z
m286 -27 c16 -18 16 -19 0 -19 -10 0 -14 -5 -11 -11 4 -6 14 -8 22 -5 22 9 49
-14 31 -25 -10 -7 -9 -9 3 -9 9 0 22 -7 29 -15 10 -12 10 -15 -3 -15 -21 0
-49 29 -41 42 8 12 -14 9 -91 -15 l-50 -16 48 41 c53 45 59 59 22 52 -18 -3
-23 -1 -19 10 7 18 37 10 60 -15z m-370 -16 c-10 -10 -19 5 -10 18 6 11 8 11
12 0 2 -7 1 -15 -2 -18z m-30 -20 c-10 -10 -19 5 -10 18 6 11 8 11 12 0 2 -7
1 -15 -2 -18z m-30 -20 c-10 -10 -19 5 -10 18 6 11 8 11 12 0 2 -7 1 -15 -2
-18z m307 -6 c21 5 21 5 4 -13 -14 -15 -20 -16 -26 -6 -4 7 -16 10 -27 7 -18
-6 -18 -6 1 10 11 8 21 12 23 6 2 -5 13 -7 25 -4z m137 -19 c0 -7 -7 -22 -15
-32 -13 -18 -18 -18 -55 -6 -43 14 -42 28 3 32 15 1 27 6 27 10 0 4 9 8 20 8
11 0 20 -6 20 -12z m95 -44 c19 -15 19 -15 -9 -12 -16 2 -31 9 -34 16 -5 17
19 15 43 -4z m-605 2 c0 -11 -19 -15 -25 -6 -3 5 1 10 9 10 9 0 16 -2 16 -4z
m1340 -20 c0 -3 -4 -8 -10 -11 -5 -3 -10 -1 -10 4 0 6 5 11 10 11 6 0 10 -2
10 -4z m-1360 -16 c0 -5 -4 -10 -9 -10 -6 0 -13 5 -16 10 -3 6 1 10 9 10 9 0
16 -4 16 -10z m-20 -30 c0 -5 -4 -10 -10 -10 -5 0 -10 5 -10 10 0 6 5 10 10
10 6 0 10 -4 10 -10z m910 -32 c-25 -11 -49 -27 -53 -34 -9 -16 -27 -19 -27
-3 0 10 95 58 115 58 6 -1 -10 -10 -35 -21z m-210 -18 c0 -25 -24 -58 -39 -53
-14 4 -14 3 1 -6 20 -14 51 -3 44 15 -6 15 9 20 18 6 8 -14 -24 -52 -43 -52
-29 0 -47 28 -33 51 7 10 12 26 12 34 0 8 9 15 20 15 11 0 20 -4 20 -10z m300
-28 c0 -4 16 -8 36 -9 43 -1 51 -8 34 -28 -12 -14 -9 -15 20 -10 18 3 38 1 46
-6 17 -14 18 -60 2 -81 -22 -25 -88 -60 -104 -54 -8 3 -13 2 -10 -3 7 -10 -36
-23 -56 -17 -7 3 -29 7 -48 9 -49 7 -86 23 -93 41 -4 9 -13 16 -21 16 -15 0
-29 27 -20 41 3 5 11 9 18 9 7 0 21 9 31 20 10 11 20 18 23 15 3 -3 11 0 19 6
7 6 13 8 13 4 0 -4 7 -2 15 5 17 14 76 47 88 49 4 0 7 -3 7 -7z m273 -40 c-10
-10 -31 -36 -46 -56 -16 -21 -31 -35 -34 -33 -2 3 4 15 14 27 51 64 76 90 80
86 3 -2 -4 -13 -14 -24z m-477 -123 c10 -12 44 -34 74 -50 67 -36 27 -28 -50
9 -30 15 -56 35 -58 45 -5 23 11 22 34 -4z m-773 -104 c4 -31 3 -42 -2 -30 -4
11 -11 43 -14 70 -4 31 -3 42 2 30 4 -11 11 -42 14 -70z m1092 75 c-3 -5 -12
-10 -18 -10 -7 0 -6 4 3 10 19 12 23 12 15 0z m215 -43 c0 -2 -10 -12 -21 -23
-22 -19 -22 -19 -8 4 12 19 29 30 29 19z m-240 -31 c0 -2 -7 -7 -16 -10 -8 -3
-12 -2 -9 4 6 10 25 14 25 6z m156 -34 c-18 -16 -18 -16 -6 6 6 13 14 21 18
18 3 -4 -2 -14 -12 -24z m-246 -22 c-8 -5 -19 -10 -25 -10 -5 0 -3 5 5 10 8 5
20 10 25 10 6 0 3 -5 -5 -10z m-705 -230 c6 0 20 -8 31 -17 10 -10 32 -25 47
-33 16 -8 24 -16 19 -18 -13 -4 -130 56 -159 82 -36 31 -27 38 13 11 20 -14
42 -25 49 -25z"/>
<path d="M1380 2015 c-15 -8 -19 -14 -10 -14 18 -1 46 16 40 23 -3 2 -16 -2
-30 -9z"/>
<path d="M1855 1811 c-3 -6 4 -15 15 -21 20 -11 21 -10 10 9 -12 23 -16 25
-25 12z"/>
<path d="M1900 1791 c0 -29 -26 -43 -88 -47 -31 -3 -70 -9 -87 -14 -27 -9 -26
-10 12 -5 23 3 44 2 47 -3 9 -14 61 -12 126 6 62 18 84 39 51 50 -8 3 -11 0
-8 -5 5 -8 -8 -18 -55 -41 -5 -2 -8 2 -8 7 0 6 9 11 19 11 11 0 23 5 26 10 3
6 1 10 -4 10 -6 0 -11 9 -11 20 0 11 -4 20 -10 20 -5 0 -10 -8 -10 -19z"/>
<path d="M1768 1768 c5 -5 16 -8 23 -6 8 3 3 7 -10 11 -17 4 -21 3 -13 -5z"/>
<path d="M1997 1743 c-4 -3 -7 -11 -7 -17 0 -6 5 -5 12 2 6 6 9 14 7 17 -3 3
-9 2 -12 -2z"/>
<path d="M460 2142 c0 -10 5 -23 11 -29 18 -18 39 -3 38 26 -2 23 -2 24 -6 4
-5 -28 -23 -30 -23 -3 0 11 -4 20 -10 20 -5 0 -10 -8 -10 -18z"/>
<path d="M530 2135 c0 -18 5 -25 20 -25 15 0 20 7 20 25 0 18 -5 25 -20 25
-15 0 -20 -7 -20 -25z m30 0 c0 -8 -4 -15 -10 -15 -5 0 -10 7 -10 15 0 8 5 15
10 15 6 0 10 -7 10 -15z"/>
<path d="M590 2134 c-13 -34 -13 -39 5 -24 8 6 19 9 25 5 11 -7 13 5 4 29 -9
24 -23 19 -34 -10z"/>
<path d="M640 2135 c0 -14 5 -25 10 -25 6 0 10 11 10 25 0 14 -4 25 -10 25 -5
0 -10 -11 -10 -25z"/>
<path d="M1800 2127 c13 -14 150 -59 190 -62 l45 -4 -35 19 c-39 22 -54 25
-45 10 7 -12 3 -12 -19 -4 -9 3 -13 10 -10 15 3 5 -2 6 -10 3 -9 -3 -16 -2
-16 3 0 5 -15 10 -32 11 -18 1 -42 5 -53 8 -11 4 -18 4 -15 1z"/>
<path d="M2051 2046 c14 -12 143 -86 151 -86 20 0 -4 18 -71 53 -61 32 -94 46
-80 33z"/>
<path d="M1285 1958 c28 -20 52 -34 54 -32 7 6 -38 51 -52 51 -6 0 -21 4 -32
8 -11 5 3 -8 30 -27z"/>
<path d="M1133 1930 c-3 -10 -14 -22 -24 -25 -10 -4 -19 -13 -19 -21 0 -10 6
-8 21 7 15 15 24 18 31 11 6 -6 24 -8 41 -5 20 4 28 3 24 -4 -4 -6 1 -17 11
-24 15 -13 16 -12 3 4 -12 15 -11 17 5 17 18 1 18 1 1 11 -18 10 -18 11 0 24
16 13 15 14 -14 12 -18 -1 -33 -5 -33 -9 0 -5 -9 -8 -21 -8 -15 0 -19 5 -15
15 3 8 3 15 0 15 -3 0 -8 -9 -11 -20z"/>
<path d="M1052 1905 c-23 -26 -20 -29 13 -15 11 5 14 9 6 9 -11 1 -11 4 -1 16
21 25 5 17 -18 -10z"/>
<path d="M2060 1896 c0 -15 24 -28 34 -19 7 7 -13 33 -25 33 -5 0 -9 -6 -9
-14z"/>
<path d="M1380 1870 c6 -11 13 -20 16 -20 2 0 0 9 -6 20 -6 11 -13 20 -16 20
-2 0 0 -9 6 -20z"/>
<path d="M1020 1863 c-1 -4 -5 -27 -9 -51 -6 -30 -5 -47 4 -55 6 -7 10 -17 8
-23 -2 -6 4 -17 12 -24 14 -12 15 -10 9 15 -5 22 -4 26 6 20 9 -5 11 -4 6 4
-4 6 -12 9 -17 6 -5 -4 -9 1 -9 9 0 9 5 16 10 16 6 0 10 5 10 11 0 5 -4 7 -10
4 -13 -8 -13 28 -1 41 6 5 4 14 -5 22 -8 7 -14 9 -14 5z"/>
<path d="M1177 1851 c-3 -13 0 -18 7 -15 7 3 13 11 13 19 0 22 -14 18 -20 -4z"/>
<path d="M1228 1828 c5 -21 4 -22 -11 -9 -12 10 -17 10 -17 1 0 -6 -6 -10 -12
-7 -19 7 -48 -12 -48 -30 0 -15 2 -14 14 2 7 10 19 16 27 13 24 -9 59 10 59
32 0 11 -4 20 -9 20 -5 0 -7 -10 -3 -22z"/>
<path d="M1750 1840 c-8 -5 -10 -10 -5 -10 6 0 17 5 25 10 8 5 11 10 5 10 -5
0 -17 -5 -25 -10z"/>
<path d="M1406 1827 c3 -10 9 -15 12 -12 3 3 0 11 -7 18 -10 9 -11 8 -5 -6z"/>
<path d="M981 1814 c0 -11 3 -14 6 -6 3 7 2 16 -1 19 -3 4 -6 -2 -5 -13z"/>
<path d="M2207 1806 c-4 -10 -7 -25 -6 -34 0 -11 4 -9 10 7 5 13 8 29 6 35 -2
5 -6 2 -10 -8z"/>
<path d="M2391 1793 c7 -12 15 -20 18 -17 3 2 -3 12 -13 22 -17 16 -18 16 -5
-5z"/>
<path d="M1075 1780 c3 -5 11 -10 16 -10 6 0 7 5 4 10 -3 6 -11 10 -16 10 -6
0 -7 -4 -4 -10z"/>
<path d="M2360 1787 c0 -8 32 -67 36 -67 9 0 -8 44 -22 58 -8 7 -14 12 -14 9z"/>
<path d="M755 1770 c-14 -23 -17 -136 -6 -192 20 -93 64 -169 141 -242 83 -78
106 -92 114 -70 3 8 2 12 -4 9 -6 -3 -10 1 -10 9 0 13 -27 28 -55 31 -5 0 -9
7 -7 15 2 8 1 12 -3 8 -8 -8 -35 14 -29 23 2 4 -4 13 -13 20 -14 12 -16 12 -8
0 5 -10 4 -12 -4 -7 -6 4 -9 11 -6 16 4 7 -52 110 -61 110 -1 0 0 -10 4 -22
10 -41 -16 -9 -32 39 -23 68 -30 140 -18 203 10 56 10 70 -3 50z m79 -349 c-6
-6 -24 19 -24 34 1 6 7 1 15 -9 8 -11 12 -22 9 -25z"/>
<path d="M1110 1750 c8 -5 20 -10 25 -10 6 0 3 5 -5 10 -8 5 -19 10 -25 10 -5
0 -3 -5 5 -10z"/>
<path d="M1205 1750 c-4 -6 3 -10 14 -10 25 0 27 6 6 13 -8 4 -17 2 -20 -3z"/>
<path d="M2421 1750 c0 -8 4 -24 9 -35 5 -13 9 -14 9 -5 0 8 -4 24 -9 35 -5
13 -9 14 -9 5z"/>
<path d="M771 1663 c0 -39 3 -74 7 -77 5 -3 7 23 5 57 -6 93 -11 101 -12 20z"/>
<path d="M1070 1715 c0 -9 5 -15 11 -13 6 2 11 8 11 13 0 5 -5 11 -11 13 -6 2
-11 -4 -11 -13z"/>
<path d="M1210 1715 c0 -8 2 -15 4 -15 2 0 6 7 10 15 3 8 1 15 -4 15 -6 0 -10
-7 -10 -15z"/>
<path d="M1245 1699 c-4 -6 -5 -12 -2 -15 2 -3 7 2 10 11 7 17 1 20 -8 4z"/>
<path d="M1358 1703 c7 -3 16 -2 19 1 4 3 -2 6 -13 5 -11 0 -14 -3 -6 -6z"/>
<path d="M546 1685 c4 -8 8 -15 10 -15 2 0 4 7 4 15 0 8 -4 15 -10 15 -5 0 -7
-7 -4 -15z"/>
<path d="M1170 1689 c0 -5 5 -7 10 -4 6 3 10 8 10 11 0 2 -4 4 -10 4 -5 0 -10
-5 -10 -11z"/>
<path d="M1290 1690 c-9 -6 -10 -10 -3 -10 6 0 15 5 18 10 8 12 4 12 -15 0z"/>
<path d="M2430 1682 c0 -4 9 -13 20 -20 19 -12 20 -11 8 8 -13 20 -28 27 -28
12z"/>
<path d="M976 1645 c4 -22 12 -46 18 -54 6 -9 7 -12 1 -9 -6 4 -11 -2 -11 -13
0 -10 4 -19 9 -19 4 0 7 -7 5 -17 -2 -11 7 -19 29 -25 17 -4 41 -22 53 -38 12
-16 26 -29 33 -27 6 1 11 -4 12 -12 0 -20 33 -39 43 -25 10 16 66 28 56 13 -5
-8 -2 -10 8 -6 9 3 20 1 27 -6 6 -6 44 -12 85 -14 68 -4 76 -2 86 17 6 12 10
23 8 25 -16 14 -48 20 -73 15 -24 -6 -27 -8 -13 -14 10 -5 24 -6 31 -3 8 3 14
-1 14 -9 0 -21 -48 -31 -58 -12 -5 10 -18 14 -33 11 -13 -3 -40 3 -59 12 -33
15 -38 15 -59 1 -12 -9 -29 -16 -38 -15 -10 0 -11 2 -2 6 18 7 14 23 -6 23
-10 0 -21 3 -24 6 -11 10 4 44 20 44 8 0 12 3 8 7 -11 11 -45 13 -51 3 -3 -6
-11 -10 -17 -10 -6 0 -3 9 6 19 18 19 17 20 -28 15 -30 -3 -46 0 -46 7 0 6 9
9 20 6 11 -3 23 -1 26 4 4 8 -17 14 -38 10 -12 -2 -10 17 2 24 10 6 -4 43 -20
55 -4 3 -12 14 -19 25 -10 17 -10 14 -5 -20z"/>
<path d="M1020 1671 c0 -5 5 -13 10 -16 6 -3 10 -2 10 4 0 5 -4 13 -10 16 -5
3 -10 2 -10 -4z"/>
<path d="M1095 1660 c3 -5 8 -10 11 -10 2 0 4 5 4 10 0 6 -5 10 -11 10 -5 0
-7 -4 -4 -10z"/>
<path d="M1190 1661 c0 -6 4 -13 10 -16 6 -3 7 1 4 9 -7 18 -14 21 -14 7z"/>
<path d="M1258 1653 c7 -3 16 -2 19 1 4 3 -2 6 -13 5 -11 0 -14 -3 -6 -6z"/>
<path d="M1570 1620 c0 -5 5 -10 10 -10 6 0 10 5 10 10 0 6 -4 10 -10 10 -5 0
-10 -4 -10 -10z"/>
<path d="M2411 1618 c0 -7 4 -22 9 -33 7 -17 9 -15 9 13 1 17 -3 32 -9 32 -5
0 -10 -6 -9 -12z"/>
<path d="M2476 1617 c3 -10 9 -15 12 -12 3 3 0 11 -7 18 -10 9 -11 8 -5 -6z"/>
<path d="M1290 1610 c0 -5 5 -10 11 -10 5 0 7 5 4 10 -3 6 -8 10 -11 10 -2 0
-4 -4 -4 -10z"/>
<path d="M1210 1596 c0 -2 9 -6 20 -9 11 -3 20 -1 20 4 0 5 -9 9 -20 9 -11 0
-20 -2 -20 -4z"/>
<path d="M781 1558 c0 -7 4 -22 9 -33 8 -18 9 -17 9 7 1 15 -3 30 -9 33 -5 3
-10 0 -9 -7z"/>
<path d="M2505 1561 c-3 -5 -1 -12 5 -16 5 -3 10 1 10 9 0 18 -6 21 -15 7z"/>
<path d="M2110 1498 c-24 -28 -37 -47 -28 -42 21 13 82 84 76 89 -3 3 -24 -18
-48 -47z"/>
<path d="M1505 1520 c-3 -5 -1 -10 4 -10 6 0 11 5 11 10 0 6 -2 10 -4 10 -3 0
-8 -4 -11 -10z"/>
<path d="M2481 1514 c0 -11 3 -14 6 -6 3 7 2 16 -1 19 -3 4 -6 -2 -5 -13z"/>
<path d="M1565 1510 c-3 -5 -2 -10 4 -10 5 0 13 5 16 10 3 6 2 10 -4 10 -5 0
-13 -4 -16 -10z"/>
<path d="M2523 1502 c-7 -4 -9 -13 -4 -21 6 -9 10 -7 14 8 3 12 4 21 4 21 -1
0 -7 -4 -14 -8z"/>
<path d="M521 1484 c0 -11 3 -14 6 -6 3 7 2 16 -1 19 -3 4 -6 -2 -5 -13z"/>
<path d="M1431 1490 c-16 -9 -6 -30 14 -30 8 0 19 8 24 18 7 14 6 18 -8 19 -9
1 -23 -2 -30 -7z"/>
<path d="M1240 1476 c0 -10 28 -13 41 -5 10 6 7 9 -13 9 -16 0 -28 -2 -28 -4z"/>
<path d="M1573 1456 c4 -10 -1 -12 -16 -9 -17 5 -20 3 -10 -7 6 -7 19 -10 27
-7 18 7 22 37 5 37 -6 0 -9 -6 -6 -14z"/>
<path d="M1910 1455 c-13 -16 -8 -18 28 -9 12 4 22 10 22 15 0 15 -37 10 -50
-6z"/>
<path d="M886 1453 c-11 -11 -7 -22 17 -45 12 -13 22 -27 22 -33 0 -5 9 -11
19 -13 17 -4 17 -2 -3 27 -13 17 -26 29 -31 26 -4 -3 -6 3 -3 14 5 19 -9 36
-21 24z"/>
<path d="M1600 1452 c0 -16 28 -22 52 -12 14 5 17 9 8 10 -8 0 -25 3 -37 6
-13 4 -23 2 -23 -4z"/>
<path d="M930 1430 c6 -11 13 -20 16 -20 2 0 0 9 -6 20 -6 11 -13 20 -16 20
-2 0 0 -9 6 -20z"/>
<path d="M1693 1424 c0 -16 13 -19 21 -5 3 5 0 11 -7 14 -8 3 -14 -1 -14 -9z"/>
<path d="M2506 1415 c-20 -30 -20 -37 -18 -153 1 -58 5 -81 13 -76 8 4 9 -1 4
-17 -14 -44 -63 -99 -89 -99 -11 0 -16 -3 -13 -7 4 -3 -10 -17 -31 -31 -51
-34 -62 -50 -62 -94 0 -42 -24 -78 -52 -78 -10 0 -18 -3 -18 -7 0 -11 -51 -33
-61 -27 -5 3 -9 1 -9 -4 0 -5 -33 -10 -72 -11 -94 -2 -111 -7 -103 -33 7 -19
3 -19 -84 -16 -50 2 -91 0 -91 -4 0 -9 0 -9 113 -11 74 -2 86 0 81 13 -3 8 -6
19 -7 23 -1 4 40 9 91 11 52 2 99 9 105 15 6 6 18 11 27 11 8 1 33 16 54 34
35 30 39 39 40 82 1 47 1 48 66 91 70 47 100 75 120 113 17 32 18 198 1 228
-11 20 -10 27 5 43 9 10 15 21 12 24 -3 3 -13 -6 -22 -20z m4 -70 c0 -8 -2
-15 -4 -15 -2 0 -6 7 -10 15 -3 8 -1 15 4 15 6 0 10 -7 10 -15z"/>
<path d="M1646 1415 c4 -8 10 -12 15 -9 11 6 2 24 -11 24 -5 0 -7 -7 -4 -15z"/>
<path d="M1480 1400 c0 -13 9 -22 25 -26 35 -9 41 0 16 25 -26 26 -41 27 -41
1z"/>
<path d="M966 1370 c17 -32 137 -147 172 -163 37 -17 25 -24 -23 -13 -25 6
-41 12 -35 14 6 2 1 13 -11 23 -26 23 -33 23 -48 6 -13 -16 4 -37 29 -37 9 0
20 -4 26 -8 17 -16 97 -43 140 -47 23 -3 62 -10 86 -16 71 -18 152 -27 173
-18 16 6 12 8 -16 8 -35 1 -202 32 -244 46 -17 6 -18 5 -5 -5 13 -10 13 -11 0
-7 -8 2 -14 11 -12 21 2 9 -2 16 -9 16 -6 0 -24 14 -40 31 -16 17 -29 26 -29
20 0 -5 -38 28 -84 74 -54 54 -79 73 -70 55z m99 -150 c3 -5 -3 -10 -15 -10
-12 0 -18 5 -15 10 3 6 10 10 15 10 5 0 12 -4 15 -10z"/>
<path d="M1860 1385 c-7 -8 -22 -15 -33 -15 -15 0 -18 -3 -11 -10 11 -11 74
17 74 33 0 12 -17 8 -30 -8z"/>
<path d="M2390 1389 c0 -5 5 -7 10 -4 6 3 10 8 10 11 0 2 -4 4 -10 4 -5 0 -10
-5 -10 -11z"/>
<path d="M2600 1389 c0 -5 5 -7 10 -4 6 3 10 8 10 11 0 2 -4 4 -10 4 -5 0 -10
-5 -10 -11z"/>
<path d="M1678 1373 c7 -3 16 -2 19 1 4 3 -2 6 -13 5 -11 0 -14 -3 -6 -6z"/>
<path d="M2110 1338 c-11 -18 -20 -37 -20 -43 1 -5 6 0 13 13 7 12 16 20 19
17 3 -3 8 6 10 20 7 33 2 32 -22 -7z"/>
<path d="M2435 1344 c-16 -25 -16 -25 3 -15 11 6 22 17 26 26 9 24 -10 17 -29
-11z"/>
<path d="M1340 1340 c-12 -8 -11 -10 8 -10 12 0 22 5 22 10 0 13 -11 13 -30 0z"/>
<path d="M2347 1343 c-4 -3 -7 -11 -7 -17 0 -6 5 -5 12 2 6 6 9 14 7 17 -3 3
-9 2 -12 -2z"/>
<path d="M1497 1319 c-5 -17 -3 -18 10 -7 9 7 18 12 20 11 1 -2 9 -3 16 -2 6
0 3 4 -8 9 -30 13 -32 12 -38 -11z"/>
<path d="M1795 1330 c-3 -6 1 -7 9 -4 18 7 21 14 7 14 -6 0 -13 -4 -16 -10z"/>
<path d="M2181 1314 c0 -11 3 -14 6 -6 3 7 2 16 -1 19 -3 4 -6 -2 -5 -13z"/>
<path d="M1565 1310 c-4 -6 3 -10 14 -10 25 0 27 6 6 13 -8 4 -17 2 -20 -3z"/>
<path d="M1735 1310 c-20 -9 -20 -9 0 -9 11 0 27 4 35 9 13 9 13 10 0 9 -8 0
-24 -4 -35 -9z"/>
<path d="M1406 1301 c-3 -5 5 -8 19 -8 14 0 22 3 19 8 -3 5 -11 9 -19 9 -8 0
-16 -4 -19 -9z"/>
<path d="M1274 1274 c28 -19 41 -23 49 -15 8 8 5 11 -10 11 -11 0 -26 7 -33
15 -7 8 -20 15 -29 15 -9 0 1 -11 23 -26z"/>
<path d="M1370 1290 c0 -5 5 -10 10 -10 6 0 10 5 10 10 0 6 -4 10 -10 10 -5 0
-10 -4 -10 -10z"/>
<path d="M1618 1278 c-13 -9 -19 -20 -15 -24 4 -4 7 -3 7 3 0 6 11 8 25 5 14
-2 25 0 25 5 0 6 19 9 43 7 23 -1 32 0 19 3 -12 2 -20 7 -18 11 9 15 -65 6
-86 -10z"/>
<path d="M2394 1289 c-6 -8 -17 -38 -25 -66 -7 -29 -16 -53 -21 -53 -4 0 -8
-12 -8 -27 0 -21 10 -7 35 52 35 78 44 125 19 94z"/>
<path d="M2273 1262 c-62 -40 -65 -49 -6 -16 29 16 53 32 53 37 0 9 2 10 -47
-21z"/>
<path d="M1576 1255 c4 -8 8 -15 10 -15 2 0 4 7 4 15 0 8 -4 15 -10 15 -5 0
-7 -7 -4 -15z"/>
<path d="M1538 1253 c7 -3 16 -2 19 1 4 3 -2 6 -13 5 -11 0 -14 -3 -6 -6z"/>
<path d="M2139 1234 c-13 -15 -18 -25 -10 -22 13 4 49 48 39 48 -2 0 -15 -12
-29 -26z"/>
<path d="M2265 1210 c-33 -22 -53 -40 -44 -40 9 0 24 9 34 20 10 11 23 20 30
20 7 0 20 9 30 20 26 28 18 25 -50 -20z"/>
<path d="M958 1233 c7 -3 16 -2 19 1 4 3 -2 6 -13 5 -11 0 -14 -3 -6 -6z"/>
<path d="M2090 1230 c-9 -6 -10 -10 -3 -10 6 0 15 5 18 10 8 12 4 12 -15 0z"/>
<path d="M1308 1223 c7 -3 16 -2 19 1 4 3 -2 6 -13 5 -11 0 -14 -3 -6 -6z"/>
<path d="M2011 1199 c-24 -17 -41 -33 -38 -35 3 -3 17 6 32 20 30 28 51 33 57
14 3 -8 6 -9 11 -1 4 6 1 16 -7 22 -10 8 -23 4 -55 -20z"/>
<path d="M930 1211 c0 -12 67 -70 96 -83 15 -7 24 -20 24 -35 0 -23 23 -32 35
-13 3 5 20 1 40 -10 19 -11 35 -17 35 -14 0 6 25 -12 69 -48 31 -27 32 -28 16
-59 -15 -29 -15 -35 5 -97 26 -84 56 -110 115 -101 l40 6 -43 2 c-44 1 -81 28
-82 59 0 6 -4 12 -9 12 -6 0 -8 35 -7 79 3 78 2 81 -28 110 -43 41 -125 83
-149 75 -11 -4 -17 -2 -14 3 5 9 -49 57 -63 58 -3 0 -18 12 -34 26 l-28 27 28
-4 c24 -4 26 -3 9 5 -26 12 -55 13 -55 2z"/>
<path d="M778 1203 c7 -3 16 -2 19 1 4 3 -2 6 -13 5 -11 0 -14 -3 -6 -6z"/>
<path d="M2166 1195 c-11 -8 -16 -15 -10 -15 5 0 18 7 28 15 11 8 16 15 10 15
-5 0 -18 -7 -28 -15z"/>
<path d="M2100 1190 c0 -5 7 -7 15 -4 8 4 15 8 15 10 0 2 -7 4 -15 4 -8 0 -15
-4 -15 -10z"/>
<path d="M2460 1168 c-1 -21 -49 -69 -78 -78 -26 -8 -26 -8 -3 -9 24 -1 101
68 101 89 0 15 -20 12 -20 -2z"/>
<path d="M2132 1153 c-24 -8 -41 -17 -38 -20 5 -6 76 17 91 29 13 12 -3 9 -53
-9z"/>
<path d="M2040 1140 c-19 -10 -73 -25 -120 -34 -98 -17 -342 -31 -322 -18 10
7 5 9 -15 9 -15 0 -39 3 -51 6 -20 5 -22 4 -12 -8 6 -8 35 -19 64 -25 61 -13
258 -9 268 4 4 6 14 4 24 -5 10 -8 15 -9 11 -3 -7 11 33 24 74 24 31 0 22 -20
-36 -76 -56 -55 -108 -88 -119 -77 -3 4 -6 0 -6 -8 0 -35 -129 -129 -177 -129
-23 0 -85 63 -107 110 -13 26 -21 59 -19 76 3 22 -3 38 -22 58 -23 25 -25 26
-25 6 0 -11 7 -23 16 -27 13 -5 15 -14 10 -44 -3 -22 -2 -39 3 -39 5 0 14 -14
20 -32 16 -46 54 -90 95 -112 l36 -19 52 24 c28 13 72 44 97 69 25 25 64 57
86 71 42 28 115 97 115 110 0 4 27 30 61 58 62 52 62 63 -1 31z"/>
<path d="M1230 1133 c0 -21 28 -46 44 -40 9 4 46 0 82 -9 37 -8 71 -13 78 -10
6 2 1 5 -11 5 -13 1 -23 5 -23 10 0 6 -8 10 -17 9 -43 -1 -120 16 -135 30 -10
8 -18 11 -18 5z"/>
<path d="M2602 930 c0 -19 2 -27 5 -17 2 9 2 25 0 35 -3 9 -5 1 -5 -18z"/>
<path d="M1601 914 c0 -11 3 -14 6 -6 3 7 2 16 -1 19 -3 4 -6 -2 -5 -13z"/>
<path d="M2448 853 c7 -3 16 -2 19 1 4 3 -2 6 -13 5 -11 0 -14 -3 -6 -6z"/>
<path d="M1783 784 c2 -16 -7 -20 -53 -25 -56 -6 -50 -10 17 -11 41 -1 67 22
46 43 -8 8 -11 6 -10 -7z"/>
<path d="M2235 790 c-3 -5 -1 -10 4 -10 6 0 11 5 11 10 0 6 -2 10 -4 10 -3 0
-8 -4 -11 -10z"/>
<path d="M1558 763 c-21 -2 -38 -8 -38 -12 0 -10 69 -1 76 10 3 5 4 8 2 7 -2
-1 -20 -3 -40 -5z"/>
<path d="M1455 749 c18 -5 33 -5 39 1 7 7 -4 10 -29 9 -40 -1 -40 -1 -10 -10z"/>
<path d="M2044 733 c10 -11 36 -12 36 -2 0 5 -10 9 -22 9 -12 0 -18 -3 -14 -7z"/>
<path d="M1043 633 c251 -2 663 -2 915 0 251 1 45 2 -458 2 -503 0 -709 -1
-457 -2z"/>
<path d="M2701 514 c0 -11 3 -14 6 -6 3 7 2 16 -1 19 -3 4 -6 -2 -5 -13z"/>
<path d="M510 430 l0 -60 46 0 c25 0 43 4 39 9 -3 5 -19 8 -35 6 l-30 -4 0 54
c0 30 -4 55 -10 55 -6 0 -10 -27 -10 -60z"/>
<path d="M879 488 c-4 -22 -2 -118 4 -118 4 0 7 27 7 60 0 33 -2 60 -5 60 -3
0 -5 -1 -6 -2z"/>
<path d="M964 476 c-11 -8 -15 -18 -10 -23 5 -4 11 -2 13 5 3 6 13 12 24 12
29 0 23 -35 -11 -63 -16 -14 -30 -28 -30 -31 0 -3 18 -6 41 -6 22 0 38 4 35 9
-3 4 -18 6 -33 3 l-28 -5 33 32 c36 37 38 43 16 65 -19 20 -25 20 -50 2z"/>
<path d="M1050 475 c-7 -9 -9 -19 -5 -23 4 -4 10 -1 12 6 7 18 43 15 43 -4 0
-9 -13 -29 -30 -44 -16 -15 -30 -31 -30 -34 0 -3 18 -6 41 -6 24 0 38 4 34 10
-3 6 -18 7 -33 3 l-27 -6 33 37 c37 43 37 40 16 60 -20 20 -38 20 -54 1z"/>
<path d="M1202 474 c-26 -18 -30 -65 -6 -88 18 -18 60 -21 69 -6 4 7 -2 9 -18
5 -42 -11 -75 43 -45 73 7 7 21 12 33 12 12 0 26 -5 33 -12 9 -9 12 -9 12 0 0
11 -30 32 -47 32 -5 0 -19 -7 -31 -16z"/>
<path d="M1392 430 c1 -33 5 -60 10 -60 4 0 8 27 8 60 0 33 -4 60 -10 60 -5 0
-8 -27 -8 -60z"/>
<path d="M1570 474 c0 -8 5 -12 10 -9 6 3 10 10 10 16 0 5 -4 9 -10 9 -5 0
-10 -7 -10 -16z"/>
<path d="M1753 483 c-25 -9 -14 -44 17 -54 17 -6 30 -17 30 -24 0 -20 -28 -26
-45 -8 -21 20 -29 12 -11 -12 19 -27 66 -13 66 19 0 18 -8 27 -30 35 -16 5
-30 15 -30 20 0 15 47 14 53 -1 4 -8 6 -7 6 3 1 23 -27 34 -56 22z"/>
<path d="M2047 483 c-10 -19 -8 -113 2 -113 6 0 11 19 11 43 l1 42 26 -44 26
-43 24 46 c13 25 25 46 27 46 2 0 1 -20 -2 -45 -3 -30 -1 -45 7 -45 7 0 11 22
11 60 0 33 -3 60 -7 60 -5 0 -20 -21 -34 -46 l-26 -47 -28 47 c-28 48 -31 51
-38 39z"/>
<path d="M2396 481 c-4 -7 -5 -15 -2 -18 9 -9 19 4 14 18 -4 11 -6 11 -12 0z"/>
<path d="M2337 460 c-3 -11 -1 -20 5 -20 5 0 7 -8 4 -18 -7 -21 19 -61 31 -48
4 5 2 11 -4 13 -7 3 -13 15 -13 28 0 13 6 26 13 28 10 4 10 6 0 6 -7 1 -13 8
-13 16 0 22 -17 18 -23 -5z"/>
<path d="M803 453 c-24 -9 -13 -23 12 -17 15 4 25 2 25 -4 0 -6 -10 -12 -22
-14 -15 -2 -23 -10 -23 -23 0 -15 7 -20 32 -22 31 -1 31 0 26 35 -7 45 -21 57
-50 45z m37 -52 c0 -11 -26 -22 -34 -14 -12 12 -5 23 14 23 11 0 20 -4 20 -9z"/>
<path d="M1323 453 c-23 -9 -14 -20 12 -15 15 2 25 0 25 -7 0 -6 -12 -11 -26
-11 -21 0 -25 -4 -22 -22 2 -18 10 -23 35 -25 31 -1 31 0 26 35 -7 45 -21 57
-50 45z m27 -58 c-12 -15 -30 -12 -30 6 0 5 10 9 21 9 18 0 19 -2 9 -15z"/>
<path d="M1528 453 c-14 -3 -18 -15 -18 -44 0 -21 5 -39 10 -39 6 0 10 15 10
34 0 25 5 36 18 38 9 2 13 6 7 9 -5 3 -18 4 -27 2z"/>
<path d="M1613 453 c-24 -9 -13 -23 12 -17 15 4 25 2 25 -4 0 -6 -10 -12 -22
-14 -15 -2 -23 -10 -23 -23 0 -15 7 -20 32 -22 31 -1 31 0 26 35 -7 45 -21 57
-50 45z m37 -52 c0 -11 -26 -22 -34 -14 -12 12 -5 23 14 23 11 0 20 -4 20 -9z"/>
<path d="M1839 444 c-11 -13 -9 -14 14 -9 16 5 27 3 27 -3 0 -6 -10 -12 -22
-14 -15 -2 -23 -10 -23 -23 0 -16 7 -20 32 -20 30 -1 32 1 29 33 -4 47 -33 65
-57 36z m41 -43 c0 -12 -28 -22 -34 -12 -3 5 -3 11 1 15 9 9 33 7 33 -3z"/>
<path d="M2199 444 c-11 -13 -9 -14 14 -9 16 5 27 3 27 -3 0 -6 -10 -12 -22
-14 -15 -2 -23 -10 -23 -23 0 -16 7 -20 36 -21 34 -1 35 0 31 30 -8 54 -36 72
-63 40z m51 -39 c0 -2 -9 -9 -20 -15 -16 -9 -20 -8 -20 5 0 8 9 15 20 15 11 0
20 -2 20 -5z"/>
<path d="M2282 410 c1 -37 2 -39 5 -12 3 18 11 36 19 39 21 8 17 19 -6 19 -17
0 -20 -6 -18 -46z"/>
<path d="M617 443 c-11 -11 -8 -48 5 -61 30 -30 75 0 64 43 -5 19 -13 25 -35
25 -15 0 -31 -3 -34 -7z m57 -20 c4 -9 0 -23 -9 -32 -13 -14 -17 -14 -31 1 -9
9 -14 24 -11 32 8 21 43 20 51 -1z"/>
<path d="M707 443 c-12 -12 -7 -50 8 -63 17 -14 47 -10 53 8 3 11 0 12 -16 3
-24 -13 -48 9 -38 35 5 12 14 15 37 10 18 -3 28 -2 24 4 -7 11 -58 14 -68 3z"/>
<path d="M1424 425 c-4 -15 -1 -32 6 -40 15 -18 46 -20 56 -3 5 7 0 9 -14 6
-12 -4 -26 0 -33 8 -9 12 -5 14 26 14 30 0 36 3 31 16 -3 9 -6 18 -6 20 0 2
-13 4 -30 4 -23 0 -31 -5 -36 -25z m61 5 c4 -6 -7 -10 -25 -10 -18 0 -29 4
-25 10 3 6 15 10 25 10 10 0 22 -4 25 -10z"/>
<path d="M1573 410 c0 -25 2 -35 4 -22 2 12 2 32 0 45 -2 12 -4 2 -4 -23z"/>
<path d="M1921 405 l2 -40 6 35 c9 50 41 55 41 6 0 -20 5 -36 11 -36 6 0 8 7
5 16 -3 9 -6 27 -6 40 0 21 -4 24 -30 22 -28 -2 -30 -5 -29 -43z"/>
<path d="M2390 410 c0 -22 5 -40 10 -40 6 0 10 18 10 40 0 22 -4 40 -10 40 -5
0 -10 -18 -10 -40z"/>
<path d="M2421 406 c1 -28 3 -33 6 -16 11 56 43 67 43 15 0 -19 5 -35 11 -35
6 0 9 16 7 38 -3 34 -5 37 -35 38 -32 1 -33 0 -32 -40z"/>
<path d="M1230 430 c0 -5 12 -10 26 -10 14 0 22 -4 19 -10 -3 -5 -1 -18 4 -27
8 -15 10 -11 11 20 0 35 -2 37 -30 37 -16 0 -30 -4 -30 -10z"/>
<path d="M293 295 c0 -33 2 -45 4 -27 2 18 2 45 0 60 -2 15 -4 0 -4 -33z"/>
<path d="M2700 310 c0 -5 5 -10 11 -10 5 0 7 5 4 10 -3 6 -8 10 -11 10 -2 0
-4 -4 -4 -10z"/>
<path d="M2702 250 c0 -14 2 -19 5 -12 2 6 2 18 0 25 -3 6 -5 1 -5 -13z"/>
<path d="M1236 244 c-20 -19 -21 -68 -2 -83 20 -16 78 -10 84 9 4 12 2 13 -9
3 -33 -32 -86 -3 -75 41 7 29 37 41 65 27 29 -16 39 -13 17 4 -26 19 -61 19
-80 -1z"/>
<path d="M1365 250 c-3 -5 -2 -10 4 -10 5 0 13 5 16 10 3 6 2 10 -4 10 -5 0
-13 -4 -16 -10z"/>
<path d="M1545 240 c6 -18 3 -20 -18 -15 -19 5 -28 2 -37 -14 -15 -29 2 -58
40 -63 l30 -5 0 59 c0 34 -4 58 -11 58 -6 0 -8 -9 -4 -20z m-5 -56 c0 -19 -5
-25 -17 -22 -22 4 -30 38 -12 49 19 11 29 2 29 -27z"/>
<path d="M1660 204 l0 -55 31 3 c60 6 66 75 6 71 -20 -1 -24 2 -20 18 3 10 0
19 -6 19 -7 0 -11 -21 -11 -56z m60 -20 c0 -19 -5 -25 -17 -22 -22 4 -30 38
-12 49 19 11 29 2 29 -27z"/>
<path d="M1346 214 c-19 -18 -19 -20 -6 -45 14 -25 56 -25 70 0 5 11 10 22 10
25 0 10 -32 36 -45 36 -7 0 -21 -7 -29 -16z m52 -28 c-2 -13 -10 -21 -23 -21
-23 0 -33 34 -14 45 20 13 40 -1 37 -24z"/>
<path d="M1432 180 c1 -43 2 -44 5 -7 3 24 9 37 19 37 8 0 14 4 14 9 0 6 -9 9
-20 8 -17 -1 -20 -8 -18 -47z"/>
<path d="M1580 215 c-7 -9 -10 -25 -6 -40 6 -22 11 -26 39 -23 25 2 33 8 35
26 7 44 -41 70 -68 37z m57 -39 c-8 -21 -43 -20 -51 1 -10 26 23 48 42 29 8
-8 12 -22 9 -30z"/>
<path d="M1757 223 c-15 -14 -6 -23 12 -13 24 12 31 13 31 1 0 -5 -12 -12 -26
-15 -40 -10 -28 -41 17 -42 34 -2 36 0 31 25 -3 14 -9 32 -15 39 -10 13 -39
16 -50 5z m47 -48 c-4 -8 -12 -15 -20 -15 -17 0 -18 17 -1 23 22 9 27 7 21 -8z"/>
<path d="M260 211 c-32 -3 -33 -4 -10 -10 20 -6 26 -15 32 -50 5 -28 17 -53
37 -71 16 -16 27 -31 24 -34 -3 -3 3 -6 13 -7 11 -1 530 -3 1154 -3 1128 -1
1135 -1 1155 19 27 28 55 90 55 122 0 21 4 25 24 21 14 -3 30 -2 37 2 6 4 -9
9 -35 11 l-46 4 0 -37 c0 -54 -15 -85 -52 -108 -33 -20 -48 -20 -1160 -18
l-1128 3 -26 26 c-19 20 -28 41 -33 80 l-6 54 -35 -4z"/>
</g>
</svg>
