<?xml version="1.0" standalone="no"?>
<!DOCTYPE svg PUBLIC "-//W3C//DTD SVG 20010904//EN"
 "http://www.w3.org/TR/2001/REC-SVG-20010904/DTD/svg10.dtd">
<svg version="1.0" xmlns="http://www.w3.org/2000/svg"
 width="300.000000pt" height="300.000000pt" viewBox="0 0 300.000000 300.000000"
 preserveAspectRatio="xMidYMid meet">
<metadata>
Created by potrace 1.10, written by Peter Selinger 2001-2011
</metadata>
<g transform="translate(0.000000,300.000000) scale(0.100000,-0.100000)"
fill="#000000" stroke="none">
<path d="M20 1495 l0 -1485 1485 0 1485 0 0 1485 0 1485 -1485 0 -1485 0 0
-1485z m2950 6 c3 -805 2 -1465 -2 -1467 -4 -3 -665 -4 -1470 -4 l-1463 0 -3
1447 c-1 797 0 1457 2 1468 5 20 13 20 1468 19 l1463 0 5 -1463z"/>
<path d="M488 2787 c-82 -35 -130 -77 -169 -149 -31 -58 -34 -70 -33 -153 0
-112 21 -163 98 -240 70 -70 159 -101 271 -92 278 21 405 340 221 554 -57 65
-131 97 -240 100 -78 3 -99 0 -148 -20z m290 -28 c105 -52 165 -149 166 -269
1 -89 -28 -162 -89 -222 -61 -60 -117 -82 -218 -86 -109 -5 -170 15 -240 78
-71 63 -97 124 -97 226 0 99 28 162 101 228 65 58 113 74 225 75 82 1 97 -2
152 -30z"/>
<path d="M485 2746 c-106 -49 -165 -142 -165 -261 0 -90 29 -155 95 -213 114
-100 318 -96 423 9 60 60 85 120 85 206 0 61 -4 82 -29 130 -33 64 -101 123
-164 142 -67 20 -188 14 -245 -13z m271 -30 c113 -59 172 -201 130 -315 -10
-29 -13 -31 -25 -17 -7 9 -10 16 -7 16 4 0 1 7 -8 15 -8 8 -22 15 -30 15 -9 0
-16 5 -16 10 0 6 -11 10 -24 10 -14 0 -28 5 -31 10 -3 6 1 10 9 10 9 0 16 4
16 10 0 5 11 12 24 16 14 3 32 17 41 30 14 21 14 28 1 59 -8 19 -22 35 -30 35
-8 0 -16 6 -19 13 -3 10 -9 10 -26 0 -31 -19 -50 -16 -46 6 10 53 -67 86 -131
56 -20 -9 -44 -15 -54 -12 -13 3 -25 -3 -35 -19 -8 -13 -20 -24 -26 -24 -5 0
-25 -10 -42 -22 -26 -18 -32 -29 -30 -52 2 -30 29 -67 47 -65 24 3 37 -1 32
-10 -4 -5 -20 -7 -37 -4 -36 5 -71 -20 -68 -51 1 -12 1 -28 0 -36 -3 -25 -18
9 -26 57 -7 46 16 146 41 174 8 9 11 19 7 23 -4 4 0 4 10 0 11 -4 17 -1 17 9
0 16 41 47 63 47 8 0 20 6 27 14 28 35 174 30 246 -8z m-73 -42 c11 -4 6 -24
-26 -102 -21 -53 -40 -98 -41 -99 -3 -4 -189 68 -198 76 -5 4 4 21 20 39 l27
32 65 -59 c36 -33 69 -60 74 -61 5 0 7 41 4 90 l-4 90 32 0 c18 0 39 -2 47 -6z
m-129 -10 c21 -8 21 -43 0 -51 -8 -3 -23 1 -31 10 -13 13 -14 19 -3 31 14 18
13 18 34 10z m256 -86 l18 -31 -86 -42 c-98 -48 -101 -40 29 -85 71 -25 75
-32 39 -79 l-18 -25 -81 73 -81 73 71 79 c39 43 76 76 81 73 5 -4 18 -20 28
-36z m-230 -4 c0 -8 -4 -12 -10 -9 -5 3 -10 13 -10 21 0 8 5 12 10 9 6 -3 10
-13 10 -21z m137 20 c-3 -3 -12 -4 -19 -1 -8 3 -5 6 6 6 11 1 17 -2 13 -5z
m-144 -140 l37 -7 0 -105 0 -105 -37 6 c-20 4 -40 10 -45 15 -5 5 7 43 27 87
20 42 34 80 31 82 -3 3 -42 -9 -87 -26 -85 -31 -98 -30 -99 11 0 9 -3 23 -6
32 -5 14 4 16 67 16 41 0 91 -3 112 -6z m122 -89 c28 -33 53 -61 57 -63 18 -8
5 -24 -34 -42 -24 -11 -48 -20 -54 -20 -7 0 -16 36 -23 88 -13 105 -14 119 -3
107 4 -6 30 -37 57 -70z m-165 -6 c-5 -13 -14 -31 -19 -39 -6 -8 -12 -27 -16
-42 -9 -44 -20 -39 -92 46 -13 14 -22 26 -20 26 1 1 29 3 62 5 33 3 66 11 74
20 20 19 24 13 11 -16z m300 -49 c-12 -16 -29 -30 -38 -30 -12 0 -6 9 18 30
44 37 47 37 20 0z"/>
<path d="M230 2788 c0 -5 48 -8 107 -8 58 0 103 3 100 7 -10 9 -207 10 -207 1z"/>
<path d="M885 2789 c-44 -3 366 -6 912 -7 545 -1 994 1 996 6 6 8 -1788 10
-1908 1z"/>
<path d="M201 1501 c-1 -1073 1 -1280 12 -1290 11 -8 347 -10 1293 -8 l1279 2
-1282 3 -1283 2 0 1279 c0 758 -4 1282 -9 1285 -6 4 -10 -507 -10 -1273z"/>
<path d="M2788 2653 c-5 -192 1 -2445 7 -2451 3 -3 5 574 5 1281 0 708 -2
1287 -4 1287 -2 0 -6 -53 -8 -117z"/>
<path d="M2293 2593 c15 -2 39 -2 55 0 15 2 2 4 -28 4 -30 0 -43 -2 -27 -4z"/>
<path d="M986 2554 c-5 -12 120 -14 854 -14 l860 0 0 -1040 0 -1040 -167 -1
c-251 0 -303 -3 -303 -12 0 -5 -15 -5 -32 -2 -19 4 -29 4 -25 -1 11 -11 298
-13 291 -2 -3 4 5 4 18 -1 22 -8 168 -8 198 0 26 7 41 37 40 81 -1 24 -1 484
-1 1022 1 701 -2 983 -10 993 -6 7 -18 13 -25 13 -8 0 -14 4 -14 9 0 5 -365 9
-839 9 -712 0 -840 -2 -845 -14z"/>
<path d="M1318 2453 c12 -2 30 -2 40 0 9 3 -1 5 -23 4 -22 0 -30 -2 -17 -4z"/>
<path d="M1453 2453 c15 -2 39 -2 55 0 15 2 2 4 -28 4 -30 0 -43 -2 -27 -4z"/>
<path d="M1223 2443 c9 -2 23 -2 30 0 6 3 -1 5 -18 5 -16 0 -22 -2 -12 -5z"/>
<path d="M1557 2444 c7 -3 9 -12 6 -20 -4 -10 0 -12 11 -8 22 8 15 28 -10 31
-10 2 -14 0 -7 -3z"/>
<path d="M1078 2423 c7 -3 16 -2 19 1 4 3 -2 6 -13 5 -11 0 -14 -3 -6 -6z"/>
<path d="M1555 2391 l20 -24 -30 19 c-26 17 -28 17 -22 2 5 -13 0 -19 -16 -22
-12 -3 -53 -12 -90 -21 -38 -9 -71 -14 -74 -11 -3 3 0 8 8 10 38 12 41 16 9
11 -94 -15 -205 -25 -305 -27 l-110 -2 80 -5 c113 -8 270 -2 292 12 7 4 14 4
17 -1 2 -4 -10 -16 -29 -26 -71 -39 -46 -69 75 -90 86 -15 118 -9 91 17 -11
10 -13 10 -7 0 8 -15 -10 -18 -18 -4 -4 5 -25 13 -49 17 -47 9 -43 9 -77 0
-24 -7 -24 -6 -6 8 11 9 16 19 13 23 -4 3 -13 -2 -21 -12 -9 -13 -15 -15 -20
-6 -5 7 -6 13 -5 15 44 32 69 44 85 42 10 -2 21 0 24 5 6 8 141 38 205 45 22
2 56 6 76 9 52 6 386 6 434 0 61 -8 157 -16 183 -16 12 1 22 -4 22 -10 0 -5 5
-7 10 -4 21 13 -1 22 -83 34 -107 16 -433 21 -554 9 -81 -8 -96 -7 -120 9
l-28 17 20 -23z"/>
<path d="M1455 2380 c-25 -11 1 -11 35 0 20 6 21 8 5 8 -11 0 -29 -3 -40 -8z"/>
<path d="M1408 2363 c7 -3 16 -2 19 1 4 3 -2 6 -13 5 -11 0 -14 -3 -6 -6z"/>
<path d="M2348 2353 c6 -2 10 -9 6 -14 -3 -5 0 -8 7 -7 6 2 14 -3 16 -9 3 -7
-2 -13 -11 -13 -9 0 -16 -5 -16 -11 0 -6 -7 -8 -16 -5 -10 4 -13 2 -8 -6 5 -7
0 -9 -14 -6 -12 4 -20 3 -17 -2 5 -9 -29 -20 -62 -20 -13 0 -23 -4 -23 -9 0
-12 35 -6 112 16 31 9 55 20 53 24 -3 4 2 9 10 13 8 3 15 11 15 17 0 15 -31
38 -50 38 -10 0 -11 -2 -2 -6z"/>
<path d="M1780 2322 c0 -13 -4 -20 -10 -17 -5 3 -10 1 -10 -4 0 -15 15 -14 28
2 7 8 7 18 2 27 -8 12 -10 10 -10 -8z"/>
<path d="M2020 2319 c0 -5 5 -7 10 -4 6 3 10 8 10 11 0 2 -4 4 -10 4 -5 0 -10
-5 -10 -11z"/>
<path d="M1860 2300 c-1 -14 -2 -33 -1 -42 2 -14 -6 -18 -36 -19 l-38 -2 40
-6 c22 -4 43 -4 46 -1 4 3 3 25 -1 50 -5 30 -8 37 -10 20z"/>
<path d="M1536 2301 c-3 -5 1 -14 8 -20 12 -10 13 -8 9 8 -6 23 -9 25 -17 12z"/>
<path d="M1683 2303 c-36 -7 -26 -18 17 -20 28 -1 40 3 40 13 0 14 -13 15 -57
7z"/>
<path d="M2141 2293 c-19 -21 -1 -36 30 -24 16 7 18 10 7 10 -9 1 -18 7 -20
15 -2 12 -5 12 -17 -1z"/>
<path d="M1970 2289 c0 -5 5 -7 10 -4 6 3 10 1 10 -4 0 -6 -4 -11 -10 -11 -5
0 -10 -7 -10 -16 0 -14 -1 -14 -16 0 -20 20 -25 20 -17 0 5 -13 2 -15 -15 -10
-12 4 -23 2 -28 -5 -5 -9 9 -11 56 -6 34 3 66 11 70 17 6 9 9 9 12 -1 3 -8 9
-11 13 -6 5 4 4 12 -3 19 -8 8 -15 8 -27 -2 -15 -13 -19 -8 -16 23 1 9 -4 17
-13 17 -9 0 -16 -5 -16 -11z"/>
<path d="M1798 2283 c7 -3 16 -2 19 1 4 3 -2 6 -13 5 -11 0 -14 -3 -6 -6z"/>
<path d="M1886 2275 c-3 -8 -1 -15 3 -15 5 0 11 7 15 15 3 8 1 15 -3 15 -5 0
-11 -7 -15 -15z"/>
<path d="M1928 2283 c6 -2 18 -2 25 0 6 3 1 5 -13 5 -14 0 -19 -2 -12 -5z"/>
<path d="M2050 2270 c6 -11 16 -20 22 -20 6 0 3 9 -7 20 -10 11 -20 20 -22 20
-2 0 1 -9 7 -20z"/>
<path d="M2087 2283 c-8 -7 3 -33 15 -33 5 0 7 4 4 9 -4 5 -1 11 6 13 8 3 6 6
-4 10 -9 4 -18 4 -21 1z"/>
<path d="M1640 2248 c0 -23 3 -29 9 -19 8 12 4 51 -5 51 -2 0 -4 -15 -4 -32z"/>
<path d="M1723 2254 c-9 -23 10 -36 37 -26 16 6 20 11 11 16 -6 4 -18 2 -26
-4 -12 -10 -15 -9 -15 3 0 9 10 18 23 20 l22 4 -23 2 c-12 0 -25 -6 -29 -15z"/>
<path d="M1686 2235 c-3 -9 0 -15 9 -15 16 0 20 16 6 24 -5 3 -11 -1 -15 -9z"/>
<path d="M2145 2240 c-27 -7 -26 -7 8 -5 26 2 37 0 34 -8 -2 -7 6 -23 19 -37
13 -13 24 -21 24 -17 0 5 -7 16 -16 25 -11 10 -13 17 -5 20 7 2 6 8 -3 18 -16
15 -16 15 -61 4z"/>
<path d="M1220 2214 c-11 -27 -13 -51 -5 -42 8 8 25 68 19 68 -2 0 -9 -12 -14
-26z"/>
<path d="M2250 2236 c0 -2 7 -7 16 -10 8 -3 12 -2 9 4 -6 10 -25 14 -25 6z"/>
<path d="M1262 2210 c-17 -27 -15 -35 4 -16 8 9 14 21 12 26 -2 6 -9 1 -16
-10z"/>
<path d="M2109 2216 c-9 -9 -104 -15 -304 -21 -159 -5 -206 -4 -195 5 16 12 9
11 -46 -4 -12 -4 -33 -2 -47 3 -17 7 -28 7 -32 1 -4 -6 8 -13 25 -17 l32 -6
-6 -61 c-4 -34 -13 -66 -22 -72 -20 -16 -17 -24 10 -24 31 0 54 26 37 43 -10
9 -11 8 -6 -4 4 -10 1 -20 -6 -24 -9 -6 -10 7 -5 56 9 76 23 95 63 84 38 -11
153 -12 159 -3 3 5 12 1 21 -8 11 -11 18 -12 23 -4 4 6 14 8 23 4 10 -3 17 -1
17 5 0 6 7 11 16 11 9 0 12 -5 8 -12 -5 -8 -2 -9 12 -3 10 5 43 10 73 11 29 2
56 6 59 9 3 2 11 0 19 -6 10 -9 13 -8 13 2 0 9 13 15 35 17 32 2 36 -1 41 -28
7 -31 18 -38 30 -18 4 6 3 8 -3 5 -6 -4 -13 3 -16 15 -7 27 1 38 13 18 7 -11
9 -9 7 8 -1 15 -8 22 -22 22 -12 0 -24 -2 -26 -4z"/>
<path d="M2265 2176 c0 -13 3 -22 8 -19 4 2 7 13 7 24 0 10 -3 19 -7 19 -5 0
-8 -11 -8 -24z"/>
<path d="M1400 2158 c0 -12 3 -17 8 -12 4 5 11 12 15 15 5 3 2 9 -7 12 -12 5
-16 0 -16 -15z"/>
<path d="M2081 2170 c0 -8 4 -24 9 -35 5 -13 9 -14 9 -5 0 8 -4 24 -9 35 -5
13 -9 14 -9 5z"/>
<path d="M1510 2155 c0 -8 4 -15 8 -15 5 0 9 7 9 15 0 8 -4 15 -9 15 -4 0 -8
-7 -8 -15z"/>
<path d="M1197 2128 c-3 -18 -10 -45 -16 -61 -9 -23 -15 -27 -38 -22 l-28 5
28 -11 c15 -6 27 -16 27 -22 0 -7 3 -7 9 -1 10 11 36 133 29 140 -3 2 -8 -10
-11 -28z"/>
<path d="M1431 2147 c-8 -10 -7 -14 4 -14 8 0 15 6 15 14 0 7 -2 13 -4 13 -2
0 -9 -6 -15 -13z"/>
<path d="M2204 2146 c-3 -8 -1 -23 5 -33 9 -15 10 -13 5 11 -5 21 -4 27 5 22
6 -4 11 -2 11 3 0 16 -20 13 -26 -3z"/>
<path d="M2280 2141 c0 -5 7 -11 14 -14 10 -4 13 -1 9 9 -6 15 -23 19 -23 5z"/>
<path d="M1351 2124 c0 -11 3 -14 6 -6 3 7 2 16 -1 19 -3 4 -6 -2 -5 -13z"/>
<path d="M1897 2120 c-3 -11 -1 -20 4 -20 5 0 9 9 9 20 0 11 -2 20 -4 20 -2 0
-6 -9 -9 -20z"/>
<path d="M1956 2124 c-4 -9 -4 -19 -1 -22 2 -3 7 3 11 12 4 9 4 19 1 22 -2 3
-7 -3 -11 -12z"/>
<path d="M2037 2133 c-4 -3 -7 -11 -7 -17 0 -6 5 -4 10 4 8 13 10 12 10 -2 0
-10 6 -18 14 -18 8 0 17 -6 19 -12 4 -10 6 -10 6 0 1 7 -6 15 -14 18 -8 4 -15
12 -15 20 0 15 -12 19 -23 7z"/>
<path d="M440 2106 c0 -23 23 -56 39 -56 4 0 12 5 19 12 14 14 16 68 2 68 -5
0 -10 -13 -10 -30 0 -20 -5 -30 -15 -30 -10 0 -15 10 -15 30 0 17 -4 30 -10
30 -5 0 -10 -11 -10 -24z"/>
<path d="M530 2095 c0 -30 3 -35 24 -35 16 0 27 7 31 20 8 25 -10 50 -36 50
-15 0 -19 -7 -19 -35z m40 -5 c0 -11 -7 -20 -15 -20 -8 0 -15 9 -15 20 0 11 7
20 15 20 8 0 15 -9 15 -20z"/>
<path d="M611 2099 c-15 -45 -14 -51 9 -37 17 11 22 10 29 -1 15 -24 19 3 5
37 -18 40 -29 41 -43 1z m25 -16 c-10 -10 -19 5 -10 18 6 11 8 11 12 0 2 -7 1
-15 -2 -18z"/>
<path d="M680 2089 c0 -24 4 -38 10 -34 6 3 10 22 10 41 0 19 -4 34 -10 34 -5
0 -10 -18 -10 -41z"/>
<path d="M720 2115 c-10 -12 -10 -21 -2 -40 13 -29 34 -32 53 -9 11 13 9 14
-14 9 -23 -6 -27 -4 -27 15 0 19 4 21 25 16 27 -7 35 8 9 18 -23 9 -30 8 -44
-9z"/>
<path d="M1500 2115 c-6 -7 -13 -22 -14 -32 -2 -10 -10 -17 -19 -17 -9 1 -15
-6 -14 -16 2 -27 36 -12 43 19 3 14 9 34 15 44 11 21 6 22 -11 2z"/>
<path d="M1588 2113 c12 -8 22 -21 22 -29 0 -8 6 -11 16 -7 13 5 12 9 -7 29
-12 13 -30 24 -38 23 -12 0 -10 -4 7 -16z"/>
<path d="M1657 2123 c-4 -3 -7 -11 -7 -17 0 -6 5 -5 12 2 6 6 9 14 7 17 -3 3
-9 2 -12 -2z"/>
<path d="M1726 2115 c-9 -26 -7 -32 5 -12 6 10 9 21 6 23 -2 3 -7 -2 -11 -11z"/>
<path d="M1420 2105 c-7 -9 -11 -18 -8 -20 3 -3 11 1 18 10 7 9 11 18 8 20 -3
3 -11 -1 -18 -10z"/>
<path d="M1671 2098 c-13 -21 -13 -22 2 -10 9 8 21 11 26 7 7 -3 8 0 5 9 -8
22 -17 20 -33 -6z"/>
<path d="M1780 2110 c18 -12 30 -13 30 -2 0 4 -10 9 -22 9 -18 2 -20 0 -8 -7z"/>
<path d="M2135 2087 c3 -27 -1 -43 -13 -55 -9 -10 -19 -27 -20 -37 -4 -20 -3
-20 15 0 26 27 33 57 22 97 l-9 33 5 -38z"/>
<path d="M2272 2108 c2 -6 10 -14 16 -16 7 -2 10 2 6 12 -7 18 -28 22 -22 4z"/>
<path d="M2329 2085 c17 -34 31 -51 31 -39 0 7 -9 22 -21 35 -16 19 -18 20
-10 4z"/>
<path d="M1511 2074 c0 -11 3 -14 6 -6 3 7 2 16 -1 19 -3 4 -6 -2 -5 -13z"/>
<path d="M1920 2085 c0 -2 7 -8 15 -15 12 -10 15 -10 15 2 0 8 -7 15 -15 15
-8 0 -15 -1 -15 -2z"/>
<path d="M2040 2078 c0 -9 5 -20 10 -23 13 -8 13 5 0 25 -8 13 -10 13 -10 -2z"/>
<path d="M1303 2030 c0 -30 2 -43 4 -27 2 15 2 39 0 55 -2 15 -4 2 -4 -28z"/>
<path d="M1745 2069 c-11 -16 -1 -19 13 -3 7 8 8 14 3 14 -5 0 -13 -5 -16 -11z"/>
<path d="M2270 2069 c0 -5 5 -7 10 -4 6 3 10 8 10 11 0 2 -4 4 -10 4 -5 0 -10
-5 -10 -11z"/>
<path d="M1420 2061 c0 -5 5 -13 10 -16 6 -3 10 -2 10 4 0 5 -4 13 -10 16 -5
3 -10 2 -10 -4z"/>
<path d="M1717 2063 c-4 -3 -7 -11 -7 -17 0 -6 5 -5 12 2 6 6 9 14 7 17 -3 3
-9 2 -12 -2z"/>
<path d="M2224 2054 c3 -9 6 -18 6 -20 0 -2 8 -4 18 -4 16 1 16 1 -1 11 -9 6
-15 14 -12 20 4 5 1 9 -5 9 -7 0 -9 -7 -6 -16z"/>
<path d="M1580 2056 c0 -2 7 -6 15 -10 8 -3 15 -1 15 4 0 6 -7 10 -15 10 -8 0
-15 -2 -15 -4z"/>
<path d="M1628 2054 c6 -3 12 -14 12 -25 0 -24 23 -25 41 -1 11 14 11 15 -1 5
-19 -18 -28 -16 -26 4 0 10 -7 18 -19 20 -11 1 -14 0 -7 -3z"/>
<path d="M2306 2045 c4 -8 8 -15 10 -15 2 0 4 7 4 15 0 8 -4 15 -10 15 -5 0
-7 -7 -4 -15z"/>
<path d="M1756 2035 c-3 -8 -1 -15 4 -15 6 0 10 7 10 15 0 8 -2 15 -4 15 -2 0
-6 -7 -10 -15z"/>
<path d="M1985 2029 c6 -32 13 -34 13 -4 0 14 -4 25 -9 25 -4 0 -6 -10 -4 -21z"/>
<path d="M2170 2047 c0 -9 40 -35 44 -28 3 4 -6 13 -19 19 -14 7 -25 10 -25 9z"/>
<path d="M1015 2030 c-16 -4 -44 -14 -62 -23 -25 -13 -60 -17 -162 -17 -110 0
-129 -2 -125 -15 5 -11 10 -12 26 -2 15 9 22 9 25 1 2 -7 34 -10 96 -7 72 4
102 10 139 29 60 30 129 32 183 4 45 -23 45 -23 45 -12 0 23 -116 52 -165 42z"/>
<path d="M1570 2025 c-8 -9 -8 -15 -2 -15 12 0 26 19 19 26 -2 2 -10 -2 -17
-11z"/>
<path d="M1851 2028 c-1 -10 -5 -18 -11 -18 -5 0 -10 -5 -10 -12 0 -8 6 -7 16
4 9 9 14 22 11 30 -4 9 -6 7 -6 -4z"/>
<path d="M1221 2014 c0 -11 3 -14 6 -6 3 7 2 16 -1 19 -3 4 -6 -2 -5 -13z"/>
<path d="M2155 2009 c-13 -20 -23 -79 -14 -79 5 0 9 13 9 28 0 15 5 33 12 40
6 6 9 14 6 17 -3 4 -9 1 -13 -6z"/>
<path d="M1920 2001 c0 -6 4 -13 10 -16 6 -3 7 1 4 9 -7 18 -14 21 -14 7z"/>
<path d="M1965 2000 c3 -5 8 -10 11 -10 2 0 4 5 4 10 0 6 -5 10 -11 10 -5 0
-7 -4 -4 -10z"/>
<path d="M2036 1994 c-9 -23 -2 -28 13 -10 7 8 8 17 3 20 -6 3 -13 -1 -16 -10z"/>
<path d="M2293 1999 c9 -6 14 -15 11 -21 -4 -7 -2 -8 5 -4 14 9 -3 36 -23 36
-6 0 -3 -5 7 -11z"/>
<path d="M291 1984 c0 -11 3 -14 6 -6 3 7 2 16 -1 19 -3 4 -6 -2 -5 -13z"/>
<path d="M1385 1975 c-14 -13 -25 -30 -25 -37 0 -7 6 -4 12 7 6 11 21 28 32
37 12 10 17 17 13 18 -4 0 -19 -11 -32 -25z"/>
<path d="M1504 1985 c-4 -8 -13 -15 -21 -15 -8 0 -12 -4 -8 -9 3 -6 -3 -14
-12 -20 -10 -5 -15 -12 -12 -15 7 -7 69 53 69 66 0 13 -10 9 -16 -7z"/>
<path d="M1540 1983 c0 -10 4 -14 8 -8 4 6 11 13 16 18 5 4 2 7 -7 7 -10 0
-17 -8 -17 -17z"/>
<path d="M1585 1990 c-3 -6 1 -7 9 -4 18 7 21 14 7 14 -6 0 -13 -4 -16 -10z"/>
<path d="M1735 1990 c3 -5 8 -10 11 -10 2 0 4 5 4 10 0 6 -5 10 -11 10 -5 0
-7 -4 -4 -10z"/>
<path d="M2261 1984 c0 -11 3 -14 6 -6 3 7 2 16 -1 19 -3 4 -6 -2 -5 -13z"/>
<path d="M955 1981 c-3 -5 -1 -12 4 -15 5 -4 12 -2 16 4 4 6 12 5 21 -5 9 -8
25 -16 37 -16 12 -1 27 -2 32 -4 6 -1 16 -3 23 -3 7 -1 10 -7 7 -12 -4 -6 -10
-8 -15 -5 -10 6 -23 -12 -26 -35 -1 -8 -5 -28 -9 -45 l-8 -30 21 26 c12 15 40
34 63 43 23 9 39 19 36 23 -4 3 -2 14 4 25 14 25 0 47 -15 22 -5 -11 -10 -24
-11 -31 0 -13 -75 -67 -75 -53 0 5 5 12 11 16 8 4 7 9 -2 15 -11 7 -11 9 2 9
9 0 22 7 29 15 10 12 9 16 -3 21 -16 6 -12 34 5 34 5 0 6 -4 3 -10 -3 -5 1
-10 9 -10 10 0 13 6 10 15 -8 19 -44 20 -44 2 0 -9 -13 -14 -36 -15 -28 -1
-35 2 -30 13 4 11 -2 15 -24 15 -16 0 -31 -4 -35 -9z"/>
<path d="M1431 1983 c-1 -6 -4 -20 -7 -30 -5 -17 -5 -17 6 0 6 10 9 23 6 30
-3 9 -5 9 -5 0z"/>
<path d="M1667 1983 c-4 -3 -7 -11 -7 -17 0 -6 5 -5 12 2 6 6 9 14 7 17 -3 3
-9 2 -12 -2z"/>
<path d="M1697 1973 c-4 -3 -7 -11 -7 -17 0 -6 5 -5 12 2 6 6 9 14 7 17 -3 3
-9 2 -12 -2z"/>
<path d="M1800 1955 c-13 -14 -26 -21 -30 -16 -3 5 -16 2 -29 -8 l-23 -18 33
5 c38 5 55 16 70 44 13 25 7 23 -21 -7z"/>
<path d="M1991 1958 c1 -20 2 -20 6 -4 4 15 7 16 14 5 7 -11 9 -11 9 4 0 9 -7
17 -15 17 -9 0 -15 -9 -14 -22z"/>
<path d="M2193 1965 c-12 -14 1 -35 22 -35 5 0 3 5 -5 10 -13 8 -12 11 4 23
13 10 15 14 4 14 -7 0 -19 -6 -25 -12z"/>
<path d="M2311 1961 c-9 -6 -7 -10 8 -14 12 -3 21 -1 21 3 0 14 -15 19 -29 11z"/>
<path d="M1587 1949 c8 -8 16 -8 30 0 16 9 14 10 -11 11 -22 0 -27 -3 -19 -11z"/>
<path d="M1703 1943 c-13 -8 -23 -21 -23 -28 0 -8 -8 -16 -17 -19 -12 -3 -10
-4 5 -3 12 1 23 7 23 12 0 6 10 20 21 33 25 26 22 27 -9 5z"/>
<path d="M2070 1952 c0 -5 7 -9 15 -9 8 0 15 4 15 9 0 4 -7 8 -15 8 -8 0 -15
-4 -15 -8z"/>
<path d="M2277 1947 c-6 -16 16 -47 32 -47 7 0 9 -5 5 -12 -5 -7 -3 -8 6 -3
10 6 12 4 7 -8 -4 -11 -1 -17 8 -17 24 0 17 16 -19 46 -18 16 -31 34 -29 41 3
7 3 13 0 13 -3 0 -7 -6 -10 -13z"/>
<path d="M1520 1939 c0 -5 5 -7 10 -4 6 3 10 8 10 11 0 2 -4 4 -10 4 -5 0 -10
-5 -10 -11z"/>
<path d="M1638 1933 c-10 -2 -18 -12 -18 -20 0 -14 3 -13 23 3 12 10 24 20 26
21 6 4 -10 2 -31 -4z"/>
<path d="M1392 1910 c-7 -11 -12 -25 -12 -32 0 -7 7 0 15 16 18 33 15 45 -3
16z"/>
<path d="M1957 1923 c-11 -10 -8 -63 2 -63 6 0 13 5 16 10 3 6 1 10 -5 10 -8
0 -10 9 -6 25 6 25 5 30 -7 18z"/>
<path d="M2061 1914 c0 -11 3 -14 6 -6 3 7 2 16 -1 19 -3 4 -6 -2 -5 -13z"/>
<path d="M2171 1898 c-6 -17 -9 -34 -6 -36 3 -3 5 0 5 6 0 7 8 12 18 13 9 0
12 3 6 5 -7 3 -10 14 -7 24 9 32 -4 23 -16 -12z"/>
<path d="M2340 1910 c13 -11 25 -20 28 -20 3 0 -3 9 -13 20 -10 11 -23 20 -28
20 -6 0 0 -9 13 -20z"/>
<path d="M1490 1903 c0 -11 3 -14 8 -7 4 6 14 14 22 17 10 4 8 6 -7 6 -16 1
-23 -5 -23 -16z"/>
<path d="M1560 1905 c0 -8 2 -15 4 -15 2 0 6 7 10 15 3 8 1 15 -4 15 -6 0 -10
-7 -10 -15z"/>
<path d="M1828 1898 c-14 -14 -15 -18 -4 -18 8 0 17 7 20 16 9 23 4 24 -16 2z"/>
<path d="M1335 1900 c-3 -5 -1 -10 4 -10 6 0 11 5 11 10 0 6 -2 10 -4 10 -3 0
-8 -4 -11 -10z"/>
<path d="M1461 1878 c-6 -17 -19 -40 -28 -50 -9 -10 -12 -18 -6 -18 17 0 40
33 48 68 9 41 0 42 -14 0z"/>
<path d="M1773 1893 c-3 -10 -8 -22 -10 -28 -3 -5 3 -1 11 9 16 20 21 36 11
36 -3 0 -8 -8 -12 -17z"/>
<path d="M2013 1898 c-13 -6 -23 -15 -23 -20 0 -8 17 -1 50 22 20 13 1 12 -27
-2z"/>
<path d="M2123 1893 c0 -15 19 -12 24 3 2 6 -3 11 -10 11 -8 0 -14 -6 -14 -14z"/>
<path d="M1027 1893 c-11 -10 -8 -43 3 -43 5 0 9 11 8 25 -3 28 -2 27 -11 18z"/>
<path d="M1716 1890 c-11 -3 -15 -9 -10 -13 10 -6 42 9 34 16 -3 3 -14 1 -24
-3z"/>
<path d="M1857 1879 c-4 -16 -3 -18 9 -8 7 6 11 15 8 20 -8 13 -11 11 -17 -12z"/>
<path d="M1901 1900 c-9 -20 -4 -71 7 -75 7 -3 11 -9 8 -14 -7 -11 47 -34 84
-35 17 -1 32 -7 35 -13 2 -7 10 -13 17 -13 17 -1 52 -31 61 -52 3 -10 10 -18
16 -18 5 0 16 -12 26 -26 9 -15 12 -23 5 -19 -7 4 -11 4 -8 -1 47 -98 51 -112
50 -169 -3 -78 -23 -153 -55 -201 -21 -30 -24 -41 -14 -53 10 -12 12 -10 15
12 2 17 9 27 20 27 11 0 13 3 5 8 -8 5 -8 12 2 25 7 10 15 17 18 15 3 -2 9 1
14 6 5 5 3 6 -4 2 -9 -5 -13 0 -13 13 0 10 5 21 10 23 10 3 20 51 24 123 1 22
6 47 11 55 8 13 7 13 -8 1 -10 -8 -17 -9 -17 -3 0 6 4 13 9 17 6 3 13 25 16
49 7 45 41 113 52 102 8 -8 43 12 43 25 0 6 -8 3 -17 -7 -23 -23 -29 -2 -7 30
9 14 12 26 6 26 -6 0 -15 12 -20 28 -10 25 -10 26 -11 4 -1 -19 -5 -22 -23
-18 -13 3 -17 3 -10 0 6 -3 12 -10 12 -15 0 -6 -4 -8 -9 -5 -5 4 -7 -3 -4 -14
3 -12 0 -20 -7 -20 -9 0 -8 -5 3 -18 15 -16 15 -21 1 -47 -16 -30 -22 -56 -23
-92 -1 -13 -6 -23 -12 -23 -7 0 -9 11 -6 29 4 17 2 31 -4 33 -6 2 0 17 12 33
25 31 33 55 18 55 -5 0 -9 -8 -9 -17 -1 -17 -1 -17 -11 0 -6 11 -12 26 -13 35
-2 10 -11 19 -22 20 -10 2 -27 14 -37 25 -10 12 -16 16 -12 8 4 -7 2 -17 -6
-22 -21 -13 -35 -11 -21 3 7 7 12 17 12 23 0 5 -4 3 -10 -5 -7 -12 -13 -12
-34 -1 -15 9 -23 19 -19 30 3 9 1 12 -4 6 -14 -17 -45 -15 -38 2 4 13 3 13 -9
4 -11 -9 -15 -8 -19 4 -4 8 -13 12 -21 9 -17 -6 -33 15 -18 25 6 4 7 12 3 20
-6 9 -10 6 -16 -11 -7 -20 -8 -19 -15 17 -4 22 -8 38 -9 35z m384 -179 c-18
-35 -36 -34 -28 2 8 32 24 50 35 39 6 -6 3 -22 -7 -41z m-138 -18 c0 -16 -2
-22 -4 -15 -3 6 -10 9 -15 6 -6 -4 -8 -2 -4 4 3 6 1 14 -5 18 -8 5 -7 9 2 15
19 11 27 3 26 -28z m33 -11 c-6 -2 -10 -8 -10 -13 0 -6 5 -7 11 -3 17 10 29
-17 17 -40 -10 -18 -12 -16 -28 25 -13 31 -14 46 -7 51 6 4 15 2 19 -5 4 -7 3
-13 -2 -15z"/>
<path d="M2252 1875 c0 -16 2 -22 5 -12 2 9 2 23 0 30 -3 6 -5 -1 -5 -18z"/>
<path d="M2270 1881 c0 -11 4 -22 9 -25 4 -3 6 6 3 19 -5 30 -12 33 -12 6z"/>
<path d="M2421 1891 c-8 -6 -9 -11 -3 -15 6 -3 14 -1 17 5 9 14 2 20 -14 10z"/>
<path d="M1432 1865 c-6 -14 -8 -25 -3 -25 8 0 23 41 17 47 -1 2 -8 -8 -14
-22z"/>
<path d="M1602 1870 c-14 -23 -15 -30 -4 -30 5 0 14 11 20 25 14 30 2 34 -16
5z"/>
<path d="M2072 1865 c0 -16 2 -25 4 -18 3 7 12 9 20 6 8 -3 14 0 14 6 0 6 -6
11 -14 11 -8 0 -17 6 -19 13 -3 6 -5 -1 -5 -18z"/>
<path d="M1133 1874 c10 -10 -51 -56 -64 -48 -6 3 -3 -5 6 -19 9 -15 13 -31 9
-38 -4 -7 -2 -10 7 -7 8 3 13 12 11 21 -1 8 9 28 23 43 26 28 33 54 13 54 -6
0 -9 -3 -5 -6z"/>
<path d="M1486 1864 c-6 -15 -4 -15 11 -3 10 7 20 15 22 16 2 2 -3 3 -11 3 -9
0 -19 -7 -22 -16z"/>
<path d="M1571 1866 c-1 -13 -6 -16 -18 -12 -15 5 -15 4 1 -9 19 -15 19 -15
-2 -38 -12 -13 -22 -27 -22 -33 0 -5 11 4 23 20 16 20 26 25 31 18 4 -7 3 -12
-2 -12 -5 0 -15 -20 -22 -45 -7 -24 -15 -44 -19 -43 -19 2 -24 -4 -11 -12 12
-8 11 -10 -7 -10 -28 0 -29 11 -3 35 11 10 20 22 20 26 0 10 -35 4 -35 -7 -1
-29 -28 -53 -65 -59 -34 -6 -40 -10 -35 -25 4 -12 0 -22 -11 -28 -15 -8 -15
-9 1 -15 21 -9 10 -27 -16 -27 -10 0 -19 -6 -19 -14 0 -8 -4 -18 -10 -21 -16
-10 -12 22 5 39 8 8 15 20 15 27 0 18 -13 2 -40 -45 -17 -32 -18 -38 -5 -32
11 4 15 2 13 -6 -3 -7 -13 -13 -24 -13 -11 0 -19 -7 -19 -17 0 -9 -4 -20 -8
-24 -4 -4 -7 -16 -7 -26 0 -10 -7 -21 -15 -24 -8 -4 -15 -11 -15 -17 0 -5 9
-2 20 8 11 10 20 22 20 27 0 5 18 31 40 57 22 26 40 51 40 57 0 5 12 10 26 10
23 2 25 -1 19 -23 -4 -16 -2 -22 5 -18 6 4 10 -4 10 -19 0 -23 -6 -28 -30 -28
-3 0 -15 -11 -28 -24 -12 -13 -19 -24 -14 -24 5 0 15 7 23 16 8 10 21 13 38 9
19 -4 22 -3 11 4 -13 9 -12 11 1 16 10 4 14 14 12 28 -3 16 5 31 27 50 17 15
28 32 25 37 -4 6 -1 10 4 10 6 0 11 6 11 14 0 8 20 36 45 64 24 27 41 53 37
57 -4 5 -2 5 4 2 7 -4 22 2 35 12 45 35 103 55 169 57 36 1 71 -3 78 -8 7 -6
15 -8 19 -5 3 4 -5 15 -18 26 -17 14 -26 16 -31 8 -6 -9 -8 -9 -8 0 0 9 -7 10
-26 3 -35 -14 -42 -12 -20 5 11 8 17 17 14 21 -4 3 -17 -5 -29 -17 -13 -13
-24 -18 -26 -12 -3 8 -11 6 -24 -5 -11 -9 -23 -17 -27 -17 -4 -1 -17 -6 -30
-14 -18 -10 -26 -10 -38 0 -8 6 -17 9 -21 5 -3 -3 -2 -6 4 -6 5 0 10 -7 10
-15 0 -8 -8 -15 -17 -15 -10 0 -25 -10 -34 -22 -11 -15 -9 -8 4 20 14 29 18
47 12 55 -6 7 -12 23 -15 37 -3 16 -5 18 -6 6z m-75 -192 c-5 -12 -2 -15 11
-10 15 6 15 4 -2 -14 -10 -11 -14 -20 -9 -20 5 0 2 -6 -7 -13 -8 -7 -18 -20
-22 -30 -4 -10 -11 -15 -17 -12 -6 3 -10 -4 -11 -17 -1 -20 -2 -19 -10 7 -5
17 -7 36 -4 43 2 6 -1 12 -8 13 -9 0 -9 2 0 6 9 3 10 10 3 23 -8 15 -5 19 16
24 14 4 29 4 34 1 5 -3 11 -1 15 5 10 16 18 12 11 -6z m-176 -164 c0 -5 -5
-10 -11 -10 -5 0 -7 5 -4 10 3 6 8 10 11 10 2 0 4 -4 4 -10z"/>
<path d="M1454 1658 c-4 -7 -3 -8 4 -4 7 4 12 3 12 -2 0 -5 -10 -13 -22 -19
-12 -5 -17 -12 -11 -16 5 -3 20 4 32 17 19 20 20 24 7 29 -9 3 -18 1 -22 -5z"/>
<path d="M1640 1870 c-8 -5 -12 -11 -10 -14 3 -2 14 2 24 10 22 15 10 19 -14
4z"/>
<path d="M2031 1864 c0 -11 3 -14 6 -6 3 7 2 16 -1 19 -3 4 -6 -2 -5 -13z"/>
<path d="M2221 1863 c7 -12 15 -20 18 -17 3 2 -3 12 -13 22 -17 16 -18 16 -5
-5z"/>
<path d="M1342 1855 c-19 -10 -20 -14 -8 -18 10 -4 20 1 26 13 6 11 9 20 8 19
-2 -1 -13 -7 -26 -14z"/>
<path d="M2301 1854 c0 -11 3 -14 6 -6 3 7 2 16 -1 19 -3 4 -6 -2 -5 -13z"/>
<path d="M2542 1850 c0 -14 2 -19 5 -12 2 6 2 18 0 25 -3 6 -5 1 -5 -13z"/>
<path d="M1675 1835 c-16 -13 -24 -24 -17 -25 6 0 12 3 12 8 0 4 12 15 28 24
15 10 23 18 17 18 -5 0 -23 -11 -40 -25z"/>
<path d="M2417 1833 c-6 -34 -5 -37 10 -14 6 10 8 23 3 30 -5 9 -9 3 -13 -16z"/>
<path d="M1284 1838 c-4 -7 -15 -24 -23 -38 -10 -15 -11 -21 -3 -16 13 7 46
66 38 66 -3 0 -8 -6 -12 -12z"/>
<path d="M1506 1841 c-3 -5 1 -11 9 -15 9 -3 15 0 15 9 0 16 -16 20 -24 6z"/>
<path d="M2320 1845 c0 -5 5 -17 10 -25 5 -8 10 -10 10 -5 0 6 -5 17 -10 25
-5 8 -10 11 -10 5z"/>
<path d="M2447 1831 c-4 -17 -3 -21 5 -13 5 5 8 16 6 23 -3 8 -7 3 -11 -10z"/>
<path d="M2008 1833 c7 -3 16 -2 19 1 4 3 -2 6 -13 5 -11 0 -14 -3 -6 -6z"/>
<path d="M2101 1835 c0 -5 4 -17 9 -25 6 -9 10 -10 10 -3 0 6 6 13 13 16 6 2
4 3 -5 2 -9 -2 -19 2 -22 9 -2 6 -5 7 -5 1z"/>
<path d="M2354 1828 c3 -15 26 -23 26 -8 0 6 -4 9 -9 6 -5 -4 -12 -1 -14 4 -3
6 -4 5 -3 -2z"/>
<path d="M1018 1824 c-2 -5 -3 -15 -2 -21 1 -7 2 -20 3 -28 0 -8 6 -15 11 -15
7 0 7 6 0 19 -6 12 -6 21 0 23 5 2 6 9 1 17 -5 7 -10 9 -13 5z"/>
<path d="M1478 1812 c-3 -12 -2 -20 3 -16 5 3 9 -2 9 -10 0 -9 -6 -16 -14 -16
-7 0 -19 -7 -26 -15 -17 -21 -1 -19 35 5 17 11 26 20 21 20 -5 0 -3 7 4 15 11
13 10 14 -3 9 -10 -3 -17 1 -19 13 -3 15 -5 15 -10 -5z"/>
<path d="M2231 1823 c-1 -6 -4 -20 -7 -30 -5 -17 -5 -17 6 0 6 10 9 23 6 30
-3 9 -5 9 -5 0z"/>
<path d="M2489 1813 c-13 -16 -12 -17 4 -4 9 7 17 15 17 17 0 8 -8 3 -21 -13z"/>
<path d="M370 1766 l0 -56 36 0 c21 0 33 4 29 10 -3 6 -15 10 -26 10 -16 0
-19 7 -19 39 0 22 -4 43 -10 46 -6 4 -10 -15 -10 -49z"/>
<path d="M710 1765 c0 -30 3 -55 8 -55 4 0 7 25 7 55 0 30 -3 55 -7 55 -5 0
-8 -25 -8 -55z"/>
<path d="M789 1804 c-11 -13 -9 -14 13 -9 37 9 42 -9 13 -43 -32 -38 -31 -42
5 -42 17 0 30 4 30 9 0 5 -10 7 -22 3 l-22 -5 22 28 c26 33 28 60 6 69 -23 9
-30 8 -45 -10z"/>
<path d="M883 1813 c-20 -8 -15 -22 6 -16 30 8 33 -13 6 -45 -14 -16 -25 -33
-25 -36 0 -3 16 -6 36 -6 19 0 33 4 30 9 -3 5 -16 7 -29 4 l-22 -6 23 25 c26
28 29 63 6 72 -9 3 -16 6 -17 5 -1 0 -8 -3 -14 -6z"/>
<path d="M1226 1804 c-11 -8 -16 -14 -10 -14 13 0 39 18 34 24 -3 2 -14 -2
-24 -10z"/>
<path d="M1324 1783 c2 -25 -1 -41 -11 -48 -11 -8 -12 -17 -4 -35 l10 -25 0
28 c1 15 8 30 16 33 8 4 15 13 15 21 0 8 -4 12 -9 8 -13 -8 -10 38 4 47 6 5 3
8 -8 8 -14 0 -17 -7 -13 -37z"/>
<path d="M2168 1800 c-10 -9 -18 -23 -17 -31 0 -8 4 -6 9 6 9 20 9 20 10 0 1
-15 4 -12 11 9 10 36 9 38 -13 16z"/>
<path d="M1117 1774 c-10 -19 -13 -32 -7 -29 7 4 9 -4 5 -24 -3 -17 -1 -31 3
-31 8 0 25 110 18 117 -1 2 -10 -13 -19 -33z"/>
<path d="M1050 1790 c0 -5 5 -10 10 -10 6 0 10 5 10 10 0 6 -4 10 -10 10 -5 0
-10 -4 -10 -10z"/>
<path d="M1281 1781 c-6 -10 -8 -21 -4 -24 3 -4 0 -15 -7 -24 -8 -10 -2 -7 12
7 14 14 21 26 17 28 -4 2 -5 10 -2 18 8 21 -5 17 -16 -5z"/>
<path d="M1410 1779 c-17 -15 -19 -20 -7 -16 10 4 17 1 17 -6 0 -7 5 -4 11 6
18 30 5 40 -21 16z"/>
<path d="M2086 1792 c-3 -5 1 -9 9 -9 8 0 12 4 9 9 -3 4 -7 8 -9 8 -2 0 -6 -4
-9 -8z"/>
<path d="M2325 1789 c-4 -6 -5 -12 -2 -15 2 -3 7 2 10 11 7 17 1 20 -8 4z"/>
<path d="M2463 1779 c-2 -23 3 -25 10 -4 4 8 3 16 -1 19 -4 3 -9 -4 -9 -15z"/>
<path d="M2551 1784 c0 -11 3 -14 6 -6 3 7 2 16 -1 19 -3 4 -6 -2 -5 -13z"/>
<path d="M454 1776 c-3 -8 -4 -25 -2 -38 2 -18 9 -23 33 -23 28 0 30 3 30 35
0 31 -3 35 -28 38 -17 2 -29 -2 -33 -12z m54 -20 c5 -24 -10 -38 -31 -30 -17
6 -23 35 -10 48 12 12 38 1 41 -18z"/>
<path d="M544 1776 c-12 -32 0 -61 29 -64 15 -2 27 2 27 8 0 6 -6 10 -12 9
-28 -3 -38 2 -38 20 0 20 25 35 41 25 5 -3 9 0 9 5 0 16 -50 13 -56 -3z"/>
<path d="M622 1778 c-29 -29 -4 -70 42 -66 23 2 26 7 26 40 0 35 -2 38 -28 38
-15 0 -33 -5 -40 -12z m43 -28 c0 -13 -6 -25 -12 -27 -16 -6 -27 21 -19 43 9
23 31 11 31 -16z"/>
<path d="M1360 1779 c0 -5 5 -7 10 -4 6 3 10 8 10 11 0 2 -4 4 -10 4 -5 0 -10
-5 -10 -11z"/>
<path d="M2427 1783 c-4 -3 -7 -13 -7 -21 0 -18 13 -7 16 13 2 17 1 18 -9 8z"/>
<path d="M1205 1769 c-4 -6 -4 -13 -1 -16 3 -4 6 -1 6 6 0 8 7 11 15 7 8 -3
15 -1 15 4 0 13 -27 13 -35 -1z"/>
<path d="M1727 1760 c-108 -38 -178 -104 -209 -196 -36 -107 5 -248 99 -335
67 -63 126 -84 238 -84 107 0 164 23 232 92 72 74 103 208 73 313 -15 51 -75
134 -119 163 -93 62 -220 80 -314 47z m252 -35 c147 -74 209 -211 163 -362
-28 -90 -74 -143 -159 -184 -60 -29 -72 -31 -142 -27 -177 10 -302 125 -318
292 -13 139 69 256 210 302 64 21 184 11 246 -21z"/>
<path d="M1875 1710 c-8 -12 5 -60 16 -60 5 0 9 -5 9 -11 0 -6 -7 -9 -15 -5
-8 3 -18 -1 -22 -8 -5 -7 -15 -16 -23 -19 -12 -4 -11 -6 3 -6 22 -1 67 27 67
42 0 6 -7 19 -17 29 -13 14 -13 18 -2 18 8 0 21 -4 29 -9 23 -15 31 -2 12 19
-17 21 -47 26 -57 10z"/>
<path d="M1676 1684 c-9 -23 -2 -28 13 -10 7 8 8 17 3 20 -6 3 -13 -1 -16 -10z"/>
<path d="M1718 1693 c7 -3 16 -2 19 1 4 3 -2 6 -13 5 -11 0 -14 -3 -6 -6z"/>
<path d="M1981 1663 c-11 -16 -21 -22 -21 -15 0 7 -5 10 -11 6 -8 -5 -7 -9 1
-14 21 -13 4 -38 -39 -58 -36 -18 -40 -18 -44 -3 -3 11 -5 9 -6 -6 0 -12 -6
-25 -12 -29 -8 -4 -9 0 -4 15 8 27 -9 24 -41 -7 -19 -18 -22 -27 -13 -40 9
-15 10 -15 5 1 -4 12 -2 17 6 14 16 -5 11 -37 -9 -59 -9 -10 -11 -18 -6 -18 6
0 17 10 25 21 12 19 16 20 35 8 12 -7 26 -23 32 -36 9 -19 7 -24 -9 -33 -29
-16 -68 -12 -79 8 -9 16 -10 16 -16 0 -4 -10 -11 -15 -17 -12 -5 3 -4 11 3 20
7 9 8 14 1 14 -6 0 -12 -5 -14 -12 -3 -7 -11 -9 -24 -4 -19 8 -19 8 1 16 20 9
20 9 0 10 -11 2 -23 2 -27 1 -4 0 -4 7 -1 17 6 14 4 15 -9 4 -11 -9 -18 -10
-23 -2 -3 5 -1 10 6 10 7 0 10 3 6 6 -3 3 -11 3 -17 -1 -8 -5 -5 -14 10 -30
l21 -23 -22 -16 c-13 -9 -18 -16 -12 -16 6 0 19 7 27 16 9 8 21 12 27 8 9 -5
6 -11 -6 -21 -15 -10 -15 -13 -4 -13 8 0 20 5 26 11 20 20 37 -1 18 -21 -12
-14 -13 -20 -4 -26 7 -4 10 -3 5 4 -8 14 32 42 50 35 8 -3 14 -13 14 -23 0
-10 8 -21 18 -25 14 -5 15 -4 5 6 -7 7 -13 19 -13 26 0 23 19 14 35 -18 9 -17
19 -29 22 -26 2 3 -3 17 -12 31 -10 14 -13 26 -7 26 6 0 18 7 26 16 12 12 13
20 6 35 -9 15 -7 19 6 19 13 0 14 3 5 13 -8 11 -6 13 11 13 14 -1 24 6 26 17
5 24 -17 21 -45 -5 -21 -20 -25 -21 -39 -6 -9 9 -13 21 -9 27 12 21 84 61 125
70 77 17 99 -7 62 -68 -21 -34 -104 -111 -121 -111 -6 0 -7 -8 -4 -17 4 -11 8
-12 11 -5 2 8 16 10 40 6 61 -9 219 66 181 86 -35 19 -79 21 -95 5 -15 -15
-13 -16 35 -11 28 2 51 1 51 -4 0 -12 -104 -60 -143 -67 -20 -3 -37 -1 -41 6
-7 11 2 14 39 12 20 -1 20 -1 0 8 -19 9 -18 10 5 10 20 1 22 3 10 11 -9 6 -10
10 -3 10 6 0 21 16 33 35 12 20 36 43 53 52 18 8 33 17 35 18 7 6 -51 85 -63
85 -6 0 -20 -9 -29 -19 -18 -20 -56 -35 -56 -22 0 4 11 22 25 41 28 38 29 40
16 40 -5 0 -19 -12 -30 -27z m89 -37 c0 -14 -29 -31 -38 -21 -6 6 18 35 29 35
5 0 9 -6 9 -14z m23 -36 c3 -14 -1 -24 -15 -31 -18 -10 -19 -9 -8 11 8 15 8
20 1 16 -12 -8 -15 6 -4 17 11 12 21 7 26 -13z m-257 -68 c-10 -10 -29 15 -21
28 6 9 10 8 17 -4 6 -10 7 -20 4 -24z"/>
<path d="M1627 1673 c-10 -16 11 -39 23 -27 8 8 7 14 -4 23 -8 7 -17 8 -19 4z"/>
<path d="M1780 1670 c-14 -4 -40 -8 -57 -9 -49 -1 -40 -15 22 -36 39 -14 55
-24 55 -37 0 -10 -7 -18 -16 -18 -8 0 -12 -5 -8 -11 9 -15 32 9 38 42 4 23 1
25 -20 21 -14 -2 -24 0 -24 7 0 7 -4 10 -9 7 -5 -4 -17 -3 -27 1 -24 9 84 36
114 28 15 -4 21 -2 17 5 -7 12 -48 12 -85 0z"/>
<path d="M1660 1623 c0 -15 -2 -16 -10 -3 -5 8 -10 10 -10 4 0 -18 13 -24 27
-13 15 13 17 29 3 29 -5 0 -10 -8 -10 -17z"/>
<path d="M1566 1598 l-18 -33 25 27 c14 15 28 24 33 20 4 -4 4 -1 0 6 -11 19
-20 15 -40 -20z"/>
<path d="M1680 1610 c0 -10 25 -36 64 -68 9 -7 13 -19 9 -29 -4 -11 -3 -14 5
-9 19 12 7 50 -21 64 -14 7 -29 21 -32 32 -7 21 -25 28 -25 10z"/>
<path d="M1597 1594 c-14 -14 -6 -21 23 -20 16 1 28 6 27 11 -4 12 -40 19 -50
9z"/>
<path d="M1660 1580 c0 -5 5 -10 11 -10 5 0 7 5 4 10 -3 6 -8 10 -11 10 -2 0
-4 -4 -4 -10z"/>
<path d="M1590 1551 c30 -25 21 -27 -22 -5 -18 9 -27 11 -23 4 4 -7 23 -18 42
-26 35 -15 35 -29 -1 -45 -19 -9 -19 -9 4 -4 14 3 32 7 39 9 8 1 17 9 19 16 3
7 0 10 -7 6 -7 -5 -9 -1 -5 9 5 11 2 14 -12 8 -12 -4 -15 -3 -10 5 4 7 14 12
22 12 23 0 16 15 -8 16 -13 0 -32 4 -43 8 -16 6 -15 4 5 -13z"/>
<path d="M1685 1550 c-3 -5 -1 -10 4 -10 6 0 11 5 11 10 0 6 -2 10 -4 10 -3 0
-8 -4 -11 -10z"/>
<path d="M1710 1530 c0 -5 5 -10 10 -10 6 0 10 5 10 10 0 6 -4 10 -10 10 -5 0
-10 -4 -10 -10z"/>
<path d="M1655 1520 c3 -5 8 -10 11 -10 2 0 4 5 4 10 0 6 -5 10 -11 10 -5 0
-7 -4 -4 -10z"/>
<path d="M1545 1501 c-3 -5 -1 -12 5 -16 5 -3 10 1 10 9 0 18 -6 21 -15 7z"/>
<path d="M1710 1490 c0 -6 12 -15 26 -20 20 -8 29 -6 42 6 15 15 14 16 -5 10
-12 -4 -24 -2 -28 4 -8 13 -35 13 -35 0z"/>
<path d="M1540 1462 c0 -5 11 -14 25 -20 32 -15 35 -15 35 -1 0 5 -4 7 -10 4
-5 -3 -10 -1 -10 5 0 6 -4 8 -10 5 -5 -3 -10 -1 -10 4 0 6 -4 11 -10 11 -5 0
-10 -4 -10 -8z"/>
<path d="M1817 1454 c-14 -15 -6 -34 14 -34 14 0 19 5 17 17 -3 18 -20 27 -31
17z m23 -14 c0 -5 -5 -10 -11 -10 -5 0 -7 5 -4 10 3 6 8 10 11 10 2 0 4 -4 4
-10z"/>
<path d="M2028 1453 c7 -3 16 -2 19 1 4 3 -2 6 -13 5 -11 0 -14 -3 -6 -6z"/>
<path d="M1619 1433 c-1 -5 -1 -12 0 -16 1 -4 -6 -10 -14 -13 -8 -4 -15 -13
-15 -21 0 -8 -4 -11 -10 -8 -5 3 -10 17 -10 31 0 13 -4 24 -9 24 -6 0 -8 -17
-6 -37 4 -51 4 -50 15 -33 8 13 10 13 10 0 0 -9 6 -6 16 9 15 21 18 21 26 7 5
-9 14 -16 20 -16 7 0 6 6 -2 15 -11 13 -10 15 6 10 12 -4 9 0 -6 9 -16 10 -19
15 -10 16 12 0 13 2 1 9 -11 7 -11 9 0 14 10 4 10 6 2 6 -7 1 -14 -2 -14 -6z"/>
<path d="M2057 1363 c-4 -25 -18 -49 -37 -68 -41 -39 -41 -8 0 37 33 36 41 61
10 33 -16 -14 -23 -15 -34 -6 -8 7 -24 10 -36 6 -12 -4 -20 -2 -20 5 0 6 -5 8
-10 5 -12 -7 6 -28 33 -38 16 -6 17 -8 1 -31 -19 -31 -11 -46 24 -45 43 0 103
94 82 128 -4 8 -10 -3 -13 -26z m-67 -13 c8 -5 11 -12 7 -16 -4 -4 -15 0 -24
9 -18 18 -8 23 17 7z m-7 -60 c-3 -12 -8 -19 -11 -16 -5 6 5 36 12 36 2 0 2
-9 -1 -20z"/>
<path d="M1881 1374 c0 -11 3 -14 6 -6 3 7 2 16 -1 19 -3 4 -6 -2 -5 -13z"/>
<path d="M1703 1366 c3 -8 -1 -17 -10 -20 -11 -4 -14 -2 -9 9 10 26 -20 16
-33 -11 l-11 -26 -20 24 c-25 30 -26 14 0 -21 24 -35 92 -88 84 -66 -3 8 -10
15 -16 15 -5 0 -6 5 -2 12 4 6 3 8 -3 5 -6 -4 -18 2 -27 12 -10 11 -13 22 -8
25 6 3 13 0 16 -6 4 -7 4 -3 2 10 -2 12 -2 22 0 22 3 0 9 -10 14 -22 7 -18 9
-19 9 -5 2 39 19 13 25 -38 11 -100 43 -136 63 -71 10 31 9 34 -8 31 -22 -4
-23 -1 -9 25 6 11 17 17 25 14 8 -4 15 -4 15 -1 0 3 -7 7 -15 11 -19 7 -48
-35 -39 -58 5 -14 9 -15 15 -4 7 10 9 10 9 -2 0 -8 -4 -21 -9 -29 -6 -10 -12
-4 -21 23 -6 19 -8 41 -4 47 4 8 3 9 -4 5 -8 -4 -10 5 -8 29 1 19 -1 35 -5 35
-4 0 -5 9 -2 20 3 12 0 20 -7 20 -7 0 -10 -6 -7 -14z"/>
<path d="M1785 1370 c-3 -5 -1 -10 4 -10 6 0 11 5 11 10 0 6 -2 10 -4 10 -3 0
-8 -4 -11 -10z"/>
<path d="M1749 1333 c-13 -16 -12 -17 4 -4 9 7 17 15 17 17 0 8 -8 3 -21 -13z"/>
<path d="M1912 1335 c-1 -12 -7 -26 -14 -33 -9 -9 -9 -12 1 -12 8 0 11 -6 6
-17 -4 -13 -3 -15 5 -7 6 6 10 29 7 50 -2 22 -4 30 -5 19z"/>
<path d="M1800 1325 c7 -8 9 -15 5 -15 -4 0 -2 -6 4 -13 12 -15 71 -21 71 -7
0 16 -21 22 -35 10 -21 -17 -39 -2 -23 18 10 12 10 14 1 8 -7 -4 -13 -2 -13 3
0 6 -5 11 -11 11 -8 0 -8 -5 1 -15z"/>
<path d="M1754 1307 c-11 -12 -12 -17 -4 -11 8 6 22 13 30 16 9 3 10 7 3 11
-6 4 -19 -3 -29 -16z"/>
<path d="M2091 1314 c0 -11 3 -14 6 -6 3 7 2 16 -1 19 -3 4 -6 -2 -5 -13z"/>
<path d="M1803 1228 c5 -24 11 -49 13 -56 3 -9 21 -12 59 -11 51 2 55 4 50 23
-12 41 -28 67 -36 55 -3 -6 0 -23 7 -38 14 -26 13 -26 -22 -29 -46 -4 -52 3
-55 56 -2 24 -8 42 -15 42 -8 0 -9 -11 -1 -42z"/>
<path d="M1934 1262 c4 -7 2 -12 -4 -12 -6 0 -4 -10 6 -25 9 -14 20 -25 25
-25 10 0 -10 58 -24 67 -6 3 -7 1 -3 -5z"/>
<path d="M2033 1258 c1 -7 -3 -12 -9 -11 -7 1 -20 -7 -30 -18 -17 -19 -17 -19
17 -5 32 13 53 46 30 46 -6 0 -10 -6 -8 -12z"/>
<path d="M1050 1751 c0 -11 -4 -23 -10 -26 -5 -3 -10 1 -10 9 0 9 -4 16 -8 16
-13 0 -6 -70 8 -83 8 -9 10 -8 5 6 -11 27 3 20 19 -10 l15 -28 -1 27 c-1 15
-6 24 -10 22 -13 -8 -22 26 -9 39 8 8 14 8 23 -1 15 -15 28 -15 28 0 0 6 -3 8
-7 5 -10 -11 -32 13 -26 29 3 8 0 14 -6 14 -6 0 -11 -9 -11 -19z"/>
<path d="M2195 1759 c-4 -6 -5 -12 -2 -15 2 -3 7 2 10 11 7 17 1 20 -8 4z"/>
<path d="M2377 1750 c-3 -11 -3 -20 -1 -20 2 0 8 9 14 20 6 11 7 20 2 20 -6 0
-12 -9 -15 -20z"/>
<path d="M2220 1751 c0 -6 4 -13 10 -16 6 -3 7 1 4 9 -7 18 -14 21 -14 7z"/>
<path d="M1392 1743 c-6 -3 -10 -9 -7 -14 7 -10 -18 -61 -38 -78 -10 -8 -17
-9 -22 -2 -3 7 -16 0 -32 -17 -14 -15 -30 -25 -37 -24 -6 2 -8 0 -4 -4 4 -4 3
-13 -3 -21 -6 -7 -8 -13 -5 -13 4 0 19 14 33 30 13 17 35 30 47 30 26 0 50 26
71 76 17 40 16 44 -3 37z"/>
<path d="M2397 1731 c-4 -17 -3 -21 5 -13 5 5 8 16 6 23 -3 8 -7 3 -11 -10z"/>
<path d="M2597 1690 c-10 -83 -18 -179 -18 -205 -1 -49 -11 -82 -32 -106 -13
-13 -27 -31 -30 -39 -4 -12 -6 -11 -6 2 -1 9 -6 20 -12 24 -7 4 -9 0 -5 -14 6
-17 2 -21 -23 -24 -24 -2 -29 -6 -21 -18 8 -13 13 -13 31 -2 11 8 18 9 14 3
-8 -14 1 -14 26 -1 10 6 19 15 19 21 0 5 7 21 16 35 14 20 19 22 32 12 13 -11
14 -8 7 20 -4 18 -1 88 5 155 13 138 11 253 -3 137z"/>
<path d="M2435 1729 c-4 -6 -5 -12 -2 -15 2 -3 7 2 10 11 7 17 1 20 -8 4z"/>
<path d="M1153 1715 c0 -8 4 -12 9 -9 5 3 6 10 3 15 -9 13 -12 11 -12 -6z"/>
<path d="M1432 1710 c-12 -19 -11 -20 8 -8 20 13 27 28 12 28 -4 0 -13 -9 -20
-20z"/>
<path d="M2487 1711 c-4 -17 -3 -21 5 -13 5 5 8 16 6 23 -3 8 -7 3 -11 -10z"/>
<path d="M1197 1705 c-10 -24 -8 -32 3 -15 7 11 10 7 10 -17 0 -23 -5 -33 -15
-33 -8 0 -15 -5 -15 -12 0 -6 3 -8 7 -5 3 4 12 2 19 -4 14 -12 34 -4 34 13 0
6 -7 5 -16 -3 -15 -12 -16 -11 -9 11 4 14 16 35 27 46 11 12 15 24 10 28 -5 3
-13 -4 -16 -17 l-6 -22 -14 24 c-11 20 -14 21 -19 6z"/>
<path d="M2340 1711 c0 -5 5 -13 10 -16 6 -3 10 -2 10 4 0 5 -4 13 -10 16 -5
3 -10 2 -10 -4z"/>
<path d="M293 1630 c0 -41 2 -58 4 -37 2 20 2 54 0 75 -2 20 -4 3 -4 -38z"/>
<path d="M1337 1679 c-4 -16 -3 -18 9 -8 7 6 11 15 8 20 -8 13 -11 11 -17 -12z"/>
<path d="M2531 1684 c0 -11 3 -14 6 -6 3 7 2 16 -1 19 -3 4 -6 -2 -5 -13z"/>
<path d="M2556 1678 c-12 -37 -14 -78 -6 -78 6 0 10 10 11 23 0 12 2 32 3 45
3 24 -2 30 -8 10z"/>
<path d="M1110 1656 c5 -13 6 -27 3 -30 -4 -3 -1 -6 5 -6 7 0 12 14 12 30 0
20 -5 30 -15 30 -11 0 -12 -5 -5 -24z"/>
<path d="M1160 1650 c-6 -11 -9 -20 -8 -20 2 0 11 9 21 20 9 11 13 20 7 20 -5
0 -14 -9 -20 -20z"/>
<path d="M2287 1664 c-4 -4 -7 -14 -7 -23 0 -11 3 -12 11 -4 6 6 10 16 7 23
-2 6 -7 8 -11 4z"/>
<path d="M2451 1653 c0 -12 -4 -30 -7 -40 -5 -14 -4 -15 5 -7 7 6 11 24 8 40
-3 21 -4 23 -6 7z"/>
<path d="M1010 1652 c0 -4 5 -13 12 -20 9 -9 9 -12 -2 -12 -11 -1 -10 -4 3
-11 10 -6 21 -8 24 -5 4 3 0 6 -8 6 -9 0 -10 3 -3 8 6 4 4 13 -8 25 -10 9 -18
13 -18 9z"/>
<path d="M2371 1644 c0 -11 3 -14 6 -6 3 7 2 16 -1 19 -3 4 -6 -2 -5 -13z"/>
<path d="M1085 1640 c3 -5 8 -10 11 -10 2 0 4 5 4 10 0 6 -5 10 -11 10 -5 0
-7 -4 -4 -10z"/>
<path d="M2317 1630 c-3 -11 -1 -20 4 -20 5 0 9 9 9 20 0 11 -2 20 -4 20 -2 0
-6 -9 -9 -20z"/>
<path d="M2257 1603 c-3 -16 -8 -37 -12 -48 -3 -11 1 -6 11 10 9 17 21 33 26
36 5 3 3 11 -5 18 -12 9 -15 6 -20 -16z"/>
<path d="M796 1605 c-3 -8 -1 -15 4 -15 13 0 22 18 11 24 -5 3 -11 -1 -15 -9z"/>
<path d="M1306 1603 c-4 -13 -12 -23 -18 -23 -6 0 -9 -3 -5 -6 9 -10 -22 -66
-33 -59 -6 4 -10 2 -10 -4 0 -5 5 -11 12 -13 8 -3 7 -14 -5 -38 -10 -18 -15
-35 -13 -37 5 -5 36 62 36 78 0 7 12 32 26 56 14 24 24 49 21 56 -2 7 -7 2
-11 -10z"/>
<path d="M420 1590 c-25 -25 -25 -45 1 -71 28 -28 63 -22 67 14 3 22 -1 27
-17 27 -12 0 -21 -4 -21 -10 0 -5 7 -10 15 -10 8 0 15 -5 15 -11 0 -6 -12 -9
-27 -7 -24 3 -28 8 -28 33 0 27 4 30 33 33 18 2 30 8 27 13 -10 16 -44 10 -65
-11z"/>
<path d="M600 1555 c0 -30 5 -55 10 -55 6 0 10 25 10 55 0 30 -4 55 -10 55 -5
0 -10 -25 -10 -55z"/>
<path d="M1085 1600 c-30 -8 -30 -8 8 -9 20 0 37 4 37 9 0 11 -2 11 -45 0z"/>
<path d="M2343 1594 c-4 -11 -8 -12 -13 -4 -13 21 -17 -4 -5 -28 l13 -23 6 25
c3 14 11 26 16 26 6 0 10 5 10 10 0 16 -20 12 -27 -6z"/>
<path d="M2405 1589 c-4 -6 -5 -12 -2 -15 2 -3 7 2 10 11 7 17 1 20 -8 4z"/>
<path d="M1190 1581 c0 -5 -8 -12 -17 -14 -15 -4 -15 -5 -2 -6 9 0 22 6 29 14
9 10 9 15 1 15 -6 0 -11 -4 -11 -9z"/>
<path d="M517 1573 c-9 -9 -9 -63 1 -65 4 0 19 -2 35 -3 25 -2 27 1 27 36 0
36 -2 39 -28 39 -16 0 -32 -3 -35 -7z m49 -18 c4 -8 0 -22 -7 -31 -11 -13 -14
-13 -27 0 -17 17 -9 46 13 46 9 0 18 -7 21 -15z"/>
<path d="M644 1566 c-3 -8 -4 -25 -2 -38 3 -26 43 -38 62 -18 8 9 6 11 -9 10
-32 -4 -45 -1 -45 10 0 6 14 10 31 10 24 0 30 3 25 16 -3 9 -6 18 -6 20 0 11
-51 2 -56 -10z m41 -6 c3 -5 -3 -10 -15 -10 -12 0 -18 5 -15 10 3 6 10 10 15
10 5 0 12 -4 15 -10z"/>
<path d="M722 1545 c-1 -19 3 -37 8 -40 6 -4 10 7 10 24 0 18 7 34 18 40 15 9
14 10 -9 11 -23 0 -26 -4 -27 -35z"/>
<path d="M788 1544 c-2 -19 0 -37 4 -40 4 -3 8 13 8 35 0 51 -6 53 -12 5z"/>
<path d="M824 1566 c-3 -8 -4 -25 -2 -38 2 -18 9 -23 36 -24 31 -1 32 1 32 38
0 36 -2 38 -30 38 -17 0 -33 -6 -36 -14z m50 -12 c8 -21 -1 -34 -25 -34 -12 0
-19 7 -19 18 0 34 33 45 44 16z"/>
<path d="M2301 1559 c-1 -9 -8 -19 -16 -23 -8 -3 -15 -13 -14 -23 0 -14 2 -15
6 -3 4 8 13 20 21 26 8 6 12 17 9 25 -4 11 -6 10 -6 -2z"/>
<path d="M1221 1548 c-1 -10 -6 -18 -12 -18 -5 0 -8 4 -5 8 3 5 -1 9 -9 9 -20
0 -19 -16 1 -24 19 -7 38 10 31 29 -4 9 -6 7 -6 -4z"/>
<path d="M1383 1548 c-12 -15 -24 -48 -18 -48 2 0 10 14 19 30 15 32 15 38 -1
18z"/>
<path d="M1475 1550 c-17 -28 -22 -159 -7 -186 6 -12 8 -24 5 -28 -3 -3 -1 -6
7 -6 10 0 10 -3 0 -15 -6 -8 -9 -19 -5 -25 3 -5 3 -15 -1 -22 -4 -7 -9 -24
-10 -38 -3 -21 -1 -22 7 -7 6 9 8 21 4 26 -3 5 0 13 6 16 5 4 8 13 5 21 -8 20
7 17 27 -6 9 -11 14 -28 11 -37 -4 -13 -3 -14 3 -5 7 10 13 8 27 -7 10 -11 15
-24 11 -30 -3 -7 0 -8 9 -5 12 5 16 0 16 -20 0 -14 5 -26 11 -26 5 0 7 5 4 10
-9 15 4 12 21 -5 9 -8 25 -15 36 -15 19 0 19 -1 4 -24 -10 -15 -12 -27 -6 -31
6 -3 10 1 10 9 0 9 7 16 15 16 16 0 21 -15 8 -23 -5 -2 -3 -2 4 -1 6 2 14 0
16 -4 5 -9 -1 13 -10 36 -6 14 -4 15 9 4 8 -7 23 -10 32 -6 11 4 16 1 16 -10
0 -10 5 -13 17 -9 11 4 14 3 9 -6 -5 -7 -18 -16 -30 -21 -14 -6 -16 -9 -5 -9
9 -1 24 8 33 18 10 11 25 17 36 14 10 -3 27 0 37 6 16 9 15 10 -7 9 -33 -1
-246 58 -220 61 3 1 -18 26 -47 57 -29 32 -50 61 -46 67 3 6 1 7 -4 4 -14 -9
-56 71 -50 95 3 10 1 16 -3 13 -5 -3 -7 13 -4 35 2 22 6 58 8 80 5 41 2 48 -9
30z"/>
<path d="M1020 1515 c-4 -34 -1 -43 20 -57 17 -12 20 -18 10 -18 -9 0 -20 4
-25 9 -6 6 -10 -27 -10 -90 l0 -100 50 7 c28 3 53 8 57 11 17 9 49 99 43 120
-4 18 -13 23 -35 23 -31 0 -73 27 -64 42 3 5 2 8 -3 7 -25 -4 -32 5 -35 44
l-4 42 -4 -40z m65 -106 c-3 -4 4 -6 15 -4 28 5 50 -4 50 -20 0 -19 -7 -22
-67 -30 l-53 -7 0 36 c0 39 25 62 47 44 7 -6 10 -14 8 -19z m42 -92 c-6 -13
-16 -24 -21 -25 -62 -8 -71 -7 -74 15 -3 23 11 29 75 32 29 1 30 0 20 -22z"/>
<path d="M2402 1530 c0 -14 2 -19 5 -12 2 6 2 18 0 25 -3 6 -5 1 -5 -13z"/>
<path d="M1150 1524 c0 -8 5 -12 10 -9 6 4 8 11 5 16 -9 14 -15 11 -15 -7z"/>
<path d="M2532 1493 c-11 -41 -25 -138 -16 -113 3 8 8 22 11 30 3 8 7 22 8 30
1 8 5 32 9 53 4 20 5 37 3 37 -2 0 -9 -17 -15 -37z"/>
<path d="M2245 1510 c-3 -5 -1 -10 4 -10 6 0 11 5 11 10 0 6 -2 10 -4 10 -3 0
-8 -4 -11 -10z"/>
<path d="M2370 1500 c-9 -6 -10 -10 -3 -10 6 0 15 5 18 10 8 12 4 12 -15 0z"/>
<path d="M291 1484 c0 -11 3 -14 6 -6 3 7 2 16 -1 19 -3 4 -6 -2 -5 -13z"/>
<path d="M2302 1480 c0 -14 2 -19 5 -12 2 6 2 18 0 25 -3 6 -5 1 -5 -13z"/>
<path d="M2275 1479 c-4 -6 -5 -12 -2 -15 2 -3 7 2 10 11 7 17 1 20 -8 4z"/>
<path d="M1323 1473 c-7 -2 -13 -8 -13 -13 0 -10 38 -1 46 11 6 10 -13 11 -33
2z"/>
<path d="M1160 1459 c0 -5 5 -7 10 -4 6 3 10 8 10 11 0 2 -4 4 -10 4 -5 0 -10
-5 -10 -11z"/>
<path d="M1401 1444 c0 -11 3 -14 6 -6 3 7 2 16 -1 19 -3 4 -6 -2 -5 -13z"/>
<path d="M1425 1440 c-3 -5 -2 -10 4 -10 5 0 13 5 16 10 3 6 2 10 -4 10 -5 0
-13 -4 -16 -10z"/>
<path d="M2480 1445 c0 -5 5 -17 10 -25 5 -8 10 -10 10 -5 0 6 -5 17 -10 25
-5 8 -10 11 -10 5z"/>
<path d="M1310 1435 c-10 -53 -10 -60 1 -42 6 10 8 25 6 35 -3 9 -6 13 -7 7z"/>
<path d="M291 1414 c0 -11 3 -14 6 -6 3 7 2 16 -1 19 -3 4 -6 -2 -5 -13z"/>
<path d="M1363 1419 c3 -9 -4 -24 -15 -33 -13 -11 -16 -21 -11 -29 15 -20 10
-62 -7 -59 -11 2 -10 -2 4 -12 10 -8 16 -18 13 -23 -2 -4 -1 -17 3 -28 5 -12
8 14 7 63 0 55 4 87 12 95 11 10 12 3 7 -38 -7 -57 7 -34 18 30 4 25 3 35 -2
26 -8 -11 -12 -10 -22 5 -8 13 -10 14 -7 3z"/>
<path d="M2332 1400 c0 -19 2 -27 5 -17 2 9 2 25 0 35 -3 9 -5 1 -5 -18z"/>
<path d="M1222 1402 c4 -17 -15 -81 -22 -77 -5 3 -6 -4 -3 -15 3 -11 10 -20
15 -20 5 0 6 -6 1 -12 -4 -7 5 -5 20 5 28 18 38 8 12 -13 -8 -7 -15 -20 -15
-29 0 -10 9 -3 22 17 19 31 20 35 4 50 -15 15 -16 15 -16 -1 0 -9 -5 -17 -11
-17 -15 0 -5 90 11 100 8 5 7 9 -4 13 -9 4 -15 3 -14 -1z"/>
<path d="M1266 1402 c-3 -5 1 -9 9 -9 8 0 12 4 9 9 -3 4 -7 8 -9 8 -2 0 -6 -4
-9 -8z"/>
<path d="M2450 1406 c0 -2 7 -7 16 -10 8 -3 12 -2 9 4 -6 10 -25 14 -25 6z"/>
<path d="M530 1385 c-15 -17 -6 -33 26 -45 35 -14 31 -34 -6 -26 -37 7 -40
-11 -4 -20 30 -8 58 14 49 38 -4 9 -17 19 -31 22 -13 4 -24 11 -24 16 0 16 20
22 35 10 8 -6 16 -7 19 -2 13 22 -46 29 -64 7z"/>
<path d="M2300 1385 c0 -8 2 -15 4 -15 2 0 6 7 10 15 3 8 1 15 -4 15 -6 0 -10
-7 -10 -15z"/>
<path d="M2421 1384 c0 -11 3 -14 6 -6 3 7 2 16 -1 19 -3 4 -6 -2 -5 -13z"/>
<path d="M626 1368 c-19 -11 -21 -51 -3 -66 7 -6 22 -10 34 -9 17 1 22 9 25
38 3 32 0 38 -18 42 -12 2 -29 0 -38 -5z m42 -31 c4 -20 -25 -34 -40 -19 -15
15 -1 44 19 40 10 -2 19 -11 21 -21z"/>
<path d="M722 1372 c-18 -3 -22 -9 -20 -35 2 -48 12 -57 18 -17 6 43 35 49 35
8 1 -15 4 -30 8 -34 4 -4 7 11 7 33 0 43 -9 51 -48 45z"/>
<path d="M1280 1370 c0 -5 5 -10 11 -10 5 0 7 5 4 10 -3 6 -8 10 -11 10 -2 0
-4 -4 -4 -10z"/>
<path d="M1406 1345 c4 -8 0 -25 -9 -38 -12 -18 -12 -25 -2 -34 10 -9 14 -9
19 3 3 9 1 12 -4 9 -6 -3 -10 -4 -10 -1 0 12 25 62 35 68 5 4 0 8 -12 8 -16 0
-21 -4 -17 -15z"/>
<path d="M2405 1350 c4 -6 11 -8 16 -5 14 9 11 15 -7 15 -8 0 -12 -5 -9 -10z"/>
<path d="M1261 1334 c0 -11 3 -14 6 -6 3 7 2 16 -1 19 -3 4 -6 -2 -5 -13z"/>
<path d="M1282 1330 c0 -14 2 -19 5 -12 2 6 2 18 0 25 -3 6 -5 1 -5 -13z"/>
<path d="M2570 1340 c-12 -7 -12 -12 -2 -22 9 -9 12 -9 12 5 0 9 5 17 10 17
15 0 12 -16 -5 -34 -14 -13 -13 -15 3 -13 12 1 18 9 17 26 0 27 -13 35 -35 21z"/>
<path d="M2413 1316 c-9 -11 -9 -15 0 -19 7 -3 14 3 14 14 2 22 2 22 -14 5z"/>
<path d="M1160 1285 c-11 -13 -10 -14 4 -9 9 3 16 10 16 15 0 13 -6 11 -20 -6z"/>
<path d="M1430 1258 c0 -10 4 -18 9 -18 5 0 11 8 13 18 3 11 0 19 -8 19 -8 0
-14 -9 -14 -19z"/>
<path d="M2220 1270 c-13 -8 -13 -10 2 -10 9 0 20 5 23 10 8 13 -5 13 -25 0z"/>
<path d="M2293 1265 c-8 -23 0 -24 20 -3 14 15 15 18 2 18 -9 0 -18 -7 -22
-15z"/>
<path d="M2355 1270 c-3 -5 -2 -10 4 -10 5 0 13 5 16 10 3 6 2 10 -4 10 -5 0
-13 -4 -16 -10z"/>
<path d="M2390 1268 c0 -6 3 -8 7 -5 3 4 11 3 17 -2 6 -6 56 -19 111 -30 55
-12 104 -26 110 -33 7 -8 5 -9 -10 -4 -39 14 -177 37 -203 34 -14 -2 -27 -8
-29 -14 -5 -14 29 -13 38 0 4 4 14 4 23 -1 15 -8 11 -17 -29 -74 -25 -35 -71
-87 -102 -115 -30 -29 -53 -58 -51 -65 3 -9 18 0 46 28 22 22 48 43 57 47 9 3
14 10 11 14 -6 10 30 46 54 55 12 4 11 6 -2 6 -19 1 -24 16 -9 25 5 4 11 0 14
-6 2 -7 8 -1 12 15 4 15 11 27 17 27 5 0 7 4 4 8 -2 4 -1 14 5 22 5 8 9 10 9
4 0 -6 7 -11 15 -11 8 0 11 5 8 10 -4 6 1 8 11 4 10 -4 20 -7 22 -7 2 0 4 -4
4 -10 0 -5 -7 -10 -15 -10 -8 0 -15 -4 -15 -10 0 -15 44 -7 51 9 4 10 12 7 34
-13 25 -23 26 -30 3 -28 -3 1 -9 -5 -12 -14 -4 -10 -2 -13 6 -8 8 5 9 2 5 -9
-3 -10 -2 -17 3 -17 5 0 7 -7 4 -15 -4 -8 -9 -13 -13 -10 -4 2 -8 -2 -8 -10 0
-8 5 -11 10 -8 6 4 8 -1 4 -11 -4 -10 -7 -20 -7 -23 0 -3 -7 0 -16 8 -13 10
-17 10 -24 -2 -7 -11 -12 -11 -22 -1 -6 6 -16 12 -21 12 -5 0 2 -9 17 -21 14
-11 24 -24 22 -28 -3 -4 1 -8 9 -8 10 0 11 5 5 17 -12 22 -2 33 15 17 15 -15
26 -129 12 -120 -6 3 -7 1 -3 -6 4 -6 8 -43 9 -81 2 -77 2 -77 -62 -61 -20 5
-74 17 -121 27 -47 9 -128 27 -180 40 -52 13 -104 24 -117 24 -13 0 -23 5 -23
11 0 5 -4 7 -10 4 -5 -3 -17 -2 -26 3 -12 7 5 16 70 37 47 15 83 32 79 37 -3
6 3 7 16 3 12 -3 21 -2 21 4 0 5 3 17 6 26 5 11 -8 7 -42 -14 -27 -17 -83 -43
-124 -58 -70 -26 -86 -28 -225 -27 -118 0 -159 3 -194 17 -24 9 -46 15 -48 13
-6 -6 54 -32 91 -41 15 -3 26 -8 24 -11 -6 -5 -179 -35 -226 -38 -18 -2 -35
-6 -39 -10 -11 -11 -45 -7 -37 5 3 6 -4 4 -17 -4 -23 -14 -54 -21 -145 -32
-36 -4 -43 -2 -49 18 -13 40 -15 68 -3 61 7 -4 8 -2 4 4 -4 7 -14 12 -23 12
-10 0 -13 6 -9 16 4 9 1 24 -6 32 -8 10 -9 13 -2 9 17 -10 25 19 14 49 -13 34
-13 39 5 24 8 -7 15 -19 15 -28 0 -8 3 -12 6 -9 4 3 16 2 28 -4 13 -6 9 1 -11
19 -37 32 -42 44 -15 36 16 -5 16 -5 -1 6 -9 6 -14 16 -11 22 4 7 2 8 -5 4 -6
-4 -8 -12 -5 -18 4 -6 1 -8 -7 -6 -8 3 -13 11 -11 18 2 7 -5 22 -15 33 -18 20
-18 20 7 7 23 -12 24 -12 11 3 -7 10 -10 17 -6 17 5 0 1 8 -8 18 -10 10 -14
22 -10 25 3 4 -2 14 -13 22 -16 12 -16 14 -3 15 9 0 21 6 27 13 15 17 74 16
79 -3 4 -13 3 -13 -6 0 -6 8 -11 11 -11 6 0 -9 19 -31 105 -118 68 -69 80 -78
117 -103 15 -9 25 -22 21 -28 -4 -6 0 -8 11 -4 10 4 24 -1 36 -13 11 -11 27
-20 36 -20 8 0 12 -4 9 -10 -3 -5 1 -10 9 -10 16 0 31 18 23 26 -3 3 -14 6
-26 7 -11 1 -21 5 -21 10 0 5 -7 6 -16 3 -8 -3 -13 -2 -10 3 3 5 -23 27 -58
50 -35 23 -82 62 -105 86 -23 25 -47 45 -52 45 -6 0 -8 4 -5 9 4 5 -4 22 -17
38 -13 15 -26 36 -30 45 -10 27 -56 34 -91 14 -18 -11 -33 -13 -39 -7 -6 6 -1
13 13 21 12 6 19 14 17 17 -4 4 -36 -12 -66 -34 -2 -1 6 -24 17 -50 11 -26 33
-124 48 -218 20 -122 33 -174 46 -187 17 -17 17 -18 -2 -18 -12 0 -20 7 -20
17 0 11 -3 13 -9 7 -6 -5 -4 -28 3 -59 l13 -50 69 1 c93 1 610 99 630 119 19
19 31 20 15 1 -10 -12 -6 -14 21 -13 34 1 540 -118 570 -134 10 -5 25 -9 33
-9 9 0 14 -3 12 -7 -9 -14 68 -14 85 -1 23 19 32 125 11 137 -14 7 -15 31 -10
187 4 115 11 196 21 227 14 48 12 82 -4 72 -5 -3 -28 1 -52 10 -24 8 -59 15
-78 15 -19 0 -48 7 -64 15 -34 18 -66 20 -66 3z m-205 -468 c72 -16 177 -43
235 -59 120 -34 155 -38 190 -24 16 7 26 7 29 1 5 -14 -19 -27 -36 -21 -7 3
-13 -2 -13 -11 0 -14 10 -20 30 -18 3 0 6 -8 6 -19 0 -19 -1 -20 -14 -2 -12
16 -13 16 -7 -8 6 -24 4 -25 -29 -21 -20 2 -36 9 -36 16 0 6 -8 13 -17 14 -10
1 -31 4 -48 6 -16 2 -45 4 -64 5 -25 1 -32 5 -27 16 4 13 2 13 -14 5 -25 -13
-33 -13 -24 2 4 7 3 8 -4 4 -7 -4 -17 -4 -24 0 -11 7 -26 10 -78 15 -8 1 -20
6 -26 10 -6 5 -33 11 -59 14 -27 2 -51 9 -55 15 -4 7 -16 11 -26 10 -36 -4
-55 0 -49 10 4 7 -2 9 -19 4 -17 -4 -26 -2 -26 6 0 6 -8 9 -17 6 -10 -3 -25
-1 -33 4 -13 9 -13 11 0 20 8 5 10 10 5 10 -6 0 -18 -9 -27 -19 -11 -13 -24
-18 -40 -14 -19 4 -20 3 -8 -7 12 -9 10 -11 -12 -7 -15 2 -25 0 -22 -5 6 -9
-38 -4 -56 7 -5 3 -10 2 -10 -3 0 -5 -15 -7 -32 -5 -25 3 -30 2 -18 -6 13 -9
13 -11 -2 -11 -25 0 -33 4 -30 13 1 5 -2 6 -8 2 -6 -3 -8 -10 -5 -15 2 -4 -14
-8 -37 -8 -27 -1 -45 -6 -50 -16 -15 -27 -35 -18 -36 15 -1 36 -11 52 -13 21
-3 -52 -12 -61 -60 -56 -22 2 -38 0 -36 -4 3 -4 -11 -7 -32 -8 -20 -1 -28 1
-18 3 9 3 17 9 17 14 0 10 -68 -15 -84 -31 -5 -5 -30 -7 -55 -5 -38 4 -41 3
-16 -4 l30 -9 -28 -1 c-21 -1 -30 5 -37 25 -11 29 -6 44 16 44 8 0 14 3 14 8
0 4 21 8 48 9 40 2 314 50 477 84 28 6 78 8 113 6 37 -3 65 -1 68 5 9 14 82 4
239 -32z"/>
<path d="M2023 794 c0 -16 6 -17 25 -5 11 6 9 9 -5 13 -12 3 -20 0 -20 -8z"/>
<path d="M1680 790 c-23 -7 -23 -8 -3 -9 12 -1 25 4 28 9 3 6 5 10 3 9 -2 -1
-14 -5 -28 -9z"/>
<path d="M2095 767 c22 -8 42 -12 44 -10 9 7 -8 14 -45 19 l-39 4 40 -13z"/>
<path d="M2155 761 c14 -14 68 -18 72 -5 2 6 -15 11 -39 13 -28 1 -39 -1 -33
-8z"/>
<path d="M2298 743 c7 -3 16 -2 19 1 4 3 -2 6 -13 5 -11 0 -14 -3 -6 -6z"/>
<path d="M2226 732 c-3 -5 1 -9 9 -9 8 0 15 4 15 9 0 4 -4 8 -9 8 -6 0 -12 -4
-15 -8z"/>
<path d="M2380 706 c0 -2 7 -7 16 -10 8 -3 12 -2 9 4 -6 10 -25 14 -25 6z"/>
<path d="M2447 699 c7 -7 15 -10 18 -7 3 3 -2 9 -12 12 -14 6 -15 5 -6 -5z"/>
<path d="M2540 682 c0 -4 4 -13 9 -20 6 -10 10 -10 20 1 9 12 7 16 -9 20 -11
3 -20 2 -20 -1z"/>
<path d="M2580 1269 c0 -5 4 -8 9 -4 5 3 12 1 16 -5 3 -5 12 -10 18 -10 7 0 3
7 -7 15 -23 18 -36 19 -36 4z"/>
<path d="M1261 1247 c-6 -8 -8 -16 -5 -20 10 -9 34 4 34 19 0 18 -14 18 -29 1z"/>
<path d="M1001 1140 c-9 -310 -4 -731 9 -705 3 6 3 192 0 415 -3 223 -7 353
-9 290z"/>
<path d="M1411 1232 c-1 -19 -5 -22 -23 -16 -20 6 -21 5 -9 -10 13 -15 8 -21
-13 -17 -5 1 -3 -6 4 -16 22 -28 23 -29 18 -13 -3 8 3 25 14 37 11 11 18 29
15 40 -4 14 -5 13 -6 -5z"/>
<path d="M2215 1220 c-4 -12 -11 -17 -18 -13 -7 4 -6 -1 2 -10 14 -18 22 -22
19 -9 -3 14 14 42 23 36 5 -3 9 0 9 5 0 19 -28 12 -35 -9z"/>
<path d="M1441 1216 c-1 -10 -9 -25 -18 -32 -10 -7 -13 -14 -6 -14 6 0 14 4
18 10 3 5 12 7 19 4 8 -3 17 0 22 7 4 8 3 10 -5 5 -7 -4 -15 2 -20 16 -8 19
-10 20 -10 4z"/>
<path d="M2270 1215 c-11 -13 -10 -14 4 -9 9 3 16 10 16 15 0 13 -6 11 -20 -6z"/>
<path d="M1310 1209 c0 -5 5 -7 10 -4 6 3 10 8 10 11 0 2 -4 4 -10 4 -5 0 -10
-5 -10 -11z"/>
<path d="M294 1085 c0 -71 1 -99 3 -62 2 37 2 96 0 130 -2 34 -3 4 -3 -68z"/>
<path d="M2067 1176 c-36 -30 -103 -56 -147 -56 -11 0 -29 -9 -40 -20 -26 -26
-25 -34 3 -18 12 6 27 13 32 14 6 1 19 6 30 10 18 7 18 6 6 -9 -7 -9 -9 -17
-4 -17 6 0 15 10 22 23 10 20 11 19 7 -13 l-5 -35 16 33 c9 17 22 31 28 30 6
-2 17 3 25 10 8 7 24 20 36 30 11 9 24 24 27 32 4 8 6 1 4 -17 -4 -40 9 -34
15 7 6 38 -7 38 -55 -4z"/>
<path d="M2365 1200 c-3 -5 -1 -10 4 -10 6 0 11 5 11 10 0 6 -2 10 -4 10 -3 0
-8 -4 -11 -10z"/>
<path d="M1514 1192 c4 -3 14 -7 22 -8 9 -1 13 0 10 4 -4 3 -14 7 -22 8 -9 1
-13 0 -10 -4z"/>
<path d="M430 1141 c0 -60 19 -80 22 -22 0 23 1 46 2 53 1 6 -5 13 -11 16 -9
2 -13 -11 -13 -47z"/>
<path d="M504 1165 c-13 -20 -19 -23 -30 -14 -17 14 -18 5 -3 -23 11 -20 11
-20 29 8 l19 27 4 -44 c3 -40 4 -39 5 14 1 31 0 57 -3 57 -2 0 -12 -11 -21
-25z"/>
<path d="M711 1172 c-8 -14 -8 -22 -1 -22 6 0 8 -10 5 -23 -7 -26 18 -56 30
-37 3 5 1 10 -4 10 -6 0 -11 11 -11 25 0 14 6 25 13 25 8 0 9 3 1 8 -6 4 -13
14 -16 22 -4 12 -7 10 -17 -8z"/>
<path d="M761 1141 c-1 -27 3 -52 9 -56 6 -4 10 14 10 49 0 69 -16 75 -19 7z"/>
<path d="M1556 1165 c-9 -26 -7 -32 5 -12 6 10 9 21 6 23 -2 3 -7 -2 -11 -11z"/>
<path d="M568 1159 c-42 -24 -8 -85 40 -72 17 4 22 13 22 39 0 19 -4 34 -9 34
-5 0 -15 2 -23 5 -7 2 -21 0 -30 -6z m37 -34 c0 -11 -8 -21 -17 -23 -14 -3
-18 3 -18 23 0 20 4 26 18 23 9 -2 17 -12 17 -23z"/>
<path d="M652 1120 c1 -37 2 -39 5 -12 3 18 11 36 19 39 21 8 17 22 -6 20 -17
-1 -20 -8 -18 -47z"/>
<path d="M800 1121 c0 -24 3 -41 7 -37 4 4 7 19 8 34 0 17 6 28 17 30 13 2 18
-6 20 -35 3 -30 6 -34 12 -19 15 31 -5 71 -37 71 -25 1 -27 -2 -27 -44z"/>
<path d="M1435 1160 c-4 -6 -11 -8 -16 -5 -5 4 -9 1 -9 -4 0 -17 27 -13 34 4
6 17 0 20 -9 5z"/>
<path d="M1470 1161 c0 -5 5 -13 10 -16 6 -3 10 -2 10 4 0 5 -4 13 -10 16 -5
3 -10 2 -10 -4z"/>
<path d="M2165 1160 c-2 -3 5 -6 15 -7 11 -1 22 2 25 7 3 5 -4 8 -16 7 -11 -1
-22 -4 -24 -7z"/>
<path d="M2214 1125 c-10 -8 -14 -15 -8 -15 6 0 17 7 24 15 16 19 9 19 -16 0z"/>
<path d="M1250 1110 c6 -11 13 -20 16 -20 2 0 0 9 -6 20 -6 11 -13 20 -16 20
-2 0 0 -9 6 -20z"/>
<path d="M1456 1115 c4 -8 11 -15 16 -15 6 0 5 6 -2 15 -7 8 -14 15 -16 15 -2
0 -1 -7 2 -15z"/>
<path d="M1539 1122 c9 -7 10 -11 2 -15 -7 -4 -8 -5 0 -3 15 2 13 20 -3 24
-10 3 -10 2 1 -6z"/>
<path d="M2108 1093 c5 -59 10 -63 11 -10 1 26 -3 47 -7 47 -4 0 -6 -17 -4
-37z"/>
<path d="M1500 1109 c0 -5 5 -7 10 -4 6 3 10 8 10 11 0 2 -4 4 -10 4 -5 0 -10
-5 -10 -11z"/>
<path d="M2490 1085 c-13 -14 -18 -25 -12 -25 7 0 12 5 12 11 0 5 5 7 10 4 6
-4 9 -1 8 7 -2 7 3 12 10 10 8 -1 11 2 7 8 -8 13 -8 14 -35 -15z"/>
<path d="M1200 1079 c0 -5 4 -9 9 -9 5 0 17 -3 27 -7 11 -4 15 -3 11 4 -9 14
-47 24 -47 12z"/>
<path d="M1437 1075 c-4 -8 -2 -17 3 -20 6 -4 10 3 10 14 0 25 -6 27 -13 6z"/>
<path d="M1510 1086 c0 -2 7 -7 16 -10 8 -3 12 -2 9 4 -6 10 -25 14 -25 6z"/>
<path d="M1570 1081 c0 -6 4 -13 10 -16 6 -3 7 1 4 9 -7 18 -14 21 -14 7z"/>
<path d="M2007 1083 c-4 -3 -7 -11 -7 -17 0 -6 5 -5 12 2 6 6 9 14 7 17 -3 3
-9 2 -12 -2z"/>
<path d="M2182 1060 c-7 -11 -9 -20 -4 -20 4 0 13 9 20 20 7 11 9 20 4 20 -4
0 -13 -9 -20 -20z"/>
<path d="M1626 1062 c-3 -5 1 -9 9 -9 8 0 15 4 15 9 0 4 -4 8 -9 8 -6 0 -12
-4 -15 -8z"/>
<path d="M1678 1058 c5 -5 16 -8 23 -6 8 3 3 7 -10 11 -17 4 -21 3 -13 -5z"/>
<path d="M2016 1055 c-11 -8 -15 -15 -9 -15 6 0 16 7 23 15 16 19 11 19 -14 0z"/>
<path d="M2141 1054 c0 -11 3 -14 6 -6 3 7 2 16 -1 19 -3 4 -6 -2 -5 -13z"/>
<path d="M2509 1053 c-13 -16 -12 -17 4 -4 16 13 21 21 13 21 -2 0 -10 -8 -17
-17z"/>
<path d="M1830 1049 c0 -5 5 -7 10 -4 6 3 10 8 10 11 0 2 -4 4 -10 4 -5 0 -10
-5 -10 -11z"/>
<path d="M2401 1044 c0 -11 3 -14 6 -6 3 7 2 16 -1 19 -3 4 -6 -2 -5 -13z"/>
<path d="M1310 1039 c0 -5 5 -7 10 -4 6 3 10 8 10 11 0 2 -4 4 -10 4 -5 0 -10
-5 -10 -11z"/>
<path d="M1761 1031 c-8 -6 -9 -11 -3 -15 6 -3 14 -1 17 5 9 14 2 20 -14 10z"/>
<path d="M1245 1020 c-3 -6 1 -7 9 -4 18 7 21 14 7 14 -6 0 -13 -4 -16 -10z"/>
<path d="M1488 1013 c6 -2 18 -2 25 0 6 3 1 5 -13 5 -14 0 -19 -2 -12 -5z"/>
<path d="M1620 1011 c0 -8 -8 -10 -22 -6 -21 5 -21 5 -5 -6 20 -11 48 3 34 18
-4 3 -7 1 -7 -6z"/>
<path d="M2230 1010 c-9 -6 -10 -10 -3 -10 6 0 15 5 18 10 8 12 4 12 -15 0z"/>
<path d="M1350 993 c0 -14 2 -15 9 -4 6 9 11 10 15 2 4 -6 15 -11 24 -11 12 1
10 5 -8 15 -33 19 -40 18 -40 -2z"/>
<path d="M1276 983 c-6 -14 -5 -15 5 -6 7 7 10 15 7 18 -3 3 -9 -2 -12 -12z"/>
<path d="M372 975 c-26 -19 -29 -57 -6 -79 18 -19 60 -21 70 -5 5 8 -1 10 -18
6 -31 -8 -51 12 -46 45 2 17 10 23 30 23 15 1 30 4 34 8 4 4 2 7 -4 7 -5 0
-16 2 -24 5 -7 3 -23 -2 -36 -10z"/>
<path d="M660 971 c0 -14 -6 -17 -24 -14 -30 6 -48 -22 -35 -55 7 -17 15 -22
39 -20 29 2 30 3 30 55 0 29 -2 53 -5 53 -3 0 -5 -8 -5 -19z m-6 -44 c8 -13 7
-20 -4 -27 -8 -5 -19 -10 -23 -10 -12 0 -20 28 -13 46 7 19 25 15 40 -9z"/>
<path d="M780 934 l0 -55 31 3 c39 4 59 30 43 56 -7 9 -21 17 -33 16 -14 0
-21 5 -21 18 0 10 -4 18 -10 18 -5 0 -10 -25 -10 -56z m55 -14 c0 -13 -6 -25
-12 -27 -16 -6 -27 21 -19 43 9 23 31 11 31 -16z"/>
<path d="M1310 981 c0 -5 7 -12 16 -15 14 -5 15 -4 4 9 -14 17 -20 19 -20 6z"/>
<path d="M1625 980 c-3 -5 -1 -10 4 -10 6 0 11 5 11 10 0 6 -2 10 -4 10 -3 0
-8 -4 -11 -10z"/>
<path d="M1720 969 c0 -5 5 -7 10 -4 6 3 10 8 10 11 0 2 -4 4 -10 4 -5 0 -10
-5 -10 -11z"/>
<path d="M2410 976 c0 -2 7 -7 16 -10 8 -3 12 -2 9 4 -6 10 -25 14 -25 6z"/>
<path d="M1410 965 c0 -2 10 -10 23 -16 20 -11 21 -11 8 4 -13 16 -31 23 -31
12z"/>
<path d="M2120 955 c-11 -13 -10 -14 4 -9 9 3 16 10 16 15 0 13 -6 11 -20 -6z"/>
<path d="M2384 955 c-4 -8 -11 -12 -17 -8 -6 3 -7 1 -3 -5 10 -16 14 -15 26 8
6 11 8 20 5 20 -3 0 -8 -7 -11 -15z"/>
<path d="M450 940 c-16 -31 4 -62 38 -58 21 2 28 9 30 32 5 45 -47 65 -68 26z
m60 -25 c0 -15 -27 -28 -41 -19 -13 8 -11 42 4 47 15 5 37 -11 37 -28z"/>
<path d="M540 918 c0 -21 4 -38 9 -38 4 0 6 11 4 24 -4 17 2 28 18 40 l24 16
-28 -2 c-24 -2 -27 -6 -27 -40z"/>
<path d="M700 946 c-6 -8 -10 -25 -8 -38 4 -32 52 -38 68 -9 22 43 -29 83 -60
47z m48 -20 c6 -29 -15 -43 -35 -24 -14 14 -14 20 -3 33 16 19 34 15 38 -9z"/>
<path d="M880 944 c-7 -7 -9 -25 -6 -39 5 -20 12 -24 40 -23 31 1 33 3 34 38
2 34 0 37 -27 38 -17 0 -35 -6 -41 -14z m48 -18 c6 -29 -15 -43 -35 -24 -14
14 -14 20 -3 33 16 19 34 15 38 -9z"/>
<path d="M1341 947 c2 -1 13 -9 24 -17 19 -14 19 -14 6 3 -7 9 -18 17 -24 17
-6 0 -8 -1 -6 -3z"/>
<path d="M1596 941 c-3 -5 2 -15 12 -22 15 -12 16 -12 5 2 -7 9 -10 19 -6 22
3 4 4 7 0 7 -3 0 -8 -4 -11 -9z"/>
<path d="M2488 928 c-10 -10 -14 -18 -9 -18 10 0 36 29 30 34 -2 1 -12 -6 -21
-16z"/>
<path d="M2550 911 c0 -31 -4 -41 -20 -46 -11 -3 -20 -11 -20 -18 0 -8 3 -8
12 1 7 7 19 12 28 12 12 0 17 11 18 39 2 22 -2 42 -8 46 -6 4 -10 -9 -10 -34z"/>
<path d="M1281 926 c-9 -11 -7 -15 9 -19 16 -4 19 -2 11 7 -6 7 -8 16 -4 19 3
4 4 7 1 7 -3 0 -11 -6 -17 -14z"/>
<path d="M1910 920 c0 -11 4 -20 9 -20 6 0 9 9 8 20 -1 11 -5 20 -9 20 -4 0
-8 -9 -8 -20z"/>
<path d="M1995 930 c-3 -5 -1 -10 4 -10 6 0 11 5 11 10 0 6 -2 10 -4 10 -3 0
-8 -4 -11 -10z"/>
<path d="M280 910 c0 -5 5 -10 10 -10 6 0 10 5 10 10 0 6 -4 10 -10 10 -5 0
-10 -4 -10 -10z"/>
<path d="M1215 910 c3 -5 15 -15 26 -21 19 -10 20 -9 9 10 -6 12 -18 21 -26
21 -8 0 -12 -4 -9 -10z"/>
<path d="M1393 905 c0 -8 4 -12 9 -9 5 3 6 10 3 15 -9 13 -12 11 -12 -6z"/>
<path d="M1635 910 c-3 -5 -1 -10 4 -10 6 0 11 5 11 10 0 6 -2 10 -4 10 -3 0
-8 -4 -11 -10z"/>
<path d="M1835 900 c-3 -6 1 -7 9 -4 18 7 21 14 7 14 -6 0 -13 -4 -16 -10z"/>
<path d="M2460 890 c0 -5 5 -10 10 -10 6 0 10 5 10 10 0 6 -4 10 -10 10 -5 0
-10 -4 -10 -10z"/>
<path d="M1430 875 c0 -8 2 -15 4 -15 2 0 6 7 10 15 3 8 1 15 -4 15 -6 0 -10
-7 -10 -15z"/>
<path d="M1220 870 c-12 -7 -10 -9 7 -7 12 0 19 5 17 9 -6 10 -6 10 -24 -2z"/>
<path d="M1321 877 c2 -1 13 -9 24 -17 19 -14 19 -14 6 3 -7 9 -18 17 -24 17
-6 0 -8 -1 -6 -3z"/>
<path d="M2380 865 c0 -8 2 -15 4 -15 2 0 6 7 10 15 3 8 1 15 -4 15 -6 0 -10
-7 -10 -15z"/>
<path d="M1302 846 c7 -8 15 -12 17 -11 5 6 -10 25 -20 25 -5 0 -4 -6 3 -14z"/>
<path d="M2416 845 c4 -8 11 -15 16 -15 6 0 5 6 -2 15 -7 8 -14 15 -16 15 -2
0 -1 -7 2 -15z"/>
<path d="M1245 829 c5 -27 11 -33 20 -20 3 6 1 11 -6 11 -8 0 -8 4 1 15 10 12
10 15 -3 15 -11 0 -15 -7 -12 -21z"/>
<path d="M1375 840 c3 -5 8 -10 11 -10 2 0 4 5 4 10 0 6 -5 10 -11 10 -5 0 -7
-4 -4 -10z"/>
<path d="M1400 845 c0 -5 5 -17 10 -25 5 -8 10 -10 10 -5 0 6 -5 17 -10 25 -5
8 -10 11 -10 5z"/>
<path d="M1330 836 c0 -2 7 -9 15 -16 9 -7 15 -8 15 -2 0 5 -7 12 -15 16 -8 3
-15 4 -15 2z"/>
<path d="M2554 826 c-3 -8 0 -25 7 -38 9 -17 14 -19 17 -8 3 7 0 16 -6 18 -7
2 -12 11 -12 20 0 15 2 15 10 2 6 -9 10 -10 10 -3 0 19 -20 26 -26 9z"/>
<path d="M2465 821 c-3 -5 -2 -12 3 -15 5 -3 9 1 9 9 0 17 -3 19 -12 6z"/>
<path d="M2495 789 c-4 -6 -5 -12 -2 -15 2 -3 7 2 10 11 7 17 1 20 -8 4z"/>
<path d="M2526 773 c5 -5 12 -12 16 -18 4 -6 8 -2 8 8 0 9 -7 17 -17 17 -9 0
-12 -3 -7 -7z"/>
<path d="M682 753 c-8 -8 -9 -13 -2 -13 5 0 10 -16 10 -35 0 -24 5 -35 15 -35
8 0 15 5 15 10 0 6 -4 10 -10 10 -12 0 -13 47 -1 52 5 2 4 8 -3 14 -8 8 -15 7
-24 -3z"/>
<path d="M434 736 c-12 -32 0 -61 29 -64 16 -2 27 2 27 8 0 7 -6 10 -14 7 -19
-8 -40 18 -32 39 4 10 13 14 26 11 11 -3 20 -1 20 4 0 15 -50 10 -56 -5z"/>
<path d="M510 735 c-10 -12 -10 -21 -2 -40 12 -25 45 -34 57 -15 4 6 -3 9 -16
7 -12 -1 -24 4 -26 11 -3 8 6 12 26 12 33 0 39 8 19 28 -17 17 -43 15 -58 -3z
m45 -5 c3 -5 -3 -10 -15 -10 -12 0 -18 5 -15 10 3 6 10 10 15 10 5 0 12 -4 15
-10z"/>
<path d="M590 711 c0 -48 17 -55 22 -9 4 46 28 49 28 4 0 -20 5 -36 11 -36 6
0 9 16 7 38 -3 34 -6 37 -35 40 -32 3 -33 2 -33 -37z"/>
<path d="M741 705 l2 -40 6 34 c4 21 14 37 26 42 17 6 15 7 -7 6 -26 -1 -28
-4 -27 -42z"/>
<path d="M800 735 c-10 -12 -10 -21 -2 -40 21 -45 77 -23 70 27 -4 28 -48 37
-68 13z m50 -10 c10 -12 10 -18 0 -29 -14 -18 -40 -10 -40 13 0 32 20 40 40
16z"/>
<path d="M1030 451 c0 -13 4 -13 95 -10 141 5 253 4 248 -3 -2 -5 1 -8 6 -8 6
0 11 3 11 8 0 4 80 5 177 2 98 -3 214 -3 258 0 l80 6 -77 5 c-42 2 -74 0 -71
-4 2 -4 -8 -5 -24 -2 -57 13 -703 18 -703 6z"/>
<path d="M2115 450 l-40 -7 37 -2 c20 0 40 4 43 9 3 6 5 9 3 9 -2 -1 -21 -5
-43 -9z"/>
<path d="M358 403 c7 -3 16 -2 19 1 4 3 -2 6 -13 5 -11 0 -14 -3 -6 -6z"/>
<path d="M2148 403 c7 -3 16 -2 19 1 4 3 -2 6 -13 5 -11 0 -14 -3 -6 -6z"/>
<path d="M395 390 c3 -5 8 -10 11 -10 2 0 4 5 4 10 0 6 -5 10 -11 10 -5 0 -7
-4 -4 -10z"/>
<path d="M790 360 c-18 -12 -2 -12 25 0 13 6 15 9 5 9 -8 0 -22 -4 -30 -9z"/>
</g>
</svg>
