<?xml version="1.0" standalone="no"?>
<!DOCTYPE svg PUBLIC "-//W3C//DTD SVG 20010904//EN"
 "http://www.w3.org/TR/2001/REC-SVG-20010904/DTD/svg10.dtd">
<svg version="1.0" xmlns="http://www.w3.org/2000/svg"
 width="225.000000pt" height="225.000000pt" viewBox="0 0 225.000000 225.000000"
 preserveAspectRatio="xMidYMid meet">
<metadata>
Created by potrace 1.10, written by Peter Selinger 2001-2011
</metadata>
<g transform="translate(0.000000,225.000000) scale(0.100000,-0.100000)"
fill="#000000" stroke="none">
<path d="M986 2145 c-446 -92 -742 -405 -822 -869 -22 -124 -15 -340 15 -450
61 -231 197 -397 406 -497 143 -69 213 -82 430 -83 150 -1 208 3 275 18 126
27 246 69 349 120 l91 46 -30 60 -30 60 -68 -34 c-242 -122 -575 -170 -801
-116 -241 58 -413 227 -478 470 -28 102 -25 356 6 473 71 276 225 479 445 587
154 77 229 93 421 94 125 0 174 -4 225 -18 231 -63 395 -223 456 -446 27 -96
24 -326 -4 -433 -44 -161 -116 -271 -206 -313 -56 -26 -92 -30 -129 -13 -72
33 -66 118 48 612 36 155 65 288 65 295 0 10 -20 12 -82 10 l-82 -3 -20 -82
c-20 -85 -30 -99 -41 -62 -12 36 -86 109 -136 135 -109 55 -263 52 -388 -8
-83 -39 -203 -157 -248 -243 -71 -135 -107 -344 -83 -474 27 -149 85 -238 188
-288 51 -25 68 -28 162 -28 97 0 110 2 170 31 100 48 155 99 231 214 16 24 16
22 16 -45 -1 -92 20 -137 82 -173 41 -24 56 -27 141 -27 86 0 101 3 163 33
134 63 236 204 288 398 27 99 37 329 20 430 -45 255 -179 440 -396 544 -55 27
-129 56 -165 65 -90 24 -388 30 -484 10z m233 -551 c74 -22 134 -83 157 -161
14 -49 15 -69 5 -131 -15 -97 -55 -214 -96 -282 -43 -71 -136 -159 -198 -189
-65 -31 -154 -39 -210 -17 -87 33 -127 103 -135 237 -14 254 115 494 298 550
42 13 124 10 179 -7z"/>
</g>
</svg>
