<?xml version="1.0" standalone="no"?>
<!DOCTYPE svg PUBLIC "-//W3C//DTD SVG 20010904//EN"
 "http://www.w3.org/TR/2001/REC-SVG-20010904/DTD/svg10.dtd">
<svg version="1.0" xmlns="http://www.w3.org/2000/svg"
 width="50.000000pt" height="50.000000pt" viewBox="0 0 50.000000 50.000000"
 preserveAspectRatio="xMidYMid meet">
<metadata>
Created by potrace 1.10, written by Peter Selinger 2001-2011
</metadata>
<g transform="translate(0.000000,50.000000) scale(0.100000,-0.100000)"
fill="#000000" stroke="none">
<path d="M86 454 c-31 -30 -9 -84 34 -84 24 0 50 26 50 50 0 24 -26 50 -50 50
-10 0 -26 -7 -34 -16z m59 -34 c0 -18 -6 -26 -23 -28 -24 -4 -38 18 -28 44 3
9 15 14 28 12 17 -2 23 -10 23 -28z"/>
<path d="M346 454 c-9 -8 -16 -24 -16 -34 0 -43 54 -65 84 -34 31 30 9 84 -34
84 -10 0 -26 -7 -34 -16z m59 -34 c0 -18 -6 -26 -23 -28 -13 -2 -25 3 -28 12
-10 26 4 48 28 44 17 -2 23 -10 23 -28z"/>
<path d="M42 348 c-5 -7 -16 -32 -22 -55 -14 -45 -4 -73 26 -73 11 0 14 -19
14 -84 0 -93 6 -103 60 -103 50 0 60 12 60 73 0 40 4 54 14 54 20 0 26 23 26
99 0 89 -13 101 -102 101 -40 0 -69 -5 -76 -12z m146 -20 c15 -15 16 -148 2
-148 -5 0 -10 25 -10 55 0 30 -4 55 -10 55 -6 0 -10 -47 -10 -120 0 -100 -2
-120 -15 -120 -12 0 -15 14 -15 70 0 40 -4 70 -10 70 -6 0 -10 -30 -10 -70 0
-56 -3 -70 -15 -70 -12 0 -15 17 -15 90 0 88 1 90 25 96 27 7 45 31 38 52 -5
14 -51 16 -73 2 -23 -14 -3 -24 25 -12 15 7 26 8 30 2 6 -10 -22 -24 -72 -36
-24 -6 -25 -5 -18 27 14 63 20 69 83 69 32 0 63 -5 70 -12z"/>
<path d="M318 343 c-18 -22 -58 -116 -58 -138 0 -8 6 -18 14 -21 8 -3 12 -13
9 -25 -4 -15 0 -19 20 -19 24 0 26 -4 29 -52 l3 -53 45 0 45 0 3 52 c2 37 7
53 17 53 21 0 26 15 14 49 -9 25 -8 34 5 46 13 14 13 20 0 57 -8 23 -19 47
-25 55 -17 20 -103 17 -121 -4z m121 -45 c21 -50 12 -58 -40 -34 -32 15 -33
15 -7 13 15 -1 28 3 30 8 2 6 -12 11 -29 13 -29 3 -33 0 -33 -22 0 -20 7 -27
32 -34 24 -6 34 -16 44 -45 l13 -37 -74 0 -75 0 20 50 c11 28 20 58 20 66 0
26 -16 7 -30 -35 -7 -23 -17 -41 -22 -41 -13 0 -10 15 18 79 l27 61 44 0 c42
0 45 -2 62 -42z m-69 -203 c0 -25 -4 -45 -10 -45 -5 0 -10 20 -10 45 0 25 5
45 10 45 6 0 10 -20 10 -45z m40 0 c0 -25 -4 -45 -10 -45 -5 0 -10 20 -10 45
0 25 5 45 10 45 6 0 10 -20 10 -45z"/>
</g>
</svg>
