<?xml version="1.0" standalone="no"?>
<!DOCTYPE svg PUBLIC "-//W3C//DTD SVG 20010904//EN"
 "http://www.w3.org/TR/2001/REC-SVG-20010904/DTD/svg10.dtd">
<svg version="1.0" xmlns="http://www.w3.org/2000/svg"
 width="199.000000pt" height="188.000000pt" viewBox="0 0 199.000000 188.000000"
 preserveAspectRatio="xMidYMid meet">
<metadata>
Created by potrace 1.10, written by Peter Selinger 2001-2011
</metadata>
<g transform="translate(0.000000,188.000000) scale(0.100000,-0.100000)"
fill="#000000" stroke="none">
<path d="M33 1810 c0 -25 2 -35 4 -22 2 12 2 32 0 45 -2 12 -4 2 -4 -23z"/>
<path d="M242 1794 c10 -9 186 -12 200 -3 7 5 -35 9 -96 9 -60 0 -107 -3 -104
-6z"/>
<path d="M687 1793 c-6 -9 672 -8 680 1 4 3 -147 6 -335 6 -187 0 -343 -3
-345 -7z"/>
<path d="M1570 1793 c0 -5 36 -8 80 -8 44 0 80 3 80 8 0 4 -36 7 -80 7 -44 0
-80 -3 -80 -7z"/>
<path d="M1790 1753 c-8 -21 -1 -1683 8 -1683 4 0 6 350 4 777 -2 813 -4 926
-12 906z"/>
<path d="M178 1488 c1 -139 3 -314 5 -388 1 -74 4 39 5 253 1 213 -1 387 -5
387 -5 0 -7 -114 -5 -252z"/>
<path d="M929 1707 c5 -5 19 -7 32 -5 20 3 19 5 -9 9 -20 3 -29 2 -23 -4z"/>
<path d="M810 1701 l25 -8 -25 -5 c-18 -4 -14 -5 13 -5 41 1 49 11 15 21 -33
8 -58 5 -28 -3z"/>
<path d="M1080 1701 c0 -6 5 -13 12 -17 6 -4 8 -3 4 4 -3 6 3 12 16 15 20 4
19 4 -4 6 -16 0 -28 -3 -28 -8z"/>
<path d="M888 1693 c6 -2 18 -2 25 0 6 3 1 5 -13 5 -14 0 -19 -2 -12 -5z"/>
<path d="M1123 1683 c9 -2 25 -2 35 0 9 3 1 5 -18 5 -19 0 -27 -2 -17 -5z"/>
<path d="M718 1659 c-21 -11 -38 -22 -38 -24 0 -5 79 32 89 41 12 11 -18 1
-51 -17z"/>
<path d="M895 1669 c-43 -5 -86 -11 -95 -15 -8 -4 -20 -8 -27 -10 -168 -35
-337 -179 -420 -358 -56 -119 -74 -294 -44 -435 12 -57 72 -194 90 -206 17
-10 13 11 -4 25 -8 7 -15 17 -15 23 0 5 9 -2 20 -16 11 -14 17 -32 14 -41 -10
-27 147 -173 231 -217 128 -66 355 -100 478 -70 20 5 37 7 37 4 0 -3 6 -1 13
4 6 6 34 16 61 22 107 26 267 150 340 263 105 164 134 357 85 548 -15 57 -67
162 -109 219 -28 38 -34 42 -42 27 -7 -12 -3 -24 17 -48 35 -41 79 -130 99
-200 24 -85 22 -266 -5 -349 -53 -163 -171 -304 -310 -371 -106 -51 -139 -59
-285 -65 -103 -5 -147 -2 -208 12 -95 20 -215 80 -284 141 -63 55 -133 159
-169 250 -25 63 -27 81 -27 209 -1 125 2 147 23 205 27 70 52 117 88 166 25
34 30 49 11 38 -7 -5 -8 -3 -4 5 5 7 10 10 13 7 3 -3 32 17 64 44 74 62 126
92 212 125 65 24 75 25 260 22 206 -3 193 0 325 -67 30 -15 80 -50 113 -79 32
-29 59 -49 60 -44 0 4 2 18 3 30 2 18 0 20 -15 12 -14 -7 -17 -6 -14 3 5 16
-71 76 -140 111 -98 49 -166 66 -325 81 -19 2 -71 0 -115 -5z m92 -15 c-3 -3
-12 -4 -19 -1 -8 3 -5 6 6 6 11 1 17 -2 13 -5z m680 -656 c-3 -7 -5 -2 -5 12
0 14 2 19 5 13 2 -7 2 -19 0 -25z m-1339 -113 c-3 -3 -9 2 -12 12 -6 14 -5 15
5 6 7 -7 10 -15 7 -18z m40 -140 c-3 -3 -9 2 -12 12 -6 14 -5 15 5 6 7 -7 10
-15 7 -18z m1242 -3 c0 -5 -7 -17 -15 -28 -14 -18 -14 -17 -4 9 12 27 19 34
19 19z m-75 -123 c-9 -17 -19 -29 -22 -26 -5 5 25 57 33 57 3 0 -3 -14 -11
-31z m-985 -107 l25 -24 -31 21 c-32 21 -114 110 -114 123 0 4 21 -16 48 -44
26 -29 58 -63 72 -76z m936 52 c-9 -8 -14 -19 -12 -23 3 -4 -4 -7 -14 -7 -18
0 -18 2 2 23 12 13 26 23 30 23 5 0 2 -7 -6 -16z m-58 -58 c-7 -8 -15 -12 -17
-10 -2 2 -11 -4 -20 -14 -29 -32 -67 -51 -82 -41 -8 5 -9 9 -4 10 28 2 49 9
54 16 10 14 63 53 73 53 5 0 3 -6 -4 -14z m-778 -50 c21 -18 87 -47 110 -49
10 -1 17 -4 14 -8 -12 -19 341 -28 386 -9 3 1 13 1 24 0 10 -1 22 4 26 10 5 9
13 9 25 3 14 -8 6 -12 -36 -22 -30 -7 -81 -14 -115 -15 -33 -2 -65 -5 -70 -8
-5 -3 -40 -2 -79 3 -38 4 -90 10 -115 13 -25 2 -58 11 -75 19 -16 8 -49 23
-72 33 -24 10 -43 22 -43 27 0 4 -4 6 -9 3 -4 -3 -17 4 -27 15 -18 20 -18 20
11 9 17 -6 37 -17 45 -24z m655 -34 c-3 -3 -11 0 -18 7 -9 10 -8 11 6 5 10 -3
15 -9 12 -12z m-32 -9 c-7 -2 -19 -2 -25 0 -7 3 -2 5 12 5 14 0 19 -2 13 -5z"/>
<path d="M1190 1676 c0 -3 15 -9 33 -14 17 -6 41 -13 52 -17 12 -4 10 -1 -5 8
-27 15 -80 30 -80 23z"/>
<path d="M33 1610 c0 -25 2 -35 4 -22 2 12 2 32 0 45 -2 12 -4 2 -4 -23z"/>
<path d="M640 1640 c-13 -9 -13 -10 0 -10 9 -1 5 -6 -10 -15 -14 -8 -20 -14
-15 -14 17 0 61 28 45 29 -13 0 -13 1 0 10 8 5 11 10 5 10 -5 0 -17 -5 -25
-10z"/>
<path d="M1340 1630 c-8 -5 -12 -12 -9 -15 4 -3 12 1 19 10 14 17 11 19 -10 5z"/>
<path d="M835 1590 c-377 -76 -575 -487 -403 -837 56 -115 181 -227 307 -277
94 -37 249 -49 371 -30 70 12 82 15 143 39 174 70 316 249 345 435 11 71 5
196 -13 258 -61 208 -219 358 -430 407 -70 16 -250 19 -320 5z m57 -20 c2 -6
53 -11 118 -12 70 -2 120 -8 127 -15 8 -7 34 -10 65 -7 38 3 47 1 33 -5 -19
-9 -19 -10 2 -10 17 -1 21 -5 16 -18 -3 -10 -3 -15 2 -11 4 4 14 3 22 -4 20
-16 28 -2 9 17 -29 30 -17 27 23 -4 21 -17 40 -28 43 -25 3 2 11 -3 19 -13 10
-12 10 -15 1 -9 -16 9 -43 -11 -36 -28 2 -6 13 -12 23 -12 10 0 17 5 14 12 -9
25 26 21 51 -5 18 -19 22 -28 12 -28 -8 0 -13 4 -10 9 3 4 1 8 -4 8 -6 0 -13
-7 -16 -16 -3 -8 -2 -12 4 -9 6 3 10 1 10 -5 0 -6 5 -8 12 -4 7 4 8 3 4 -5 -4
-6 -12 -9 -17 -6 -16 11 -10 -12 8 -26 11 -10 14 -10 9 -1 -10 17 9 15 24 -3
7 -9 19 -14 26 -11 9 3 11 0 7 -11 -5 -12 -3 -14 8 -8 8 5 7 1 -3 -12 -20 -21
-24 -43 -8 -43 5 0 14 -18 20 -40 6 -22 13 -40 17 -40 3 0 3 9 0 20 -3 11 -1
18 4 15 4 -3 8 -22 7 -41 -1 -36 20 -63 33 -42 4 5 6 -2 7 -16 0 -14 -4 -23
-9 -20 -12 7 -12 -49 0 -61 5 -6 1 -40 -9 -80 -10 -40 -14 -79 -9 -91 5 -15 2
-24 -13 -33 -16 -10 -17 -15 -8 -27 9 -10 9 -14 1 -14 -6 0 -10 -3 -10 -7 1
-5 1 -13 0 -19 -1 -11 -79 -119 -86 -119 -2 0 -11 9 -20 20 -14 19 -15 19 -8
1 4 -13 3 -17 -5 -12 -16 9 -15 -7 0 -22 9 -9 9 -15 -1 -24 -8 -8 -11 -8 -8
-2 9 16 -19 38 -37 31 -9 -4 -13 -15 -11 -27 3 -16 0 -20 -10 -17 -17 7 -41
-18 -25 -28 5 -3 10 -1 10 6 0 7 3 9 6 6 4 -3 16 -1 27 4 16 9 17 13 6 20 -12
7 -11 9 1 9 13 0 13 1 0 10 -13 8 -13 10 1 10 11 0 17 -8 17 -23 0 -17 -13
-30 -49 -50 -27 -14 -55 -24 -64 -21 -9 4 -15 2 -13 -4 2 -5 0 -9 -3 -9 -3 1
-13 -4 -22 -12 -15 -12 -17 -11 -17 3 0 9 -4 16 -9 16 -6 0 -8 -9 -6 -19 3
-14 -2 -19 -15 -18 -12 1 -16 5 -10 12 4 5 9 13 9 18 0 4 5 15 11 25 8 12 13
14 16 4 3 -7 15 -17 27 -24 22 -11 22 -11 3 10 -18 21 -18 22 5 41 13 11 27
20 30 21 19 1 15 33 -6 58 -21 25 -23 32 -11 47 13 17 15 17 42 -8 35 -32 50
-34 64 -6 7 11 14 18 17 15 3 -3 -2 -18 -12 -33 l-18 -28 22 20 c12 10 20 27
18 36 -6 20 11 51 24 44 5 -4 10 3 10 14 1 12 3 26 4 31 1 6 3 13 4 17 0 4 8
-2 16 -13 15 -19 15 -19 8 1 -3 11 -10 25 -14 30 -11 15 6 39 21 30 9 -5 8 -1
-1 16 -11 20 -14 21 -17 7 -4 -20 -10 -22 -31 -9 -11 7 -10 11 5 20 11 6 13
11 7 11 -7 0 -13 6 -13 14 0 16 -19 25 -37 18 -19 -6 -16 -29 5 -41 23 -14 9
-14 -22 0 -14 7 -23 15 -21 19 2 4 -6 7 -18 6 -12 -1 -24 2 -27 6 -3 3 -17 8
-30 10 -14 2 -34 9 -45 15 -18 9 -68 25 -87 27 -3 1 -10 4 -14 9 -7 6 9 11 29
8 4 0 7 4 7 10 0 5 5 7 10 4 6 -3 10 -2 10 3 0 11 109 67 116 59 3 -3 -11 -10
-31 -17 -20 -7 -34 -14 -32 -16 2 -2 23 3 47 11 23 8 46 12 51 9 5 -3 9 0 9 7
0 8 3 9 14 0 10 -9 16 -8 26 4 7 8 19 15 26 15 21 0 17 17 -6 23 -11 3 -18 1
-14 -4 3 -5 2 -14 -2 -20 -4 -8 -9 -7 -15 2 -6 11 -11 11 -21 1 -15 -15 -28
-16 -28 -1 0 5 4 8 9 5 5 -3 12 1 15 10 3 8 10 13 15 9 5 -3 13 0 16 6 4 5 14
8 22 5 8 -3 11 -2 8 3 -3 5 4 12 15 16 11 3 20 10 20 15 0 11 -58 97 -71 105
-5 4 -7 10 -4 15 3 5 -4 14 -15 20 -11 6 -19 19 -18 28 2 12 -4 17 -22 16 -39
-2 -41 -3 -39 -16 3 -25 -1 -39 -10 -34 -5 3 -11 -3 -14 -14 -5 -20 -27 -28
-27 -10 0 6 -5 10 -12 10 -9 0 -9 -3 -1 -11 8 -8 5 -21 -10 -46 -17 -30 -22
-33 -32 -20 -9 13 -13 11 -24 -14 -7 -17 -16 -28 -19 -25 -7 8 -32 -14 -32
-28 1 -6 6 -5 13 4 24 30 39 21 17 -11 -18 -24 -25 -28 -32 -17 -8 10 -9 10
-6 -2 3 -8 -7 -25 -21 -38 -14 -14 -25 -28 -23 -33 1 -5 -3 -9 -9 -9 -7 0 -8
7 -4 18 4 9 8 23 9 30 1 7 8 18 16 25 10 10 11 9 5 -2 -6 -10 -4 -12 4 -6 9 5
10 10 2 18 -16 16 -13 27 5 20 13 -5 15 -2 10 14 -7 21 30 113 45 113 4 0 5
10 2 23 -4 18 -3 19 7 7 9 -12 10 -9 5 14 -6 26 -5 28 10 16 14 -12 16 -11 10
13 -5 18 -3 27 5 27 6 0 8 -4 5 -10 -3 -5 -2 -10 4 -10 5 0 9 19 8 42 -2 32
-6 42 -21 44 -11 1 -22 7 -25 13 -4 5 -13 9 -21 9 -35 -2 -50 3 -50 17 0 8 -7
15 -15 15 -8 0 -15 5 -15 10 0 6 -10 10 -22 9 -22 0 -22 -1 -3 -9 18 -7 16 -8
-10 -12 -26 -4 -25 -5 10 -7 30 -1 36 -4 24 -11 -10 -6 -30 -5 -53 1 -21 6
-40 8 -44 5 -3 -3 2 -6 11 -6 18 0 23 -16 7 -22 -12 -4 -19 -97 -8 -104 11 -7
10 -234 -1 -234 -5 0 -15 8 -22 17 -8 10 -9 14 -2 10 6 -4 15 -2 18 3 10 16
-26 52 -43 45 -8 -3 -23 4 -33 16 -13 15 -19 17 -19 8 0 -8 -13 0 -30 19 -16
17 -34 32 -40 32 -18 0 -11 19 12 31 18 10 20 9 15 -5 -9 -24 17 -31 45 -12
14 9 28 13 33 9 4 -5 6 -3 3 2 -6 10 22 42 32 38 3 -2 5 14 5 35 0 20 4 43 9
50 5 9 3 18 -4 25 -10 9 -11 9 -5 -2 12 -21 -16 -32 -34 -13 -26 29 -85 20
-115 -16 -15 -19 -17 -28 -8 -47 9 -20 9 -23 -3 -18 -8 3 -12 9 -9 14 3 5 -2
6 -11 3 -11 -5 -14 -2 -9 12 6 16 5 17 -7 6 -11 -11 -9 -17 16 -37 17 -13 25
-24 19 -25 -6 0 -14 3 -18 7 -4 4 -15 8 -24 8 -11 0 -17 8 -16 22 1 18 -2 21
-16 13 -10 -5 -20 -6 -24 -2 -4 3 -4 -1 0 -11 4 -12 1 -17 -11 -17 -10 0 -13
5 -9 12 5 7 3 8 -5 3 -9 -5 -10 -10 -2 -18 15 -15 14 -28 -1 -24 -7 1 -12 -4
-10 -11 3 -17 -25 -45 -32 -33 -4 5 -3 17 1 28 6 17 6 17 -10 1 -10 -9 -24
-15 -32 -12 -11 5 -14 -1 -13 -20 1 -14 6 -26 11 -26 5 0 6 -7 3 -16 -3 -8 -2
-13 3 -10 5 3 11 -7 13 -23 3 -23 1 -28 -11 -24 -14 4 -14 4 -1 -6 8 -6 25
-11 38 -11 12 0 22 -4 22 -9 0 -4 11 -6 25 -3 14 2 25 0 25 -6 0 -6 15 -14 33
-17 17 -4 50 -16 72 -27 22 -11 51 -22 64 -24 14 -3 32 -10 40 -15 13 -8 11
-9 -6 -4 -34 9 -28 -1 7 -14 18 -6 28 -6 25 -1 -9 15 8 12 31 -4 17 -13 14
-14 -31 -10 -89 8 -101 10 -115 19 -9 6 -11 4 -5 -4 5 -10 -5 -12 -44 -9 -27
2 -53 6 -56 10 -3 3 -28 3 -55 0 -30 -3 -55 0 -64 7 -21 17 -45 4 -38 -22 5
-19 3 -20 -10 -10 -8 7 -18 10 -21 6 -4 -3 2 -12 13 -20 10 -7 17 -20 14 -28
-5 -12 5 -58 23 -105 4 -8 5 -21 4 -29 -1 -7 2 -10 8 -6 7 3 11 -2 11 -14 0
-19 1 -19 56 5 30 13 69 26 86 28 16 1 33 8 36 14 9 13 124 52 134 46 5 -3 8
0 8 6 0 6 5 8 11 5 6 -5 4 -12 -8 -22 -10 -8 -12 -12 -5 -8 15 8 15 3 1 -29
-7 -14 -16 -23 -21 -20 -5 3 -9 0 -7 -7 1 -8 1 -25 0 -38 -1 -21 -3 -22 -18
-10 -16 12 -17 12 -7 -1 8 -11 8 -22 0 -43 -7 -15 -15 -24 -19 -21 -4 4 -7 0
-7 -10 0 -9 -4 -14 -10 -11 -6 3 -7 -1 -4 -10 9 -21 -4 -67 -17 -59 -6 3 -7
19 -4 36 5 21 4 28 -4 24 -6 -4 -11 -14 -11 -22 0 -8 -6 -14 -12 -14 -8 -1 -6
-6 5 -14 9 -7 17 -16 17 -20 0 -11 23 -31 43 -39 10 -4 16 -11 13 -16 -3 -5 2
-7 12 -5 9 3 28 0 42 -6 24 -10 24 -10 -5 -6 -16 3 -24 3 -17 0 6 -3 10 -9 7
-14 -3 -5 12 -4 32 2 27 7 38 7 41 -1 2 -6 8 -11 13 -11 6 0 7 5 3 12 -4 6 -3
8 3 5 6 -4 18 2 28 13 10 11 22 17 27 14 6 -4 5 3 -1 14 -15 28 -14 62 2 62 7
0 8 3 2 8 -13 9 -19 172 -7 172 4 0 7 -18 6 -40 -1 -22 2 -40 7 -40 5 0 9 -12
9 -27 -1 -16 2 -41 6 -57 5 -19 2 -31 -7 -37 -12 -8 -12 -11 1 -19 8 -5 15
-17 15 -27 0 -12 13 -22 35 -30 24 -8 28 -12 15 -13 -14 -1 -15 -3 -6 -7 8 -3
19 1 25 10 7 8 30 22 51 31 33 13 37 13 21 1 -11 -9 -14 -15 -7 -15 9 0 8 -5
-3 -16 -9 -8 -21 -12 -27 -8 -6 3 -15 1 -19 -5 -4 -7 -26 -14 -50 -16 -24 -3
-52 -7 -62 -11 -14 -4 -21 0 -25 15 -5 19 -7 20 -17 5 -10 -13 -19 -14 -48 -6
-19 5 -47 8 -60 5 -14 -3 -39 2 -55 11 -17 8 -34 12 -38 8 -5 -4 -5 1 -2 11 4
11 1 17 -9 17 -8 0 -12 -4 -9 -10 10 -17 -12 -11 -26 7 -9 11 -10 14 -2 9 7
-4 21 -2 30 4 14 8 8 10 -29 8 -27 -2 -48 0 -48 4 0 4 -9 10 -20 13 -25 8 -26
32 -2 38 9 2 2 4 -15 4 -29 0 -31 -2 -20 -16 11 -14 10 -14 -5 -3 -12 9 -15
22 -12 41 4 19 0 32 -17 46 l-22 20 6 -26 c10 -39 -3 -42 -30 -7 -25 35 -29
48 -12 48 5 0 8 -4 4 -9 -6 -11 13 -26 22 -17 11 11 -20 36 -38 31 -14 -5 -20
0 -25 19 -3 14 -10 24 -14 21 -5 -3 -6 4 -3 15 3 11 1 20 -5 20 -16 0 -34 72
-21 81 6 3 0 9 -13 13 -13 4 -18 9 -11 12 10 4 9 9 -2 21 -8 8 -15 22 -15 31
1 12 5 10 15 -8 l15 -25 -7 30 c-9 37 -9 58 1 110 7 36 6 38 -7 22 -14 -17
-15 -16 -13 7 0 13 4 22 9 19 4 -2 7 7 7 21 0 16 6 26 15 26 8 0 15 7 15 16 0
8 -5 12 -10 9 -18 -11 -22 23 -5 54 16 32 32 43 21 16 -3 -8 -1 -25 4 -37 9
-25 12 -20 15 27 1 17 5 45 10 63 6 27 11 32 29 27 20 -6 20 -6 -2 12 l-23 19
30 28 c18 17 34 25 42 20 9 -5 11 -2 6 9 -3 9 -1 19 5 23 6 4 9 3 6 -2 -3 -5
5 -17 18 -27 23 -18 24 -17 24 4 0 16 -4 20 -17 15 -10 -4 -14 -4 -10 0 4 4 2
13 -5 21 -8 11 -7 12 5 8 9 -4 17 0 21 12 6 19 53 46 58 33 2 -4 14 -11 28
-15 23 -7 24 -6 6 7 -17 14 -17 15 -2 21 10 4 15 3 11 -3 -6 -10 9 -15 30 -10
5 1 18 2 27 3 13 1 14 4 6 14 -13 16 -32 17 -22 2 4 -7 -2 -7 -17 1 -31 16
-39 25 -16 17 10 -4 28 -1 39 7 12 9 34 12 59 9 25 -4 39 -2 39 6 0 6 7 11 16
11 8 0 12 5 9 10 -3 6 -2 10 4 10 5 0 11 -4 13 -10z m191 3 c-13 -2 -35 -2
-50 0 -16 2 -5 4 22 4 28 0 40 -2 28 -4z m18 -173 l37 -10 -65 -158 c-35 -86
-71 -176 -80 -199 -8 -24 -18 -43 -21 -43 -10 0 -394 149 -400 155 -9 9 19 60
57 105 l39 44 108 -100 c159 -146 168 -154 177 -154 5 0 8 78 7 173 -1 94 -2
178 -1 185 1 15 90 16 142 2z m-243 -30 c12 -12 22 -30 22 -40 0 -22 -33 -60
-53 -60 -27 0 -57 31 -57 60 0 18 8 34 22 44 29 21 40 20 66 -4z m612 -11 c0
-6 -4 -7 -10 -4 -5 3 -10 11 -10 16 0 6 5 7 10 4 6 -3 10 -11 10 -16z m-1012
-83 c-7 -8 -15 -12 -17 -11 -5 6 10 25 20 25 5 0 4 -6 -3 -14z m296 3 c8 7 17
8 19 3 3 -4 -3 -13 -13 -20 -15 -9 -22 -8 -35 4 -19 20 -20 30 0 14 12 -10 18
-10 29 -1z m617 -78 c29 -45 37 -71 20 -71 -15 0 -321 -152 -321 -159 0 -4 75
-33 166 -66 91 -33 171 -63 177 -67 13 -8 -4 -48 -48 -118 l-26 -41 -27 20
c-15 10 -59 48 -97 83 -39 34 -101 90 -138 122 -37 33 -66 63 -65 67 2 4 66
77 142 163 l139 156 24 -22 c13 -12 37 -43 54 -67z m153 38 c-5 -8 -10 -6 -16
5 -5 9 -6 21 -2 27 5 8 10 6 16 -5 5 -9 6 -21 2 -27z m-704 11 c0 -5 -7 -10
-16 -10 -8 0 -12 5 -9 10 3 6 10 10 16 10 5 0 9 -4 9 -10z m-252 -51 c-15 -10
-28 9 -20 29 4 12 7 12 19 -4 10 -14 10 -19 1 -25z m991 -9 c0 -10 -3 -8 -9 5
-12 27 -12 43 0 25 5 -8 9 -22 9 -30z m-683 -47 c8 8 44 -11 44 -23 0 -15 -57
9 -77 33 l-18 22 23 -19 c12 -11 25 -16 28 -13z m271 12 c0 -8 -4 -12 -9 -9
-5 3 -6 10 -3 15 9 13 12 11 12 -6z m-760 -157 c-3 -7 -5 -2 -5 12 0 14 2 19
5 13 2 -7 2 -19 0 -25z m611 -23 c-6 -13 -15 -22 -19 -19 -5 2 -1 14 9 24 22
26 24 25 10 -5z m-133 -20 l100 -4 0 -41 c-1 -22 -2 -119 -3 -216 l-2 -176
-47 6 c-56 8 -133 35 -133 47 0 4 7 20 15 36 25 46 134 298 130 301 -5 5 -88
-22 -210 -68 -162 -61 -151 -61 -169 1 -20 76 -26 116 -18 124 4 4 59 4 122 1
63 -4 160 -9 215 -11z m712 -27 c-3 -8 -6 -5 -6 6 -1 11 2 17 5 13 3 -3 4 -12
1 -19z m-482 -103 c49 -60 108 -133 132 -161 l44 -52 -33 -20 c-53 -33 -127
-62 -158 -62 -32 0 -28 -11 -49 140 -24 172 -32 226 -37 248 -3 13 -1 22 4 20
5 -1 49 -52 97 -113z m302 79 c-3 -3 -12 -4 -19 -1 -8 3 -5 6 6 6 11 1 17 -2
13 -5z m-267 -77 c0 -6 -9 0 -20 13 -11 13 -20 25 -20 28 0 3 9 -3 20 -13 11
-10 20 -23 20 -28z m-143 -19 c-3 -7 -5 -2 -5 12 0 14 2 19 5 13 2 -7 2 -19 0
-25z m167 -9 c-3 -5 -10 -7 -15 -3 -5 3 -7 10 -3 15 3 5 10 7 15 3 5 -3 7 -10
3 -15z m63 -61 c2 -9 -2 -20 -8 -23 -6 -4 -9 -1 -7 6 1 8 -2 15 -7 17 -13 4
-35 45 -29 54 7 10 48 -33 51 -54z m32 -34 c-15 -18 -29 -18 -29 1 0 8 5 15
11 15 5 0 7 6 3 13 -5 8 -2 7 9 -2 13 -10 15 -17 6 -27z"/>
<path d="M765 1520 c3 -5 10 -10 16 -10 5 0 9 5 9 10 0 6 -7 10 -16 10 -8 0
-12 -4 -9 -10z"/>
<path d="M615 1460 c-7 -12 22 -12 50 0 17 7 15 9 -12 9 -17 1 -35 -3 -38 -9z"/>
<path d="M1310 1460 c0 -5 4 -10 9 -10 6 0 13 5 16 10 3 6 -1 10 -9 10 -9 0
-16 -4 -16 -10z"/>
<path d="M1075 1440 c3 -5 8 -10 11 -10 2 0 4 5 4 10 0 6 -5 10 -11 10 -5 0
-7 -4 -4 -10z"/>
<path d="M853 1429 c15 -6 24 -15 21 -21 -4 -7 -2 -8 4 -4 23 14 12 32 -20 33
l-33 2 28 -10z"/>
<path d="M755 1420 c-3 -5 -1 -10 4 -10 6 0 11 5 11 10 0 6 -2 10 -4 10 -3 0
-8 -4 -11 -10z"/>
<path d="M550 1369 c0 -7 -8 -18 -17 -25 -11 -8 -13 -13 -6 -14 17 0 53 32 47
42 -8 12 -24 10 -24 -3z"/>
<path d="M500 1355 c-8 -9 -8 -15 -2 -15 12 0 26 19 19 26 -2 2 -10 -2 -17
-11z"/>
<path d="M914 1306 c4 -11 0 -26 -9 -36 -13 -15 -13 -17 0 -17 8 0 13 3 10 5
-3 3 0 11 6 18 8 9 7 18 -1 31 -11 17 -11 17 -6 -1z"/>
<path d="M1380 1260 c0 -5 4 -10 9 -10 6 0 13 5 16 10 3 6 -1 10 -9 10 -9 0
-16 -4 -16 -10z"/>
<path d="M1390 1235 c0 -12 34 -65 42 -65 13 0 9 11 -17 42 -14 16 -25 27 -25
23z"/>
<path d="M420 1184 c0 -8 5 -12 10 -9 6 3 10 10 10 16 0 5 -4 9 -10 9 -5 0
-10 -7 -10 -16z"/>
<path d="M1083 1173 c-3 -10 -8 -22 -11 -27 -3 -5 0 -6 5 -3 11 7 25 47 17 47
-3 0 -7 -8 -11 -17z"/>
<path d="M915 1160 c3 -5 8 -10 11 -10 2 0 4 5 4 10 0 6 -5 10 -11 10 -5 0 -7
-4 -4 -10z"/>
<path d="M567 1094 c-3 -5 3 -15 13 -22 12 -7 21 -8 25 -2 3 6 0 10 -9 10 -8
0 -16 5 -18 12 -3 7 -7 8 -11 2z"/>
<path d="M699 1051 c11 -7 11 -9 0 -14 -10 -4 -9 -6 3 -6 23 -1 32 15 12 23
-23 9 -31 7 -15 -3z"/>
<path d="M764 1015 c36 -19 45 -19 20 0 -10 8 -26 14 -34 15 -8 0 -2 -7 14
-15z"/>
<path d="M1205 1010 c-3 -5 1 -10 10 -10 9 0 13 5 10 10 -3 6 -8 10 -10 10 -2
0 -7 -4 -10 -10z"/>
<path d="M432 946 c1 -19 5 -33 8 -31 7 4 1 65 -6 65 -3 0 -4 -15 -2 -34z"/>
<path d="M470 930 c-9 -6 -10 -10 -3 -10 6 0 15 5 18 10 8 12 4 12 -15 0z"/>
<path d="M745 820 c-3 -6 1 -7 9 -4 18 7 21 14 7 14 -6 0 -13 -4 -16 -10z"/>
<path d="M1467 823 c-4 -3 -7 -13 -7 -22 1 -13 3 -13 11 2 11 19 8 33 -4 20z"/>
<path d="M1488 799 c-10 -16 -14 -28 -9 -25 12 8 22 -20 14 -41 -3 -10 -2 -14
3 -10 6 6 16 107 10 107 -1 0 -9 -14 -18 -31z"/>
<path d="M440 811 c0 -6 4 -13 10 -16 6 -3 7 1 4 9 -7 18 -14 21 -14 7z"/>
<path d="M740 790 c8 -5 20 -10 25 -10 6 0 3 5 -5 10 -8 5 -19 10 -25 10 -5 0
-3 -5 5 -10z"/>
<path d="M710 780 c8 -5 20 -10 25 -10 6 0 3 5 -5 10 -8 5 -19 10 -25 10 -5 0
-3 -5 5 -10z"/>
<path d="M645 770 c3 -5 16 -10 28 -9 21 0 21 1 2 9 -28 12 -37 12 -30 0z"/>
<path d="M490 759 c-12 -8 -10 -9 9 -4 17 5 22 4 16 -5 -5 -9 -4 -11 4 -6 6 4
9 12 6 17 -8 12 -16 11 -35 -2z"/>
<path d="M610 759 c0 -5 5 -7 10 -4 6 3 10 8 10 11 0 2 -4 4 -10 4 -5 0 -10
-5 -10 -11z"/>
<path d="M775 736 c3 -30 -1 -39 -18 -46 -15 -6 -17 -9 -6 -9 9 -1 19 2 23 7
4 4 13 7 19 7 19 0 18 28 -2 54 l-18 24 2 -37z m25 -31 c0 -5 -5 -3 -10 5 -5
8 -10 20 -10 25 0 6 5 3 10 -5 5 -8 10 -19 10 -25z"/>
<path d="M485 730 c-3 -5 -1 -10 4 -10 6 0 11 5 11 10 0 6 -2 10 -4 10 -3 0
-8 -4 -11 -10z"/>
<path d="M1460 730 c-13 -8 -12 -10 3 -10 9 0 17 5 17 10 0 12 -1 12 -20 0z"/>
<path d="M1450 680 c0 -5 -7 -7 -15 -4 -8 4 -15 4 -15 1 0 -13 30 -14 40 -1 9
10 9 14 1 14 -6 0 -11 -4 -11 -10z"/>
<path d="M1275 670 c-11 -5 -15 -9 -8 -9 6 -1 14 -10 18 -20 3 -11 13 -22 21
-25 13 -5 13 -3 0 15 -8 12 -12 28 -9 35 6 16 6 16 -22 4z"/>
<path d="M1310 650 c0 -13 18 -22 24 -11 3 5 -1 11 -9 15 -8 3 -15 1 -15 -4z"/>
<path d="M1290 593 c0 -5 -11 -15 -25 -21 -14 -6 -25 -17 -24 -24 0 -10 2 -10
6 0 2 6 11 12 19 12 8 0 11 -6 7 -17 -4 -11 -3 -14 6 -9 7 5 10 14 7 21 -2 7
1 18 7 24 6 6 8 14 4 18 -4 3 -7 2 -7 -4z"/>
<path d="M667 569 c7 -7 15 -10 18 -7 3 3 -2 9 -12 12 -14 6 -15 5 -6 -5z"/>
<path d="M780 500 c8 -5 20 -10 25 -10 6 0 3 5 -5 10 -8 5 -19 10 -25 10 -5 0
-3 -5 5 -10z"/>
<path d="M1020 480 c-9 -6 -10 -10 -3 -10 6 0 15 5 18 10 8 12 4 12 -15 0z"/>
<path d="M980 470 c0 -5 5 -10 10 -10 6 0 10 5 10 10 0 6 -4 10 -10 10 -5 0
-10 -4 -10 -10z"/>
<path d="M655 1250 c3 -5 2 -10 -3 -10 -6 0 -13 -8 -16 -17 -6 -15 -5 -15 13
1 18 16 20 36 5 36 -3 0 -2 -4 1 -10z"/>
<path d="M674 1228 c-10 -13 -12 -17 -4 -11 11 10 18 9 34 -5 21 -17 21 -17 3
4 -9 11 -14 24 -10 27 3 4 4 7 1 7 -3 0 -13 -10 -24 -22z"/>
<path d="M1031 1214 c0 -11 3 -14 6 -6 3 7 2 16 -1 19 -3 4 -6 -2 -5 -13z"/>
<path d="M674 1199 c-11 -18 14 -35 29 -20 10 10 8 11 -7 5 -16 -6 -18 -4 -13
9 7 19 2 23 -9 6z"/>
<path d="M635 1190 c-3 -5 -10 -8 -15 -5 -5 3 -11 1 -15 -4 -3 -6 4 -8 17 -6
12 3 25 -1 29 -7 5 -7 10 -10 13 -8 2 3 -2 13 -9 23 -8 12 -15 14 -20 7z"/>
<path d="M608 1153 c7 -3 16 -2 19 1 4 3 -2 6 -13 5 -11 0 -14 -3 -6 -6z"/>
<path d="M684 1143 c2 -9 8 -18 15 -19 6 -1 7 0 1 3 -5 2 -8 9 -5 13 3 5 1 11
-4 14 -5 4 -8 -2 -7 -11z"/>
<path d="M728 1143 c7 -3 16 -2 19 1 4 3 -2 6 -13 5 -11 0 -14 -3 -6 -6z"/>
<path d="M785 1131 c-3 -7 0 -8 9 -5 17 7 22 -11 6 -19 -6 -3 -5 -4 2 -3 16 3
17 28 1 33 -6 2 -14 -1 -18 -6z"/>
<path d="M720 1116 c0 -2 7 -7 16 -10 8 -3 12 -2 9 4 -6 10 -25 14 -25 6z"/>
<path d="M875 1070 c10 -11 20 -20 23 -20 3 0 -3 9 -13 20 -10 11 -20 20 -23
20 -3 0 3 -9 13 -20z"/>
<path d="M850 1066 c0 -2 8 -10 18 -17 15 -13 16 -12 3 4 -13 16 -21 21 -21
13z"/>
<path d="M828 1323 c6 -2 9 -10 6 -15 -4 -7 -2 -8 5 -4 13 9 5 26 -12 25 -9 0
-8 -2 1 -6z"/>
<path d="M1270 1228 c-15 -21 -17 -28 -6 -19 16 13 41 51 33 51 -2 0 -14 -15
-27 -32z"/>
<path d="M1305 1230 c-3 -5 -1 -10 4 -10 6 0 11 5 11 10 0 6 -2 10 -4 10 -3 0
-8 -4 -11 -10z"/>
<path d="M1233 1173 c-3 -7 -3 -18 0 -25 3 -7 6 -3 6 9 1 22 2 21 31 -7 17
-17 36 -30 43 -30 6 0 1 7 -12 16 -18 13 -20 18 -10 26 10 6 7 7 -8 3 -24 -7
-33 10 -10 18 6 3 1 4 -12 4 -13 -1 -25 -7 -28 -14z"/>
<path d="M1315 1161 c-3 -5 -2 -12 3 -15 5 -3 9 1 9 9 0 17 -3 19 -12 6z"/>
<path d="M1189 1133 c-13 -16 -12 -17 4 -4 16 13 21 21 13 21 -2 0 -10 -8 -17
-17z"/>
<path d="M1200 1110 c-9 -6 -10 -10 -3 -10 6 0 15 5 18 10 8 12 4 12 -15 0z"/>
<path d="M1141 1072 c-1 -7 -4 -11 -8 -9 -10 6 -34 -19 -26 -27 4 -3 15 2 26
11 19 17 20 17 14 1 -9 -25 0 -22 14 3 6 13 7 19 1 15 -6 -3 -13 0 -15 6 -4
10 -6 10 -6 0z"/>
<path d="M1119 897 c29 -32 27 -31 34 -13 3 8 -2 20 -11 28 -15 12 -16 11 -3
-4 17 -23 4 -23 -23 -1 -15 13 -14 10 3 -10z"/>
<path d="M1160 872 c0 -6 9 -12 21 -15 12 -3 19 -10 15 -15 -3 -5 1 -9 9 -9
11 0 12 3 3 14 -16 20 -48 36 -48 25z"/>
<path d="M1225 800 c10 -11 20 -20 23 -20 3 0 -3 9 -13 20 -10 11 -20 20 -23
20 -3 0 3 -9 13 -20z"/>
<path d="M1344 779 c-3 -6 -2 -15 4 -21 6 -6 12 -6 17 3 5 8 4 10 -3 5 -7 -4
-12 -3 -12 3 0 5 6 12 13 14 9 4 9 6 0 6 -6 1 -15 -4 -19 -10z"/>
<path d="M1296 762 c-2 -4 4 -8 14 -8 10 0 16 4 14 8 -3 4 -9 8 -14 8 -5 0
-11 -4 -14 -8z"/>
<path d="M748 883 c7 -3 16 -2 19 1 4 3 -2 6 -13 5 -11 0 -14 -3 -6 -6z"/>
<path d="M580 869 c0 -5 5 -7 10 -4 6 3 10 8 10 11 0 2 -4 4 -10 4 -5 0 -10
-5 -10 -11z"/>
<path d="M833 618 c3 -9 1 -19 -6 -21 -13 -5 20 -36 38 -37 6 0 4 4 -4 9 -12
8 -12 10 0 14 8 2 6 3 -4 1 -12 -1 -17 2 -14 10 3 7 1 19 -5 27 -8 11 -9 11
-5 -3z"/>
<path d="M1047 800 c3 -11 7 -20 9 -20 2 0 4 9 4 20 0 11 -4 20 -9 20 -5 0 -7
-9 -4 -20z"/>
<path d="M1071 783 c-1 -17 16 -25 25 -12 4 7 3 9 -4 5 -5 -3 -13 0 -15 6 -4
9 -6 10 -6 1z"/>
<path d="M1107 716 c16 -22 59 -34 47 -14 -3 5 -10 6 -15 3 -5 -4 -12 0 -15 9
-3 8 -12 17 -20 20 -11 4 -10 0 3 -18z"/>
<path d="M1180 664 c0 -12 37 -54 47 -54 4 0 -4 12 -18 28 -13 15 -25 29 -26
31 -2 2 -3 0 -3 -5z"/>
<path d="M1160 596 c0 -2 7 -7 16 -10 8 -3 12 -2 9 4 -6 10 -25 14 -25 6z"/>
<path d="M1090 570 c-9 -6 -10 -10 -3 -10 6 0 15 5 18 10 8 12 4 12 -15 0z"/>
<path d="M557 1583 c-4 -3 -7 -11 -7 -17 0 -6 5 -5 12 2 6 6 9 14 7 17 -3 3
-9 2 -12 -2z"/>
<path d="M1419 1562 c14 -11 31 -17 40 -14 10 4 12 1 6 -9 -8 -12 -6 -12 8 0
21 17 12 35 -11 22 -10 -6 -24 -4 -41 6 l-26 15 24 -20z"/>
<path d="M526 1553 c-6 -14 -5 -15 5 -6 7 7 10 15 7 18 -3 3 -9 -2 -12 -12z"/>
<path d="M479 1543 c-13 -16 -12 -17 4 -4 9 7 17 15 17 17 0 8 -8 3 -21 -13z"/>
<path d="M461 1501 c-7 -5 -12 -14 -10 -20 2 -6 10 -2 17 9 14 22 13 23 -7 11z"/>
<path d="M379 1485 c-1 -3 -2 -18 -3 -35 l-1 -30 17 23 c10 12 17 27 17 32 0
6 -3 4 -6 -2 -2 -7 -9 -13 -15 -13 -6 0 -8 7 -4 15 3 8 3 15 1 15 -3 0 -6 -2
-6 -5z"/>
<path d="M1526 1481 c-3 -5 2 -17 12 -28 9 -10 13 -13 9 -6 -5 6 -6 17 -3 22
4 5 2 12 -3 15 -5 4 -12 2 -15 -3z"/>
<path d="M410 1440 c-12 -17 -19 -36 -17 -43 4 -9 6 -8 6 1 1 8 10 27 22 43
11 16 18 29 15 29 -2 0 -14 -14 -26 -30z"/>
<path d="M1571 1403 c7 -12 16 -19 19 -15 3 4 10 11 15 15 6 5 3 7 -6 4 -9 -3
-22 0 -29 6 -9 8 -8 5 1 -10z"/>
<path d="M33 1330 c0 -47 2 -66 4 -42 2 23 2 61 0 85 -2 23 -4 4 -4 -43z"/>
<path d="M1743 1330 c0 -47 2 -66 4 -42 2 23 2 61 0 85 -2 23 -4 4 -4 -43z"/>
<path d="M1605 1380 c-9 -14 23 -62 35 -55 6 4 10 8 10 11 0 3 -4 3 -9 -1 -12
-7 -34 32 -26 45 3 6 4 10 1 10 -3 0 -8 -5 -11 -10z"/>
<path d="M365 1370 c-3 -5 -1 -10 4 -10 6 0 11 5 11 10 0 6 -2 10 -4 10 -3 0
-8 -4 -11 -10z"/>
<path d="M335 1330 c3 -5 8 -10 11 -10 2 0 4 5 4 10 0 6 -5 10 -11 10 -5 0 -7
-4 -4 -10z"/>
<path d="M212 1310 c0 -14 2 -19 5 -12 2 6 2 18 0 25 -3 6 -5 1 -5 -13z"/>
<path d="M305 1320 c-4 -6 -4 -14 -1 -17 3 -4 6 0 6 7 0 9 5 7 15 -6 8 -10 15
-14 15 -8 0 19 -27 37 -35 24z"/>
<path d="M290 1283 c0 -7 5 -15 11 -19 8 -4 7 -9 -2 -15 -10 -6 -10 -9 -2 -9
19 0 22 14 7 35 -8 10 -14 14 -14 8z"/>
<path d="M1676 1215 c4 -8 8 -15 10 -15 2 0 4 7 4 15 0 8 -4 15 -10 15 -5 0
-7 -7 -4 -15z"/>
<path d="M1700 1186 c0 -8 -6 -16 -12 -19 -7 -3 -4 -5 8 -4 15 1 20 6 16 19
-5 22 -12 24 -12 4z"/>
<path d="M262 1065 c0 -16 2 -22 5 -12 2 9 2 23 0 30 -3 6 -5 -1 -5 -18z"/>
<path d="M1702 1070 c0 -14 2 -19 5 -12 2 6 2 18 0 25 -3 6 -5 1 -5 -13z"/>
<path d="M32 1035 c0 -16 2 -22 5 -12 2 9 2 23 0 30 -3 6 -5 -1 -5 -18z"/>
<path d="M261 964 c0 -11 3 -14 6 -6 3 7 2 16 -1 19 -3 4 -6 -2 -5 -13z"/>
<path d="M1701 954 c0 -11 3 -14 6 -6 3 7 2 16 -1 19 -3 4 -6 -2 -5 -13z"/>
<path d="M184 765 c0 -88 2 -123 3 -77 2 46 2 118 0 160 -1 42 -3 5 -3 -83z"/>
<path d="M1741 864 c0 -11 3 -14 6 -6 3 7 2 16 -1 19 -3 4 -6 -2 -5 -13z"/>
<path d="M291 794 c0 -11 3 -14 6 -6 3 7 2 16 -1 19 -3 4 -6 -2 -5 -13z"/>
<path d="M1681 794 c0 -11 3 -14 6 -6 3 7 2 16 -1 19 -3 4 -6 -2 -5 -13z"/>
<path d="M330 700 c0 -5 5 -10 11 -10 5 0 7 5 4 10 -3 6 -8 10 -11 10 -2 0 -4
-4 -4 -10z"/>
<path d="M400 581 c0 -5 5 -13 10 -16 6 -3 10 -2 10 4 0 5 -4 13 -10 16 -5 3
-10 2 -10 -4z"/>
<path d="M34 410 c0 -69 1 -97 3 -62 2 34 2 90 0 125 -2 34 -3 6 -3 -63z"/>
<path d="M178 320 c-2 -116 0 -210 5 -210 4 0 7 94 7 210 0 116 -2 210 -5 210
-2 0 -6 -95 -7 -210z"/>
<path d="M1742 420 c0 -14 2 -19 5 -12 2 6 2 18 0 25 -3 6 -5 1 -5 -13z"/>
<path d="M1179 334 c-7 -8 -9 -17 -5 -21 3 -3 6 -1 6 5 0 6 12 12 28 14 25 3
25 4 5 10 -14 4 -27 1 -34 -8z"/>
<path d="M610 315 c0 -8 4 -15 10 -15 5 0 7 7 4 15 -4 8 -8 15 -10 15 -2 0 -4
-7 -4 -15z"/>
<path d="M842 318 c3 -7 15 -15 29 -16 38 -6 59 -31 59 -71 l1 -36 23 55 c22
52 24 55 56 52 40 -3 40 -2 46 -37 3 -15 11 -41 19 -58 13 -31 13 -30 13 38
-1 53 -2 61 -7 35 l-7 -35 -8 32 c-8 34 -21 39 -105 42 -30 0 -32 -1 -16 -13
14 -10 16 -17 7 -32 -10 -17 -11 -17 -23 9 -10 22 -19 27 -48 27 -27 0 -32 3
-21 10 13 8 12 10 -3 10 -11 0 -17 -6 -15 -12z"/>
<path d="M1136 319 c4 -8 0 -9 -15 -4 -12 4 -21 2 -21 -4 0 -6 14 -11 31 -11
26 0 29 -3 24 -20 -4 -11 -2 -20 4 -20 6 0 11 5 11 10 0 6 15 19 33 30 17 11
25 20 17 20 -9 0 -21 -5 -27 -11 -14 -14 -47 -4 -38 11 3 5 -1 10 -10 10 -9 0
-13 -5 -9 -11z"/>
<path d="M640 310 c0 -5 7 -10 16 -10 8 0 12 5 9 10 -3 6 -10 10 -16 10 -5 0
-9 -4 -9 -10z"/>
<path d="M715 309 c-17 -8 -17 -9 5 -5 28 6 44 -2 53 -24 4 -12 6 -12 6 2 1
10 -8 22 -18 28 -22 11 -20 12 -46 -1z"/>
<path d="M790 312 c0 -4 9 -8 20 -9 11 -1 18 2 15 8 -7 11 -35 12 -35 1z"/>
<path d="M1258 313 c22 -4 52 -43 33 -43 -5 0 -13 5 -16 10 -9 15 -57 12 -79
-5 -43 -32 -11 -125 43 -125 20 0 61 27 61 41 0 14 -26 11 -40 -6 -19 -22 -50
-1 -50 34 0 40 21 55 55 39 21 -9 28 -9 35 1 6 10 10 9 18 -5 10 -18 11 -18 9
3 0 12 -5 19 -9 17 -4 -3 -8 -1 -8 5 0 18 -31 41 -53 40 -22 -2 -22 -2 1 -6z"/>
<path d="M681 294 c0 -11 3 -14 6 -6 3 7 2 16 -1 19 -3 4 -6 -2 -5 -13z"/>
<path d="M630 241 c0 -65 26 -96 74 -87 42 8 56 30 56 89 0 41 -3 48 -17 45
-14 -2 -17 -12 -15 -44 3 -39 -15 -74 -37 -74 -19 0 -32 32 -30 72 3 34 0 43
-14 46 -14 3 -17 -5 -17 -47z"/>
<path d="M693 275 c-13 -14 -13 -85 0 -85 12 0 19 25 15 63 -2 28 -5 32 -15
22z"/>
<path d="M800 222 l0 -67 45 3 c54 5 79 32 71 78 -7 38 -31 54 -78 54 l-38 0
0 -68z m79 19 c13 -24 -5 -61 -29 -61 -17 0 -20 6 -20 44 0 39 2 44 20 39 11
-3 24 -13 29 -22z"/>
<path d="M852 227 c1 -14 5 -24 9 -21 9 5 6 31 -4 40 -4 4 -6 -4 -5 -19z"/>
<path d="M986 282 c-6 -11 -46 -116 -46 -123 0 -12 29 -5 34 8 7 18 56 16 71
-4 7 -9 17 -13 24 -9 7 5 9 12 3 19 -5 7 -17 36 -27 65 -13 36 -24 52 -36 52
-10 0 -20 -3 -23 -8z m44 -74 c0 -5 -11 -8 -24 -8 -24 0 -24 2 -14 31 l11 32
13 -24 c7 -13 13 -27 14 -31z"/>
<path d="M1105 225 c0 -36 4 -65 8 -65 4 0 12 0 17 0 6 0 10 28 10 65 0 56 -3
65 -18 65 -15 0 -18 -9 -17 -65z"/>
<path d="M600 233 c0 -21 3 -24 9 -14 5 8 7 20 4 28 -8 21 -13 15 -13 -14z"/>
<path d="M1154 203 c2 -29 -1 -56 -5 -60 -4 -4 7 -8 26 -8 25 0 31 3 23 12 -6
7 -14 11 -17 8 -4 -2 -8 1 -9 8 -1 7 -6 30 -11 52 l-10 40 3 -52z"/>
<path d="M1229 248 c-6 -20 -5 -38 2 -49 6 -11 13 -9 30 10 17 18 23 20 30 9
5 -7 9 -9 9 -4 0 6 6 2 13 -8 12 -16 13 -16 13 3 0 11 -4 17 -8 15 -4 -3 -8 0
-8 6 0 8 -9 10 -25 6 -14 -4 -25 -2 -25 4 0 8 -28 15 -31 8z m25 -17 c3 -5 -1
-11 -9 -14 -9 -4 -12 -1 -8 9 6 16 10 17 17 5z"/>
<path d="M772 203 c-1 -20 -11 -38 -26 -50 l-24 -19 38 0 c26 0 36 4 30 11 -5
5 -10 28 -13 50 -3 35 -4 36 -5 8z"/>
<path d="M610 171 c0 -6 7 -14 15 -17 8 -4 12 -10 9 -15 -3 -5 0 -9 5 -9 17 0
13 15 -9 35 -12 11 -20 13 -20 6z"/>
<path d="M907 162 c-23 -25 -22 -27 11 -30 19 -1 23 1 13 7 -8 5 -11 16 -8 25
8 21 4 20 -16 -2z"/>
<path d="M1302 168 c-15 -15 -15 -25 1 -31 8 -3 14 4 15 19 2 27 1 29 -16 12z"/>
<path d="M970 144 l-25 -14 27 2 c15 1 25 5 22 9 -2 4 4 10 13 12 12 3 13 5 3
5 -8 0 -26 -6 -40 -14z"/>
<path d="M823 133 c9 -2 23 -2 30 0 6 3 -1 5 -18 5 -16 0 -22 -2 -12 -5z"/>
<path d="M1083 133 c9 -2 25 -2 35 0 9 3 1 5 -18 5 -19 0 -27 -2 -17 -5z"/>
<path d="M598 53 c215 -2 569 -2 785 0 215 1 39 2 -393 2 -432 0 -608 -1 -392
-2z"/>
</g>
</svg>
