<?xml version="1.0" standalone="no"?>
<!DOCTYPE svg PUBLIC "-//W3C//DTD SVG 20010904//EN"
 "http://www.w3.org/TR/2001/REC-SVG-20010904/DTD/svg10.dtd">
<svg version="1.0" xmlns="http://www.w3.org/2000/svg"
 width="300.000000pt" height="300.000000pt" viewBox="0 0 300.000000 300.000000"
 preserveAspectRatio="xMidYMid meet">
<metadata>
Created by potrace 1.10, written by Peter Selinger 2001-2011
</metadata>
<g transform="translate(0.000000,300.000000) scale(0.100000,-0.100000)"
fill="#000000" stroke="none">
<path d="M307 2793 c-5 -4 -52 -8 -105 -8 -136 -2 -170 -26 -122 -88 20 -25
20 -25 182 -25 92 1 168 5 176 11 8 6 17 5 27 -3 8 -7 27 -10 41 -7 15 2 40 1
55 -3 16 -5 31 -5 34 0 3 4 31 6 62 3 32 -3 66 -5 76 -5 11 1 15 -4 10 -11 -3
-7 2 -5 13 4 16 13 46 16 94 10 24 -3 7 -21 -19 -21 -16 0 -34 -6 -41 -14 -6
-8 -17 -13 -24 -10 -13 5 -51 -24 -43 -33 3 -2 22 4 43 13 22 10 44 18 49 19
26 4 66 26 61 33 -3 5 1 9 9 9 8 0 12 -4 9 -9 -3 -4 8 -8 25 -8 16 0 31 5 33
11 2 6 20 10 41 10 20 -1 45 -1 55 -1 9 0 64 1 122 1 58 0 112 5 122 10 10 5
19 5 22 0 8 -12 915 -11 922 1 3 5 11 5 17 -1 7 -5 44 -8 82 -6 39 3 75 4 80
4 81 -7 496 -5 501 2 3 5 -4 9 -16 9 -12 0 -18 5 -15 10 3 6 -1 10 -10 10 -9
0 -13 -5 -10 -10 3 -6 -1 -10 -10 -10 -12 0 -15 5 -10 18 4 9 10 25 12 35 8
26 23 21 36 -13 10 -26 34 -47 43 -37 6 5 -20 57 -28 57 -5 0 -8 6 -8 14 0 17
-33 31 -38 17 -2 -7 -10 -8 -20 -2 -9 4 -44 6 -77 5 -80 -4 -71 -5 -155 2 -71
5 -99 6 -144 4 -10 -1 -29 -8 -42 -17 -20 -13 -24 -13 -24 -1 0 11 -14 14 -62
13 -35 -1 -71 -5 -80 -9 -9 -4 -25 -3 -35 2 -10 5 -152 8 -315 7 -164 -1 -298
3 -298 7 0 5 -8 4 -18 -1 -10 -6 -29 -7 -40 -4 -12 3 -28 0 -36 -6 -9 -7 -17
-8 -20 -2 -7 10 -158 7 -176 -4 -7 -4 -22 -2 -35 5 -16 9 -28 9 -41 2 -13 -7
-26 -6 -45 3 -21 12 -30 12 -51 1 -14 -8 -31 -11 -36 -7 -14 9 -54 7 -70 -3
-7 -4 -19 -2 -27 4 -12 10 -18 10 -31 -1 -10 -9 -18 -9 -22 -2 -9 13 -242 14
-259 0 -9 -6 -18 -5 -27 2 -12 10 -20 5 -41 -26 -17 -24 -24 -30 -20 -16 8 28
-38 62 -63 46 -11 -6 -25 -6 -45 1 -22 8 -30 8 -36 -3 -6 -9 -16 -11 -32 -5
-13 4 -35 8 -49 9 -14 1 -36 5 -50 9 -14 4 -29 4 -33 -1z m23 -23 c-8 -5 -7
-9 5 -14 25 -9 16 -60 -12 -64 -35 -5 -46 28 -21 66 11 18 24 29 30 26 7 -4 6
-9 -2 -14z m2200 0 c-8 -5 -7 -9 4 -13 21 -8 21 -56 0 -64 -9 -3 -25 -1 -35 6
-12 7 -19 7 -19 1 0 -15 -36 -12 -50 5 -26 31 15 78 44 49 13 -13 17 -12 32
11 9 13 21 22 26 19 6 -4 6 -9 -2 -14z m-1570 -22 c0 -6 -8 -7 -17 -4 -15 6
-15 5 1 -13 20 -22 14 -41 -14 -41 -15 0 -18 7 -18 33 1 17 5 35 11 39 13 8
37 -1 37 -14z m244 9 c11 -8 17 -23 14 -38 -2 -20 -9 -24 -45 -27 -35 -3 -42
0 -48 19 -6 17 -2 27 15 41 26 21 40 22 64 5z m1026 -9 c0 -5 -10 -7 -22 -3
-23 6 -23 6 1 -13 33 -27 20 -40 -42 -41 -53 0 -53 0 -49 27 3 23 0 28 -18 28
-18 0 -21 -5 -18 -28 4 -22 1 -28 -13 -28 -16 0 -17 4 -9 26 13 33 13 33 -10
31 -15 -1 -20 -8 -20 -29 0 -34 -12 -36 -34 -5 l-17 22 5 -22 c4 -21 0 -23
-37 -23 -41 0 -42 1 -42 35 0 34 1 35 41 35 31 0 46 -6 58 -22 l17 -23 -5 23
c-4 23 -3 23 85 21 49 -1 92 1 95 4 8 8 34 -3 34 -15z m-2115 -15 c0 -14 6
-28 14 -31 10 -3 13 3 9 27 -3 21 0 31 9 31 14 0 17 -27 7 -54 -7 -19 -35 -21
-52 -4 -16 16 -15 58 1 58 7 0 13 -11 12 -27z m94 5 l12 -23 -5 23 c-2 13 1
22 8 22 8 0 11 -12 8 -35 -5 -40 -14 -44 -31 -12 l-12 22 5 -22 c3 -15 -1 -23
-10 -23 -9 0 -14 12 -14 35 0 41 21 47 39 13z m66 -13 c0 -19 -5 -35 -11 -35
-6 0 -10 16 -10 35 1 46 21 46 21 0z m124 13 l12 -23 -5 23 c-3 14 1 22 9 22
8 0 13 -12 12 -35 -1 -40 -18 -46 -36 -12 l-12 22 5 -22 c3 -15 -1 -23 -9 -23
-8 0 -13 12 -12 35 1 40 18 46 36 13z m126 -13 c0 -26 -4 -30 -30 -33 -28 -3
-30 -1 -30 33 0 34 2 36 30 33 26 -3 30 -7 30 -33z m75 24 c0 -6 -9 -8 -20 -4
-11 4 -20 2 -20 -4 0 -6 8 -12 18 -12 16 -1 16 -2 0 -6 -10 -2 -18 -9 -18 -14
0 -6 9 -7 20 -4 11 4 20 2 20 -4 0 -6 -12 -11 -27 -11 -25 0 -28 3 -28 35 0
32 3 35 28 35 15 0 27 -5 27 -11z m81 -19 c14 -39 33 -39 27 -1 l-4 30 68 0
c37 0 68 -4 68 -9 0 -5 -7 -7 -15 -4 -11 5 -12 0 -5 -25 7 -26 6 -31 -9 -31
-14 0 -17 6 -13 31 4 25 2 30 -9 24 -33 -19 -39 -28 -29 -40 7 -9 -2 -12 -37
-14 -28 -1 -50 4 -56 11 -7 10 -10 10 -14 1 -2 -7 -10 -13 -18 -13 -9 0 -9 8
4 35 20 42 29 44 42 5z m219 19 c0 -6 -7 -9 -15 -5 -8 3 -15 1 -15 -4 0 -6 6
-10 13 -11 10 0 10 -2 0 -6 -7 -2 -13 -9 -13 -15 0 -6 7 -8 15 -4 8 3 15 1 15
-4 0 -6 -13 -10 -28 -10 -26 0 -28 2 -24 35 3 29 8 35 28 35 13 0 24 -5 24
-11z m120 -19 c7 -16 17 -30 22 -30 6 0 8 14 6 30 -5 36 12 40 36 8 l17 -23
-6 23 c-4 15 -2 22 7 22 10 0 13 -10 10 -35 -5 -41 -13 -44 -36 -12 l-17 22 5
-22 c3 -20 0 -23 -25 -23 -16 0 -29 5 -29 10 0 6 -7 10 -16 10 -8 0 -12 -4 -9
-10 3 -5 -1 -10 -9 -10 -14 0 -14 4 1 35 20 43 27 44 43 5z m260 20 c0 -5 -8
-7 -17 -4 -12 4 -10 0 6 -14 13 -11 21 -24 17 -31 -9 -14 -56 -15 -56 0 0 6 9
8 23 3 l22 -6 -23 24 c-12 13 -19 28 -15 31 10 11 43 8 43 -3z m65 -25 c0 -19
-4 -35 -10 -35 -5 0 -10 16 -10 35 0 19 5 35 10 35 6 0 10 -16 10 -35z m52 18
c14 -17 14 -17 9 0 -3 11 0 17 9 17 10 0 15 -11 15 -35 0 -40 -12 -45 -36 -12
l-16 22 5 -22 c3 -14 0 -23 -6 -23 -7 0 -12 15 -12 35 0 39 10 44 32 18z m108
-3 c8 -26 -11 -50 -39 -50 -17 0 -21 6 -21 35 0 31 3 35 27 35 18 0 29 -7 33
-20z m65 10 c0 -5 -7 -7 -15 -4 -8 4 -15 1 -15 -5 0 -6 6 -11 13 -12 10 0 10
-2 0 -6 -7 -2 -13 -9 -13 -15 0 -6 7 -8 15 -4 8 3 15 1 15 -4 0 -6 -12 -10
-27 -10 -25 0 -28 3 -28 35 0 32 3 35 28 35 15 0 27 -4 27 -10z m66 -1 c3 -6
-1 -18 -11 -27 -16 -16 -17 -16 -10 6 4 13 2 22 -4 22 -15 0 -14 -47 2 -53 6
-3 2 -6 -10 -6 -20 -1 -23 4 -23 34 0 30 3 35 24 35 14 0 28 -5 32 -11z m64 0
c0 -6 -7 -9 -15 -5 -8 3 -15 1 -15 -4 0 -6 6 -10 13 -11 10 0 10 -2 0 -6 -7
-2 -13 -9 -13 -14 0 -4 7 -6 15 -3 8 4 15 1 15 -5 0 -6 -12 -11 -27 -11 -25 0
-28 3 -28 35 0 32 3 35 28 35 15 0 27 -5 27 -11z m46 -11 l16 -23 -5 23 c-3
13 0 22 7 22 8 0 11 -12 8 -35 -5 -40 -9 -42 -29 -17 -14 16 -14 16 -9 0 3
-12 0 -18 -9 -18 -10 0 -15 11 -15 35 0 40 12 45 36 13z m103 8 c18 -22 -3
-56 -34 -56 -22 0 -25 4 -25 35 0 30 3 35 24 35 13 0 29 -6 35 -14z m36 -21
c0 -19 -4 -35 -10 -35 -5 0 -10 16 -10 35 0 19 5 35 10 35 6 0 10 -16 10 -35z
m442 19 c9 -23 -10 -48 -38 -52 -21 -3 -24 1 -24 33 0 32 3 35 28 35 16 0 30
-7 34 -16z m63 6 c0 -5 -7 -7 -15 -4 -8 4 -15 1 -15 -5 0 -6 6 -11 13 -12 10
0 10 -2 0 -6 -7 -2 -13 -9 -13 -15 0 -6 7 -8 15 -4 8 3 15 1 15 -4 0 -6 -13
-10 -28 -10 -26 0 -28 2 -24 35 3 29 8 35 28 35 13 0 24 -4 24 -10z m222 -22
c-2 -21 2 -28 14 -28 12 0 15 7 12 30 -4 26 -1 30 18 30 13 0 26 -5 30 -11 4
-8 9 -8 17 0 18 18 55 13 62 -9 12 -37 -41 -70 -61 -39 -4 8 -9 8 -17 0 -17
-17 -78 -13 -94 7 -14 16 -14 16 -9 0 3 -12 0 -18 -9 -18 -10 0 -15 11 -15 36
0 33 2 35 28 32 23 -3 27 -7 24 -30z m220 9 c7 -35 -1 -47 -30 -47 -24 0 -27
4 -27 35 0 31 3 35 26 35 20 0 28 -6 31 -23z"/>
<path d="M303 2734 c-8 -22 15 -44 26 -25 10 16 4 41 -10 41 -5 0 -12 -7 -16
-16z"/>
<path d="M2443 2734 c-8 -21 13 -42 28 -27 13 13 5 43 -11 43 -6 0 -13 -7 -17
-16z"/>
<path d="M2504 2735 c-3 -8 -3 -19 1 -25 11 -18 25 -11 25 15 0 27 -17 34 -26
10z"/>
<path d="M920 2710 c0 -5 5 -10 10 -10 6 0 10 5 10 10 0 6 -4 10 -10 10 -5 0
-10 -4 -10 -10z"/>
<path d="M1147 2743 c-4 -3 -7 -15 -7 -25 0 -16 3 -16 20 -6 18 12 19 13 2 20
-14 5 -13 7 6 7 16 1 22 -5 22 -21 0 -16 3 -19 11 -11 17 17 3 43 -24 43 -13
0 -27 -3 -30 -7z"/>
<path d="M1920 2740 c0 -5 8 -11 18 -13 16 -4 16 -5 0 -6 -10 0 -18 -5 -18
-10 0 -5 11 -8 25 -7 18 1 25 7 25 21 0 14 -7 20 -25 21 -14 1 -25 -2 -25 -6z"/>
<path d="M2130 2741 c0 -6 8 -11 18 -12 14 0 14 -2 -3 -9 -23 -10 -23 -10 28
-14 37 -3 38 -2 20 14 -23 22 -63 35 -63 21z"/>
<path d="M490 2725 c0 -14 4 -25 9 -25 12 0 23 29 15 41 -10 18 -24 9 -24 -16z"/>
<path d="M730 2740 c0 -5 5 -10 10 -10 6 0 10 5 10 10 0 6 -4 10 -10 10 -5 0
-10 -4 -10 -10z"/>
<path d="M1460 2725 c0 -17 5 -25 13 -22 6 2 12 12 12 22 0 10 -6 20 -12 23
-8 2 -13 -6 -13 -23z"/>
<path d="M1810 2725 c0 -17 5 -25 13 -22 6 2 12 12 12 22 0 10 -6 20 -12 23
-8 2 -13 -6 -13 -23z"/>
<path d="M2290 2724 c0 -14 4 -23 10 -19 6 3 10 15 10 26 0 10 -4 19 -10 19
-5 0 -10 -12 -10 -26z"/>
<path d="M2580 2740 c0 -5 5 -10 10 -10 6 0 10 5 10 10 0 6 -4 10 -10 10 -5 0
-10 -4 -10 -10z"/>
<path d="M2650 2725 c0 -17 5 -25 13 -22 6 2 12 12 12 22 0 10 -6 20 -12 23
-8 2 -13 -6 -13 -23z"/>
<path d="M2720 2725 c0 -17 5 -25 13 -22 6 2 12 12 12 22 0 10 -6 20 -12 23
-8 2 -13 -6 -13 -23z"/>
<path d="M2800 2710 c0 -5 5 -10 10 -10 6 0 10 5 10 10 0 6 -4 10 -10 10 -5 0
-10 -4 -10 -10z"/>
<path d="M118 2623 c5 -26 5 -26 13 -5 5 12 11 22 14 22 4 0 4 -4 0 -9 -3 -5
-1 -12 5 -16 5 -3 10 0 10 8 0 10 13 13 49 13 43 -1 48 -3 38 -16 -10 -12 -8
-12 13 1 14 9 42 16 62 17 31 1 36 -1 31 -16 -6 -15 -5 -15 11 1 10 10 24 16
31 14 6 -3 18 -1 25 3 7 5 -59 9 -147 9 l-160 2 5 -28z"/>
<path d="M478 2643 c7 -3 16 -2 19 1 4 3 -2 6 -13 5 -11 0 -14 -3 -6 -6z"/>
<path d="M1258 2643 c7 -3 16 -2 19 1 4 3 -2 6 -13 5 -11 0 -14 -3 -6 -6z"/>
<path d="M1303 2643 c9 -2 23 -2 30 0 6 3 -1 5 -18 5 -16 0 -22 -2 -12 -5z"/>
<path d="M1380 2641 c0 -5 9 -7 20 -4 11 3 20 7 20 9 0 2 -9 4 -20 4 -11 0
-20 -4 -20 -9z"/>
<path d="M1504 2641 c3 -5 24 -6 46 -4 26 3 47 0 57 -9 9 -7 14 -8 11 -3 -3 6
8 11 28 12 20 1 34 -3 34 -10 0 -7 4 -6 10 3 8 13 13 13 31 2 11 -8 18 -9 14
-3 -3 7 2 11 14 11 12 0 21 -6 21 -12 0 -9 4 -8 11 2 8 11 12 12 16 2 2 -6 10
-9 16 -5 19 12 257 11 257 -1 0 -7 3 -7 8 1 8 12 97 12 109 0 9 -10 25 -9 20
1 -3 4 50 6 116 6 152 -2 147 -2 147 -15 0 -5 -4 -8 -9 -5 -5 3 -8 -5 -7 -18
0 -13 5 -22 10 -18 5 3 6 -5 2 -19 -4 -13 -7 -28 -7 -34 8 -126 8 -126 -12
-107 -20 17 -20 17 -2 -12 17 -25 19 -52 20 -237 1 -115 4 -212 8 -215 3 -4 6
152 7 345 l0 351 -490 0 c-277 0 -489 -4 -486 -9z"/>
<path d="M915 2624 c-22 -9 -53 -18 -68 -21 -16 -3 -31 -12 -34 -20 -4 -11 -8
-12 -13 -2 -7 10 -15 10 -39 -1 -37 -15 -54 -36 -22 -25 12 4 37 9 54 11 64 8
97 16 97 25 0 5 9 9 20 9 11 0 20 3 20 8 0 4 20 7 45 7 39 0 43 2 28 13 -22
16 -39 15 -88 -4z"/>
<path d="M1030 2630 c19 -13 30 -13 30 0 0 6 -10 10 -22 10 -19 0 -20 -2 -8
-10z"/>
<path d="M310 2616 c0 -2 7 -7 16 -10 8 -3 12 -2 9 4 -6 10 -25 14 -25 6z"/>
<path d="M1128 2613 c6 -2 18 -2 25 0 6 3 1 5 -13 5 -14 0 -19 -2 -12 -5z"/>
<path d="M976 2592 c-3 -6 -1 -14 5 -17 15 -10 25 3 12 16 -7 7 -13 7 -17 1z"/>
<path d="M120 2455 c0 -74 4 -135 8 -135 5 0 7 21 6 47 -2 29 2 50 9 55 9 6 9
8 0 8 -16 0 -17 34 -2 62 6 11 7 18 2 15 -6 -4 -10 8 -11 26 0 17 4 34 9 38 7
4 4 9 -5 12 -14 6 -16 -10 -16 -128z"/>
<path d="M681 2571 c-8 -6 -9 -11 -3 -15 6 -3 14 -1 17 5 9 14 2 20 -14 10z"/>
<path d="M1170 2559 c0 -5 5 -7 10 -4 6 3 10 8 10 11 0 2 -4 4 -10 4 -5 0 -10
-5 -10 -11z"/>
<path d="M571 2544 c0 -11 3 -14 6 -6 3 7 2 16 -1 19 -3 4 -6 -2 -5 -13z"/>
<path d="M830 2540 c-19 -11 -39 -23 -45 -27 -5 -4 -16 -8 -22 -9 -7 -1 -20
-2 -28 -2 -8 -1 -24 -11 -34 -21 -11 -11 -28 -21 -38 -23 -10 -2 -24 -9 -31
-16 -8 -7 -18 -10 -23 -7 -5 4 -9 1 -9 -4 0 -14 4 -14 45 3 19 8 35 13 35 10
0 -3 10 2 22 10 12 9 32 16 43 16 11 0 44 16 74 35 29 19 56 33 60 31 4 -3 13
-1 21 5 9 5 10 9 3 9 -6 0 -17 2 -25 4 -7 3 -29 -4 -48 -14z m-63 -56 c-3 -3
-12 -4 -19 -1 -8 3 -5 6 6 6 11 1 17 -2 13 -5z"/>
<path d="M1019 2529 l-34 -31 38 21 37 20 34 -20 c23 -13 43 -18 60 -13 16 4
26 2 26 -5 0 -16 -72 -13 -96 4 -19 13 -25 12 -56 -3 -19 -10 -61 -24 -94 -31
-64 -15 -283 -96 -298 -112 -13 -12 9 -12 32 1 34 19 179 70 256 90 43 11 85
25 93 31 16 14 12 18 49 -55 39 -80 114 -160 167 -181 56 -21 154 -7 201 28
37 29 106 142 106 174 0 18 6 23 26 23 14 0 33 -4 42 -9 9 -5 26 -5 37 -1 32
11 -84 22 -122 11 -17 -5 -34 -7 -37 -3 -3 3 -6 0 -6 -6 0 -7 12 -12 26 -12
22 0 24 -3 19 -22 -10 -33 -60 -110 -89 -137 -32 -30 -160 -50 -204 -32 -44
18 -105 88 -147 165 l-36 69 43 -8 c46 -8 45 -8 98 -1 19 2 51 5 70 7 28 2 25
3 -20 9 l-55 6 72 4 c52 4 69 2 62 -6 -10 -12 30 -9 66 5 63 25 142 37 172 27
47 -16 50 -26 7 -20 -27 4 -34 2 -24 -4 18 -12 91 -22 189 -27 40 -2 76 -7 79
-9 3 -3 11 -1 19 6 11 9 19 7 36 -10 13 -13 16 -22 9 -22 -9 0 -6 -10 8 -31
12 -16 28 -28 35 -25 18 6 69 -49 60 -65 -5 -7 -4 -10 3 -5 12 7 145 -96 262
-204 38 -36 114 -90 126 -90 7 0 16 -4 19 -10 3 -5 0 -8 -7 -5 -7 2 -21 -7
-31 -20 -10 -14 -13 -25 -7 -25 5 0 10 4 10 9 0 5 7 12 16 15 14 5 15 -1 11
-39 -4 -48 -15 -61 -79 -95 -20 -11 -40 -24 -43 -30 -4 -6 -28 -21 -54 -35
-56 -28 -141 -105 -117 -105 9 0 16 -6 16 -14 0 -7 5 -71 11 -142 14 -174 16
-213 23 -479 4 -126 9 -256 12 -288 l5 -58 -40 6 c-23 3 -49 1 -59 -4 -14 -9
-11 -10 18 -11 72 -1 77 -5 83 -81 3 -38 3 -84 0 -104 l-6 -35 -71 0 c-72 0
-198 -20 -249 -39 -35 -13 -31 -13 -347 -6 -146 4 -368 8 -495 10 -126 1 -248
5 -270 7 -22 3 -49 1 -61 -3 -35 -12 -49 4 -29 35 10 14 20 26 24 26 13 0 34
121 28 165 -9 59 -40 123 -81 166 l-34 35 12 64 c12 68 12 139 1 376 -5 100
-4 143 4 148 6 4 11 22 11 39 0 18 9 59 19 92 10 33 21 85 25 116 5 48 3 60
-15 83 -19 25 -69 37 -69 17 0 -5 8 -7 18 -5 9 2 25 -3 36 -11 17 -13 17 -15
2 -31 -9 -9 -14 -19 -11 -22 3 -3 12 3 21 14 15 18 15 17 9 -11 -4 -16 -10
-53 -15 -80 -4 -28 -18 -78 -29 -113 -24 -69 -25 -91 -22 -400 1 -193 -3 -282
-16 -282 -2 0 -17 7 -33 15 -50 26 -139 30 -206 9 -32 -10 -65 -18 -71 -17 -7
0 -11 -3 -8 -7 2 -4 -9 -16 -24 -28 -16 -11 -40 -44 -55 -73 -33 -66 -36 -171
-7 -234 66 -146 270 -202 404 -111 20 14 40 21 47 16 16 -10 291 -19 783 -26
364 -4 392 -3 455 15 87 25 194 41 278 41 l67 0 -7 233 c-8 315 -25 647 -41
852 -8 93 -13 170 -12 170 1 1 51 32 111 70 130 82 166 111 166 135 0 10 7 23
15 30 8 7 12 17 8 24 -4 6 -6 20 -5 31 2 14 -6 24 -25 33 -15 6 -71 46 -123
87 -52 42 -120 95 -150 117 -30 23 -102 90 -160 148 l-106 107 -106 6 c-71 5
-124 14 -163 29 -50 19 -62 20 -102 10 -24 -7 -114 -17 -198 -23 -149 -11
-155 -11 -188 10 l-33 20 -35 -30z m348 -15 c-3 -3 -12 -4 -19 -1 -8 3 -5 6 6
6 11 1 17 -2 13 -5z m-861 -1641 c22 -10 45 -18 51 -18 7 0 13 -5 14 -10 1 -6
12 -23 26 -39 36 -43 53 -92 53 -158 0 -69 -15 -111 -60 -162 -55 -62 -102
-81 -200 -81 -68 0 -93 5 -126 22 -172 91 -179 331 -14 431 49 29 61 32 136
32 55 0 94 -5 120 -17z"/>
<path d="M320 871 c-148 -48 -212 -193 -144 -329 44 -89 138 -133 256 -119
226 27 277 335 71 432 -41 20 -145 29 -183 16z m176 -42 c61 -29 93 -67 106
-130 11 -56 5 -129 -12 -129 -6 0 -10 5 -10 10 0 6 -16 20 -35 31 -41 25 -44
36 -11 48 40 16 48 59 15 92 -15 15 -28 19 -50 14 -24 -6 -29 -3 -29 13 0 34
-35 56 -77 48 -21 -4 -48 -9 -60 -11 -12 -2 -37 -15 -56 -29 -19 -14 -39 -26
-45 -26 -16 0 -24 -36 -17 -69 4 -21 1 -36 -12 -50 -25 -29 -33 -26 -33 13 0
86 77 176 170 197 40 8 112 -1 156 -22z m-49 -33 c6 -5 -60 -156 -68 -156 -4
0 -32 9 -61 21 -29 12 -63 25 -76 30 l-23 9 23 30 22 30 51 -50 c28 -27 54
-50 58 -50 4 0 7 34 7 76 l0 76 33 -7 c17 -4 33 -8 34 -9z m-101 -35 c-9 -14
-33 -14 -41 -1 -4 6 -1 18 6 26 11 13 14 13 27 0 8 -8 11 -19 8 -25z m186 -28
c29 -26 22 -37 -42 -68 -33 -16 -60 -31 -60 -34 0 -4 29 -17 65 -29 36 -13 65
-28 65 -33 0 -5 -7 -21 -16 -35 l-17 -25 -58 56 c-87 83 -92 73 -11 -23 25
-29 43 -54 41 -56 -9 -8 -69 -36 -77 -36 -5 0 -12 31 -16 69 -3 38 -8 76 -12
84 -3 9 18 41 53 81 32 36 60 66 62 66 3 0 13 -7 23 -17z m-265 -79 c-3 -3
-12 -4 -19 -1 -8 3 -5 6 6 6 11 1 17 -2 13 -5z m76 -30 l37 -7 0 -84 0 -85
-32 7 c-18 4 -35 9 -37 11 -3 2 4 21 14 42 9 20 24 52 31 69 l14 33 -71 -27
c-76 -28 -89 -25 -89 25 0 20 5 22 48 22 26 0 64 -3 85 -6z m-42 -102 c-6 -2
-11 -15 -11 -28 0 -13 -4 -24 -9 -24 -15 0 -73 52 -66 59 4 3 25 10 48 16 34
8 43 7 46 -5 2 -8 -2 -16 -8 -18z"/>
<path d="M662 2494 c-52 -25 -92 -48 -89 -50 3 -3 36 10 73 29 38 19 79 38 92
42 12 3 22 11 22 16 0 12 9 15 -98 -37z"/>
<path d="M445 2521 c-3 -5 -2 -12 3 -15 5 -3 9 1 9 9 0 17 -3 19 -12 6z"/>
<path d="M620 2520 c-8 -5 -11 -12 -7 -16 4 -4 15 0 24 9 18 18 8 23 -17 7z"/>
<path d="M1490 2519 c0 -5 5 -7 10 -4 6 3 10 8 10 11 0 2 -4 4 -10 4 -5 0 -10
-5 -10 -11z"/>
<path d="M876 2505 c-16 -12 -17 -15 -4 -15 9 0 18 7 22 15 7 18 6 18 -18 0z"/>
<path d="M335 2484 c-9 -15 -12 -23 -6 -20 11 7 35 46 28 46 -3 0 -12 -12 -22
-26z"/>
<path d="M577 2493 c-12 -12 -7 -22 8 -17 8 4 15 10 15 15 0 11 -14 12 -23 2z"/>
<path d="M2421 2490 c0 -8 4 -22 9 -30 12 -18 12 -2 0 25 -6 13 -9 15 -9 5z"/>
<path d="M520 2481 c0 -6 6 -11 13 -11 7 0 4 -7 -7 -15 -11 -8 -15 -15 -9 -15
5 0 18 10 29 23 10 12 15 19 10 15 -5 -4 -15 -3 -23 3 -9 9 -13 8 -13 0z"/>
<path d="M181 2437 c-13 -21 -12 -21 5 -5 10 10 16 20 13 22 -3 3 -11 -5 -18
-17z"/>
<path d="M1763 2453 c9 -2 23 -2 30 0 6 3 -1 5 -18 5 -16 0 -22 -2 -12 -5z"/>
<path d="M1180 2440 c0 -5 9 -10 21 -10 11 0 17 5 14 10 -3 6 -13 10 -21 10
-8 0 -14 -4 -14 -10z"/>
<path d="M1336 2441 c-3 -5 3 -11 13 -14 14 -3 18 -1 14 9 -6 16 -19 18 -27 5z"/>
<path d="M280 2421 c0 -25 6 -27 13 -6 4 8 2 17 -3 20 -6 4 -10 -3 -10 -14z"/>
<path d="M520 2420 c-20 -16 -21 -19 -5 -13 22 8 51 33 38 33 -4 0 -19 -9 -33
-20z"/>
<path d="M1125 2430 c-18 -8 -17 -9 7 -9 15 -1 30 4 33 9 7 12 -12 12 -40 0z"/>
<path d="M1258 2433 c12 -2 32 -2 45 0 12 2 2 4 -23 4 -25 0 -35 -2 -22 -4z"/>
<path d="M1400 2434 c0 -3 7 -12 15 -20 13 -13 15 -13 15 -1 0 8 -7 17 -15 21
-8 3 -15 3 -15 0z"/>
<path d="M685 2409 c-68 -27 -87 -36 -183 -92 -45 -26 -114 -64 -152 -83 -38
-20 -82 -48 -97 -63 -15 -16 -45 -34 -65 -40 -58 -19 -63 -31 -36 -93 12 -29
38 -82 58 -118 20 -36 51 -96 69 -135 34 -71 79 -135 94 -135 5 0 20 9 34 20
14 11 21 20 15 20 -6 0 -14 -4 -17 -10 -3 -5 -14 -10 -23 -10 -11 0 -5 9 18
30 19 16 27 27 18 24 -10 -3 -18 -10 -18 -14 0 -16 -40 -22 -53 -8 -7 7 -39
65 -71 128 -32 63 -73 144 -92 179 -19 36 -33 70 -30 77 3 7 17 15 33 18 15 4
45 22 66 40 21 18 89 59 150 91 62 32 130 69 152 84 63 42 76 50 133 77 28 14
52 27 52 30 0 5 3 6 -55 -17z"/>
<path d="M1827 2401 c-4 -18 -6 -50 -6 -70 1 -30 3 -27 10 19 11 61 7 104 -4
51z"/>
<path d="M570 2410 c0 -5 5 -10 10 -10 6 0 10 5 10 10 0 6 -4 10 -10 10 -5 0
-10 -4 -10 -10z"/>
<path d="M2055 2410 c-3 -6 1 -7 9 -4 18 7 21 14 7 14 -6 0 -13 -4 -16 -10z"/>
<path d="M1244 2403 c3 -4 14 -8 24 -9 9 0 28 -4 42 -8 15 -4 32 -2 42 6 15
11 8 13 -49 15 -36 2 -63 0 -59 -4z"/>
<path d="M2105 2380 c3 -5 8 -10 11 -10 2 0 4 5 4 10 0 6 -5 10 -11 10 -5 0
-7 -4 -4 -10z"/>
<path d="M1920 2374 c0 -8 32 -33 43 -34 5 0 5 4 2 10 -8 13 -45 33 -45 24z"/>
<path d="M405 2350 c3 -5 8 -10 11 -10 2 0 4 5 4 10 0 6 -5 10 -11 10 -5 0 -7
-4 -4 -10z"/>
<path d="M2155 2351 c3 -6 10 -9 15 -6 4 3 11 0 13 -5 3 -6 4 -5 3 2 -1 7 -11
15 -21 16 -11 3 -15 0 -10 -7z"/>
<path d="M2060 2342 c0 -5 7 -9 15 -9 8 0 15 4 15 9 0 4 -7 8 -15 8 -8 0 -15
-4 -15 -8z"/>
<path d="M2200 2324 c0 -8 5 -12 10 -9 6 4 8 11 5 16 -9 14 -15 11 -15 -7z"/>
<path d="M590 2316 c0 -9 5 -16 10 -16 6 0 10 4 10 9 0 6 -4 13 -10 16 -5 3
-10 -1 -10 -9z"/>
<path d="M190 2304 c0 -8 5 -12 10 -9 6 4 8 11 5 16 -9 14 -15 11 -15 -7z"/>
<path d="M2088 2313 c6 -2 18 -2 25 0 6 3 1 5 -13 5 -14 0 -19 -2 -12 -5z"/>
<path d="M123 2270 c0 -25 2 -35 4 -22 2 12 2 32 0 45 -2 12 -4 2 -4 -23z"/>
<path d="M1961 2297 c-1 -10 8 -39 18 -65 11 -26 22 -54 24 -62 5 -13 5 -13 6
0 0 8 -10 44 -24 80 -13 36 -24 57 -24 47z"/>
<path d="M2135 2300 c-3 -5 -1 -10 4 -10 6 0 11 5 11 10 0 6 -2 10 -4 10 -3 0
-8 -4 -11 -10z"/>
<path d="M1810 2258 c0 -37 7 -34 14 5 2 15 0 27 -5 27 -5 0 -9 -14 -9 -32z"/>
<path d="M2020 2271 c0 -6 4 -13 10 -16 6 -3 7 1 4 9 -7 18 -14 21 -14 7z"/>
<path d="M200 2260 c0 -5 7 -7 15 -4 8 4 15 8 15 10 0 2 -7 4 -15 4 -8 0 -15
-4 -15 -10z"/>
<path d="M2345 2240 c-3 -6 1 -7 9 -4 18 7 21 14 7 14 -6 0 -13 -4 -16 -10z"/>
<path d="M141 2204 c0 -11 3 -14 6 -6 3 7 2 16 -1 19 -3 4 -6 -2 -5 -13z"/>
<path d="M2328 2208 c6 -6 18 -8 28 -6 14 3 12 5 -9 10 -19 3 -25 2 -19 -4z"/>
<path d="M566 2201 c-4 -5 3 -7 14 -4 23 6 26 13 6 13 -8 0 -17 -4 -20 -9z"/>
<path d="M1430 2200 c-8 -5 -10 -10 -5 -10 6 0 17 5 25 10 8 5 11 10 5 10 -5
0 -17 -5 -25 -10z"/>
<path d="M151 2164 c0 -11 3 -14 6 -6 3 7 2 16 -1 19 -3 4 -6 -2 -5 -13z"/>
<path d="M1278 2173 c7 -3 16 -2 19 1 4 3 -2 6 -13 5 -11 0 -14 -3 -6 -6z"/>
<path d="M1318 2173 c7 -3 16 -2 19 1 4 3 -2 6 -13 5 -11 0 -14 -3 -6 -6z"/>
<path d="M2068 2158 c-20 -9 -45 -31 -55 -48 -9 -17 -23 -28 -30 -26 -6 3 -19
-6 -28 -20 -21 -33 -48 -59 -67 -66 -24 -10 -33 -90 -14 -127 9 -16 16 -37 16
-46 0 -28 30 -75 48 -75 10 0 28 9 39 19 12 11 24 17 28 13 4 -4 5 0 3 8 -2
11 9 14 60 14 45 -1 62 2 58 11 -2 7 12 21 32 32 68 36 102 58 106 70 3 6 -14
-1 -37 -16 -23 -15 -51 -31 -61 -35 -16 -5 -17 -4 -6 9 7 8 27 24 46 36 18 11
43 33 54 49 l21 29 -25 54 c-28 59 -64 96 -116 118 -32 14 -38 14 -72 -3z m43
-7 c-11 -7 -5 -14 25 -27 59 -27 61 -27 34 -5 -14 11 -20 21 -14 21 6 0 21
-11 34 -25 13 -14 20 -25 16 -25 -4 0 1 -15 11 -32 10 -18 18 -42 18 -53 -1
-11 3 -26 9 -33 6 -9 4 -18 -9 -30 -18 -16 -18 -16 -6 1 8 9 11 20 8 24 -8 8
-38 -17 -32 -26 2 -4 -2 -8 -10 -8 -8 0 -16 6 -19 14 -3 7 1 13 8 13 8 0 17 7
20 16 3 8 2 12 -4 9 -13 -8 -13 8 -1 21 6 5 4 17 -7 32 -18 23 -18 23 -14 -17
4 -36 1 -41 -28 -56 -18 -9 -29 -12 -26 -6 4 6 3 11 -3 11 -13 0 -41 53 -41
78 0 24 23 45 45 40 15 -3 15 -5 0 -23 -14 -17 -16 -18 -11 -2 3 11 2 16 -4
12 -15 -9 -12 -48 5 -73 13 -17 19 -19 33 -11 39 24 13 105 -35 111 -20 2 -28
8 -27 21 2 23 -17 22 -23 -2 -3 -12 -11 -17 -19 -14 -19 7 -8 22 30 39 35 15
58 18 37 5z m-80 -100 c-19 -19 -20 -19 -18 7 2 32 19 47 30 27 5 -9 1 -21
-12 -34z m53 34 c-6 -16 -24 -21 -24 -7 0 11 11 22 21 22 5 0 6 -7 3 -15z
m-79 -23 c-6 -4 -10 -16 -10 -26 0 -11 -6 -21 -13 -24 -8 -2 -12 5 -10 25 1
21 7 29 22 31 12 0 16 -2 11 -6z m89 -87 c12 -18 13 -25 4 -25 -7 0 -5 -5 5
-11 10 -6 30 -8 45 -4 41 10 24 -1 -37 -24 l-54 -20 -61 25 c-34 14 -69 27
-79 28 -22 3 -41 22 -33 34 3 5 18 7 33 4 23 -4 26 -2 16 9 -19 20 -16 29 10
25 24 -4 25 -24 2 -42 -8 -6 -12 -14 -9 -17 4 -3 21 10 39 29 32 33 69 47 59
21 -2 -7 5 -23 16 -35 24 -25 26 -26 36 -10 4 7 3 8 -5 4 -6 -4 -10 -4 -9 1 1
4 -3 18 -10 31 -8 13 -10 32 -6 45 7 20 8 19 14 -10 4 -18 15 -44 24 -58z
m-44 71 c0 -3 -4 -8 -10 -11 -5 -3 -10 -1 -10 4 0 6 5 11 10 11 6 0 10 -2 10
-4z m103 -9 c3 -8 1 -20 -4 -28 -7 -12 -10 -12 -21 0 -11 11 -11 13 1 6 11 -6
13 -3 9 13 -7 24 7 31 15 9z m104 -49 c-3 -8 -6 -5 -6 6 -1 11 2 17 5 13 3 -3
4 -12 1 -19z m-336 -63 c5 4 26 -3 45 -14 19 -12 42 -21 50 -21 8 0 14 -5 14
-11 0 -15 -52 -7 -70 11 -16 16 -60 26 -60 14 0 -11 34 -33 53 -34 27 0 20
-17 -10 -25 -21 -5 -31 -1 -44 17 -10 12 -15 26 -13 30 3 4 1 8 -3 8 -5 0 -9
9 -10 20 -2 17 1 18 18 10 11 -6 24 -8 30 -5z m222 -45 c-23 -22 -52 -41 -65
-44 -13 -3 -36 -8 -52 -11 -16 -3 -42 -19 -58 -36 -30 -30 -48 -37 -48 -18 0
5 5 7 10 4 6 -3 10 -1 10 5 0 5 15 24 33 41 l32 31 -30 -18 c-16 -9 -35 -24
-41 -32 -12 -16 -38 -7 -28 9 3 5 23 17 45 25 24 10 36 20 32 28 -5 8 -3 8 8
-1 15 -12 69 -6 69 7 0 5 10 6 23 3 17 -4 19 -2 8 5 -11 8 -3 14 35 25 27 9
51 16 54 16 3 0 -14 -17 -37 -39z"/>
<path d="M1992 1980 c-25 -32 -21 -55 9 -47 11 3 19 1 19 -3 0 -10 59 -24 67
-16 4 3 4 8 1 11 -6 7 -54 17 -80 19 -13 0 -14 3 -5 14 9 12 21 53 14 51 -1 0
-12 -13 -25 -29z"/>
<path d="M2031 1964 c0 -11 3 -14 6 -6 3 7 2 16 -1 19 -3 4 -6 -2 -5 -13z"/>
<path d="M2270 2170 c-9 -6 -10 -10 -3 -10 6 0 15 5 18 10 8 12 4 12 -15 0z"/>
<path d="M660 2139 c0 -8 5 -20 12 -27 8 -8 8 -12 1 -12 -6 0 -8 -11 -5 -25 7
-39 22 -19 16 23 -4 37 -24 70 -24 41z"/>
<path d="M405 2089 c-11 -16 -1 -19 13 -3 7 8 8 14 3 14 -5 0 -13 -5 -16 -11z"/>
<path d="M1460 2034 c-11 -13 -10 -19 8 -37 12 -12 22 -16 22 -10 0 7 -8 16
-17 22 -14 8 -15 12 -4 25 7 9 11 16 8 16 -2 0 -10 -7 -17 -16z"/>
<path d="M684 2028 c3 -15 26 -23 26 -8 0 6 -4 9 -9 6 -5 -4 -12 -1 -14 4 -3
6 -4 5 -3 -2z"/>
<path d="M1570 2022 c0 -6 -7 -9 -17 -5 -11 4 -14 3 -9 -5 7 -12 -5 -16 -33
-12 -13 1 -13 -1 -1 -15 9 -11 15 -13 20 -4 6 8 9 8 14 0 7 -11 -1 -14 -44
-12 -25 0 -25 0 3 -10 15 -6 27 -15 27 -20 0 -12 -7 -11 -32 2 -14 8 -23 8
-31 0 -8 -8 -5 -11 10 -11 11 0 26 -7 33 -15 10 -12 5 -13 -38 -8 -34 4 -52 2
-57 -7 -6 -9 0 -10 23 -5 37 8 73 -7 51 -21 -15 -9 -18 -10 -94 -24 -27 -5
-64 -12 -81 -16 -24 -4 -40 1 -78 26 -44 30 -47 35 -42 65 8 40 -12 60 -46 49
-13 -4 -27 -8 -32 -9 -5 0 -13 -9 -19 -20 -6 -11 -14 -27 -19 -35 -4 -8 -20
-41 -35 -73 -20 -45 -30 -57 -44 -54 -10 3 -26 -1 -35 -7 -14 -11 -15 -20 -5
-67 l10 -54 -5 51 c-4 49 -3 52 22 58 14 4 29 4 32 1 3 -3 -3 -8 -15 -11 -18
-5 -21 -16 -27 -87 -3 -45 -7 -98 -10 -117 -12 -100 0 -370 16 -370 6 0 7 8 4
17 -4 10 -4 14 1 10 4 -5 13 7 20 25 l13 33 -5 -36 c-4 -25 -1 -40 10 -49 8
-7 15 -18 15 -24 0 -6 -7 -2 -15 8 -24 31 -39 7 -31 -49 7 -44 9 -46 25 -31
25 23 64 20 121 -9 68 -34 110 -33 155 6 19 17 35 27 35 21 0 -5 -7 -15 -15
-22 -15 -13 -21 -35 -7 -26 12 7 38 -12 29 -21 -4 -4 -16 -2 -27 5 -14 8 -27
9 -48 1 -33 -11 -94 0 -127 25 -16 12 -22 12 -41 0 -18 -13 -23 -12 -33 0 -10
12 -18 13 -37 4 -22 -10 -24 -16 -19 -50 7 -37 -7 -54 -19 -23 -3 8 0 15 7 15
8 0 8 3 -2 9 -15 9 -28 104 -37 266 -4 71 -10 103 -21 112 -13 10 -13 14 0 35
15 23 18 110 5 124 -4 3 -1 13 7 21 8 8 14 29 14 46 -2 29 -2 30 -6 5 -2 -14
-10 -31 -17 -38 -11 -9 -13 8 -8 97 5 106 12 126 39 116 10 -4 11 0 5 18 -5
13 -8 29 -6 34 2 6 -6 16 -18 24 -22 13 -23 13 -5 -6 9 -11 14 -23 10 -26 -12
-12 -23 -7 -23 10 0 9 -2 14 -5 12 -9 -10 -16 -88 -18 -206 -1 -67 -5 -125 -9
-129 -5 -4 -8 -12 -8 -18 0 -6 9 0 19 13 l19 24 4 -41 c2 -27 -1 -43 -9 -46
-7 -3 -10 -11 -7 -19 3 -8 -2 -20 -11 -27 -13 -11 -14 -15 -1 -29 7 -9 18 -42
23 -73 8 -48 7 -58 -4 -58 -10 0 -12 -6 -8 -21 6 -19 4 -21 -15 -16 -16 4 -20
3 -13 -4 6 -6 19 -12 29 -13 39 -6 21 -21 -21 -18 -28 3 -45 0 -45 -7 0 -6 17
-11 39 -11 22 0 44 -6 51 -15 8 -10 14 -64 18 -150 3 -74 8 -135 12 -135 12 0
19 41 13 73 -4 19 -2 28 4 24 6 -4 11 -18 11 -32 -1 -40 10 -41 42 -4 l30 34
21 -28 c11 -15 25 -24 31 -21 5 4 2 14 -7 24 -16 18 -16 19 3 17 11 0 19 -4
16 -8 -2 -4 1 -11 7 -15 17 -10 109 -12 109 -2 0 4 -24 8 -52 9 -50 1 -51 1
-18 9 46 11 88 2 100 -21 6 -10 10 -22 9 -26 -6 -34 3 -63 19 -63 13 0 14 2 3
9 -10 6 -10 10 -1 16 6 4 9 13 6 21 -3 8 -1 14 5 14 6 0 7 5 4 10 -4 6 -11 8
-16 5 -5 -4 -9 1 -9 9 0 11 10 16 33 16 17 0 27 -4 21 -8 -18 -11 -25 -45 -13
-62 8 -11 9 -9 4 10 -7 23 -6 24 7 6 13 -17 15 -17 21 -3 4 10 13 14 22 11 8
-3 15 -1 15 6 0 6 -4 8 -10 5 -5 -3 -10 -1 -10 4 0 17 20 13 27 -4 5 -14 8
-14 22 -2 9 8 35 17 58 20 27 3 62 19 93 41 l50 36 1 -43 c1 -23 3 -34 6 -24
2 9 8 17 13 17 8 0 4 45 -6 61 -2 4 -13 5 -24 2 -13 -3 -20 0 -20 8 0 11 -2
11 -10 -1 -5 -8 -10 -11 -10 -7 0 4 -10 3 -21 -4 -17 -9 -19 -13 -8 -20 12 -7
11 -11 -2 -24 -17 -17 -150 -40 -175 -31 -23 9 -16 26 11 26 40 0 54 52 19 73
-10 6 -7 19 16 58 17 27 30 55 30 62 0 8 -3 8 -8 1 -4 -5 -28 -18 -54 -28 -44
-16 -46 -19 -32 -33 11 -11 15 -29 12 -55 -3 -34 -1 -39 20 -45 38 -9 10 -23
-49 -24 -71 -1 -178 11 -184 21 -6 10 25 43 33 35 4 -3 0 -11 -8 -16 -16 -11
61 -7 111 6 16 4 30 2 33 -4 4 -7 -1 -11 -13 -11 -14 0 -21 -6 -20 -17 0 -11
3 -13 6 -5 2 6 15 12 28 12 19 0 24 6 27 36 3 21 -1 42 -8 49 -14 13 -15 57
-2 49 12 -7 48 15 47 29 0 9 -2 9 -6 0 -2 -7 -15 -13 -27 -13 -12 0 -35 -13
-51 -30 -15 -16 -32 -27 -37 -24 -4 3 -8 1 -8 -5 0 -6 -7 -7 -17 -4 -12 5 -14
3 -8 -7 6 -10 2 -12 -16 -7 -13 4 -34 7 -46 7 -12 0 -29 7 -38 16 -18 18 -13
30 7 18 7 -4 35 -9 63 -10 27 0 37 1 22 3 -37 6 -29 28 9 28 19 0 28 -5 26
-13 -1 -8 2 -11 8 -7 6 4 9 13 6 21 -3 8 0 14 7 13 25 -3 38 1 32 11 -3 6 0
13 9 16 8 3 17 12 20 19 3 10 0 12 -11 8 -12 -5 -15 -2 -10 10 8 21 6 21 -29
2 -33 -17 -35 -16 -36 24 -1 35 -2 35 -29 21 -13 -7 -19 -7 -19 0 0 5 -5 10
-11 10 -5 0 -7 -5 -4 -10 5 -8 -10 -9 -44 -4 -54 7 -67 -4 -26 -23 14 -6 23
-7 19 -2 -3 5 -1 9 5 9 17 0 20 -15 5 -35 -8 -10 -14 -13 -14 -6 0 7 -4 10 -9
7 -5 -4 -12 0 -14 6 -3 8 -6 6 -6 -5 -1 -24 -21 -11 -21 13 0 27 -21 70 -31
64 -5 -3 -9 -10 -9 -15 0 -6 5 -7 10 -4 6 3 10 -5 10 -19 0 -14 -4 -28 -10
-31 -5 -3 -10 -1 -10 4 0 6 -7 11 -16 11 -14 0 -15 8 -11 48 4 32 3 39 -3 22
-7 -23 -8 -23 -9 -3 -1 12 -4 29 -8 38 -5 15 -3 16 16 5 13 -6 26 -9 29 -5 3
3 -4 8 -16 12 -12 3 -23 13 -23 22 -3 43 4 137 12 159 8 21 11 22 26 11 9 -8
22 -29 30 -48 12 -29 12 -35 -1 -50 -25 -27 -46 -23 -41 8 5 25 4 24 -6 -2
-15 -40 2 -58 31 -32 19 17 20 17 20 1 0 -20 -25 -48 -34 -39 -3 4 -6 1 -6 -5
0 -7 9 -12 20 -12 11 0 20 -7 20 -16 0 -8 -4 -13 -9 -10 -7 5 -21 -15 -21 -30
0 -7 23 0 36 11 11 9 11 35 0 53 -2 4 2 15 9 26 20 27 37 10 29 -28 -4 -25 -2
-35 11 -40 23 -8 11 -22 -26 -30 -17 -3 -29 -11 -27 -17 2 -6 7 -10 11 -10 4
1 25 1 47 1 38 0 59 19 23 21 -10 0 -13 3 -6 5 6 3 24 -2 38 -12 25 -16 27
-16 55 4 30 23 45 13 29 -19 -7 -13 -3 -18 19 -22 15 -3 32 -1 37 4 7 7 4 8
-9 3 -16 -6 -18 -3 -14 27 3 19 8 43 12 54 6 17 5 16 -6 -2 -19 -32 -42 -15
-28 21 13 35 13 59 0 51 -5 -3 -10 -17 -10 -30 0 -13 -4 -27 -10 -30 -10 -6
-16 64 -13 153 1 23 -3 42 -7 42 -10 0 -16 -20 -25 -82 -7 -51 -25 -66 -25
-22 0 20 -3 24 -13 16 -10 -8 -22 0 -50 35 -20 25 -37 50 -37 55 0 5 -5 6 -12
2 -8 -5 -9 -2 -5 9 11 29 -2 45 -33 41 -22 -4 -32 0 -44 18 -18 29 -27 111
-14 129 8 11 9 10 5 -3 -3 -9 -1 -19 6 -22 9 -3 8 -8 -3 -15 -8 -6 -10 -11 -4
-11 5 0 15 5 22 12 7 7 12 9 12 6 0 -4 -7 -14 -16 -22 -8 -9 -11 -16 -5 -16 6
0 11 -11 11 -24 0 -18 7 -25 33 -31 17 -5 40 -8 50 -7 9 1 17 -3 17 -9 0 -5
-6 -7 -12 -4 -7 4 -6 1 2 -7 8 -7 14 -26 13 -43 -2 -16 5 -1 15 35 12 45 22
64 31 62 12 -3 12 0 2 12 -10 11 -8 18 10 35 24 22 45 29 34 11 -4 -6 4 -9 17
-7 19 2 23 -3 23 -23 0 -14 5 -29 10 -33 6 -5 2 -6 -8 -3 -10 3 -25 6 -33 6
-8 0 -14 10 -14 26 0 16 -4 23 -11 18 -6 -4 -9 -19 -5 -36 4 -20 2 -27 -6 -22
-6 4 -8 3 -5 -4 4 -6 23 -8 45 -5 33 4 66 -5 125 -35 4 -2 7 3 7 10 0 8 -11
21 -25 28 -14 8 -23 20 -21 27 3 7 -6 20 -20 30 -23 15 -25 21 -19 62 4 25 11
50 16 56 15 15 10 20 -24 22 -17 2 -37 9 -43 18 -6 8 -17 15 -25 15 -10 0 -10
3 -1 12 9 9 17 7 34 -9 25 -23 84 -37 93 -23 8 13 85 10 85 -4 0 -6 -18 -19
-40 -28 -22 -9 -40 -22 -40 -29 0 -8 6 -7 18 4 24 22 72 33 72 16 0 -8 5 -6
13 6 8 10 19 15 25 11 18 -11 14 -29 -4 -22 -8 3 -12 2 -9 -4 3 -6 -5 -14 -19
-20 -14 -5 -26 -12 -26 -16 0 -3 6 -4 13 -1 8 3 20 1 28 -4 24 -15 -4 -42 -56
-54 -46 -10 -47 -10 -28 -28 11 -9 23 -14 27 -10 4 5 7 4 6 -2 -5 -21 1 -25
19 -16 13 7 24 6 37 -4 34 -26 40 -18 39 48 -1 48 2 64 14 69 14 6 14 7 -1 7
-13 1 -18 9 -17 29 2 23 2 24 6 5 2 -13 8 -23 13 -23 4 0 6 10 4 23 -3 17 -1
15 10 -7 9 -20 15 -25 19 -15 3 8 6 5 6 -9 1 -16 -3 -21 -11 -16 -10 6 -10 4
-3 -7 16 -22 11 -74 -8 -93 -9 -10 -17 -21 -17 -26 0 -18 -40 -32 -55 -20 -15
13 -51 5 -72 -15 -10 -11 -10 -14 2 -19 9 -3 15 -19 15 -42 0 -21 4 -34 11
-32 6 2 9 6 8 8 -7 13 24 51 37 46 8 -3 13 -2 10 3 -6 10 49 52 58 44 13 -13
5 -43 -16 -65 -28 -28 -61 -36 -52 -13 3 8 1 15 -5 15 -6 0 -11 -9 -11 -20 0
-19 10 -24 39 -20 11 1 12 -8 7 -42 -4 -24 -8 -49 -8 -55 -1 -7 -5 -13 -9 -13
-4 0 -6 -7 -5 -17 2 -26 -49 -35 -75 -12 -26 22 -39 24 -39 5 0 -7 -3 -26 -6
-42 -5 -26 0 -32 43 -59 26 -16 51 -33 54 -38 4 -5 10 -4 13 2 4 6 2 11 -3 11
-17 0 -13 14 10 38 30 33 40 17 19 -30 -10 -23 -16 -47 -13 -54 6 -16 47 -23
67 -12 14 8 14 5 6 -17 -11 -29 0 -33 23 -7 15 16 15 19 -4 30 -10 7 -30 10
-44 6 -23 -6 -24 -5 -14 22 26 73 56 80 61 14 2 -22 10 -39 22 -46 19 -11 19
-12 -2 -30 -16 -13 -18 -20 -9 -26 8 -5 7 -8 -5 -8 -18 0 -22 -9 -19 -42 1 -9
-3 -19 -9 -23 -5 -3 -10 1 -10 9 0 11 -9 16 -29 16 -33 0 -54 19 -42 39 6 9
10 7 14 -8 5 -21 47 -31 47 -11 0 11 -59 44 -66 37 -3 -3 -6 -17 -7 -33 -2
-24 2 -30 23 -32 14 -2 30 -10 37 -19 10 -12 17 -13 47 -3 31 10 34 14 26 31
-8 15 -6 21 10 31 11 7 20 18 20 25 0 7 4 13 10 13 5 0 6 -8 3 -17 -6 -15 -5
-16 9 -3 9 8 16 17 15 20 -2 8 25 54 36 61 5 4 6 12 2 19 -6 9 -9 9 -15 0 -6
-9 -11 -7 -19 9 -7 12 -9 26 -5 32 3 6 -2 16 -12 23 -19 14 -12 36 12 36 10 0
9 5 -6 20 -11 11 -20 31 -20 45 0 14 -4 25 -9 25 -5 0 -11 10 -13 23 -2 14
-10 -2 -22 -45 -21 -70 -25 -75 -55 -59 -16 9 -16 16 -6 68 9 42 9 60 1 66 -8
6 -7 10 2 14 6 2 10 8 7 12 -2 4 5 37 15 72 11 35 18 70 15 77 -3 7 -1 11 4 7
5 -3 14 16 19 42 9 40 8 51 -6 67 -13 15 -14 18 -2 12 8 -4 -1 6 -20 23 -19
17 -38 31 -42 31 -13 0 -9 30 5 31 6 1 1 4 -13 9 -24 7 -24 8 -5 15 11 5 23
13 27 19 5 6 8 1 9 -11 3 -42 4 -46 16 -50 20 -7 23 14 7 52 -9 22 -13 49 -9
66 10 44 32 36 25 -10 -3 -22 9 -61 19 -61 11 0 9 33 -3 41 -5 4 -7 11 -5 17
3 6 16 4 36 -6 l33 -17 -45 -50 c-44 -48 -53 -65 -36 -65 27 0 58 -93 40 -121
-5 -8 -9 -9 -9 -4 -1 13 -50 -114 -50 -129 0 -6 7 -3 15 7 7 11 11 25 8 33 -8
22 11 17 25 -7 7 -11 10 -30 7 -42 -5 -20 -5 -20 7 -5 9 10 26 15 46 14 26 -2
31 1 26 13 -4 9 -9 27 -11 41 l-4 25 21 -24 c18 -21 20 -32 14 -75 -4 -28 -8
-69 -9 -91 -1 -22 -3 -42 -4 -45 -4 -11 -30 47 -31 67 0 12 -6 24 -12 26 -10
4 -10 8 -1 14 8 6 8 13 -2 26 -12 17 -14 17 -29 -5 -9 -12 -16 -28 -16 -35 0
-7 -4 -13 -10 -13 -5 0 2 -11 15 -24 14 -14 27 -42 31 -65 4 -22 11 -38 16
-35 5 3 15 1 23 -6 9 -7 15 -8 20 0 3 5 14 10 23 9 10 0 4 -7 -15 -16 -22 -11
-33 -24 -33 -38 0 -26 28 -67 41 -60 5 4 12 -1 15 -9 3 -9 10 -13 15 -10 5 3
9 -7 9 -21 0 -14 3 -24 8 -22 4 3 8 -5 8 -18 1 -16 -6 -27 -24 -35 -20 -9 -23
-13 -12 -20 8 -5 17 -7 21 -4 4 2 10 0 14 -6 3 -5 2 -10 -4 -10 -5 0 -15 -16
-21 -35 -6 -19 -23 -43 -36 -54 -14 -11 -24 -28 -22 -38 2 -10 -2 -17 -9 -16
-7 2 -13 -2 -13 -7 0 -6 9 -10 20 -10 11 0 19 3 19 8 -4 25 5 39 31 49 23 9
37 25 56 70 23 50 26 74 28 178 2 66 6 127 10 135 3 8 11 47 16 85 18 125 18
126 3 114 -9 -8 -13 -8 -13 -1 0 6 5 14 10 17 6 3 10 11 10 17 0 7 -4 7 -13
-1 -11 -8 -17 1 -31 44 -9 30 -27 67 -40 82 -39 47 -46 68 -39 120 7 60 -3 82
-75 157 -57 61 -64 65 -56 39 5 -15 3 -15 -10 1 -9 11 -16 15 -16 8z m45 -46
c6 -6 19 -16 30 -22 36 -20 58 -62 61 -113 2 -43 -1 -52 -22 -66 -34 -22 -59
-19 -79 11 -17 26 -17 27 19 62 35 36 35 36 56 17 21 -19 21 -18 -1 22 -12 23
-26 40 -30 37 -4 -2 -15 6 -24 18 -12 18 -17 20 -24 9 -5 -8 -11 -9 -15 -3 -3
6 0 12 6 15 8 3 1 9 -14 16 -16 6 -28 13 -28 16 0 9 54 -7 65 -19z m-439 -37
c0 -13 4 -35 9 -49 5 -14 9 -41 10 -60 0 -33 2 -35 35 -36 52 -2 54 -3 40 -19
-9 -11 -9 -15 -1 -15 7 0 9 -5 4 -12 -4 -7 -6 -21 -5 -30 2 -12 -3 -18 -17
-18 -17 0 -18 3 -8 30 10 25 9 32 -6 45 -9 8 -12 10 -7 3 18 -22 11 -42 -25
-73 -20 -16 -41 -46 -48 -65 l-12 -35 -51 10 -51 10 4 38 c3 27 -1 39 -12 43
-15 6 -21 34 -7 34 4 0 18 -10 32 -23 14 -13 31 -22 38 -19 8 2 12 -7 12 -27
0 -33 -8 -39 -28 -19 -6 6 -14 9 -18 6 -3 -4 8 -14 25 -23 19 -9 31 -11 31 -5
0 6 4 9 9 6 12 -8 22 20 14 41 -5 12 -3 14 8 8 11 -6 12 -5 2 5 -14 15 0 40
22 40 26 0 23 48 -6 83 l-28 34 20 22 c11 11 15 21 10 21 -5 0 -16 -9 -24 -21
-11 -15 -23 -20 -51 -17 l-36 3 46 58 c47 60 68 68 70 26z m304 -104 c17 -20
5 -33 -24 -28 -25 5 -30 21 -11 35 15 11 21 10 35 -7z m-395 -15 c-2 -11 -6
-24 -10 -29 -3 -6 3 -9 13 -8 12 0 17 9 17 25 0 35 17 37 48 6 30 -29 37 -55
10 -33 -11 10 -14 10 -9 2 7 -12 -25 -18 -81 -16 -7 1 -13 -2 -13 -7 0 -10 47
-30 68 -29 10 0 12 3 5 6 -23 9 -14 19 15 17 39 -2 40 -3 12 -17 -18 -9 -27
-23 -31 -52 -4 -26 -7 -31 -8 -14 -1 29 -18 49 -42 49 -33 0 -40 24 -19 64 19
38 19 38 -1 21 -10 -10 -19 -25 -19 -33 0 -9 -3 -13 -6 -9 -14 14 24 77 46 77
5 0 7 -9 5 -20z m-130 0 c-3 -5 -10 -10 -16 -10 -5 0 -9 5 -9 10 0 6 7 10 16
10 8 0 12 -4 9 -10z m738 -87 c-3 -21 -9 -40 -12 -43 -9 -6 13 -72 23 -70 13
2 66 -72 59 -83 -3 -6 -1 -7 5 -3 12 7 4 78 -11 87 -5 4 -7 11 -3 17 3 5 -8
27 -24 47 -17 21 -30 42 -30 46 0 39 75 -63 90 -121 7 -25 12 -71 11 -103 0
-34 4 -55 10 -52 13 8 12 -75 -2 -113 -6 -18 -15 -30 -19 -27 -4 3 -6 -3 -3
-13 2 -11 -1 -19 -9 -20 -7 -1 -29 -5 -48 -10 -32 -9 -32 -10 -8 -11 34 -1 45
-18 24 -39 -15 -15 -16 -15 -16 1 0 9 -7 17 -15 17 -8 0 -15 3 -16 8 0 4 -2
15 -4 25 -2 13 1 17 11 13 20 -8 64 11 64 26 0 18 -44 37 -63 27 -10 -6 -19
-3 -28 8 -12 15 -11 16 9 11 12 -4 22 -2 22 3 0 5 14 9 30 9 17 0 30 -4 30
-10 0 -16 17 -12 24 6 3 8 2 12 -4 9 -6 -3 -10 2 -10 11 0 14 -3 15 -12 6 -7
-7 -20 -12 -29 -12 -14 0 -16 11 -16 75 1 41 3 75 4 75 7 0 33 -62 33 -78 0
-11 7 -25 15 -32 10 -9 15 -9 15 -1 0 6 -4 11 -10 11 -5 0 -10 5 -10 11 0 5 4
8 9 4 5 -3 -1 15 -15 40 -13 26 -24 52 -24 59 0 7 -13 26 -30 42 -16 16 -30
36 -31 44 0 8 -5 2 -10 -15 -5 -16 -7 -41 -4 -55 4 -19 3 -21 -5 -10 -6 10
-10 11 -10 3 0 -7 -7 -13 -15 -13 -19 0 -20 39 -1 46 8 3 12 13 8 26 -3 12 -1
19 4 15 6 -3 10 17 10 48 0 38 5 60 18 74 11 12 20 21 22 21 1 0 0 -17 -3 -37z
m-46 -19 c-9 -9 -27 6 -27 22 0 13 2 13 16 -1 9 -9 14 -18 11 -21z m-5 -49 c3
-13 1 -22 -3 -19 -5 3 -9 -5 -9 -18 -1 -25 -29 -82 -30 -60 0 16 30 122 35
122 1 0 5 -11 7 -25z m-196 -22 c-11 -11 -19 6 -11 24 8 17 8 17 12 0 3 -10 2
-21 -1 -24z m268 21 c3 -8 2 -12 -4 -9 -6 3 -10 10 -10 16 0 14 7 11 14 -7z
m-240 -10 c3 -8 2 -12 -4 -9 -6 3 -10 10 -10 16 0 14 7 11 14 -7z m66 -44 c0
-5 -5 -10 -11 -10 -5 0 -7 5 -4 10 3 6 8 10 11 10 2 0 4 -4 4 -10z m-523 -36
c4 -11 13 -13 34 -9 23 5 28 4 23 -8 -3 -9 -13 -13 -25 -10 -34 9 -76 -119
-54 -170 4 -10 5 -21 2 -24 -4 -3 -11 7 -17 23 -14 36 -7 128 11 150 10 13 10
17 -2 26 -11 7 -11 11 -1 15 6 2 10 9 6 14 -3 5 0 9 6 9 6 0 13 -7 17 -16z
m433 -14 c8 -5 11 -10 5 -10 -5 0 -17 5 -25 10 -8 5 -10 10 -5 10 6 0 17 -5
25 -10z m-20 -20 c0 -5 -2 -10 -4 -10 -3 0 -8 5 -11 10 -3 6 -1 10 4 10 6 0
11 -4 11 -10z m-320 -28 c0 -5 8 -17 18 -28 59 -66 92 -119 86 -138 -11 -36
-31 -43 -59 -22 -13 9 -16 18 -10 32 4 10 7 24 5 29 -1 6 -4 23 -6 39 -5 41
-12 43 -24 11 -6 -15 -13 -26 -15 -23 -3 3 -1 16 4 29 6 17 4 33 -5 52 -9 16
-10 27 -4 27 5 0 10 -4 10 -8z m520 -62 c0 -5 -2 -10 -4 -10 -3 0 -8 5 -11 10
-3 6 -1 10 4 10 6 0 11 -4 11 -10z m-379 -72 c-9 -24 -8 -34 1 -40 9 -5 9 -8
1 -8 -6 0 -9 -8 -6 -19 5 -21 -14 -38 -28 -24 -5 5 0 37 13 81 13 39 24 65 26
56 2 -8 -1 -29 -7 -46z m394 42 c3 -5 1 -10 -4 -10 -6 0 -11 5 -11 10 0 6 2
10 4 10 3 0 8 -4 11 -10z m25 -40 c0 -5 -2 -10 -4 -10 -3 0 -8 5 -11 10 -3 6
-1 10 4 10 6 0 11 -4 11 -10z m-170 -30 c0 -5 -5 -10 -11 -10 -5 0 -7 5 -4 10
3 6 8 10 11 10 2 0 4 -4 4 -10z m14 -60 c15 0 29 -27 17 -34 -4 -3 -20 5 -36
18 -21 17 -26 28 -21 42 8 18 8 18 17 -3 4 -13 15 -23 23 -23z m91 -17 c-2 -8
-1 -11 4 -8 13 8 22 -10 15 -29 -8 -22 -17 -20 -29 7 -6 12 -18 21 -28 21 -21
-2 -23 22 -1 30 9 3 12 11 8 18 -4 7 2 4 15 -6 12 -11 19 -26 16 -33z m155 37
c0 -5 -5 -10 -11 -10 -5 0 -7 5 -4 10 3 6 8 10 11 10 2 0 4 -4 4 -10z m-331
-22 l-34 -19 35 5 c25 4 31 3 20 -4 -8 -5 -15 -15 -15 -21 0 -7 -8 -13 -18
-15 -9 -1 -15 2 -11 7 3 5 11 7 17 3 7 -3 1 4 -13 15 -14 11 -33 18 -42 15
-22 -6 -24 12 -3 23 8 5 33 9 57 9 l42 2 -35 -20z m356 -64 c0 -27 -5 -44 -12
-44 -19 0 -21 23 -6 54 8 15 10 25 4 22 -12 -8 -15 6 -4 17 12 12 18 -4 18
-49z m-791 30 c3 -8 2 -12 -4 -9 -6 3 -10 10 -10 16 0 14 7 11 14 -7z m507
-41 c-12 -20 -14 -14 -5 12 4 9 9 14 11 11 3 -2 0 -13 -6 -23z m-245 -8 c-7
-27 -3 -29 49 -25 26 2 27 0 16 -14 -19 -22 -37 -20 -75 9 -18 14 -38 25 -44
25 -7 0 -12 5 -12 11 0 5 4 8 9 4 5 -3 12 -1 16 5 3 5 15 10 27 10 17 0 19 -4
14 -25z m340 -1 c-3 -8 0 -11 9 -8 8 4 15 -3 18 -18 4 -22 4 -22 4 2 1 42 4
46 14 22 6 -16 5 -31 -4 -48 -13 -24 -14 -24 -30 -6 -21 23 -36 89 -18 78 7
-5 10 -14 7 -22z m-496 -34 c0 -22 -20 -26 -38 -8 -19 19 -14 28 13 28 18 0
25 -5 25 -20z m145 -11 c19 -19 19 -19 -13 -19 -17 0 -32 -4 -32 -9 0 -5 -6
-11 -14 -14 -10 -4 -14 5 -14 35 -1 38 0 40 26 33 15 -3 36 -15 47 -26z m552
-11 c-3 -8 -6 -5 -6 6 -1 11 2 17 5 13 3 -3 4 -12 1 -19z m-637 -10 c0 -22 -5
-23 -80 -26 -61 -3 -80 0 -80 10 0 9 14 12 52 10 33 -1 63 3 78 12 14 8 26 14
28 15 1 1 2 -9 2 -21z m620 -97 c-12 -28 -29 -56 -37 -62 -10 -9 -10 -4 3 22
32 63 34 69 34 92 0 31 14 45 18 19 2 -11 -7 -43 -18 -71z m-370 57 c0 6 5 12
12 12 8 0 7 -6 -4 -16 -17 -17 -43 -10 -32 8 4 6 10 5 15 -3 6 -10 9 -11 9 -1z
m-354 -54 c7 -50 50 -60 69 -16 11 24 14 26 34 13 11 -7 11 -12 0 -32 -7 -13
-13 -26 -12 -29 1 -3 -22 -3 -50 0 -34 3 -51 10 -49 18 1 6 -2 12 -8 12 -5 0
-10 11 -10 23 0 39 21 47 26 11z m55 -12 c-6 -2 -9 -8 -5 -13 3 -5 -4 -9 -15
-9 -12 0 -21 6 -21 13 0 16 43 36 49 23 2 -6 -1 -12 -8 -14z m304 -22 c3 -5 1
-10 -4 -10 -6 0 -11 5 -11 10 0 6 2 10 4 10 3 0 8 -4 11 -10z m195 -9 c0 -5
-7 -12 -16 -15 -14 -5 -15 -4 -4 9 14 17 20 19 20 6z m-582 -50 c-7 -9 -14
-18 -15 -20 -2 -2 -3 5 -3 16 0 11 7 20 15 20 12 0 12 -3 3 -16z m352 -41 c0
-5 -7 -10 -15 -10 -8 0 -15 5 -15 10 0 6 7 10 15 10 8 0 15 -4 15 -10z"/>
<path d="M1633 1840 c-32 -13 -30 -48 2 -56 31 -8 57 12 53 40 -3 24 -23 29
-55 16z m42 -10 c3 -5 1 -10 -4 -10 -6 0 -11 5 -11 10 0 6 2 10 4 10 3 0 8 -4
11 -10z m-25 -5 c0 -2 -6 -8 -13 -14 -10 -8 -14 -7 -14 2 0 8 6 14 14 14 7 0
13 -1 13 -2z m15 -25 c-3 -5 -12 -10 -18 -10 -7 0 -6 4 3 10 19 12 23 12 15 0z"/>
<path d="M1120 1810 c0 -5 5 -10 10 -10 6 0 10 5 10 10 0 6 -4 10 -10 10 -5 0
-10 -4 -10 -10z"/>
<path d="M1150 1344 c0 -8 5 -12 10 -9 6 3 10 10 10 16 0 5 -4 9 -10 9 -5 0
-10 -7 -10 -16z"/>
<path d="M1225 1200 c4 -6 11 -8 16 -5 14 9 11 15 -7 15 -8 0 -12 -5 -9 -10z"/>
<path d="M120 2009 c0 -5 5 -7 10 -4 6 3 10 8 10 11 0 2 -4 4 -10 4 -5 0 -10
-5 -10 -11z"/>
<path d="M666 1915 c-3 -49 -7 -130 -10 -180 -3 -61 -11 -106 -25 -140 -14
-33 -16 -43 -6 -30 24 31 45 113 45 175 0 31 5 92 11 136 7 51 7 88 1 104 -8
20 -11 7 -16 -65z"/>
<path d="M1437 1994 c-6 -10 9 -42 16 -34 3 3 1 14 -3 24 -3 11 -9 15 -13 10z"/>
<path d="M766 1977 c3 -10 9 -15 12 -12 3 3 0 11 -7 18 -10 9 -11 8 -5 -6z"/>
<path d="M821 1974 c0 -11 3 -14 6 -6 3 7 2 16 -1 19 -3 4 -6 -2 -5 -13z"/>
<path d="M1831 1895 c17 -25 32 -45 35 -45 7 0 -27 62 -42 77 -26 26 -23 12 7
-32z"/>
<path d="M2461 1931 c-9 -6 -10 -11 -2 -15 6 -4 9 -11 6 -16 -3 -4 -1 -19 4
-32 8 -19 10 -15 9 25 -1 26 -2 47 -2 47 -1 0 -7 -4 -15 -9z"/>
<path d="M2300 1909 c0 -5 5 -7 10 -4 6 3 10 8 10 11 0 2 -4 4 -10 4 -5 0 -10
-5 -10 -11z"/>
<path d="M1347 1899 c7 -7 15 -10 18 -7 3 3 -2 9 -12 12 -14 6 -15 5 -6 -5z"/>
<path d="M2256 1884 c-15 -14 -26 -27 -24 -29 4 -4 58 42 58 50 0 8 -4 6 -34
-21z"/>
<path d="M2420 1890 c0 -5 5 -10 11 -10 5 0 7 5 4 10 -3 6 -8 10 -11 10 -2 0
-4 -4 -4 -10z"/>
<path d="M590 1880 c-8 -5 -34 -10 -58 -10 -49 0 -116 -31 -132 -60 -6 -11
-17 -20 -25 -20 -16 0 -20 -16 -6 -24 5 -3 16 5 24 17 19 29 105 66 131 57 30
-10 78 0 72 16 -3 9 2 14 14 14 10 0 22 5 25 10 8 13 -25 13 -45 0z"/>
<path d="M2415 1849 c-4 -6 -5 -12 -2 -15 2 -3 7 2 10 11 7 17 1 20 -8 4z"/>
<path d="M2168 1823 c6 -2 18 -2 25 0 6 3 1 5 -13 5 -14 0 -19 -2 -12 -5z"/>
<path d="M2293 1805 c0 -8 4 -12 9 -9 5 3 6 10 3 15 -9 13 -12 11 -12 -6z"/>
<path d="M2471 1815 c-2 -5 -2 -24 -1 -41 1 -34 -23 -53 -44 -34 -9 6 -20 4
-35 -6 -21 -15 -23 -15 -36 2 -8 11 -15 22 -15 25 0 4 -8 10 -17 13 -10 4 -14
4 -10 0 4 -4 -1 -13 -11 -20 -15 -12 -15 -13 8 -14 24 0 25 -3 22 -40 -5 -50
10 -52 49 -7 23 26 31 30 46 21 24 -15 28 -48 8 -64 -13 -11 -21 -11 -36 -2
-11 7 -19 8 -19 2 0 -5 -21 -10 -47 -10 -37 0 -44 3 -35 12 18 18 15 75 -5 82
-9 4 -21 2 -27 -4 -7 -7 -5 -10 7 -10 13 0 15 -5 8 -22 -10 -27 -7 -56 8 -71
11 -11 132 -14 149 -3 7 4 17 4 23 0 8 -5 8 -8 0 -13 -8 -5 -6 -13 4 -27 15
-18 16 -18 13 6 -3 25 -2 25 77 28 43 2 85 8 92 14 9 7 17 7 28 -2 20 -17 139
-17 170 0 26 14 33 36 14 42 -8 3 -8 10 2 25 11 19 11 25 -5 42 -25 27 -51 34
-76 21 -14 -8 -26 -8 -41 1 -18 9 -27 7 -50 -10 -21 -16 -30 -18 -36 -8 -4 6
-16 18 -25 25 -15 12 -20 11 -40 -10 -21 -21 -35 -24 -90 -19 -12 1 -18 12
-21 44 -2 23 -5 38 -6 32z m159 -104 c0 -22 3 -46 6 -55 4 -11 0 -16 -14 -16
-18 0 -19 5 -15 40 4 25 1 46 -7 55 -10 13 -9 15 9 15 18 0 21 -6 21 -39z
m119 15 c8 -10 6 -19 -10 -40 -21 -26 -14 -36 10 -13 10 10 12 8 9 -8 -3 -21
-37 -31 -65 -20 -14 5 -12 10 10 33 25 26 35 52 21 52 -4 0 -13 -8 -20 -17
-12 -17 -13 -16 -14 5 0 17 6 22 24 22 13 0 29 -6 35 -14z m88 -2 c3 -8 -4
-25 -17 -40 -19 -19 -20 -24 -8 -24 9 0 19 6 21 13 3 6 6 2 6 -10 1 -20 -4
-23 -34 -23 -19 0 -35 3 -35 6 0 3 11 20 25 38 14 18 22 36 18 39 -11 12 -23
8 -23 -8 0 -8 -4 -15 -10 -15 -11 0 -14 23 -3 33 12 13 54 7 60 -9z m-329 -23
c2 -7 -3 -11 -13 -9 -27 5 -30 -21 -3 -31 20 -8 21 -10 6 -16 -25 -10 -38 2
-38 35 0 37 37 53 48 21z m66 7 c19 -59 17 -66 -16 -64 -37 2 -50 25 -19 33
12 3 21 10 21 15 0 5 -9 6 -20 3 -21 -7 -28 10 -7 18 22 9 38 7 41 -5z m106
-22 c0 -8 -4 -18 -10 -21 -5 -3 -10 3 -10 14 0 12 5 21 10 21 6 0 10 -6 10
-14z"/>
<path d="M521 1787 c-11 -29 -37 -51 -51 -42 -5 3 -10 -2 -10 -12 0 -11 -5
-24 -12 -31 -7 -7 -8 -12 -3 -12 4 0 0 -9 -10 -20 -10 -11 -15 -23 -12 -26 3
-4 14 8 25 25 10 17 23 28 28 23 5 -4 6 -3 2 2 -4 5 8 26 27 48 19 21 35 45
35 53 0 22 -9 18 -19 -8z"/>
<path d="M2350 1779 c0 -5 5 -7 10 -4 6 3 10 8 10 11 0 2 -4 4 -10 4 -5 0 -10
-5 -10 -11z"/>
<path d="M1382 1764 c-13 -9 -31 -17 -40 -18 -18 -3 -30 -46 -13 -46 6 0 8 -6
5 -14 -4 -11 0 -13 15 -9 12 3 21 12 21 20 0 9 6 12 18 9 10 -4 26 0 35 6 16
12 15 13 -9 15 -42 2 -50 19 -18 37 16 8 24 15 19 16 -6 0 -21 -7 -33 -16z
m-17 -44 c-3 -5 -13 -10 -21 -10 -8 0 -14 5 -14 10 0 6 9 10 21 10 11 0 17 -4
14 -10z"/>
<path d="M541 1734 c-32 -41 -25 -53 9 -16 32 36 35 42 21 42 -5 0 -19 -12
-30 -26z"/>
<path d="M2250 1750 c-8 -5 -12 -12 -9 -15 4 -3 12 1 19 10 14 17 11 19 -10 5z"/>
<path d="M2130 1720 c0 -5 6 -10 13 -10 8 0 7 -4 -3 -11 -11 -8 -9 -9 10 -3
22 6 23 5 11 -10 -11 -14 -11 -16 2 -16 8 0 21 8 28 17 8 9 9 14 3 10 -6 -3
-20 3 -32 13 -24 22 -32 25 -32 10z"/>
<path d="M1510 1710 c0 -5 5 -10 11 -10 5 0 7 5 4 10 -3 6 -8 10 -11 10 -2 0
-4 -4 -4 -10z"/>
<path d="M1940 1700 c6 -11 13 -20 16 -20 2 0 0 9 -6 20 -6 11 -13 20 -16 20
-2 0 0 -9 6 -20z"/>
<path d="M2402 1679 c1 -13 8 -23 13 -21 15 3 12 35 -3 40 -9 3 -13 -3 -10
-19z"/>
<path d="M1901 1674 c0 -11 3 -14 6 -6 3 7 2 16 -1 19 -3 4 -6 -2 -5 -13z"/>
<path d="M2030 1664 c0 -9 5 -13 13 -9 6 4 4 0 -5 -8 -25 -20 -22 -29 5 -16
27 12 30 44 5 46 -10 1 -18 -5 -18 -13z"/>
<path d="M1230 1654 c0 -17 22 -14 28 4 2 7 -3 12 -12 12 -9 0 -16 -7 -16 -16z"/>
<path d="M1980 1650 c0 -5 7 -7 15 -4 8 4 15 8 15 10 0 2 -7 4 -15 4 -8 0 -15
-4 -15 -10z"/>
<path d="M385 1630 c-3 -5 1 -10 10 -10 9 0 13 5 10 10 -3 6 -8 10 -10 10 -2
0 -7 -4 -10 -10z"/>
<path d="M2210 1613 c0 -10 4 -14 8 -8 4 6 11 13 16 18 5 4 2 7 -7 7 -10 0
-17 -8 -17 -17z"/>
<path d="M1425 1610 c-3 -5 -1 -10 4 -10 6 0 11 5 11 10 0 6 -2 10 -4 10 -3 0
-8 -4 -11 -10z"/>
<path d="M1170 1604 c0 -6 11 -21 25 -34 21 -19 25 -21 25 -7 0 12 8 17 28 16
15 0 21 -3 12 -6 -27 -10 -47 -38 -53 -76 -3 -22 -2 -35 4 -32 5 4 9 20 9 36
0 18 4 28 10 24 6 -4 9 -1 8 7 -2 7 7 14 18 16 19 3 40 39 29 50 -8 8 -75 -9
-75 -20 0 -5 -9 0 -20 13 -10 13 -19 19 -20 13z"/>
<path d="M2240 1581 c0 -6 4 -13 10 -16 6 -3 7 1 4 9 -7 18 -14 21 -14 7z"/>
<path d="M2387 1583 c-3 -5 9 -9 26 -10 26 -1 28 0 12 7 -26 11 -33 12 -38 3z"/>
<path d="M1294 1569 c-7 -12 15 -31 28 -23 4 3 8 1 8 -3 0 -5 10 -13 23 -18
12 -6 21 -15 21 -20 -1 -6 -4 -26 -8 -45 -3 -19 -3 -30 2 -25 4 6 18 12 32 13
27 4 23 -5 -12 -23 -13 -6 -22 -19 -22 -28 1 -9 -3 -15 -8 -14 -6 1 -13 -4
-15 -10 -3 -7 1 -13 9 -13 7 0 26 -7 42 -15 16 -9 31 -13 34 -10 3 3 0 5 -6 5
-7 0 -12 5 -12 10 0 6 7 10 16 10 22 0 42 29 36 52 -4 15 -7 16 -20 6 -13 -11
-15 -11 -8 2 7 13 6 13 -6 0 -7 -8 -23 -16 -36 -16 -25 -2 -23 4 10 20 34 17
36 40 3 34 -26 -5 -27 -4 -22 28 4 25 0 38 -19 59 -13 14 -24 23 -24 19 0 -5
-5 -3 -12 4 -15 15 -25 15 -34 1z m141 -184 c-16 -7 -34 -10 -39 -7 -12 7 21
21 49 20 15 0 13 -3 -10 -13z"/>
<path d="M2530 1560 c0 -5 7 -10 15 -10 11 0 15 -11 15 -39 0 -22 2 -46 5 -54
4 -10 -2 -14 -25 -15 -50 -1 -66 59 -19 73 21 7 25 20 8 30 -6 4 -17 -3 -26
-14 -10 -16 -21 -20 -36 -16 -16 5 -18 4 -8 -3 8 -6 12 -19 8 -31 -3 -12 -1
-21 3 -21 4 0 6 -10 4 -22 -2 -13 -1 -17 2 -10 5 10 9 10 21 0 21 -17 65 -22
73 -8 5 9 13 8 28 -1 19 -12 24 -11 41 8 32 34 36 68 12 92 -12 12 -29 21 -38
21 -10 0 -27 7 -37 15 -23 17 -46 20 -46 5z m108 -63 c2 -12 -3 -17 -17 -17
-28 0 -27 -18 2 -23 19 -3 20 -4 4 -11 -21 -10 -47 9 -47 33 0 38 51 54 58 18z"/>
<path d="M1499 1558 c-1 -2 -3 -14 -4 -27 -2 -23 -2 -24 11 -6 16 22 18 35 4
35 -5 0 -11 -1 -11 -2z"/>
<path d="M2160 1545 c0 -8 2 -15 4 -15 2 0 6 7 10 15 3 8 1 15 -4 15 -6 0 -10
-7 -10 -15z"/>
<path d="M2415 1551 c-3 -5 -2 -12 3 -15 5 -3 9 1 9 9 0 17 -3 19 -12 6z"/>
<path d="M1177 1530 c-3 -11 -1 -20 4 -20 5 0 9 9 9 20 0 11 -2 20 -4 20 -2 0
-6 -9 -9 -20z"/>
<path d="M2187 1523 c-2 -5 4 -16 14 -27 17 -18 18 -18 12 3 -6 24 -19 35 -26
24z"/>
<path d="M1315 1470 c2 -30 4 -61 5 -68 0 -7 4 -11 9 -8 12 8 7 88 -7 112 -9
15 -10 7 -7 -36z"/>
<path d="M1150 1501 c0 -6 4 -13 10 -16 6 -3 7 1 4 9 -7 18 -14 21 -14 7z"/>
<path d="M1541 1480 c0 -24 2 -31 8 -21 5 8 16 11 24 8 9 -3 18 1 21 9 4 10
-2 14 -18 14 -14 0 -27 6 -29 13 -3 6 -6 -4 -6 -23z"/>
<path d="M2235 1490 c-3 -5 1 -10 10 -10 9 0 13 5 10 10 -3 6 -8 10 -10 10 -2
0 -7 -4 -10 -10z"/>
<path d="M2281 1484 c0 -11 3 -14 6 -6 3 7 2 16 -1 19 -3 4 -6 -2 -5 -13z"/>
<path d="M2520 1480 c0 -11 5 -20 10 -20 6 0 10 9 10 20 0 11 -4 20 -10 20 -5
0 -10 -9 -10 -20z"/>
<path d="M851 1464 c0 -11 3 -14 6 -6 3 7 2 16 -1 19 -3 4 -6 -2 -5 -13z"/>
<path d="M1065 1449 c-11 -17 1 -21 15 -4 8 9 8 15 2 15 -6 0 -14 -5 -17 -11z"/>
<path d="M2195 1450 c3 -5 11 -10 16 -10 6 0 7 5 4 10 -3 6 -11 10 -16 10 -6
0 -7 -4 -4 -10z"/>
<path d="M2265 1440 c-3 -5 -2 -10 4 -10 5 0 13 5 16 10 3 6 2 10 -4 10 -5 0
-13 -4 -16 -10z"/>
<path d="M2316 1433 c-6 -14 -5 -15 5 -6 7 7 10 15 7 18 -3 3 -9 -2 -12 -12z"/>
<path d="M1471 1424 c0 -11 3 -14 6 -6 3 7 2 16 -1 19 -3 4 -6 -2 -5 -13z"/>
<path d="M1546 1397 c-9 -23 -16 -49 -16 -57 1 -8 10 9 20 39 23 65 20 80 -4
18z"/>
<path d="M2355 1430 c-3 -5 -1 -10 4 -10 6 0 11 5 11 10 0 6 -2 10 -4 10 -3 0
-8 -4 -11 -10z"/>
<path d="M2372 1408 c-7 -7 -12 -22 -12 -35 0 -13 -6 -23 -14 -23 -7 0 -21
-11 -30 -25 -18 -28 -12 -73 10 -82 8 -3 14 -12 14 -20 0 -8 5 -11 11 -8 6 4
17 -1 24 -11 13 -18 14 -18 10 4 -3 18 1 22 20 22 18 0 23 -4 19 -15 -4 -8 -2
-15 4 -15 5 0 13 8 16 17 6 14 9 15 16 3 7 -11 11 -11 24 -1 11 9 20 10 35 2
14 -8 22 -8 26 0 4 6 14 7 24 4 25 -10 91 -13 96 -4 3 4 30 5 60 2 33 -4 66
-1 84 7 27 11 29 16 24 44 -7 38 -30 66 -54 66 -10 0 -27 10 -39 22 l-20 22
-23 -22 c-32 -31 -126 -32 -145 -2 -16 26 -34 25 -50 -1 -8 -12 -19 -18 -28
-15 -8 3 -14 1 -14 -4 0 -5 -20 1 -44 13 -25 12 -42 26 -38 32 6 10 12 35 8
35 -1 0 -7 -5 -14 -12z m353 -108 c0 -48 -3 -60 -16 -60 -12 0 -15 8 -12 33 3
22 2 28 -5 18 -6 -8 -15 -10 -22 -6 -10 6 -11 1 -6 -18 6 -27 6 -27 -46 -24
-51 2 -53 3 -56 33 -3 35 20 53 43 34 9 -7 15 -7 19 -1 4 5 24 8 46 6 25 -2
38 0 34 6 -4 8 12 39 20 39 1 0 2 -27 1 -60z m-183 -5 c2 -44 0 -55 -12 -55
-12 0 -15 9 -12 40 2 23 -1 47 -8 55 -10 12 -9 15 8 15 17 0 21 -8 24 -55z
m-132 30 c0 -8 -4 -15 -10 -15 -5 0 -10 5 -10 10 0 6 -7 10 -15 10 -16 0 -31
-43 -20 -59 10 -17 38 -13 31 4 -4 10 1 15 14 15 16 0 18 -4 11 -22 -9 -26
-45 -35 -67 -18 -17 15 -19 61 -2 78 18 18 68 15 68 -3z m74 -17 c19 -59 17
-66 -16 -64 -37 2 -50 25 -19 33 12 3 21 10 21 15 0 5 -9 6 -20 3 -21 -7 -28
10 -7 18 22 9 38 7 41 -5z m310 0 c19 -59 17 -66 -16 -64 -37 2 -50 25 -19 33
12 3 21 10 21 15 0 5 -9 6 -20 3 -21 -7 -28 10 -7 18 22 9 38 7 41 -5z"/>
<path d="M2620 1290 c0 -5 -9 -10 -20 -10 -29 0 -25 -17 5 -22 14 -3 25 -2 25
3 0 4 3 14 6 23 3 9 1 16 -5 16 -6 0 -11 -4 -11 -10z"/>
<path d="M2190 1394 c0 -8 5 -12 10 -9 6 4 8 11 5 16 -9 14 -15 11 -15 -7z"/>
<path d="M2260 1396 c0 -2 7 -7 16 -10 8 -3 12 -2 9 4 -6 10 -25 14 -25 6z"/>
<path d="M2460 1381 c0 -6 5 -13 10 -16 6 -3 10 1 10 9 0 9 -4 16 -10 16 -5 0
-10 -4 -10 -9z"/>
<path d="M2080 1360 c0 -5 7 -7 15 -4 8 4 15 8 15 10 0 2 -7 4 -15 4 -8 0 -15
-4 -15 -10z"/>
<path d="M1440 1339 c0 -5 5 -7 10 -4 6 3 10 8 10 11 0 2 -4 4 -10 4 -5 0 -10
-5 -10 -11z"/>
<path d="M2170 1310 c0 -5 5 -10 11 -10 5 0 7 5 4 10 -3 6 -8 10 -11 10 -2 0
-4 -4 -4 -10z"/>
<path d="M2205 1250 c3 -5 8 -10 11 -10 2 0 4 5 4 10 0 6 -5 10 -11 10 -5 0
-7 -4 -4 -10z"/>
<path d="M2245 1240 c-3 -5 -1 -10 4 -10 6 0 11 5 11 10 0 6 -2 10 -4 10 -3 0
-8 -4 -11 -10z"/>
<path d="M2195 1200 c-4 -6 -11 -8 -16 -5 -5 4 -9 -4 -9 -16 0 -21 0 -21 20 2
10 13 19 18 20 12 0 -18 20 -16 20 2 0 17 -25 20 -35 5z"/>
<path d="M2260 1195 c-7 -8 -8 -20 -4 -27 5 -7 9 -16 9 -20 0 -3 3 -9 6 -13 4
-3 9 10 11 30 5 40 -4 52 -22 30z"/>
<path d="M1360 1170 c0 -5 5 -10 10 -10 6 0 10 5 10 10 0 6 -4 10 -10 10 -5 0
-10 -4 -10 -10z"/>
<path d="M1676 1155 c-9 -14 -14 -30 -10 -36 4 -6 0 -15 -7 -20 -9 -6 -10 -12
-4 -16 6 -5 11 -26 12 -47 2 -42 19 -61 37 -43 13 12 16 47 4 47 -4 0 -8 -8
-8 -17 -1 -15 -2 -16 -9 -3 -9 15 1 109 14 143 11 26 -10 20 -29 -8z"/>
<path d="M2457 1158 c-22 -18 -41 -68 -24 -68 8 0 7 -4 -3 -10 -8 -5 -11 -10
-6 -10 5 0 3 -6 -3 -13 -8 -11 -5 -17 17 -27 24 -12 80 -14 187 -7 17 1 40 -1
53 -5 14 -5 21 -4 17 1 -3 5 -1 12 5 16 5 3 10 23 10 43 0 49 -20 61 -103 60
-48 0 -71 4 -82 16 -20 19 -45 21 -68 4z m63 -33 c0 -18 -17 -20 -22 -3 -3 7
-9 8 -18 3 -10 -6 -6 -12 14 -22 37 -19 33 -57 -7 -61 -18 -2 -29 2 -33 13
-10 24 4 31 20 10 10 -14 15 -15 21 -5 5 8 4 15 -2 17 -27 9 -46 31 -40 47 8
21 67 22 67 1z m64 -17 c19 -59 17 -66 -16 -64 -37 2 -50 25 -19 33 12 3 21
10 21 15 0 5 -9 6 -20 3 -21 -7 -28 10 -7 18 22 9 38 7 41 -5z m93 -1 c6 -4
13 -20 15 -37 4 -24 1 -30 -14 -30 -13 0 -18 8 -18 30 0 17 -5 30 -11 30 -7 0
-10 -12 -7 -30 3 -23 1 -30 -11 -30 -12 0 -16 10 -16 40 -1 37 1 39 25 37 14
-2 31 -6 37 -10z"/>
<path d="M1418 1153 c7 -3 16 -2 19 1 4 3 -2 6 -13 5 -11 0 -14 -3 -6 -6z"/>
<path d="M2174 1139 c-3 -6 -1 -16 5 -22 8 -8 11 -5 11 11 0 24 -5 28 -16 11z"/>
<path d="M2200 1141 c0 -6 9 -9 19 -8 11 0 17 5 15 9 -7 11 -34 10 -34 -1z"/>
<path d="M2206 1095 c-14 -22 -15 -25 -1 -25 8 0 15 9 15 19 0 11 6 22 13 24
7 4 8 6 1 6 -7 1 -19 -10 -28 -24z"/>
<path d="M2296 1108 c3 -5 10 -6 15 -3 13 9 11 12 -6 12 -8 0 -12 -4 -9 -9z"/>
<path d="M2240 1076 c0 -9 5 -16 10 -16 6 0 10 4 10 9 0 6 -4 13 -10 16 -5 3
-10 -1 -10 -9z"/>
<path d="M1078 1073 c7 -3 16 -2 19 1 4 3 -2 6 -13 5 -11 0 -14 -3 -6 -6z"/>
<path d="M1624 1069 c-4 -7 -3 -9 4 -5 5 3 13 0 15 -6 4 -9 6 -10 6 -1 1 17
-16 25 -25 12z"/>
<path d="M2293 1073 c-15 -5 -17 -23 -4 -23 5 0 11 7 15 15 3 8 4 15 3 14 -1
0 -8 -3 -14 -6z"/>
<path d="M2222 991 c-26 -45 -28 -58 -7 -41 8 7 12 16 9 21 -3 5 -2 9 3 9 4 0
13 11 20 25 18 40 -1 29 -25 -14z"/>
<path d="M2435 1000 c-3 -5 -1 -10 4 -10 6 0 11 5 11 10 0 6 -2 10 -4 10 -3 0
-8 -4 -11 -10z"/>
<path d="M1441 967 c-13 -21 -12 -21 5 -5 10 10 16 20 13 22 -3 3 -11 -5 -18
-17z"/>
<path d="M2465 980 c3 -5 8 -10 11 -10 2 0 4 5 4 10 0 6 -5 10 -11 10 -5 0 -7
-4 -4 -10z"/>
<path d="M2682 964 c-5 -9 -28 -17 -63 -21 -100 -10 -124 -8 -156 10 -31 18
-59 16 -48 -4 4 -5 -1 -9 -9 -9 -9 0 -16 4 -16 9 0 5 -8 12 -17 15 -23 9 -47
-18 -49 -57 0 -17 -4 -43 -8 -56 -6 -15 -5 -21 2 -17 6 3 13 2 17 -4 3 -6 18
-10 33 -9 15 0 38 -2 51 -5 14 -3 30 -1 38 5 7 7 13 8 13 3 0 -15 124 -11 133
4 7 11 12 11 25 0 14 -12 110 -17 172 -9 19 2 10 21 -10 21 -16 0 -20 7 -20
30 0 17 -5 30 -11 30 -7 0 -9 -11 -5 -30 4 -24 2 -30 -12 -30 -13 0 -17 9 -17
40 -1 37 0 39 27 36 35 -3 45 -13 50 -45 5 -37 28 -39 28 -3 0 37 -22 61 -62
69 -16 3 -35 14 -41 24 -14 23 -33 24 -45 3z m30 -26 c-5 -5 -7 -29 -4 -53 l4
-44 -41 1 c-39 0 -41 2 -41 30 0 26 -2 29 -15 18 -10 -9 -15 -9 -15 -1 0 19 5
26 14 23 5 -2 13 3 18 10 8 10 11 10 15 1 2 -7 14 -13 24 -13 12 0 17 5 14 10
-9 14 14 42 27 34 6 -4 6 -10 0 -16z m-318 -41 c18 -49 19 -57 7 -57 -5 0 -14
12 -20 28 l-11 27 4 -27 c3 -24 0 -28 -22 -28 -20 0 -22 2 -12 15 7 8 10 31 8
50 -6 53 25 47 46 -8z m69 36 c-16 -6 -17 -65 -1 -81 9 -9 6 -12 -14 -12 -22
0 -25 4 -21 28 4 21 2 24 -6 12 -14 -19 -14 0 -1 34 6 18 17 26 32 25 13 0 17
-3 11 -6z m75 -43 c6 -40 24 -50 20 -11 -2 21 2 36 10 38 12 5 16 -7 13 -39
-1 -10 3 -18 8 -18 6 0 11 -4 11 -9 0 -5 -27 -9 -60 -9 -51 1 -60 4 -60 20 0
12 7 18 21 18 11 0 18 4 14 10 -3 5 -12 7 -20 3 -8 -3 -15 -1 -15 4 0 34 54
28 58 -7z"/>
<path d="M2650 881 c0 -10 7 -21 15 -25 11 -4 15 1 15 19 0 16 -6 25 -15 25
-8 0 -15 -9 -15 -19z"/>
<path d="M1560 929 c-19 -11 -26 -17 -15 -13 11 3 28 9 38 11 9 3 17 9 17 14
0 11 1 12 -40 -12z"/>
<path d="M590 909 c7 -11 14 -18 17 -15 8 8 -5 36 -17 36 -7 0 -7 -6 0 -21z"/>
<path d="M1630 893 c0 -13 5 -23 10 -23 13 0 13 11 0 30 -8 12 -10 11 -10 -7z"/>
<path d="M2850 879 c0 -11 4 -18 10 -14 5 3 7 12 3 20 -7 21 -13 19 -13 -6z"/>
<path d="M606 848 c3 -5 10 -6 15 -3 13 9 11 12 -6 12 -8 0 -12 -4 -9 -9z"/>
<path d="M960 853 c0 -5 5 -15 10 -23 8 -12 10 -11 10 8 0 12 -4 22 -10 22 -5
0 -10 -3 -10 -7z"/>
<path d="M2344 777 c-2 -7 -13 -13 -24 -14 -49 -4 -86 -79 -55 -113 27 -30 72
-45 91 -29 9 7 18 9 22 3 9 -11 32 -11 51 0 8 5 16 4 21 -4 9 -14 40 -7 40 10
0 5 -10 10 -22 10 -20 0 -23 5 -23 40 -1 26 3 40 12 40 13 0 17 -11 14 -41 -1
-9 12 -28 29 -43 30 -25 52 -29 77 -13 7 4 21 2 32 -5 16 -9 23 -10 32 -1 8 8
18 9 36 0 19 -8 29 -8 45 2 12 7 24 9 29 4 11 -11 69 -4 69 8 0 5 6 9 13 9 23
0 8 68 -20 90 -19 15 -30 17 -50 9 -25 -9 -35 -6 -71 28 -11 10 -19 8 -42 -9
-26 -19 -33 -20 -55 -8 -13 7 -22 16 -20 21 3 4 -4 5 -15 2 -26 -7 -26 -23 0
-23 17 0 20 -7 20 -45 0 -25 1 -48 3 -52 1 -5 -14 -8 -33 -8 -32 0 -35 2 -35
30 0 21 7 33 23 41 32 16 12 27 -49 28 -30 1 -54 7 -66 18 -18 16 -20 16 -35
2 -18 -18 -42 -9 -34 12 3 8 3 14 0 14 -2 0 -7 -6 -10 -13z m76 -37 c0 -5 -5
-10 -12 -10 -6 0 -2 -9 10 -20 25 -24 25 -25 12 -51 -13 -23 -48 -25 -56 -4
-6 14 -8 14 -19 -1 -17 -24 -63 -11 -71 20 -9 37 12 66 46 66 30 0 42 -22 20
-35 -5 -3 -10 1 -10 9 0 22 -17 20 -29 -3 -7 -13 -6 -24 4 -37 18 -25 42 -11
68 39 18 35 37 49 37 27z m270 -10 c0 -14 6 -20 16 -18 9 2 21 -5 28 -14 15
-24 -3 -52 -37 -56 -24 -3 -25 -1 -29 52 -2 40 1 56 10 56 6 0 12 -9 12 -20z
m-187 -36 c-4 -12 -8 -13 -14 -3 -9 15 -2 32 11 24 5 -3 6 -13 3 -21z m145 14
c17 -17 15 -43 -4 -59 -31 -26 -70 25 -44 56 15 18 32 19 48 3z m155 5 c3 -5
7 -21 8 -38 4 -27 1 -30 -25 -30 -35 0 -47 24 -17 32 12 3 21 10 21 15 0 5 -9
6 -20 3 -11 -3 -20 -2 -20 3 0 17 45 29 53 15z"/>
<path d="M2390 681 c0 -11 5 -23 10 -26 6 -4 10 5 10 19 0 14 -4 26 -10 26 -5
0 -10 -9 -10 -19z"/>
<path d="M2690 681 c0 -12 6 -21 16 -21 9 0 14 7 12 17 -5 25 -28 28 -28 4z"/>
<path d="M2617 693 c-13 -12 -7 -33 8 -33 8 0 15 9 15 20 0 20 -11 26 -23 13z"/>
<path d="M728 753 c7 -3 16 -2 19 1 4 3 -2 6 -13 5 -11 0 -14 -3 -6 -6z"/>
<path d="M2530 680 c0 -11 7 -20 15 -20 8 0 15 9 15 20 0 11 -7 20 -15 20 -8
0 -15 -9 -15 -20z"/>
<path d="M2231 674 c0 -11 3 -14 6 -6 3 7 2 16 -1 19 -3 4 -6 -2 -5 -13z"/>
<path d="M2058 673 c7 -3 16 -2 19 1 4 3 -2 6 -13 5 -11 0 -14 -3 -6 -6z"/>
<path d="M1318 603 c7 -3 16 -2 19 1 4 3 -2 6 -13 5 -11 0 -14 -3 -6 -6z"/>
<path d="M2237 583 c-10 -10 -8 -23 4 -23 5 0 8 4 5 9 -4 5 0 12 6 14 7 3 8 6
2 6 -6 1 -14 -2 -17 -6z"/>
<path d="M1701 507 c-8 -11 -4 -13 20 -9 22 3 27 7 18 13 -19 12 -25 11 -38
-4z"/>
<path d="M1510 506 c0 -2 7 -7 16 -10 8 -3 12 -2 9 4 -6 10 -25 14 -25 6z"/>
<path d="M1580 500 c0 -5 5 -10 11 -10 5 0 7 5 4 10 -3 6 -8 10 -11 10 -2 0
-4 -4 -4 -10z"/>
<path d="M2385 501 c-3 -5 -2 -12 3 -15 5 -3 9 1 9 9 0 17 -3 19 -12 6z"/>
<path d="M1220 490 c0 -5 5 -10 11 -10 5 0 7 5 4 10 -3 6 -8 10 -11 10 -2 0
-4 -4 -4 -10z"/>
<path d="M1920 490 c0 -5 5 -10 10 -10 6 0 10 5 10 10 0 6 -4 10 -10 10 -5 0
-10 -4 -10 -10z"/>
<path d="M2306 477 c3 -10 9 -15 12 -12 3 3 0 11 -7 18 -10 9 -11 8 -5 -6z"/>
<path d="M2238 453 c12 -2 30 -2 40 0 9 3 -1 5 -23 4 -22 0 -30 -2 -17 -4z"/>
<path d="M2415 450 c-3 -5 -1 -10 4 -10 6 0 11 5 11 10 0 6 -2 10 -4 10 -3 0
-8 -4 -11 -10z"/>
<path d="M2449 434 c-12 -14 -11 -16 5 -13 11 2 21 10 24 17 5 17 -13 15 -29
-4z"/>
<path d="M656 388 c16 -13 31 -26 32 -30 2 -5 9 -8 16 -8 6 0 19 -8 27 -17 9
-10 26 -25 39 -33 12 -8 32 -23 44 -32 20 -14 60 -17 312 -21 316 -4 393 0
417 25 9 9 57 36 107 60 86 41 107 58 75 58 -19 0 -136 -59 -188 -94 l-38 -26
-331 0 -330 0 -47 39 c-52 43 -140 101 -154 101 -5 0 3 -10 19 -22z"/>
<path d="M500 379 c0 -5 5 -7 10 -4 6 3 10 8 10 11 0 2 -4 4 -10 4 -5 0 -10
-5 -10 -11z"/>
<path d="M800 385 c0 -5 5 -17 10 -25 5 -8 10 -10 10 -5 0 6 -5 17 -10 25 -5
8 -10 11 -10 5z"/>
<path d="M288 373 c7 -3 16 -2 19 1 4 3 -2 6 -13 5 -11 0 -14 -3 -6 -6z"/>
<path d="M459 366 c6 -8 11 -18 10 -22 -4 -24 3 -34 24 -33 16 1 18 2 5 6 -10
2 -18 11 -18 20 0 9 6 13 15 9 8 -3 15 -1 15 4 0 6 -9 10 -20 10 -11 0 -20 5
-20 10 0 6 -5 10 -11 10 -8 0 -8 -4 0 -14z"/>
<path d="M771 364 c0 -11 3 -14 6 -6 3 7 2 16 -1 19 -3 4 -6 -2 -5 -13z"/>
<path d="M1014 355 c27 -21 53 -21 32 0 -8 8 -23 15 -33 15 -17 -1 -17 -2 1
-15z"/>
<path d="M1270 360 c0 -5 5 -10 11 -10 5 0 7 5 4 10 -3 6 -8 10 -11 10 -2 0
-4 -4 -4 -10z"/>
<path d="M1324 354 c3 -8 6 -22 6 -30 0 -8 4 -14 9 -14 14 0 7 49 -8 55 -9 4
-11 0 -7 -11z"/>
<path d="M1480 361 c0 -6 4 -13 10 -16 6 -3 7 1 4 9 -7 18 -14 21 -14 7z"/>
<path d="M222 340 c0 -14 2 -19 5 -12 2 6 2 18 0 25 -3 6 -5 1 -5 -13z"/>
<path d="M251 338 c-1 -14 5 -28 12 -31 22 -8 37 5 36 32 -1 25 -1 25 -7 3 -4
-13 -11 -23 -17 -23 -5 0 -13 10 -17 23 -6 22 -6 22 -7 -4z"/>
<path d="M320 336 c0 -20 5 -26 21 -26 15 0 20 5 17 22 -5 34 -38 37 -38 4z
m30 -1 c0 -8 -4 -15 -10 -15 -5 0 -10 7 -10 15 0 8 5 15 10 15 6 0 10 -7 10
-15z"/>
<path d="M382 335 c-7 -15 -8 -25 -2 -25 6 0 10 8 10 17 0 15 2 14 15 -3 15
-19 20 -8 9 20 -9 23 -19 20 -32 -9z"/>
<path d="M442 335 c0 -16 2 -22 5 -12 2 9 2 23 0 30 -3 6 -5 -1 -5 -18z"/>
<path d="M1080 330 c0 -5 5 -10 10 -10 6 0 10 5 10 10 0 6 -4 10 -10 10 -5 0
-10 -4 -10 -10z"/>
<path d="M1240 311 c0 -6 4 -13 10 -16 6 -3 7 1 4 9 -7 18 -14 21 -14 7z"/>
<path d="M282 288 c-9 -4 24 -7 75 -7 50 -1 94 2 97 7 5 9 -148 10 -172 0z"/>
<path d="M478 283 c6 -2 18 -2 25 0 6 3 1 5 -13 5 -14 0 -19 -2 -12 -5z"/>
</g>
</svg>
