<?xml version="1.0" standalone="no"?>
<!DOCTYPE svg PUBLIC "-//W3C//DTD SVG 20010904//EN"
 "http://www.w3.org/TR/2001/REC-SVG-20010904/DTD/svg10.dtd">
<svg version="1.0" xmlns="http://www.w3.org/2000/svg"
 width="50.000000pt" height="50.000000pt" viewBox="0 0 50.000000 50.000000"
 preserveAspectRatio="xMidYMid meet">
<metadata>
Created by potrace 1.10, written by Peter Selinger 2001-2011
</metadata>
<g transform="translate(0.000000,50.000000) scale(0.100000,-0.100000)"
fill="#000000" stroke="none">
<path d="M155 455 c-31 -30 -33 -77 -5 -105 17 -17 20 -33 20 -97 l0 -77 -33
32 c-18 18 -40 32 -48 32 -20 0 -39 -20 -39 -40 0 -17 132 -151 167 -169 12
-6 52 -11 88 -11 60 0 69 3 96 29 28 28 29 33 29 118 0 95 -8 113 -46 113 -13
0 -26 5 -29 11 -4 5 -17 9 -28 8 -12 -1 -30 1 -39 5 -9 4 -22 5 -28 1 -6 -3
-10 3 -10 14 0 12 5 21 10 21 6 0 16 11 22 25 10 23 16 25 81 25 70 0 70 0 52
-20 -31 -34 -6 -36 28 -2 l32 32 -32 32 c-34 34 -59 32 -28 -2 18 -20 18 -20
-53 -20 -44 0 -72 4 -72 10 0 23 -50 60 -80 60 -19 0 -40 -9 -55 -25z m95 -15
c21 -21 24 -37 13 -67 -6 -14 -9 -11 -13 16 -10 66 -72 68 -78 2 -4 -36 -22
-32 -22 5 0 29 32 64 60 64 11 0 29 -9 40 -20z m-22 -113 c1 -48 7 -87 12 -87
5 0 10 10 12 23 2 12 10 22 18 22 8 0 16 -10 18 -22 4 -29 18 -30 25 -2 8 29
31 19 35 -14 4 -32 17 -35 25 -6 3 12 12 19 19 17 9 -3 14 -30 16 -88 3 -75 1
-85 -20 -107 -21 -23 -29 -25 -96 -21 l-72 3 -77 77 c-61 61 -75 80 -65 90 9
9 21 3 55 -30 23 -23 46 -42 50 -42 4 0 7 60 7 133 0 74 3 137 7 141 19 19 28
-8 31 -87z"/>
</g>
</svg>
