<?xml version="1.0" standalone="no"?>
<!DOCTYPE svg PUBLIC "-//W3C//DTD SVG 20010904//EN"
 "http://www.w3.org/TR/2001/REC-SVG-20010904/DTD/svg10.dtd">
<svg version="1.0" xmlns="http://www.w3.org/2000/svg"
 width="900.000000pt" height="900.000000pt" viewBox="0 0 900.000000 900.000000"
 preserveAspectRatio="xMidYMid meet">
<metadata>
Created by potrace 1.10, written by Peter Selinger 2001-2011
</metadata>
<g transform="translate(0.000000,900.000000) scale(0.100000,-0.100000)"
fill="#000000" stroke="none">
<path d="M3496 8673 c-1 -2 -680 -3 -1508 -3 -1646 0 -1573 2 -1631 -58 -15
-16 -32 -44 -37 -62 -11 -37 -15 -1734 -5 -1750 4 -6 17 -10 30 -10 17 0 26 7
30 23 3 12 4 420 3 907 l-3 885 4000 -3 c2200 -2 4051 0 4113 3 99 6 112 9
112 25 0 10 -8 21 -17 25 -16 6 -806 9 -4411 18 -371 1 -675 1 -676 0z"/>
<path d="M8614 8589 c-8 -13 -15 -4232 -7 -4270 3 -14 8 -15 38 -5 36 13 56
26 38 26 -6 0 -12 23 -13 52 -2 44 -1 779 1 953 4 307 -3 3158 -7 3180 -3 17
-13 41 -23 54 -15 19 -20 21 -27 10z"/>
<path d="M4736 8304 c-3 -9 -6 -35 -6 -59 0 -23 -7 -62 -15 -85 -20 -56 -20
-57 15 -65 43 -9 62 6 66 51 1 22 6 56 9 77 10 50 -10 97 -40 97 -13 0 -26 -7
-29 -16z"/>
<path d="M6255 8151 c-2 -1 -295 -4 -652 -6 -637 -3 -742 -8 -751 -32 -3 -10
239 -13 1186 -13 655 0 1198 3 1207 6 13 5 8 11 -22 23 -32 13 -111 16 -501
21 -255 3 -465 3 -467 1z"/>
<path d="M3437 8144 c-3 -4 -35 -7 -69 -8 -48 -2 -63 -6 -63 -16 0 -13 94 -15
683 -18 399 -1 682 2 682 7 0 12 -26 21 -61 21 -16 0 -29 5 -29 10 0 11 -1132
15 -1143 4z"/>
<path d="M3192 8013 c-16 -28 -21 -261 -7 -280 27 -36 35 -3 35 135 0 140 -8
182 -28 145z"/>
<path d="M7372 8008 c-6 -9 -6 -70 1 -183 6 -114 6 -218 0 -315 -12 -172 -11
-222 3 -227 19 -6 32 42 28 98 -4 51 -6 257 -3 474 1 160 -3 184 -29 153z"/>
<path d="M5655 7941 c-27 -5 -74 -16 -102 -26 -30 -10 -67 -15 -85 -12 -18 3
-58 -1 -88 -8 -30 -8 -81 -17 -112 -20 -32 -4 -58 -10 -58 -14 0 -4 15 -12 33
-19 55 -20 106 -71 172 -172 35 -53 71 -103 80 -110 8 -7 15 -17 15 -22 0 -5
17 -35 38 -66 22 -31 42 -69 46 -84 5 -21 13 -28 30 -28 48 0 51 23 11 107
-103 220 -155 350 -155 386 0 28 1 29 43 22 55 -9 66 -21 125 -135 27 -52 53
-104 59 -115 110 -205 121 -255 58 -255 -19 0 -37 -4 -40 -10 -4 -6 18 -10 59
-10 37 0 68 5 72 11 4 7 24 9 55 5 l49 -7 0 43 c0 24 -5 59 -10 78 -25 85 -50
313 -36 327 10 10 65 -62 83 -109 26 -67 83 -306 80 -333 -2 -17 5 -20 39 -23
l41 -3 6 53 c5 57 37 163 64 214 22 43 13 58 -49 87 -29 14 -83 39 -120 56
-37 17 -71 37 -75 44 -4 7 -47 43 -95 80 -95 74 -129 84 -233 68z m-205 -188
c0 -13 -4 -23 -9 -23 -14 0 -41 47 -41 71 l0 22 25 -23 c14 -13 25 -34 25 -47z
m338 41 c13 -9 22 -24 22 -40 0 -14 4 -33 9 -42 5 -9 15 -52 22 -95 11 -68 11
-79 -3 -93 -12 -13 -20 -14 -37 -5 -11 7 -21 18 -21 26 0 8 -4 15 -10 15 -5 0
-10 18 -10 40 0 21 -6 43 -13 47 -17 10 -60 140 -53 158 6 17 58 11 94 -11z
m333 -146 c15 -30 20 -52 16 -81 -6 -42 -25 -63 -41 -47 -12 12 -21 132 -12
155 8 23 14 19 37 -27z"/>
<path d="M5065 7848 c-27 -5 -68 -10 -90 -12 -237 -21 -299 -49 -167 -75 33
-6 78 -20 100 -31 23 -11 45 -20 51 -20 5 0 23 -17 39 -37 43 -55 265 -233
289 -233 24 0 13 14 -98 127 -214 219 -255 296 -123 233 25 -13 81 -62 140
-127 55 -58 138 -146 186 -196 49 -51 84 -96 81 -104 -5 -14 -56 -16 -87 -4
-10 4 -42 1 -70 -7 -28 -8 -60 -16 -72 -19 -14 -3 -35 10 -75 47 -30 28 -67
58 -84 67 -16 9 -43 27 -60 40 -16 14 -68 54 -115 89 -121 93 -190 154 -190
171 0 32 -91 43 -164 18 -24 -8 -81 -20 -127 -25 -238 -29 -280 -36 -282 -45
-1 -5 18 -13 43 -17 74 -11 143 -28 170 -42 14 -8 41 -17 60 -21 19 -4 41 -12
49 -18 18 -15 33 -24 143 -81 51 -27 111 -59 133 -71 22 -13 51 -26 65 -30 14
-4 36 -16 49 -26 13 -11 32 -19 42 -19 10 0 33 -9 51 -20 18 -11 43 -20 55
-20 12 0 29 -10 37 -22 20 -28 7 -44 -48 -60 -23 -6 -51 -24 -64 -40 -29 -35
-60 -36 -127 -3 -87 43 -212 95 -228 95 -15 0 -83 28 -202 85 -141 67 -205 95
-214 95 -10 0 -38 13 -106 49 -22 12 -68 35 -103 53 -51 25 -62 35 -58 51 4
18 0 19 -82 14 -89 -6 -183 -20 -221 -32 -34 -10 -9 -31 47 -39 99 -13 287
-69 388 -116 23 -11 55 -22 70 -26 16 -4 34 -10 39 -14 6 -5 57 -26 115 -49
58 -22 113 -45 122 -51 10 -5 25 -10 34 -10 9 0 30 -6 47 -14 35 -14 114 -44
192 -72 28 -10 59 -24 70 -31 11 -7 34 -13 52 -13 23 0 36 -6 43 -21 16 -29 5
-35 -33 -21 -19 7 -40 12 -49 12 -9 0 -29 7 -44 15 -16 8 -36 15 -44 15 -17 1
-109 31 -126 42 -6 4 -28 12 -50 17 -21 5 -64 17 -94 26 -30 9 -72 20 -93 25
-21 4 -44 13 -50 19 -6 6 -20 11 -32 11 -11 0 -37 9 -58 20 -20 11 -44 20 -52
20 -9 0 -26 6 -38 14 -12 8 -47 22 -77 31 -30 9 -71 23 -90 30 -19 7 -62 21
-95 31 -33 10 -65 22 -72 27 -7 5 -27 13 -45 17 -52 13 -122 40 -138 54 -29
23 -88 36 -140 31 -64 -6 -130 -24 -148 -40 -17 -15 -5 -45 18 -45 9 0 25 -9
35 -20 10 -11 37 -25 59 -30 23 -6 56 -15 74 -21 27 -9 38 -8 57 5 34 22 42
20 48 -13 5 -22 13 -31 36 -36 17 -4 33 -10 36 -15 11 -17 -14 -58 -40 -64
-50 -13 -20 -31 62 -38 72 -6 192 -33 458 -104 50 -13 134 -33 189 -44 54 -11
102 -23 107 -25 7 -5 82 -20 214 -45 51 -9 120 -32 131 -42 10 -11 -5 -42 -26
-55 -13 -9 -27 -10 -42 -4 -13 5 -57 16 -98 25 -41 8 -111 22 -155 31 -44 10
-105 18 -135 18 l-55 2 -3 -33 c-2 -18 -10 -36 -18 -39 -19 -7 -44 14 -44 37
0 11 -12 22 -30 29 -16 5 -30 15 -30 20 0 6 -10 11 -23 11 -12 0 -38 8 -57 19
-67 35 -302 82 -315 62 -6 -11 70 -71 90 -71 7 0 22 -13 34 -29 21 -27 24 -28
49 -15 15 8 37 14 49 14 12 0 25 5 28 10 12 19 53 11 61 -12 4 -13 18 -37 32
-54 22 -28 33 -33 91 -39 55 -6 67 -4 78 10 11 16 24 17 100 12 48 -3 111 -10
138 -16 28 -6 90 -17 139 -26 49 -8 97 -22 106 -30 16 -14 20 -13 49 20 19 22
31 47 31 64 0 15 9 36 20 46 11 10 20 25 20 33 0 26 60 92 84 92 13 0 41 12
62 28 21 15 61 39 87 52 26 14 55 33 64 43 15 16 15 19 -2 37 -10 11 -21 20
-26 20 -4 0 -36 18 -70 40 -35 22 -80 46 -99 55 -19 8 -42 19 -50 25 -8 5 -31
18 -50 28 -153 79 -364 222 -349 237 3 3 35 -7 70 -21 60 -24 79 -33 152 -70
15 -8 42 -21 60 -31 17 -9 40 -24 50 -35 10 -10 22 -18 28 -18 6 0 25 -11 42
-24 18 -13 62 -40 99 -59 107 -58 185 -115 192 -141 6 -23 7 -24 116 -21 79 3
116 8 132 19 14 10 43 16 75 16 41 0 53 3 53 15 0 26 -60 112 -178 255 -61 74
-124 161 -139 192 -26 54 -30 57 -63 57 -19 -1 -57 -6 -85 -11z m-1342 -406
c11 -10 17 -25 14 -39 -4 -22 -1 -23 60 -23 35 0 74 -5 86 -12 12 -6 40 -15
62 -19 35 -7 162 -42 305 -84 25 -7 122 -34 215 -60 94 -25 192 -52 219 -60
26 -8 57 -15 67 -15 23 0 42 -41 25 -52 -17 -12 -57 -9 -101 6 -36 13 -72 22
-205 55 -25 6 -94 24 -155 40 -323 86 -437 115 -506 130 -68 14 -82 22 -139
72 -47 42 -61 61 -56 74 5 14 14 16 48 11 24 -4 51 -14 61 -24z"/>
<path d="M2663 7804 c-3 -8 -2 -43 1 -77 4 -34 12 -96 16 -137 5 -41 9 -163 9
-270 0 -222 -3 -233 -64 -228 -36 3 -44 11 -75 78 -4 8 -18 16 -32 18 -20 2
-30 -4 -47 -31 -29 -48 -55 -57 -126 -45 -94 16 -90 5 -87 265 1 124 6 232 10
240 5 8 20 20 33 26 32 17 36 58 9 102 -14 23 -29 35 -44 35 -44 0 -58 -103
-56 -430 0 -178 3 -216 15 -223 17 -9 20 -37 4 -37 -6 0 -13 9 -16 20 -3 13
-12 19 -22 16 -85 -23 -158 -11 -165 27 -3 12 -10 72 -16 132 -26 254 -40 320
-69 330 -45 14 -72 -27 -48 -72 27 -51 45 -117 58 -213 13 -102 13 -115 3
-172 -7 -43 -15 -45 -134 -40 -123 6 -125 7 -125 145 1 75 6 120 15 137 35 64
29 143 -12 156 -41 13 -47 -10 -52 -203 -3 -101 -10 -191 -16 -202 -13 -25
-55 -33 -142 -28 -43 3 -75 11 -91 23 -42 31 -42 44 -7 199 13 57 12 119 -2
133 -18 18 -42 15 -63 -7 -15 -18 -17 -37 -14 -162 l4 -142 -27 -20 c-25 -19
-38 -20 -170 -16 -189 5 -594 2 -637 -6 -22 -4 -30 -10 -24 -16 6 -6 140 -12
344 -14 396 -5 451 -9 487 -40 26 -22 27 -28 27 -118 -1 -149 35 -137 -409
-138 -345 -1 -445 -6 -406 -22 8 -4 184 -8 390 -9 206 -2 383 -7 394 -12 16
-8 17 -6 11 13 -16 52 54 72 79 22 l15 -29 88 5 c48 3 106 1 128 -4 37 -8 40
-12 43 -45 3 -32 -1 -39 -27 -52 -39 -21 -157 -21 -204 -1 -23 9 -37 23 -40
37 -4 22 -4 21 -6 -2 0 -14 6 -35 14 -47 13 -19 26 -22 117 -25 87 -2 108 -6
134 -25 26 -18 33 -20 37 -9 3 8 -4 21 -16 29 -21 14 -21 15 -4 34 11 13 17
36 17 71 0 40 4 52 15 52 11 0 15 -11 15 -37 0 -38 1 -38 18 -17 28 36 57 44
146 44 80 0 87 2 117 29 30 28 33 29 55 14 13 -8 24 -24 24 -34 0 -19 11 -25
24 -12 4 4 32 8 63 9 38 1 64 8 82 22 23 18 26 26 27 88 1 157 1 154 39 170
46 19 130 18 177 -3 31 -14 39 -23 44 -52 3 -20 9 -47 14 -61 5 -14 10 -45 12
-70 l3 -45 -55 -6 c-30 -4 -87 -10 -125 -14 -62 -7 -72 -11 -83 -33 -15 -33
-10 -37 27 -18 18 10 59 17 103 18 47 1 82 7 98 17 48 30 72 41 93 41 19 0 19
1 4 18 -23 25 -40 144 -26 176 13 27 46 40 84 30 69 -17 73 -192 6 -241 -22
-15 -5 -30 18 -16 29 18 40 -2 34 -67 -5 -56 -4 -61 28 -95 l34 -36 91 6 c99
8 146 2 169 -22 23 -22 18 -66 -10 -93 -23 -21 -30 -22 -133 -18 -102 4 -109
3 -104 -14 4 -16 16 -18 117 -18 96 0 114 -3 128 -18 25 -27 21 -58 -10 -81
l-28 -21 28 -21 c54 -41 23 -96 -60 -103 -61 -6 -61 -8 1 -16 42 -6 65 -14 83
-32 25 -25 25 -26 24 -208 0 -112 -4 -187 -11 -194 -17 -17 -11 -27 12 -24 17
2 27 -6 43 -34 l20 -38 -26 -26 -27 -26 -22 22 c-14 14 -22 34 -22 56 0 36
-13 43 -47 25 -10 -6 -45 -6 -85 -1 -86 11 -104 28 -113 110 -8 79 -23 77 -23
-4 0 -42 -4 -66 -12 -70 -7 -3 -3 -3 9 0 18 4 25 0 32 -19 6 -14 19 -28 30
-32 20 -6 20 -8 6 -36 -14 -25 -14 -29 -1 -29 8 0 17 4 20 9 11 17 123 11 165
-10 35 -17 41 -24 46 -63 9 -55 2 -234 -10 -260 -7 -15 -5 -17 13 -12 33 11
54 -29 46 -87 -9 -62 -26 -86 -48 -68 -13 11 -16 11 -16 -1 0 -8 4 -18 9 -24
12 -13 19 -128 8 -141 -42 -51 -46 -53 -113 -53 -91 0 -120 18 -128 81 -4 26
-3 67 0 90 6 38 5 42 -10 36 -10 -4 -22 -7 -27 -7 -13 0 -11 -37 2 -46 7 -4
10 -29 7 -65 -3 -40 -1 -58 7 -57 6 2 25 -11 41 -28 28 -29 36 -32 97 -32 39
1 73 -5 82 -12 13 -10 15 -9 15 9 0 15 11 27 35 38 19 9 37 14 41 11 3 -3 6
-34 7 -69 2 -62 2 -63 -28 -71 -16 -4 -37 -5 -45 -2 -8 4 -55 7 -105 7 -87 0
-91 -1 -123 -31 -19 -17 -31 -36 -27 -42 3 -5 6 -69 6 -142 0 -130 1 -133 24
-151 l25 -18 0 35 c0 19 -4 38 -10 41 -6 4 -10 54 -10 118 1 145 10 160 109
165 60 4 71 1 95 -19 24 -21 28 -33 33 -100 9 -119 -3 -187 -39 -221 -25 -23
-27 -29 -14 -34 9 -3 28 1 42 11 24 16 27 16 45 -1 15 -13 17 -25 13 -55 -5
-28 -3 -40 7 -42 8 -2 30 -9 48 -15 46 -15 52 -5 49 78 l-3 65 -40 3 c-67 6
-75 20 -75 139 0 99 4 116 37 162 1 2 20 7 40 10 34 6 38 9 38 36 0 25 -5 31
-30 35 -21 4 -31 11 -33 28 -3 18 1 22 21 22 29 0 50 22 45 47 -2 11 -17 20
-44 26 -46 8 -54 26 -54 109 0 57 14 78 54 78 40 0 46 11 46 84 0 59 -12 76
-52 76 -39 0 -48 29 -48 158 0 144 2 150 54 154 l41 3 0 60 0 60 -39 6 c-21 3
-42 12 -47 20 -9 15 -15 190 -10 299 4 84 14 110 44 110 13 0 28 5 34 11 19
19 3 39 -32 39 -28 0 -33 4 -39 31 -3 17 -6 44 -6 59 0 15 -6 32 -13 39 -11 8
-13 47 -10 173 1 92 -2 178 -8 201 -13 50 -3 62 67 83 61 17 71 34 21 34 -50
0 -85 20 -91 54 -10 47 -7 113 6 142 12 25 15 26 65 21 45 -5 53 -3 58 14 4
10 3 23 0 29 -8 12 -143 11 -151 -1 -13 -22 -23 -6 -11 19 11 21 12 43 6 97
-5 39 -15 125 -22 193 -9 87 -17 127 -29 139 -16 15 -18 15 -28 -9 -9 -19 -8
-49 4 -129 43 -293 42 -295 -109 -305 -93 -6 -101 -5 -118 14 -33 37 -39 92
-42 390 -3 297 -6 322 -42 322 -7 0 -16 -7 -20 -16z m-663 -675 c0 -10 4 -19
8 -19 5 0 17 -6 27 -14 18 -13 18 -14 1 -41 l-18 -28 -24 27 c-14 14 -31 26
-39 26 -21 0 -19 16 7 50 23 31 38 31 38 -1z m-639 1 c22 -12 24 -29 6 -53
-10 -15 -16 -16 -39 -5 -32 15 -36 42 -10 57 21 13 20 13 43 1z m1191 -43 c10
-22 13 -39 7 -48 -5 -8 -9 -9 -9 -3 0 6 -17 19 -38 30 -39 18 -39 18 -18 36
30 25 40 22 58 -15z m-854 0 c2 -10 -3 -17 -12 -17 -18 0 -29 16 -21 31 9 14
29 6 33 -14z m-67 -23 c21 -19 43 -115 35 -150 -4 -16 -10 -41 -13 -57 -9 -45
-37 -57 -135 -57 -62 0 -98 5 -123 17 l-36 17 7 101 c9 124 19 142 82 148 73
7 165 -3 183 -19z m310 -11 c49 -24 58 -41 59 -104 0 -124 -29 -149 -173 -149
-92 0 -95 1 -113 28 -26 38 -27 176 -1 215 17 26 21 27 106 27 62 0 98 -5 122
-17z m234 -2 c32 -19 43 -54 44 -143 1 -60 -5 -76 -40 -93 -39 -20 -82 -19
-110 4 -22 18 -24 26 -24 118 0 54 3 106 7 116 10 23 82 22 123 -2z m830 3
c19 -8 45 -72 45 -113 0 -41 -20 -88 -42 -102 -7 -5 -63 -9 -123 -9 -135 0
-139 3 -136 124 1 44 3 82 6 84 2 2 21 10 42 18 35 13 171 12 208 -2z m12
-266 c37 -16 43 -26 43 -68 -1 -64 -12 -70 -156 -76 -127 -5 -129 -5 -143 18
-8 12 -16 41 -17 64 -4 40 -4 41 44 56 57 19 191 23 229 6z m97 -574 c20 -8
20 -28 1 -44 -21 -17 -39 1 -30 29 7 23 7 23 29 15z"/>
<path d="M3963 7682 c-24 -9 -43 -19 -43 -23 0 -4 21 -10 47 -14 59 -9 253
-88 479 -196 34 -16 65 -29 68 -29 8 0 105 -43 149 -65 16 -8 38 -15 49 -15
25 0 19 24 -8 29 -10 2 -23 9 -29 15 -5 7 -30 20 -55 30 -25 10 -52 22 -60 27
-8 4 -49 25 -90 44 -41 20 -82 40 -90 45 -8 4 -69 35 -135 68 -66 33 -129 69
-139 81 -23 26 -81 27 -143 3z"/>
<path d="M6261 7607 c5 -12 24 -30 40 -39 l30 -18 -7 -87 c-3 -49 -13 -98 -21
-111 -8 -13 -13 -33 -11 -45 3 -20 9 -22 70 -24 63 -1 67 0 78 25 19 47 39 79
70 112 25 27 33 30 46 20 18 -16 13 -49 -19 -128 -18 -46 -19 -55 -7 -62 8 -5
22 -7 30 -5 8 3 29 -4 45 -15 41 -27 57 -25 77 9 9 17 36 39 62 51 52 23 56
32 24 49 -36 19 -61 34 -95 59 -17 12 -40 22 -51 22 -11 0 -27 7 -36 15 -8 8
-17 15 -21 15 -3 0 -19 15 -34 33 -30 33 -89 61 -153 72 -23 3 -38 12 -38 20
0 16 -52 55 -74 55 -13 0 -14 -4 -5 -23z"/>
<path d="M3227 7464 c-7 -38 3 -64 23 -64 10 0 43 -24 73 -52 68 -66 82 -116
48 -174 -25 -42 -26 -57 -5 -89 16 -25 11 -65 -8 -65 -7 0 -8 -17 -4 -51 6
-42 4 -53 -10 -64 -16 -11 -16 -17 -4 -58 11 -41 10 -50 -4 -71 -9 -14 -16
-42 -16 -62 0 -20 -8 -49 -17 -65 -16 -27 -16 -31 0 -58 13 -22 17 -53 18
-128 0 -89 6 -138 25 -215 9 -38 -5 -35 -55 13 -23 23 -45 39 -48 36 -7 -8 16
-78 32 -97 7 -8 16 -25 19 -37 4 -13 11 -23 16 -23 4 0 17 -18 27 -40 11 -21
49 -72 84 -111 138 -156 166 -188 215 -245 28 -33 61 -78 73 -101 11 -23 37
-54 57 -69 20 -16 61 -57 91 -94 30 -36 76 -87 102 -115 26 -27 96 -108 156
-179 61 -71 148 -173 195 -225 47 -53 97 -110 110 -127 92 -116 165 -204 319
-384 96 -113 198 -230 227 -260 28 -30 55 -66 59 -80 4 -14 53 -70 109 -125
56 -55 120 -122 141 -150 37 -47 53 -65 155 -175 23 -25 85 -97 138 -160 52
-63 101 -120 109 -126 7 -6 13 -16 13 -21 0 -16 71 -93 85 -93 7 0 30 -21 51
-47 21 -26 49 -58 62 -72 50 -53 141 -158 191 -219 40 -47 58 -62 74 -60 40 6
35 91 -6 102 -39 9 -80 54 -75 80 5 23 -32 71 -140 186 -100 107 -147 190 -91
159 15 -8 20 -6 25 8 3 10 13 33 22 51 13 26 13 37 4 52 -10 16 -7 22 14 39
14 11 30 21 37 24 9 3 9 13 -1 41 -13 34 -12 39 5 52 22 17 56 10 95 -17 39
-28 35 -9 -7 32 -19 19 -38 46 -43 59 -8 21 -5 28 21 47 17 13 37 23 45 23 14
0 14 13 -3 67 -6 18 -2 25 18 34 40 18 95 3 130 -37 17 -19 35 -34 40 -34 5 0
16 -8 23 -17 7 -10 16 -14 21 -10 4 5 -2 16 -14 25 -98 78 -153 140 -153 174
0 18 63 47 92 41 32 -6 37 9 14 42 -23 35 -29 65 -12 65 8 0 20 9 26 20 17 32
57 25 108 -21 52 -45 102 -75 102 -60 0 12 -28 41 -40 41 -14 0 -108 97 -115
120 -9 28 1 37 25 22 16 -10 19 -8 22 11 2 16 11 23 31 25 24 3 40 22 18 22
-7 0 -44 50 -59 81 -1 4 11 21 28 38 25 24 31 38 28 63 -3 28 0 33 17 30 11
-2 29 -12 40 -23 11 -10 39 -29 63 -41 46 -25 126 -92 216 -180 32 -32 62 -58
66 -58 20 0 40 13 40 26 0 18 -142 172 -188 204 -21 14 -51 39 -67 55 -17 17
-54 50 -83 73 -70 58 -71 90 -7 127 27 16 55 25 72 23 27 -3 28 -5 33 -73 4
-53 9 -70 20 -70 11 0 16 13 18 47 2 37 7 48 23 53 11 4 23 4 26 1 3 -3 21 1
40 9 60 25 71 12 89 -120 4 -22 13 -47 21 -56 10 -12 12 -28 8 -53 -8 -39 6
-63 64 -112 27 -22 34 -25 42 -13 5 8 6 21 4 30 -3 9 -12 45 -19 80 -15 66
-21 87 -63 202 -17 44 -26 92 -27 140 -2 72 -20 119 -50 130 -7 3 -16 23 -19
44 -12 74 -56 206 -75 225 -7 7 -12 28 -12 47 0 20 -9 56 -20 80 -11 24 -20
54 -20 67 0 13 -4 32 -9 42 -5 9 -15 42 -24 72 -8 30 -30 105 -47 165 -17 61
-30 126 -28 145 3 31 6 35 33 36 108 2 120 11 92 70 -21 44 -41 45 -35 2 3
-18 4 -38 1 -44 -2 -7 -44 -9 -121 -7 -80 2 -110 0 -95 -6 12 -6 30 -22 39
-36 21 -33 53 -233 54 -338 0 -43 4 -87 10 -97 5 -10 14 -87 18 -172 5 -84 14
-163 20 -174 9 -18 8 -25 -8 -39 -11 -10 -34 -20 -52 -24 -19 -4 -34 -14 -36
-24 -4 -21 35 -77 54 -77 33 0 94 -26 94 -40 0 -25 -13 -35 -60 -50 -24 -8
-53 -26 -65 -39 -89 -106 -95 -110 -95 -56 0 43 -10 44 -38 5 -31 -41 -28
-110 4 -110 20 0 17 -24 -5 -45 -11 -9 -21 -33 -23 -54 -3 -31 -9 -39 -40 -54
-49 -22 -52 -59 -9 -85 l29 -18 -30 -17 c-16 -9 -42 -17 -58 -17 -21 0 -30 -7
-40 -30 -14 -33 -1 -60 27 -60 8 0 13 -7 11 -17 -2 -13 -14 -19 -43 -21 -45
-3 -65 -23 -65 -63 0 -19 6 -28 21 -32 27 -7 15 -27 -17 -27 -65 0 -113 -59
-74 -91 18 -16 19 -17 1 -33 -10 -9 -27 -16 -38 -16 -12 0 -25 -10 -31 -25
-17 -36 -15 -49 8 -70 26 -23 17 -35 -25 -35 -43 0 -57 -23 -53 -88 3 -44 2
-47 -22 -47 -21 0 -26 -5 -28 -31 -2 -19 3 -36 12 -44 23 -18 20 -27 -14 -39
-24 -8 -30 -16 -30 -40 0 -18 -7 -34 -17 -40 -16 -9 -16 -13 -5 -31 7 -12 12
-23 10 -24 -43 -28 -61 -36 -78 -36 -21 0 -27 14 -10 25 18 11 11 57 -14 89
-13 17 -55 63 -92 103 -93 97 -205 220 -229 253 -11 15 -42 53 -70 85 -27 32
-63 73 -78 91 -25 29 -31 32 -52 22 -19 -8 -28 -8 -40 2 -17 14 -20 46 -4 56
6 4 8 20 5 39 -4 22 -2 36 8 44 10 8 13 23 9 45 -5 33 20 106 37 106 11 0 39
-55 56 -112 8 -26 19 -50 24 -53 5 -3 35 -49 66 -103 32 -53 76 -122 99 -152
22 -30 56 -80 75 -110 19 -30 48 -71 64 -91 17 -20 47 -60 66 -88 39 -57 50
-62 50 -27 0 30 -34 91 -73 130 -16 16 -40 54 -53 85 -14 30 -52 88 -84 127
-33 40 -60 78 -60 86 -1 26 -36 88 -73 127 -22 24 -47 66 -60 103 -16 46 -29
66 -48 75 -44 21 -52 37 -44 93 4 27 11 52 16 56 5 3 9 16 9 29 0 13 5 27 10
30 6 3 10 14 10 24 0 10 11 39 25 65 14 26 25 55 25 65 0 10 7 24 15 31 9 7
13 21 9 34 -3 14 1 28 10 35 9 8 16 24 16 38 0 13 6 26 14 29 8 3 12 12 9 20
-3 8 2 25 11 39 9 13 16 35 16 49 0 29 14 41 34 29 29 -17 116 -96 116 -105 0
-30 127 -158 156 -158 11 0 35 -11 54 -25 44 -32 47 -32 42 7 l-5 33 34 -26
c88 -65 106 -77 127 -84 12 -3 22 -10 22 -15 0 -5 14 -7 30 -3 22 4 36 0 50
-12 12 -11 34 -18 55 -17 19 1 37 -3 40 -8 3 -6 13 -10 22 -10 8 0 30 -7 49
-16 19 -9 42 -13 51 -9 16 6 15 9 -9 27 -14 12 -77 43 -139 69 -62 27 -140 62
-173 78 -34 17 -88 37 -121 46 -70 20 -143 51 -162 71 -8 8 -19 14 -25 14 -6
0 -34 24 -62 53 -28 29 -75 70 -103 91 -56 40 -67 68 -33 86 15 8 20 21 20 55
0 36 5 47 27 63 21 15 25 23 17 33 -6 8 -9 31 -7 52 4 31 9 37 28 37 32 0 111
-55 214 -149 47 -43 113 -101 146 -128 33 -28 85 -74 115 -104 30 -30 87 -80
126 -112 39 -31 82 -67 95 -80 52 -49 58 -52 74 -31 31 41 15 68 -75 125 -14
9 -74 65 -135 125 -60 60 -139 131 -175 159 -36 27 -103 81 -150 120 -47 39
-106 86 -132 105 -30 20 -53 46 -60 66 -11 32 -13 33 -30 17 -22 -19 -30 -13
-30 22 0 30 -16 43 -24 21 -9 -24 -24 -19 -24 7 0 28 -6 35 -55 72 -44 32 -92
75 -197 174 -37 36 -87 77 -110 92 -24 14 -71 53 -104 85 -34 33 -96 88 -139
124 -43 36 -112 97 -154 136 -122 115 -134 125 -171 153 -19 14 -62 51 -95 82
-33 31 -80 74 -105 94 -25 20 -92 81 -150 135 -58 54 -140 126 -182 159 -43
34 -87 75 -100 91 -12 17 -34 38 -48 48 -15 9 -69 62 -121 117 -52 55 -132
128 -179 163 -47 35 -110 87 -140 117 -116 112 -163 155 -170 155 -4 0 -10
-12 -13 -26z m273 -271 c14 -9 57 -47 95 -84 39 -37 104 -97 146 -134 65 -56
78 -72 83 -106 4 -23 2 -49 -5 -60 -6 -12 -8 -30 -6 -41 3 -11 -1 -42 -9 -69
-8 -27 -13 -53 -10 -57 2 -4 -2 -32 -10 -62 -8 -30 -14 -69 -14 -87 0 -17 -5
-44 -12 -60 -6 -15 -13 -44 -14 -63 -1 -19 -7 -66 -13 -105 -21 -133 -32 -328
-22 -370 5 -22 9 -49 8 -60 0 -11 3 -35 7 -52 10 -44 -4 -42 -45 5 -146 166
-229 273 -229 295 0 7 -11 24 -24 36 -27 26 -37 65 -40 166 -2 39 -6 91 -10
116 -4 30 -2 62 7 90 14 47 17 113 4 125 -13 13 -8 34 8 34 13 0 15 7 9 38 -4
20 -11 45 -15 54 -7 12 -4 20 8 26 12 7 17 26 19 68 5 125 10 169 18 182 5 8
4 18 -3 25 -17 17 -14 97 4 97 11 0 12 5 5 26 -6 14 -10 30 -10 35 0 15 44 10
70 -8z m552 -508 c68 -64 127 -125 132 -135 5 -12 19 -20 32 -20 23 0 52 -25
314 -270 63 -60 144 -132 180 -162 36 -29 76 -63 90 -74 14 -12 50 -42 80 -66
40 -32 55 -51 55 -69 0 -35 -37 -37 -76 -5 -17 14 -43 29 -57 32 -44 11 -95
40 -127 73 -16 17 -46 41 -65 53 -19 12 -57 41 -85 64 -27 23 -60 45 -72 48
-17 5 -23 15 -23 36 0 18 -9 36 -23 47 -33 27 -58 70 -50 89 5 13 2 15 -16 9
-19 -6 -22 -4 -17 12 3 12 -3 24 -18 35 -21 15 -26 16 -36 3 -10 -12 -8 -22 9
-51 16 -26 19 -40 11 -49 -8 -10 0 -22 31 -49 24 -20 48 -36 54 -36 20 0 48
-43 50 -77 1 -25 -2 -33 -15 -33 -22 0 -110 49 -110 61 0 5 -11 11 -25 15 -36
9 -88 74 -73 91 8 10 8 20 0 36 -6 12 -15 38 -20 57 -9 34 -9 33 -16 -28 -5
-34 -12 -64 -17 -67 -5 -3 -3 -15 4 -26 10 -17 9 -22 -4 -32 -9 -7 -14 -17
-12 -24 2 -6 0 -41 -5 -77 -4 -35 -5 -71 0 -79 5 -9 2 -19 -7 -27 -21 -17 -19
-30 5 -30 28 0 25 -15 -6 -28 -18 -9 -24 -17 -20 -30 4 -10 2 -40 -3 -67 -6
-30 -5 -58 0 -73 7 -18 6 -29 -6 -42 -11 -12 -12 -19 -3 -28 6 -6 11 -34 12
-63 1 -32 6 -54 14 -56 7 -3 12 5 12 21 0 48 38 41 76 -15 10 -16 27 -29 36
-29 28 0 2 46 -65 115 -48 50 -57 64 -52 85 8 32 23 48 33 34 24 -36 51 -62
70 -68 36 -12 26 12 -28 70 -27 29 -50 59 -50 68 0 8 -6 17 -12 19 -9 4 -5 12
12 26 23 19 26 19 38 4 6 -9 12 -25 12 -35 0 -10 6 -18 13 -18 8 0 22 -9 33
-21 24 -26 74 -53 82 -44 4 4 -17 28 -46 54 -28 25 -52 51 -52 57 0 6 -11 28
-25 48 -23 34 -25 66 -3 66 5 0 26 -18 46 -40 37 -39 92 -64 92 -40 0 6 -29
39 -65 73 -36 34 -65 67 -65 74 0 6 -13 26 -29 44 -57 62 6 92 70 33 14 -13
30 -24 36 -24 7 0 14 -8 17 -17 3 -10 31 -40 62 -68 31 -27 63 -63 70 -80 l13
-30 1 27 c0 30 30 88 45 88 11 0 30 -20 135 -147 33 -39 72 -80 88 -91 15 -12
41 -41 57 -66 16 -25 33 -46 37 -46 12 0 10 6 -23 65 -17 30 -28 59 -24 65 12
20 99 -55 118 -103 10 -25 -10 -49 -34 -42 -20 7 -26 -9 -9 -20 20 -12 10 -35
-15 -35 -35 0 -95 40 -173 115 -37 36 -79 67 -95 71 -19 4 -27 10 -23 20 7 18
-21 64 -39 64 -7 0 -15 -7 -19 -15 -7 -19 -46 -19 -72 0 -52 39 -59 1 -9 -54
19 -21 35 -42 35 -46 0 -5 7 -16 16 -26 26 -29 8 -40 -38 -23 -23 8 -48 12
-56 9 -13 -5 -7 -14 61 -86 9 -11 27 -19 40 -20 46 -1 116 -44 167 -102 27
-32 50 -67 50 -78 0 -17 -9 -13 -57 27 -32 25 -62 53 -67 61 -25 44 -73 64
-59 25 9 -24 76 -113 103 -137 12 -11 42 -50 67 -87 24 -38 47 -68 52 -68 16
0 39 36 45 71 4 21 15 48 26 62 11 14 20 34 20 45 0 27 24 71 48 87 11 8 22
31 26 53 3 22 13 45 21 52 8 7 15 25 15 41 0 16 4 29 9 29 5 0 11 18 15 40 3
21 12 43 19 47 8 4 16 16 20 26 11 29 29 20 112 -59 132 -126 344 -314 354
-314 5 0 11 -21 13 -47 4 -40 1 -52 -18 -73 -23 -25 -34 -85 -20 -108 4 -7 -2
-16 -18 -24 -20 -9 -26 -19 -26 -43 0 -41 -18 -92 -34 -98 -7 -3 -16 -28 -20
-56 -5 -37 -13 -55 -32 -70 -18 -14 -27 -34 -34 -78 -5 -32 -16 -62 -23 -68
-8 -5 -16 -30 -20 -53 -3 -26 -15 -54 -28 -68 -15 -16 -24 -40 -27 -71 -2 -26
-8 -55 -13 -65 -5 -9 -11 -32 -13 -52 -3 -19 -11 -48 -19 -63 -8 -16 -18 -77
-22 -141 -6 -96 -10 -114 -26 -123 -17 -9 -19 -6 -19 29 0 27 -8 47 -26 68
-14 16 -57 67 -97 114 -40 46 -88 100 -108 120 -20 19 -68 73 -108 120 -40 47
-85 99 -100 115 -25 27 -28 37 -27 90 0 33 5 66 9 73 5 6 5 16 2 22 -3 5 4 23
16 39 16 22 19 36 14 61 -4 17 -12 33 -18 34 -61 16 -97 22 -102 18 -2 -3 3
-18 13 -34 16 -28 16 -30 0 -42 -22 -16 -23 -42 -3 -50 20 -7 19 -45 -1 -53
-11 -4 -29 7 -54 33 -20 21 -51 50 -67 64 -51 43 -218 242 -262 312 -23 37
-55 78 -71 91 -21 18 -27 30 -23 50 4 19 -4 39 -30 74 -19 26 -38 63 -42 81
-4 18 -20 47 -36 65 -19 20 -29 42 -29 62 0 29 -28 65 -50 65 -5 0 -12 17 -15
38 -4 20 -16 49 -26 64 -28 40 -32 72 -19 168 6 47 15 121 20 165 5 44 13 104
19 134 6 29 11 71 11 92 0 21 7 45 15 53 12 12 13 20 6 35 -8 14 -7 22 5 32
10 8 14 28 13 65 -1 29 3 59 9 67 8 9 10 31 6 61 -7 44 -6 46 19 46 19 0 58
-30 149 -115z m-214 -952 c13 -27 28 -55 33 -63 4 -8 18 -34 30 -58 13 -23 31
-50 41 -59 10 -9 18 -20 18 -25 0 -5 11 -19 23 -31 28 -26 44 -77 24 -77 -7 0
-33 23 -57 51 -101 114 -127 145 -147 174 -21 32 -36 117 -26 155 l6 23 16
-22 c9 -11 27 -42 39 -68z m708 33 c91 -68 244 -222 244 -246 0 -49 -99 -9
-173 71 -31 32 -62 59 -70 59 -25 0 -67 40 -67 65 0 13 -4 27 -10 30 -16 10
-12 65 4 65 8 0 40 -20 72 -44z m2054 -420 c0 -14 9 -40 20 -59 16 -27 18 -40
10 -61 -8 -22 -6 -29 9 -43 11 -9 17 -22 14 -30 -6 -14 2 -35 37 -104 15 -28
16 -39 7 -49 -9 -10 -9 -14 3 -18 8 -3 30 -20 48 -38 59 -59 41 -119 -52 -169
-43 -24 -89 -12 -94 23 -3 20 1 22 46 22 35 0 54 5 66 19 16 18 16 22 2 50
-20 38 -46 52 -89 49 -52 -3 -79 24 -36 37 17 6 18 9 8 22 -7 8 -15 47 -16 86
-4 79 -4 77 -3 143 1 25 -1 68 -5 95 -6 41 -4 49 9 49 10 0 16 -9 16 -24z"/>
<path d="M3460 7122 c0 -5 6 -16 13 -26 13 -18 14 -18 20 -2 4 10 5 22 1 27
-7 11 -34 12 -34 1z"/>
<path d="M3500 7017 c0 -13 7 -32 15 -43 8 -10 15 -31 15 -45 0 -14 18 -51 41
-82 22 -32 42 -67 44 -79 5 -24 55 -99 92 -137 23 -23 23 -23 23 -2 0 11 -4
21 -10 21 -5 0 -10 9 -10 20 0 11 -11 43 -24 70 -14 28 -27 63 -31 78 -3 16
-26 47 -50 71 -36 35 -45 50 -45 78 0 24 -7 41 -22 54 -30 24 -38 24 -38 -4z"/>
<path d="M3560 6049 c0 -8 14 -22 31 -31 33 -19 69 -24 69 -9 0 13 -29 41 -43
41 -7 0 -22 3 -34 6 -16 4 -23 2 -23 -7z"/>
<path d="M4101 6521 c-21 -13 61 -65 89 -56 12 4 19 12 16 18 -3 7 -9 20 -12
30 -7 19 -67 24 -93 8z"/>
<path d="M3985 6510 c-3 -5 -33 -10 -66 -10 -32 0 -59 -3 -59 -8 0 -25 108
-88 124 -72 6 6 23 10 38 10 16 0 30 6 32 13 2 6 8 27 14 45 l10 32 -43 0
c-24 0 -47 -4 -50 -10z"/>
<path d="M4988 5765 c-8 -8 9 -78 42 -172 34 -96 62 -155 97 -201 15 -20 26
-49 27 -71 1 -25 11 -50 29 -70 15 -18 27 -36 27 -39 0 -15 68 -82 83 -82 20
0 14 19 -21 70 -18 26 -22 43 -17 67 3 18 2 33 -2 33 -18 0 -55 69 -48 90 5
17 -5 34 -49 80 -55 57 -67 85 -45 107 7 7 2 17 -18 33 -36 28 -52 57 -53 95
-1 43 -32 79 -52 60z"/>
<path d="M4260 5683 c0 -3 18 -30 40 -59 22 -29 40 -60 40 -68 0 -7 7 -16 15
-20 8 -3 15 -17 15 -31 0 -21 -5 -25 -30 -25 -16 0 -30 -1 -30 -2 0 -2 11 -25
25 -52 14 -27 25 -55 25 -63 0 -7 7 -13 15 -13 8 0 15 6 15 14 0 7 7 19 15 26
15 13 42 -2 107 -62 16 -16 33 -28 38 -28 8 0 20 -34 20 -59 0 -22 -52 -4 -77
27 -12 14 -25 23 -29 19 -11 -11 15 -54 66 -111 25 -28 54 -63 63 -78 10 -16
22 -28 27 -28 15 0 80 142 80 173 0 23 -4 27 -30 27 -48 0 -110 29 -110 52 0
33 -18 55 -57 72 -53 22 -73 40 -73 64 0 11 -13 34 -30 50 -33 34 -39 76 -15
108 18 24 19 34 1 34 -8 0 -33 9 -57 20 -45 20 -69 25 -69 13z"/>
<path d="M4113 5495 c6 -39 43 -105 58 -105 5 0 9 14 9 30 0 39 25 50 51 21
26 -28 31 -27 17 4 -6 14 -16 25 -22 25 -5 0 -21 11 -35 24 -15 13 -39 26 -55
30 -28 7 -29 7 -23 -29z"/>
<path d="M4260 5386 c0 -14 5 -28 10 -31 6 -3 10 -15 10 -26 0 -23 15 -25 24
-3 12 30 6 52 -19 68 -24 16 -25 16 -25 -8z"/>
<path d="M4180 5333 c1 -26 66 -112 95 -125 17 -8 25 -19 25 -37 0 -15 11 -38
25 -53 14 -15 25 -29 25 -32 0 -7 69 -76 75 -76 3 0 5 7 5 15 0 8 -4 15 -10
15 -5 0 -10 6 -10 14 0 9 8 12 24 9 32 -6 40 11 20 42 -20 30 -50 33 -59 4 -7
-21 -7 -21 -28 2 -14 15 -17 24 -9 27 17 5 15 57 -3 72 -9 7 -13 20 -10 29 4
12 -3 16 -32 18 -67 3 -86 12 -80 35 4 14 -1 27 -16 39 -28 23 -37 24 -37 2z"/>
<path d="M4880 5264 c0 -9 44 -54 53 -54 4 0 7 7 7 15 0 8 -6 15 -14 15 -8 0
-16 7 -20 15 -5 14 -26 21 -26 9z"/>
<path d="M4852 5108 c3 -7 13 -15 22 -16 12 -3 17 1 14 10 -3 7 -13 15 -22 16
-12 3 -17 -1 -14 -10z"/>
<path d="M4944 4848 c-8 -13 39 -58 62 -58 18 0 18 5 -3 31 -26 30 -50 41 -59
27z"/>
<path d="M4740 4660 c0 -5 4 -10 9 -10 6 0 25 -13 43 -30 18 -16 37 -30 43
-30 6 0 33 -15 60 -33 71 -47 114 -67 147 -67 34 0 35 4 3 46 -18 24 -37 35
-73 43 -26 5 -68 21 -93 35 -24 14 -51 26 -60 26 -9 0 -22 7 -29 15 -14 17
-50 20 -50 5z"/>
<path d="M3444 7388 c-9 -14 31 -48 57 -48 22 0 23 1 7 35 -12 26 -51 35 -64
13z"/>
<path d="M4760 7330 c0 -13 28 -25 38 -16 3 4 0 11 -8 16 -20 13 -30 12 -30 0z"/>
<path d="M5856 7311 c-7 -11 8 -46 32 -73 8 -10 29 -18 46 -18 37 0 141 35
141 46 0 11 -33 20 -115 32 -36 6 -72 13 -81 17 -10 3 -20 2 -23 -4z"/>
<path d="M5510 7300 c-16 -10 2 -19 76 -38 21 -6 59 -16 83 -22 36 -10 46 -9
58 3 11 11 12 19 2 40 -12 27 -14 27 -108 27 -53 0 -103 -4 -111 -10z"/>
<path d="M6800 7304 c0 -4 8 -12 17 -19 15 -11 14 -17 -15 -64 -18 -28 -32
-53 -32 -55 0 -6 79 -36 96 -36 9 0 25 11 36 25 23 30 51 32 100 6 36 -18 36
-19 22 -46 -20 -39 -18 -43 22 -60 20 -8 49 -26 66 -40 31 -26 62 -32 73 -15
8 12 75 13 75 1 0 -5 -10 -15 -22 -23 l-22 -15 29 -24 c16 -13 41 -37 56 -52
32 -34 38 -27 46 48 7 62 -3 80 -48 90 -17 4 -33 13 -36 21 -3 8 -29 26 -57
41 -28 14 -65 36 -83 49 -17 13 -37 24 -43 24 -6 0 -36 17 -67 38 -69 46 -68
46 -128 73 -27 12 -58 26 -67 31 -10 5 -18 6 -18 2z"/>
<path d="M5221 7235 c-18 -8 -42 -15 -53 -15 -20 0 -98 -36 -98 -46 0 -11 87
-42 136 -49 l51 -6 16 43 c33 85 19 103 -52 73z"/>
<path d="M5520 7219 c0 -23 104 -89 140 -89 26 0 81 31 77 43 -2 6 -35 16 -73
23 -38 7 -85 17 -104 23 -43 13 -40 13 -40 0z"/>
<path d="M6095 7206 c-32 -13 -60 -27 -62 -32 -5 -16 38 -35 88 -40 45 -4 49
-2 55 20 7 31 2 69 -11 72 -5 1 -37 -8 -70 -20z"/>
<path d="M6410 7219 c0 -13 15 -26 125 -110 l40 -31 22 27 c13 14 23 30 23 35
0 13 -54 40 -78 40 -11 0 -31 9 -45 20 -33 26 -87 38 -87 19z"/>
<path d="M5370 7161 c-24 -53 -21 -71 13 -71 34 0 97 20 97 30 0 12 -69 90
-79 90 -4 0 -18 -22 -31 -49z"/>
<path d="M7834 7197 c-16 -4 -130 -7 -254 -5 l-225 3 -3 -27 c-4 -36 22 -43
90 -24 29 8 98 15 153 16 55 0 110 4 123 7 24 6 82 -14 82 -28 0 -15 57 -10
70 6 15 19 70 20 95 2 27 -20 10 -37 -39 -37 -23 0 -51 -7 -62 -15 -21 -16
-94 -20 -94 -5 0 6 5 10 10 10 6 0 10 8 10 18 -1 16 -2 16 -15 -2 -17 -22 -90
-34 -268 -42 -70 -4 -130 -10 -132 -14 -3 -5 -2 -16 2 -25 5 -15 16 -17 82
-11 42 3 145 11 228 16 84 5 161 13 171 19 10 5 47 12 82 16 94 9 165 33 202
67 l32 30 -24 19 c-22 17 -40 19 -156 16 -72 -1 -144 -6 -160 -10z"/>
<path d="M6296 7174 c-11 -30 -6 -72 10 -78 25 -10 92 -7 99 4 7 12 -72 89
-91 90 -7 0 -15 -7 -18 -16z"/>
<path d="M5832 7159 c-23 -9 -29 -24 -12 -34 18 -11 200 -15 200 -4 0 26 -143
55 -188 38z"/>
<path d="M4928 7092 c-45 -33 -66 -68 -51 -83 18 -18 213 28 213 50 0 5 -20
17 -45 27 -25 9 -45 21 -45 25 0 17 -36 8 -72 -19z"/>
<path d="M6701 7089 c-12 -17 -20 -36 -18 -44 11 -27 237 -49 237 -22 0 11
-72 47 -94 47 -5 0 -24 11 -42 25 -42 32 -55 32 -83 -6z"/>
<path d="M5790 7089 c0 -6 9 -13 19 -16 11 -3 22 -11 25 -19 3 -8 12 -14 20
-14 8 0 26 -14 40 -31 16 -19 26 -25 26 -16 0 24 -49 77 -71 77 -10 0 -19 7
-19 15 0 8 -9 15 -20 15 -11 0 -20 -5 -20 -11z"/>
<path d="M6381 7071 c-12 -7 -6 -15 24 -33 72 -42 185 -72 185 -50 0 17 -47
49 -103 70 -64 24 -85 26 -106 13z"/>
<path d="M5448 7049 c-37 -19 -50 -50 -28 -64 20 -13 170 54 170 76 0 17 -104
9 -142 -12z"/>
<path d="M6206 7023 c-3 -10 -10 -37 -16 -60 -12 -46 -36 -57 -60 -28 -7 8
-26 15 -44 15 -17 0 -58 2 -91 4 -57 4 -61 3 -86 -27 -24 -28 -28 -30 -55 -20
-16 6 -52 14 -81 17 -29 3 -66 12 -83 21 -32 16 -51 15 -212 -13 -37 -7 -60
-5 -100 10 -62 21 -68 20 -57 -9 13 -37 68 -65 109 -57 91 16 236 15 314 -2
76 -18 79 -20 112 -68 18 -27 31 -53 28 -58 -3 -4 -30 -8 -61 -8 -63 0 -101
-15 -192 -77 -69 -47 -108 -53 -201 -32 -25 6 -57 13 -71 16 -14 2 -45 22 -69
44 -49 45 -60 48 -53 17 7 -27 52 -78 68 -78 6 0 22 -11 34 -24 27 -29 102
-63 168 -76 27 -6 60 -13 76 -16 24 -6 29 -2 41 27 19 45 68 90 141 129 94 51
110 53 164 25 54 -29 67 -31 75 -9 12 30 6 42 -24 49 -58 13 -60 72 -3 111 23
15 43 18 112 16 134 -5 196 -23 248 -74 35 -34 43 -49 43 -79 0 -42 -18 -62
-53 -57 -13 1 -32 -3 -41 -11 -14 -12 -30 -9 -117 24 -74 27 -107 35 -121 28
-19 -8 -18 -10 14 -35 18 -14 42 -27 53 -29 27 -6 31 -63 10 -137 -22 -77 -39
-100 -88 -123 -52 -23 -131 -24 -229 -3 -40 9 -78 17 -83 18 -14 2 -87 57
-101 76 -10 12 -14 12 -28 1 -25 -21 -19 -39 22 -76 50 -47 188 -105 276 -116
39 -6 84 -14 100 -19 22 -8 33 -7 45 4 16 14 52 23 129 33 39 5 48 2 75 -25
18 -16 48 -36 67 -44 19 -9 49 -21 65 -28 27 -11 126 -33 211 -47 47 -7 153
34 160 62 6 25 -12 105 -24 105 -5 0 -23 -11 -42 -25 -84 -62 -181 -69 -319
-25 -130 41 -151 69 -151 202 0 37 -5 79 -10 93 -13 34 4 70 28 59 31 -13 154
-26 188 -19 24 4 38 14 44 29 5 13 15 26 24 29 8 3 19 15 25 25 9 17 5 24 -28
47 -46 31 -54 53 -35 91 18 34 18 50 2 36 -25 -20 -53 -18 -86 5 -17 13 -37
21 -43 18 -5 -4 -23 -1 -40 5 -27 12 -29 16 -29 67 0 74 -29 125 -44 76z"/>
<path d="M5118 6991 c-37 -9 -71 -20 -75 -24 -13 -14 17 -30 69 -38 29 -4 63
-11 75 -14 18 -6 23 -2 32 32 20 72 15 75 -101 44z"/>
<path d="M3938 6988 c-31 -11 -36 -23 -12 -32 27 -10 52 -7 57 8 9 23 -14 35
-45 24z"/>
<path d="M6760 6962 c0 -17 60 -62 83 -62 12 0 35 9 51 20 l30 19 -25 10 c-41
15 -139 25 -139 13z"/>
<path d="M6549 6935 c-14 -8 -34 -26 -44 -41 -17 -26 -17 -27 1 -19 34 14 128
26 154 20 14 -4 37 -18 53 -33 25 -24 27 -24 27 -6 0 29 -51 74 -96 85 -52 11
-64 11 -95 -6z"/>
<path d="M3983 6912 c-9 -6 2 -22 36 -56 l49 -48 138 -4 c165 -5 244 -10 383
-26 97 -10 105 -10 118 7 14 20 18 67 6 78 -4 4 -18 -4 -32 -17 -26 -25 -26
-25 -96 -10 -38 8 -83 17 -100 19 -113 17 -192 26 -275 31 -52 3 -109 12 -127
20 -34 15 -81 18 -100 6z"/>
<path d="M4802 6885 c-7 -14 -12 -46 -12 -71 0 -77 34 -111 58 -59 6 14 16 25
22 25 19 0 75 -27 99 -49 26 -22 56 -28 66 -11 13 22 -8 47 -68 82 -34 21 -78
53 -97 73 -40 42 -53 44 -68 10z"/>
<path d="M4985 6891 c-8 -14 123 -133 142 -129 10 2 20 17 25 38 10 46 4 60
-25 60 -13 0 -49 9 -80 19 -31 11 -59 16 -62 12z"/>
<path d="M7015 6886 c-11 -7 -32 -16 -47 -20 -49 -12 -28 -50 45 -81 34 -14
37 -14 47 4 18 34 8 111 -14 111 -6 0 -20 -6 -31 -14z"/>
<path d="M7167 6893 c-2 -5 -2 -41 1 -82 l4 -73 37 6 c27 4 49 0 76 -14 30
-15 41 -17 47 -7 19 30 3 57 -59 98 -12 8 -39 29 -61 47 -22 18 -42 29 -45 25z"/>
<path d="M6786 6841 c-6 -10 11 -27 81 -81 57 -43 73 -49 73 -24 0 39 -37 78
-95 101 -37 14 -52 15 -59 4z"/>
<path d="M5346 6808 c-23 -32 -20 -53 10 -73 29 -19 44 -9 44 28 0 9 11 23 25
29 19 9 22 14 14 25 -19 22 -76 16 -93 -9z"/>
<path d="M3255 6800 c-8 -25 13 -56 28 -41 11 11 1 61 -13 61 -5 0 -12 -9 -15
-20z"/>
<path d="M1980 6754 c0 -9 5 -14 12 -12 18 6 21 28 4 28 -9 0 -16 -7 -16 -16z"/>
<path d="M7890 6760 c-19 -5 -89 -10 -155 -11 -66 -1 -111 -4 -100 -6 22 -5
45 -30 45 -50 0 -20 -54 -43 -101 -43 -45 0 -159 -26 -173 -40 -27 -26 122
-23 273 6 41 8 76 12 79 10 8 -9 82 36 93 56 6 11 31 28 57 39 39 17 65 20
152 18 158 -4 200 -20 206 -75 4 -39 16 -45 48 -29 16 8 36 15 45 15 28 0 61
30 61 55 0 47 -38 55 -277 60 -122 2 -233 0 -253 -5z"/>
<path d="M7445 6750 c3 -5 15 -10 26 -10 10 0 19 5 19 10 0 6 -12 10 -26 10
-14 0 -23 -4 -19 -10z"/>
<path d="M290 6732 c-5 -2 -10 -12 -10 -22 0 -13 10 -19 42 -23 44 -6 60 4 55
33 -2 14 -58 21 -87 12z"/>
<path d="M6682 6728 c3 -7 24 -14 49 -16 52 -3 139 -43 203 -94 28 -22 77 -44
122 -55 40 -9 73 74 42 105 -16 16 -49 15 -72 -3 -31 -23 -87 -19 -113 9 -13
13 -39 27 -58 30 -19 4 -47 13 -62 21 -35 19 -116 20 -111 3z"/>
<path d="M4732 6694 l-12 -26 -123 6 c-201 11 -355 12 -364 3 -4 -5 6 -20 22
-33 17 -14 45 -38 64 -55 19 -17 41 -27 50 -25 70 21 194 33 389 36 38 0 39 9
9 73 l-24 48 -11 -27z"/>
<path d="M1980 6675 c-10 -12 -10 -15 4 -15 9 0 16 7 16 15 0 8 -2 15 -4 15
-2 0 -9 -7 -16 -15z"/>
<path d="M7278 6683 c-36 -6 -35 -15 7 -55 43 -40 59 -42 63 -6 4 32 -13 69
-31 67 -7 -1 -24 -4 -39 -6z"/>
<path d="M465 6673 c-34 -9 -37 -20 -8 -31 18 -7 167 -12 431 -14 377 -3 402
-2 402 15 0 15 -12 17 -97 19 -54 1 -118 3 -143 5 -91 6 -566 11 -585 6z"/>
<path d="M1726 6653 c19 -14 19 -14 0 -29 -32 -23 -10 -29 64 -16 52 9 83 9
120 1 61 -13 72 -7 39 20 -18 15 -40 21 -84 21 -33 1 -82 5 -109 9 -44 8 -48
7 -30 -6z"/>
<path d="M2513 6659 c-6 -6 -47 -9 -107 -7 -54 2 -96 -1 -96 -6 0 -5 -7 -18
-17 -28 -15 -17 -15 -18 8 -18 13 0 44 5 68 11 30 6 68 6 119 -1 77 -10 101
-6 69 11 -12 7 -16 17 -12 30 7 21 -13 27 -32 8z"/>
<path d="M5045 6649 c-27 -5 -80 -7 -117 -3 -80 7 -84 1 -37 -69 l31 -47 62 0
c75 0 101 21 112 88 4 23 5 41 3 41 -2 -1 -26 -5 -54 -10z"/>
<path d="M2083 6625 c-8 -24 3 -29 35 -16 20 8 36 9 55 2 32 -12 47 3 18 18
-31 17 -101 14 -108 -4z"/>
<path d="M335 6620 c-11 -5 -28 -11 -39 -14 -17 -6 -18 -8 -2 -24 14 -17 16
-268 16 -3063 0 -1790 4 -3060 10 -3083 11 -49 67 -103 113 -110 17 -3 221 -8
452 -11 231 -3 429 -7 440 -7 11 -1 72 2 135 6 102 6 788 12 1115 9 333 -3
1093 5 1117 11 14 4 51 3 80 -3 59 -13 82 -13 643 -9 215 2 419 3 455 2 66 -1
462 -3 670 -3 63 0 486 0 940 1 454 1 1041 1 1305 0 753 -4 779 -4 801 12 14
11 16 17 7 26 -9 10 -972 12 -4115 12 l-4103 0 0 3126 c0 2075 -3 3126 -10
3128 -5 1 -19 -1 -30 -6z"/>
<path d="M1360 6618 c-30 -11 -40 -25 -40 -58 0 -25 16 -50 32 -50 4 0 8 18 8
40 0 26 6 42 16 48 26 15 13 31 -16 20z"/>
<path d="M5185 6554 c-46 -91 -41 -103 36 -80 29 9 65 16 81 16 21 0 28 5 28
20 0 11 -4 20 -10 20 -15 0 -80 61 -80 75 0 36 -21 17 -55 -51z"/>
<path d="M6520 6591 c0 -12 28 -41 40 -41 4 0 44 -46 89 -103 l82 -103 91 -28
c76 -24 103 -28 162 -24 96 7 156 32 156 65 0 13 -5 33 -10 44 -11 20 -45 26
-55 9 -15 -24 -86 -50 -138 -50 -96 0 -183 45 -229 119 -41 65 -188 152 -188
112z"/>
<path d="M7190 6565 c0 -32 3 -35 38 -40 20 -3 52 -13 70 -21 28 -12 33 -12
38 0 8 20 -13 56 -32 56 -9 0 -27 9 -41 20 -14 11 -36 20 -49 20 -21 0 -24 -5
-24 -35z"/>
<path d="M2027 6570 c-20 -24 -22 -41 -5 -58 20 -20 30 -13 23 17 -3 17 -2 32
4 36 13 7 15 25 3 25 -4 0 -15 -9 -25 -20z"/>
<path d="M2228 6584 c-4 -3 -4 -12 -1 -20 3 -8 0 -28 -7 -44 -9 -22 -22 -33
-51 -40 -48 -13 -51 -30 -6 -30 40 0 75 23 79 53 4 27 22 25 26 -3 2 -12 14
-22 30 -26 15 -4 33 -11 39 -17 17 -13 132 -21 177 -13 70 13 36 26 -68 26
-101 0 -105 1 -135 29 -17 16 -31 36 -31 45 0 9 -7 16 -15 16 -7 0 -18 7 -23
15 -4 9 -11 13 -14 9z"/>
<path d="M1660 6551 c0 -23 29 -36 44 -21 8 8 6 15 -8 26 -27 19 -36 18 -36
-5z"/>
<path d="M6872 6526 c-23 -22 -42 -44 -42 -48 0 -21 36 -38 81 -38 59 0 89 13
89 40 0 22 -57 91 -74 89 -6 -1 -30 -20 -54 -43z"/>
<path d="M2580 6530 c0 -11 5 -20 10 -20 6 0 10 9 10 20 0 11 -4 20 -10 20 -5
0 -10 -9 -10 -20z"/>
<path d="M5697 6543 c-15 -14 -6 -43 19 -62 36 -28 94 -43 189 -47 75 -3 79
-3 60 12 -30 24 -81 44 -113 44 -16 0 -35 7 -42 16 -14 16 -74 44 -95 44 -6 0
-15 -3 -18 -7z"/>
<path d="M4795 6509 c-22 -4 -91 -8 -154 -8 -97 -1 -118 -4 -148 -22 l-34 -21
38 -34 c38 -34 69 -41 101 -25 22 11 87 27 192 47 94 18 109 26 91 47 -16 20
-39 24 -86 16z"/>
<path d="M1610 6480 c-12 -8 -11 -10 8 -10 12 0 22 5 22 10 0 13 -11 13 -30 0z"/>
<path d="M509 6469 c-31 -12 -45 -47 -22 -56 8 -3 27 -6 42 -5 142 4 707 1
726 -4 24 -6 25 -4 25 36 0 28 -4 39 -11 34 -12 -7 -213 -7 -544 1 -114 2
-201 0 -216 -6z"/>
<path d="M1409 6459 c-8 -5 -9 -15 -2 -35 l10 -29 102 -3 c80 -2 102 0 99 10
-3 7 -29 16 -58 21 -29 4 -58 13 -64 21 -13 16 -70 26 -87 15z m69 -36 c-10
-2 -26 -2 -35 0 -10 3 -2 5 17 5 19 0 27 -2 18 -5z"/>
<path d="M4912 6459 c2 -7 10 -15 17 -17 8 -3 12 1 9 9 -2 7 -10 15 -17 17 -8
3 -12 -1 -9 -9z"/>
<path d="M7195 6461 c-9 -16 3 -67 20 -81 10 -8 32 -10 65 -5 40 5 53 12 59
29 13 33 3 44 -47 49 -26 2 -57 8 -68 12 -13 4 -25 2 -29 -4z"/>
<path d="M1773 6446 c4 -12 86 -16 102 -5 6 4 26 9 45 12 19 2 -7 4 -58 4 -61
-1 -91 -4 -89 -11z"/>
<path d="M5400 6431 c-8 -5 -36 -12 -62 -15 -55 -8 -63 -23 -15 -30 17 -3 48
-8 67 -11 19 -3 54 -8 77 -11 l42 -7 -20 42 c-16 33 -25 41 -47 41 -15 0 -34
-4 -42 -9z"/>
<path d="M1827 6413 c-11 -3 -27 -13 -36 -22 -17 -17 -17 -18 8 -17 14 0 54
-4 89 -8 55 -7 62 -6 62 9 0 14 -6 17 -33 12 -26 -4 -36 -1 -45 14 -13 20 -14
20 -45 12z"/>
<path d="M2237 6403 c-10 -9 -9 -43 2 -43 13 0 23 32 13 42 -5 5 -11 5 -15 1z"/>
<path d="M8125 6389 c-22 -4 -92 -11 -155 -14 -63 -4 -131 -10 -150 -15 -19
-5 -101 -11 -183 -15 -81 -4 -150 -11 -153 -16 -3 -5 -16 -9 -30 -9 -15 0 -23
-4 -19 -11 4 -6 12 -8 19 -6 6 2 38 0 71 -5 121 -18 582 -4 647 21 26 10 42
36 32 52 -11 19 -40 25 -79 18z"/>
<path d="M6328 6383 c-42 -11 -8 -37 77 -59 60 -17 117 -18 168 -3 31 8 38 14
35 32 -3 21 -8 22 -113 22 -60 1 -119 3 -130 7 -11 3 -28 3 -37 1z"/>
<path d="M1643 6363 c9 -9 19 -14 23 -11 10 10 -6 28 -24 28 -15 0 -15 -1 1
-17z"/>
<path d="M2300 6354 c0 -10 7 -14 22 -12 32 5 35 28 4 28 -17 0 -26 -5 -26
-16z"/>
<path d="M5151 6351 c-8 -14 -5 -22 12 -38 36 -32 141 -76 268 -113 72 -21 78
-21 108 -6 38 20 62 63 42 75 -7 5 -43 11 -79 14 -77 7 -274 53 -314 73 -25
13 -28 12 -37 -5z"/>
<path d="M1325 6348 c-3 -8 -1 -27 5 -43 13 -35 33 -21 28 21 -3 30 -25 44
-33 22z"/>
<path d="M4965 6335 c-27 -12 -110 -35 -175 -50 -67 -14 -87 -68 -31 -81 32
-8 59 -31 77 -66 18 -35 33 -35 85 -3 22 14 76 45 121 68 44 23 81 47 81 52 0
6 -16 18 -36 28 -27 14 -37 25 -37 43 0 20 -5 24 -27 23 -16 0 -41 -6 -58 -14z
m65 -64 c0 -19 -131 -81 -171 -81 -51 0 -32 18 44 41 39 13 79 29 87 36 17 15
40 17 40 4z"/>
<path d="M7317 6343 c-13 -12 -7 -53 7 -53 20 0 29 16 21 40 -6 20 -17 25 -28
13z"/>
<path d="M2095 6286 c-18 -13 -18 -14 3 -25 21 -11 22 -18 22 -137 0 -102 -3
-126 -15 -130 -8 -4 -15 -12 -15 -19 0 -12 94 -25 120 -17 16 6 11 30 -7 41
-16 8 -18 26 -18 143 0 73 -4 139 -8 146 -11 16 -58 15 -82 -2z"/>
<path d="M1135 6259 c-4 -6 2 -19 12 -28 16 -15 20 -35 22 -119 2 -99 2 -101
-24 -118 -45 -29 -13 -39 115 -36 l112 3 11 30 c6 16 15 29 20 29 5 0 23 -16
41 -35 70 -74 166 -24 166 86 0 69 -48 129 -103 129 -43 0 -99 -54 -107 -102
-3 -19 -11 -32 -18 -30 -7 1 -18 3 -24 5 -7 1 -14 -8 -16 -21 -4 -27 -34 -44
-70 -40 l-27 3 1 99 c1 79 5 102 18 111 20 15 21 31 0 39 -26 10 -122 7 -129
-5z m396 -119 c38 -21 20 -150 -21 -150 -5 0 -18 12 -29 26 -29 37 -28 98 1
118 27 19 24 19 49 6z"/>
<path d="M2410 6263 c-50 -18 -65 -67 -31 -97 24 -22 39 -14 57 30 22 52 74
41 74 -16 0 -19 -20 -46 -75 -100 -104 -104 -101 -114 31 -118 111 -3 119 1
130 56 6 29 4 32 -19 32 -13 0 -31 -9 -38 -20 -16 -22 -79 -40 -79 -21 0 6 25
38 55 71 30 32 57 71 61 86 9 34 -12 74 -46 91 -25 13 -92 16 -120 6z"/>
<path d="M2675 6261 c-40 -8 -55 -49 -31 -86 21 -32 38 -28 50 13 13 48 67 55
81 11 8 -23 -20 -65 -92 -140 -80 -83 -74 -93 55 -97 102 -3 102 -3 112 23 6
15 10 35 10 46 0 26 -37 25 -58 -1 -18 -21 -82 -39 -82 -24 0 5 25 35 56 67
82 87 90 124 36 174 -26 24 -70 28 -137 14z"/>
<path d="M7250 6236 c0 -47 31 -180 44 -188 20 -13 27 -9 42 27 21 51 18 121
-6 145 -11 11 -26 20 -34 20 -8 0 -16 7 -20 15 -10 27 -26 16 -26 -19z"/>
<path d="M7090 6250 c-8 -4 -28 -13 -43 -19 -24 -9 -26 -14 -17 -32 10 -19 95
-79 111 -79 13 0 18 29 12 84 -5 49 -9 56 -27 55 -12 0 -28 -4 -36 -9z"/>
<path d="M896 6213 c-4 -4 -105 -10 -224 -13 -137 -3 -216 -9 -214 -15 3 -12
553 -14 595 -2 16 4 27 13 24 20 -4 14 -168 23 -181 10z"/>
<path d="M5886 6206 c9 -24 121 -116 141 -116 29 0 63 29 63 54 0 24 -4 26
-129 61 -68 19 -82 19 -75 1z"/>
<path d="M7430 6211 c-24 -17 -3 -25 93 -37 51 -7 123 -17 161 -23 76 -13 100
-5 80 27 -11 18 -46 23 -229 37 -55 4 -96 2 -105 -4z"/>
<path d="M5695 6163 c-22 -25 -44 -52 -48 -60 -11 -18 32 -34 116 -43 55 -6
75 -13 107 -39 21 -17 45 -31 53 -31 8 0 20 -7 27 -15 16 -20 60 -20 60 0 0 9
-21 30 -47 48 -26 17 -84 67 -130 110 -45 42 -85 77 -90 77 -4 -1 -26 -21 -48
-47z"/>
<path d="M1688 6177 c-36 -31 -48 -58 -48 -112 0 -40 5 -52 34 -81 40 -40 80
-44 120 -13 42 33 35 52 -17 44 -57 -9 -80 14 -75 76 3 50 26 63 59 33 15 -14
24 -16 37 -8 26 17 27 45 1 65 -33 25 -79 24 -111 -4z"/>
<path d="M1887 6181 c-39 -25 -40 -27 -27 -50 14 -27 46 -27 53 -1 7 25 43 26
56 2 6 -10 7 -28 4 -40 -4 -17 -13 -22 -39 -22 -81 0 -113 -55 -58 -99 34 -26
48 -26 73 0 l20 21 25 -20 c32 -25 66 -19 66 12 0 12 -6 28 -12 34 -8 8 -12
35 -10 76 3 59 2 65 -24 85 -33 26 -88 27 -127 2z m81 -147 c3 -27 -12 -46
-31 -38 -20 7 -22 35 -5 52 16 16 32 10 36 -14z"/>
<path d="M5130 6107 c-83 -41 -145 -78 -145 -86 0 -8 8 -19 17 -24 19 -12 12
-15 161 57 54 26 102 45 105 41 9 -9 -74 -80 -115 -100 -18 -9 -35 -20 -38
-25 -4 -7 -13 -6 -26 1 -37 19 -40 4 -7 -39 37 -48 55 -52 85 -19 21 23 144
134 201 182 35 29 34 45 -2 45 -13 0 -31 9 -41 20 -10 11 -25 20 -34 20 -9 0
-81 -33 -161 -73z"/>
<path d="M6220 6159 c-6 -11 -9 -28 -7 -37 4 -16 5 -16 6 1 2 28 70 23 103 -7
14 -14 28 -30 29 -35 2 -6 14 -8 26 -5 39 11 34 64 -6 64 -9 0 -29 9 -46 20
-40 27 -91 26 -105 -1z"/>
<path d="M6835 6171 c-11 -5 -28 -18 -39 -29 -18 -21 -18 -21 10 -27 16 -4 52
-13 81 -21 28 -8 68 -14 88 -14 33 0 36 2 24 16 -19 23 -114 84 -130 83 -8 0
-23 -4 -34 -8z"/>
<path d="M6506 6075 c-15 -8 -38 -15 -50 -15 -12 0 -27 -5 -34 -12 -6 -6 -44
-25 -84 -43 -78 -33 -92 -53 -62 -86 25 -28 48 -24 59 12 6 17 21 37 35 44 83
42 121 55 169 55 51 0 52 1 49 28 -4 33 -38 40 -82 17z"/>
<path d="M6207 6074 c-4 -4 -7 -16 -7 -26 0 -19 -34 -26 -45 -8 -7 12 -52 13
-59 2 -7 -11 48 -52 69 -52 9 0 29 7 46 15 23 12 27 19 21 33 -5 9 -11 23 -13
30 -3 7 -8 10 -12 6z"/>
<path d="M6736 6072 c-6 -10 21 -49 67 -97 15 -17 27 -33 27 -37 0 -4 11 -15
25 -24 31 -20 65 -11 58 16 -7 27 32 35 87 16 80 -26 135 -25 151 5 6 12 7 25
2 29 -4 5 -58 15 -118 24 -93 12 -200 40 -276 71 -10 3 -20 2 -23 -3z"/>
<path d="M7160 6062 c0 -12 23 -32 37 -32 7 0 13 9 13 20 0 15 -7 20 -25 20
-14 0 -25 -4 -25 -8z"/>
<path d="M2925 6030 c-11 -12 -14 -26 -10 -40 4 -13 2 -33 -5 -46 -14 -24 -8
-54 11 -54 6 0 24 14 40 31 37 39 39 86 5 111 -22 16 -25 16 -41 -2z"/>
<path d="M5515 5992 c-34 -31 -85 -77 -114 -102 -84 -70 -131 -117 -131 -128
0 -14 8 -18 48 -27 24 -5 32 -3 32 8 0 19 109 130 186 189 52 40 64 45 74 33
9 -11 5 -26 -20 -72 -17 -31 -40 -63 -51 -71 -10 -7 -22 -31 -25 -52 -4 -21
-17 -49 -30 -61 -21 -19 -27 -20 -53 -9 -28 11 -51 8 -51 -8 0 -4 22 -31 48
-59 51 -54 63 -56 86 -12 51 95 95 174 133 236 23 39 43 75 43 79 0 4 7 15 15
24 28 31 -1 59 -61 60 -12 0 -27 7 -34 15 -20 24 -31 19 -95 -43z"/>
<path d="M7299 5997 c-8 -17 -28 -38 -42 -45 -15 -7 -27 -18 -27 -25 1 -18 98
-99 110 -92 14 8 12 35 -3 65 -10 17 -11 33 -4 53 9 28 3 77 -11 77 -4 0 -14
-15 -23 -33z"/>
<path d="M3195 5977 c-4 -10 -5 -21 -1 -24 10 -10 18 4 13 24 -4 17 -4 17 -12
0z"/>
<path d="M5861 5914 c-12 -19 -21 -41 -21 -49 0 -8 -4 -16 -9 -19 -5 -4 -19
-27 -31 -54 -42 -92 -45 -97 -71 -95 -13 1 -39 -3 -56 -9 -50 -15 -45 -48 12
-77 25 -12 45 -26 45 -31 0 -24 -15 -40 -39 -40 -14 0 -39 -7 -55 -15 -15 -8
-35 -15 -42 -15 -8 0 -14 -7 -14 -15 0 -8 7 -15 16 -15 9 0 27 -9 41 -20 31
-24 71 -26 88 -4 10 14 15 14 34 4 13 -6 32 -9 44 -6 44 11 103 -45 62 -60 -8
-4 -15 -13 -15 -21 0 -8 -8 -28 -17 -44 -16 -28 -16 -29 10 -53 34 -32 62 -47
71 -39 9 9 7 58 -3 69 -5 5 0 29 14 59 42 92 65 183 65 255 0 38 7 95 15 127
22 84 20 131 -7 154 -13 10 -31 18 -41 19 -10 0 -31 7 -47 15 -28 14 -29 14
-49 -21z m92 -99 c-2 -22 -10 -57 -20 -78 -14 -33 -15 -40 -3 -47 8 -5 11 -12
7 -17 -4 -4 -17 -2 -28 5 -27 17 -46 4 -21 -14 32 -22 47 -69 33 -103 -16 -37
-49 -51 -121 -51 -47 0 -60 3 -60 15 0 12 13 15 60 15 58 0 60 1 60 26 0 34
-36 63 -78 64 -38 0 -40 23 -3 28 13 2 26 14 32 29 10 26 72 126 98 156 25 30
46 17 44 -28z m-223 -320 c0 -28 -24 -34 -34 -9 -8 20 1 34 20 34 8 0 14 -10
14 -25z"/>
<path d="M3196 5932 c-2 -4 -1 -23 4 -42 l8 -35 1 43 c1 41 -3 50 -13 34z"/>
<path d="M2253 5854 c7 -92 -4 -126 -46 -147 l-32 -16 28 0 c15 -1 39 6 53 15
23 15 26 15 43 0 19 -17 71 -22 71 -6 0 6 -8 10 -18 10 -36 0 -54 35 -63 119
-8 85 -13 101 -31 101 -7 0 -9 -24 -5 -76z"/>
<path d="M8150 5909 c-47 -4 -132 -8 -190 -8 -58 -1 -123 -6 -145 -11 -22 -5
-94 -12 -160 -15 -165 -8 -225 -15 -225 -26 0 -14 299 -10 455 6 192 21 488
20 505 0 25 -30 120 -11 120 25 0 5 -7 16 -16 24 -12 13 -38 16 -137 14 -67 0
-160 -4 -207 -9z"/>
<path d="M2036 5879 c-3 -17 -6 -56 -6 -85 0 -47 3 -54 19 -54 29 0 31 10 23
84 -10 78 -26 103 -36 55z"/>
<path d="M1317 5878 c-4 -12 -3 -41 0 -65 4 -33 10 -43 24 -43 15 0 19 8 19
39 0 71 -30 119 -43 69z"/>
<path d="M2636 5884 c-3 -9 -6 -42 -6 -74 0 -44 4 -59 16 -64 28 -11 35 4 29
62 -8 70 -14 92 -25 92 -4 0 -11 -7 -14 -16z"/>
<path d="M1690 5816 c0 -69 3 -66 -63 -80 -16 -4 -27 -12 -24 -19 7 -19 60
-10 79 13 19 23 48 27 48 5 0 -8 9 -15 19 -15 10 0 21 -7 25 -15 6 -17 66 -21
66 -5 0 6 -13 10 -29 10 -38 0 -91 63 -91 108 0 36 -9 62 -21 62 -5 0 -9 -29
-9 -64z"/>
<path d="M6266 5848 c-3 -7 -7 -52 -10 -100 -3 -48 -11 -99 -16 -113 -6 -14
-10 -61 -10 -103 0 -42 -7 -122 -15 -176 -8 -55 -15 -122 -15 -150 0 -28 -7
-82 -15 -121 -24 -114 -19 -154 19 -139 24 9 24 8 60 364 8 74 19 148 25 163
6 16 11 52 12 80 1 29 5 63 9 77 l8 25 3 -25 c7 -73 14 -278 10 -330 -3 -55 5
-118 17 -132 10 -13 10 -23 -2 -57 -13 -39 -13 -42 6 -52 20 -11 20 -11 1 -32
-11 -12 -24 -34 -31 -50 -6 -15 -24 -32 -39 -38 l-26 -10 53 -49 c89 -82 97
-72 95 120 -2 146 -3 172 -23 465 -6 88 -14 207 -17 264 -3 58 -11 111 -17
118 -13 17 -77 17 -82 1z"/>
<path d="M7140 5845 c-10 -12 0 -27 61 -90 41 -41 86 -96 100 -121 l27 -45 11
32 c6 17 11 54 11 81 0 54 -8 64 -92 126 -49 35 -97 42 -118 17z"/>
<path d="M6680 5827 c0 -13 -5 -28 -12 -35 -9 -9 -7 -12 10 -12 15 0 24 -8 28
-27 4 -16 10 -32 14 -38 4 -5 17 -44 29 -85 21 -72 37 -113 67 -173 8 -16 14
-33 14 -39 0 -15 71 -191 81 -202 5 -6 9 -19 9 -31 0 -12 7 -30 15 -41 8 -10
15 -33 15 -50 0 -16 4 -34 8 -40 7 -8 20 -40 62 -154 7 -19 15 -47 17 -62 3
-15 11 -33 19 -39 8 -6 14 -24 14 -39 0 -15 6 -33 14 -39 8 -7 18 -26 21 -42
7 -32 20 -38 29 -14 3 8 10 15 16 15 5 0 10 -7 10 -15 0 -11 12 -15 45 -15 51
0 49 -1 33 37 -16 36 -59 78 -77 74 -20 -4 -81 59 -81 85 0 12 -9 33 -20 47
-22 28 -25 58 -9 89 9 17 8 24 -8 37 -11 9 -28 39 -38 66 -10 28 -26 64 -36
81 -11 17 -19 41 -19 53 0 12 -11 39 -25 62 -32 50 -37 107 -11 123 14 8 20 8
23 -1 2 -7 16 -29 29 -49 14 -21 23 -45 21 -55 -3 -10 1 -23 9 -30 8 -6 14
-22 14 -35 0 -27 32 -61 78 -80 31 -14 32 -16 26 -54 -6 -35 -4 -40 13 -40 26
0 60 -37 69 -75 4 -16 22 -43 40 -58 24 -20 34 -37 34 -57 0 -16 5 -32 10 -35
15 -9 12 -47 -5 -89 -14 -33 -14 -41 -1 -67 11 -22 12 -37 5 -56 -7 -20 -6
-28 6 -37 8 -6 19 -26 24 -44 9 -29 7 -35 -22 -62 -34 -32 -208 -128 -244
-134 -31 -6 -60 -23 -67 -41 -3 -8 -12 -15 -21 -15 -8 0 -15 -4 -15 -8 0 -18
-73 -102 -88 -102 -9 0 -26 12 -37 26 -19 24 -24 25 -42 14 -11 -8 -26 -31
-33 -53 -6 -22 -23 -50 -37 -63 -19 -18 -23 -28 -16 -35 13 -13 -16 -68 -57
-110 -37 -38 -70 -80 -70 -89 0 -4 -9 -19 -21 -34 -11 -15 -19 -33 -16 -40 3
-8 -7 -27 -23 -43 -16 -15 -30 -35 -30 -44 0 -9 -7 -22 -15 -29 -9 -7 -14 -19
-11 -27 3 -8 -16 -34 -44 -62 -28 -27 -50 -56 -50 -65 0 -9 -10 -21 -22 -27
-21 -10 -58 -71 -58 -97 0 -6 -9 -16 -20 -22 -12 -6 -20 -21 -20 -36 0 -13
-11 -42 -25 -63 -13 -22 -27 -51 -31 -65 -3 -15 -14 -31 -24 -36 -17 -9 -40
-59 -40 -86 0 -21 27 -17 78 14 26 15 54 32 64 37 9 6 38 23 63 38 37 23 54
28 81 23 18 -4 36 -11 39 -16 6 -10 -20 -59 -76 -142 -22 -32 -80 -129 -128
-216 -49 -86 -103 -177 -120 -202 -17 -25 -41 -65 -53 -90 -11 -25 -31 -58
-44 -73 -13 -16 -24 -33 -24 -39 0 -13 -91 -148 -152 -225 -62 -79 -205 -213
-282 -266 -96 -65 -236 -118 -336 -126 -60 -5 -98 -4 -130 5 -25 7 -84 18
-132 23 -126 14 -164 28 -199 72 -16 20 -29 44 -29 52 0 8 -9 34 -20 59 -20
46 -51 68 -95 68 -36 0 -40 -19 -6 -31 36 -13 45 -34 35 -86 -8 -48 -12 -55
-51 -87 l-31 -26 -31 26 c-35 29 -37 42 -15 107 l16 46 -32 45 c-29 43 -72 68
-88 52 -3 -4 4 -9 16 -13 40 -10 20 -88 -43 -165 l-29 -37 -23 21 c-27 25 -31
91 -8 122 28 37 15 144 -21 180 -13 13 -45 29 -69 36 -41 11 -50 11 -85 -6
-39 -19 -39 -19 -12 -24 22 -4 28 -11 30 -38 3 -26 -1 -35 -16 -39 -21 -5 -46
-49 -37 -64 10 -16 34 -10 45 11 14 27 30 16 30 -20 0 -52 -66 -68 -110 -27
-23 21 -25 31 -25 93 1 57 4 69 17 66 9 -1 19 2 23 8 3 5 0 10 -8 10 -8 0 -20
14 -27 30 -18 44 -86 98 -148 117 -52 17 -55 17 -90 -2 -19 -11 -39 -27 -42
-35 -27 -57 -38 -90 -30 -90 6 0 10 6 10 14 0 32 79 57 124 40 22 -8 11 -71
-15 -97 -36 -34 -17 -58 89 -106 65 -30 -22 -68 -93 -41 -22 9 -30 7 -45 -12
-17 -21 -18 -21 -44 -4 -36 23 -43 44 -20 61 11 7 17 15 14 17 -76 61 -92 62
-114 8 -22 -56 -20 -70 15 -118 46 -63 102 -92 177 -92 54 0 64 3 91 31 17 17
31 37 31 45 0 18 46 48 63 41 8 -3 22 -21 31 -41 11 -23 31 -43 56 -56 47 -24
69 -25 96 -5 41 31 74 14 74 -37 0 -11 14 -33 30 -50 35 -35 62 -33 116 9 37
28 64 25 64 -7 0 -34 28 -77 54 -84 31 -8 82 3 97 20 17 20 53 17 74 -6 24
-26 47 -32 78 -21 19 7 37 6 64 -3 64 -22 223 -39 333 -34 82 3 115 8 152 26
26 12 53 22 61 22 24 0 129 60 207 118 96 72 240 215 313 313 31 42 57 78 57
82 0 3 16 29 35 58 19 30 35 58 35 63 0 5 11 24 25 42 14 18 25 36 25 39 0 4
37 68 83 142 45 75 101 172 125 217 87 163 191 276 255 276 10 0 33 11 50 24
18 13 77 52 132 86 55 34 125 84 156 110 31 27 74 57 95 67 46 21 134 86 218
161 33 29 73 56 88 59 15 3 28 11 29 17 0 6 0 198 -1 426 0 228 -1 513 0 632
l1 217 -63 86 c-35 47 -89 122 -121 168 -32 45 -89 126 -128 181 -38 54 -75
109 -82 122 -6 13 -43 68 -81 121 -38 54 -87 128 -109 165 -42 71 -77 91 -77
45z m213 -377 c3 -11 1 -20 -4 -20 -11 0 -30 36 -22 43 9 10 20 0 26 -23z
m377 -1095 c0 -9 -7 -18 -15 -21 -21 -8 -19 -24 6 -50 l21 -23 -21 -29 -21
-30 22 -14 c21 -14 21 -17 9 -56 -18 -53 -7 -256 15 -289 8 -12 14 -29 14 -37
0 -22 -73 -79 -202 -159 -66 -39 -131 -80 -146 -89 -15 -10 -36 -22 -47 -28
-11 -6 -32 -18 -47 -28 -94 -61 -229 -141 -279 -167 -87 -46 -90 -51 -49 -85
29 -24 32 -30 21 -44 -19 -22 -48 -20 -61 4 -6 11 -15 18 -19 15 -5 -2 -11 3
-13 13 -5 19 -87 45 -113 36 -13 -5 -12 0 4 30 12 20 21 43 21 51 0 8 5 15 10
15 14 0 13 37 -1 42 -20 7 6 42 81 109 38 34 70 68 70 76 0 8 14 28 32 44 23
22 28 33 20 41 -13 13 -1 41 34 77 13 13 24 30 24 37 0 8 5 14 11 14 6 0 8 8
4 19 -3 12 0 21 10 25 8 3 15 17 15 31 0 18 7 28 24 34 13 5 36 21 51 35 16
15 49 36 74 49 38 18 107 68 76 55 -5 -2 -27 -12 -49 -22 -21 -9 -45 -15 -53
-11 -9 3 -22 0 -30 -6 -7 -7 -17 -9 -21 -5 -4 4 0 13 9 19 8 7 18 19 21 28 4
9 27 25 51 37 25 12 48 26 52 32 3 5 17 10 31 10 13 0 24 6 24 13 0 29 117
115 248 182 76 40 82 41 82 20z m-3315 -2092 c-8 -34 -23 -53 -41 -53 -16 0
-19 16 -4 25 6 3 10 17 10 31 0 18 5 24 21 24 18 0 20 -4 14 -27z"/>
<path d="M6521 3481 c-27 -27 -27 -38 0 -46 31 -10 50 23 30 54 -7 11 -13 9
-30 -8z"/>
<path d="M6957 5833 c-15 -14 -5 -37 38 -93 25 -32 45 -61 45 -65 0 -8 73
-106 130 -175 114 -137 154 -222 126 -265 -14 -22 -14 -27 4 -67 11 -24 20
-54 20 -67 0 -13 3 -21 8 -17 4 4 8 44 9 89 1 45 5 115 9 154 9 101 0 137 -43
176 -70 63 -119 116 -213 225 -87 101 -115 124 -133 105z"/>
<path d="M1250 5738 c-19 -6 -135 -13 -258 -17 -135 -4 -223 -10 -224 -16 -2
-13 175 -33 356 -41 132 -6 139 -5 132 12 -13 34 -11 39 17 42 15 2 27 9 27
18 0 16 -2 16 -50 2z"/>
<path d="M1400 5730 c0 -5 9 -10 21 -10 11 0 17 5 14 10 -3 6 -13 10 -21 10
-8 0 -14 -4 -14 -10z"/>
<path d="M2501 5651 c-21 -29 -28 -66 -13 -75 4 -2 29 11 55 30 41 30 46 37
37 54 -16 30 -55 25 -79 -9z"/>
<path d="M1860 5660 c-13 -9 -13 -12 4 -25 10 -8 22 -16 27 -17 4 -2 9 -56 10
-121 1 -96 -2 -121 -15 -136 -23 -25 -11 -31 56 -31 59 0 70 8 43 30 -11 9
-15 44 -17 159 l-3 146 -45 3 c-25 1 -52 -2 -60 -8z"/>
<path d="M1415 5639 c-112 -26 -154 -197 -68 -280 31 -31 39 -34 96 -34 72 0
127 30 127 69 0 12 7 31 15 42 27 36 19 43 -55 43 -55 0 -70 -3 -70 -14 0 -8
4 -15 10 -15 16 0 41 -46 34 -64 -7 -19 -61 -21 -84 -3 -56 43 -66 119 -25
180 35 51 77 52 106 2 23 -39 31 -42 53 -19 32 31 12 79 -36 89 -18 4 -40 8
-48 10 -8 1 -33 -1 -55 -6z"/>
<path d="M1682 5552 c-39 -15 -43 -20 -40 -46 4 -37 21 -43 48 -16 38 38 86
10 64 -38 -4 -9 -6 -21 -4 -27 1 -5 2 -22 1 -37 -2 -45 48 -74 86 -50 10 6 10
12 -2 28 -9 12 -14 44 -15 90 0 64 -2 73 -24 87 -37 24 -67 27 -114 9z"/>
<path d="M2668 5553 c-43 -13 -48 -17 -48 -44 0 -41 24 -47 54 -13 20 24 26
26 40 15 18 -15 22 -56 6 -66 -7 -4 -7 -12 0 -25 5 -10 8 -25 5 -32 -7 -18 44
-71 62 -64 8 3 21 6 29 6 19 0 18 37 -1 56 -10 11 -15 36 -15 79 0 56 -3 66
-22 79 -37 23 -60 25 -110 9z"/>
<path d="M2079 5549 c-36 -13 -52 -48 -52 -114 0 -77 26 -105 98 -105 39 0 56
5 70 20 25 27 7 47 -25 30 -26 -14 -79 3 -81 26 -1 8 -2 20 -3 27 -1 8 17 12
58 12 70 0 87 15 67 63 -19 46 -72 63 -132 41z m62 -40 c26 -14 15 -29 -22
-29 -39 0 -40 29 -1 39 2 1 12 -4 23 -10z"/>
<path d="M2263 5550 c-27 -11 -29 -25 -6 -39 15 -8 17 -21 15 -73 -2 -36 -9
-70 -18 -79 -21 -23 -8 -29 68 -29 53 0 68 3 68 15 0 8 -11 17 -24 21 -43 11
-44 88 -2 123 13 11 17 9 26 -13 13 -34 26 -33 45 5 10 19 22 29 33 27 14 -3
17 -15 14 -73 -2 -49 -7 -72 -18 -78 -26 -15 -4 -27 52 -27 40 0 54 4 54 14 0
8 -4 18 -10 21 -5 3 -10 41 -10 83 0 98 -5 105 -63 97 -25 -4 -53 -3 -63 3
-19 10 -64 -3 -64 -20 0 -17 -28 -7 -33 12 -5 21 -27 25 -64 10z"/>
<path d="M5570 5550 c0 -5 7 -10 15 -10 8 0 15 5 15 10 0 6 -7 10 -15 10 -8 0
-15 -4 -15 -10z"/>
<path d="M3200 5456 c0 -20 5 -36 10 -36 6 0 10 13 10 29 0 17 -4 33 -10 36
-6 4 -10 -8 -10 -29z"/>
<path d="M7570 5450 c-91 -11 -147 -28 -154 -46 -12 -32 -6 -33 152 -19 78 6
95 11 108 29 13 19 13 22 -3 33 -9 7 -22 12 -27 12 -6 -1 -40 -5 -76 -9z"/>
<path d="M1674 5429 c-35 -10 -48 -38 -34 -75 15 -40 85 -44 98 -6 2 7 -3 12
-12 12 -24 0 -29 19 -12 45 25 39 20 42 -40 24z"/>
<path d="M2628 5419 c-24 -13 -23 -50 2 -77 23 -24 41 -27 71 -12 25 14 24 26
-2 33 -18 5 -20 11 -14 36 6 28 4 31 -17 31 -13 0 -31 -5 -40 -11z"/>
<path d="M5732 5408 c5 -15 28 -18 29 -3 0 6 -7 12 -17 13 -10 3 -15 -1 -12
-10z"/>
<path d="M972 5338 c-27 -27 -11 -35 86 -42 53 -4 129 -11 167 -15 39 -4 72
-6 74 -4 3 2 -4 13 -15 24 -35 34 -285 64 -312 37z"/>
<path d="M5978 5264 c-5 -4 -8 -25 -8 -48 0 -28 3 -37 11 -29 6 6 9 27 7 48
-2 20 -6 33 -10 29z"/>
<path d="M8455 5250 c-11 -5 -38 -9 -60 -9 -22 0 -74 -8 -115 -17 -41 -9 -86
-18 -99 -21 -20 -3 -22 -6 -10 -13 28 -18 354 12 376 34 3 3 3 12 0 21 -7 17
-58 20 -92 5z"/>
<path d="M1326 5223 c-3 -3 -6 -19 -6 -34 0 -31 -10 -36 -82 -44 -29 -4 -73
-11 -98 -16 -25 -5 -87 -11 -138 -12 -55 -1 -91 -6 -90 -12 2 -6 73 -10 188
-10 102 0 190 -3 197 -8 21 -13 34 -71 25 -112 -12 -59 -52 -68 -269 -61 -95
4 -184 4 -198 0 -27 -7 -33 -28 -13 -41 7 -4 105 -9 218 -10 242 -3 260 -8
260 -65 0 -57 -13 -73 -75 -92 -65 -21 -63 -36 4 -36 33 0 53 -5 64 -18 20
-22 32 -144 17 -172 -9 -16 -7 -22 5 -26 9 -4 18 -4 21 -1 3 3 8 51 11 107 6
101 6 102 37 121 23 14 50 19 106 19 90 0 120 7 120 27 0 12 -9 14 -42 9 -24
-3 -75 -6 -115 -7 -65 -2 -74 0 -92 22 -11 13 -20 39 -21 57 0 25 -4 32 -19
32 -12 0 -20 9 -24 28 -7 34 3 44 39 40 29 -3 31 -8 18 -42 -6 -16 -4 -18 12
-11 10 4 64 9 119 11 128 3 122 2 105 19 -10 9 -48 16 -106 21 -124 9 -139 21
-139 108 0 54 4 68 22 85 20 19 35 21 151 21 85 0 132 -4 140 -12 16 -16 20
-8 15 29 -5 30 -7 31 -32 22 -15 -6 -87 -9 -166 -8 l-140 4 1 -23 c0 -16 -4
-21 -13 -17 -8 3 -17 5 -19 5 -11 0 -2 39 11 44 8 3 15 16 15 30 0 25 -12 40
-24 29z"/>
<path d="M7982 5180 c-39 -16 -15 -33 40 -28 46 5 67 13 57 22 -10 11 -76 14
-97 6z"/>
<path d="M2226 5156 c-16 -8 -48 -11 -71 -8 -38 4 -45 1 -60 -22 -23 -35 -56
-34 -79 4 -9 17 -21 28 -26 25 -4 -3 -49 -6 -99 -7 -50 -1 -91 -5 -91 -10 0
-9 60 -13 122 -9 21 1 53 -5 72 -14 28 -14 37 -24 42 -54 8 -50 12 -61 23 -61
9 0 21 34 21 64 0 10 10 29 23 42 19 20 31 24 92 24 l71 0 19 -50 c11 -27 23
-50 27 -50 4 0 8 22 8 48 0 42 -3 50 -25 60 -14 6 -25 16 -25 22 0 12 -7 12
-44 -4z"/>
<path d="M2370 5156 c0 -18 1 -18 138 -20 101 -1 103 -1 127 -31 18 -23 24
-42 25 -81 0 -79 -15 -111 -55 -118 -45 -9 -53 -24 -20 -36 47 -18 66 -13 59
14 -4 19 1 27 30 45 30 19 34 26 26 42 -6 10 -11 44 -13 76 -2 50 -5 59 -27
70 -13 6 -27 20 -31 31 -7 17 -20 19 -133 21 -108 2 -126 0 -126 -13z"/>
<path d="M2905 5163 c-30 -5 -55 -19 -55 -33 0 -10 49 0 56 11 3 5 19 9 35 9
18 0 28 4 24 10 -3 6 -12 9 -18 9 -7 -1 -25 -4 -42 -6z"/>
<path d="M7535 5138 c-22 -5 -59 -12 -83 -17 -68 -13 -63 -24 8 -18 36 4 101
9 145 12 101 8 127 13 120 25 -8 12 -136 11 -190 -2z"/>
<path d="M7413 5013 c-21 -8 -15 -32 10 -37 12 -3 36 -8 52 -11 103 -23 153
-18 136 13 -15 29 -154 53 -198 35z"/>
<path d="M1762 5003 c-47 -10 -79 -62 -68 -109 6 -23 72 -74 98 -74 20 -1 58
-36 58 -54 0 -8 -9 -20 -19 -26 -37 -19 -59 -12 -82 30 -34 60 -59 50 -59 -25
0 -46 25 -58 110 -53 58 3 71 7 89 28 12 15 20 40 21 62 0 42 -28 71 -104 108
-36 17 -46 27 -46 46 0 45 73 44 90 -1 10 -27 29 -32 48 -13 15 15 16 64 2 73
-14 9 -110 15 -138 8z"/>
<path d="M5660 4982 c0 -13 39 -46 46 -40 8 9 -19 48 -33 48 -7 0 -13 -4 -13
-8z"/>
<path d="M2030 4929 c-8 -5 -27 -13 -42 -19 -31 -11 -39 -49 -14 -69 12 -10
18 -7 32 14 20 30 57 31 62 1 6 -29 -19 -67 -38 -61 -24 8 -67 -10 -79 -33
-24 -45 76 -97 109 -57 10 12 15 12 35 -1 17 -11 29 -12 49 -4 15 5 44 8 64 5
20 -3 84 -7 141 -9 83 -2 104 0 109 12 3 8 -3 21 -14 29 -15 11 -19 27 -19 88
-1 41 -4 77 -8 81 -11 12 -212 14 -228 3 -12 -8 -10 -13 9 -26 19 -13 22 -24
22 -77 0 -89 -33 -114 -70 -54 -16 26 -18 43 -14 83 6 49 5 53 -26 78 -33 28
-54 32 -80 16z m325 -129 c0 -48 -4 -65 -17 -73 -28 -18 -48 9 -48 65 0 65 13
90 43 79 20 -7 22 -15 22 -71z m-291 -61 c-7 -12 -31 -11 -39 1 -4 6 -1 18 6
26 12 14 14 14 26 -2 7 -9 10 -21 7 -25z"/>
<path d="M5812 4868 c7 -19 38 -22 38 -4 0 10 -9 16 -21 16 -12 0 -19 -5 -17
-12z"/>
<path d="M2557 4783 c-48 -3 -67 -8 -64 -16 3 -7 8 -11 13 -11 5 1 27 4 50 8
36 5 44 2 72 -25 l32 -31 0 -122 c0 -84 -4 -126 -12 -135 -11 -11 -10 -12 2
-7 8 3 22 9 32 12 14 5 16 24 17 134 0 106 -2 128 -14 124 -16 -6 -35 24 -27
45 4 12 -16 33 -28 29 -3 -1 -36 -3 -73 -5z"/>
<path d="M5519 4732 c14 -26 41 -48 41 -33 0 11 -35 51 -45 51 -3 0 -1 -8 4
-18z"/>
<path d="M8210 4729 c-96 -4 -202 -12 -235 -18 -33 -6 -106 -11 -162 -11 -56
0 -108 -3 -117 -6 -43 -17 12 -24 177 -24 147 0 188 3 212 16 24 13 48 15 123
9 50 -3 114 -10 142 -14 52 -8 90 6 90 33 0 14 -23 27 -43 24 -7 -1 -91 -5
-187 -9z"/>
<path d="M3198 4624 c-4 -74 -2 -88 13 -79 12 8 12 115 0 134 -6 9 -10 -9 -13
-55z"/>
<path d="M7425 4661 c-18 -7 -16 -9 12 -15 33 -8 53 -2 53 15 0 11 -37 11 -65
0z"/>
<path d="M2055 4630 c-3 -6 -5 -38 -4 -73 2 -34 -1 -79 -5 -99 -10 -44 5 -51
29 -14 13 19 14 40 9 105 -7 78 -15 103 -29 81z"/>
<path d="M7134 4591 c8 -60 30 -126 42 -126 5 0 10 19 12 43 2 27 -1 42 -9 42
-6 0 -9 8 -6 20 7 25 -14 70 -32 70 -11 0 -12 -11 -7 -49z"/>
<path d="M1738 4625 c-3 -6 -6 -49 -7 -97 -2 -80 0 -87 19 -93 26 -8 38 1 22
17 -7 7 -12 39 -13 73 -1 65 -11 116 -21 100z"/>
<path d="M2320 4620 c-3 -8 -5 -53 -5 -100 0 -68 3 -85 15 -88 13 -2 16 11 18
69 1 40 -2 77 -7 83 -5 6 -11 20 -13 31 -3 15 -5 16 -8 5z"/>
<path d="M5720 4543 c0 -11 73 -74 79 -68 2 3 -11 21 -29 40 -33 34 -50 43
-50 28z"/>
<path d="M7487 4510 c-36 -7 -66 -25 -56 -34 8 -7 319 -14 324 -7 2 4 -3 17
-11 29 -14 20 -23 22 -117 21 -56 -1 -119 -5 -140 -9z"/>
<path d="M5350 4456 c0 -16 28 -42 36 -33 3 3 3 15 -1 26 -7 23 -35 29 -35 7z"/>
<path d="M7042 4439 c2 -6 8 -10 13 -10 5 0 11 4 13 10 2 6 -4 11 -13 11 -9 0
-15 -5 -13 -11z"/>
<path d="M1075 4416 c-32 -23 -3 -46 59 -46 28 0 71 -5 95 -11 48 -11 60 -7
42 14 -6 8 -9 21 -6 29 5 12 -7 16 -56 22 -90 9 -113 8 -134 -8z"/>
<path d="M5542 4419 c2 -7 10 -15 17 -17 8 -3 12 1 9 9 -2 7 -10 15 -17 17 -8
3 -12 -1 -9 -9z"/>
<path d="M5641 4418 c1 -14 67 -73 74 -66 2 2 -7 21 -22 41 -26 36 -54 49 -52
25z"/>
<path d="M5840 4424 c0 -6 63 -64 128 -119 43 -36 54 -24 16 16 -59 63 -144
124 -144 103z"/>
<path d="M2440 4380 c-14 -17 -25 -35 -24 -40 3 -26 5 -30 22 -30 9 0 35 15
57 34 34 29 38 36 26 50 -21 25 -54 19 -81 -14z"/>
<path d="M5756 4403 c-12 -12 -6 -22 30 -43 41 -26 53 -21 27 10 -22 26 -48
42 -57 33z"/>
<path d="M2917 4393 c-15 -4 -16 -7 -6 -20 11 -12 10 -17 -4 -24 -32 -18 -17
-29 38 -29 30 0 55 5 55 10 0 6 -9 10 -19 10 -30 0 -34 17 -9 31 22 12 22 12
3 20 -22 8 -32 9 -58 2z"/>
<path d="M1343 4373 c-19 -7 -16 -27 7 -41 18 -11 20 -23 20 -112 0 -89 -2
-101 -20 -112 -11 -7 -20 -21 -20 -32 0 -17 6 -18 56 -13 66 7 72 11 52 34 -9
11 -18 47 -21 92 -6 73 -6 74 13 53 19 -20 60 -127 60 -156 0 -17 24 -28 44
-20 15 6 46 73 46 98 0 7 6 19 14 26 8 6 16 26 18 43 6 61 23 31 26 -45 3 -69
1 -78 -18 -88 -35 -19 -8 -36 55 -34 30 1 59 4 63 8 6 6 -10 21 -30 28 -4 2
-9 51 -10 109 -3 103 -2 107 22 128 33 28 16 38 -52 31 -48 -5 -53 -7 -59 -35
-18 -76 -68 -190 -78 -178 -8 8 -24 52 -57 156 -18 56 -19 57 -55 57 -21 0
-43 2 -51 4 -7 3 -19 2 -25 -1z"/>
<path d="M2270 4331 c-5 -11 -10 -25 -10 -31 0 -6 -7 -18 -15 -26 -12 -13 -13
-20 -3 -37 7 -12 11 -48 9 -79 -3 -74 10 -98 52 -98 18 0 42 6 52 14 18 13 17
14 -8 36 -21 19 -27 33 -27 65 0 34 5 45 30 63 23 18 34 20 55 12 23 -9 25
-14 25 -71 0 -45 -5 -68 -17 -81 -15 -17 -15 -20 -3 -28 19 -12 81 -12 99 -1
12 8 12 13 -1 33 -9 14 -15 50 -16 93 -1 38 -5 72 -10 77 -4 4 -41 8 -82 10
-69 3 -75 5 -78 26 -2 12 -12 27 -22 32 -15 8 -21 6 -30 -9z"/>
<path d="M3010 4331 c0 -5 9 -12 19 -16 40 -12 62 -154 41 -266 -12 -61 -17
-72 -45 -89 -20 -13 -50 -20 -80 -20 -38 0 -55 -6 -86 -31 -37 -29 -50 -61
-30 -73 5 -3 12 -34 17 -68 7 -61 8 -62 16 -28 4 19 6 53 3 76 -8 61 17 79
108 79 69 0 72 -1 87 -30 11 -22 14 -57 13 -127 -1 -74 1 -98 12 -102 25 -9
47 -64 35 -86 -16 -30 -5 -39 50 -38 56 2 65 13 58 79 -3 31 -6 34 -33 32 -16
-2 -42 2 -57 8 l-28 11 0 108 c0 94 2 109 20 125 14 13 29 16 55 12 30 -5 36
-3 41 17 3 13 4 37 2 52 -3 27 -5 29 -44 26 -66 -5 -75 18 -73 186 l1 137 -26
3 c-15 2 -30 10 -33 18 -6 15 -43 20 -43 5z"/>
<path d="M1822 4283 c-37 -5 -47 -21 -38 -58 8 -32 30 -32 44 1 18 39 56 30
60 -15 4 -43 -8 -54 -59 -55 -30 -1 -45 -7 -55 -22 -13 -18 -12 -24 7 -47 22
-28 56 -35 89 -17 13 7 27 7 44 -1 19 -9 32 -9 56 1 l31 13 -21 19 c-15 14
-20 31 -20 74 0 54 -12 92 -34 106 -11 8 -45 8 -104 1z m66 -166 c3 -12 -3
-17 -21 -17 -31 0 -40 10 -25 27 15 18 42 12 46 -10z"/>
<path d="M2011 4276 c-10 -12 -8 -17 8 -26 18 -9 21 -20 21 -70 0 -33 -6 -69
-12 -80 -18 -29 4 -41 71 -38 61 3 77 21 37 39 -23 11 -26 18 -26 61 0 55 18
72 49 44 32 -29 44 -22 56 31 6 29 4 34 -21 43 -21 8 -31 7 -44 -5 -21 -19
-49 -19 -56 0 -8 19 -68 20 -83 1z"/>
<path d="M2553 4283 c-18 -7 -16 -30 2 -37 23 -9 21 -134 -2 -152 -26 -20 -4
-30 56 -26 36 3 51 8 51 18 0 8 -7 17 -15 20 -23 9 -20 96 3 117 24 22 35 21
54 0 19 -23 18 -110 -1 -122 -29 -18 -4 -38 47 -39 59 -2 87 19 53 38 -18 9
-21 20 -21 80 0 57 -4 74 -20 90 -26 26 -65 25 -91 -1 l-21 -21 -14 21 c-14
20 -51 27 -81 14z"/>
<path d="M8335 4266 c-43 -8 -61 -16 -63 -29 -4 -22 42 -23 125 -3 32 8 79 17
106 21 26 3 45 10 42 16 -8 12 -135 9 -210 -5z"/>
<path d="M5827 4236 c27 -32 83 -73 83 -61 0 3 -19 26 -41 50 -49 54 -86 63
-42 11z"/>
<path d="M5540 4246 c0 -12 40 -46 55 -46 3 0 -4 14 -17 30 -23 32 -38 38 -38
16z"/>
<path d="M5730 4244 c1 -15 29 -48 36 -41 3 3 -3 16 -15 28 -12 13 -21 19 -21
13z"/>
<path d="M6492 4241 c9 -23 98 -111 113 -111 23 0 18 8 -46 68 -52 49 -75 63
-67 43z"/>
<path d="M8601 2403 c1 -1016 4 -1886 7 -1932 4 -47 12 -86 17 -88 14 -4 32
42 39 103 3 28 6 865 6 1860 1 1214 4 1822 11 1848 6 21 9 39 7 41 -2 1 -22 6
-45 10 l-43 7 1 -1849z"/>
<path d="M3200 4149 c1 -52 3 -69 10 -58 11 18 8 114 -3 125 -4 4 -7 -26 -7
-67z"/>
<path d="M4374 4205 c-10 -8 -38 -15 -60 -15 -24 0 -47 -6 -54 -15 -7 -8 -20
-15 -30 -15 -10 0 -23 -7 -30 -15 -7 -8 -18 -15 -25 -15 -7 0 -15 -7 -19 -15
-3 -8 -11 -15 -18 -15 -15 0 -98 -84 -98 -100 0 -17 10 -11 55 33 24 23 49 47
57 52 56 40 126 72 173 79 22 3 41 10 43 16 6 17 223 12 246 -5 11 -8 35 -15
54 -15 18 0 40 -7 48 -15 9 -8 24 -15 35 -15 10 0 19 -4 19 -9 0 -5 9 -13 21
-16 12 -4 29 -14 38 -23 10 -10 33 -31 52 -49 38 -35 69 -73 69 -85 0 -4 5 -8
10 -8 16 0 12 30 -5 36 -8 4 -15 11 -15 16 0 20 -116 138 -136 138 -6 0 -17 7
-24 15 -7 8 -20 15 -30 15 -10 0 -23 7 -30 15 -7 9 -30 15 -54 15 -22 0 -50 7
-60 15 -14 11 -47 15 -116 15 -69 0 -102 -4 -116 -15z"/>
<path d="M7873 4212 c-35 -2 -53 -8 -57 -19 -6 -14 1 -15 56 -9 110 13 111 34
1 28z"/>
<path d="M5836 4125 c16 -24 44 -34 44 -16 0 11 -39 41 -52 41 -5 0 -1 -11 8
-25z"/>
<path d="M4332 4131 c-23 -4 -48 -13 -54 -19 -7 -7 -18 -12 -26 -12 -16 0
-118 -77 -147 -111 -97 -114 -145 -284 -111 -389 9 -27 16 -55 16 -63 0 -8 11
-34 25 -58 13 -24 29 -53 34 -65 15 -33 103 -114 160 -145 168 -93 397 -84
556 23 63 42 155 149 155 181 0 7 5 18 11 24 6 6 15 29 20 50 4 21 13 61 20
90 9 43 9 59 -5 99 -9 26 -16 59 -16 73 0 14 -7 35 -15 45 -8 11 -15 26 -15
34 0 20 -85 127 -122 154 -39 27 -67 45 -88 53 -8 4 -28 14 -44 22 -33 18
-278 28 -354 14z m123 -60 c9 -15 -36 -41 -72 -41 -35 0 -49 12 -30 28 24 19
92 28 102 13z m253 -43 c23 -11 56 -37 72 -58 36 -46 38 -56 6 -34 -14 8 -40
15 -58 14 -53 -3 -54 -2 -82 51 -14 28 -26 53 -26 56 0 6 38 -6 88 -29z m-399
0 c0 -17 -49 -55 -94 -74 l-36 -15 14 26 c13 26 81 74 105 75 6 0 12 -6 11
-12z m255 -32 c28 -7 52 -19 54 -25 2 -7 -5 -26 -17 -42 -11 -15 -21 -34 -21
-41 0 -7 -7 -22 -15 -32 -8 -11 -15 -26 -15 -33 0 -7 -13 -42 -30 -76 -16 -35
-30 -69 -30 -75 0 -21 -22 -24 -58 -9 -107 44 -192 76 -230 88 -66 19 -71 32
-31 87 31 44 48 62 59 62 3 0 50 -43 105 -95 55 -52 105 -93 110 -92 6 2 11
60 13 138 1 74 4 140 7 147 6 15 36 15 99 -2z m-179 -20 c11 -8 18 -26 18 -45
0 -34 -15 -51 -45 -51 -22 0 -58 34 -58 55 0 18 35 55 53 55 7 0 22 -6 32 -14z
m405 -127 c22 -28 40 -55 40 -60 0 -13 -42 -49 -58 -49 -8 0 -26 -6 -40 -14
-15 -8 -34 -17 -42 -20 -45 -18 -115 -62 -112 -71 3 -10 123 -57 187 -75 51
-13 85 -29 85 -39 0 -19 -65 -121 -77 -121 -7 0 -30 17 -52 38 -81 78 -157
148 -186 168 l-29 22 19 28 c10 16 39 52 65 79 25 28 68 76 94 108 27 31 52
57 57 57 5 0 27 -23 49 -51z m129 -176 c1 -51 -14 -103 -30 -103 -14 0 -97 60
-102 74 -3 7 12 30 34 52 21 21 39 42 39 48 0 5 8 18 17 28 17 19 18 18 29
-14 7 -18 13 -56 13 -85z m-799 43 c-1 -24 -45 -61 -61 -50 -14 8 -5 79 12
100 12 14 15 14 31 -6 10 -12 18 -32 18 -44z m175 -87 c44 0 100 -4 125 -7
l45 -7 -2 -169 c0 -92 -5 -172 -10 -176 -9 -9 -108 21 -124 37 -7 7 1 35 24
84 60 129 80 179 73 186 -4 4 -26 0 -49 -9 -23 -9 -58 -22 -77 -29 -19 -6 -53
-20 -76 -30 -23 -11 -53 -19 -67 -19 -22 0 -27 6 -37 48 -6 26 -14 57 -17 69
-7 29 27 43 77 32 19 -5 71 -9 115 -10z m285 -119 c19 -25 56 -67 82 -95 26
-27 48 -57 48 -67 0 -15 -37 -37 -119 -68 -30 -12 -35 -12 -47 5 -8 10 -14 28
-14 39 -1 68 -20 206 -31 223 -7 11 -9 28 -5 38 6 16 8 15 29 -7 12 -13 38
-44 57 -68z m-305 -70 c4 -6 4 -29 0 -50 -6 -34 -11 -40 -31 -40 -28 0 -84 37
-84 56 0 7 19 19 43 27 52 19 64 20 72 7z"/>
<path d="M6476 4045 c7 -18 44 -40 44 -27 0 10 -33 42 -43 42 -3 0 -4 -7 -1
-15z"/>
<path d="M995 4031 c-8 -15 3 -18 100 -30 194 -23 219 -22 213 8 -2 12 -19 18
-63 22 -94 10 -243 10 -250 0z"/>
<path d="M5850 4025 c0 -8 7 -15 15 -15 8 0 15 4 15 9 0 5 -7 11 -15 15 -9 3
-15 0 -15 -9z"/>
<path d="M2840 3990 c0 -36 3 -40 24 -40 24 0 24 1 10 28 -7 15 -14 33 -14 40
0 6 -4 12 -10 12 -5 0 -10 -18 -10 -40z"/>
<path d="M6315 3979 c-7 -11 32 -59 47 -59 5 0 20 -12 33 -26 13 -14 30 -24
37 -22 8 3 -8 26 -41 61 -56 59 -65 65 -76 46z"/>
<path d="M1540 3970 c0 -5 13 -10 29 -10 17 0 33 5 36 10 4 6 -8 10 -29 10
-20 0 -36 -4 -36 -10z"/>
<path d="M4015 3969 c-10 -15 3 -25 16 -12 7 7 7 13 1 17 -6 3 -14 1 -17 -5z"/>
<path d="M1850 3925 c0 -14 0 -28 0 -32 0 -12 45 -21 74 -16 22 5 25 9 20 27
-9 30 -14 33 -25 13 -15 -26 -39 -21 -39 8 0 16 -6 25 -15 25 -9 0 -15 -9 -15
-25z"/>
<path d="M2390 3931 c0 -5 7 -11 15 -15 8 -3 15 -13 15 -22 0 -11 5 -14 17 -9
10 3 47 9 83 12 74 7 108 23 69 34 -36 10 -199 10 -199 0z"/>
<path d="M2210 3915 c-10 -12 -7 -15 15 -21 30 -7 40 -1 32 21 -8 19 -31 19
-47 0z"/>
<path d="M3985 3917 c-4 -10 -5 -21 -1 -24 10 -10 18 4 13 24 -4 17 -4 17 -12
0z"/>
<path d="M4980 3901 c0 -12 5 -21 10 -21 6 0 10 6 10 14 0 8 -4 18 -10 21 -5
3 -10 -3 -10 -14z"/>
<path d="M7895 3904 c-105 -23 -239 -44 -280 -44 -22 0 -60 -6 -85 -14 -25 -8
-61 -19 -80 -25 -30 -8 -24 -9 35 -6 150 8 324 23 418 36 84 11 100 15 107 33
4 12 6 24 3 29 -6 10 -47 7 -118 -9z"/>
<path d="M1315 3890 c-3 -5 -33 -10 -65 -10 -34 0 -62 -5 -66 -12 -4 -7 -3 -8
4 -4 7 4 37 1 68 -6 41 -10 61 -20 76 -41 l20 -27 22 32 22 33 119 6 c153 8
147 7 140 19 -11 18 -237 6 -288 -15 -14 -6 -20 -2 -24 14 -6 22 -18 27 -28
11z"/>
<path d="M2097 3869 c-5 -18 -11 -20 -36 -14 -31 7 -44 -8 -17 -18 7 -3 17
-20 21 -39 l8 -33 7 39 c5 26 18 48 36 63 27 21 27 23 8 23 -14 0 -24 -8 -27
-21z"/>
<path d="M2677 3874 c-23 -12 -26 -18 -17 -34 5 -10 10 -29 10 -42 l0 -22 16
22 c19 28 35 80 26 86 -4 2 -19 -2 -35 -10z"/>
<path d="M2321 3843 c10 -21 19 -52 19 -70 0 -18 3 -33 8 -33 7 0 43 132 37
138 -2 2 -12 -2 -24 -10 -16 -10 -23 -10 -33 0 -23 23 -26 12 -7 -25z"/>
<path d="M3957 3874 c-4 -4 -7 -23 -7 -41 0 -42 23 -41 28 1 4 29 -9 52 -21
40z"/>
<path d="M5004 3846 c-8 -21 3 -66 16 -66 13 0 13 67 0 75 -6 3 -13 -1 -16 -9z"/>
<path d="M3200 3760 c0 -33 4 -60 10 -60 6 0 10 27 10 60 0 33 -4 60 -10 60
-6 0 -10 -27 -10 -60z"/>
<path d="M1157 3772 c-14 -3 -17 -10 -13 -27 3 -13 2 -27 -4 -30 -5 -3 -10
-20 -10 -37 0 -27 3 -29 23 -24 19 4 26 0 35 -19 14 -30 42 -23 42 11 0 19 5
23 22 21 26 -2 38 31 16 44 -7 5 -13 20 -13 35 0 32 -17 41 -37 20 -10 -11
-16 -12 -28 -2 -8 7 -23 11 -33 8z m63 -77 c0 -8 -4 -15 -9 -15 -13 0 -22 16
-14 24 11 11 23 6 23 -9z"/>
<path d="M1671 3744 c-54 -61 -18 -87 49 -34 42 34 50 54 24 64 -29 11 -42 6
-73 -30z"/>
<path d="M2147 3764 c-11 -11 -9 -19 13 -44 12 -13 20 -33 18 -45 -2 -16 -11
-21 -50 -23 -39 -3 -50 -8 -72 -37 -38 -50 -37 -121 3 -164 33 -35 44 -37 84
-16 25 13 33 13 55 1 19 -10 32 -11 49 -3 26 12 30 32 8 41 -12 4 -15 33 -17
148 l-3 143 -40 3 c-23 2 -44 0 -48 -4z m31 -198 c6 -94 -16 -120 -65 -74 -45
42 -19 132 35 126 25 -3 27 -7 30 -52z"/>
<path d="M2506 3761 c-3 -5 3 -20 14 -34 17 -21 20 -43 22 -157 l3 -133 57
-14 c55 -14 59 -14 85 7 45 35 63 71 63 125 0 40 -5 56 -26 78 -21 23 -32 27
-53 22 -14 -3 -31 -13 -37 -21 -23 -30 -36 -15 -34 39 4 99 5 97 -44 97 -25 0
-47 -4 -50 -9z m184 -220 c0 -44 -26 -74 -62 -69 -20 3 -23 9 -26 58 -4 68 14
88 59 64 24 -12 29 -21 29 -53z"/>
<path d="M3926 3749 c-17 -61 10 -256 40 -290 8 -8 14 -21 14 -27 0 -16 41
-82 51 -82 5 0 9 -6 9 -13 0 -19 88 -100 140 -130 94 -53 155 -69 274 -71 142
-2 210 7 281 39 89 39 161 99 216 180 19 28 37 52 42 53 4 2 7 14 7 26 0 12 6
28 12 34 29 29 56 199 43 268 -11 61 -25 26 -25 -64 -1 -61 -5 -93 -15 -106
-8 -11 -15 -32 -15 -46 0 -83 -141 -247 -260 -301 -108 -50 -108 -50 -254 -50
-108 0 -150 4 -172 16 -16 8 -37 15 -46 15 -9 0 -20 4 -23 10 -3 5 -22 17 -41
26 -37 18 -156 127 -168 154 -3 8 -15 29 -26 45 -26 39 -27 43 -35 88 -3 20
-10 37 -15 37 -6 0 -10 37 -11 83 -1 45 -4 93 -9 107 l-7 25 -7 -26z"/>
<path d="M1378 3725 c-14 -8 -36 -35 -48 -60 -69 -142 28 -277 169 -233 38 11
47 18 49 41 4 31 -3 33 -47 11 -41 -21 -72 -9 -101 38 -49 81 2 205 70 168 11
-6 20 -19 20 -30 0 -22 30 -42 47 -32 6 4 14 22 18 40 11 52 -13 72 -89 72
-34 -1 -73 -7 -88 -15z"/>
<path d="M6240 3732 c0 -4 12 -15 26 -26 26 -18 26 -18 15 2 -10 19 -41 38
-41 24z"/>
<path d="M1833 3653 c-28 -5 -30 -24 -3 -41 27 -16 29 -116 3 -144 -25 -28 -5
-40 62 -36 64 3 83 22 40 38 -24 9 -26 14 -23 62 3 61 26 75 57 36 l19 -23 10
25 c23 60 23 69 5 78 -20 11 -63 -1 -63 -18 0 -15 -21 -12 -34 4 -13 17 -43
25 -73 19z"/>
<path d="M2324 3637 c-26 -23 -29 -31 -29 -85 0 -66 18 -100 67 -130 25 -15
29 -14 69 3 73 33 94 136 41 196 -40 44 -106 52 -148 16z m101 -47 c19 -37 19
-94 1 -110 -8 -6 -25 -10 -38 -8 -21 3 -23 9 -26 61 -4 85 31 118 63 57z"/>
<path d="M2820 3647 c-28 -14 -38 -51 -20 -73 18 -20 27 -18 42 14 8 16 21 27
33 27 16 0 21 -8 23 -42 l3 -43 -45 0 c-89 0 -104 -68 -24 -111 15 -8 24 -7
37 5 20 18 52 21 67 6 14 -14 74 7 74 25 0 8 -9 17 -21 20 -18 6 -20 14 -19
63 2 80 2 80 -20 102 -23 23 -91 27 -130 7z m79 -150 c14 -17 4 -27 -25 -27
-30 0 -39 16 -17 29 24 14 29 13 42 -2z"/>
<path d="M1600 3614 c-29 -34 -31 -41 -25 -82 8 -56 29 -86 76 -107 34 -16 38
-16 76 3 68 35 86 125 37 189 -23 30 -30 33 -78 33 -49 0 -57 -3 -86 -36z
m114 -19 c23 -35 21 -90 -5 -116 -18 -18 -23 -19 -42 -6 -29 19 -37 106 -12
131 23 22 40 20 59 -9z"/>
<path d="M7365 3564 c-33 -33 -3 -59 57 -50 24 4 90 7 147 7 57 0 115 5 129
10 24 9 24 11 8 27 -24 24 -318 29 -341 6z"/>
<path d="M5962 3551 c4 -13 18 -16 19 -4 0 4 -5 9 -11 12 -7 2 -11 -2 -8 -8z"/>
<path d="M1188 3543 c12 -2 30 -2 40 0 9 3 -1 5 -23 4 -22 0 -30 -2 -17 -4z"/>
<path d="M3080 3384 c0 -52 -4 -114 -9 -137 -6 -23 -13 -55 -16 -70 -8 -41
-61 -62 -116 -46 -57 18 -69 40 -69 129 0 115 -17 119 -25 6 l-7 -97 36 -35
c33 -32 41 -35 89 -33 69 4 97 -12 97 -54 0 -18 -4 -37 -8 -43 -10 -17 -106
-22 -124 -6 -22 18 -42 -9 -34 -44 7 -25 8 -25 31 -10 70 46 155 -12 155 -106
0 -9 4 -19 10 -23 5 -3 12 17 16 45 8 61 29 77 77 61 37 -13 49 -2 45 44 -3
28 -5 30 -43 28 -46 -3 -69 11 -78 47 -5 19 -1 29 14 41 l21 15 -22 42 c-18
34 -20 50 -15 97 9 67 -3 245 -16 245 -5 0 -9 -43 -9 -96z"/>
<path d="M7376 3401 c-9 -60 -6 -490 4 -496 17 -11 24 43 21 190 -2 114 1 161
13 194 13 39 13 48 0 72 -8 15 -14 37 -14 48 0 37 -17 31 -24 -8z"/>
<path d="M3199 3373 c-2 -51 -1 -138 1 -213 l2 -45 9 35 c11 43 9 270 -3 270
-4 0 -9 -21 -9 -47z"/>
<path d="M1347 3376 c-4 -10 -7 -50 -7 -89 -1 -57 -5 -77 -21 -96 -19 -23 -23
-24 -102 -17 -112 9 -365 35 -403 42 -31 6 -70 -18 -59 -36 7 -11 209 -38 380
-50 204 -14 202 -14 208 12 6 21 7 21 26 4 10 -9 48 -21 82 -27 70 -10 229 -1
229 12 0 5 -42 9 -92 9 -112 1 -162 11 -194 41 -21 20 -24 32 -25 98 0 42 -4
85 -8 95 -7 18 -8 18 -14 2z"/>
<path d="M1767 3366 c-4 -10 -7 -46 -7 -80 0 -70 -15 -126 -35 -126 -19 0 -38
-27 -25 -35 6 -4 16 -2 23 3 7 6 25 12 41 14 l29 3 -2 98 c-2 105 -12 155 -24
123z"/>
<path d="M7731 3365 c-18 -8 -65 -15 -105 -16 -39 -1 -82 -4 -96 -9 -24 -7
-23 -7 12 -15 21 -4 70 -5 110 -1 256 20 258 20 258 41 0 20 -132 20 -179 0z"/>
<path d="M2067 3364 c-4 -4 -7 -47 -7 -95 0 -48 -4 -91 -10 -94 -22 -13 -10
-36 17 -33 l26 3 -2 86 c-2 92 -12 145 -24 133z"/>
<path d="M2666 3350 c-10 -37 -3 -155 9 -155 13 0 18 124 6 156 l-9 24 -6 -25z"/>
<path d="M2367 3347 c-3 -8 -1 -20 4 -28 6 -10 9 -7 9 14 0 29 -5 35 -13 14z"/>
<path d="M2360 3244 c0 -45 -22 -114 -36 -114 -8 0 -14 -5 -14 -10 0 -6 15 -8
39 -4 24 4 41 2 45 -5 11 -17 56 -14 56 4 0 8 -7 15 -16 15 -23 0 -43 30 -44
65 0 40 -10 75 -21 75 -5 0 -9 -12 -9 -26z"/>
<path d="M2658 3143 c-2 -5 -3 -33 -3 -63 0 -52 1 -55 26 -58 17 -2 29 -11 32
-23 9 -33 42 -20 42 16 0 30 5 32 38 20 13 -6 17 -2 17 18 0 18 -7 27 -26 31
-24 7 -25 8 -9 20 29 21 9 39 -36 33 -22 -3 -42 -1 -45 4 -6 11 -32 12 -36 2z"/>
<path d="M1986 3121 c-7 -11 22 -23 35 -15 5 3 9 9 9 15 0 12 -37 12 -44 0z"/>
<path d="M4186 3074 c-11 -29 -6 -72 12 -92 29 -34 56 -36 91 -6 27 22 32 33
29 63 -2 28 -7 36 -23 36 -14 0 -21 -8 -23 -27 -4 -34 -32 -38 -32 -5 0 40
-41 64 -54 31z"/>
<path d="M4655 3076 c-28 -20 -26 -83 4 -107 31 -25 56 -24 81 3 28 30 20 43
-24 42 -29 -1 -36 2 -36 18 0 12 6 19 18 17 35 -3 52 1 52 15 0 27 -63 35 -95
12z"/>
<path d="M2072 3068 c-7 -7 -12 -20 -12 -29 0 -9 -7 -22 -15 -29 -8 -7 -15
-18 -15 -25 0 -7 7 -18 15 -25 11 -9 15 -32 15 -81 0 -49 4 -72 16 -84 9 -9
19 -15 23 -13 3 2 23 10 44 18 44 17 48 37 10 42 -26 3 -28 6 -31 60 -3 51 -1
57 20 63 13 4 30 13 39 21 13 12 19 11 37 -2 19 -13 22 -24 21 -70 -1 -30 -8
-62 -15 -72 -7 -9 -14 -25 -14 -35 0 -16 8 -18 62 -15 51 2 63 6 66 21 3 12
-4 20 -17 24 -18 5 -21 13 -21 59 0 64 18 79 54 45 27 -26 33 -21 42 37 7 42
6 42 -25 42 -19 0 -34 -6 -37 -15 -8 -19 -30 -19 -38 0 -4 11 -23 15 -80 14
-86 -1 -96 3 -96 37 0 26 -27 33 -48 12z"/>
<path d="M4337 3073 c-6 -12 -7 -75 -1 -95 6 -20 39 -23 76 -9 22 8 24 13 19
58 l-6 48 -42 3 c-22 2 -43 -1 -46 -5z m61 -45 c-2 -13 -7 -23 -13 -23 -5 0
-11 10 -13 23 -2 15 2 22 13 22 11 0 15 -7 13 -22z"/>
<path d="M4478 3063 c-20 -23 -32 -89 -18 -98 6 -4 19 0 29 9 13 12 20 13 29
4 7 -7 30 -14 52 -15 l40 -3 0 60 c0 47 -3 60 -15 60 -9 0 -15 -9 -15 -22 0
-13 -3 -33 -6 -45 -6 -20 -8 -19 -28 20 -24 47 -45 56 -68 30z"/>
<path d="M1372 3024 c-47 -21 -81 -146 -47 -174 8 -7 15 -18 15 -24 0 -13 61
-46 85 -46 21 0 75 34 75 48 0 8 -15 12 -44 12 -35 0 -47 5 -60 25 -22 34 -18
80 9 113 2 2 15 -4 29 -13 43 -29 84 1 58 43 -9 13 -98 25 -120 16z"/>
<path d="M1583 3020 c-30 -12 -63 -80 -63 -129 0 -32 6 -44 35 -70 49 -42 74
-47 125 -21 49 25 42 46 -15 42 -38 -3 -85 22 -85 44 0 10 15 14 53 14 79 0
111 44 69 97 -19 25 -84 38 -119 23z m68 -51 c13 -25 -1 -39 -38 -39 -25 0
-32 27 -11 48 18 18 36 15 49 -9z"/>
<path d="M1763 3023 c-27 -5 -31 -28 -7 -37 14 -5 15 -19 11 -84 -3 -42 -7
-86 -9 -97 -2 -15 2 -19 17 -17 11 2 30 4 42 5 34 3 47 21 34 45 -6 11 -11 43
-11 71 0 46 2 51 27 57 39 10 50 -12 43 -90 -3 -38 -1 -71 4 -76 6 -6 27 -10
48 -10 34 0 38 3 38 24 0 13 -5 26 -10 28 -6 2 -12 39 -14 82 -3 50 -9 82 -18
87 -22 15 -70 10 -83 -8 -11 -15 -14 -15 -40 5 -28 22 -31 23 -72 15z"/>
<path d="M2490 3023 c-8 -3 -27 -17 -42 -31 -24 -22 -28 -33 -28 -85 0 -54 3
-61 36 -93 50 -47 91 -46 139 1 32 33 35 41 35 93 0 51 -4 62 -27 84 -28 26
-85 42 -113 31z m65 -67 c22 -33 16 -95 -10 -112 -18 -12 -24 -11 -43 2 -17
12 -22 25 -22 63 0 71 42 97 75 47z"/>
<path d="M2841 2923 c6 -16 7 -128 3 -297 -6 -254 -8 -272 -27 -293 -22 -25
-62 -30 -101 -12 -21 10 -26 22 -37 94 -6 46 -10 112 -7 148 7 78 0 92 -19 40
-10 -27 -12 -61 -8 -115 12 -146 -19 -191 -127 -190 -95 1 -98 7 -103 190 -2
83 -9 160 -15 171 -5 11 -10 36 -10 55 0 20 -5 36 -11 36 -8 0 -9 -24 -5 -77
16 -207 18 -266 8 -286 -5 -12 -14 -34 -20 -49 -7 -18 -21 -30 -39 -34 -53
-11 -60 -15 -38 -24 11 -4 33 -11 49 -16 36 -11 51 -34 43 -65 -14 -51 -18
-52 -138 -51 -105 0 -115 2 -132 23 -12 15 -16 30 -11 43 8 23 8 34 -3 313 -8
182 -15 235 -27 182 -3 -13 -7 -104 -8 -202 -4 -219 3 -209 -143 -205 l-100 3
-12 35 c-7 21 -12 100 -13 200 0 156 -8 215 -24 175 -3 -9 -6 -99 -6 -199 0
-233 11 -219 -176 -217 -102 1 -142 6 -159 17 -15 10 -25 12 -30 5 -3 -6 -11
-11 -18 -11 -8 0 -8 3 1 12 21 21 12 296 -14 407 -4 20 -7 22 -15 10 -5 -8 -9
-100 -8 -210 1 -108 -1 -201 -5 -207 -4 -7 -32 -12 -64 -12 -79 0 -346 20
-407 30 -39 7 -53 5 -65 -6 -38 -37 43 -54 290 -61 246 -7 260 -11 260 -73 0
-29 4 -39 20 -43 26 -7 26 -27 0 -27 -11 0 -20 5 -20 10 0 7 -33 9 -97 5 -125
-8 -175 -17 -181 -33 -7 -21 26 -25 106 -10 103 19 149 8 174 -42 16 -32 18
-83 19 -595 1 -308 4 -573 8 -590 8 -39 38 -46 47 -10 6 26 4 60 -15 190 -6
40 -10 279 -11 552 l0 482 30 16 c21 11 61 15 152 15 120 0 133 -3 177 -36 2
-2 5 -144 7 -316 2 -172 8 -347 14 -388 5 -41 9 -181 9 -310 0 -226 3 -270 22
-270 19 0 26 40 20 125 -4 50 -8 231 -10 404 -2 240 -6 326 -18 370 -11 43
-13 85 -9 181 10 199 12 208 53 225 20 8 62 15 93 15 48 0 64 -5 88 -25 l29
-24 6 -198 c4 -109 11 -220 16 -248 6 -27 10 -144 11 -260 0 -145 5 -232 15
-280 8 -38 15 -82 15 -96 0 -30 25 -95 40 -104 15 -10 24 23 10 40 -6 8 -16
65 -21 127 -5 62 -14 126 -19 142 -6 16 -10 137 -10 269 0 183 -4 255 -15 302
-11 42 -15 98 -13 185 l3 124 34 23 c29 19 47 23 115 23 92 0 116 -13 135 -69
7 -22 11 -139 11 -341 0 -169 3 -328 6 -353 l7 -46 20 25 c19 25 20 33 11 238
-5 116 -9 280 -9 364 l0 154 40 14 c52 18 67 17 109 -3 55 -26 62 -76 47 -319
-6 -108 -9 -199 -6 -203 10 -10 36 32 32 51 -9 32 13 402 25 435 7 18 18 33
25 33 7 0 22 5 32 12 15 9 28 9 61 -2 22 -7 43 -17 46 -21 3 -5 5 -168 5 -363
-1 -219 3 -366 10 -382 5 -15 12 -93 14 -173 2 -80 4 -149 4 -153 1 -5 10 -8
21 -8 18 0 19 8 19 150 -1 151 -5 170 -40 182 -8 3 -8 18 -1 58 6 30 11 80 10
110 0 30 2 129 6 220 5 101 4 189 -3 228 -12 76 -1 116 40 137 42 22 68 18
100 -16 l29 -31 0 -273 c0 -151 4 -276 9 -279 5 -3 10 117 12 279 4 251 6 286
21 301 18 19 69 24 104 11 16 -5 23 -3 28 9 9 24 -5 144 -17 144 -5 0 -7 -15
-4 -35 8 -49 -10 -56 -153 -60 -171 -5 -165 -13 -174 204 -4 98 -3 196 3 233
15 98 22 238 15 295 -5 45 -10 53 -35 62 -27 9 -28 9 -18 -16z m-171 -633 c0
-12 -28 -25 -36 -17 -9 9 6 27 22 27 8 0 14 -5 14 -10z m-47 -29 c5 -5 11 -26
14 -47 4 -36 2 -41 -27 -58 -69 -40 -211 3 -194 58 10 34 34 55 68 59 41 6
129 -2 139 -12z m202 -6 c57 -56 16 -122 -70 -113 -62 7 -75 21 -75 78 0 55 4
58 73 59 38 1 53 -4 72 -24z m-1170 4 c46 -6 81 -7 88 -1 17 13 257 9 290 -6
39 -17 38 -66 -3 -87 -40 -21 -161 -20 -206 1 -31 15 -34 20 -29 45 6 26 4 29
-19 29 -22 0 -26 -4 -26 -30 0 -24 -6 -33 -26 -40 -28 -11 -247 -13 -306 -4
-36 6 -38 8 -38 45 0 26 6 41 18 48 23 14 161 14 257 0z m138 -101 c4 -12 1
-28 -5 -35 -16 -20 -39 5 -32 35 8 28 30 29 37 0z m877 -35 c0 -13 -3 -13 -15
-3 -8 7 -15 19 -15 27 0 13 3 13 15 3 8 -7 15 -19 15 -27z"/>
<path d="M3193 2829 c-7 -18 -9 -37 -6 -43 4 -5 6 -47 4 -93 -1 -45 1 -104 5
-130 7 -45 8 -46 15 -18 9 42 11 315 1 315 -4 0 -13 -14 -19 -31z"/>
<path d="M7363 2839 c-17 -17 -16 -58 1 -65 8 -3 38 0 67 6 30 6 93 16 142 22
121 16 109 33 -24 34 -57 0 -120 4 -139 8 -24 5 -39 3 -47 -5z"/>
<path d="M7377 2702 c-4 -5 -7 -244 -7 -532 -2 -495 2 -562 25 -538 10 9 5
1062 -4 1071 -5 5 -11 5 -14 -1z"/>
<path d="M3222 2458 c2 -16 20 -31 64 -53 34 -16 68 -35 76 -42 8 -7 67 -39
131 -72 64 -33 127 -67 139 -75 32 -22 47 -20 54 9 3 14 13 29 22 34 28 16 -4
41 -49 39 -30 -1 -77 18 -221 91 -101 50 -191 91 -201 91 -13 0 -17 -6 -15
-22z"/>
<path d="M3087 2464 c-4 -4 -7 -18 -7 -31 0 -13 -7 -34 -16 -48 -8 -13 -14
-38 -12 -57 3 -32 4 -33 44 -30 23 2 58 -1 78 -6 28 -8 38 -7 47 5 18 21 -2
49 -33 45 -52 -6 -72 11 -83 72 -6 32 -13 54 -18 50z"/>
<path d="M3196 2052 c-10 -17 -15 -207 -7 -272 7 -50 5 -72 -6 -97 -14 -30
-13 -34 5 -57 l20 -26 6 31 c10 50 7 417 -3 424 -5 3 -12 1 -15 -3z"/>
<path d="M3841 1524 c-10 -11 -23 -14 -53 -9 -67 12 -379 8 -391 -4 -6 -6 -8
-13 -5 -16 12 -13 228 -15 332 -4 69 7 112 7 118 1 5 -5 12 -30 16 -56 4 -26
12 -48 17 -49 11 -2 30 116 21 138 -7 19 -37 19 -55 -1z"/>
<path d="M4101 1524 l-24 -17 22 -16 c11 -9 27 -36 34 -61 l13 -45 13 67 c7
37 10 71 6 77 -9 16 -37 13 -64 -5z"/>
<path d="M5884 1518 c-5 -13 -7 -63 -4 -113 l5 -90 16 35 c8 19 21 56 29 83 7
26 17 50 21 53 15 9 10 41 -7 48 -30 12 -51 6 -60 -16z"/>
<path d="M6374 1529 c-4 -7 -8 -50 -9 -96 -3 -87 7 -103 32 -52 37 79 55 129
50 143 -7 19 -62 22 -73 5z"/>
<path d="M3301 1521 c-12 -8 -10 -21 11 -85 l25 -76 7 57 c13 106 13 108 -9
111 -11 1 -26 -2 -34 -7z"/>
<path d="M4428 1520 c-179 -5 -222 -10 -206 -26 5 -4 222 -14 283 -12 6 0 299
1 652 3 605 3 750 10 635 30 -35 5 -164 7 -292 3 -14 0 -216 1 -450 3 -234 3
-514 2 -622 -1z"/>
<path d="M6610 1522 c-47 -1 -96 -5 -110 -8 -64 -17 64 -27 367 -29 176 -2
326 -5 331 -9 6 -3 13 -2 17 4 3 5 19 10 36 10 23 0 38 12 27 22 -5 4 -583 13
-668 10z"/>
<path d="M6036 1511 c-37 -14 1 -21 113 -20 89 0 111 3 111 15 0 11 -20 14
-102 13 -57 0 -112 -4 -122 -8z"/>
<path d="M3112 1418 c-5 -7 -17 -28 -26 -46 -9 -18 -32 -40 -52 -49 -52 -25
-74 -71 -74 -153 0 -79 16 -115 67 -150 27 -19 42 -22 89 -18 46 4 61 10 87
37 31 31 32 33 32 127 0 104 0 105 -87 165 l-23 17 25 20 c24 20 25 20 6 41
-22 24 -30 26 -44 9z m60 -157 c9 -11 20 -36 24 -55 16 -87 -28 -156 -98 -156
-94 0 -132 134 -61 212 23 26 113 25 135 -1z"/>
<path d="M4083 1342 c-47 -2 -65 -7 -72 -20 -11 -20 -8 -298 3 -309 4 -4 44
-8 89 -8 75 0 82 2 82 20 0 18 -8 20 -66 23 l-67 3 -7 44 c-3 25 -4 49 -1 54
3 5 32 7 64 4 44 -4 61 -2 70 10 19 23 -2 32 -73 32 -65 0 -74 9 -61 61 6 23
11 24 77 24 66 0 70 1 67 21 -5 32 -36 44 -105 41z"/>
<path d="M3297 1334 c-4 -4 -7 -79 -7 -166 l0 -159 28 3 c20 2 26 8 25 23 -2
11 -6 62 -9 114 l-7 94 24 -24 c13 -13 32 -40 43 -59 10 -19 21 -37 25 -40 3
-3 24 -31 46 -63 62 -91 70 -80 72 98 3 154 -2 183 -32 171 -14 -5 -16 -21
-15 -108 1 -57 1 -107 1 -112 -1 -13 -39 29 -51 56 -15 34 -113 171 -126 175
-5 2 -13 0 -17 -3z"/>
<path d="M3710 1319 c-18 -33 -9 -297 10 -310 8 -5 45 -8 81 -6 109 7 149 51
149 164 -1 60 -4 73 -30 107 -34 45 -82 66 -152 66 -38 0 -50 -4 -58 -21z
m145 -45 c27 -7 55 -58 55 -98 0 -73 -52 -126 -125 -126 l-35 0 0 115 0 115
43 0 c23 0 51 -3 62 -6z"/>
<path d="M4603 1328 c-11 -18 -3 -301 9 -316 22 -26 37 6 31 63 -5 45 -3 56
11 61 25 10 59 -18 84 -70 31 -61 82 -90 82 -46 0 11 -3 20 -7 20 -7 0 -26 28
-59 86 -10 19 -8 25 17 43 53 39 31 119 -43 155 -37 19 -114 21 -125 4z m131
-54 c10 -4 16 -18 16 -40 0 -28 -5 -36 -27 -45 -15 -5 -38 -9 -52 -7 -21 2
-27 9 -29 36 -2 19 -1 40 2 48 6 14 61 19 90 8z"/>
<path d="M4815 1331 c-13 -22 15 -51 50 -51 l35 0 0 -128 c0 -128 7 -156 36
-145 11 4 14 34 14 138 l0 134 38 3 c32 3 37 6 37 28 0 25 -1 25 -102 28 -61
2 -104 -1 -108 -7z"/>
<path d="M5076 1324 c-13 -12 -16 -41 -16 -153 0 -169 1 -171 109 -171 55 0
73 3 78 15 9 24 -3 30 -70 35 l-62 5 -3 48 c-3 52 -7 50 81 47 41 -1 47 1 47
18 0 22 -37 36 -64 26 -9 -3 -28 -3 -42 0 -22 6 -25 11 -22 44 l3 37 60 3 c69
4 81 11 66 41 -10 18 -21 21 -81 21 -49 0 -73 -4 -84 -16z"/>
<path d="M5324 1322 c-27 -22 -44 -55 -44 -81 0 -28 49 -78 85 -87 109 -27 93
-111 -20 -106 -32 1 -57 -2 -61 -9 -23 -39 113 -55 159 -19 30 24 43 25 51 5
3 -8 14 -15 25 -15 15 0 23 10 31 40 16 58 34 73 84 64 41 -6 56 -17 56 -42 0
-8 9 -27 21 -43 16 -23 24 -27 34 -19 16 13 14 21 -26 108 -16 34 -29 68 -29
75 0 13 -15 50 -43 107 -21 42 -42 36 -61 -17 -19 -53 -33 -90 -67 -176 -23
-57 -38 -60 -39 -7 -1 40 -44 79 -102 94 -32 7 -52 38 -43 66 6 17 16 20 76
20 74 0 87 11 51 43 -25 23 -110 22 -138 -1z m317 -114 c23 -25 23 -32 5 -47
-11 -9 -20 -9 -35 -2 -17 10 -18 15 -9 41 12 36 15 36 39 8z"/>
<path d="M5782 1321 c-4 -11 -6 -85 -4 -165 3 -145 3 -146 26 -146 l23 0 -4
118 -5 117 26 -29 c14 -16 26 -35 26 -42 0 -7 3 -14 8 -16 8 -4 52 -65 52 -73
0 -18 72 -87 80 -78 11 11 17 295 7 311 -5 6 -12 12 -17 12 -20 0 -26 -39 -20
-125 4 -49 5 -94 3 -98 -8 -14 -55 42 -79 93 -4 8 -10 17 -13 20 -12 10 -51
69 -51 77 0 4 -12 16 -25 26 -25 18 -25 18 -33 -2z"/>
<path d="M6202 1323 c-100 -26 -147 -113 -128 -234 8 -51 23 -76 61 -98 57
-35 169 -38 182 -4 9 23 -5 27 -78 24 -65 -2 -71 -1 -99 28 -26 26 -30 37 -30
86 0 106 46 155 146 155 60 0 64 -2 88 -33 14 -19 28 -47 31 -63 6 -34 -13
-77 -38 -82 -14 -3 -17 5 -17 52 0 47 -4 57 -26 75 -45 35 -112 6 -134 -58
-10 -32 -10 -42 4 -69 19 -37 43 -46 98 -37 26 5 49 3 64 -5 51 -28 101 48 88
132 -4 21 -13 43 -20 49 -8 6 -14 15 -14 20 0 18 -38 47 -81 61 -38 13 -51 13
-97 1z m68 -138 c9 -11 9 -22 0 -50 -10 -31 -16 -36 -38 -33 -22 2 -28 9 -30
36 -5 53 38 83 68 47z"/>
<path d="M6473 1314 c-64 -50 -37 -116 68 -168 47 -24 61 -55 38 -82 -9 -11
-29 -15 -73 -13 -52 2 -61 0 -64 -15 -6 -27 15 -36 85 -36 52 0 66 4 92 26 44
37 43 82 -4 127 -21 20 -51 38 -71 42 -23 4 -39 14 -46 30 -17 39 5 57 66 55
70 -3 76 -2 76 14 0 23 -47 46 -92 46 -31 0 -52 -7 -75 -26z"/>
<path d="M2262 1317 c-7 -8 -9 -55 -5 -132 6 -119 6 -120 39 -152 28 -29 38
-33 86 -33 100 0 128 44 128 204 0 101 -1 107 -22 115 -13 5 -26 7 -30 4 -5
-2 -8 -57 -8 -121 0 -106 -2 -119 -21 -135 -34 -30 -73 -32 -98 -6 -19 20 -21
34 -21 134 0 73 -4 115 -12 123 -15 15 -23 15 -36 -1z"/>
<path d="M2570 1323 c-8 -208 -6 -304 6 -314 29 -24 37 1 32 105 -3 56 -3 107
-1 114 3 7 39 -38 80 -100 115 -174 123 -172 123 32 0 141 -1 150 -21 160 -11
7 -24 9 -27 5 -4 -4 -7 -50 -7 -103 0 -67 -4 -96 -12 -99 -7 -3 -16 4 -20 14
-4 10 -25 45 -47 78 -23 33 -47 73 -55 88 -13 24 -51 39 -51 20z"/>
<path d="M4416 1314 c-9 -8 -16 -22 -16 -31 0 -8 -7 -31 -16 -51 -37 -86 -47
-109 -67 -148 -25 -51 -18 -77 20 -72 23 2 29 9 35 43 10 47 30 65 74 65 36 0
55 -18 69 -69 8 -29 16 -37 38 -39 19 -2 27 1 27 12 0 8 -3 16 -7 18 -5 2 -19
30 -31 63 -13 33 -28 69 -33 80 -5 11 -16 43 -25 70 -25 76 -39 88 -68 59z
m54 -141 c0 -8 -12 -13 -30 -13 -35 0 -39 17 -13 57 l17 26 13 -29 c7 -16 12
-35 13 -41z"/>
<path d="M2427 956 c-13 -34 -8 -96 9 -103 8 -3 20 -1 26 5 13 13 3 71 -16 97
-12 17 -13 17 -19 1z"/>
<path d="M5975 814 c-9 -14 -15 -35 -12 -45 4 -14 0 -19 -15 -19 -27 0 -69
-26 -93 -58 -16 -21 -20 -43 -20 -102 0 -59 4 -81 20 -102 30 -41 98 -72 146
-65 88 12 124 68 117 178 -5 57 -10 71 -38 102 -18 20 -46 39 -62 42 l-30 7
32 29 c26 24 30 32 20 44 -19 23 -46 18 -65 -11z m72 -136 c42 -39 41 -136 -3
-183 -18 -19 -33 -25 -66 -25 -51 0 -60 5 -82 47 -60 118 59 247 151 161z"/>
<path d="M1610 738 c-5 -110 1 -293 8 -300 24 -24 34 6 32 101 -1 53 -2 100
-1 105 2 14 43 -33 65 -73 24 -46 84 -124 102 -134 29 -17 34 5 34 154 l0 150
-27 -3 c-21 -2 -28 -8 -26 -22 1 -11 5 -62 8 -114 7 -93 7 -94 -11 -76 -18 18
-53 67 -64 89 -3 6 -25 38 -49 73 -42 58 -70 78 -71 50z"/>
<path d="M1917 743 c-4 -3 -7 -73 -7 -154 l0 -147 28 -9 c40 -14 137 -1 169
23 63 47 68 184 10 244 -17 18 -42 36 -55 41 -27 10 -136 12 -145 2z m162 -74
c26 -25 31 -38 31 -77 0 -56 -29 -109 -63 -117 -13 -4 -39 -5 -58 -3 l-34 3
-3 113 -3 112 50 0 c42 0 54 -5 80 -31z"/>
<path d="M2214 738 c-9 -15 -5 -290 4 -300 4 -3 42 -9 85 -13 l79 -8 -4 24
c-3 22 -8 24 -65 27 l-63 3 0 51 0 51 60 -6 c65 -6 77 1 60 33 -9 16 -21 20
-65 20 l-55 0 0 40 0 40 65 0 c51 0 67 4 72 16 3 9 0 20 -8 25 -22 14 -157 11
-165 -3z"/>
<path d="M2453 744 c-10 -4 -13 -45 -13 -155 0 -128 2 -151 16 -156 22 -8 35
16 29 53 -9 51 1 64 52 64 92 0 135 93 74 162 -25 28 -35 32 -87 34 -32 2 -65
1 -71 -2z m136 -76 c15 -25 14 -29 -9 -53 -19 -20 -32 -25 -60 -23 -33 3 -35
5 -38 42 -5 59 2 68 50 64 34 -2 45 -8 57 -30z"/>
<path d="M2695 741 c-12 -20 -12 -291 0 -301 6 -5 46 -12 89 -15 76 -5 77 -5
74 17 -3 21 -9 23 -65 26 l-63 3 0 51 0 51 59 -7 c64 -7 79 1 61 34 -9 16 -21
20 -65 20 -57 0 -64 6 -57 52 4 27 6 28 68 28 50 0 66 4 71 16 3 9 0 20 -8 25
-19 12 -156 11 -164 0z"/>
<path d="M2933 743 c-10 -3 -13 -44 -13 -154 0 -128 2 -151 16 -156 26 -10 32
16 27 112 -4 64 -2 94 6 99 6 4 15 -2 21 -16 16 -34 29 -55 84 -131 72 -101
80 -94 84 78 2 107 -1 145 -11 159 -27 37 -37 9 -37 -100 0 -57 -4 -104 -9
-104 -5 0 -26 28 -47 63 -21 34 -40 64 -43 67 -4 3 -19 24 -34 48 -15 23 -28
42 -30 41 -1 0 -8 -3 -14 -6z"/>
<path d="M3228 744 c-5 -4 -8 -71 -8 -149 0 -115 3 -145 15 -155 20 -16 158
-8 180 10 51 43 70 147 38 212 -30 61 -67 82 -148 86 -38 2 -73 0 -77 -4z
m145 -56 c55 -26 61 -151 9 -196 -20 -18 -36 -22 -71 -20 l-46 3 2 110 c1 61
2 111 3 113 1 8 80 0 103 -10z"/>
<path d="M3638 743 c-16 -4 -18 -20 -18 -148 0 -102 4 -145 13 -152 6 -6 47
-13 90 -17 77 -6 78 -5 75 17 -3 19 -10 22 -58 25 -65 4 -77 12 -74 51 3 49
11 54 70 47 58 -7 71 2 54 34 -9 16 -21 20 -65 20 -29 0 -56 4 -59 9 -3 5 -3
23 0 40 6 31 7 31 70 31 65 0 84 11 64 35 -12 15 -118 20 -162 8z"/>
<path d="M3864 742 c-5 -4 -10 -71 -12 -148 -2 -114 1 -144 13 -154 30 -25 38
-1 33 102 -3 54 -2 101 3 103 4 3 38 -42 76 -99 65 -100 90 -125 113 -111 6 4
10 66 10 156 l0 150 -27 -3 -28 -3 4 -97 c3 -86 1 -98 -13 -98 -9 0 -20 8 -24
18 -12 30 -116 181 -128 186 -6 2 -15 1 -20 -2z"/>
<path d="M4131 741 c-23 -15 4 -39 47 -43 l37 -3 -3 -120 c-3 -123 4 -153 32
-142 14 5 16 26 16 137 l0 130 29 0 c39 0 61 9 61 25 0 7 -7 16 -16 19 -25 9
-187 7 -203 -3z"/>
<path d="M4393 740 c-22 -9 -23 -14 -23 -144 0 -145 7 -166 53 -166 12 0 46
-3 75 -6 51 -7 52 -6 52 19 0 25 -3 26 -57 29 l-58 3 0 45 0 45 57 0 c57 0 63
4 54 38 -3 13 -15 17 -59 17 -59 0 -66 6 -59 51 4 27 7 28 66 31 53 3 61 5 61
23 0 18 -7 20 -70 22 -38 1 -80 -2 -92 -7z"/>
<path d="M4624 726 c-21 -17 -28 -33 -28 -60 0 -46 25 -69 123 -116 26 -12 37
-38 25 -57 -8 -14 -27 -19 -75 -21 -77 -4 -92 -15 -51 -36 51 -26 140 -14 170
22 17 21 15 73 -3 99 -15 21 -90 63 -113 63 -20 0 -34 38 -22 60 8 16 21 20
60 20 27 0 52 -5 55 -10 10 -16 25 -1 25 24 0 27 -21 36 -92 36 -35 0 -54 -6
-74 -24z"/>
<path d="M4958 744 c-16 -5 -18 -21 -18 -149 0 -168 -2 -165 103 -165 84 0
125 26 144 90 21 71 8 135 -37 184 -36 39 -40 40 -106 42 -38 2 -77 0 -86 -2z
m162 -74 c31 -29 32 -33 28 -90 -5 -77 -36 -110 -103 -110 -24 0 -45 4 -47 10
-1 5 -2 57 0 115 l3 105 44 0 c34 0 50 -6 75 -30z"/>
<path d="M5263 743 c-23 -4 -23 -7 -23 -148 0 -167 -5 -159 106 -170 73 -8 90
-1 78 29 -4 11 -23 16 -67 18 l-62 3 0 45 0 45 62 -3 c66 -3 80 6 63 37 -8 16
-23 21 -68 23 l-57 3 0 35 0 35 65 3 c65 3 88 16 68 39 -10 13 -112 16 -165 6z"/>
<path d="M5660 742 c-59 -26 -93 -83 -93 -158 0 -102 76 -169 183 -162 37 3
45 6 45 23 0 18 -8 21 -67 25 -76 6 -86 12 -98 65 -12 53 -1 106 28 138 23 24
33 27 89 27 55 0 63 2 63 19 0 11 -9 21 -22 25 -30 8 -109 6 -128 -2z"/>
<path d="M6178 744 c-13 -12 -10 -302 3 -310 20 -12 33 15 30 65 -2 41 1 50
17 55 31 10 50 -3 74 -52 24 -49 44 -71 66 -72 20 0 14 28 -18 72 -36 50 -37
58 -5 88 35 33 34 80 -4 122 -25 28 -35 32 -92 36 -35 2 -67 0 -71 -4z m136
-60 c20 -53 -15 -99 -71 -92 -26 3 -28 6 -31 56 l-3 52 49 0 c36 0 52 -4 56
-16z"/>
<path d="M6428 739 c-16 -9 -18 -27 -18 -137 0 -165 4 -172 99 -172 54 0 75 5
101 23 42 28 63 85 56 150 -11 97 -66 147 -162 147 -32 0 -67 -5 -76 -11z
m153 -56 c33 -20 45 -60 36 -124 -7 -57 -45 -89 -103 -89 l-44 0 0 115 0 115
41 0 c22 0 54 -8 70 -17z"/>
<path d="M6780 743 c-8 -3 -27 -20 -42 -36 -26 -28 -28 -37 -28 -116 0 -79 2
-88 26 -115 88 -94 232 -60 250 60 12 81 -1 133 -45 176 -36 35 -44 38 -93 37
-29 0 -60 -3 -68 -6z m138 -70 c29 -42 35 -94 16 -142 -19 -48 -38 -61 -88
-61 -48 0 -65 8 -81 41 -24 46 -19 117 11 156 22 29 30 33 74 33 42 0 51 -4
68 -27z"/>
<path d="M7044 737 c-5 -9 -7 -80 -4 -159 l5 -143 76 -3 c64 -2 79 0 102 18
22 17 27 30 27 65 0 26 -6 47 -15 55 -8 7 -15 18 -15 25 0 7 7 15 15 19 27 10
19 75 -12 105 -24 21 -39 26 -99 29 -57 3 -74 1 -80 -11z m146 -52 c7 -8 10
-25 6 -40 -6 -23 -11 -25 -61 -25 l-55 0 0 40 0 40 49 0 c31 0 53 -5 61 -15z
m-34 -116 c55 -14 72 -40 49 -75 -14 -22 -22 -25 -68 -22 l-52 3 -3 44 c-2 28
1 47 10 52 16 11 11 11 64 -2z"/>
<path d="M7370 723 c-6 -16 -15 -36 -20 -45 -6 -10 -10 -24 -10 -33 0 -13 -6
-30 -45 -120 -21 -49 -25 -64 -19 -80 11 -28 30 -15 51 35 l21 50 51 0 c40 0
53 -4 57 -17 15 -46 40 -83 56 -83 24 0 23 31 -1 78 -30 57 -51 108 -51 125 0
9 -4 18 -9 21 -5 3 -12 18 -16 33 -7 30 -32 63 -47 63 -5 0 -13 -12 -18 -27z
m56 -108 c8 -34 -1 -55 -25 -55 -26 0 -34 14 -26 50 8 38 42 41 51 5z"/>
<path d="M1490 596 c0 -138 1 -146 21 -157 13 -6 25 -7 30 -2 5 5 8 74 7 154
l-3 144 -27 3 -28 3 0 -145z"/>
<path d="M3518 733 c-2 -5 -1 -73 2 -153 4 -126 7 -145 22 -148 15 -3 17 11
20 130 4 164 2 178 -22 178 -10 0 -20 -3 -22 -7z"/>
</g>
</svg>
