<?xml version="1.0" standalone="no"?>
<!DOCTYPE svg PUBLIC "-//W3C//DTD SVG 20010904//EN"
 "http://www.w3.org/TR/2001/REC-SVG-20010904/DTD/svg10.dtd">
<svg version="1.0" xmlns="http://www.w3.org/2000/svg"
 width="300.000000pt" height="300.000000pt" viewBox="0 0 300.000000 300.000000"
 preserveAspectRatio="xMidYMid meet">
<metadata>
Created by potrace 1.10, written by Peter Selinger 2001-2011
</metadata>
<g transform="translate(0.000000,300.000000) scale(0.100000,-0.100000)"
fill="#000000" stroke="none">
<path d="M2 1498 l3 -1503 2 1497 3 1498 1498 3 1497 2 -1502 3 -1503 2 2
-1502z"/>
<path d="M112 2888 c-16 -16 -18 -2739 -2 -2768 10 -18 51 -19 1389 -19 1127
0 1381 2 1390 13 8 9 11 410 11 1387 0 1283 -1 1375 -17 1387 -24 17 -2753 18
-2771 0z m2768 -1388 l0 -1380 -1380 0 -1380 0 0 1380 0 1380 1380 0 1380 0 0
-1380z"/>
<path d="M230 2581 l0 -270 -30 -18 -30 -17 0 -772 c0 -734 1 -772 18 -787 10
-10 24 -17 30 -17 9 0 12 -77 15 -283 l2 -282 3 281 2 281 753 -1 752 -1 5
-285 5 -285 3 291 c1 184 6 294 12 300 15 15 15 1553 1 1567 -7 7 -11 105 -11
289 l0 278 -765 0 -765 0 0 -269z m1492 249 l28 0 -1 -260 0 -260 -755 0 -754
0 0 260 0 260 598 3 c328 2 656 2 727 0 72 -1 142 -3 157 -3z m-726 -550 l764
0 0 -780 0 -780 -782 0 -783 0 2 782 c2 431 3 785 3 787 0 2 7 0 16 -3 9 -3
360 -6 780 -6z"/>
<path d="M221 1500 l-1 -750 755 0 754 0 1 750 0 750 -755 0 -754 0 0 -750z
m1480 725 c4 -3 8 -331 8 -729 -1 -664 -2 -725 -18 -728 -13 -3 -1399 -2
-1437 1 -11 1 -13 135 -14 1128 0 156 2 294 6 308 l6 24 152 3 c237 5 1287 -2
1297 -7z"/>
<path d="M1345 1989 c-4 -17 -4 -33 -1 -36 3 -4 6 2 6 12 0 10 3 16 6 12 3 -3
7 -39 9 -79 2 -59 1 -65 -5 -33 -6 27 -7 9 -4 -56 5 -91 4 -97 -15 -102 -12
-3 -21 -10 -21 -17 0 -6 5 -8 10 -5 6 4 10 -5 10 -19 0 -49 28 -24 32 27 0 12
4 2 8 -23 4 -25 5 36 2 135 -3 100 -9 183 -15 186 -5 4 -6 12 -3 18 4 6 3 11
-3 11 -5 0 -12 -14 -16 -31z"/>
<path d="M646 1959 c-8 -19 -17 -48 -21 -65 -3 -16 5 -4 17 26 l23 55 12 -160
c6 -88 14 -177 17 -197 4 -24 2 -38 -4 -38 -6 0 -16 -13 -21 -29 -12 -35 -37
-47 -57 -27 -19 18 -9 46 17 46 14 0 18 5 14 19 -4 16 -1 19 16 14 12 -3 21
-1 21 6 0 6 -5 11 -11 11 -14 0 -38 30 -39 47 0 7 7 10 17 6 14 -6 15 0 10 48
-4 30 -7 73 -7 97 0 30 -4 41 -11 36 -8 -5 -10 -31 -6 -80 3 -43 2 -74 -4 -74
-5 0 -9 -18 -9 -41 0 -28 4 -38 12 -33 8 5 9 2 5 -10 -4 -10 -7 -23 -7 -29 0
-7 -4 -6 -10 3 -8 13 -10 13 -10 -1 0 -10 -16 -21 -42 -29 -61 -18 -93 -44
-117 -93 -21 -42 -27 -109 -15 -154 6 -22 7 -22 34 -6 26 15 30 15 53 0 14 -9
27 -13 29 -9 2 4 18 18 36 31 17 12 32 29 32 36 0 8 9 19 20 25 17 9 22 7 29
-12 5 -13 21 -30 35 -38 18 -9 23 -17 16 -24 -7 -7 -20 0 -40 19 -26 25 -32
27 -40 15 -5 -8 -10 -20 -10 -25 0 -6 -15 -15 -32 -20 -29 -9 -33 -15 -36 -47
-3 -30 -7 -38 -23 -38 -23 0 -25 13 -4 30 13 11 13 14 -2 26 -24 18 -38 17
-23 -1 17 -20 5 -32 -15 -15 -14 12 -15 10 -10 -13 9 -35 -2 -35 -16 -1 -5 15
-12 24 -15 21 -5 -4 23 -76 45 -117 4 -8 18 -16 30 -18 11 -2 21 -10 21 -19 0
-13 -2 -13 -17 -2 -15 13 -15 12 -5 -8 12 -23 62 -56 100 -68 41 -12 89 4 130
43 42 40 101 129 68 103 -15 -13 -19 -13 -26 -1 -12 19 -3 30 24 30 18 0 24 9
34 46 7 26 10 49 7 52 -3 4 -8 -4 -12 -16 -3 -12 -10 -22 -15 -22 -6 0 -7 8
-3 18 5 14 4 15 -6 5 -20 -20 -31 -15 -23 9 6 20 5 21 -9 10 -11 -9 -17 -10
-22 -2 -4 6 1 18 11 25 22 17 37 18 49 6 6 -6 10 6 11 34 1 39 -1 42 -17 32
-12 -7 -15 -15 -9 -23 12 -13 3 -24 -15 -18 -7 3 -15 -1 -18 -9 -7 -18 -73
-16 -69 2 1 7 -6 11 -15 9 -11 -2 -18 3 -18 12 0 8 -4 21 -9 29 -5 8 -4 16 4
21 17 10 4 31 -15 24 -8 -3 -13 -15 -12 -26 1 -12 -4 -23 -11 -26 -9 -3 -13 3
-10 16 2 12 -5 27 -16 35 -18 13 -17 14 13 9 17 -2 37 1 45 7 7 6 21 9 30 5
12 -5 15 -2 10 9 -5 13 1 16 32 14 21 -2 39 -8 42 -15 2 -8 9 -9 21 -3 26 14
54 -39 55 -105 0 -29 4 -50 8 -48 11 7 10 48 -3 101 -15 56 -61 105 -123 128
-25 10 -44 21 -41 24 9 15 -18 367 -30 391 l-14 25 -15 -36z m54 -429 c-6 -12
-9 -24 -7 -27 3 -2 11 6 18 19 6 12 13 24 14 26 5 5 83 -37 90 -48 10 -15 -11
-12 -25 4 -13 16 -63 14 -84 -3 -7 -6 -15 -9 -18 -6 -3 3 -11 -1 -18 -10 -19
-23 -55 -18 -91 13 -18 15 -29 21 -24 13 6 -11 4 -13 -8 -8 -9 3 -19 2 -22 -3
-4 -6 -14 -10 -23 -10 -12 1 -7 9 18 30 42 36 53 37 74 5 26 -39 63 -34 82 11
11 25 19 33 26 26 7 -7 6 -17 -2 -32z m-149 -57 c0 -11 3 -13 6 -5 8 21 36 14
30 -7 -3 -13 0 -18 8 -15 16 7 29 -12 15 -21 -8 -5 -7 -11 1 -21 9 -11 9 -14
0 -14 -8 0 -10 -8 -6 -20 5 -15 2 -20 -11 -20 -9 0 -23 -8 -30 -17 -10 -13
-16 -15 -21 -6 -5 6 -17 11 -28 10 -11 -1 -19 3 -17 11 1 6 -4 12 -12 12 -8 0
-17 6 -19 13 -3 6 -6 2 -6 -10 -1 -12 5 -23 12 -26 9 -4 9 -7 0 -18 -17 -17
-25 -7 -30 40 -5 54 30 125 58 118 10 -3 22 -1 25 4 9 15 24 10 25 -8z m109
-154 c0 -5 -4 -9 -10 -9 -5 0 -10 7 -10 16 0 8 5 12 10 9 6 -3 10 -10 10 -16z
m119 -21 c19 -24 21 -32 11 -38 -8 -5 -17 -7 -21 -4 -4 2 -19 0 -34 -6 -18 -7
-33 -7 -46 0 -14 8 -25 6 -44 -6 -44 -29 -98 9 -63 44 16 16 51 16 45 0 -2 -7
-12 -12 -21 -12 -9 1 -16 -2 -16 -7 0 -18 49 -9 60 11 10 19 13 19 33 5 12 -8
31 -15 42 -14 11 0 14 3 8 6 -15 5 -18 33 -4 33 6 0 17 -10 25 -22 10 -14 16
-17 16 -9 0 8 -7 23 -17 33 -9 10 -12 18 -7 17 5 0 20 -14 33 -31z m59 -55
c-2 -10 -13 -19 -26 -21 -24 -4 -29 7 -10 26 18 18 40 15 36 -5z m-63 -24 c0
-8 -10 -15 -22 -17 -25 -4 -30 7 -11 26 15 15 33 10 33 -9z m-55 -4 c0 -23
-20 -28 -35 -9 -13 18 -14 18 -15 2 0 -21 -36 -25 -43 -5 -3 7 -6 5 -6 -5 -1
-11 -9 -18 -22 -18 -14 0 -19 5 -17 17 2 13 14 18 41 19 21 1 40 3 42 6 2 2
15 4 29 6 17 1 26 -3 26 -13z m-158 -23 c-6 -17 -64 -12 -70 6 -3 9 7 12 36
10 28 -2 38 -7 34 -16z m221 -18 c-6 -17 -44 -15 -51 4 -2 8 7 12 27 12 23 0
29 -4 24 -16z m-63 -9 c0 -8 -6 -15 -14 -15 -17 0 -28 14 -19 24 12 12 33 6
33 -9z m-160 -10 c0 -17 -4 -18 -37 -9 -33 9 -28 24 7 24 20 0 30 -5 30 -15z
m48 3 c-6 -18 -28 -21 -28 -4 0 9 7 16 16 16 9 0 14 -5 12 -12z m62 2 c0 -5
-9 -10 -20 -10 -11 0 -20 5 -20 10 0 6 9 10 20 10 11 0 20 -4 20 -10z m130
-15 c-7 -9 -15 -13 -17 -11 -7 7 7 26 19 26 6 0 6 -6 -2 -15z m-60 -32 c0 -40
-27 -63 -72 -63 -32 0 -41 5 -58 32 -10 17 -17 35 -14 40 10 17 35 7 44 -17
14 -38 58 -35 71 5 13 37 29 39 29 3z m34 -5 c-4 -6 -10 -5 -15 3 -14 22 -10
33 6 19 8 -7 12 -17 9 -22z m-76 5 c-2 -10 -12 -18 -23 -18 -11 0 -21 8 -23
18 -3 13 3 17 23 17 20 0 26 -4 23 -17z m-110 -18 c16 -36 15 -38 -8 -15 -21
21 -26 40 -12 40 5 0 14 -11 20 -25z"/>
<path d="M504 1445 c-12 -8 -24 -11 -28 -7 -4 3 -4 -1 0 -11 3 -10 1 -17 -5
-17 -6 0 -11 -5 -11 -12 0 -9 3 -9 12 0 9 9 14 6 22 -11 27 -53 108 -15 84 39
-6 13 -15 24 -19 24 -4 0 -13 2 -21 5 -7 3 -23 -1 -34 -10z m6 -31 c0 -8 -5
-12 -10 -9 -6 4 -8 11 -5 16 9 14 15 11 15 -7z m40 -20 c0 -8 -6 -14 -14 -14
-9 0 -12 7 -9 20 6 22 23 18 23 -6z"/>
<path d="M1317 1629 c-7 -28 -6 -31 12 -20 9 6 10 14 4 26 -9 15 -11 15 -16
-6z"/>
<path d="M1345 1611 c-3 -6 -4 -15 0 -20 3 -5 -8 -9 -24 -9 -66 2 -149 -51
-180 -116 -31 -63 -27 -196 4 -146 3 6 1 10 -5 10 -13 0 -8 62 10 115 10 32
15 36 36 31 17 -5 24 -2 24 9 0 8 7 15 15 15 8 0 15 -4 15 -8 0 -5 10 -8 23
-8 16 1 21 -4 19 -16 -2 -12 4 -18 18 -18 22 0 26 -10 8 -28 -8 -8 -8 -15 1
-26 13 -16 -1 -32 -20 -21 -6 4 -9 0 -7 -11 2 -12 -3 -19 -13 -19 -9 0 -23 -6
-32 -13 -13 -11 -17 -10 -26 5 -6 11 -11 13 -11 5 0 -30 -24 -3 -26 29 -1 19
-2 43 -3 53 -2 33 -10 12 -15 -37 -4 -44 -2 -49 25 -63 16 -8 29 -19 29 -24 0
-14 -14 -12 -28 2 -7 7 -12 8 -12 2 0 -5 5 -15 11 -21 8 -8 6 -14 -9 -22 -17
-9 -23 -8 -32 6 -10 16 -11 16 -5 -2 4 -11 8 -29 9 -40 13 -100 116 -205 202
-205 75 0 147 83 195 225 32 97 37 171 14 214 -16 32 -92 101 -111 101 -6 0
-15 7 -18 15 -3 10 -16 15 -32 13 -15 -2 -29 3 -31 10 -3 6 0 12 7 12 6 0 8
-4 5 -10 -3 -5 -1 -10 5 -10 17 0 6 24 -12 28 -9 2 -19 -2 -23 -7z m20 -62 c0
-34 -42 -40 -54 -7 -11 30 -8 34 26 32 23 -1 28 -5 28 -25z m-49 -35 c31 -21
53 -12 67 26 12 30 21 37 31 21 3 -5 -5 -25 -19 -45 -14 -20 -25 -44 -25 -52
0 -22 -26 -28 -52 -10 -22 16 -22 16 12 17 l35 1 -35 8 c-51 12 -92 71 -57 83
6 2 13 -5 15 -15 2 -10 14 -26 28 -34z m-63 15 c5 -18 2 -20 -18 -15 -14 4
-27 0 -35 -9 -7 -8 -18 -15 -24 -15 -11 1 53 60 65 60 4 0 9 -9 12 -21z m210
9 c32 -19 77 -60 77 -72 0 -6 -5 -5 -12 2 -14 14 -28 16 -28 3 0 -5 11 -12 25
-15 27 -7 36 -31 32 -86 -2 -37 -29 -50 -35 -17 -2 9 1 17 7 17 6 0 11 14 11
30 0 17 -5 30 -11 30 -6 0 -8 -9 -4 -20 4 -13 1 -22 -8 -25 -20 -8 -14 -47 9
-59 10 -6 21 -12 23 -13 9 -6 -23 -63 -35 -63 -17 0 -18 17 -1 23 6 2 9 8 5
12 -4 4 -19 -5 -33 -19 -26 -26 -52 -36 -39 -15 9 16 -16 59 -35 59 -14 -1
-14 -2 2 -14 9 -7 17 -23 17 -35 0 -17 -6 -21 -33 -21 -18 0 -38 5 -44 11 -8
8 -17 7 -34 -5 -28 -19 -49 -20 -73 -3 -16 11 -17 17 -7 36 7 12 20 21 28 19
22 -4 29 -28 8 -28 -9 0 -14 -4 -11 -9 9 -14 45 -1 62 23 13 19 16 19 27 5 18
-24 55 -41 62 -29 3 5 -1 10 -9 10 -9 0 -16 7 -16 16 0 19 -37 74 -50 74 -5 0
-7 -6 -4 -13 3 -8 -4 -25 -15 -38 -11 -13 -20 -19 -21 -13 0 6 7 17 15 24 8 7
15 17 15 23 0 6 -10 1 -23 -11 -13 -12 -31 -22 -39 -22 -27 0 -50 -30 -44 -56
7 -25 -6 -30 -37 -18 -12 4 -10 11 10 32 13 15 32 35 40 45 9 9 24 17 33 17
10 0 26 11 36 25 23 30 45 32 69 5 10 -11 24 -20 32 -20 7 0 23 -16 34 -35 18
-30 23 -33 35 -21 19 20 18 25 -6 19 -27 -7 -26 11 1 23 19 9 20 11 5 23 -11
9 -16 10 -16 2 0 -6 -7 -11 -15 -11 -8 0 -15 4 -15 9 0 5 -8 8 -17 7 -10 0
-17 5 -15 12 1 6 -4 12 -11 12 -16 0 -21 56 -6 65 5 4 9 15 9 26 0 22 11 24
28 7 9 -9 12 -8 12 5 0 9 7 17 15 17 8 0 15 -5 15 -12 0 -9 3 -9 11 -1 6 6 19
9 28 6 11 -4 13 -3 6 5 -13 14 -56 19 -73 8 -20 -12 -25 -1 -10 23 15 25 13
24 41 9z m-107 -119 c10 -17 -13 -36 -27 -22 -12 12 -4 33 11 33 5 0 12 -5 16
-11z m167 -196 c-13 -36 -56 -45 -72 -15 -8 16 -5 18 27 20 20 2 38 5 41 7 9
9 10 5 4 -12z m-315 -25 c3 -13 -3 -18 -22 -18 -20 0 -26 5 -26 21 0 15 5 20
22 17 13 -2 24 -11 26 -20z m70 -1 c3 -12 -3 -17 -22 -17 -25 0 -35 18 -19 34
12 12 38 2 41 -17z m42 2 c0 -24 -23 -21 -28 4 -2 10 3 17 12 17 10 0 16 -9
16 -21z m45 1 c0 -8 -8 -16 -17 -18 -13 -2 -18 3 -18 18 0 15 5 20 18 18 9 -2
17 -10 17 -18z m63 3 c2 -8 -6 -13 -22 -13 -25 0 -33 10 -19 24 10 10 36 3 41
-11z m70 -35 c-3 -7 -18 -13 -34 -13 -16 0 -35 -4 -42 -8 -15 -10 -42 -2 -42
12 0 9 17 13 88 19 24 2 33 -1 30 -10z m-283 -7 c3 -5 1 -12 -4 -15 -12 -8
-41 3 -41 15 0 12 37 12 45 0z m105 -6 c0 -8 -4 -15 -10 -15 -5 0 -10 7 -10
15 0 8 5 15 10 15 6 0 10 -7 10 -15z m48 3 c-3 -7 -11 -13 -18 -13 -7 0 -15 6
-17 13 -3 7 4 12 17 12 13 0 20 -5 18 -12z m-83 -8 c-3 -5 -17 -10 -31 -10
-13 0 -24 5 -24 10 0 6 14 10 31 10 17 0 28 -4 24 -10z m-29 -61 l15 -34 -24
28 c-14 15 -29 27 -35 27 -6 0 -14 5 -17 10 -4 7 3 10 20 7 20 -2 31 -13 41
-38z m49 8 c15 -33 67 -31 75 3 3 14 12 25 20 25 14 0 17 -31 5 -63 -8 -21
-51 -32 -84 -21 -28 10 -65 64 -55 81 8 12 29 -1 39 -25z m169 18 c-4 -8 -10
-12 -15 -9 -5 3 -9 -2 -9 -10 0 -9 -4 -16 -10 -16 -5 0 -10 10 -10 23 0 17 6
23 25 25 18 1 23 -2 19 -13z m-108 -6 c3 -6 1 -16 -5 -22 -13 -13 -42 0 -49
21 -5 15 44 16 54 1z"/>
<path d="M1416 1454 c-9 -8 -16 -21 -16 -27 0 -22 31 -57 49 -57 22 0 51 30
51 53 0 21 -27 47 -50 47 -10 0 -26 -7 -34 -16z m41 -26 c-3 -8 -6 -5 -6 6 -1
11 2 17 5 13 3 -3 4 -12 1 -19z m33 -16 c0 -15 -2 -15 -10 -2 -13 20 -13 33 0
25 6 -3 10 -14 10 -23z m-55 8 c3 -5 1 -10 -4 -10 -6 0 -11 5 -11 10 0 6 2 10
4 10 3 0 8 -4 11 -10z"/>
<path d="M721 1461 c-7 -5 -10 -14 -7 -20 4 -6 3 -11 -3 -11 -18 0 10 -49 31
-56 40 -12 76 54 46 84 -14 14 -47 15 -67 3z m42 -41 c3 -13 0 -20 -9 -20 -8
0 -14 10 -14 26 0 28 15 25 23 -6z"/>
<path d="M816 1453 c-11 -11 -6 -23 9 -23 8 0 15 4 15 9 0 13 -16 22 -24 14z"/>
<path d="M1196 1444 c-9 -8 -13 -20 -10 -26 4 -6 9 -5 15 3 4 7 11 11 14 7 3
-3 -2 -13 -11 -23 -17 -17 -17 -18 1 -31 33 -24 75 -1 75 42 0 42 -53 60 -84
28z m74 -24 c0 -5 -4 -10 -10 -10 -5 0 -10 5 -10 10 0 6 5 10 10 10 6 0 10 -4
10 -10z"/>
<path d="M2200 2733 c1 -18 18 -33 32 -28 24 9 17 35 -9 35 -12 0 -23 -3 -23
-7z"/>
<path d="M2275 2724 c-19 -14 -18 -15 15 -13 19 2 41 7 49 13 11 8 13 8 8 -1
-8 -13 39 -31 50 -19 4 3 14 -1 23 -9 15 -13 19 -14 29 -1 8 10 9 16 1 21 -5
3 -10 1 -10 -6 0 -7 -8 -5 -21 7 -17 15 -22 16 -29 4 -8 -13 -12 -12 -24 5
-12 17 -18 18 -34 8 -11 -6 -23 -8 -28 -3 -5 5 -18 2 -29 -6z"/>
<path d="M2122 2713 c-41 -14 -51 -32 -22 -41 9 -3 11 1 6 14 -6 15 -5 17 5 7
7 -7 20 -13 29 -13 13 0 13 2 0 10 -8 5 -11 12 -7 17 4 4 16 2 26 -4 16 -10
20 -9 24 8 6 22 -3 23 -61 2z"/>
<path d="M2465 2690 c-21 -23 -17 -25 19 -7 14 8 23 17 19 20 -10 11 -19 8
-38 -13z"/>
<path d="M2494 2672 c-8 -5 -4 -13 11 -24 21 -16 24 -16 29 -2 11 29 -13 44
-40 26z"/>
<path d="M2036 2661 c-4 -5 -3 -17 0 -26 5 -13 9 -14 15 -4 5 8 3 17 -4 22 -7
4 0 5 16 1 17 -4 27 -2 27 5 0 13 -46 15 -54 2z"/>
<path d="M1969 2623 c-13 -16 -12 -17 4 -4 9 7 17 15 17 17 0 8 -8 3 -21 -13z"/>
<path d="M2140 2594 c0 -24 23 -34 35 -14 3 6 -1 7 -9 4 -10 -4 -16 -1 -16 9
0 10 8 15 20 14 12 -1 20 -8 20 -19 0 -26 28 -22 33 5 l4 22 2 -22 c1 -17 7
-23 24 -22 17 1 18 2 4 6 -12 3 -16 10 -12 24 5 14 2 19 -14 19 -12 0 -21 -8
-24 -22 -4 -22 -4 -22 -6 -2 -1 16 -8 21 -31 22 -25 1 -30 -3 -30 -24z"/>
<path d="M2278 2595 c2 -14 8 -25 12 -25 5 0 6 9 3 20 -3 11 0 20 6 20 6 0 11
-9 11 -20 0 -13 7 -20 20 -20 15 0 20 6 19 28 -2 23 -2 24 -6 5 -5 -28 -23
-30 -23 -3 0 14 -7 20 -24 20 -19 0 -22 -4 -18 -25z"/>
<path d="M2361 2593 c0 -15 3 -22 6 -15 2 6 10 9 16 5 7 -4 24 -8 39 -9 24 -1
26 0 16 22 -11 24 -28 23 -28 -2 0 -8 -5 -14 -10 -14 -6 0 -10 8 -8 17 2 10
-4 19 -14 21 -14 3 -18 -3 -17 -25z"/>
<path d="M2577 2592 c-12 -2 -16 -9 -13 -19 3 -8 6 -17 6 -21 0 -3 7 3 15 14
10 13 13 14 10 3 -4 -10 0 -16 10 -16 18 0 19 8 3 28 -7 9 -21 14 -31 11z"/>
<path d="M1978 2573 c-22 -6 -23 -26 -3 -43 22 -18 18 -40 -6 -40 -11 0 -17
-4 -14 -10 3 -5 15 -10 26 -10 24 0 27 51 3 74 -14 15 -14 16 5 16 12 0 21 5
21 10 0 10 -3 11 -32 3z"/>
<path d="M2117 2534 c-4 -4 -7 -92 -7 -196 l0 -188 185 0 185 0 -2 193 -3 192
-176 3 c-96 1 -178 -1 -182 -4z m344 -36 c1 -18 3 -102 5 -185 l3 -153 -175 0
-174 0 0 178 c0 98 3 182 7 185 3 4 80 7 170 7 l163 0 1 -32z"/>
<path d="M2335 2500 c27 -12 43 -12 25 0 -8 5 -22 9 -30 9 -10 0 -8 -3 5 -9z"/>
<path d="M2190 2480 c-16 -13 -19 -18 -7 -14 17 6 17 4 -2 -27 -33 -54 -28
-111 12 -156 29 -31 41 -37 88 -40 66 -5 107 17 133 72 24 50 14 99 -30 143
-32 32 -37 34 -91 30 -32 -2 -67 -8 -78 -12 -20 -8 -20 -7 -1 8 11 9 16 16 10
16 -5 0 -20 -9 -34 -20z m95 -10 c-3 -5 -13 -10 -21 -10 -8 0 -27 -8 -42 -17
-26 -17 -26 -17 -12 1 21 27 90 51 75 26z m90 -23 c18 -15 28 -36 32 -65 6
-42 0 -49 -27 -32 -12 8 -12 11 1 27 22 25 13 50 -22 62 -30 10 -31 9 -50 -35
-16 -35 -24 -44 -37 -39 -9 4 -29 12 -44 17 -31 11 -35 20 -15 37 11 8 19 5
37 -14 31 -33 35 -32 35 13 0 33 3 37 23 34 12 -2 22 2 22 7 0 17 17 13 45
-12z m-105 -5 c0 -13 -12 -22 -22 -16 -10 6 -1 24 13 24 5 0 9 -4 9 -8z m108
-40 c2 -6 -13 -19 -33 -30 l-37 -18 41 -13 c37 -11 40 -14 30 -32 -11 -21 -11
-21 -40 7 -34 32 -40 21 -7 -13 19 -20 20 -25 8 -33 -33 -21 -41 -11 -39 43 1
40 8 58 27 80 26 27 42 31 50 9z m-188 -21 c0 -6 -4 -13 -10 -16 -5 -3 -10 1
-10 9 0 9 5 16 10 16 6 0 10 -4 10 -9z m66 -31 c33 0 34 0 32 -45 -2 -36 -6
-45 -20 -45 -22 0 -23 12 -2 52 16 31 16 31 -8 24 -62 -20 -68 -19 -68 4 0 16
4 20 16 16 9 -3 31 -6 50 -6z m-16 -49 c0 -14 -18 -23 -31 -15 -8 4 -7 9 2 15
18 11 29 11 29 0z"/>
<path d="M2395 2470 c10 -11 20 -20 23 -20 3 0 -3 9 -13 20 -10 11 -20 20 -23
20 -3 0 3 -9 13 -20z"/>
<path d="M2150 2429 c-6 -11 -10 -25 -8 -30 2 -5 8 4 15 21 13 34 9 40 -7 9z"/>
<path d="M2429 2417 c24 -63 1 -133 -56 -168 -51 -32 -141 -24 -183 16 -17 16
-35 43 -39 60 -6 20 -9 23 -10 10 -1 -27 30 -73 65 -96 42 -28 131 -26 175 4
47 31 71 81 66 135 -3 24 -10 49 -16 55 -10 9 -10 5 -2 -16z"/>
<path d="M2214 2192 c2 -21 21 -19 23 3 3 20 3 20 -6 0 -6 -16 -9 -17 -13 -5
-3 8 -4 9 -4 2z"/>
<path d="M2250 2190 c0 -17 4 -19 28 -14 35 9 38 12 24 26 -9 9 -12 9 -12 -2
0 -11 -3 -11 -12 -2 -18 18 -28 15 -28 -8z"/>
<path d="M2330 2200 c-13 -9 -13 -11 0 -20 20 -13 30 -13 30 1 0 5 -4 7 -10 4
-5 -3 -10 -2 -10 4 0 5 6 12 13 14 6 3 8 6 2 6 -5 0 -17 -4 -25 -9z"/>
<path d="M2581 2518 c-1 -16 4 -28 9 -28 12 0 12 8 0 35 -8 18 -9 17 -9 -7z"/>
<path d="M2600 2528 c0 -7 4 -19 9 -27 11 -17 23 1 15 23 -7 19 -24 21 -24 4z"/>
<path d="M2712 2215 c0 -16 2 -22 5 -12 2 9 2 23 0 30 -3 6 -5 -1 -5 -18z"/>
<path d="M1885 2170 c3 -5 8 -10 11 -10 2 0 4 5 4 10 0 6 -5 10 -11 10 -5 0
-7 -4 -4 -10z"/>
<path d="M1911 2119 c8 -5 34 -8 59 -8 53 1 44 6 -24 12 -30 3 -43 1 -35 -4z"/>
<path d="M2020 2118 c0 -13 7 -17 25 -16 25 2 32 12 16 22 -5 4 -12 0 -14 -6
-4 -10 -8 -9 -16 2 -9 13 -11 13 -11 -2z"/>
<path d="M2080 2121 c0 -6 5 -13 12 -17 7 -4 8 -3 4 4 -4 7 -2 12 3 12 6 0 11
-4 11 -8 0 -5 14 -9 30 -10 17 0 30 5 30 11 0 8 3 8 8 2 8 -12 82 -15 82 -4 0
14 -18 19 -23 7 -4 -10 -6 -10 -6 0 -1 6 -7 12 -15 12 -8 0 -17 -6 -19 -12 -4
-10 -6 -10 -6 0 -1 6 -7 12 -15 12 -8 0 -17 -6 -19 -12 -4 -10 -8 -10 -15 1
-8 11 -10 11 -15 0 -4 -10 -6 -10 -6 -1 -1 14 -41 17 -41 3z"/>
<path d="M2270 2115 c0 -8 4 -15 8 -15 5 0 9 7 9 15 0 8 -4 15 -9 15 -4 0 -8
-7 -8 -15z"/>
<path d="M2300 2115 c0 -8 5 -15 10 -15 6 0 10 7 10 15 0 8 -4 15 -10 15 -5 0
-10 -7 -10 -15z"/>
<path d="M2330 2119 c0 -12 8 -16 25 -15 26 1 36 26 10 26 -8 0 -15 -6 -15
-12 0 -9 -4 -8 -10 2 -8 13 -10 13 -10 -1z"/>
<path d="M2390 2115 c0 -8 4 -15 8 -15 5 0 9 7 9 15 0 8 -4 15 -9 15 -4 0 -8
-7 -8 -15z"/>
<path d="M2415 2120 c-10 -16 24 -23 42 -9 10 8 14 9 10 2 -5 -8 8 -11 48 -10
30 1 56 7 58 12 3 13 -150 18 -158 5z"/>
<path d="M2608 2113 c12 -2 30 -2 40 0 9 3 -1 5 -23 4 -22 0 -30 -2 -17 -4z"/>
<path d="M1932 2080 c12 -19 25 -20 364 -20 272 0 353 3 357 13 3 9 -68 12
-340 10 -193 -1 -355 2 -368 7 -23 9 -24 8 -13 -10z"/>
<path d="M1920 2052 c0 -13 89 -96 96 -90 3 4 -13 27 -36 52 -40 43 -60 56
-60 38z"/>
<path d="M2114 2034 c3 -9 6 -17 6 -18 0 -2 82 2 90 5 3 1 8 1 13 0 4 0 7 4 7
9 0 6 -8 11 -17 11 -55 4 -69 3 -75 -6 -5 -6 -8 -5 -8 3 0 6 -5 12 -11 12 -6
0 -8 -7 -5 -16z"/>
<path d="M2250 2040 c-18 -11 -3 -29 20 -23 11 3 20 9 20 13 0 12 -26 19 -40
10z"/>
<path d="M2306 2034 c-3 -9 -6 -17 -6 -18 0 -1 9 -2 20 -2 11 0 20 1 20 2 0
11 -14 34 -20 34 -4 0 -11 -7 -14 -16z"/>
<path d="M2345 2041 c-9 -16 27 -28 65 -21 19 3 47 3 62 -1 15 -4 30 -4 33 1
9 15 -11 20 -73 19 -33 -1 -64 1 -70 5 -6 3 -13 2 -17 -3z"/>
<path d="M2601 2005 c-42 -46 -54 -67 -23 -44 43 34 90 89 74 89 -5 0 -28 -20
-51 -45z"/>
<path d="M2020 1986 c0 -12 40 -19 95 -17 11 0 62 0 113 1 68 1 92 4 89 13 -2
8 -34 12 -104 12 -58 0 -99 -4 -95 -9 3 -5 -1 -5 -9 0 -23 14 -51 16 -43 2 5
-7 3 -8 -7 -2 -22 13 -39 13 -39 0z"/>
<path d="M2336 1992 c-13 -12 -4 -22 20 -22 15 0 24 5 22 12 -4 12 -33 20 -42
10z"/>
<path d="M2390 1985 c0 -12 16 -15 86 -15 61 0 85 3 82 12 -5 15 -39 20 -54 7
-8 -6 -14 -6 -18 0 -7 11 -25 9 -45 -3 -9 -6 -12 -5 -8 0 3 6 -5 11 -19 12
-15 1 -24 -3 -24 -13z"/>
<path d="M2030 1950 c0 -15 116 -70 147 -70 21 0 8 10 -56 40 -93 45 -91 44
-91 30z"/>
<path d="M2490 1930 c-44 -23 -50 -29 -30 -29 28 -1 90 33 90 49 0 13 5 14
-60 -20z"/>
<path d="M2152 1929 c-28 -10 64 -22 164 -21 50 0 105 6 123 14 29 12 16 13
-119 13 -83 0 -158 -3 -168 -6z"/>
<path d="M2405 1890 c-3 -5 3 -10 15 -10 12 0 18 5 15 10 -3 6 -10 10 -15 10
-5 0 -12 -4 -15 -10z"/>
<path d="M2190 1767 c0 -2 22 -23 50 -46 l49 -42 51 38 c48 35 61 53 41 53 -5
0 -11 -4 -13 -8 -1 -4 -20 -21 -41 -36 l-37 -28 -44 36 c-40 33 -56 42 -56 33z"/>
<path d="M2161 1723 c1 -12 116 -103 130 -103 15 0 141 101 134 108 -3 3 -18
-6 -33 -20 -15 -14 -43 -37 -63 -51 l-36 -27 -66 50 c-37 28 -67 47 -66 43z"/>
<path d="M2161 1648 c30 -23 71 -57 91 -75 l38 -33 89 73 c49 39 88 74 86 76
-2 1 -32 -19 -66 -45 -122 -97 -97 -94 -191 -20 -46 36 -87 66 -92 66 -5 0 16
-19 45 -42z"/>
<path d="M2132 1373 c3 -54 5 -58 28 -58 23 0 25 4 28 58 2 37 -1 57 -8 57 -7
0 -11 -17 -10 -42 3 -60 1 -68 -10 -68 -5 0 -10 25 -10 55 0 32 -4 55 -10 55
-7 0 -10 -22 -8 -57z"/>
<path d="M2347 1423 c-12 -12 -7 -22 8 -17 8 4 15 10 15 15 0 11 -14 12 -23 2z"/>
<path d="M2290 1410 c0 -5 5 -10 10 -10 6 0 10 5 10 10 0 6 -4 10 -10 10 -5 0
-10 -4 -10 -10z"/>
<path d="M2210 1349 c0 -22 5 -39 10 -39 6 0 10 13 10 29 0 17 5 33 10 36 6 4
10 -8 10 -29 0 -20 5 -36 11 -36 6 0 9 16 7 38 -3 33 -6 37 -30 38 -26 1 -28
-2 -28 -37z"/>
<path d="M2290 1350 c0 -22 4 -40 9 -40 4 0 8 18 8 40 0 22 -4 40 -8 40 -5 0
-9 -18 -9 -40z"/>
<path d="M2331 1372 c-15 -29 -3 -64 23 -60 17 2 21 10 21 38 0 40 -27 54 -44
22z m37 -28 c-5 -28 -28 -29 -28 -1 0 13 3 27 7 31 10 10 25 -10 21 -30z"/>
<path d="M2400 1348 c0 -21 3 -38 8 -38 4 0 7 12 7 28 0 39 19 43 23 5 2 -18
7 -33 12 -33 5 0 7 12 5 28 -2 15 -4 33 -4 39 -1 7 -12 12 -26 11 -22 -2 -25
-7 -25 -40z"/>
<path d="M2102 1355 c0 -16 2 -22 5 -12 2 9 2 23 0 30 -3 6 -5 -1 -5 -18z"/>
<path d="M1982 1214 c-1 -12 -11 -24 -22 -27 -25 -6 -28 -58 -5 -77 25 -21 36
2 32 66 -2 32 -4 49 -5 38z m-2 -69 c0 -26 -14 -33 -25 -15 -9 14 1 40 15 40
5 0 10 -11 10 -25z"/>
<path d="M2220 1166 c0 -24 6 -48 13 -54 10 -8 12 -1 11 36 -3 63 -3 62 -14
62 -5 0 -10 -20 -10 -44z"/>
<path d="M2022 1178 c-27 -27 -1 -91 29 -72 9 5 5 10 -12 17 l-24 10 23 5 c17
2 22 9 20 24 -4 26 -19 33 -36 16z m28 -18 c0 -5 -7 -10 -16 -10 -8 0 -12 5
-9 10 3 6 10 10 16 10 5 0 9 -4 9 -10z"/>
<path d="M2110 1181 c0 -6 7 -11 16 -11 12 0 11 -4 -7 -19 -20 -16 -21 -21
-10 -34 7 -9 19 -13 27 -10 22 8 15 77 -8 81 -10 2 -18 -1 -18 -7z m26 -58
c-10 -10 -19 5 -10 18 6 11 8 11 12 0 2 -7 1 -15 -2 -18z"/>
<path d="M2170 1143 c0 -24 5 -43 10 -43 6 0 10 16 10 35 0 19 5 35 10 35 6 0
10 4 10 9 0 6 -9 9 -20 8 -17 -1 -20 -8 -20 -44z"/>
<path d="M2271 1168 c-5 -13 -6 -30 -3 -38 9 -25 42 -41 42 -20 0 6 -7 10 -15
10 -8 0 -15 5 -15 10 0 6 9 10 20 10 21 0 24 8 14 34 -9 23 -33 19 -43 -6z
m29 -8 c0 -5 -4 -10 -10 -10 -5 0 -10 5 -10 10 0 6 5 10 10 10 6 0 10 -4 10
-10z"/>
<path d="M2333 1174 c-4 -10 1 -22 10 -29 22 -16 22 -25 0 -25 -12 0 -14 -3
-6 -11 6 -6 16 -8 22 -5 15 10 14 43 -1 50 -10 5 -10 7 0 12 17 8 15 24 -3 24
-9 0 -18 -7 -22 -16z"/>
<path d="M2390 1180 c0 -5 6 -10 13 -10 7 0 14 -11 15 -25 1 -14 -3 -25 -9
-25 -6 0 -9 7 -5 15 3 8 1 15 -4 15 -13 0 -13 -37 -1 -44 29 -18 51 25 35 68
-7 17 -44 22 -44 6z"/>
<path d="M2460 1143 c0 -24 4 -42 8 -39 5 3 7 19 4 36 -3 22 0 30 11 30 11 0
17 -12 20 -37 4 -33 4 -32 3 7 -1 39 -4 45 -23 46 -21 1 -23 -3 -23 -43z"/>
<path d="M2542 1178 c-30 -30 1 -94 33 -68 25 20 13 80 -15 80 -3 0 -11 -5
-18 -12z m28 -33 c0 -14 -4 -25 -10 -25 -5 0 -10 11 -10 25 0 14 5 25 10 25 6
0 10 -11 10 -25z"/>
<path d="M2611 1176 c-9 -10 -8 -16 4 -26 20 -17 19 -30 -2 -30 -13 0 -14 -3
-5 -12 10 -9 16 -8 29 5 16 15 15 18 -2 37 -10 11 -13 20 -7 20 7 0 12 5 12
10 0 14 -16 12 -29 -4z"/>
<path d="M1860 965 c0 -38 2 -66 4 -64 8 7 10 118 3 126 -4 3 -7 -24 -7 -62z"/>
<path d="M2010 1005 c0 -16 -3 -25 -7 -22 -11 11 -33 -14 -33 -38 0 -25 17
-42 40 -42 12 0 15 13 14 59 -2 59 -14 97 -14 43z m0 -60 c0 -25 -14 -34 -24
-16 -8 12 3 41 15 41 5 0 9 -11 9 -25z"/>
<path d="M2360 1005 c0 -16 -3 -25 -7 -22 -11 11 -33 -14 -33 -38 0 -27 22
-48 41 -40 10 4 14 22 13 61 -2 56 -14 91 -14 39z m0 -60 c0 -14 -4 -25 -10
-25 -5 0 -10 11 -10 25 0 14 5 25 10 25 6 0 10 -11 10 -25z"/>
<path d="M2395 1010 c-3 -5 1 -10 10 -10 9 0 13 5 10 10 -3 6 -8 10 -10 10 -2
0 -7 -4 -10 -10z"/>
<path d="M2579 993 c-4 -61 11 -107 28 -90 4 4 1 13 -5 19 -15 15 -16 48 -1
48 8 0 9 4 0 13 -6 8 -8 17 -4 20 3 4 1 7 -5 7 -7 0 -12 -8 -13 -17z"/>
<path d="M1913 983 c-8 -3 -12 -21 -11 -46 l1 -42 4 38 c3 23 9 37 18 37 9 0
15 -14 18 -37 4 -34 4 -33 3 6 -1 44 -9 54 -33 44z"/>
<path d="M2052 978 c-15 -15 -15 -51 0 -66 15 -15 38 -16 38 -2 0 6 -7 10 -15
10 -8 0 -15 5 -15 10 0 6 7 10 16 10 10 0 14 7 12 22 -4 26 -19 33 -36 16z
m28 -18 c0 -5 -4 -10 -10 -10 -5 0 -10 5 -10 10 0 6 5 10 10 10 6 0 10 -4 10
-10z"/>
<path d="M2123 983 c-8 -3 -13 -25 -13 -59 0 -35 4 -53 10 -49 6 4 8 10 5 15
-3 4 4 10 16 13 17 5 20 12 17 43 -3 37 -12 47 -35 37z m25 -38 c-4 -35 -20
-36 -24 -2 -2 19 2 27 12 27 11 0 14 -8 12 -25z"/>
<path d="M2192 978 c-25 -25 -8 -78 25 -78 21 0 15 17 -9 25 l-23 8 23 4 c17
3 22 10 20 25 -4 26 -19 33 -36 16z m28 -18 c0 -5 -7 -10 -16 -10 -8 0 -12 5
-9 10 3 6 10 10 16 10 5 0 9 -4 9 -10z"/>
<path d="M2263 983 c-8 -3 -12 -21 -11 -46 l1 -42 4 38 c3 23 9 37 18 37 9 0
15 -14 18 -37 4 -34 4 -33 3 6 -1 44 -9 54 -33 44z"/>
<path d="M2403 945 c0 -27 2 -38 4 -22 2 15 2 37 0 50 -2 12 -4 0 -4 -28z"/>
<path d="M2442 978 c-15 -15 -15 -51 0 -66 15 -15 38 -16 38 -2 0 6 -7 10 -15
10 -8 0 -15 5 -15 10 0 6 7 10 16 10 10 0 14 7 12 22 -4 26 -19 33 -36 16z
m28 -18 c0 -5 -4 -10 -10 -10 -5 0 -10 5 -10 10 0 6 5 10 10 10 6 0 10 -4 10
-10z"/>
<path d="M2513 983 c-15 -6 -18 -83 -3 -83 6 0 10 16 10 35 0 19 5 35 10 35 6
0 10 -16 10 -35 0 -19 5 -35 10 -35 14 0 12 64 -2 78 -13 13 -16 13 -35 5z"/>
<path d="M2632 978 c-25 -25 -8 -78 25 -78 21 0 15 17 -9 25 l-23 8 23 4 c17
3 22 10 20 25 -4 26 -19 33 -36 16z m28 -18 c0 -5 -7 -10 -16 -10 -8 0 -12 5
-9 10 3 6 10 10 16 10 5 0 9 -4 9 -10z"/>
<path d="M2693 975 c-3 -9 3 -25 12 -35 16 -18 17 -20 2 -20 -10 0 -17 -4 -17
-10 0 -16 30 -12 37 5 3 9 -3 25 -12 35 -16 18 -17 20 -2 20 10 0 17 5 17 10
0 16 -30 12 -37 -5z"/>
<path d="M2026 821 c-4 -5 -3 -16 0 -25 4 -11 0 -16 -14 -16 -23 0 -35 -35
-21 -62 5 -10 19 -18 29 -18 18 0 20 7 20 65 0 63 -3 75 -14 56z m0 -76 c-4
-33 -20 -33 -24 0 -2 17 1 25 12 25 10 0 14 -8 12 -25z"/>
<path d="M2166 814 c-19 -18 -21 -85 -4 -102 7 -7 19 -12 27 -12 11 0 9 5 -7
20 -27 26 -28 54 -2 80 11 11 20 22 20 25 0 10 -19 4 -34 -11z"/>
<path d="M2236 814 c-17 -12 -17 -14 -4 -14 9 0 20 5 23 11 11 17 2 18 -19 3z"/>
<path d="M2480 765 c0 -63 1 -66 23 -63 17 2 23 11 25 36 3 27 -1 35 -18 39
-15 4 -20 11 -17 24 3 11 1 22 -4 25 -5 3 -9 -24 -9 -61z m35 -23 c0 -31 -19
-28 -23 4 -3 18 0 25 10 22 7 -3 13 -14 13 -26z"/>
<path d="M2370 800 c0 -11 -7 -20 -15 -20 -20 0 -30 -46 -15 -65 7 -8 21 -15
31 -15 17 0 19 8 19 60 0 33 -4 60 -10 60 -5 0 -10 -9 -10 -20z m0 -61 c0 -17
-4 -28 -10 -24 -5 3 -10 17 -10 31 0 13 5 24 10 24 6 0 10 -14 10 -31z"/>
<path d="M2071 776 c-7 -8 -11 -27 -9 -43 2 -21 9 -29 28 -31 14 -2 21 0 17 5
-5 4 -14 8 -19 8 -6 0 -13 6 -15 13 -3 7 4 12 16 12 24 0 28 22 7 39 -10 9
-16 8 -25 -3z m24 -16 c3 -5 -1 -10 -10 -10 -9 0 -13 5 -10 10 3 6 8 10 10 10
2 0 7 -4 10 -10z"/>
<path d="M2226 775 c-20 -20 -21 -49 -1 -65 22 -19 45 -4 45 28 0 40 -22 58
-44 37z m29 -15 c9 -14 -4 -52 -16 -45 -12 8 -12 55 0 55 6 0 13 -5 16 -10z"/>
<path d="M2303 783 c-8 -3 -12 -21 -11 -46 1 -41 1 -41 5 -7 3 19 10 38 16 42
14 9 6 17 -10 11z"/>
<path d="M2416 775 c-20 -20 -20 -35 -2 -60 19 -26 46 -13 46 23 0 40 -22 58
-44 37z m29 -33 c0 -31 -19 -28 -23 4 -3 18 0 25 10 22 7 -3 13 -14 13 -26z"/>
<path d="M2555 780 c-3 -5 1 -10 9 -10 21 0 20 -10 -1 -25 -21 -16 -10 -45 17
-45 16 0 20 6 20 33 0 44 -29 73 -45 47z m25 -56 c0 -8 -5 -12 -10 -9 -6 4 -8
11 -5 16 9 14 15 11 15 -7z"/>
<path d="M2250 534 c-25 -20 -66 -52 -92 -71 -27 -19 -48 -40 -48 -46 0 -6 10
-1 23 10 54 50 160 122 171 116 21 -12 81 -57 128 -95 25 -21 49 -34 52 -30 3
5 -13 22 -36 37 -23 15 -66 47 -95 71 -30 24 -55 44 -56 44 -1 0 -22 -17 -47
-36z"/>
<path d="M2222 443 c-39 -30 -72 -60 -72 -65 0 -5 14 1 31 14 16 13 49 37 72
54 l42 31 40 -31 c65 -52 105 -78 105 -69 0 5 -19 23 -42 41 -24 17 -57 42
-73 56 l-30 25 -73 -56z"/>
<path d="M2233 381 c-29 -21 -50 -41 -46 -44 3 -3 28 11 56 33 l51 38 50 -39
c27 -22 52 -37 55 -33 3 3 -1 9 -9 14 -8 4 -32 22 -54 39 -21 17 -42 31 -45
31 -3 -1 -29 -18 -58 -39z"/>
</g>
</svg>
