<?xml version="1.0" standalone="no"?>
<!DOCTYPE svg PUBLIC "-//W3C//DTD SVG 20010904//EN"
 "http://www.w3.org/TR/2001/REC-SVG-20010904/DTD/svg10.dtd">
<svg version="1.0" xmlns="http://www.w3.org/2000/svg"
 width="224.000000pt" height="225.000000pt" viewBox="0 0 224.000000 225.000000"
 preserveAspectRatio="xMidYMid meet">
<metadata>
Created by potrace 1.10, written by Peter Selinger 2001-2011
</metadata>
<g transform="translate(0.000000,225.000000) scale(0.100000,-0.100000)"
fill="#38761d" stroke="none">
<path d="M28 2243 c7 -3 16 -2 19 1 4 3 -2 6 -13 5 -11 0 -14 -3 -6 -6z"/>
<path d="M64 2198 l-19 -23 23 19 c21 18 27 26 19 26 -2 0 -12 -10 -23 -22z"/>
<path d="M139 2192 c-43 -22 -59 -38 -81 -81 l-28 -54 2 -936 3 -936 23 -38
c13 -20 44 -51 69 -69 l46 -31 947 -1 946 -1 49 35 c28 21 58 54 72 80 l23 44
-2 940 -3 941 -29 42 c-18 27 -46 51 -79 68 l-51 25 -927 0 -927 0 -53 -28z
m1271 -4 c461 1 680 -2 690 -9 12 -9 12 -10 -3 -5 -11 3 -16 2 -12 -4 3 -6 12
-10 19 -10 7 0 25 -14 41 -32 24 -27 37 -69 35 -113 -5 -109 -5 -357 1 -377 4
-16 4 -28 -1 -28 -4 0 -8 -108 -9 -241 -2 -185 1 -239 10 -233 8 4 9 3 5 -5
-12 -18 -17 -880 -6 -900 12 -24 1 -68 -12 -49 -7 9 -8 7 -5 -9 3 -12 2 -22
-2 -21 -21 2 -32 -4 -28 -16 4 -10 1 -13 -9 -9 -10 4 -12 0 -8 -13 5 -14 1
-13 -16 6 -19 21 -22 22 -16 5 12 -34 12 -37 -9 -41 -45 -9 -1905 -9 -1905 0
0 5 -3 6 -6 3 -9 -9 -44 11 -44 26 0 8 4 6 10 -3 9 -13 11 -13 20 0 11 17 14
41 2 24 -4 -5 -17 -10 -29 -10 -27 0 -27 0 -8 19 13 13 13 16 -1 21 -8 3 -12
2 -9 -4 4 -6 -3 -9 -14 -7 -22 3 -41 17 -24 17 6 0 6 24 1 67 -4 38 -6 321 -4
630 4 517 3 564 -12 573 -14 8 -14 9 -2 10 13 0 15 43 14 325 0 179 3 331 8
337 4 7 8 9 8 4 0 -5 9 3 21 18 11 14 27 26 34 26 8 0 17 5 21 12 5 7 3 8 -6
3 -8 -5 -11 -4 -6 3 4 8 91 11 282 10 151 0 277 2 281 5 3 4 11 3 17 0 6 -4
315 -6 686 -5z m777 -810 c-3 -8 -6 -5 -6 6 -1 11 2 17 5 13 3 -3 4 -12 1 -19z
m0 -720 c-3 -8 -6 -5 -6 6 -1 11 2 17 5 13 3 -3 4 -12 1 -19z m0 -180 c-2 -18
-4 -4 -4 32 0 36 2 50 4 33 2 -18 2 -48 0 -65z m0 -115 c-3 -10 -5 -4 -5 12 0
17 2 24 5 18 2 -7 2 -21 0 -30z"/>
<path d="M801 1944 c0 -11 3 -14 6 -6 3 7 2 16 -1 19 -3 4 -6 -2 -5 -13z"/>
<path d="M698 1933 c7 -3 16 -2 19 1 4 3 -2 6 -13 5 -11 0 -14 -3 -6 -6z"/>
<path d="M865 1920 c3 -5 8 -10 11 -10 2 0 4 5 4 10 0 6 -5 10 -11 10 -5 0 -7
-4 -4 -10z"/>
<path d="M935 1922 c-26 -4 -28 -5 -10 -12 18 -7 16 -9 -12 -15 -19 -4 -30
-12 -26 -18 3 -6 1 -7 -6 -3 -6 4 -27 -2 -46 -14 -33 -20 -35 -20 -36 -3 0 14
-2 15 -6 3 -7 -17 -23 -30 -38 -30 -5 1 -1 7 9 15 24 18 14 20 -13 3 -18 -11
-18 -13 -3 -25 15 -12 15 -12 -2 -6 -14 5 -17 3 -11 -7 5 -8 3 -11 -6 -8 -7 2
-24 -6 -38 -18 -13 -12 -30 -20 -37 -17 -8 3 -14 0 -14 -7 0 -6 6 -8 13 -5 6
4 3 -1 -8 -10 -41 -32 -125 -116 -125 -124 0 -13 -36 -51 -44 -46 -3 3 -4 2
-1 -1 2 -4 -5 -20 -16 -35 -11 -16 -17 -33 -14 -39 3 -5 2 -10 -3 -10 -5 0
-12 -9 -15 -20 -4 -14 -11 -18 -24 -14 -16 5 -16 4 -2 -5 15 -10 15 -14 1 -46
-15 -31 -19 -34 -51 -30 -29 3 -32 2 -18 -6 10 -6 21 -8 24 -5 3 3 12 -1 19
-9 12 -11 11 -18 -1 -42 -8 -15 -15 -52 -15 -80 0 -40 -4 -53 -15 -53 -16 0
-20 -16 -6 -24 4 -3 7 -18 5 -33 -4 -24 -3 -25 5 -8 7 14 9 2 8 -45 0 -36 -6
-68 -11 -72 -7 -5 -7 -11 2 -20 9 -9 12 -9 12 2 0 13 2 13 10 0 15 -24 12 -72
-7 -93 -18 -20 -18 -20 9 -3 17 11 28 13 33 7 3 -6 3 -11 0 -11 -4 0 1 -7 9
-16 20 -19 21 -35 2 -28 -7 3 -16 -2 -19 -10 -4 -9 -17 -16 -29 -16 -18 0 -20
-2 -8 -10 9 -5 19 -5 27 2 7 6 13 7 13 3 0 -4 8 -1 17 6 9 8 14 9 10 2 -4 -6
-1 -13 5 -16 10 -3 8 -10 -6 -26 -25 -27 -16 -37 11 -11 18 16 22 17 27 4 9
-24 7 -31 -5 -14 -8 12 -9 10 -4 -7 4 -15 0 -28 -14 -40 -12 -10 -21 -24 -20
-33 0 -10 3 -9 9 5 8 18 9 18 9 2 1 -10 -5 -20 -13 -23 -7 -3 -14 -16 -15 -30
-4 -54 -6 -62 -12 -59 -7 5 -29 -40 -29 -60 0 -8 -8 -15 -17 -15 -11 0 -14 -3
-7 -8 15 -10 27 -45 13 -36 -17 10 -28 -16 -23 -51 4 -24 3 -26 -5 -10 -9 19
-10 19 -10 -3 -1 -17 4 -23 16 -20 12 2 34 54 80 188 35 101 63 192 63 201 0
9 -15 49 -34 90 -205 444 77 964 569 1050 82 14 227 7 310 -15 132 -36 297
-136 372 -227 15 -19 36 -43 46 -54 30 -32 105 -194 124 -265 24 -89 23 -281
-1 -370 -66 -243 -247 -439 -481 -523 -181 -64 -375 -56 -555 22 l-65 29 -200
-65 c-110 -36 -202 -67 -204 -69 -3 -3 1 -10 7 -16 9 -9 15 -9 24 0 7 7 17 12
22 12 6 0 4 -5 -4 -10 -12 -8 -11 -10 6 -10 13 0 24 8 27 19 4 16 65 36 105
34 6 0 12 3 12 7 0 7 65 31 122 44 20 5 28 2 32 -11 3 -10 4 -6 2 8 -2 23 1
27 21 24 12 -1 23 2 23 7 0 5 10 3 22 -3 13 -7 18 -14 12 -16 -7 -2 -10 -18
-7 -38 4 -28 1 -35 -12 -35 -12 0 -15 -5 -11 -16 3 -9 6 -18 6 -21 0 -2 7 2
15 10 8 8 15 31 17 51 3 43 14 49 64 31 22 -8 33 -14 25 -15 -8 0 -12 -2 -9
-5 9 -9 37 -14 203 -35 103 -12 226 -2 240 21 3 4 12 6 20 2 9 -3 26 2 40 11
14 9 31 16 38 15 6 -1 21 0 32 1 17 2 17 3 -5 10 -25 8 -25 8 -2 9 13 1 20 6
17 11 -8 13 11 13 34 1 13 -7 18 -6 18 4 0 7 -7 11 -16 8 -13 -4 -13 -3 -2 5
8 6 20 8 26 6 7 -3 20 7 29 21 14 21 23 26 44 21 15 -3 21 -3 15 0 -31 13 7
39 52 37 16 -1 17 -1 3 3 -22 7 -22 11 -3 30 8 9 15 11 15 5 0 -6 6 -11 14
-11 8 0 17 -7 20 -16 3 -8 11 -12 17 -9 7 5 3 15 -12 31 -18 19 -20 26 -9 39
10 12 16 13 27 3 12 -9 13 -7 10 18 -2 18 2 34 13 44 9 8 19 23 23 33 4 10 11
16 16 13 5 -3 15 2 22 12 13 15 12 16 -3 3 -11 -8 -18 -9 -18 -3 0 6 5 14 10
17 6 4 7 12 3 18 -5 8 -2 8 9 -1 13 -10 15 -9 10 14 -3 19 -1 25 7 20 6 -4 11
-4 12 1 1 8 6 32 12 56 21 74 19 71 33 52 12 -16 13 -15 11 11 -1 16 -5 31 -8
34 -9 8 2 81 11 75 5 -3 8 5 8 17 -1 13 -1 49 0 80 2 54 3 57 30 61 l27 4 -27
2 c-26 1 -28 4 -28 40 0 39 1 40 40 44 l40 4 -42 -1 c-39 -1 -43 -4 -49 -31
-6 -27 -7 -26 -7 10 0 22 -7 60 -17 85 -9 25 -17 54 -18 65 -1 11 -10 28 -20
37 -20 18 -25 48 -14 88 4 14 4 19 1 12 -3 -6 -10 -9 -16 -6 -6 4 -8 -2 -4
-17 4 -18 2 -16 -9 6 -8 17 -14 26 -15 20 0 -13 -20 16 -20 30 0 6 5 3 11 -5
9 -13 10 -13 6 0 -2 8 -11 15 -19 14 -10 -1 -14 9 -14 35 1 25 -4 36 -14 37
-8 0 -20 2 -27 2 -7 1 -29 18 -50 37 -21 19 -42 35 -46 35 -5 0 -5 5 -1 12 5
7 2 9 -8 5 -10 -3 -15 0 -14 10 0 9 -5 18 -13 21 -9 3 -11 0 -6 -9 5 -7 -9 -2
-31 11 -70 42 -80 50 -64 50 13 0 13 1 0 10 -8 5 -17 6 -20 2 -10 -14 -29 -12
-24 3 4 11 2 13 -9 9 -8 -3 -28 1 -44 9 -15 7 -36 12 -47 9 -13 -3 -16 0 -11
9 6 9 0 11 -26 7 -19 -2 -47 -1 -64 3 -27 8 -26 8 8 4 20 -2 37 0 37 5 0 5
-64 9 -145 9 -119 0 -143 -2 -139 -14 4 -10 0 -12 -15 -8 -11 3 -18 9 -15 14
3 5 4 8 2 8 -2 -1 -16 -4 -33 -7z m262 -8 c-3 -3 -12 -4 -19 -1 -8 3 -5 6 6 6
11 1 17 -2 13 -5z m548 -263 c-3 -6 -11 -11 -17 -11 -6 0 -6 6 2 15 14 17 26
13 15 -4z m-465 -1261 c0 -5 -10 -10 -22 -9 -22 0 -22 1 -3 9 11 5 21 9 23 9
1 1 2 -3 2 -9z"/>
<path d="M1360 1920 c-20 -6 -21 -8 -5 -8 11 0 29 3 40 8 25 11 -1 11 -35 0z"/>
<path d="M1411 1901 c-7 -5 -9 -11 -5 -14 5 -3 15 1 22 9 14 16 5 18 -17 5z"/>
<path d="M820 1890 c0 -5 5 -10 10 -10 6 0 10 5 10 10 0 6 -4 10 -10 10 -5 0
-10 -4 -10 -10z"/>
<path d="M1831 1864 c0 -11 3 -14 6 -6 3 7 2 16 -1 19 -3 4 -6 -2 -5 -13z"/>
<path d="M545 1860 c-3 -5 -1 -10 4 -10 6 0 11 5 11 10 0 6 -2 10 -4 10 -3 0
-8 -4 -11 -10z"/>
<path d="M1598 1837 c-3 -19 -2 -25 4 -19 6 6 8 18 6 28 -3 14 -5 12 -10 -9z"/>
<path d="M1080 1846 c0 -2 11 -6 25 -8 13 -3 22 -1 19 3 -5 9 -44 13 -44 5z"/>
<path d="M1511 1840 c-10 -5 -9 -8 2 -13 7 -3 19 -2 26 3 10 5 9 8 -2 13 -7 3
-19 2 -26 -3z"/>
<path d="M690 1824 c0 -8 5 -12 10 -9 6 4 8 11 5 16 -9 14 -15 11 -15 -7z"/>
<path d="M1350 1820 c8 -5 20 -10 25 -10 6 0 3 5 -5 10 -8 5 -19 10 -25 10 -5
0 -3 -5 5 -10z"/>
<path d="M878 1803 c7 -3 16 -2 19 1 4 3 -2 6 -13 5 -11 0 -14 -3 -6 -6z"/>
<path d="M1410 1800 c0 -5 7 -10 15 -10 8 0 15 5 15 10 0 6 -7 10 -15 10 -8 0
-15 -4 -15 -10z"/>
<path d="M608 1773 c7 -3 16 -2 19 1 4 3 -2 6 -13 5 -11 0 -14 -3 -6 -6z"/>
<path d="M794 1769 c-3 -6 -1 -16 5 -22 9 -9 11 -8 6 5 -4 11 0 18 12 21 15 4
16 5 1 6 -9 0 -20 -4 -24 -10z"/>
<path d="M1025 1771 c-59 -10 -170 -53 -231 -90 -47 -28 -58 -46 -21 -36 17 5
19 4 7 -4 -8 -6 -22 -8 -31 -6 -24 8 -159 -136 -159 -169 0 -5 8 -2 18 5 15
13 16 12 4 -3 -8 -10 -19 -16 -25 -15 -6 1 -23 -28 -38 -66 -74 -181 -64 -368
31 -544 l39 -73 -39 -112 c-22 -61 -38 -113 -36 -115 1 -2 26 5 55 15 29 10
49 21 44 25 -4 5 0 5 8 2 9 -3 44 4 79 16 39 13 65 18 69 11 12 -19 107 -59
181 -77 331 -81 648 97 760 425 32 91 33 278 3 365 -31 92 -59 145 -108 207
-49 63 -158 158 -181 158 -7 0 -14 4 -14 9 0 5 -8 11 -17 14 -10 3 -49 17 -88
31 -78 29 -221 41 -310 27z m247 -23 c9 -1 14 -6 11 -11 -2 -4 8 -5 24 -2 20
4 23 3 9 -3 -18 -8 -18 -9 -2 -15 27 -11 48 -8 40 4 -4 7 7 4 24 -7 22 -12 28
-20 19 -26 -8 -5 -5 -8 9 -8 12 0 27 -7 34 -15 7 -9 18 -14 25 -11 6 2 22 -5
36 -15 20 -16 20 -18 4 -13 -15 5 -17 4 -9 -5 6 -7 18 -13 26 -15 23 -3 74
-50 77 -69 1 -9 3 -28 4 -42 1 -14 6 -20 11 -15 6 6 5 20 -3 37 l-12 28 25
-30 c14 -16 25 -38 26 -48 0 -10 5 -15 10 -12 6 3 10 -3 10 -14 0 -30 12 -55
20 -41 4 6 7 -4 7 -21 0 -19 7 -37 17 -45 14 -10 15 -17 7 -33 -15 -28 -14
-39 2 -17 11 15 13 9 13 -45 -1 -59 -3 -63 -26 -69 l-25 -7 25 -4 c24 -4 25
-7 26 -79 1 -50 -1 -68 -7 -55 -6 15 -8 10 -6 -20 1 -25 -2 -40 -10 -40 -6 0
-15 -4 -20 -9 -5 -6 -2 -6 6 -1 11 6 13 4 6 -11 -4 -10 -13 -33 -19 -50 -7
-19 -17 -29 -26 -27 -12 4 -12 3 -2 -5 12 -8 12 -13 1 -31 -8 -11 -17 -21 -22
-21 -4 0 -5 -4 -2 -10 3 -6 -1 -7 -10 -4 -11 5 -17 -2 -21 -25 -4 -17 -11 -31
-16 -31 -5 0 -8 -3 -6 -7 5 -10 -55 -67 -74 -71 -7 -2 -18 -10 -24 -18 -6 -7
-14 -14 -16 -14 -3 0 -27 -12 -54 -27 -27 -15 -59 -26 -71 -25 -11 2 -24 -2
-28 -7 -3 -6 -23 -11 -43 -12 -30 0 -33 -2 -17 -9 18 -8 17 -9 -7 -9 -16 -1
-28 3 -28 8 0 5 -7 12 -16 15 -8 3 -12 2 -9 -4 4 -6 -8 -10 -29 -10 -19 0 -38
-4 -41 -10 -3 -5 -21 -9 -38 -9 l-32 2 35 6 35 7 -35 6 c-19 3 -46 9 -60 13
-25 7 -25 7 -5 -9 19 -17 18 -17 -20 -11 -22 4 -41 11 -43 16 -5 12 -67 41
-95 44 -41 4 -42 6 -24 19 16 13 14 14 -23 10 -25 -2 -39 0 -35 6 8 12 0 13
-23 1 -49 -26 -152 -59 -152 -48 0 1 -4 16 -9 34 -8 27 -7 31 7 26 11 -5 14
-2 9 9 -3 9 1 42 9 74 15 55 15 58 -7 87 -18 24 -20 34 -10 48 18 30 13 33
-10 8 l-20 -24 5 23 c4 12 9 32 12 44 6 21 5 21 -10 9 -15 -13 -19 -13 -26 -1
-6 9 -5 17 2 21 6 4 7 12 3 19 -5 9 -9 9 -15 1 -3 -6 -7 3 -7 21 0 18 -4 54
-10 81 -6 26 -8 47 -4 47 3 0 5 24 3 53 -2 34 2 68 12 92 9 21 14 40 11 43 -3
3 -5 -1 -5 -8 0 -7 -2 -11 -5 -9 -2 3 0 22 6 42 7 28 15 37 32 38 17 1 18 2 5
6 -24 6 -23 13 11 50 22 25 31 29 42 20 11 -10 11 -9 1 4 -10 13 -10 23 -1 45
7 16 11 33 10 38 -1 5 5 6 13 3 8 -3 22 4 33 16 l18 22 -22 -19 c-13 -11 -23
-15 -23 -9 0 14 35 44 43 36 4 -3 7 -1 7 5 0 7 5 11 11 9 6 -1 14 4 16 11 3 8
-2 10 -14 6 -14 -5 -15 -4 -3 4 8 6 18 9 22 6 12 -7 48 15 48 30 0 7 18 19 40
26 21 7 37 17 34 21 -3 5 2 6 11 2 10 -3 20 -2 24 3 10 15 59 34 86 34 13 0
26 4 29 8 4 7 194 7 248 0z m358 -972 c0 -3 -4 -8 -10 -11 -5 -3 -10 -1 -10 4
0 6 5 11 10 11 6 0 10 -2 10 -4z m-1035 -186 c3 -5 1 -10 -4 -10 -6 0 -11 5
-11 10 0 6 2 10 4 10 3 0 8 -4 11 -10z"/>
<path d="M948 1713 c6 -2 10 -8 7 -13 -3 -4 5 -6 17 -2 21 5 21 6 2 13 -10 4
-23 8 -29 8 -5 -1 -4 -3 3 -6z"/>
<path d="M1280 1710 c0 -6 7 -10 15 -10 8 0 15 2 15 4 0 2 -7 6 -15 10 -8 3
-15 1 -15 -4z"/>
<path d="M1350 1700 c-9 -6 -10 -10 -3 -10 6 0 15 5 18 10 8 12 4 12 -15 0z"/>
<path d="M800 1620 c0 -5 10 -10 23 -10 18 0 19 2 7 10 -19 13 -30 13 -30 0z"/>
<path d="M881 1521 c-1 -9 -9 -11 -28 -7 -21 5 -24 4 -13 -4 12 -8 11 -10 -7
-10 -12 0 -25 -5 -29 -12 -5 -7 -3 -8 7 -3 10 6 9 3 -2 -11 -9 -10 -22 -28
-28 -39 -7 -11 -10 -13 -8 -4 3 9 0 16 -7 16 -8 0 -10 -11 -8 -29 2 -15 1 -36
-2 -45 -6 -15 -8 -15 -16 -3 -6 10 -9 3 -9 -25 0 -22 -1 -49 -3 -60 -2 -12 3
-20 12 -20 8 0 17 -13 21 -30 14 -58 38 -110 49 -107 6 1 9 -2 5 -8 -3 -5 1
-13 9 -16 9 -3 13 -10 10 -15 -3 -5 -10 -7 -15 -4 -5 3 -6 -2 -2 -11 4 -12 3
-15 -5 -10 -7 4 -12 3 -12 -3 0 -5 9 -9 19 -8 13 1 17 6 13 17 -5 13 -3 13 11
1 24 -19 47 -69 41 -89 -5 -13 -4 -14 4 -3 7 9 12 10 16 2 4 -6 12 -11 18 -11
7 0 2 9 -10 20 -12 12 -22 24 -22 27 0 4 11 -4 25 -17 13 -12 22 -27 19 -31
-2 -4 5 -13 16 -19 11 -6 17 -16 14 -22 -4 -6 -3 -8 3 -5 6 4 16 0 23 -8 11
-13 10 -15 -6 -10 -16 5 -16 4 1 -4 11 -5 27 -12 35 -15 8 -3 22 -10 30 -14 8
-5 32 -17 53 -27 20 -10 35 -20 33 -22 -2 -3 -16 3 -31 13 -21 14 -28 15 -38
4 -9 -10 -9 -11 1 -6 7 4 23 1 35 -7 12 -8 33 -13 47 -12 14 1 30 -1 35 -5 6
-3 29 -12 53 -19 23 -6 40 -16 37 -21 -3 -4 4 -6 15 -3 29 8 72 -5 65 -20 -4
-7 0 -4 8 5 8 11 23 15 38 12 13 -2 18 -2 12 2 -16 7 -17 24 -3 24 6 0 15 -10
20 -22 l9 -23 0 22 c1 26 30 65 43 57 4 -3 8 0 8 6 0 7 7 10 14 7 10 -4 13 -1
9 8 -3 8 1 17 9 20 12 5 18 27 21 78 1 11 10 17 27 18 20 1 21 2 5 6 -35 7
-65 26 -58 36 3 6 1 7 -5 3 -7 -4 -12 -2 -12 3 0 6 6 11 13 11 8 0 7 4 -3 10
-21 13 -33 12 -24 -2 5 -8 2 -9 -10 -5 -10 4 -29 10 -42 13 -13 3 -26 15 -29
25 -4 10 -14 19 -23 20 -9 1 -35 2 -57 4 -22 2 -34 1 -27 -2 10 -4 10 -8 1
-19 -6 -8 -15 -12 -19 -9 -5 3 -12 0 -16 -6 -5 -8 -3 -9 6 -4 8 5 11 3 8 -6
-3 -8 -14 -13 -24 -11 -15 2 -16 1 -5 -6 14 -10 7 -32 -10 -32 -6 0 -7 5 -4
10 3 6 1 10 -4 10 -6 0 -11 -5 -11 -11 0 -7 -10 -5 -25 5 -14 9 -31 14 -38 9
-9 -5 -9 -3 0 9 17 20 6 29 -25 21 -16 -4 -23 -2 -19 4 4 6 -2 13 -13 16 -11
3 -23 13 -27 24 -7 20 -28 43 -38 43 -3 0 -16 10 -28 21 -12 12 -17 19 -10 15
6 -3 14 -2 18 4 4 6 11 8 16 5 5 -3 6 2 2 11 -5 13 -3 15 7 9 9 -5 11 -4 6 4
-4 6 -11 9 -16 6 -5 -3 -14 3 -19 14 -8 14 -7 22 4 31 13 11 14 10 10 -3 -4
-8 -2 -18 3 -21 5 -3 8 8 6 26 -2 18 1 35 8 39 8 5 6 18 -7 46 -11 21 -18 46
-16 56 1 10 -3 16 -11 15 -8 -2 -12 5 -10 21 3 18 0 22 -12 18 -10 -4 -13 -1
-9 9 8 22 -33 57 -62 52 -16 -4 -25 0 -28 11 -3 10 -5 11 -6 2z m66 -43 c5 -7
24 -50 42 -94 31 -77 32 -84 17 -111 -8 -16 -22 -35 -30 -42 -23 -19 -20 -37
14 -86 55 -81 187 -175 242 -175 15 1 34 16 57 45 18 25 38 45 45 45 6 0 50
-19 98 -42 96 -45 102 -55 74 -121 -26 -64 -121 -116 -185 -104 -120 24 -236
77 -321 148 -73 62 -171 187 -208 267 -43 95 -32 184 33 255 21 21 35 27 69
27 24 0 48 -6 53 -12z m-206 -195 c-12 -20 -14 -14 -5 12 4 9 9 14 11 11 3 -2
0 -13 -6 -23z m270 -106 c-8 -8 -11 -8 -11 2 0 7 -4 10 -8 7 -7 -4 -8 14 -3
44 1 2 8 -6 17 -19 12 -17 13 -26 5 -34z"/>
<path d="M952 1294 c-7 -8 -8 -14 -3 -14 10 0 25 19 20 25 -2 1 -10 -3 -17
-11z"/>
<path d="M910 1120 c-13 -8 -13 -10 2 -10 9 0 20 5 23 10 8 13 -5 13 -25 0z"/>
<path d="M951 1064 c0 -11 3 -14 6 -6 3 7 2 16 -1 19 -3 4 -6 -2 -5 -13z"/>
<path d="M970 1019 c0 -5 5 -7 10 -4 6 3 10 8 10 11 0 2 -4 4 -10 4 -5 0 -10
-5 -10 -11z"/>
<path d="M1442 950 c0 -14 2 -19 5 -12 2 6 2 18 0 25 -3 6 -5 1 -5 -13z"/>
<path d="M1207 939 c7 -7 15 -10 18 -7 3 3 -2 9 -12 12 -14 6 -15 5 -6 -5z"/>
<path d="M1111 914 c0 -11 3 -14 6 -6 3 7 2 16 -1 19 -3 4 -6 -2 -5 -13z"/>
<path d="M1258 893 c7 -3 16 -2 19 1 4 3 -2 6 -13 5 -11 0 -14 -3 -6 -6z"/>
<path d="M1218 873 c7 -3 16 -2 19 1 4 3 -2 6 -13 5 -11 0 -14 -3 -6 -6z"/>
<path d="M1622 1464 c-7 -8 -8 -14 -3 -14 10 0 25 19 20 25 -2 1 -10 -3 -17
-11z"/>
<path d="M725 1425 c0 -12 3 -21 7 -19 3 2 9 -2 12 -8 3 -7 3 -2 0 12 -9 35
-19 44 -19 15z"/>
<path d="M1011 1434 c0 -11 3 -14 6 -6 3 7 2 16 -1 19 -3 4 -6 -2 -5 -13z"/>
<path d="M1070 1440 c0 -5 5 -10 10 -10 6 0 10 5 10 10 0 6 -4 10 -10 10 -5 0
-10 -4 -10 -10z"/>
<path d="M1602 1375 c0 -16 2 -22 5 -12 2 9 2 23 0 30 -3 6 -5 -1 -5 -18z"/>
<path d="M1031 1375 c1 -19 18 -51 18 -35 0 8 -4 22 -9 30 -5 8 -9 11 -9 5z"/>
<path d="M1651 1364 c0 -11 3 -14 6 -6 3 7 2 16 -1 19 -3 4 -6 -2 -5 -13z"/>
<path d="M1112 1315 c0 -16 2 -22 5 -12 2 9 2 23 0 30 -3 6 -5 -1 -5 -18z"/>
<path d="M1620 1306 c0 -9 5 -16 10 -16 6 0 10 4 10 9 0 6 -4 13 -10 16 -5 3
-10 -1 -10 -9z"/>
<path d="M640 1265 c0 -14 2 -25 4 -25 2 0 6 11 8 25 3 14 1 25 -3 25 -5 0 -9
-11 -9 -25z"/>
<path d="M720 1245 c0 -5 4 -16 9 -23 6 -11 10 -10 15 4 3 9 4 19 1 22 -3 3
-5 -1 -5 -9 0 -11 -2 -11 -10 1 -5 8 -10 11 -10 5z"/>
<path d="M556 1202 c-2 -4 -1 -14 3 -21 6 -9 11 -10 15 -2 4 6 1 11 -6 11 -9
0 -9 3 2 10 9 6 10 10 3 10 -6 0 -14 -4 -17 -8z"/>
<path d="M751 1194 c0 -11 3 -14 6 -6 3 7 2 16 -1 19 -3 4 -6 -2 -5 -13z"/>
<path d="M1600 1161 c0 -4 11 -6 25 -3 14 2 25 6 25 8 0 2 -11 4 -25 4 -14 0
-25 -4 -25 -9z"/>
<path d="M552 1093 c2 -65 2 -66 5 -15 3 42 7 53 19 48 12 -4 12 -2 4 14 -20
37 -30 20 -28 -47z"/>
<path d="M610 1139 c0 -5 5 -7 10 -4 6 3 10 8 10 11 0 2 -4 4 -10 4 -5 0 -10
-5 -10 -11z"/>
<path d="M1403 1143 c-24 -2 -43 -8 -43 -14 0 -5 -5 -9 -11 -9 -5 0 -7 5 -4
10 4 6 -6 10 -24 10 -16 0 -32 -4 -35 -9 -4 -5 3 -7 14 -4 11 3 27 0 34 -7 11
-8 20 -8 35 -1 11 6 37 10 58 10 21 -1 49 4 63 9 24 10 23 11 -10 10 -19 -1
-54 -3 -77 -5z"/>
<path d="M1568 1143 c7 -3 16 -2 19 1 4 3 -2 6 -13 5 -11 0 -14 -3 -6 -6z"/>
<path d="M750 1130 c8 -5 20 -10 25 -10 6 0 3 5 -5 10 -8 5 -19 10 -25 10 -5
0 -3 -5 5 -10z"/>
<path d="M1100 1122 c0 -9 120 -5 129 3 2 3 -26 5 -62 5 -37 0 -67 -4 -67 -8z"/>
<path d="M1508 1123 c7 -3 16 -2 19 1 4 3 -2 6 -13 5 -11 0 -14 -3 -6 -6z"/>
<path d="M1290 1110 c-13 -8 -13 -10 2 -10 9 0 20 5 23 10 8 13 -5 13 -25 0z"/>
<path d="M1080 1095 c0 -8 4 -15 10 -15 5 0 7 7 4 15 -4 8 -8 15 -10 15 -2 0
-4 -7 -4 -15z"/>
<path d="M1440 1050 c0 -6 7 -10 15 -10 8 0 15 2 15 4 0 2 -7 6 -15 10 -8 3
-15 1 -15 -4z"/>
<path d="M1191 1036 c-15 -18 5 -34 22 -17 9 9 7 10 -8 5 -18 -7 -18 -6 -6 9
7 9 11 17 8 17 -2 0 -10 -6 -16 -14z"/>
<path d="M800 1031 c0 -6 4 -13 10 -16 6 -3 7 1 4 9 -7 18 -14 21 -14 7z"/>
<path d="M1682 1020 c0 -14 2 -19 5 -12 2 6 2 18 0 25 -3 6 -5 1 -5 -13z"/>
<path d="M597 996 c-8 -19 6 -36 28 -36 6 0 5 4 -1 8 -7 4 -13 16 -16 27 -3
19 -4 19 -11 1z"/>
<path d="M632 930 c0 -14 2 -19 5 -12 2 6 2 18 0 25 -3 6 -5 1 -5 -13z"/>
<path d="M1631 894 c0 -11 3 -14 6 -6 3 7 2 16 -1 19 -3 4 -6 -2 -5 -13z"/>
<path d="M626 863 c-4 -9 -3 -20 1 -24 4 -4 9 3 9 17 2 28 -1 31 -10 7z"/>
<path d="M960 864 c0 -8 5 -12 10 -9 6 3 10 10 10 16 0 5 -4 9 -10 9 -5 0 -10
-7 -10 -16z"/>
<path d="M1600 830 c0 -11 4 -20 9 -20 5 0 7 9 4 20 -3 11 -7 20 -9 20 -2 0
-4 -9 -4 -20z"/>
<path d="M1028 813 c6 -2 18 -2 25 0 6 3 1 5 -13 5 -14 0 -19 -2 -12 -5z"/>
<path d="M1303 753 c9 -2 23 -2 30 0 6 3 -1 5 -18 5 -16 0 -22 -2 -12 -5z"/>
<path d="M1220 740 c-18 -12 -2 -12 25 0 13 6 15 9 5 9 -8 0 -22 -4 -30 -9z"/>
<path d="M1529 727 c-6 -14 -3 -45 3 -41 5 4 7 13 4 21 -4 11 -2 13 9 10 8 -4
16 -3 19 1 3 4 -4 9 -15 9 -10 1 -19 1 -20 0z"/>
<path d="M1350 716 c0 -2 7 -6 15 -10 8 -3 15 -1 15 4 0 6 -7 10 -15 10 -8 0
-15 -2 -15 -4z"/>
<path d="M1288 653 c6 -2 18 -2 25 0 6 3 1 5 -13 5 -14 0 -19 -2 -12 -5z"/>
<path d="M700 634 c-14 -8 -33 -12 -43 -10 -9 2 -14 0 -11 -6 7 -12 50 -2 78
18 26 18 9 17 -24 -2z"/>
<path d="M1388 613 c7 -3 16 -2 19 1 4 3 -2 6 -13 5 -11 0 -14 -3 -6 -6z"/>
<path d="M1128 563 c6 -2 18 -2 25 0 6 3 1 5 -13 5 -14 0 -19 -2 -12 -5z"/>
<path d="M488 1763 c7 -3 16 -2 19 1 4 3 -2 6 -13 5 -11 0 -14 -3 -6 -6z"/>
<path d="M1680 1760 c0 -5 7 -7 15 -4 8 4 15 8 15 10 0 2 -7 4 -15 4 -8 0 -15
-4 -15 -10z"/>
<path d="M1650 1740 c0 -5 5 -10 10 -10 6 0 10 5 10 10 0 6 -4 10 -10 10 -5 0
-10 -4 -10 -10z"/>
<path d="M567 1724 c3 -7 9 -14 14 -14 14 0 10 17 -5 23 -10 4 -13 1 -9 -9z"/>
<path d="M1745 1700 c-3 -5 -1 -10 4 -10 6 0 11 5 11 10 0 6 -2 10 -4 10 -3 0
-8 -4 -11 -10z"/>
<path d="M527 1683 c-4 -3 -7 -11 -7 -17 0 -6 5 -5 12 2 6 6 9 14 7 17 -3 3
-9 2 -12 -2z"/>
<path d="M481 1664 c0 -11 3 -14 6 -6 3 7 2 16 -1 19 -3 4 -6 -2 -5 -13z"/>
<path d="M639 1653 c-13 -15 -12 -15 9 -4 23 12 28 21 13 21 -5 0 -15 -7 -22
-17z"/>
<path d="M1570 1660 c-8 -5 -12 -12 -9 -15 4 -3 12 1 19 10 14 17 11 19 -10 5z"/>
<path d="M2066 1625 c-3 -8 -1 -15 4 -15 6 0 10 7 10 15 0 8 -2 15 -4 15 -2 0
-6 -7 -10 -15z"/>
<path d="M623 1615 c0 -8 4 -12 9 -9 5 3 6 10 3 15 -9 13 -12 11 -12 -6z"/>
<path d="M1800 1616 c0 -2 9 -6 20 -9 11 -3 20 -1 20 4 0 5 -9 9 -20 9 -11 0
-20 -2 -20 -4z"/>
<path d="M1707 1518 c18 -20 28 -24 17 -7 -3 6 -1 15 6 19 8 5 4 8 -13 7 -24
-2 -24 -3 -10 -19z"/>
<path d="M407 1511 c-4 -17 -3 -21 5 -13 5 5 8 16 6 23 -3 8 -7 3 -11 -10z"/>
<path d="M311 1500 c-1 -23 15 -45 23 -31 4 6 3 11 -3 11 -5 0 -12 8 -14 18
-3 12 -5 13 -6 2z"/>
<path d="M118 1453 c7 -3 16 -2 19 1 4 3 -2 6 -13 5 -11 0 -14 -3 -6 -6z"/>
<path d="M1781 1434 c0 -11 3 -14 6 -6 3 7 2 16 -1 19 -3 4 -6 -2 -5 -13z"/>
<path d="M1903 1388 c4 -10 2 -18 -2 -18 -5 0 -7 -9 -4 -20 3 -11 9 -18 13
-15 9 5 5 54 -6 63 -4 4 -4 -1 -1 -10z"/>
<path d="M471 1354 c0 -11 3 -14 6 -6 3 7 2 16 -1 19 -3 4 -6 -2 -5 -13z"/>
<path d="M160 1300 c0 -5 5 -10 11 -10 5 0 7 5 4 10 -3 6 -8 10 -11 10 -2 0
-4 -4 -4 -10z"/>
<path d="M346 1295 c-3 -9 -6 -24 -5 -33 0 -9 5 -4 10 12 9 32 6 48 -5 21z"/>
<path d="M88 1213 c7 -3 16 -2 19 1 4 3 -2 6 -13 5 -11 0 -14 -3 -6 -6z"/>
<path d="M1998 1213 c12 -2 30 -2 40 0 9 3 -1 5 -23 4 -22 0 -30 -2 -17 -4z"/>
<path d="M133 1203 c9 -2 25 -2 35 0 9 3 1 5 -18 5 -19 0 -27 -2 -17 -5z"/>
<path d="M205 1190 c-3 -5 3 -10 14 -10 12 0 21 5 21 10 0 6 -6 10 -14 10 -8
0 -18 -4 -21 -10z"/>
<path d="M92 1165 c0 -16 2 -22 5 -12 2 9 2 23 0 30 -3 6 -5 -1 -5 -18z"/>
<path d="M290 1180 c-12 -8 -11 -10 8 -10 12 0 22 5 22 10 0 13 -11 13 -30 0z"/>
<path d="M1940 1186 c0 -2 7 -6 15 -10 8 -3 15 -1 15 4 0 6 -7 10 -15 10 -8 0
-15 -2 -15 -4z"/>
<path d="M2050 1180 c19 -13 30 -13 30 0 0 6 -10 10 -22 10 -19 0 -20 -2 -8
-10z"/>
<path d="M248 1133 c7 -3 16 -2 19 1 4 3 -2 6 -13 5 -11 0 -14 -3 -6 -6z"/>
<path d="M1811 1114 c0 -11 3 -14 6 -6 3 7 2 16 -1 19 -3 4 -6 -2 -5 -13z"/>
<path d="M230 1039 c0 -5 5 -7 10 -4 6 3 10 8 10 11 0 2 -4 4 -10 4 -5 0 -10
-5 -10 -11z"/>
<path d="M110 1020 c0 -5 5 -10 10 -10 6 0 10 5 10 10 0 6 -4 10 -10 10 -5 0
-10 -4 -10 -10z"/>
<path d="M168 963 c7 -3 16 -2 19 1 4 3 -2 6 -13 5 -11 0 -14 -3 -6 -6z"/>
<path d="M480 965 c0 -5 5 -17 10 -25 5 -8 10 -10 10 -5 0 6 -5 17 -10 25 -5
8 -10 11 -10 5z"/>
<path d="M1921 954 c0 -11 3 -14 6 -6 3 7 2 16 -1 19 -3 4 -6 -2 -5 -13z"/>
<path d="M501 854 c0 -11 3 -14 6 -6 3 7 2 16 -1 19 -3 4 -6 -2 -5 -13z"/>
<path d="M520 820 c0 -5 5 -10 10 -10 6 0 10 5 10 10 0 6 -4 10 -10 10 -5 0
-10 -4 -10 -10z"/>
<path d="M345 780 c-3 -5 1 -10 9 -10 9 0 16 5 16 10 0 6 -4 10 -9 10 -6 0
-13 -4 -16 -10z"/>
<path d="M425 730 c-3 -5 -1 -10 4 -10 6 0 11 5 11 10 0 6 -2 10 -4 10 -3 0
-8 -4 -11 -10z"/>
<path d="M1660 709 c0 -5 5 -7 10 -4 6 3 10 8 10 11 0 2 -4 4 -10 4 -5 0 -10
-5 -10 -11z"/>
<path d="M396 655 c-3 -9 -6 -26 -5 -38 1 -14 4 -9 9 13 9 37 7 52 -4 25z"/>
<path d="M480 635 c0 -8 2 -15 4 -15 2 0 6 7 10 15 3 8 1 15 -4 15 -6 0 -10
-7 -10 -15z"/>
<path d="M1614 633 c1 -7 6 -16 11 -20 4 -4 5 -3 1 4 -3 6 2 16 11 22 16 9 16
10 -3 8 -12 0 -21 -7 -20 -14z"/>
<path d="M800 544 c0 -8 5 -12 10 -9 6 4 8 11 5 16 -9 14 -15 11 -15 -7z"/>
<path d="M1433 543 c-15 -5 -17 -23 -4 -23 5 0 11 7 15 15 3 8 4 15 3 14 -1 0
-8 -3 -14 -6z"/>
<path d="M1460 531 c0 -10 30 -24 37 -17 3 2 -5 9 -16 16 -12 6 -21 7 -21 1z"/>
<path d="M1645 527 c11 -9 23 -13 27 -11 5 3 8 -2 8 -10 0 -10 9 -16 26 -16
14 0 23 4 19 10 -3 6 -12 10 -20 10 -7 0 -15 4 -17 8 -1 5 -16 12 -33 16 -28
7 -29 6 -10 -7z"/>
<path d="M875 521 c-6 -11 13 -26 22 -17 4 3 1 6 -6 6 -7 0 -9 5 -6 10 3 6 4
10 1 10 -3 0 -7 -4 -11 -9z"/>
<path d="M322 490 c0 -14 2 -19 5 -12 2 6 2 18 0 25 -3 6 -5 1 -5 -13z"/>
<path d="M91 474 c0 -11 3 -14 6 -6 3 7 2 16 -1 19 -3 4 -6 -2 -5 -13z"/>
<path d="M618 483 c7 -3 16 -2 19 1 4 3 -2 6 -13 5 -11 0 -14 -3 -6 -6z"/>
<path d="M913 483 c9 -2 25 -2 35 0 9 3 1 5 -18 5 -19 0 -27 -2 -17 -5z"/>
<path d="M1358 483 c7 -3 16 -2 19 1 4 3 -2 6 -13 5 -11 0 -14 -3 -6 -6z"/>
<path d="M1600 475 c0 -8 2 -15 4 -15 2 0 6 7 10 15 3 8 1 15 -4 15 -6 0 -10
-7 -10 -15z"/>
<path d="M426 463 c-6 -14 -5 -15 5 -6 7 7 10 15 7 18 -3 3 -9 -2 -12 -12z"/>
<path d="M558 463 c7 -3 16 -2 19 1 4 3 -2 6 -13 5 -11 0 -14 -3 -6 -6z"/>
<path d="M515 450 c3 -5 11 -10 16 -10 6 0 7 5 4 10 -3 6 -11 10 -16 10 -6 0
-7 -4 -4 -10z"/>
<path d="M973 443 c9 -2 23 -2 30 0 6 3 -1 5 -18 5 -16 0 -22 -2 -12 -5z"/>
<path d="M730 436 c0 -2 7 -7 16 -10 8 -3 12 -2 9 4 -6 10 -25 14 -25 6z"/>
<path d="M1587 423 c-3 -5 -1 -17 4 -28 7 -17 8 -17 8 8 1 27 -4 34 -12 20z"/>
<path d="M625 400 c3 -5 8 -10 11 -10 2 0 4 5 4 10 0 6 -5 10 -11 10 -5 0 -7
-4 -4 -10z"/>
<path d="M1560 370 c0 -5 5 -10 11 -10 5 0 7 5 4 10 -3 6 -8 10 -11 10 -2 0
-4 -4 -4 -10z"/>
<path d="M530 360 c0 -6 7 -10 15 -10 8 0 15 2 15 4 0 2 -7 6 -15 10 -8 3 -15
1 -15 -4z"/>
<path d="M470 350 c8 -5 20 -10 25 -10 6 0 3 5 -5 10 -8 5 -19 10 -25 10 -5 0
-3 -5 5 -10z"/>
<path d="M325 340 c3 -5 8 -10 11 -10 2 0 4 5 4 10 0 6 -5 10 -11 10 -5 0 -7
-4 -4 -10z"/>
<path d="M1008 343 c6 -2 18 -2 25 0 6 3 1 5 -13 5 -14 0 -19 -2 -12 -5z"/>
<path d="M1199 337 c5 -5 26 -7 47 -5 l39 3 -47 5 c-26 3 -43 1 -39 -3z"/>
<path d="M1440 339 c0 -5 11 -9 25 -9 14 0 25 2 25 4 0 2 -11 6 -25 8 -14 3
-25 1 -25 -3z"/>
<path d="M1093 333 c9 -2 23 -2 30 0 6 3 -1 5 -18 5 -16 0 -22 -2 -12 -5z"/>
<path d="M1323 333 c15 -2 37 -2 50 0 12 2 0 4 -28 4 -27 0 -38 -2 -22 -4z"/>
<path d="M1520 324 c0 -8 5 -12 10 -9 6 4 8 11 5 16 -9 14 -15 11 -15 -7z"/>
<path d="M745 320 c3 -5 8 -10 11 -10 2 0 4 5 4 10 0 6 -5 10 -11 10 -5 0 -7
-4 -4 -10z"/>
<path d="M1602 310 c0 -14 2 -19 5 -12 2 6 2 18 0 25 -3 6 -5 1 -5 -13z"/>
<path d="M1271 264 c0 -11 3 -14 6 -6 3 7 2 16 -1 19 -3 4 -6 -2 -5 -13z"/>
<path d="M730 260 c-8 -5 -12 -11 -9 -14 2 -3 11 -1 19 4 8 5 12 11 9 14 -2 3
-11 1 -19 -4z"/>
<path d="M338 113 c12 -2 32 -2 45 0 12 2 2 4 -23 4 -25 0 -35 -2 -22 -4z"/>
<path d="M568 113 c6 -2 18 -2 25 0 6 3 1 5 -13 5 -14 0 -19 -2 -12 -5z"/>
<path d="M1260 116 c0 -10 28 -13 41 -5 10 6 7 9 -13 9 -16 0 -28 -2 -28 -4z"/>
<path d="M1353 109 c12 -7 27 -7 45 0 25 9 24 9 -18 10 -36 0 -41 -2 -27 -10z"/>
<path d="M1608 113 c7 -3 16 -2 19 1 4 3 -2 6 -13 5 -11 0 -14 -3 -6 -6z"/>
<path d="M1750 110 c20 -13 40 -13 40 0 0 6 -12 10 -27 10 -22 0 -25 -2 -13
-10z"/>
<path d="M15 2159 c-4 -6 -5 -12 -2 -15 2 -3 7 2 10 11 7 17 1 20 -8 4z"/>
<path d="M2215 119 c-6 -8 -4 -10 5 -4 10 6 12 4 6 -11 -6 -15 -5 -17 5 -6 9
9 10 15 2 23 -8 8 -13 7 -18 -2z"/>
<path d="M17 107 c-3 -7 3 -13 13 -13 10 0 16 6 13 13 -3 7 -9 13 -13 13 -4 0
-10 -6 -13 -13z"/>
<path d="M35 50 c-3 -5 1 -10 10 -10 9 0 13 5 10 10 -3 6 -8 10 -10 10 -2 0
-7 -4 -10 -10z"/>
<path d="M2190 50 c0 -5 5 -10 10 -10 6 0 10 5 10 10 0 6 -4 10 -10 10 -5 0
-10 -4 -10 -10z"/>
<path d="M2130 46 c0 -2 7 -7 16 -10 8 -3 12 -2 9 4 -6 10 -25 14 -25 6z"/>
<path d="M100 36 c0 -2 7 -7 16 -10 8 -3 12 -2 9 4 -6 10 -25 14 -25 6z"/>
<path d="M75 20 c-4 -6 3 -10 14 -10 25 0 27 6 6 13 -8 4 -17 2 -20 -3z"/>
<path d="M198 13 c7 -3 16 -2 19 1 4 3 -2 6 -13 5 -11 0 -14 -3 -6 -6z"/>
<path d="M248 13 c7 -3 16 -2 19 1 4 3 -2 6 -13 5 -11 0 -14 -3 -6 -6z"/>
<path d="M1058 13 c12 -2 32 -2 45 0 12 2 2 4 -23 4 -25 0 -35 -2 -22 -4z"/>
<path d="M1928 13 c6 -2 18 -2 25 0 6 3 1 5 -13 5 -14 0 -19 -2 -12 -5z"/>
</g>
</svg>
